<?xml version="1.0" standalone="no"?>
<!DOCTYPE svg PUBLIC "-//W3C//DTD SVG 1.1//EN" "http://www.w3.org/Graphics/SVG/1.1/DTD/svg11.dtd" >
<svg xmlns="http://www.w3.org/2000/svg">
<metadata>
This is a custom SVG webfont generated by Font Squirrel.
Copyright   : 2004  Copyright Designed by German Olaya wwwtypo5com  All rights reserved
Designer    : German Olaya
Foundry     : German Olaya
Foundry URL : httpwwwmyfontscom
</metadata>
<defs>
<font id="webfontaJeIpbGL" horiz-adv-x="728" >
<font-face units-per-em="1000" ascent="800" descent="-200" />
<missing-glyph horiz-adv-x="339" />
<glyph unicode=" "  horiz-adv-x="339" />
<glyph unicode="&#x09;" horiz-adv-x="339" />
<glyph unicode="&#xa0;" horiz-adv-x="339" />
<glyph unicode="!" horiz-adv-x="234" d="M528 599q0 5 -6 13q-14 6 -35 6q-38 0 -46 -8q-110 -107 -177 -182l-291 -329zM-70 15q0 9 -9 25q-13 22 -30 22q-15 0 -32 -17t-17 -28q0 -10 17 -27t32 -17q8 0 24 13q15 14 15 29z" />
<glyph unicode="&#x22;" horiz-adv-x="167" d="M190 732q4 34 -5 49t-32 13q-25 0 -33 -21q0 -1 -1 -1t-2 -1q-8 23 -34 23q-37 0 -37 -46v-14q0 -8 0.5 -15.5t1.5 -10.5v-4q22 -61 20 -86l1 1q1 1 1 2q6 5 19 6l3 6l-1 -6l2 9v12l2 -1l4 22l-5 -10q3 32 7 46q1 4 4 18h11q0 -5 0.5 -9.5t1.5 -7.5v-2q22 -61 20 -86l1 1 q1 1 1 2q6 5 19 6q1 -16 3 1q1 8 1 20l3 -1l10 20l-7 2l-5 -10q3 32 7 46q1 4 4 18h12q1 0 3 9zM96 647l-4 -14q0 2 1 3l2 11h1zM68 616v2v-2zM138 616v2v-2z" />
<glyph unicode="#" horiz-adv-x="695" d="M875 469q-11 20 -52 -3q-33 -17 -49 -33q-8 -7 -24 -30q-13 -17 -19 -20q1 13 -8 19t-27 6q-5 0 -25.5 -1t-26.5 -1q-36 0 -51 15q0 -8 -7 -15q-2 5 -12 17q-7 7 -7 17q0 12 42 83q4 6 8 24q5 18 11 27q11 13 50 36q38 23 55 23q7 0 30.5 -3.5t27.5 -3.5l20 47 q5 11 -61 16q-49 4 -67 4q-10 0 -10 7q0 9 10 26q9 16 20 25q-8 0 -32 7q-22 7 -37 7q-20 0 -31 -11l107 300h-74q-42 -119 -59 -160q-29 -94 -35 -115q-31 -94 -47 -94q-199 0 -208 -1l129 370h-66l-136 -362h-254q-7 1 -15 -15.5t-18 -49.5h264q-33 -83 -75 -222h-249 q0 -3 -7.5 -28t-7.5 -37q180 6 199 6q36 0 41 -5q-8 -48 -34 -48q-11 0 -11 -7q0 -4 3 -8l-17 15q9 -18 18 -18q4 0 7 3q4 -4 4 -22l-90 -271h66q33 109 82 218q27 -17 47 -33q-30 38 -30 78q0 10 29 42l52 54q58 2 81 2q69 0 88 -6q-12 -48 -35 -77l-17 15q3 -16 3 -33 q0 -54 -31 -135q-48 -123 -48 -125h73l41 122q24 69 48 111q15 -15 29 -15q6 0 11 7.5t12 7.5q5 0 20 -7.5t21 -7.5q42 0 67 18q205 168 294 248zM476 624q-31 -121 -69 -217h-201q0 1 -4 7t-4 15q0 15 77 195h201zM687 344q-59 -49 -83 -62q-53 -34 -101 -34l-33 -6 q26 75 38 102h179z" />
<glyph unicode="$" horiz-adv-x="717" d="M-184 255l22 -29v16q21 -78 75 -152q8 -22 8 -41q0 -43 -49 -104q-59 -73 -69 -100l6 -15q30 20 83 89q50 65 90 84q26 -14 33 -32q-8 -35 -55 -99q-49 -67 -53 -102q41 12 81 73q50 78 76 100q92 -30 182 -30q73 0 133 19q79 34 134 100q57 69 73 151q1 10 1 30 q0 76 -30 154l-70 169l234 331l22 11q48 -34 73 -91q12 -29 30 -105q0 -17 -13 -27t-30 -6q-39 0 -61 -22.5t-15 -59.5q8 -50 68 -50q7 0 25 2q53 23 64 97q9 172 -97 278q-13 17 -13 34q0 22 36 68q37 46 37 69q0 9 -1 14q-26 -12 -54 -47q-43 -57 -49 -63q-62 3 -62 28 q0 14 40 66t40 75q0 4 -2 10q-27 -9 -66 -63q-37 -53 -64 -66q-91 17 -151 17q-150 0 -229 -100q-53 -68 -53 -156q0 -98 81 -266l-295 -408l-27 -5q-94 79 -94 218q0 16 1 24q13 17 24 29q5 -3 23 -26q7 -10 35 -10q6 0 87 24q40 46 16 89q1 22 -27 56q-27 35 -51 35 q-75 0 -120 -118q-33 -88 -33 -167zM434 291q9 -25 9 -55q0 -66 -53 -152q-97 -97 -196 -97q-29 0 -60 11l-11 16q48 86 119 185l132 178q19 -5 29 -20q5 -7 17 -34.5t14 -31.5zM580 969q-9 -59 -72 -139q-92 -114 -102 -132q-28 -15 -31 -15q-8 0 -12 4q-28 40 -28 100 q0 38 11 74q46 112 188 112q26 0 46 -4zM341 443q-42 -95 -129 -207l-153 -196q-10 -7 -21 -7q-16 0 -28 18q135 229 293 424q38 -12 38 -32zM688 915q-77 -149 -232 -326q-29 9 -29 36q0 5 1 8q99 178 218 303q16 4 42 -21zM-97 406l-37 -32q8 32 37 32z" />
<glyph unicode="%" horiz-adv-x="798" d="M382 488q0 65 -89 65q-44 0 -70 -17q-49 -32 -81 -49q-41 -37 -57 -64q-10 -25 -13 -32q-9 -9 -15 -17q-4 -7 -5 -36q-2 -27 -8 -35q4 2 7 2q22 0 22 -21q0 -10 -6 -16h11q-1 12 2 17q9 -17 57 -17q57 0 133 63q71 59 97 123zM358 495q0 -6 -11 -33q-19 -45 -43 -71 q-102 -106 -165 -106q-19 0 -28 10q1 12 1 27q22 54 87 121q61 63 98 79q9 4 36 4q11 0 18 -10.5t7 -20.5zM602 540q-3 4 -3 7h-11l-375 -368q-17 -30 -20 -31l-150 -155q2 -2 3 -5l2 -3l178 168q2 0 4 -3zM645 251q0 65 -89 65q-44 0 -70 -17q-49 -32 -81 -49 q-41 -37 -57 -64q-10 -25 -13 -32q-9 -9 -15 -17q-4 -7 -5 -36q-2 -27 -8 -35q4 2 7 2q21 0 29 -20l57 -17q56 0 133 63q71 59 97 123zM621 258q0 -6 -11 -33q-19 -45 -43 -71q-102 -106 -165 -106q-19 0 -28 10q1 12 1 27q22 54 87 121q61 63 98 79q9 4 36 4q11 0 18 -10.5 t7 -20.5z" />
<glyph unicode="&#x26;" horiz-adv-x="988" d="M1292 465q0 21 -29 56q-31 37 -63 37q-98 0 -198 -67q-62 -41 -144 -123q-66 -66 -78 -66q-8 0 -12 3l-3 3q-12 92 -21 132l129 56q95 44 149 87q71 59 71 121q0 44 -29 70t-74 26q-68 0 -144 -46q-88 -53 -128 -177l-8 -54q-5 -35 -20 -42q-40 -18 -112 -33 q-84 -19 -94 -21q-73 -22 -137 -67q-74 -51 -105 -109t-31 -92q0 -44 40 -99q48 -64 106 -64h59l-8 15q-70 11 -84 20q-21 13 -21 54q0 74 77 163q67 75 165 133q95 56 152 56q15 -15 16 -33q0 -4 1.5 -11l4 -19.5l4.5 -22.5q7 -31 7 -42q0 -24 -38 -89q4 -10 0 -20 q-8 -9 -48 -49q-34 -32 -50 -45l-26 -17l-144 -83q15 -3 29 -3q39 0 109 35l31 19q18 5 25 18q8 15 21 14q2 -2 63 -167q-7 -7 -21 -7q10 -7 10 -15q0 -4 -5 -12q-9 -18 -79 -137q-169 -175 -284 -239t-255 -64q-82 0 -124 12q-96 28 -96 119q0 85 89 141q77 48 122 48 q51 0 158 -10q-7 31 -124 31q-74 0 -86 -3q-36 -9 -93 -44q-53 -33 -71 -61q-13 -21 -25 -55q-13 -33 -13 -47q0 -90 121 -139q87 -35 160 -35q17 0 91 8q87 11 131 22q79 29 105 41q7 -10 7 -14q18 30 83 65q79 43 105 66q122 102 162 246q3 -7 19 12q18 21 19 48l3 52 q7 31 40 53q-15 48 -27 82q0 2 5.5 14t4.5 15q-26 47 -26 59q0 50 33 51h15q9 1 9 9v37l-21 20l163 161q79 70 150 70q25 0 29 -4q-10 -56 -10 -62q0 -55 52 -55q9 0 35 20q29 23 29 44zM1058 707q0 -62 -118 -138q-106 -68 -150 -67h-45v44q0 13 40 81l17.5 30.5l12.5 21 t4 7.5q29 38 63 54q68 31 104 31q72 0 72 -64zM747 267h-11l-8 17l10 4z" />
<glyph unicode="'" horiz-adv-x="167" d="M120 652q4 44 -3 39q-8 23 -34 23q-37 0 -37 -46v-14q0 -8 0.5 -15.5t1.5 -10.5v-4q22 -61 20 -86l1 1q1 1 1 2q6 5 19 6q3 2 5 32q3 32 7 46q1 12 16 18q1 0 3 9zM68 536v2v-2z" />
<glyph unicode="(" horiz-adv-x="285" d="M566 898l-19 6q-253 -135 -402 -296q-180 -194 -180 -395q0 -156 91 -248q3 -1 12 -1v15q-56 80 -56 173q0 126 54 211l27 25q-10 0 -16 11q13 11 19 11q4 0 8 -2t7 -4l3 -2q4 4 7.5 12t4.5 9l2 19q35 35 35 51q0 5 -2 11q-11 20 -6 27q139 216 411 367z" />
<glyph unicode=")" horiz-adv-x="826" d="M739 645q0 69 -14 114q-17 52 -61 113q-6 8 -27 19q0 -15 9 -28q46 -68 46 -159q0 -79 -31 -165q-34 -95 -91 -169q-7 0 -7 -15q0 -5 -39 -57q-41 -54 -58 -72q-79 -85 -167 -150q-55 -42 -159 -100l19 -6q70 29 168 94q90 59 149 109q106 92 182 210q26 23 40 30 q8 10 13 27q1 7 5 26q-9 -17 -17 -17v5q40 111 40 191z" />
<glyph unicode="*" horiz-adv-x="378" d="M333 557q0 10 -11 24q-9 10 -16 13q-16 6 -67 13q-42 6 -60 24q47 21 62 21q35 0 68 16q8 4 16 17.5t8 20.5q0 13 -10 23q-19 21 -35 21q-8 0 -18 9q2 -7 -5 -17q-8 -11 -16 -14q2 -6 2 -7q-9 -21 -32 -44q-26 -26 -41 -33l-2 40q15 44 32 58l5 8q13 5 17 5q3 11 11 11 q2 6 2 12q-5 24 -17 24q-2 0 -11 -4t-11 -4q-5 0 -16 11q-10 12 -15 12h-14q-9 0 -19 -19q-9 -18 -9 -24q0 -3 11 -39q11 -34 16 -55q6 -23 4 -39q-29 17 -71 69q-26 32 -50 32q-9 0 -22 -9q-16 -12 -16 -28q0 -20 15.5 -31t65.5 -17q51 -6 69 -29q-31 -17 -76 -23 q-44 -6 -60 -17q-14 -11 -14 -29q0 -14 10 -26t26 -12q27 0 61 42q39 47 62 59q2 -27 -12 -68q-19 -58 -19 -68t10 -25t18 -15l11 4q15 0 25.5 11t10.5 26q0 4 -17 61t-17 61q0 11 2 13q36 -24 61 -55q34 -46 59 -46q2 0 4.5 2t6.5 2q11 0 19.5 11t8.5 21z" />
<glyph unicode="+" horiz-adv-x="1257" d="M1106 475v58h-358v368h-47v-368h-346q-7 0 -26 -8q-15 -7 -24 -7q19 -16 27 -45q1 -7 3 -25q8 0 11.5 1t2.5 3q25 13 197 13h155v-345h44v343l11 -2q31 0 56 16q286 7 294 -2z" />
<glyph unicode="," horiz-adv-x="137" d="M101 47q0 11 -2 13q-26 17 -31 17q-14 0 -21 -12q-11 -21 -14 -22q-12 -28 -14 -34q-32 -33 -59 -56l12 -3q69 37 96 59q3 0 6 -1.5t5 -1.5q7 0 14.5 14.5t7.5 26.5zM94 50h-5v10h5v-10z" />
<glyph unicode="-" horiz-adv-x="685" d="M598 488q0 9 5 17l-16 15q-317 -3 -394 -3q0 -16 -5 -27q-3 -8 0 -11q20 2 30 4q38 -5 63 -3l58 2q84 0 125 1q6 0 22.5 1t48.5 2zM470 482q52 -1 92 1h-98l-5 -1h11z" />
<glyph unicode="." horiz-adv-x="118" d="M78 35q0 14 -4 19q-17 26 -28 26q-15 0 -29 -13t-14 -29q0 -9 13.5 -23.5t24.5 -14.5q10 0 23.5 11.5t13.5 23.5z" />
<glyph unicode="/" horiz-adv-x="302" d="M659 844l-5 10h-14q-201 -193 -643 -658l-230 -237l9 -10q4 -6 5 -9q7 8 12 15q56 52 70 67l410 418z" />
<glyph unicode="0" horiz-adv-x="738" d="M281 638q-135 -186 -171 -242q-63 -96 -71 -151q-6 -54 -6 -59l7 -85q36 -36 47 -60l1 1q1 1 3 2t6 1q21 0 39 -19q0 5 4 6q3 2 7 -1v27q-38 20 -38 59q0 38 20 73q39 68 109 154q63 79 110 121q15 14 46 27q27 13 36 13q4 0 9.5 -1t9.5 -2l4 -1q0 16 -9 25q26 17 38 36 l-45 -29q-9 7 -12 8l112 113q80 77 140 118q81 54 150 59l-5 32q-9 -1 -48 -8q-170 -24 -201 -47q-55 -16 -103 -42q-62 -40 -85 -60q-6 8 -9 13q-1 1 -18 1q-42 0 -61 -39q0 -1 -1 -4t-2.5 -8.5t-3.5 -10.5q-5 -16 -9 -20zM938 742q0 26 -20 58q-21 34 -47 39 q-10 -6 -15 -10q19 -11 32 -36q11 -20 11 -37q0 -62 -117 -242q-56 -89 -158 -179q-158 -148 -236 -182q-1 0 -7 -3l-18.5 -9.5t-26.5 -12.5q-31 -16 -38 -16q-2 0 -11 21q-7 22 -37 22q-4 0 -20.5 -5t-19.5 -5q0 -16 -2 -17q-1 0 -4 8q-2 5 -9 5q-3 0 -6 -1.5t-4 -3 t-3 -3.5l-1 -2q34 -16 34 -36q0 -14 -43 -42q4 -4 4 -11q0 -12 -14 -24q33 5 110 0q45 36 79 55q53 27 141 110q36 23 57 31q43 26 86 72l75 86q157 172 202 268q9 20 18 58q8 35 8 44zM345 634l-22 -16l-4 7l21 16zM848 831v23h-8v-23h8z" />
<glyph unicode="1" horiz-adv-x="576" d="M902 905q-1 19 -5.5 28t-13.5 8q-38 0 -71 -16q-92 -56 -148 -100l-81 -41q-45 -37 -58 -52q-73 -40 -94 -50q-21 -17 -32 -29q-156 -83 -247 -138v-17l20 1l393 224q5 0 16 -9q80 74 105 74q7 0 9 -2q-37 -60 -176 -198q-100 -99 -282 -296q-218 -238 -218 -261 q4 -15 11 -20l113 2q8 0 56 51q38 43 52 60q47 68 50 73l203 235q251 305 393 445q1 13 -2 17q7 7 7 11z" />
<glyph unicode="2" horiz-adv-x="708" d="M883 684q46 109 12 134q0 39 -31 61q-31 23 -42 13q-42 9 -66 9q-60 0 -169 -42q-129 -50 -211 -120q-103 -88 -103 -188q0 -38 36 -65q32 -23 66 -23q65 0 154 64l151 112l7 -7q-65 -106 -258 -253q-18 -26 -54 -53l-177 -131l-229 -172q-1 -5 -1 -12l26 -6l111 73 q79 51 125 51q31 1 56 -39q10 -16 32 -48q12 -16 19 -22q27 -13 86 -7q7 -4 7 -1q26 17 43 17q24 7 45 5l15 14v5q16 30 56 54q39 23 53 43q4 9 1 20q0 1 -5 -2.5l-16.5 -11l-27.5 -18.5q-50 -33 -59 -33q-13 0 -170 79q81 117 79 119l177 115q105 71 183 155q77 82 79 111z M782 814v-36q-1 4 -11 4q-3 0 -85 -79q-92 -91 -128 -119q-45 -36 -72 -48q-5 -3 -18 -10t-19 -10.5t-17.5 -9t-19 -8.5t-17.5 -5t-18 -2q-47 0 -47 38q0 14 26 48l34 42q47 67 169 156q134 98 197 98q4 0 9 -1.5t9 -3.5l3 -1q0 -2 -3 -14q-2 -11 0 -15z" />
<glyph unicode="3" horiz-adv-x="692" d="M991 793q0 25 -12.5 54.5t-29.5 38.5q-68 37 -79 37h-51q-4 0 -11.5 -2t-13.5 -4l-7 -2q-84 -11 -172 -42q-53 -27 -78 -45q-41 -23 -62 -87q-2 -6 -2 -31q0 -90 108 -90q25 0 95 40q68 39 80 49q25 20 55 53q27 32 27 38t-11 17q-18 -7 -27 -15l-62 -63q-30 -26 -81 -52 q-62 -32 -100 -32q-7 0 -14.5 6.5t-7.5 13.5q0 9 29 52q43 64 127 109q75 41 145 48l8 4q9 4 14 4q11 0 33 -16q26 -18 26 -37q0 -38 -55 -103q-55 -66 -88 -88q-23 -18 -32 -27q-88 -43 -247 -113q12 -12 10 -14l8 -2h2q17 0 22 5q4 -4 1 -12q23 -20 23 -56q0 -28 -17 -45 l43 13q-7 22 2 45q-1 8 -2.5 15.5t-2.5 10.5v4q14 26 23 31q5 3 18 3q25 0 44 -12q24 -14 24 -39q0 -17 -21 -41l-30 -34q-33 -47 -82 -81q-8 16 -14 26l-17 -17q-5 10 -5 18q0 5 5 20t5 19q-35 -16 -55 -19q-11 -3 -28 -19q-17 -17 -17 -23q0 -5 9 -5q10 0 4 -7 q-13 -36 -14 -51q-49 -84 -95 -112l-52.5 -32.5l-35 -22t-11.5 -6.5q-39 -19 -110 -19q-47 0 -57 2q-27 6 -55 37q-5 5 -5 20q0 13 3 16q14 -2 20 -2q35 0 56.5 18.5t21.5 51.5q0 20 -11 40q-15 28 -43 28q-2 0 -14 2q-7 2 -9 0q-62 -27 -79 -47q-6 -7 -6 -39q0 -49 6 -64 q14 -36 46 -62q35 -26 63 -26q7 0 10 1q10 -7 13 -7l14 5h25q4 0 9.5 -2.5t8.5 -2.5t15.5 -2t16.5 -1l9 4q7 4 12 4q16 0 24 -7q-45 -52 -56 -67q10 5 26 25q13 18 28 18q4 0 11.5 -4.5t10.5 -4.5q9 0 40 24q37 28 48 32q142 52 207 86q3 2 25 20q16 14 20 14q2 0 27 -5 q20 -4 28 -4q82 0 195 95l-11 3q-40 -25 -73 -49q-53 -32 -82 -32q-23 0 -40 20l41 40l36 34q25 26 35.5 51t13.5 70q-7 69 -22 105q-5 9 -18 27q-11 16 -11 20q0 14 65 43l91 35q32 20 45 33q51 28 71 64q17 32 17 84z" />
<glyph unicode="4" horiz-adv-x="649" d="M726 416l-11 -5v6l6 3q-9 2 -15 6l56 77q42 59 42 69q0 5 -2 10.5t-2 6.5q-11 4 -35 4q-41 0 -82 -42q-62 -67 -85 -81l-34 -20q-22 -14 -27 -22l24 15.5l17 10.5l5 4q1 -11 -20.5 -31.5t-65.5 -51.5q-7 7 -7 11q-10 -20 -9 -24q-5 -5 -7 -6h-100l-77 51q-12 1 -20 1v24 q4 2 12 5q42 46 118 95q81 54 100 63l84 64q174 143 249 211q18 15 43 44q27 32 27 37q0 22 -31 26h-48q-47 0 -52 -1q-28 -6 -79 -61t-57 -60q-57 -54 -79 -77h-3q-3 -1 -5 -2t-5.5 -2.5t-6 -4t-3.5 -6.5q10 10 15 5l-49 -49q-25 -25 -45 -33q-112 -109 -131 -125 q-2 -14 -38 -53q-37 -39 -50 -39q-5 0 -21 11q-123 -98 -113 -123q-2 -12 -3 -17q-11 -9 -33 -25q-30 -25 -30 -34q0 -7 5 -12h19q4 0 26 11q21 12 26 12t44 15q40 16 41 19h116q10 0 40 -14q34 -16 34 -30q0 -15 -65 -83l-66 -66q-61 -77 -61 -88q0 -32 81 -32q43 0 50 9 l218 239q9 7 28 6q20 -1 32 -1q25 8 33 13q57 9 122 29v21h-23q-3 0 -32 -8q-24 -7 -31 -7q-30 0 -30 8q0 2 23 46l63 54q-6 -2 -7 -2h-6zM744 428q-5 -5 -8 -6q2 1 4 3t4 3zM721 420l2 1v-1h-2z" />
<glyph unicode="5" horiz-adv-x="494" d="M919 906v22h-21q-47 -21 -73 -26q-14 -2 -60 -2q-57 0 -60 1q-15 3 -72 25q-46 17 -50 17q-22 0 -85 -64l-85 -93q-64 -69 -127 -128q-124 -116 -146 -165h22q74 61 153 102q100 53 166 53q36 0 59 -17q26 -20 26 -56q0 -27 -26 -74q-30 -42 -45 -58q-51 -77 -74 -77 q-12 0 -58 -38q-43 -37 -30 -47q-23 -23 -32 -24q-5 -27 -61 -73q-42 -34 -75 -54q-24 -13 -68 -27q-40 -13 -52 -13q-4 0 -13.5 -4.5t-13.5 -4.5t-21 2t-20 2q-14 0 -56 42q2 2 4 3.5t3 2.5l2 1q23 15 38 35q1 5 3 11t2 7q16 -1 31 7q-18 12 -29 47l-16 48h-17 q-32 -11 -48 -12q-41 -12 -67 -56q-22 -35 -22 -68q0 -72 74 -107q51 -24 122 -24q109 0 263 60q36 15 73 38l63 41q89 53 162 151q77 104 77 181q0 184 -172 184q-9 0 -50 -10t-50 -10q-7 0 -19 12l85 92q89 90 116 90q5 0 70 -15q67 -14 71 -14q50 0 125 27q76 29 104 57z M-25 59q-8 -2 -14 -2q-27 0 -52 13q-33 16 -40 39q21 -13 32 -23q35 -20 74 -27z" />
<glyph unicode="6" horiz-adv-x="525" d="M973 859q0 45 -26 70.5t-71 25.5q-56 0 -142 -36q-110 -47 -111 -48l-130 -78q-69 -40 -187 -123q-5 -15 -17 -23q-90 -63 -177 -180q-108 -145 -108 -261q0 -64 14 -97q19 -45 76 -73q24 -11 45 -11q5 0 19 7l15 6q87 10 234 86q49 26 99 69q117 103 133 161q1 11 5 33 q5 24 21 25q-5 28 -5 69q15 4 51 1q-19 5 -47 51q-1 0 -5 -2t-9 -2t-6 1t0 2q1 0 2 1q-28 38 -37 44q-17 16 -47 16q-5 0 -32 -8q-24 -7 -31 -7q-54 0 -54 46q0 12 60 65q74 65 91 84q23 8 34 7q9 8 33 38q22 28 35 37q52 34 75 43q30 13 68 13q20 0 30 -13q-39 -44 -39 -61 q0 -20 18 -39.5t40 -19.5q35 0 59 22.5t24 58.5zM582 479q-71 -129 -348 -374q-12 -10 -41 -18q-63 -18 -69 -18q-51 0 -51 54q0 55 36 104l63 89q38 52 68 83q32 13 54 18l57 38q29 21 51 26q22 9 35 17q12 2 54 2q37 0 55 -2q2 0 16.5 -9.5t19.5 -9.5zM996 592 q-18 -59 -85 -93q-53 -27 -108 -28h28q36 0 61 14l15 -15q35 14 63 54q29 41 26 68zM743 473v9h-18v-9h18zM98 59l-15 -6v7l12 6zM774 472q5 -1 29 -1h-12q-12 0 -17 1zM768 473q0 -1 4 -1q-3 0 -4 1zM714 482h-3h3z" />
<glyph unicode="7" horiz-adv-x="635" d="M1014 883q-18 0 -18 3v7q-88 -51 -94 -51t-5 12l2 12t1 8l1 2q-31 -30 -40 -30q-3 0 -7 2t-8 2q-3 0 -7 -4t-8 -4q-3 0 -109 67q-11 6 -12 5l-2 2l-6.5 4.5t-7.5 2.5t-20 2.5t-19 2.5l-237 -7q4 -1 10 -7l10 -23l-58 -56q-19 -14 -66 -58q-61 -58 -61 -73q0 -12 5 -17h15 l80 61q60 45 105 60l4 3q5 3 17.5 7t31.5 8q31 7 36 7q19 0 52 -6q19 -3 58 -19q52 -21 52 -35q0 -13 -9.5 -23t-24.5 -9q10 -10 4 -15q1 -4 2.5 -12t1.5 -11q-29 -17 -30 -18l26 -38l-355 -263q-60 -46 -75 -61l-175 -172q-32 -37 -39 -48q-13 -18 -22 -29q-9 -12 -9 -17 q0 -32 81 -32q46 0 74 22q14 11 55 63q39 49 84 88q6 10 7 13q106 108 119 122q2 1 9 7.5t21 18l29 24.5q34 27 56 51q33 41 37 47q36 40 80 80q52 48 59 48t15 -6l-19 -27q29 29 43 29q8 0 31.5 -11t43.5 -13l-39 26q8 7 13 10q-11 0 -19 -8q-15 18 -15 22q0 9 23 32l-8 -6 q-4 4 -1 6q130 122 220 197q10 16 11 23zM465 906l-27 9h140q-11 -1 -38 -14q-27 -12 -31 -12q-1 0 -8 3.5t-17.5 8t-18.5 5.5zM782 656q-14 -16 -21 -18l-9 3q6 15 15 15h15zM877 567l-30 14v-7l27 -14zM989 519l-26 10v-6l23 -10zM702 700h-8v16h8v-16zM906 556h-2 q-1 1 -3 1.5t-4 0.5t-6 1t-6 1q5 -2 5 -10zM408 921q5 2 10 0h-10z" />
<glyph unicode="8" horiz-adv-x="505" d="M707 360v16q-12 8 -10 16l-11 93q0 1 -6.5 6.5t-6.5 10.5t13 27t13 28q0 3 -9 15t-9 16q0 5 2 11q-25 -19 -36 -30q-28 -14 -72 -14q-31 0 -59 54q-25 47 -25 78q0 61 40 104q37 40 123 83v17h-27q-5 0 -17 -6l-11 -6q-65 -14 -151 -83q-46 -36 -66 -101q-10 -29 -5 -112 q4 -22 7 -33q6 -20 4 -33q-6 -24 -75 -47q-57 -17 -77 -17q-3 0 -13.5 2t-14.5 2q-19 0 -20 -1q-10 -3 -21 -21q2 3 27 2q-108 -44 -134 -60q-83 -50 -104 -116q-10 -31 -10 -65q0 -83 59 -136q12 -10 68 -23q56 -14 75 -14q2 0 15 3q9 1 14 -2v-18h17q0 18 9 29 q-20 10 -29 10q-4 0 -14 -2t-13 -2q-70 0 -146 55q-12 15 -11 15q0 7 -2 31t-2 25q0 93 100 171q91 70 195 85q15 1 54 17q32 13 52 13h23q8 -3 23 -20q-4 -4 -1 -7q0 4 4 5q22 -45 23 -59q1 -2 1 -48q0 -83 -33 -137q-40 -62 -144 -125v-21h19q58 0 209 142q19 19 37 59 t32 56q15 17 16 22q22 27 43 27q19 -1 26 -0.5t22.5 6.5t19.5 7zM903 774q0 22 -6 45q-3 8 -35 35q-31 28 -42 28h-14v-16q52 -25 52 -83q0 -55 -48 -110q-42 -48 -101 -76q-9 -6 -9 -20h20q67 33 111 71q72 62 72 126zM752 874v30h-70v-30h70zM612 347h-8v17h8v-17z M695 609q-2 -1 -6 -5t-6 -5q4 5 12 10z" />
<glyph unicode="9" horiz-adv-x="564" d="M925 805q0 40 -4 56q-8 32 -35 58q-12 11 -34 25q-23 14 -30 14q-6 0 -30 -3t-27 -3q6 -9 6 -26q-4 3 -4 8q-2 -6 -4 -8q-11 16 -3 27q-86 -25 -94 -26q-53 -5 -80 -3q-23 -12 -34 -14q-1 -14 -19 -19q-108 -29 -199 -142t-91 -214q0 -39 20 -79q65 -81 126 -138 q22 4 24 -2q-4 -4 -8 -12q-3 -5 -8 -5l-25 -24q-14 -10 -66 -65q-38 -39 -216 -112q-4 0 -40 11q-34 12 -40 12q-15 17 7 27l13 4.5l16 5.5q16 32 46 83v62l-1 -1q-1 -1 -3.5 -2t-6.5 -1q-3 0 -19 16t-38 16q-76 0 -116 -97q-3 -8 0 -24q0 -3 1.5 -11t2.5 -12q4 -30 -1 -49 q-7 -5 28 -29q39 -26 67 -42q46 -29 57 -29q13 0 189 24q31 31 37 31q4 0 5 -2t4 -2q17 0 59 20q52 33 87 61q207 194 209 203q66 71 105 105q49 61 67 88q61 80 62 87q5 23 28 80q10 23 10 72zM696 803q0 -5 -8 -16q-4 -4 -7.5 -8t-4.5 -6l-2 -2l-12 -35q-49 -65 -102 -125 q-9 -17 -12 -27q-20 -25 -40 -41q-30 -24 -47 -24q-13 0 -13 -9q-15 5 -21 5q0 11 4 15q-17 9 -27 9l46 22q28 16 60 167q11 26 23 40q79 85 109 85q14 0 34 -18t20 -32zM843 915q-31 -21 -41 -21q-8 0 -30 6q-9 2 -18 4.5l-14 4t-7 1.5q48 16 53 16q11 0 57 -11zM490 403 q-42 -52 -71 -81l-6 22q35 5 35 32q0 6 -3 12l5 21zM742 888l-20 -21l-9 9q-5 -2 -5 -4q-2 5 -16 21q38 0 50 -5zM746 939q0 -14 2 -16h-23v16h21zM824 943q0 -10 -16 -17q-2 8 -6 22zM790 931h-8v17h8v-17zM757 927h-7v12h7v-12z" />
<glyph unicode=":" horiz-adv-x="159" d="M158 305q0 14 -4 19q-17 26 -28 26q-15 0 -29 -13t-14 -29q0 -9 13.5 -23.5t24.5 -14.5q10 0 23.5 11.5t13.5 23.5zM88 45q0 14 -4 19q-17 26 -28 26q-15 0 -29 -13t-14 -29q0 -9 13.5 -23.5t24.5 -14.5q10 0 23.5 11.5t13.5 23.5z" />
<glyph unicode=";" horiz-adv-x="159" d="M158 305q0 14 -4 19q-17 26 -28 26q-15 0 -29 -13t-14 -29q0 -9 13.5 -23.5t24.5 -14.5q10 0 23.5 11.5t13.5 23.5zM81 47q0 11 -2 13q-26 17 -31 17q-14 0 -21 -12q-11 -21 -14 -22q-12 -28 -14 -34q-32 -33 -59 -56l12 -3q69 37 96 59q3 0 6 -1.5t5 -1.5q7 0 14.5 14.5 t7.5 26.5zM74 50h-5v10h5v-10z" />
<glyph unicode="&#x3c;" horiz-adv-x="458" d="M448 561q0 4 -6 11.5t-12 7.5q-4 0 -29 -28q-30 -33 -43 -43q-87 -58 -122 -79l-65 -39q-22 -14 -34 -29q-14 -20 -14 -38q0 -10 1 -13q101 -119 128 -153q32 -47 41 -64q8 -8 18 -8q2 0 10 8v33q0 6 -28 66q-27 62 -32 62l-2 2q-3 44 6 70l17 24l88 102l45 50 q33 37 33 58z" />
<glyph unicode="=" horiz-adv-x="688" d="M553 211q0 6 5 13l-13 13q-252 -3 -315 -3q0 -11 -4 -22q-3 -6 0 -8q14 2 24 3q21 -2 97 -1l101 1q8 1 105 4zM560 312l-330 -2q0 -11 -4 -22q-3 -7 0 -8q14 0 24 3q21 -2 97 -1h95q1 0 111 5q0 8 7 25zM451 206h-9q1 0 6 1h77q-33 -2 -74 -1zM451 281l-9 1q56 0 83 1 q-30 -2 -74 -2z" />
<glyph unicode="&#x3e;" horiz-adv-x="323" d="M332 344l-121 -139q-54 -71 -76 -71q-3 0 -4 1q2 -14 2 -38q7 0 38 18q38 22 53 34q89 61 120 79l66 39q22 14 34 29q14 20 14 38q0 10 -1 13l-128 153q-32 47 -41 64q-8 8 -18 8q-2 0 -10 -8v-33q0 -3 47 -106q7 -22 13 -22l2 -2q0 -4 6 -23t6 -25q0 -3 -2 -9zM129 140 q1 -1 1 -2q1 -2 1 -3q-3 1 -3 4z" />
<glyph unicode="?" horiz-adv-x="558" d="M830 601q0 34 -10 60q-14 35 -39 39q0 -4 5 -12l6 -7q5 -23 0 -40q-12 -33 -38 -65q-28 -35 -51 -44q-28 -11 -84 -47l-84 -59l-198 -132q-132 -93 -195 -173q-10 -19 -11 -29q-17 -18 -30 -28q-28 17 -33 17q-15 0 -38 -26q-22 -25 -22 -40q0 -9 20 -32q23 -26 42 -26 q4 0 20 6.5t19 6.5q18 28 37 28q8 0 27 -6q0 5 -6.5 23t-6.5 24q34 72 66 123q31 51 161 112q51 26 122 48l178 64q89 77 100 92q20 28 29 46q14 33 14 77zM697 714v19h-63q-4 0 -13.5 -5.5t-11.5 -5.5q-44 -2 -50 -2q-30 -8 -62 -21q-175 -75 -175 -174q0 -25 18 -51 q21 -30 51 -29h25v15q-13 0 -29 10q-20 11 -20 24q0 30 81 94q65 51 88 62l78 39q45 20 83 25zM714 634q-26 -15 -40 -21l-58 -56l-87 -54q-52 -31 -99 -35v-19h30q5 0 18 9l12 10q53 14 120 62q74 53 104 104z" />
<glyph unicode="@" horiz-adv-x="1295" d="M1163 135q0 27 -7 42q-11 16 -20 26q-3 7 -5.5 13.5t-4.5 12.5l-3 9q-11 12 -42 17l-44 7q40 102 40 194q0 184 -118 293q-113 106 -295 106q-221 0 -382 -155q-171 -164 -171 -414q0 -217 140 -365q144 -152 369 -152q151 0 284 80q150 91 212 260l4 -5q-6 -14 -7 -22 q4 -10 3 -11q-15 -19 -16 -21q45 21 50 28q13 19 13 57zM1120 118q-4 3 -12 3q-10 0 -15 -9l-36 -71q-25 -45 -52 -67q-54 -47 -51 -52q-128 -125 -329 -125q-210 0 -337 133q-127 131 -127 340q0 220 132 384q146 179 374 179q167 0 273 -99q109 -102 109 -268 q0 -132 -46 -211q-45 -78 -71 -101q-17 -14 -63 -46q-41 -27 -70 -27q-49 0 -49 51q0 61 22 111q6 13 23 16l24 4q10 8 13 11q23 13 23 71q0 1 -8.5 26t-8.5 44q0 -1 3.5 16l11 56l17.5 89q-5 5 -9 5q-11 0 -66 -11q-15 -12 -21 -54h-14q-23 71 -95 71q-45 0 -110 -46 q-91 -61 -150 -167q-59 -104 -59 -193q0 -46 26 -87q30 -47 76 -47q47 0 114 53q37 29 109 104q9 -4 6 -26q-4 -23 -4 -48q0 -39 15.5 -56t60.5 -30q8 2 31 2q169 27 174 50q13 0 36 4q25 4 35 16l38 41q4 0 21 3.5t19 3.5q5 0 11 -7t6 -13v-26zM747 473q0 -106 -71 -228 q-78 -133 -171 -133q-73 0 -73 88q0 95 77 226q82 139 162 139q76 0 76 -92z" />
<glyph unicode="A" d="M-210 -30q98 0 212 55q116 56 180 130l98 -42q60 -25 102 -35l-10 -64q20 -10 64 -10q16 0 41 30q29 37 36 40l108 45q90 37 90 58l-11 10l-77 -43q-45 -23 -83 -25q65 109 173 246q153 195 185 245l121 131q76 82 127 125l50 53q28 35 47 69l14 4l12 24l53 3h14q0 3 3 3 q11 0 35 -4q26 -4 37 -1q6 2 10 6q5 5 20 44l-12 13l-31 19q-47 -1 -81 -1q-24 0 -69 -17q-40 -15 -67 -27q-24 -11 -44 -11l-39 -19q-307 -186 -543 -437l-32 -37q-23 -25 -40 -23q-63 107 -115 185q-93 72 -157 72q-81 0 -143 -71q-50 -59 -73 -147q22 -50 28 -118 t22 -105q29 -69 111 -166q-37 -38 -97 -80q-69 -48 -98 -73q-10 -1 -71 -20q-42 -13 -74 -13q-75 0 -114 15q-52 19 -85 78q0 3 -1 9t-1.5 10.5t-0.5 6.5q0 6 5 4q20 -11 46 -11t38.5 10.5t11.5 32.5q-1 15 -1 27q-7 22 -29 38q-13 5 -21 9q-45 2 -68 -36l-6 -25.5t-4 -17.5 l-1 -5q0 -73 67 -122q62 -44 138 -44zM176 201q-60 67 -86 105q-42 64 -52 123q-4 17 -4 67q-2 44 -6 66q25 60 61 92q2 1 89 62q12 0 38 3q23 4 38 4q69 0 129 -83q29 -39 79 -141q-16 -38 -132 -154q-97 -98 -154 -144zM494 243q14 78 14 138q0 18 -4 53q-3 30 -1 54 q98 107 234 226l248 208q-5 -19 -70 -82q-44 -86 -44 -109q0 -10 -3.5 -21t-8 -19t-14 -19l-14.5 -16.5t-17.5 -17.5l-16.5 -16l-296 -382q-2 -2 -7 3zM384 107q-152 27 -171 73q14 21 87 100q73 78 85 82q51 61 76 83l14 -6q5 -23 5 -92q0 -93 -66 -235q-17 0 -30 -5z" />
<glyph unicode="B" horiz-adv-x="841" d="M441 18v2l5 -2q4 -1 15 -1q-3 -1 -6.5 -1.5t-5 -1l-3 -1t-2.5 -0.5h1h-1h1q17 -3 33 -3q51 0 104 29l136 80q92 107 93 171q3 64 -17 151q0 5 -1 6v-1q-12 48 -16 78q86 53 164 126q63 58 63 147q0 24 -4 47q-25 53 -31 64q-23 51 -23 66q0 7 1 10q5 17 55 60l66 56 q-1 0 -2.5 0.5t-2.5 1.5h-2q-101 -79 -119 -97q-9 -9 -26 -9q-28 0 -75 22q-2 -4 -2 -6q0 -8 21 -9q27 -3 35 -47l-73 -78q-88 -95 -199 -258l-183 -271q-100 -141 -164 -214q-100 -113 -204 -174q-55 -25 -128 -41q-72 -17 -127 -18q51 -7 91 1q272 63 421 221 q143 153 270 384h6q-41 -80 -63 -111q-7 -10 -7 -29q0 -37 28 -100q-12 39 -12 53q0 11 5 29q8 -12 14 -25l81 175l-10 6q62 0 95 5q13 -11 38 -44q7 -14 10 -30q-24 -31 -51 -81l-44 -84q-38 -2 -59 -3q-32 -2 -44 8l7 5q0 3 -9 -3l-5 8q1 -5 4 -8q-42 -25 -87 -72 q-15 5 -48 -54l-10 -14q-16 -10 -16 -20q0 -4 1 -6q-13 -25 -13 -47q0 -23 17 -40q8 -26 41 -72q-58 -47 -98 -90q2 -2 8 0t26 19q1 -1 6 2l3 -3q4 4 5 7q20 10 70 48l64 -19l-22 11q6 -3 24 -11q10 -2 29 -8t28 -8q-28 19 -90 58q3 4 3 12q0 6 -3 15l-5 22q-14 0 -28 -0.5 t-21 -1t-9 -0.5q13 -3 20 -48q-32 35 -36 56q-1 1 -1 3zM801 580q-33 -33 -63 -49q-34 8 -99 17q-4 5 -4 16q0 24 26 68q31 56 88 127q125 158 178 186q35 -25 37 -70q2 -69 -50 -153q-39 -65 -100 -129q-7 3 -16 6q1 -11 3 -19zM253 413q-171 -119 -385 -112l74 -10l77 -12 q157 40 245 88q41 36 91 91q130 142 132 256q2 62 -74 98q-3 -3 35 -35q28 -24 28 -79q0 -18 -3 -41q-50 -86 -121 -160q0 1 1 2.5t2 2.5t1 2q-1 -1 -15 -17l-12 -11.5t-8 -7.5q-7 3 -18 3q-28 0 -74 -25q-6 -4 -9 -5q9 -3 16 -4q0 -1 -2 -3t-2 -3q8 -3 21 -18zM-235 514h2 q1 1 2 1q2 1 3 1q85 273 358 415q244 127 574 121l-11 8q-144 5 -296 -30q-152 -33 -280 -98q-313 -157 -352 -418zM-97 413l89 133q56 82 100 125q107 107 305 141q-32 8 -60 8q-47 0 -95 -23q-104 -53 -200 -165q-83 -99 -139 -219zM-347 -6q1 -41 66 -67q-7 7 -9 19 q16 23 40 44q-3 37 -34 61q-64 -29 -63 -57zM651 -92q-18 -2 -39 -7h1q37 -10 82 -10q73 0 190 41l132 48q-2 2 -5 2q-11 0 -50 -14q-133 -48 -230 -66q-20 -4 -40 -4q-28 0 -41 10zM-207 -94q5 -1 13.5 -2.5t10.5 -1.5h-7q-28 0 -48 4q-29 4 -43 21q29 -12 74 -21zM448 146 q4 1 10 6q-14 -25 -25 -50l-5 4q5 15 20 40zM426 101h4q-8 -37 -6 -51q-3 10 -3 21q0 12 5 30zM653 249q-5 -1 -13 -1q-6 0 -19 9q17 -1 32 -8zM-199 339l-25 50q-3 -5 -3 -8t4 -4q4 -2 24 -38zM670 249q-2 14 -2 15q0 4 3 2q5 -5 11 -8q-9 -3 -12 -9zM158 403q7 4 40 25 q-34 -20 -40 -25zM229 432q2 0 3 -1q-1 -1 -2 -3l-2 -2q-3 -3 -4 -2q-1 0 0 4t5 4zM218 443l2 -2q-8 -5 -22 -13zM512 -62q2 -2 7 -4t8 -4q-13 7 -15 8zM554 -82q10 -6 14 -7q-6 3 -16 7h2zM801 1025l12 -3zM573 -92q-4 2 -5 3q4 -2 5 -3zM792 1028l9 -3zM634 263q5 0 7 1 q-4 0 -7 -1zM742 1041q2 -1 5 -1t5 -1q-2 1 -5 1t-5 1zM612 -99l-1 1z" />
<glyph unicode="C" horiz-adv-x="697" d="M-136 773q40 68 45 77q59 80 151 130q82 46 154 56q0 -1 0.5 -3.5t1 -6t0.5 -7.5q100 33 175 53q-162 -14 -167 -14l-7 3q-254 -106 -275 -112q-26 -7 -55 -36q-24 -24 -44 -38q5 -33 -17 -90q-32 -87 -32 -148q0 -44 21 -83q13 -24 45 -41q-2 0 -3 -1l3 1q30 -16 84 -22 l25 -7q9 0 37 -3q22 -3 37 -3q21 0 45 3q9 -5 13 -12q-13 -26 -17 -43l-4 2q1 -15 -29 -65l-20 -31l-16 -26l-25 -83l-5 -57q0 -60 25 -104q36 -65 165 -76q88 13 185 56q94 44 165 102q-23 -22 -37 -62l60 80q-6 -4 -9 -7q53 50 84 104q47 29 100 55q-3 2 -3 4l-1 2 q-35 -25 -53 -28q-18 -2 -24 10l2 6q-6 28 -7 33q0 4 2.5 33.5t1.5 39.5q-4 1 -11 1q-17 0 -17 -14q0 -4 1 -7q-26 35 -65 35q-48 0 -216 -76q-25 -12 -43 -12q-13 0 -24 8q-26 20 -30 19q-13 16 -13 23q0 6 7 40q7 37 6 58q64 33 219 95q149 59 220 93q294 140 362 303 q6 111 -65 116q-150 10 -460 -220q-71 -61 -125 -115q-87 -81 -99 -89l-54 -40q-24 -18 -23 -20q1 0 3 1q-5 2 -46 -29q-11 -28 -17 -40.5t-8 -11.5l-10.5 -7t-11.5 -7q-23 0 -48 -7q-50 -11 -66 -11q-1 4 -6 -4l-48 10q-12 -2 -19 -2q-48 20 -54 25h-3q-59 44 -59 109 q0 26 9 55q9 28 37 80zM47 222q57 67 66 74q17 8 18 13q15 -20 26 -26q4 -1 32 3q5 1 10 1.5t8.5 1.5t5.5 1.5t3 0.5h1q30 11 42 9q-21 -29 -31 -26q-3 1 -8 1q-7 0 -14 -4q1 -12 5 -19l-65 -86q-38 -53 -38 -69q0 -7 4 -8q18 39 77 112q58 70 97 100q2 -2 3 2q7 5 8 7 q10 0 18.5 -0.5t12.5 -1t5 -0.5q-1 4 -2 9v3q0 2 2 2q1 -1 3 -1q-2 11 43 36q36 21 54 29q61 27 108 27q30 0 78 -92q2 1 4 7q-1 6 -6 15l-2 5l-6 37q1 -1 14 -25v-1q1 -9 1 -26q0 -121 -168 -224q-152 -94 -296 -112q-140 17 -138 132q0 47 25 93zM313 548q-2 1 -5 4l-3 2 q16 33 104 138q210 250 423 360q61 32 108 32q42 0 75 -24q9 -24 9 -47q0 -61 -63 -123q-83 -83 -214 -157q-232 -129 -434 -185z" />
<glyph unicode="D" horiz-adv-x="1101" d="M1371 851l-157 -88q-8 0 -14 9l-46 74q-32 47 -64 73q-105 87 -211 110q-101 22 -177 22q-104 0 -294 -32q-32 -10 -46 -16q-149 -45 -259 -128l-6 6l-9 -18q-37 -40 -64 -65q-6 -10 -18.5 -28t-16.5 -25q-27 -31 -48 -93t-21 -103q0 -35 20 -90l2 -16q1 -11 13 -18 q0 3 3 6q12 -21 39 -46q27 -24 48 -34q3 -1 3 -8q3 3 6 3q6 0 72 -25l73 -25q60 -17 90 -14q29 3 50 6q52 4 88 4q3 1 9 2.5l8 2t6.5 3t8 6t7.5 9.5q11 16 10 22q-2 0 -8 3t-8 3q-3 0 -12 -5.5t-10 -5.5q-43 -13 -89 -3q-49 11 -118 11q-3 0 -57 12t-58 12q-35 0 -64 13 q-8 6 -12 13q-29 3 -39 8q-22 23 -30 37q10 11 5 19q-11 24 -11 54q0 31 1 33q25 97 56 126q27 25 47 48q17 21 30 22l20 26q96 84 124 104l48 38q77 43 145 72q23 7 30 8q60 26 115 38q59 13 125 13q106 0 153 -10q72 -15 132 -49q44 -27 73 -48q22 -13 70 -72 q53 -68 53 -96q0 -8 -2 -10l-1 -7l-131 -105q-81 -67 -112 -63q-54 -35 -63 -46q-23 -19 -26 -21q-23 -38 -29 -49q-10 -9 -16 -12q-30 -66 -55 -104q-19 -30 -66 -86q-46 -54 -84 -92q-5 -4 -42 -47q-17 -21 -37 -32q-10 -2 -13 -2l-28 -19.5l-26 -18.5q-36 -12 -113 -30 q-65 -16 -74 -16q-2 0 -10.5 3t-10.5 3t-101 26q-98 26 -120 26q-6 0 -41 7l-20.5 4t-14.5 3t-5 1q-76 0 -99 -14q4 0 17.5 2.5t15.5 2.5q63 0 69 -1q27 -1 86 -16v-2l-113 13h-9q-35 0 -77 -14q-50 -16 -52 -45q1 0 4 -13q10 -13 26 -20l22 -9q11 -7 12 -7q70 -10 88 -10 q4 0 36 -3t34 -3l230 18q4 0 59 -9q78 -13 89 -14q3 -1 50 -1q139 0 271 43l66 23q3 0 6 -1.5t5 -1.5t23 21l58 32q27 20 32 24q128 95 241 284q8 11 15 11q2 0 8.5 8t16.5 21.5t16 20.5q0 15 11 42q12 27 11 89l6 51q3 28 3 31q0 4 -6 40q-6 37 -6 41q0 5 7 23q8 22 14 26 q103 65 133 80q6 5 6 14zM1193 695q0 -35 -24 -81q0 -2 -68 -140q1 -37 1 -105q0 -23 -13 -37q2 -4 2 -6q0 -6 -10 -19t-7 -18l7 5q-12 -14 -15 -17q-24 -30 -33 -36q-1 -4 -1 -10l40 39q-76 -129 -238 -229l-104 -51q-151 -46 -234 -46q-73 0 -82 1q-50 10 -62 13 q7 -1 22 0q11 1 19 1q11 0 85 18q70 18 72 19q96 31 188 123t129 190l35 94q22 46 70 107q52 67 98 107q32 26 54 61q33 27 52 37h14q3 -7 3 -20zM576 466q0 2 -5.5 9t-5.5 9q-4 27 -40 58q-35 31 -70 31q-20 0 -81 -46q-1 -32 1 -48q6 -27 29 -41q33 -13 49 -14 q43 -20 45 -33q-19 -19 -19 -30q0 -30 31 -30q20 0 44 55q22 50 22 80zM158 -31q-4 -4 -34 -12q-27 -7 -34 -7h-84q-59 0 -107 7q-97 13 -97 44q0 40 104 40q94 0 228 -54l5 -13q2 0 9.5 3t9.5 3v-11zM482 9q-16 -8 -19 -8q-13 0 -102 -14q51 24 121 22zM58 39l-20 4v5 l20 -3v-6zM494 9h-8v5h8v-5z" />
<glyph unicode="E" horiz-adv-x="974" d="M1335 878l-32 36q-31 6 -65 6q-147 0 -316 -137q-51 -21 -69 -86l-28 -102q-24 -48 -90 -43q-7 1 -26.5 -1t-22.5 -2q-107 0 -268 1q-248 -12 -397 -130t251 -374q111 44 150 74q20 -46 54 -77q27 -27 63 -38q24 -7 72 -7q122 0 232 56q108 55 178 157q10 17 10 41 q0 39 -26 74q-45 30 -97 30q-96 0 -248 -121l-74 -70q-41 -40 -49 -81h8q176 212 361 250q14 2 15 2q38 0 76 -38q2 -14 2 -20q0 -76 -105 -166q-160 -95 -265 -95q-52 0 -96 19q-46 40 -46 90q0 16 6 33q45 128 142 219q107 102 231 111q30 -17 45 -24q25 -12 47 -12 q17 0 35 8q3 11 3 17q0 26 -51 37q-50 12 -55 33q35 23 125 56q86 31 125 56l87 52q117 72 108 166zM1303 870q-3 -56 -59 -104l-100 -71l-120 -58q-68 -33 -126 -41q13 70 82 145q50 55 119 99q83 53 141 53q37 0 63 -23zM822 529q-108 -45 -174 -64q-82 -33 -141 -98 q-65 -71 -77 -152q-13 -88 -134 -143q-16 16 -92 76q-78 61 -137 175q-29 57 33.5 108t217.5 95q416 22 504 3z" />
<glyph unicode="F" horiz-adv-x="363" d="M-173 -3q32 4 48 7l46 8q23 9 42 15l39 12l144 67l131 108q7 8 12 15q12 20 21 20l173 204q12 10 19 14l19 12l17 6q4 -2 5 -3h2q13 7 32 23q4 10 10 16q58 28 92 39q42 26 71 50q-5 2 -23 11q-12 -8 -21 -10q-23 -15 -52 -43l-43 -15l-11 19l42 68q42 58 85 105l44 47 q45 22 71 41h7q3 1 6 1l96 64l95 63l48 49q8 2 20 4l20 2q33 13 112 39l45 39q-8 2 -13 1q-14 -3 -44 -10q-20 2 -40 0q-13 -1 -40 -1l-23 -5q-37 0 -76 2t-48 2.5t-21 -1.5l-311 -7l-143 -17l-139 -14q-98 -21 -126 -26q-30 -16 -73 -28l-101 -49q-72 -56 -96 -71 q-3 -3 -3 -11q-40 -36 -60 -59q-29 -52 -32 -56q-2 -15 -7 -34q7 -39 9 -66q15 -14 36 -39q12 -8 41 -21q3 2 3 5v2q-11 4 -23 9l-26 28q-10 10 -24 26q-6 20 -6 50q1 5 2 9.5t1.5 7.5t1 5t0.5 4v1l56 86l23 26q12 12 21 24l102 75q38 20 109 50q86 20 149 31q21 0 44.5 0.5 t39 1t31 0.5t24.5 0.5t16.5 0.5h10.5h3l267 -1q59 -5 107 -7l-35 -36q-6 -1 -11.5 -2.5l-9 -2.5t-6.5 -1.5t-5 -1.5h-1l13 -6l-162 -179l-80 -64q-4 2 -5 2l-2 1q8 9 22 29q38 58 104 128q77 74 106 98l-71 -49l-94 -97l-91 -95l-22 -8q-18 -15 -42 -42l-18 -44 q-9 -9 -59 -90l-28 -36q-47 -68 -65 -106l-64 -87l-61 -84q-20 -18 -41 -43l-39 -42q-29 -20 -67 -56q-47 -34 -78 -51q-97 -35 -174 -56zM802 831l126 154q12 4 29 29q14 0 22 4q41 -4 75 -6q-7 -12 -16 -22l-112 -89zM-313 -17q24 7 60 7q-101 10 -124 10q-62 28 -65 29 q-14 14 -25 30q0 6 -2 30q72 10 73 10q13 22 15 31q0 16 -1 20q-16 22 -21 26q-23 5 -36 5q-19 -11 -37 -23l-6 -9t-6 -8q-1 -11 -1.5 -21t-1 -16.5t-1 -11t-0.5 -6.5v-2q42 -55 61 -74q17 -3 35 -14zM151 593q1 -3 6 -3q1 0 3.5 1t8.5 2l12 2l121 52q46 34 68 47l24 26 q10 12 24 24l19 31q9 38 10 47q-12 36 -15 47q-20 13 -29 22q-31 6 -93 8q-74 -19 -122 -40l-91 -61q-44 -38 -67 -68l93 76q29 22 78 48q19 9 69 27q26 3 49.5 6t33.5 4l10 1l48 -18q2 -3 7 -8.5t7 -7.5q5 -23 5 -80l-15 -21q-15 -22 -38 -42l-23 -22l-72 -47zM45 577 q25 2 73 8q-41 0 -62 1l-65 2q48 -10 54 -11zM-232 -9q23 -2 29 0q7 0 24 3q-18 2 -21 2q-2 0 -12 -1.5t-20 -3.5zM-246 -10q4 0 5 1h-3z" />
<glyph unicode="G" horiz-adv-x="654" d="M-118 -346q41 -9 58 -12t17 -1q103 32 109 33q28 17 49 27l47 25q150 118 184 154q36 36 38 37q22 48 50 97l27.5 16t18.5 12l6 3q-20 6 -23 6q-1 5 -1 14l47 87q19 37 47 84l80 107l112 122q-8 3 -14 3l-139 -124q-174 -121 -241 -154q11 0 14 1l86 43l59 39l56 38 q7 -3 14 -3q-24 -34 -38 -49l-84 -99l-83 -113q-6 2 -21 2q-94 -73 -84 -77q-7 -7 3 -7q14 -13 26 -31q-10 -10 -13 -14l-10 -12q-45 49 -76 42q-13 -8 -66 -16l-164 -71q-79 -47 -97 -72q-19 -28 -23 -37q-10 -25 -4 -49q12 -30 15 -38l11 -7q3 -2 7 -6zM71 148q3 -3 4 -3 l-40 50q3 7 3 14l-4 74q12 31 21 63l18 59q4 5 31 45l268 95q15 11 23 15q-3 3 -5 3l-2 1q-80 -35 -200 -78q-37 -8 -57 -10q-8 8 -8 10l13.5 26t11.5 21l131 162q9 4 16 12l53 60q62 61 84 81l94 80l128 91l163 79q66 15 104 27l50 -3q25 -1 49 0q14 -11 28 -30 q5 -15 5 -31q-16 -42 -56 -113q-27 -24 -49 -51q-122 -95 -117 -99q28 18 47 33l117 92l45 52q4 8 8.5 15.5t8 14.5t5.5 10q4 37 3 64q-7 18 -7 27q-14 10 -25 21l-79 10q-16 -3 -38 -6.5t-36 -6t-24 -3.5q-54 -18 -80 -25l-186 -80q-52 -36 -79 -53l-78 -51l-128 -102 l-108 -101q-20 -30 -35 -44l-89 -125q-32 -62 -40 -80q-8 -4 -11 -6l-9 -6q-50 -7 -104 -8l-28 3l-27 4q-8 7 -31 13q-1 -3 -4 -3l-2 -1q7 -7 10 -6q19 -21 31 -12q13 -7 21 -7q35 -2 61 0q32 1 60 3q5 -34 6 -49l-8 -32l-9 -100q25 -46 51 -82q9 -9 31 -23zM-54 -339 q-70 7 -69 82q25 28 43 45q65 65 110 82l90 40l104 30q28 -20 42 -33q0 -5 4 -13q-48 -69 -89 -119q-48 -40 -56 -48q-79 -47 -86 -50q-30 -6 -59 -18q-15 -1 -34 2zM-278 543l9 -11q-10 28 -19 57q3 19 2 34q0 22 -1 33l22 100q23 39 32 59l63 91q3 4 10 4q5 11 9 19 q36 32 46 44q32 25 69 50l121 55q156 28 195 42q-20 2 -29 1t-79 -14q-94 -30 -196 -55q-13 -13 -17 -16q-28 -16 -83 -39l-65 -50q-49 -63 -64 -81q-36 -94 -65 -197q3 -17 7.5 -40t5.5 -30q21 -40 27 -56zM103 132h3q33 -1 50 -3q18 -1 52 1q26 12 46 19q-18 2 -54 -8 l-44 -3q-11 1 -35 3l-36 4q14 -12 18 -13zM401 564q13 1 38 13l148 71q20 15 26 19q-4 2 -5 2l-2 1l-104 -53zM808 793q-70 -50 -104 -71q61 34 114 68q-5 5 -10 3zM623 678q17 3 33 12q1 0 30 19q-1 1 -4 1q-1 0 -7 -2zM-204 466q1 1 1 2q0 3 -40 31l-1 1q1 -2 6 -8.5 t7 -9.5q15 -10 27 -16zM338 186l-47 -24q23 9 57 21q-3 3 -10 3zM507 57q12 3 23 5q1 2 3 4v2q-4 2 -6 1t-20 -12zM-269 532l25 -32q-11 12 -24 29zM271 154q2 1 20 8zM266 154l-2 -1q2 0 4 1h-2zM148 -704h2l1 1q-2 0 -3 -1zM702 721q1 0 2 1q-1 0 -2 -1z" />
<glyph unicode="H" d="M400 -46q146 31 198 64q37 26 89 75q12 19 27 54q1 23 6 52q-5 18 -5 38q-26 27 -32 40q7 7 -32 14q-3 1 -5 1q-55 -26 -118 -60q4 -4 8 -18q42 28 78 42q9 -3 7 -11q6 -63 -7 -101q-14 -34 -102 -117q-53 -27 -70 -35q-15 -3 -30 -5.5t-21.5 -4t-7.5 -1.5q-15 15 -29 26 q-4 5 -4 16l16 81l63 119l91 139l89 137l45 51q82 33 175 66l52 28l51 24q156 101 162 104q34 29 60 49q49 56 63 74l35 68q1 24 6 53q-21 33 -33 49q-6 3 -31 13q-42 -6 -53 -9l-48 -11q-25 -15 -76 -40q-42 -34 -102 -76q-71 -68 -100 -93l-81 -93l-59 -67.5t-21 -23.5 q-47 -69 -76 -102q-8 -8 -34 -27q-44 -10 -54 -10q-3 2 -3 4l-1 2l-35 -15q-25 -9 -32 -9q0 2 8 21q0 24 5 76q51 95 82 145q48 68 75 102q44 46 71 81q49 43 100 100q-11 4 -13 6q-61 -55 -92 -86l-141 -102q-25 -5 -76 -5q-2 12 -2 20q0 16 4 60q-13 20 -24 44 q-20 15 -31 22q-96 26 -108 29q-23 0 -89 -2q-73 -22 -84 -23q-27 -17 -52 -28l-80 -68q-19 -27 -38 -72q-2 -17 0 -52q13 -29 17 -44q19 -19 35 -33q34 -16 46 -21l36 -3q34 -1 105 15q16 12 53 28l66 50l25 26q16 18 24 25q-4 2 -5 3h-2l-63 -55q-37 -23 -67 -39 q-2 -1 -8.5 -3.5l-13.5 -5l-15 -5.5q-7 -2 -15 -5l-13 -5t-9 -3q-16 1 -111 -3q-3 2 -21 13q-4 3 -4 10q-1 -2 -4 -5l-2 -2q-6 7 -25 26q-4 10 -11 24q-2 10 -5 45q10 23 13 42q11 14 19 33q35 30 71 66l32 13q4 6 18 15l86 23q52 2 78 5q14 -3 33 -6.5t31.5 -5.5t20.5 -4 q21 -16 34 -22q5 -15 5 -31q-11 -40 -12 -46q21 -29 26 -40q11 -10 37 -22q21 -2 31 -1q20 0 30 1q34 16 53 21q-2 -6 -2 -18l-72 -87l-69 -85q-8 11 -23 40q2 20 1 29q14 20 40 43q9 12 28 41q-39 -34 -80 -79q-30 -21 -25 -29l-52 -80l-65 -107l-44 -77q-23 -12 -42 -20 l-134 -50q-116 -64 -146 -79q-24 -18 -37 -26l-35 -24l-86 -81l-9.5 -15.5l-9.5 -15.5l-17 -27l-18 -57q6 -32 6 -58q13 -16 24 -40l71 -30q28 5 72 8l44 13q-25 -16 -53 -28q-45 -15 -100 -30q22 -2 46 -1q44 21 79 33q46 28 58 36l129 89l30 27q10 10 28 26q71 62 83 74 q15 8 40 48l44 65q39 73 74 126q58 64 65 71q4 1 15 1q1 -7 28 3q28 11 35 18q23 7 34 10q6 1 13 0q3 -3 4 -10q-17 -36 -27 -51l-75 -108l-69 -123q-20 -45 -34 -83q-10 -32 -17 -80q6 -21 6 -48q23 -24 26 -25q44 -15 65 -25zM-231 -67q-34 6 -50 10q-8 8 -28 19 q-7 16 -13 20q-2 26 -6 44l18 57l49 83l113 101q57 33 81 50q132 58 175 80l60 20q3 1 7 1q3 0 5 -2l-71 -138q-62 -115 -68 -125q-43 -71 -94 -140l-66 -49q-45 -15 -73 -29q-1 0 -39 -2zM688 584l-1 1q-3 3 -4 5l83 131q6 4 25 26l130 160l51 49l110 76q36 12 77 30 q19 1 42 -1q16 -9 26 -13q0 -8 6 -24q1 -24 -2 -62q-4 -16 -13 -32l-39 -59q-36 -39 -42 -48l-68 -51l-68 -50l-71 -39l-73 -40l-147 -58q-4 -1 -22 -1zM220 450q60 115 71 133l69 99q4 0 15 7q8 -8 20 -27q0 -14 1 -23l-114 -171q-49 -12 -62 -18zM-310 -125q8 5 15 5 q-28 7 -37 8q-4 -4 -17 -4q15 -3 39 -9z" />
<glyph unicode="I" horiz-adv-x="524" d="M-183 -46q74 11 150 16q74 22 105 29l127 52l114 76l32 28.5l31 27t20 18.5q4 2 12 12l9 10q83 118 94 128q3 11 26 52q18 27 29 35q25 23 50 35q21 11 96 45q5 5 27 14q41 22 79 57q45 44 80 103l24 37q12 19 21 39q-3 3 -10 3l-48 -69l-55 -68q-74 -70 -171 -117 q-14 -10 -38 -11q-3 3 -3 5l-1 2l14 31q9 19 12 29q32 53 45 70l22 32q42 61 46 65l12 14l9.5 11t4.5 5l56 58q44 46 53 59q75 45 125 80l66 29q35 16 67 27l62 14q17 11 31 16q-17 7 -43 11q-77 -8 -222 -15q-122 -5 -283 -68q-98 -33 -194 -98q-63 -47 -95 -112 q-30 -76 -43 -118q-2 -21 -1 -31q0 -20 1 -28l38 -69q30 -21 66 -42q8 -11 8 -16q-4 -13 -9 -25l-91 -141q-39 -51 -46 -59l-19 -21l-167 -153q-34 -17 -47 -30q-51 -26 -118 -51q-42 -7 -157 -22q-44 6 -105 9l-21 9l-22 9q-20 16 -29 26q3 6 3 20q33 26 60 42q5 25 5 42 q-10 15 -16 27q-18 10 -28 13q-47 -15 -63 -24l-7.5 -21t-6.5 -18l2 -33q1 -10 1 -31q11 -19 23 -19q4 0 6 1q21 -19 44 -36l70 -21q48 -2 81 -6zM488 513l-50 25l-21.5 32.5l-16.5 25.5q-1 8 -1 26q-1 9 1 29q16 44 32 76q37 65 93 106q65 59 147 99q142 62 271 95 q75 9 163 15q3 -4 3 -9q0 -3 -2 -9q-125 -56 -183 -89l-172 -125q-84 -84 -100 -103l-146 -193q-13 0 -18 -1z" />
<glyph unicode="J" horiz-adv-x="370" d="M-304 -363q15 -3 31 5q49 10 107 58q24 30 27 36q20 16 21 17q6 3 16 4q5 11 17 24l67 79q82 95 84 98q32 21 48 33q22 -5 30 -5l-9 9q75 35 127 67l112 87q-2 1 -5 4l-2 2l-65 -50l-63 -47q-33 -18 -99 -45q-6 2 -10 2q5 15 5 24q66 100 92 131l54 83l53 82q2 8 2 13 q34 56 54 84l39 22q33 9 43 12q91 50 104 66t41 41q40 59 73 101q2 6 8 21l-4 4l-2 1l-94 -134q-58 -50 -76 -64q-37 -19 -47 -23q-41 -9 -47 -9q-4 4 -6 8q58 107 87 155l54 72q34 37 35 38l34 37l112 85q34 18 68 34l140 47q2 4 3 5v2q-2 1 -5 4l-2 1q-38 5 -50 3 l-162 -13q-53 -10 -127 -31q-126 -53 -211 -94l-61 -43q-44 -44 -53 -48q-31 -47 -49 -71q-11 -24 -17 -43q-4 -32 -3 -45q4 -30 5 -36l35 -49q34 -27 55 -38q1 -3 1 -12q0 -4 -2 -18l-100 -154l-96 -151q-16 -13 -34 -22q-7 -19 -12 -49q-5 -6 -11.5 -15t-7.5 -10l-20 -10 l-111 -81q-1 -3 -8 -10q-63 -30 -136 -70l-78 -65q-15 -13 -28 -33l-13 -26q-2 -7 -3 -13.5t-0.5 -12t1.5 -10t3 -8.5l3.5 -7t4 -6t4 -4.5l4.5 -4.5l3 -3q13 -13 22 -18zM312 468q-17 7 -40 18l-22 27q-10 22 -15 50q7 34 17 63q15 22 49 78q7 0 8 3q9 13 16 25l104 84 l85 47l72 27q34 12 76 30q95 16 168 25q4 -2 21 -7q-42 -20 -111 -58q-10 -10 -24 -18l-80 -49q-10 -10 -31 -28l-46 -41l-45 -42l-58 -66q-13 -17 -40 -60q-6 0 -9 -4q-39 -62 -72 -102q-1 0 -23 -2zM-298 -346q-43 28 -30 68l27 47q18 15 39 30q24 18 61 50l72 39 q33 18 36 12q-82 -96 -100 -123q3 -2 5 0q3 1 20 17l8 16q22 20 24 22l1 -1q0 -2 3 -5l-86 -139q-32 -27 -80 -33zM155 -19l-6 3z" />
<glyph unicode="K" horiz-adv-x="722" d="M468 12q15 3 43 3q88 33 205 109q9 8 31 30q-3 4 -9 4l-112 -84l-43 -22q-49 -25 -69 -25h-72q-2 4 -8 12q-4 9 -4 28q8 10 28 42l28 42l40 35q12 -3 21 -3t51 3l47 37l46 38l-4 2l-1 1l-107 -78q-11 6 -16 6q32 42 47 66q49 66 56 84q7 25 7 43q-3 18 -3 36v35 q30 23 108 50l78 41q79 60 174 146q95 70 110 80l10.5 11l16 16.5t16.5 17.5q19 21 44 46q-3 2 -3 4v2q42 30 62 41l37 9q31 -6 63 -6q3 -8 3 -18q-10 -27 -10 -42q11 -16 25 -27q8 -4 25 -4q7 6 21 13l4 6l6 12v32q-4 6 -10 13.5l-9.5 12t-5.5 8.5q-47 16 -65 21l-47 -9 q-8 -2 -24.5 -5t-22.5 -4q-51 -22 -99 -40l-133 -108l-126 -104q-36 -30 -53 -47l-118 -83q-11 -4 -37 -4q-27 11 -37 19q-13 -3 -31 -3l-66 -22q-15 3 -43 3v13q48 69 62 87l10.5 11l16 16.5t16.5 17.5l44 45q64 52 96 81q14 17 55 48q53 39 58 43v8l-9.5 -2.5t-8.5 -2.5 t-4 -1q-85 -57 -109 -75q-31 -15 -87 -40l-47 -10q-8 -2 -24 -4.5t-23 -3.5q-23 2 -31 8q3 36 3 47q0 12 -3 50q-8 8 -22 28q-35 28 -55 40l-23.5 9.5l-22 8.5t-14.5 5q-46 2 -57 1q-10 0 -95 -5q-30 -13 -66 -21q-45 -25 -80 -40l-50 -44l-43 -60q-6 -33 -6 -64q0 -2 8 -23 q27 -29 56 -50q30 -12 66 -21q59 0 112 10l118 52q44 34 78 72l-3 3v2q-8 0 -75 -58q-39 -21 -71 -34l-72 -23q-78 -3 -93 -3q-16 0 -32 3l-23.5 12.5t-19.5 10.5q-16 12 -25 21q-7 29 -10 34q7 31 7 56q36 50 47 62q29 25 56 44q59 25 99 40q20 2 63 10q70 -7 124 -7 q30 -17 62 -30q6 -14 9 -19q-5 -32 -18 -69q2 -12 2 -27q17 -26 26 -33q13 -7 28 -10q23 -5 46 -4q35 1 91 9q3 -3 3 -9l-37 -35l-88 -70l-168 -168q-57 -74 -70 -89q-56 -68 -57 -74q-38 -30 -97 -92q-90 -95 -93 -97l-49 -35q-42 -24 -93 -43q-44 -7 -144 -19q17 -6 20 -6 q23 3 58 3q111 16 162 38l59 31l59 31l78 63l77 61q76 76 150 177l62 85h12q7 -17 7 -23q12 -13 15 -18q18 -6 25 -6q2 -10 2 -13q-8 -34 -18 -58l-43 -100q-33 -40 -52 -65q-52 -69 -57 -91v-53q3 -16 9 -31q20 -22 22 -25q32 -9 44 -15zM-244 27q8 3 15 3q-41 13 -55 19 q-33 23 -63 40q-8 13 -21 41q1 1 9 13q8 -4 25 -4q10 7 19 7q13 10 21 21q3 11 3 22q-7 19 -19 31q-12 3 -37 3q-7 -5 -8 -5l-10 -4q-13 -13 -16 -19q-6 -33 -10 -44q7 -14 7 -27q19 -24 31 -44l62 -41q18 -6 47 -12z" />
<glyph unicode="L" horiz-adv-x="802" d="M-25 -2l72 11q28 5 55 5q21 -10 51 -20q136 -13 168 -17q57 6 129 6q70 6 122 29q92 31 241 116l-25 5q-67 -33 -92 -48q-22 -13 -76 -38q-53 -23 -68 -26l-40 -12q-70 -9 -123 -9l-168 21q-6 1 -14 9q17 18 26 26l101 68q16 8 27 15q17 13 37 32l101 88q24 23 30 33 q34 35 57 65q3 7 3 15q36 50 50 73q31 29 33 30q8 -7 26 -10q4 0 14 -1.5t15 -2.5q17 24 40 51q40 18 76 32l76 29l135 74q58 35 148 100q60 45 84 77l47 55q14 25 22 44q16 39 2 86q-14 20 -21 31q-26 23 -76 21q-38 -4 -102 -28q-111 -49 -225 -137l-51 -40 q-27 -20 -47 -38l-80 -81q-21 -21 -43 -54l-113 -157q-19 -18 -34 -26q2 -6 2 -10q0 -5 -2 -11q-25 -9 -30 -11q-17 0 -17 -2l1 -2q-35 -9 -103 -17q-15 7 -20 7q-37 -4 -56 -4q-7 -1 -57 1q-39 0 -86 11q-45 10 -97 33q-52 38 -52 55l-15 15q-8 8 -12 16q3 13 9 23 q1 -2 5 -6l2 -2q21 8 24 8l-7 6q3 3 3 11q-7 4 -21 4q-14 -30 -22 -51q20 -38 49 -70q4 -3 10 -4l18 -18q15 -7 29.5 -12.5t20.5 -8t8 -4.5l7 -5q31 -4 38 -10q15 -3 20 -3q3 0 61 -14q152 -23 168 -19q4 1 5 2l7 -7q20 0 23.5 -2.5t3.5 -14.5l-49 -57l-53 -63 q-58 -64 -87 -99q-34 -35 -67 -59q-126 -37 -154 -37h-37q-106 27 -123 27q-54 14 -102 9l-42 -4q-41 -4 -64 -6q-28 -15 -51 -20q-1 -2 -2.5 -3.5l-3 -3t-1.5 -2.5l-6 -5q-3 -15 -2 -33l20 -20q35 -13 52 -17l107 -2q54 -1 105 0zM771 532q1 7 8 20l44 33l-5 43q1 1 -10 39 l25 45l27 50l140 149q74 55 179 119q45 14 58 15q43 5 72 -2q19 -17 33 -36q16 -37 0 -77q-48 -72 -50 -76q-72 -77 -168 -145q-76 -56 -121 -78q-29 -14 -56 -33l-72 -31l-49 -16q-26 -10 -55 -19zM14 731q2 -2 6 4q53 94 66 119l35 28l35 28q7 11 7 15q26 20 77 52 q12 9 69 34q59 25 107 41q87 24 105 28l51 6q32 4 48 7q152 0 171 4l-17 7q-155 -1 -215 -4l-38 -2q-24 -4 -36 -7l-66 -18q-86 -30 -129 -38q-111 -45 -149 -77q-44 -37 -59 -55q-38 -45 -63 -112q-3 -20 -5 -60zM-178 -2q-81 5 -140 14q-18 21 -28 31q22 25 33 33 q84 0 147 7q58 -8 83 -17l68 -15l21 -14.5t16 -10.5q-1 -4 -9 -10l-93 -8q-68 -6 -98 -10z" />
<glyph unicode="M" horiz-adv-x="895" d="M195 -15q15 10 31 14q16 -9 24 -10q3 -1 26 -4q41 25 71 48l93 102l78 95q48 56 76 96q1 4 10 4l56 66l21 36l39 44l41 43q7 10 7 21q-2 1 -5 4l-2 3l-13 -7l-271 -325q-13 -7 -17 -11q-39 -56 -57 -69q-21 7 -30 7q22 39 44 70l83 118l10 42l145 177q142 176 146 180 l125 140l123 139q19 14 26 20q4 9 4 25q-7 4 -20 4q-81 -40 -131 -60l-151 -98l-66 -66l-51 -38q-21 -20 -83 -84v-18h10l100 88l97 87l65 47q57 43 62 47q33 18 51 24q1 -2 4 -5l3 -2q-8 -8 -31 -24q-7 -14 -10 -17l-85 -77l-82 -74l-136 -150l-132 -147q-70 -86 -124 -159 l-116 -162l-44 -56q-10 -33 -13 -52l-10 -49zM634 -19q15 4 44 4q53 22 123 62q4 8 11 15q6 2 12 2q14 14 28 32q25 10 43 21l8 12.5t6 9.5l2 3q-3 3 -3 9q-8 -3 -16 -3q-12 -11 -40 -42q-14 -6 -21 -6q-46 -36 -66 -49q-74 -40 -87 -46q-18 -3 -44 -3q-16 10 -24 18v20 l45 81q26 47 42 80l65 83l66 84q14 8 17 11q18 33 37 59l331 391l200 206v22q-7 3 -19 3q-32 -12 -50 -20q-23 -10 -65 -32q-110 -70 -143 -95q-109 -93 -121 -98q-7 -15 -10 -17q-49 -46 -90 -77q-29 -33 -33 -38q-7 -18 -7 -25q7 4 17 4l129 136q7 0 101 77l134 94l30 10 q0 -1 1 -2l2 -2v-2l-105 -99l-105 -97q-10 -15 -20 -28q-19 -13 -31 -20q-11 -18 -29 -38l-88 -88l-68 -80q-54 -63 -66 -78l-68 -92l-65 -89q-10 -19 -24.5 -44t-18.5 -33l-24 -87q3 -33 3 -78q5 -9 17 -23q30 -15 37 -18zM12 96q6 -6 8 -12l1 -1v-1l171 147q13 20 21 28 q7 5 26 20q6 14 10 22q46 46 77 84q59 82 101 133q-5 6 -17 9q-75 -86 -168 -209zM-274 -4h19q-6 12 -7 13q-14 2 -31 11l-3 2q-4 2 -11 6t-14 9q-7 15 -7 27l50 22q1 1 9 14q3 26 3 32q0 7 -3 19q-3 6 -6 9l-6 6q-38 7 -51 7q-26 -20 -43 -28q-7 -29 -7 -52q9 -29 27 -60 q14 -10 23 -17q12 -5 58 -20zM443 547q7 3 14 3q23 28 70 80q-4 4 -4 11q-6 -3 -13 -3q-58 -65 -73 -84zM-84 29q8 0 31 8.5t26 9.5l36 24v11q-7 4 -16 4q-49 -32 -81 -49q1 -1 2 -3l2 -2v-3zM533 641q7 4 14 4q14 14 23 31q-6 7 -7 11q-27 -21 -36 -32q0 -9 6 -14zM-158 2 q14 3 34 3q3 1 20 11q-3 5 -20 10q-25 -7 -34 -10q-2 -6 -2 -7q0 -3 2 -7zM319 44q5 8 10 24q11 10 37 32q4 -2 7 -4q-27 -30 -54 -52zM774 550q15 5 20 13q-13 8 -17 8q-1 -3 -9 -14q1 -2 4 -5zM-194 -4q12 0 19 6q-2 2 -2 4l-1 3h-13q-5 -7 -5 -10q0 -1 2 -3zM383 124l9 9 q0 -1 -1.5 -5t-3.5 -8z" />
<glyph unicode="N" horiz-adv-x="562" d="M359 -21h29q18 13 44 25l65 62q-5 3 -10 3q-20 -20 -30 -29l-31 -26q-5 -4 -11 -4l75 121l48 77l89 149q-49 -61 -52 -72q-4 -4 -19 -25.5t-21 -26.5q-2 -8 -2 -13l-27.5 -38t-24.5 -36q-3 8 -3 18q12 32 34 96q25 70 33 94q16 53 20 75q11 37 18 72q17 135 18 152 l27 107q18 72 26 108l56 120q-4 2 -5 3h-1q-2 -6 -12 -11q-13 -17 -20 -41l-37 -44l-47 -78q-60 -99 -127 -185q-6 -19 -13 -31q-9 -4 -15 -10q-5 -9 -61 -92q-52 -76 -52 -78q-9 -4 -15 -10v-7q3 -4 9 -3l50 67q67 93 84 127l43 56q39 53 43 58q25 41 56 86q4 4 9 4 q0 -9 -9 -36l-64 -180q-8 -21 -15 -56q-14 -62 -35 -208l-22 -153q-1 -1 -9 -11q-4 2 -6 2t-6 -2q-2 -6 -2 -20l-37 -45l6 -14q-2 -2 -2 -10q-27 -25 -32 -31q-14 -26 -20 -40q5 -12 13 -16zM-374 36q14 -14 25 -23t16.5 -12.5t7.5 -1.5q16 -3 22 -10q27 -3 62 -8q55 9 69 9 q40 17 71 26q94 56 116 71q28 32 31 35q28 10 30 11q128 134 138 139q6 14 9 17.5t9 3.5q67 90 74 98q-3 3 -10 3l-81 -94l-79 -94q-32 -24 -50 -46l-60 -48l-61 -47q-34 -20 -90 -47l-60 -12q-36 -7 -59 -11q-20 5 -35 14t-27 20.5t-14 12.5q-3 7 -6.5 16t-3.5 10 q11 20 14 21l5 -5l2 -1q14 7 19 18q4 41 1 49q1 12 -3 31q-12 14 -16 20q-20 2 -38 2q-42 -29 -55 -66q-18 -42 15 -91q9 -5 12 -10zM880 710q1 -1 2 -1q3 0 33 40l17 10q46 51 86 91q76 62 113 95l85 47q22 9 80 26q46 8 81 9l57 -7l52 -33q6 -16 3 -23q-12 -6 -24 -8 q-15 -20 -22 -27q4 -17 4 -37l41 -46q5 5 37 35q1 12 0 21l-3 56l-28 47l-67 31q-17 1 -48 1q-15 -1 -44 -1l-136 -38q-62 -41 -94 -60q-103 -93 -185 -175q-24 -37 -40 -53zM708 502q10 0 12 1q18 14 23 20l30 12q16 26 34 48q-5 -4 -15 -4q-5 3 -9 10l-39 -45zM823 645 q3 -5 9 -3q25 30 31 41q-5 -4 -15 -4q-14 -23 -25 -34zM652 402q-13 -25 -19 -33q3 3 9.5 9t9.5 8q14 21 20 34l-4 2l-2 1q-1 -10 -14 -21zM-310 89q-2 2 -2 3q2 -2 2 -3zM602 801v1v-1z" />
<glyph unicode="O" horiz-adv-x="580" d="M55 53q10 215 55 334q23 44 28 52l69 110q3 7 3 14q29 47 57 83l142 172l101 101l94 71q155 70 164 73q27 3 81 3q49 -10 76 -18q23 -18 34 -25q15 -19 21 -29q18 -38 20 -43v-54q-21 -59 -21 -61q-10 -11 -17 -18q-8 -5 -54 -29q-32 -7 -51 -7q-1 -3 -1 -10q0 -5 1 -7 q15 -4 45 -4q18 6 52 21q30 26 49 51q12 52 16 64q14 70 -19 119q-26 21 -49 43q-40 18 -59 25q-27 4 -89 4q-89 -15 -161 -44q-87 -42 -132 -71q-13 -10 -52 -32q-31 -18 -49 -33l-109 -108q-89 -91 -130 -151q-13 -23 -16.5 -27.5t-6.5 -4.5h-1l-25 -38 q-110 -154 -131 -242q-21 -90 -17 -145q-6 -39 16 -105q23 -68 94 -98q9 -4 33 -4q23 4 80 4q54 25 103 53l44 37q15 12 45 34q10 16 18 22l52 47q100 94 92 97q69 64 94 122q31 43 62 94l72 144l20 52q10 27 18 51q9 49 14 109q-3 17 -3 53l-24 65q-27 23 -30 25 q-18 3 -32 3q-4 0 -14 -1t-29 -2.5t-38 -3.5q-35 -22 -64 -43q-45 -41 -75 -71l-55 -90q-26 -62 -37 -98q-7 -46 -9 -71q3 -13 3 -36q15 -41 16 -43q17 -16 30 -25q16 -4 52 -4q69 19 121 76q8 23 24 39q25 48 40 72q31 71 35 82q9 30 19 76l4 37q2 24 2 35q-4 2 -6 2 q-3 0 -5 -2q-24 -106 -33 -151q-33 -66 -54 -115q-9 -14 -19 -25q-70 -71 -75 -79q-37 -19 -53 -26q-13 -3 -39 -3q-13 4 -24.5 19.5t-14.5 30.5l-4 22q3 18 3 47l24 64l70 123l73 86l79 54q16 4 56 4q17 -12 37 -19q27 -55 28 -58q3 -16 3 -46q-6 -60 -9 -93l-46 -126 q-10 -18 -18 -38q-67 -117 -95 -159q-43 -64 -113 -140l-70 -78q-1 -3 -42 -45q-46 -42 -47 -43q-3 4 -9 4l4 -6l2 -2l-53 -43q-19 -16 -52 -40q-30 -14 -43 -19l-40 -16q-42 -8 -57 -8q-22 8 -32 8z" />
<glyph unicode="P" horiz-adv-x="903" d="M1338 1014q-18 -3 -104 -54t-89 -51q-7 0 -41 31l-56 48q-44 23 -70 35q-27 13 -96 26q-90 17 -161 17q-73 0 -177 -22q-92 -20 -141 -39q-152 -62 -274 -176q-140 -134 -140 -255q0 -108 86 -162q70 -44 173 -44q132 0 254 65q127 69 204 191q40 64 40 127q0 55 -47 91 q-43 33 -99 33q-76 0 -162 -36q-92 -39 -236 -161q-103 -76 -103 -106q0 -3 5 -20t5 -22q15 4 32 24q37 52 81 100q62 66 132 114q124 85 235 85q132 0 132 -102q0 -80 -96 -170q-84 -79 -210 -136q-124 -56 -207 -56q-79 0 -135 44q-63 49 -63 133q0 98 93 204 q82 92 205 165q116 70 203 83l136 25q14 2 89 2q69 0 85 -2q30 -7 119 -25q27 -5 94 -45q83 -48 83 -79q0 -8 -79 -78t-86 -73q-11 -3 -32 -4q-20 -1 -27 -7q-10 -7 -21 -32t-16 -30q-91 -130 -167 -217l-120 -137q-5 -5 -9.5 -25t-5.5 -22q-123 -144 -248 -203 q-108 -51 -247 -51q-54 0 -117 18q-77 23 -94 56q2 2 9 4q-10 1 -22 21q7 9 32 13q23 4 33 11q16 12 16 38t-20.5 41t-49.5 15q-27 0 -50 -14q-29 -17 -29 -48q0 -17 10 -30q22 -28 23 -31q34 -59 125 -88q63 -19 140 -19q205 0 377 94q197 108 325 324q12 10 24 13l102 105 q25 -55 92 -55q87 0 148 72q61 71 61 162q0 44 -11 85l-12 41q0 3 -5.5 17.5t-5.5 18.5q0 17 72 60q88 54 106 75zM1151 768q0 -36 -23 -87q-2 -1 -81 -68q-62 -53 -90 -53q-4 0 -16.5 4.5t-14.5 4.5q12 77 12 95q0 20 26 31q50 32 92 95q16 33 72 72q9 -9 16 -51 q7 -32 7 -43zM1099 636q-9 -22 -61 -71q-56 -52 -89 -52q-7 0 -17 7l-7.5 5.5t-5.5 4.5l-2 1l6 20q4 -4 19 -4q41 0 157 89z" />
<glyph unicode="Q" horiz-adv-x="912" d="M1336 901q0 35 -11 54q-38 63 -82 77q-60 17 -85 20q1 -1 -12.5 -1h-50.5q-52 0 -76 -2q-16 -1 -97 -17q-182 -35 -391 -161q-30 -17 -70 -47q-40 -32 -125 -108q-159 -137 -274 -308q-57 -74 -69 -149q-9 -57 7 -114q31 -46 46 -72q23 -41 108 -74q2 -1 46 -1 q56 0 86 10q8 3 22 9q13 7 18 7q34 10 58 16q3 9 22 3q65 -52 107 -67q33 -13 86 -13q131 0 264 84q-5 8 -5 11q-13 -7 -24 -4q0 -10 -3 -13q-3 8 -26 6q-11 0 -35 7q-24 0 -28 2q16 6 66 40l76 55v20l-80 -55q-71 -49 -86 -49q-37 -15 -89 -21h-84q-15 0 -38 14 q-21 14 -29 31q26 25 42 36q56 33 159 116q100 82 143 128q156 171 216 291q51 104 51 164q0 36 -6 50l-18 40q-15 21 -48 41q-35 20 -63 20q-26 0 -80 -14q-4 -1 -32 -14q-22 -11 -26 -11q-6 0 -25 9q-21 10 -27 11l115 44q61 20 104 26q79 10 108 10q215 0 215 -139 q0 -59 -51 -92q-45 -30 -121 -36l-6 -6q6 -9 22 -9q67 0 120 32q66 40 66 113zM1067 830q0 -121 -139 -302q-116 -150 -276 -282q-152 -125 -199 -122q-10 24 -11 27q-10 19 -46 49q-27 16 -39 20l-2 2q-2 2 -5.5 6.5t-7.5 8.5q-10 12 -16 12q-7 0 -84 -44q-77 -45 -94 -59 q0 -9 9 -9q7 0 35 16q39 21 46 27q0 -1 -3.5 -9t-3.5 -13q0 -61 37 -95q2 -2 6 2q-20 37 -21 40t-1 23q0 25 10 39h14q3 0 27 -11t27 -11q16 0 20 4q25 -60 32 -71q-2 -4 -24 -21q-22 -16 -34 -16q-18 0 -55 9q-4 -1 -4 -6q7 -7 15 -7q4 0 9.5 -0.5t10.5 -0.5l4 -1 q-24 -10 -64 -17q-34 -7 -46 -7q-5 0 -15 3.5t-11 3.5q-54 5 -89 53q-30 41 -30 83q0 1 11 42q39 128 77 172q80 94 141 175q66 87 198 212q154 144 186 144q40 22 47 24l38 14l15 10q10 0 31 -12q-134 -77 -239 -227q-87 -125 -125 -263q-6 -2 -10 -23q-3 -6 -6 -17t-5 -14 v-22l7 -7q13 13 25 48q9 22 19 55q50 122 143 242q103 132 214 201q52 26 78 36q41 16 60 16q14 0 49 -21q35 -20 40 -28q24 -31 24 -81zM822 41q0 -4 1 -6q-4 -6 -22 -14q-22 -7 -89 -33q-63 -16 -113 -16q-3 0 -25 5q-17 4 -25 4q-3 0 -8.5 2t-9.5 2q-5 0 -15 6 q-2 1 -13 5q13 0 27 -1q15 -1 28 -1h34q9 3 85 35q51 21 56 21q1 0 5 -0.5t13.5 -2t18.5 -2.5q31 -4 52 -4zM500 2l-3 -6l-41 23l2 6zM457 27l-5 -4l-6 6l5 5zM449 36l-5 -5l-6 7l4 4z" />
<glyph unicode="R" horiz-adv-x="1151" d="M1363 1050h-15q-146 -83 -153 -83q-5 0 -44 21q-43 24 -54 27q-90 30 -143 37q-112 15 -169 15q-105 0 -193 -17q-174 -34 -324 -129q-170 -106 -235 -250q-28 -62 -28 -102q0 -98 93 -158q77 -50 162 -50q153 0 339 114l155 124q-26 8 -30 17q18 40 22 54q4 15 4 53 q0 51 -25 82q-36 44 -125 44q-84 0 -189 -52q-106 -53 -156 -118l-74 -100q-49 -43 -74 -58q-13 -9 -39 -9q-22 7 -28 23q-14 14 -14 22q0 4 1 15t1 18.5t-2 8.5q11 23 11 24q25 89 127 191q103 102 223 155q74 34 172 55q115 27 209 27l118 -5q40 -4 76 -10q70 -11 146 -46 q62 -29 62 -42q0 -10 -79 -77l-101 -86q-78 -72 -149 -156l-67 -84q-81 -87 -128 -132l-6 -16l-20 -36q-12 -22 -64 -58q-59 -42 -78 -73q-3 -4 -5 -16q0 -8 -0.5 -15.5t-0.5 -11.5l-1 -4q-30 -46 -166 -124q-37 -22 -100 -33q-50 -10 -105 -10q-67 0 -121 18q-17 5 -44 21 q-31 19 -31 35q0 4 18 9q24 5 32 10q18 12 18 38q0 46 -55 46t-55 -55q0 -71 90 -107q68 -27 154 -27q77 0 179 26q105 27 237 118q59 41 144 121q72 69 112 93q18 11 45 31q13 10 39.5 19t43.5 10q4 0 10 0.5t9 1t5 0.5q6 0 9 -3q0 -2 2 -11t2 -13q0 -32 -25 -32 q-21 -25 -20 -25v-5l-113 -121q-56 -61 -56 -112q0 -38 25 -63q19 -19 69 -19q3 0 42 17t42 17q4 0 8 -2t7 -2q6 0 67 31q62 32 68 32q7 0 93 37q-9 16 8 38q18 22 23 22l15 45l-6 22q-21 -11 -22 -13q-71 -43 -75 -47q-13 -15 -126 -75q-52 -33 -145 -79q4 -3 -6 -7 q-8 -3 -24 -6q-21 0 -21 21q0 7 18 27q22 23 25 28q-1 3 -3 5l33 32t22.5 23.5t11.5 12.5q103 103 103 120q0 2 -14 24q7 65 -11 100q12 12 23 13q125 19 223 98q107 87 107 196q0 106 -88 194q20 24 64 50q46 24 69 37q9 7 9 19zM733 723q0 -60 -44 -113q-6 -6 -40 -30 q-27 -19 -33 -41q-34 -26 -52 -36q-173 -113 -332 -113q-50 0 -99 24q-64 28 -93 83v15q10 -8 14 -8q46 0 83 18q52 24 92 64q73 64 97 82v4l-84 -67q0 1 -1.5 3t-5 4t-7.5 2q61 84 156 142q88 54 157 64q9 2 26 7q18 5 23 5q84 0 119 -38q24 -26 24 -71zM1258 809 q0 -3 -7 -13q6 -45 -46 -124q-49 -76 -122 -137q-79 -65 -134 -65q-21 0 -32 11t-8 26q1 8 -1 15q-15 28 -32 47q105 144 140 186q89 107 182 174q36 -36 42 -48q18 -35 18 -72z" />
<glyph unicode="S" horiz-adv-x="731" d="M108 681q19 -30 33 -55l-27 62q-3 18 -3 54q10 27 18 61l38 51q16 20 34 49q3 4 11 4q3 3 3 11l129 97q16 9 37 19l38 17q37 11 75 18l76 18q128 5 146 5q26 1 99 -2l-3 3l-1 2v3q-85 6 -90 6q-44 -3 -119 -11l-115 -10l-100 -32q-73 -35 -104 -47q-57 -42 -100 -83 q-36 -51 -46 -67q-22 -56 -26 -69q-3 -36 -3 -104zM-205 66q14 -8 24 -20l-24 46q-3 18 -3 47q5 5 14 17q27 -7 47 -21h28q20 16 29 32q-4 7 -4 21q-12 14 -20 22l-23 22q-39 -21 -60 -29q-18 -26 -29 -57q4 -12 4 -40q16 -32 17 -40zM-61 -8h14q2 2 7.5 9t7.5 9 q-21 10 -29 11q-9 -5 -18 -11q-11 3 -27 3q4 -1 34 -11q6 -1 11 -10zM-122 13h11l-43 21q-3 -3 -5 -3h-3q25 -13 40 -18zM304 526h18q-24 7 -35 7q4 -2 8 -3.5t6 -2.5t3 -1zM1029 655q-15 -7 -35 -13q13 0 35 13zM1109 910q0 8 3 11v-2q1 -1 3 -5h-2zM236 548h8q-7 1 -8 0z M144 620l-3 6zM-180 45l-1 1zM749 569q-24 -31 -24 -36q-12 -19 -19 -39q-9 -11 -25 -33l-22 -31q-132 -101 -157 -116q-4 -3 -4 -10q-10 -7 -32 -15v-7l122 61v-11q-92 -107 -181 -186q-71 -47 -109 -69q-81 -34 -129 -50q-81 -15 -104 -17l-7 -14q7 -4 17 -4h43q2 2 7.5 9 t7.5 9q24 4 53 11l136 42q17 11 54 25q177 111 212 158q26 32 39 51l126 161q15 12 68 58q45 52 72 86q50 15 68 21q4 4 4 11q-20 -6 -58 -22q-2 2 -4 6l-2 2q6 34 6 35l26 26l133 36l129 47q39 21 97 46v-7l-74 -47q-82 -50 -119 -68l-48 -22v-7l38 16q38 15 101 52 l51.5 30.5l35 20.5t11.5 7q30 24 57 48l55 49l46 71q3 21 3 51q-7 10 -13 28q-6 4 -30 19h-57q-79 -23 -101 -36q14 4 31 9.5l29 9.5t19 6q29 3 73 3q7 -3 21 -11q-3 -3 -11 -3q-6 0 -50 3q-42 -13 -68 -17q-95 -48 -100 -50q-42 -31 -69 -47q-2 1 -5 4l-3 3l122 83 q-2 2 -4 2l-2 1l-169 -104l-90 -72l-70 -75q-23 -25 -70 -72q5 -4 11 -7z" />
<glyph unicode="T" horiz-adv-x="784" d="M1198 938q-36 2 -40 2q-4 2 -37 -2q0 1 -27 1q0 -5 -0.5 -15t-1.5 -14q-88 -82 -134 -119q-151 -138 -246 -272l-138 -193q-82 -92 -113 -123q-81 -91 -194 -140q-103 -45 -200 -45q-21 0 -102 13q-4 4 -13 10q-12 1 -29 17q-20 19 -24 20t-6 17q-3 15 27 20q34 7 34 20 q0 7 10 28q8 18 11 31q-3 -1 -3 3t6 13q-8 8 -43 15q-34 7 -41 7l-14 -4q-42 -23 -52 -54q-5 -15 -10 -84q22 -28 30 -42q53 -27 92 -31l48 -6q40 -9 89 -9q150 0 330 82q51 17 77 52q89 60 167 150q30 34 63 88l51 85l97 157q62 94 151 184q-5 3 -1 5q87 79 97 87q3 1 9 14 q4 9 10 9q4 0 10 -2t9 -2q21 0 51 27zM1632 1049q0 10 -15 10q-55 -33 -78 -39q-14 -2 -55 -2l-341 19l-159 -3q-171 -14 -255 -18q-82 -12 -140 -25q-29 -8 -41 -13q-112 -29 -211 -103q-120 -90 -120 -184q0 -66 61 -106q50 -32 109 -32q1 1 100 15q74 11 165 70 q108 70 108 147q0 45 -34 70q-31 23 -73 23q-57 0 -140 -33q-80 -31 -135 -76q-99 -84 -99 -99q0 -8 5 -10q80 69 97 85q82 71 192 103q36 9 74 9q92 0 92 -72q0 -57 -85 -121q-118 -91 -254 -91q-42 0 -45 1q-121 25 -121 113q0 7 6 23q8 24 8 25q16 60 112 138 q48 38 164 76l15 5.5l13.5 5t8.5 3.5q41 7 122 18q72 8 79 8h43q35 0 83 -7q-12 -30 -42 -30q-10 0 -20 10q2 2 4 9q0 5 -3 5q-22 -22 -22 -31q0 -4 1 -5h13q25 -1 91 21q3 3 6 7.5t5 7t3 3.5q8 6 21 6l449 -41q47 0 72 5q34 7 94 39q72 38 72 61z" />
<glyph unicode="U" horiz-adv-x="803" d="M1477 952v56q-35 23 -39 23h-46h-43q-7 0 -71 -18q-66 -17 -69 -17q-4 0 -9.5 2t-8.5 2q-5 0 -106 -96l-132 -128q-81 -84 -93 -107q13 -28 7 -58t-34 -55l-48 -43l-9 -13q-49 -68 -154 -163l-183 -160q-60 -46 -97 -69q-34 -28 -96 -60l-94 -45q3 -2 11 -4 q141 59 177 82q54 34 100 78q11 8 26.5 22.5t17.5 16.5q12 7 19 8q2 2 9 -5v-12q-19 -19 -37 -67q-16 -42 -16 -67q0 -15 15 -35q16 -22 34 -17q-27 9 -27 38q0 24 32 68q34 44 64 66q27 18 100 75q72 58 130 137q48 64 87 100l242 256l192 204q4 0 8 -3l46 3 q16 -16 25 -18.5t30 5.5q21 9 30 22q4 -4 10 -4zM726 913q0 54 -13 77q-17 33 -77 71q-11 5 -38 4q17 -3 46 -22q34 -22 45 -46q5 -25 7 -44q0 -1 4 -15t4 -18q0 -116 -440 -493q-149 -128 -213 -223q-51 -75 -51 -132q0 -40 28 -62q26 -20 64 -20q21 0 31 7q-12 -1 -29 -1 q-67 0 -67 52q0 54 147 194l191 173q120 108 151 133q210 208 210 365zM594 920q-59 -65 -86 -80q-24 -12 -81 -57q-58 -45 -78 -58q-139 -81 -251 -81q-147 0 -147 98q0 81 88 160q71 63 180 114q95 44 151 51q-38 5 -141 -40q-114 -49 -193 -114q-98 -83 -98 -160 q0 -69 73 -100q48 -22 118 -22q53 0 57 1q2 0 6 1.5l11 4t14 4.5q93 19 165 65q36 21 49 32l98 95q35 44 65 86zM623 30l151 111v9l-96 -70q-75 -53 -99 -61q-37 -17 -44 -19h23q7 -1 34 11q8 3 31 19zM578 1068v7l-34 7v-7z" />
<glyph unicode="V" horiz-adv-x="524" d="M1263 1055h-28q-7 1 -76 -45q-67 -46 -117 -84l-108 -94q-92 -92 -139 -145l-91 -78q-130 -129 -265 -277q-38 -48 -143 -138q-102 -78 -208 -138q-3 -1 -27 4q10 16 9 19l37 37q28 26 94 109l168 210l156 199q31 49 41 72q15 13 28 18q2 22 2 25q39 60 72 94 q32 33 26 36l154 170q0 3 -6 11l-174 -132q-88 -60 -164 -60q-39 0 -39 21q0 3 2.5 21t2.5 25q0 21 -9 39q-16 36 -88 64q-59 22 -111 22q-91 0 -198 -49q-130 -58 -141 -145q0 -4 -6 -21.5t-6 -21.5q0 -49 41 -92q40 -41 156 -64q55 0 127 39t132 99q6 15 6 20q-1 0 -6 2 t-9 1q-71 -51 -122 -77q-84 -41 -156 -41q-51 0 -88 19q-55 27 -55 88q0 30 14 52q19 27 26 36q16 22 16 33q19 19 33 25q57 35 81 45q31 13 51 17q39 10 100 10q39 0 53 -2q54 -7 82 -34q12 -11 12 -20q0 -8 -7 -21l-7 -15q-2 -12 -2 -17q0 -36 36 -62q29 -22 62 -22 q14 0 50 9q34 9 32 0q-1 -5 -16 -14q-8 -36 -13 -54q-13 -33 -49 -49q-12 -10 -18 -19l-36 -49l-37 -54v-5l-84 -108q-13 -15 -31 -33q-45 -56 -68 -88l-186 -257q-35 -30 -57.5 -52t-31.5 -34t-5 -16q-13 -7 -13 -19q0 -7 5 -17h22q16 0 103 29q88 30 164 96 q104 78 157 123q42 25 111 99l343 360q161 177 317 292q16 12 63 39q44 25 54 34zM1545 998q0 46 -49 74q-44 27 -94 27q-18 0 -121 -27q-5 -3 -5 -15q50 12 68 12q16 0 32 -2t28 -5t15 -3h13l4 1l15 -14q-5 -9 -7 -16q-17 2 -17 -24q0 -24 8 -42q5 -12 13 -22 q16 -14 35 -14q29 0 47 22q15 20 15 48z" />
<glyph unicode="W" horiz-adv-x="901" d="M1896 1051q0 15 -17 43q-17 25 -26 30q-33 13 -49 14q-49 11 -53 11q-38 -1 -96 -19q-58 -17 -143 -69q-76 -47 -120 -84q-33 -30 -129 -126q-92 -79 -94 -77q-8 0 -73 -62q-64 -61 -121 -124q-64 -51 -78 -72q-143 -147 -164 -176q-77 -85 -150 -133l24 55l25 40v1 q67 64 166 219l186 295q113 169 228 278q4 4 4 16q-11 5 -25 -1q-219 -145 -484 -453l-42 -47l-257 -287l-60 41q102 136 105 141q126 204 190 297q123 176 237 288l-10 10q-13 -3 -39 -32q-16 22 -16 28q0 3 -3.5 3.5t-17.5 -5t-38 -18.5q-1 -19 -11 -33q-5 -9 -63 -65 q-57 -57 -101 -78q-42 -20 -65 -22q-5 0 -20 -0.5t-16 -0.5q-4 3 -13 3q0 2 -2 6t-2 8q0 6 23 32q30 34 39 47q19 5 21 8q1 4 2 11l3 13q-3 54 -56 52q-33 -2 -70 -36q-43 -37 -42 -93q1 -38 42 -60q34 -18 68 -17q17 1 66 12q61 23 72 32q5 1 8 -4t4 -15q0 -6 -58 -70 q-88 -96 -99 -109q-67 -79 -174 -235q-105 -154 -115 -160q-1 -4 0 -9l-61 -102q-40 -67 -69 -105q-28 -31 -35 -35q-6 -3 -6 -5q-37 -41 -41 -47q-7 -10 0 -16q6 -7 12 -6q16 0 83 37q62 32 73 42q23 10 15 12q40 26 66 48l7 6q12 6 19 13q5 -17 -26 -45q-30 -28 -18 -83 l34 -25l71 6l31 1v1q1 0 3 0.5t4.5 1.5l6 2.5l8 3.5l10.5 4.5t12 4.5q142 51 353 232q231 240 328 376l98 104q117 142 267 260q183 142 299 147q20 1 53 -4q51 -10 53 -36v-6l-1 -1v2l-54 -32l1 -47q22 -17 49 -16q20 0 37.5 20.5t16.5 44.5zM991 907q-192 -222 -227 -282 l-278 -425q-55 -84 -186 -152q-17 79 40 162q241 263 301 337l226 248q84 88 124 112zM404 321q2 -5 -21 -35q-25 -33 -40 -35q-198 -189 -291 -219l211 230l81 96l8 -2z" />
<glyph unicode="X" horiz-adv-x="713" d="M1532 936v18q1 7 -16 27t-28 28q-16 11 -45 21q-25 9 -34 9q-81 0 -117 -2q-73 -6 -115 -28q-20 -17 -47 -28q-29 -13 -111 -95q-5 -2 -25 -6q-22 -5 -27 -8q-59 -58 -88 -93q-3 20 5 60q8 43 8 44q0 55 -32.5 97t-88.5 58v-10q89 -36 89 -121q0 -57 -21 -98 q-24 -50 -52 -86l-64 -87q-12 -12 -64 -72l-58 -72l-74 -73q-47 -45 -50 -45t-8 2t-8 2q-5 0 -28 -21q-60 -78 -122 -144v-5q-29 -52 -129 -114q-104 -62 -171 -62q-17 0 -33 57q-14 51 -14 68q0 50 115 117q76 44 127 63q44 16 131 38q-11 11 -23 11q-9 0 -99 -33 q-99 -35 -152 -60q-38 -18 -81 -50q-54 -41 -80 -75q-8 -11 -16 -42q-5 -27 -5 -35l1 -1q0 -2 1.5 -6t3.5 -10l5 -14.5t6 -18.5q27 -13 31 -37h84q71 28 107 37q51 21 128 65q77 46 115 76q1 1 11 12.5t15 16.5q18 19 27 18q0 -27 1 -42q17 -4 19 -22q2 -37 21 -57 q27 -26 46 -33q12 -4 43 -4q23 0 102 34q-87 -22 -96 -22q-58 0 -81 33q32 26 79 59q-9 11 -9 20q0 7 2 33q1 19 35 51l6 32v4q29 59 86 146q47 75 69 89q23 15 103 31q75 17 79 28q-90 -25 -116 -24q34 38 38 42q16 21 29 41q105 131 156 182q73 66 116 96q37 26 58 36 l79 36l-29 -8h1q-7 0 -15 5q10 5 51 13q38 7 63 7q18 0 64 -8q48 -7 51 -15q7 -15 27 -31q16 -13 16 -33q0 -17 -10 -31q-22 25 -23 26q-2 1 -25 1q-21 0 -21 -21t15 -35.5t34 -14.5q40 0 48 47q-17 -13 -20 -15q1 6 8 25q5 13 5 19q2 0 6 -5t5 -8zM756 890q2 5 -1 11 q-84 -104 -142 -145q-146 -107 -266 -107q-33 0 -64 12q-64 23 -64 85q0 76 135 174q126 93 211 100q0 3 -4 10q-27 0 -108 -39q-95 -45 -162 -103q-84 -74 -84 -144q0 -66 100 -106q2 -1 50 -1q100 0 206 65q110 67 193 188zM-62 159q-10 -14 -16 -49q-7 -49 -9 -59 q-20 32 -20 47q0 13 15 43q13 30 26 36q7 -7 4 -18zM620 405q-48 -85 -60 -114q-10 17 -10 26q0 4 26 36q41 48 44 52zM714 1039v11h-46v-11h46zM640 1046h-21q-5 0 -9.5 -5.5t-4.5 -9.5q19 2 26 7q1 2 4 4t5 4zM1305 1019l-2 5l-22 -13l2 -5zM630 415l-5 -10l-6 2l5 10z " />
<glyph unicode="Y" horiz-adv-x="929" d="M1414 911l-12 13l-68 -2q-9 0 -42 -34l-16.5 -17l-19 -20.5t-16.5 -17.5l-139 -143l-206 -183q-8 -5 -49 -50q-33 -35 -52 -46q-25 -4 -38 -3q-24 -16 -34 -27l-86 -69q0 -18 -6 -31q-53 -29 -90 -53q-4 -13 -3 -17q13 4 36 16q26 14 31 14q9 0 12 -3v-18q0 -7 -14 -35 t-22 -36q-6 -5 -25 -13.5t-25 -14.5l15 -34q-191 -183 -391 -186v-18l60 1q4 -1 16 3.5t14 4.5q25 0 91 21q69 21 112 43q29 9 36 18q58 40 96 59q55 38 201 163l75 61q27 9 30 12q3 4 33 -2q21 -3 59 -9q0 -4 18 -1q19 3 18 18l-20 12q-25 9 -37 21q-36 28 -37 27 q-17 8 -17 21q0 5 0.5 7t3.5 4l4 2l11 12zM829 889q-5 200 -236 196q-13 0 -79 -2v-19q17 0 38 0.5t32 1t17 0.5q187 3 188 -148q1 -34 -1 -41q-26 -72 -128 -166l-187 -163q-107 -95 -149 -176q-10 -22 -21 -54q-10 -30 -10 -41q1 -23 18 -48q9 -13 29 -39q0 -1 3.5 -3.5 t8.5 -5t9 -2.5h16v18q-49 15 -49 61q-1 49 130 159q199 167 243 214q130 138 128 258zM721 917l-11 5q-10 -4 -48 -48q-28 -30 -53 -52.5t-28 -25.5q-63 -62 -182 -118q-123 -58 -209 -59q-46 0 -81 20q-41 25 -43 73q-1 100 150 212q137 102 278 131l-1 18h-20 q-5 0 -75 -24q-121 -43 -221 -121q-136 -106 -135 -214q1 -121 177 -118q129 1 262 83q143 87 240 238zM111 91q0 22 -17 40t-40 18q-45 -2 -67 -53q-17 -40 -16 -73q1 -60 27 -89q9 -9 37 -27q27 -17 34 -16h16l-1 18q-87 29 -89 100q0 41 21 51q30 -19 49 -18q47 0 46 49z M528 215h-26q-12 0 -41 -16v-18h21q11 0 27 12t19 22zM445 176v18l-57 -1v-18z" />
<glyph unicode="Z" horiz-adv-x="844" d="M1335 1043q0 37 -49 37q-48 0 -137 -60q-44 -31 -144 -113q-73 -61 -84 -61q-8 0 -29 -7t-28 -7h-7l-1 1l1 2q-10 0 -19.5 0.5t-14 1t-5.5 0.5q-8 0 -19 8t-11 15q0 6 16 28t16 52l-2 24q-2 18 -42 51t-61 33q-7 0 -14 -7q46 -46 46 -50q0 -6 -21 -51t-21 -50 q0 -8 -3 -23q-2 -15 22 -43q60 -10 73 -13q-53 -43 -72 -67l-35 -55q-18 -21 -47 -47t-36 -26q-4 0 -13.5 2.5t-12.5 2.5q-29 0 -103 -16q-46 -9 -107 -75l48 4q74 37 82 37t16.5 -10.5t8.5 -17.5q0 -13 -156 -170l-174 -169q-14 -14 -48 -30l-282 -147q-3 -2 -5.5 -4 l-4.5 -3.5t-4.5 -5.5t-4 -6t-6.5 -9.5t-8 -12.5q1 -22 34 -22h55q40 0 159 91l83 62.5l57 42.5l15 11q11 1 28 12q19 14 69 35q42 16 129 45q10 0 26 -22l6 -38q-1 -15 -12 -26q-27 -6 -50 -53q-22 -46 15 -96t78 -63q35 -4 104 -9q82 9 154 46q55 61 86 120q31 38 25 55 t-6 26q-168 -161 -189 -161l-12 4q-5 67 -5 70q0 6 17 32q18 27 21 38l8 29q0 13 -13 38q-13 27 -25 31q-2 0 -11 3l-29.5 9.5l-41.5 13.5q-77 24 -81 20q-5 -3 -31 -3q-4 0 -47 8l208 176l11 -4q5 1 61 1q37 0 58 9q67 27 107 88q-2 2 -20 0q-13 -2 -12 -5l-54 -35 q-27 -4 -47 -4q-13 0 -19 11l50 68q47 59 70 59q4 0 19 -7t17 -7q4 0 27 5q25 5 32 6q19 35 19 54q0 10 -17 18.5t-31 8.5q-2 0 -15 -3.5t-17 -3.5q-5 0 -7 1q45 45 58 50q63 20 120 35q50 17 141 68q127 72 127 119zM1312 1039q0 -16 -55 -53l-70 -45l-89 -47 q-76 -28 -78 -30q-7 3 -11 7q14 27 125 106q116 85 152 85q9 0 17.5 -7.5t8.5 -15.5zM696 1040v12q-51 14 -119 14q-44 0 -81 -8l-32 -3q-76 -23 -97 -32q-59 -19 -123 -84q-67 -68 -67 -121q0 -3 26 -55q2 5 3.5 10.5t1.5 6.5q-14 36 -7 58q29 99 150 157q111 53 237 53 q26 0 108 -8zM678 31q-52 -39 -69 -39l-13 4q-13 3 -17 1q-11 11 -11 18t33 35l58 47q-4 -5 -4 -14q0 -21 23 -52zM457 709v17h-20q-9 0 -44 -7q-37 -6 -43 -6q-24 0 -56 7q-35 8 -40 14q-4 6 -11 6l-13 -4q7 0 14 -7l8 -8q38 -26 97 -26q2 0 13 1.5t39 5t56 7.5zM654 827 h-16q-101 -72 -148 -99h20q13 -1 125 69q19 12 19 30z" />
<glyph unicode="[" horiz-adv-x="541" d="M700 886l-170 6q-23 0 -30 -13q-151 -230 -222 -355l-130 -217l-82 -130q-11 -21 -35 -61q-23 -39 -47 -55q-6 -37 -24 -58q-1 -3 -2 -7l-5 -16q0 -8 7 -14h297l-9 36l-232 9l539 857h129q16 0 16 18z" />
<glyph unicode="\" horiz-adv-x="476" d="M466 -107l-151 538q-106 370 -166 561q-11 39 -30 92q0 8 -3 19q-11 -6 -22 -10l92 -317q172 -616 259 -883l12 -7q1 2 9 7z" />
<glyph unicode="]" horiz-adv-x="584" d="M777 865q0 10 -7 16h-187q-1 -19 5 -24h137l-412 -655l-26 -50l-103 -165h-119l-15 -19h172q10 2 39 42q18 27 29 45q487 805 487 810z" />
<glyph unicode="^" horiz-adv-x="323" d="M147 741l13 -14l19 -15l18.5 -14.5l14.5 -11t10 -8t6 -4.5l1 -2q1 2 15 3q-2 11 -23 32l-61 75q-9 5 -15 4q-9 -8 -16 -19q-30 -42 -42 -57q-6 -7 -13 -13q-8 -10 -7 -14q1 -3 4 -3l11 3q10 7 18 15q1 0 2 1v0q19 18 19 16q18 28 26 26z" />
<glyph unicode="_" horiz-adv-x="449" d="M393 -70q2 8 3 11l-10 10q-174 1 -271 3l-139 3q0 -10 -1 -12q0 -2 -0.5 -5.5t-1.5 -5.5q13 0 19 1q50 -3 77 -3z" />
<glyph unicode="`" horiz-adv-x="198" d="M68 749q0 -17 10 -36.5t20 -19.5q2 0 6.5 2t8.5 2l43 -32q52 -35 89 -50l17 5q-31 24 -81 76l-20 47q-5 5 -20 31q-9 16 -28 16q-5 0 -43 -23q-2 -4 -2 -18zM84 753h-6v14h6v-14z" />
<glyph unicode="a" horiz-adv-x="487" d="M273 -7q23 7 35 14q-20 6 -48 6q4 12 4 46q55 107 113 207q42 58 102 134q75 125 82 134l-4 6t-3 5t-2 3l-1 2q-18 -5 -48 -5q-4 -4 -41 -47h-17q-6 18 -10 26q-6 8 -21 21q-14 -6 -34 -6q-87 -37 -137 -66l-116 -104q-23 -32 -41 -52q-12 -29 -21 -41q-4 -3 -8 -6.5 t-6 -5.5l-3 -3q-2 -3 -6.5 -13t-6.5 -15q-26 -76 -35 -112q4 -28 4 -83q11 -18 14 -20q3 4 9 4q-3 6 -3 16q6 16 8 24l6 23l153 253l175 181q18 5 44 5q12 -19 15 -26v-31q-30 -62 -52 -98l-87 -132q-60 -90 -81 -111q-16 -32 -17 -36q19 31 51 31v-83q9 -16 14 -31 q11 -9 20 -14zM558 307q2 -6 116 114q3 -5 5 -5l2 -1q15 25 20 31q-3 16 -3 36l-61 -67l-41 -55q-22 -28 -38 -53zM380 80q20 20 45 36q35 47 54 77l-4 4l-2 1q-66 -86 -93 -118zM52 -18q16 0 27 11q-1 1 -2.5 3.5t-2.5 3.5l-2 2q-24 -9 -31 -9q8 -11 11 -11zM137 44 q3 -5 5 -5l2 -1q8 5 12 11l1 2q1 2 3 5.5t4 7.5q-1 1 -3 2l-2 2l-2 1q-12 -10 -20 -25zM103 13q1 -3 4 -6h2q20 20 25 26h-18q-3 -5 -6 -9.5t-5 -7t-2 -3.5zM312 13q20 5 27 15q-8 5 -14 5zM350 44h9q10 13 14 20q-1 1 -3 2l-2 2l-2 1z" />
<glyph unicode="b" horiz-adv-x="386" d="M326 115q41 18 70 53q50 50 60 70l43 65l-4 4l-1 3l-83 -96q-57 -57 -79 -73q-4 -5 -15 -6l-17 -14v-11zM675 735q-19 -17 -51 -49q36 31 59 46q-3 3 -5 3h-3zM-53 176q4 2 5 3q-4 -2 -5 -3zM105 5v-1q-34 -11 -79 -13q-10 1 -16 7q-11 24 -11 36l12 39q24 36 41 66 l41 67l128 157q19 20 60 56q27 45 59 77l91 56l88 52q80 59 84 67q-5 2 -23 -11l-134 -95q-26 -11 -42 -12l-4 4l-1 3l40 64q127 173 143 181q10 22 17 32l60 67q47 51 87 88l68 46l5 1q14 1 27 3q20 -7 24 -8q7 -28 8 -36l-12 -26.5t-8 -19.5l-3 -5l-63 -90l-103 -112 q4 -4 70 57l46 58l43 57l42 75q-5 30 -5 36q-11 14 -25 24q-22 0 -37 -1q-26 -11 -34 -17q-17 -10 -71 -56q-42 -36 -71 -54q-54 -58 -88 -85q-63 -73 -71 -83q-28 -32 -42 -46l-221 -266l-70 -58q-60 -50 -67 -55l-81 -88q-8 -12 -28 -30l-3 -4q-14 -19 -23 -29 q22 18 31 28l35 32q14 -14 18 -23l-16 -21q-16 -27 -27 -40q-8 -19 -19 -58q3 -78 4 -80q8 -13 13 -18q26 -23 64 -20q29 8 56 18q59 29 93 62q29 35 46 67q6 -2 12 -2q7 0 11 1q12 -11 24 -16q3 5 2 12q-4 2 -5 2h-3q-4 9 -6 29q18 34 23 47l123 160q5 15 14 39q-4 7 -17 9 q-21 -21 -39 -35l-53 -80l-32 -67q-12 -6 -16 -13q-11 -19 -20 -47q-41 -61 -73 -99q-25 -27 -91 -62z" />
<glyph unicode="c" horiz-adv-x="419" d="M592 499l-41 64q-24 4 -51 4q-214 0 -421 -231q-63 -72 -63 -185q0 -48 14 -101q-10 -13 32 -35l56 -1l72 35l-13 10q-22 -5 -33 -5q-36 0 -58 28q29 113 136 229q64 68 208 188q13 -4 13 -15q0 -2 -6.5 -19t-6.5 -25q10 -48 64 -48q87 36 98 107zM440 169q21 20 56 48 l-3 -1q-53 -27 -68 -27h-2q-79 -46 -131 -92q8 -5 1 -15q7 1 28 7q49 21 119 80zM572 284q-16 -37 -76 -67q35 29 76 67zM428 192l-5 -3q0 1 5 3z" />
<glyph unicode="d" horiz-adv-x="562" d="M135 -56q11 -2 15 -1q2 0 6 1t12 2.5t16 3.5q15 37 18 55q11 8 37 55q9 -3 29 -1q9 -9 9 -12q-7 -18 -9 -26q18 -15 27 -21q17 -2 42 0q11 4 35 17q51 45 92 77l-6 2l-3 1q-14 -18 -59 -50l-64 -44q-10 3 -25 2q3 3 3 13q53 72 69 83q21 -2 31 -1l32 4q14 8 19 10 q14 -7 18 -7q52 60 52 61q7 6 15 6q5 14 10 22q23 20 30 29l-4 4l-1 3q-11 -4 -27 -15q-4 -6 -11.5 -15.5l-10.5 -13.5l-22 -27q-25 -21 -46 -34q-15 -5 -49 -10l-17 6l24 42q56 88 84 125l99 141q23 17 52 34l91 57l194 135l39 35q24 22 37 33l111 121l26 47l26 46 q-1 8 -3 22l-2 19q-30 -54 -34 -62q-5 8 -5 75q4 4 5 6l3 3q4 -4 6 -5l3 -3q3 3 16 7q-24 12 -36 20l-16 -9q-6 7 -13 14q-13 2 -21 0q-6 -1 -38 -6q-34 -38 -50 -54l-47 -49q-125 -119 -183 -180l-237 -294l-58 -44q-7 8 -7 20q-17 17 -35 17q-29 -4 -69 -16 q-88 -41 -127 -57l-58 -44q-26 -19 -114 -104q-53 -45 -72 -84q-8 -15 -12 -31.5t-5 -32.5t-3 -22q0 -27 10 -48l23 -26q8 -2 21 -2l-23 26q10 39 32 78l105 138q81 74 171 148q4 10 27 25q10 7 30 19q55 16 70 17q11 -28 13 -40l-6 -18l-38 -33q-4 4 -7 20q-45 -14 -65 -16 q-8 -9 -14 -19q-23 -58 -26 -73q-51 -99 -43 -96q-19 -45 -42 -73q-75 -62 -134 -97q8 2 47 17l69 58q2 -2 6 -4h3zM706 530q12 26 25 40l178 192l89 113l93 116q11 1 21 7q2 1 13 -7q0 -6 4 -37q-19 -44 -44 -93l-110 -125l-75 -65q-65 -56 -77 -65q-63 -45 -100 -69 q-13 -11 -17 -7zM249 152v-1l-1 1h1z" />
<glyph unicode="e" horiz-adv-x="518" d="M64 -18q4 -1 11 -2l30 -9q97 2 240 107q105 78 203 185l-6 32q-16 -8 -37 -10q-247 -254 -391 -275l-25 19q10 64 11 69l32 45q42 60 90 86l111 55q37 23 89 64q62 47 82 70q32 52 53 95q-1 11 0 18l1 8q0 5 -14 44l-11 5q-53 0 -190 -78q-123 -70 -178 -119 q-119 -107 -168 -212q1 -17 3.5 -53t4.5 -54q6 -22 59 -90zM281 328l64 86q9 11 62 60q50 47 57 50q13 7 26 7q12 0 17 -1q-17 -40 -30 -53q-23 -27 -72 -70q-61 -54 -77 -62q-33 -13 -47 -17z" />
<glyph unicode="f" horiz-adv-x="222" d="M-369 -537q25 10 57 16l36 48q47 85 71 121l89 162l89 157q26 51 41 70q86 11 95 14q40 33 52 41l-4 4l-1 3l-33 -30q-54 -13 -83 -18q-3 11 -3 17q0 1 1 4t2 8.5l2 10.5l82 134q21 19 73 94l71 102l137 115l135 112q72 79 171 206q47 62 50 116q1 20 -4.5 29t-20.5 16 q-24 6 -53 -8q-1 -1 -24.5 -20t-38 -32t-41 -40t-50.5 -56q-26 -29 -50 -60l-48 -56l-7 -9q-6 -9 -22.5 -32l-33.5 -47q-40 -55 -59 -92l-168 -222q-17 -18 -36 -33l-36 -31q-13 2 -15 1q4 12 4 15q-4 6 -16 8l-51 -77q-6 -25 -46 -74q-65 -80 -67 -82q3 -1 9 -1t9 1 q12 10 15 15l13 -9q-12 -32 -27 -92q-73 -142 -153 -283q-19 -41 -56 -103q-6 -10 -62 -98l-11 -32q19 -1 16 -3zM324 495q0 3 -3 14q52 85 52 95q41 59 66 98q50 77 56 81q3 4 20 31q19 32 57 72q44 50 121 112q19 8 41 -2q18 -15 9 -45q-14 -34 -70 -121q-46 -63 -95 -117 q-48 -53 -60 -62q-14 -11 -39 -24q-5 -17 -9 -23l-97 -83q-35 -17 -49 -26zM-12 144q3 24 3 33q11 10 43 31q9 14 30 40h3q1 0 5 -2q-2 -11 -18 -32q-18 -21 -23 -25q-21 -35 -26 -45q-6 -2 -8 -2q-3 0 -9 2z" />
<glyph unicode="g" horiz-adv-x="648" d="M924 582l-85 -100q-30 -36 -139 -126q-45 -21 -48 -18q-51 -51 -119 -126q-95 -99 -223 -164q-2 -2 -7 -5t-7 -4q-10 -7 -17 -7q-9 0 -9 3q0 1 1 2q18 44 83 120l95 106q188 235 188 242q0 14 -7 15h-71q-37 -43 -52 -43q-7 0 -18 12q-9 10 -15 16q-12 9 -39 9 q-53 0 -152 -44q-111 -52 -182 -121q-89 -89 -89 -181q0 -40 15 -71q21 -40 62 -40q30 0 88 31l4 -21q-28 -44 -41 -66q-29 -41 -47 -48q-155 -61 -312 -177q-30 -22 -71 -69q-64 -73 -64 -119q0 -31 13 -43.5t48 -12.5q108 0 302 212q13 14 96 114q65 76 102 111 q13 11 40 22l36 12q34 17 112 69q68 47 69 47q6 0 98 54q69 51 159 159q72 61 118 127q64 71 92 119q-5 -1 -6.5 0t-0.5 4zM472 456q0 -50 -134 -193q-113 -120 -139 -136q-91 -51 -110 -51q-25 0 -32 16q-3 8 -3 27q0 44 76 132q50 59 142 145q74 67 86 72q44 21 77 21 q37 0 37 -33zM32 -110q0 -8 -7 -29l-148 -203q-34 -44 -80 -75q-61 -39 -68 -39q-13 0 -61 14v59q40 50 65 85q67 71 116 105q39 28 95 55q55 28 66 28h22z" />
<glyph unicode="h" horiz-adv-x="478" d="M-162 -71q20 9 46 12l31 31l114 137q84 100 100 134q78 70 104 91q-3 3 -3 5l-1 2q-68 -64 -104 -95l-9 6l51 82l52 82q17 10 18 12q8 16 17 39l24 24l12 19l194 147q-4 2 -5 2l-3 1q-44 -35 -71 -54q-23 -9 -38 -10q-4 3 -6 11q15 33 36 70q1 4 11 6l52 87q6 9 13 18 q60 86 96 130l97 110l91 73q33 9 58 15q4 -3 10.5 -7.5t8.5 -6.5q6 -14 9 -33q-18 -44 -27 -70q-27 -34 -42 -55l-39 -52q4 -3 6 -11q43 54 62 80q24 35 40 67q14 49 17 64q-9 8 -13 14l-9 14q-50 -2 -67 -5l-65 -42l-64 -41l-113 -113l-75 -97l-75 -96q-206 -215 -213 -244 q-6 -28 -17 -54l-118 -103q-59 -64 -64 -68q4 0 6 1l6 2l88 84q7 -3 16 -1q-5 -18 -7 -21q-22 -20 -75 -87q-63 -80 -73 -94q2 -9 -38 -58l-40 -73l-41 -74q10 -7 29 -7zM204 -8q47 13 87 28l147 146q2 14 6 21l-81 -78l-79 -74q-28 -14 -36 -19q-26 -4 -39 -7q-9 6 -10 10 q2 14 1 20l145 191l41 84q2 10 14 78q-10 9 -20 21l-17 5q-63 -27 -100 -46q-8 -11 -9 -14q26 14 61 36q16 5 28 8l26 5q6 -23 6 -35q-16 -32 -24 -44q-49 -60 -85 -98l-85 -95l-10.5 -23.5t-9.5 -19.5q0 -17 -1 -24q-1 -11 2 -19q6 -14 9 -34zM495 667q28 14 37 19 q88 77 122 102l-5 5l-1 2q-1 -1 -79 -63q-61 -50 -74 -65zM685 831q12 5 17.5 10.5t24.5 29.5l-6 2h-3zM-104 184q22 10 25 20q-1 0 -1 1l-2 1q-3 0 -22 -22zM-73 214q13 13 27 25q-3 3 -27 -25z" />
<glyph unicode="i" horiz-adv-x="277" d="M454 877l38 -22q7 -4 22 -1q14 24 21 31q1 14 -4 33q-5 9 -13 14q-1 0 -3 1t-6 2.5t-8 3.5q-11 -8 -27 -11q-13 -24 -20 -51zM27 -8q33 5 50 16q23 18 37 30q46 19 66 49q105 169 134 202l9 23l-5 2l-25 -16q-24 -32 -57 -65q-2 -6 -2 -7q0 -2 2 -8l-43 -58 q-41 -63 -69 -76q-8 -3 -60 -17q-7 3 -8 13q-6 31 0 62q16 34 29 54q28 34 79.5 112l65.5 98l96 147q-4 1 -6 5l-1 3q-46 -3 -48 -4q-18 -10 -45 -17l-120 -151l-116 -150q-15 -42 -25 -86q-7 -44 -1 -68q4 -31 24 -64q0 -5 12 -20q10 -11 27 -9z" />
<glyph unicode="j" horiz-adv-x="369" d="M-284 -343q69 17 133 88l74 85l32 -9q12 10 14 11q30 4 70 15q45 34 74 70q-4 3 -13 1q-3 -4 -24 -29q-52 -34 -87 -29l66 123l64 123q21 25 24 29q95 72 151 109l99 98q15 25 20 35q-11 6 -13 6l-53 -62l-45 -21l-101 -71q-3 12 -5 25l85 142q15 14 47 52q51 84 82 125 q-4 1 -4 5l-1 2q-16 2 -66 -17q-35 -31 -63 -52q-133 -168 -151 -195q7 -27 9 -41l-98 -163q-8 -10 -28 -32l-28 -30q-88 -56 -93 -69l-125 -104q-51 -52 -84 -95q-33 -36 -38 -74q0 -4 1 -16t1 -14q17 -23 45 -26zM-302 -326q-8 0 -24 3q-15 55 41 117q60 66 140 138l1 -3 q1 -1 1 -5q-44 -51 -55 -66l1 -2q0 -2 3 -4q21 21 29 33q0 -2 14 6q11 6 10 -9q-1 -5 -2 -12l-25 -58l-28 -61q-1 -1 -12 -17l-14 -19q-38 -27 -55 -35zM553 809q11 6 25 8q4 12 7 17l7 14q-14 14 -16 15q-1 0 -9 2.5l-15 4.5q-18 -14 -20 -16q-6 -17 -8 -20q21 -21 29 -25z " />
<glyph unicode="k" horiz-adv-x="580" d="M-37 -52q21 11 32 13q93 120 127 177l64 69q6 -5 13 -2q66 14 84 19q4 -7 4 -12v-23q-19 -23 -55 -71q-23 -46 -7 -87q8 -10 15 -16.5t15 -10t12 -5t12.5 -2.5t10.5 -1q56 12 102 39l95 93q74 74 87 97l-13 -2l-30 -33q-8 -11 -13 -15l-17 -19l-99 -88l-20 -16 q-18 -10 -37 -23l-8 -5h1q-23 -4 -35 4q-12 9 -4 35l5 5l17 38q17 32 29 66q4 9 1 20q-12 26 -12 29h32q6 0 20 8q5 2 34 59q10 16 79 87q32 31 81 63q10 -5 11 -8q-8 -13 -14 -32q3 -2 6 -12q11 4 36 17q6 24 6.5 30.5t-6.5 12.5q-25 8 -55 -1q-35 -6 -55 -17 q-37 -23 -64 -46.5t-40.5 -38t-15.5 -16.5l-37 -44q-22 -19 -28 -19q-77 -20 -99 -30q-4 1 -4 4l-1 3q10 28 13 33q32 29 41 42q2 3 7.5 10.5l15.5 20.5l20 26q9 10 29 30l22 21q36 50 48 65l55 67l126 81l133 90q62 41 104 82l100 89q67 74 108 129q29 44 29 63q0 16 -2 36 q-6 43 -53 48q-40 -1 -79 -28q-63 -44 -89 -67q-25 -21 -55 -53l-110 -104q-28 -38 -32 -42q-22 -31 -87 -107l-97 -114l-108 -126q-25 -21 -47 -35l-124 -110l-35 -25l-36 -24l-91 -92q-16 -23 -45 -49q-16 3 -22 2q18 13 20 15q-4 1 -6 11q-4 -3 -7 -3h-2l-6 3l-2 3 q-2 -6 -11 -18q-8 -23 18 -37q8 -3 20.5 4.5t10.5 12.5q3 1 27 12t32 43q38 42 67 69l51 36q4 -3 3 -6q-2 -6 -11 -20q1 -4 6 -7l7 -4l-18 -21l-7 -10l-154 -177l-86 -148l1 -2q1 -2 2 -2v-3q33 -3 44 -3zM545 625l-3 3q-4 2 -7 4l98 137l98 141l163 174q68 50 93 62 q27 15 41 10t22 -17q16 -52 -22 -105q-18 -21 -36 -49l-206 -198l-160 -117q-62 -46 -77 -46q-3 0 -4 1z" />
<glyph unicode="l" horiz-adv-x="296" d="M16 -4q26 6 63 25q25 29 51 54l52 52q14 20 74 87q50 56 65 84q-1 1 -10 1q-19 -25 -39 -45q-3 -4 -1 -10q-26 -25 -50 -51l-103 -127l-35 -30q-57 -32 -59 -33q-13 4 -16 3q1 10 -3 29q12 39 13 52q26 49 36 63l94 132q3 4 1 10q18 22 39 45q28 37 69 102 q112 87 184 153q-11 2 -12 0l-71 -65l-52 -31q-3 3 -5 4l-2 1q34 61 36 73q19 36 34 50q58 91 96 158q59 70 87 108l39 30l39 29q15 0 31 4q17 -5 18 -6q7 -18 10 -33q-28 -53 -28 -61l-78 -103l-108 -122q-2 0 -8 -2q-7 -10 -10 -15q4 -3 10 -1l140 146q4 13 6 16t9 6 q29 45 55 77q15 33 28 66q-3 6 -5 21q-20 18 -24 21q-20 -1 -57 -9l-54 -46l-51 -43q-47 -51 -52 -57l-82 -110l-117 -161l-88 -125q-6 -18 -13 -29q-43 -50 -104 -108q-49 -61 -65 -83l-22 -45l27 23q2 -8 2 -13l-28 -64q1 -11 1 -46q11 -28 24 -47q11 -1 19 -4z" />
<glyph unicode="m" horiz-adv-x="1040" d="M1240 446l-179 -190q-33 -43 -85 -90l-85 -69q-17 3 -31 -5q-37 -22 -62 -22q-28 0 -28 31q0 10 4.5 20.5t8.5 15.5t15 16.5l13 13.5q28 29 77 89q52 65 71 94q34 55 41 104q4 10 -2 27q-26 43 -78 48q-30 5 -78 -23q-33 -16 -45 -17q-3 0 -10 -1t-16 -2l-18 -2 q-30 -3 -52 -3q-26 0 -41 24t-56 24q-45 0 -119 -56q-73 -55 -78 -55q-28 0 -57 26l-2.5 24t-1.5 18q-21 43 -58 43q-45 0 -148 -100q-43 -43 -151 -163q-25 -28 -89 -92q-50 -49 -86 -89l5 -10l118 118l200 209q110 107 145 107q5 0 13.5 -3t9.5 -3v-45l-300 -413l12 -17 h62q9 0 80 84l134 152q13 24 120 123q130 122 182 122q17 0 20 -4l-34 -94q-59 -127 -169 -258l-75 -108q14 -17 23 -17q14 0 36 6q29 8 38 17q40 46 95 98q97 147 177 216q41 43 55 55q28 24 87 64q9 7 24 10q28 -3 19 -53q-7 -48 -38 -103q-65 -71 -79 -90 q-37 -53 -37 -116q0 -32 12 -53q34 -35 63 -37h27q76 34 148 115q48 45 131 137t121 127q1 2 1 25z" />
<glyph unicode="n" horiz-adv-x="604" d="M-94 -78l21 4l21 3l76 91q49 61 60 79l190 218q97 87 110 98q-4 3 -7 3h-3q-80 -69 -107 -87q-8 -13 -15 -22q-8 3 -15 2q88 123 113 161q2 8 0 19q-2 18 -2 20l-18 18q-20 20 -32 17q-122 -109 -172 -162q-7 -6 -23 -9q-34 -37 -45 -52q4 -3 8 -3h3l105 102q21 -7 25 -6 l-90 -128q-33 -28 -47 -42l-64 -100q-77 -115 -77 -116q-54 -90 -54 -96q0 -5 5 -13q15 -3 34 1zM342 -7q76 20 92 26q64 61 81 67q67 70 126 141l-5 2l-197 -185q-43 -22 -87 -30l-6.5 4.5t-6 4t-3.5 2.5q1 10 0 25l99 127l96 127l25 55q11 23 23 56q14 45 4 64l-20 26 l-20 6q-34 -10 -65 -25q-11 -5 -61 -32q-8 -11 -8 -16q26 14 37 21l34 21q8 3 34 10l32 6q8 -27 6 -42q-17 -39 -20 -48l-217 -238q-6 -21 -20 -52q-6 -24 -5 -54q11 -20 17 -41q16 -18 35 -28zM22 283l11 7.5l8 5.5l3 1q-4 3 -7 3h-3q-8 -13 -12 -17z" />
<glyph unicode="o" horiz-adv-x="389" d="M493 469q0 18 -11 40q-14 26 -34 26v-20q14 -14 17 -24v-27q0 -67 -75 -181q-69 -103 -164 -188q-98 -87 -155 -87q-20 0 -28 2q-22 9 -22 41q0 18 31 79q34 70 60 70q49 50 70 83q2 4 6.5 15l6.5 16t7.5 15.5t10.5 17.5t13 17t18 20l29 36l5 2q29 39 78 71q47 32 73 32 v26q-3 0 -16 3t-15 3q-48 0 -203 -90q-36 -21 -61 -51q-4 -5 -12 -9t-12 -6.5t-2 -5.5l-16 -20q-71 -77 -95 -175q-24 -99 -21 -103q-3 -61 25 -93q23 -29 66 -29q45 0 124 61q49 39 125 113q64 62 66 62q4 0 25 -8t25 -8q43 0 43 37q-3 1 -10 1q-3 0 -13 -1.5t-12 -1.5 q-16 0 -29 22q0 25 5 37q18 26 29 39q13 18 30 64q18 51 18 77z" />
<glyph unicode="p" horiz-adv-x="656" d="M578 824q-17 -5 -38 -1q-3 2 -59 -57q-55 -58 -66 -66l-174 -222l-71 -87l-50 -49t-45.5 -32.5t-55.5 -18.5q-6 -1 -18 3.5t-16 -0.5q-2 -3 -1 -6l2 -4q19 -14 46.5 -15.5t51.5 11.5q2 -4 4 -15l-41 -52l-87 -113l-173 -217l-209 -268l65 1l14 14q41 60 148.5 179 t148.5 179l205 275q73 93 153 152q84 62 142 93q32 20 60 24q47 5 64 -37q8 -50 -40 -132l-100 -104q-43 -43 -70 -73q-43 -19 -75 -2q-24 13 -19 44q1 29 15.5 40.5t37 18.5t33.5 19q12 12 14 33q0 28 -22 40q-10 6 -14 -6l-2 8q-52 -8 -84 -67q-26 -42 -13 -94 q27 -68 103 -56q36 -4 70.5 2t53.5 13t57 23q11 6 60 39q97 71 151 144l-83 -79q-57 -45 -68 -52q-26 -10 -41 -11q-6 7 -3 18q48 40 64 63q16 26 20 39l22 51l8 27q2 33 -1 47q-12 39 -64 54q-92 15 -167 -24l-86 -43q-1 3 -3 8t-2 7l246 320q5 11 2 14zM-407 -310 q0 2 -2 2h-4q4 -4 6 -2z" />
<glyph unicode="q" horiz-adv-x="642" d="M-201 -507l65 9q19 19 40 33l44 28q4 4 4 16q-5 5 -8 6l-4 3q61 98 82 127q35 50 91 120q109 97 157 136l71 50l37 31l97 89q73 71 96 97q27 30 44 44q4 8 31 39q32 54 51 83q-2 14 -2 15l-252 -277q-53 -42 -107 -80q-4 2 -6 6l-1 3q49 89 108 167q18 39 36 71l38 67 l58 83l59 85q-7 10 -7 19q-46 -6 -85 -20q-9 -24 -12 -27q-9 6 -27 16q-15 3 -37 3q-35 3 -69 2q-82 -1 -234 -113q-106 -72 -165 -185q-20 -49 -27 -75q0 -43 7 -92q32 -25 45 -40q40 8 66 14q47 9 64 8l7 21q5 0 8 1h3q7 -12 8 -19l-319 -446q-51 -72 -68 -98l-15 -7 q19 -6 28 -13zM26 41q-16 9 -20.5 29t6.5 42q4 8 54 95l108 121l113 122l36 28q20 15 38 33q49 7 97 7q5 -13 5 -22q1 -10 0 -59l-42 -73l-208 -220l-38 -32q-21 -16 -41 -35l-45 -19z" />
<glyph unicode="r" horiz-adv-x="536" d="M280 224l83 110q54 72 59 97q-14 47 -25 47q-6 -2 -16 11q-9 14 -14 14q-11 6 -21 6q-9 0 -29 -11q-5 -2 -14 -8t-13 -8q-3 -1 -39 -4q-7 -1 -17 -1q-16 0 -16 5q-4 5 -4 14q0 6 7 27t7 28q0 16 -14 30q-4 3 -17 3q-15 0 -24 -1q-30 -5 -37 -12t-9 -37q-1 -27 0 -34 q0 -8 19 -18q21 -11 22 -16q2 -8 2 -13q0 -13 -9 -32q-17 -31 -27 -39q-12 -8 -21 -23q-10 -15 -18 -22l-123 -135q4 0 12 11.5t11 11.5l132 136q29 37 39 45q5 9 17 27q10 16 22 18l69 10q17 -8 17 -19q0 -8 -8 -19q-15 -19 -25 -34l-36 -64q-46 -70 -117 -194 q0 -5 -11 -22t-11 -21q1 -5 -2 -41q-3 -34 6 -47q38 -53 60 -50l88 12l115 74q5 0 65 48l152 188q-11 -1 -21.5 -12t-10.5 -18l-123 -138q-106 -73 -133 -100q-16 -18 -29 -21q-8 0 -40 -13q-22 -9 -37 -9q-6 0 -9 1q-7 0 -16 19q-8 21 -8 27q1 19 23 50l35 46q0 1 3.5 6 t10.5 16.5l15 23.5q29 45 53 74z" />
<glyph unicode="s" horiz-adv-x="363" d="M345 269q9 43 -24 126q-33 58 -31 102q-3 18 25 60l22 45l-24 -5q-18 -19 -48 -57q-6 -6 -42 -61q-15 -20 -19 -32l-91 -119l-24 -31l-40 -42l-37 -55q0 -1 3 2l6 7q5 4 15 20t14 20q117 130 142 162q32 42 33 54l23 14q20 9 23 -5l12 -67l-5 -68l-27 -114 q-7 -28 -25 -62q-21 -37 -36 -59q-8 -12 -49 -65q-18 -28 -38 -39l-39 -21l-57 -10q43 -3 80 14q6 5 40 15q22 8 37 20q8 6 52 44q66 48 104 114l12 29zM-69 28q28 -45 75 -59q-5 2 -32 21q20 29 34 32l10 16l-6 33q-4 22 -16 25q-12 4 -33 -4q-22 -8 -23 -21q1 -4 -4 -22 t-5 -21z" />
<glyph unicode="t" horiz-adv-x="333" d="M74 -21q34 5 42 11l-28 9l-43 6l-10 43q8 17 15 30.5t12.5 21t10 12.5t7.5 7.5t3 3.5l96 176q97 128 151 208q16 24 32 34l42 21q5 5 12 14q10 13 12 17q9 25 31 50l47 47q11 29 62 49q38 15 132 21l3 9q-34 -1 -64 2q-22 2 -31 5l-8 18q10 50 51 111l73 102q-7 7 -7 12 l-28 2q-40 1 -98 -42q-7 -21 -70 -96l-81 -95l-35 -16q-15 6 -31 7q-10 2 -28 17l-17 -34l24 -33q-31 -60 -86 -126q-6 -7 -99 -131l-114 -180l-14 -28l-6 -12l-9 -19q-35 -59 -42 -155q-9 -54 40 -87zM326 122l32 21l-16 23l-7 -12q-26 -20 -70 -61q-47 -37 -59 -50l5 -8 q29 19 59 43q19 16 30 31zM132 3q3 -2 14 -4q33 23 46 29q-4 3 -13 5q-36 -24 -47 -30z" />
<glyph unicode="u" horiz-adv-x="633" d="M451 20l33 9l30 6q30 17 69 45l57 57l41 40l-4 6q-55 -52 -92 -79l-95 -67q-5 1 -18 1l-12 1q9 25 9 24q-13 39 -16 63l12 36l181 264l45 70l49 71q-12 9 -14 15q-18 2 -35 0q-18 -2 -29 -3q-16 -13 -61 -56q-41 -41 -62 -68l-208 -260q5 -5 6 -7l2 -3q11 14 31 28 q12 -10 19 -9q-16 -66 -18 -79l22 -67q-2 -2 -2 -4t6 -7t54 -27zM25 -36l40 5l36 6q19 15 26 15q-12 3 -26 1q-3 0 -78 -16q10 12 16 14q-28 15 -38 17l13 37l35 55q76 115 123 178l156 218q-3 14 -3 18q-49 2 -60 0q-16 -2 -32 -8q-42 -42 -98 -91q-24 -37 -42 -59 l-116 -135q15 -20 19 -50q-10 -13 -21 -60l-14 -62q11 -36 14 -50q22 -22 50 -33zM211 61l-72 -58q10 7 26 10l83 77q56 55 74 87q-8 5 -108 -99q-5 -5 -3 -17zM137 2q1 1 2 1q-1 -1 -2 -1z" />
<glyph unicode="v" horiz-adv-x="615" d="M126 -33q20 1 48 3q57 33 107 55l98 89l95 89q24 -14 50 -20q30 2 51 10q28 19 68 66q-3 2 -7 4l-3 1l-54 -53q-43 -8 -47 -8q-6 -1 -15 4q-7 13 -8 35q10 23 22 44q2 6 32 45t49 88q21 77 26 100q-7 12 -17 22q-21 -6 -32 -15q-7 -5 -14 -15t-13 -21t-8 -14l-41 -112 q-26 -68 -38 -106q-9 -19 -26 -44l-91 -89l-88 -88q-56 -31 -93 -49q-8 0 -57 -4l-10 12l-4 47l26 38q34 48 96 114q37 85 55 152q20 76 19 87l-2 29q-15 34 -13 43v4q-20 9 -40 13q-2 0 -7 1t-15.5 2l-20.5 2q-24 -34 -34 -57l-28 -21q-18 -14 -22 -19q-89 -105 -132 -164 l-35 -44l14 -3l182 219q3 -5 2 -12q-57 -103 -70 -185l-20 -106q3 -9 3 -14q0 -3 -5 -28q5 -20 10 -66q21 -35 27 -46z" />
<glyph unicode="w" horiz-adv-x="870" d="M6 246l13 17q-5 -5 -13 -17zM240 37l38 47q18 20 37 21q31 0 68 -60q36 -24 73 -24q26 0 52 12q54 25 114 70l105 83q24 18 44 18q15 0 28 -13q16 0 57 26q42 27 42 42q-71 -31 -88 -39q-4 7 -4 19q0 32 34 107l30 59q17 33 26 61q-6 62 -22 62q-6 0 -12 -7 q-26 -26 -58 -96q-18 -40 -48 -121q-28 -77 -50 -117q-71 -67 -146 -104q-79 -40 -95 -46q-21 -7 -35 10l-2 29q86 150 114 193q65 98 146 170q-7 4 -14 4l-7 49q-15 13 -50 18l-57 -50q-66 -76 -117 -125q-49 -46 -77 -79q-19 -21 -51 -77q-36 -62 -50 -80 q-19 -28 -43.5 -50.5t-38.5 -28.5q-35 -22 -59 -13q-18 3 -18 19q0 27 22 61l89 133q52 82 68 141q4 12 4 27q13 54 -40 63q-14 1 -55 -7q-37 -7 -91 -69l-84 -112l72 80q83 89 129 95q20 -1 28.5 -10t-1.5 -27q-28 -37 -66 -82q-113 -137 -116 -247q3 -61 31 -76 q26 -15 38 -17q47 -8 106 58z" />
<glyph unicode="x" horiz-adv-x="567" d="M-106 50l-1 -41q24 -39 56 -39q10 0 25 5q46 18 123 26q15 44 29 44q5 0 10 -5q20 -20 83 -32l61 -10q89 -5 210 100l180 181q-2 2 -5 2q-15 0 -49 -34l-86 -84q-53 -53 -90 -80q-19 -15 -33 -20q-16 -8 -28 -8q-4 0 -12 2q-43 52 -73 71q0 1 -2 17l29 50q17 30 70 114 q109 172 161 204q28 -47 54 -51t40 16q11 18 10 44q-1 30 -29 51q-46 -19 -104 -56l-99 -66q-25 20 -53 61q-23 38 -35 48l-78 -22l-78 -48q-44 -40 -93 -89l-87 -88q-7 4 -17 3l-8 -26v1v-1l-1 -2v1v-1l-4 -12q-2 -10 -2 -14q0 -16 22 -15q11 54 97 133q73 67 129 97 q4 -4 31 -15q73 19 75 19q5 -10 5 -24q0 -15 -6 -36l-21 -70l-81 -121q-7 -5 -35 -48q-70 -74 -139 -117q-33 -3 -42 -3q2 2 2 7q0 9 -10 25l-14 23q3 5 3 7q0 3 -4 3q-6 0 -30 -8q-44 -17 -56 -69zM-26 289l1 1z" />
<glyph unicode="y" horiz-adv-x="590" d="M122 182l15 5q25 11 83 43l15 6q10 7 25 13l5 -4q-13 -12 -15 -15q-6 -6 -9 -8q-2 -2 -10 -12l-69 -62q-22 -27 -38 -40q-2 -2 -22 -11l-69 -32q-8 -3 -66 -28l-12 13l-98 -68l-48 -28l-47 -27q-30 -24 -67 -64q-14 -26 -27 -47q4 -31 18 -55q13 -4 29 -13h52 q11 2 21.5 4.5l20.5 5l14 3.5q59 33 77 45l85 57l135 124l12 13l56 50l52 4h36h6h21l9 9q-13 16 -25 34q-8 -4 -18 -4v21l22 11q3 0 26 15q78 35 94 43l50 25l213 145q-4 7 -4 21l-102 -64l-98 -64l-30 -17q-44 -23 -107 -39q32 40 81 86l248 265q-6 11 -8 17l-16 4l-12 3 l-3 1q-17 -4 -55 -4l-55 -39l-95 -88l-93 -87q-110 -81 -164 -116q-20 -11 -58 -29l-13 5l-8 17q5 20 17 30l45 41q133 116 146 150q25 53 8 81t-24 35q-16 4 -52 4q-26 -14 -51 -24l-47 -19l-114 -89l-58 -69q7 -4 15 -4q31 31 38 40q22 19 52 41h2v2l62 45q48 26 84 43 q23 -9 30 -9q-11 -10 -30 -38q-75 -67 -102 -89l-82 -85q-36 -50 -12 -98q10 -21 31 -39q17 -11 40 -8q21 3 42 16zM26 -5q-86 -91 -88 -94q-50 -53 -108 -97q-46 -13 -97 -31l-26 13q0 14 -4 22l30 46l68 60q88 53 218 114h14q5 -2 6 -1q1 -1 13 -6l-11 -11l-9.5 -9.5z" />
<glyph unicode="z" horiz-adv-x="497" d="M-328 -454q35 9 85 12q56 17 121 39q68 33 181 110q34 32 49 45q104 98 162 158q92 137 104 222q10 7 24 7q20 -17 46 -30q4 6 13 6q-27 21 -46 39l112 90q18 22 61 52l-9 5l-139 -102q-25 -12 -64 -34q-24 19 -43 30q-27 15 -47 25q-78 -10 -96 -12q-17 -2 -41 0 q3 8 3 20l203 188l48 18l49 18l90 56q8 20 12 24q-5 5 -6 14q-15 3 -33 2q-48 -42 -94 -74l-41 -18l-42 -18q-21 2 -42 0q-26 0 -38 -1q-5 5 -4 11q0 1 1.5 5.5l3.5 11t5 14.5q-19 30 -22 37q-14 4 -33 2l-23 -16q-12 -19 -29 -51q-3 -17 -1 -47l-145 -141q3 1 9.5 3.5 t9.5 3.5q57 57 136 129q30 12 46 14q59 -7 73 -8q8 -10 10 -13l-59 -60q-47 -47 -101 -96l-91 -80l-69 -77q7 -3 24 -3q106 66 189 112q64 10 104 13q6 -13 16 -17q-27 -13 -32 -13q-29 -27 -68 -101l-62 -52l-381 -217q-63 -49 -95 -71q-73 -64 -70 -125q13 -49 76 -59z M-324 -439q-52 15 -61 51q16 40 28 60q38 35 66 67l111 74l115 74l222 117h1q1 1 5.5 4t10.5 6q20 11 26 11q10 -1 9 -21q0 -12 -3 -19l-85 -111q-75 -98 -223 -225q-120 -67 -128 -72q-67 -10 -94 -16z" />
<glyph unicode="{" horiz-adv-x="679" d="M326 -35l9 21q-24 10 -41 10q-94 1 -42 130l64 155q-2 0 3 27q11 62 -6 75q-56 33 -88 45q49 13 84 26q45 17 55 26q19 16 47 55q23 34 26 43l62 151q29 69 65 99q50 44 136 44l8 21l-54 1q-59 2 -118 -38q-62 -40 -90 -106l-81 -198l-26 -41q-30 -39 -85 -55l-85 -17 l-9 -21q79 -14 99 -35q25 -28 -1 -93l-76 -185q-2 -3 -2 -16t-2 -16q-20 -47 15 -78q32 -29 80 -29z" />
<glyph unicode="|" horiz-adv-x="331" d="M265 -116q0 26 0.5 73t1 134t0.5 154q1 168 1 399q0 241 -4 384q0 45 -4 97q2 12 2 19q-2 0 -5.5 -0.5t-5.5 -1.5l-13 -1q1 -43 1.5 -158.5t0.5 -171.5q-5 -686 5 -920l10 -10q1 1 10 3z" />
<glyph unicode="}" horiz-adv-x="700" d="M486 426l8 20q-140 20 -96 125l78 190q9 19 6 57q-5 34 -13 41q-9 9 -39 21q-32 13 -46 14h-48l-14 -32l9 4q20 2 27 2q60 -1 65 -49q3 -32 -22 -93l-53 -131q-3 -8 -8 -44q-4 -32 -2 -56q3 -15 31 -33q29 -18 49 -18q8 0 13 -6q-30 -10 -65 -18q-41 -12 -73 -37 q-14 -10 -32 -35l-27 -40l-78 -185q-21 -51 -62.5 -78.5t-92.5 -25.5q-14 0 -21 1l-10 -23l48 -1q9 -1 50 8q42 11 61 19q13 6 45 41q31 35 39 53l77 188q43 53 71 78q33 28 56 33q46 6 69 10z" />
<glyph unicode="~" horiz-adv-x="463" d="M611 711l-5 3q-43 -25 -66 -25q-2 0 -17.5 6.5t-47.5 17t-69 17.5h-46.5t-38.5 -5.5t-32 -17.5q-47 -40 -52 -45q14 0 27 13q13 4 49 4q33 0 75 -16t46 -16h38q43 0 73 15q18 9 66 49z" />
<glyph unicode="&#xa1;" horiz-adv-x="287" d="M-24 -23l500 555l-329 -291q-75 -67 -182 -177q-8 -8 -8 -46q0 -22 6 -35q7 -6 13 -6zM560 575q16 0 29 15q13 16 13 24q0 15 -17 32t-27 17q-12 0 -29 -17q-16 -16 -16 -32q0 -17 22 -30q17 -9 25 -9z" />
<glyph unicode="&#xa2;" horiz-adv-x="377" d="M334 343v12q-14 -5 -61 -38q-37 -26 -62 -22l19 63q11 34 25 52l20 -16q7 -4 16 -4q19 0 31 16q16 25 16 45q0 21 -16 31q-19 5 -33.5 22.5t-14.5 35.5q0 9 5 19h-12q-6 -32 -31 -60q-25 -30 -53 -37q-73 -59 -84 -70q-46 -46 -46 -93q0 -23 7 -40q10 -30 29 -30 q5 0 11 3v35q9 36 37 68t62 43q2 -14 2 -22q0 -62 -45 -109q-2 -3 -25 -7q-22 -3 -23 -16q13 -4 30 -4q48 0 103 45z" />
<glyph unicode="&#xa3;" horiz-adv-x="717" d="M1092 479q7 18 7 41q0 48 -31 86l-55 40q-48 13 -96 13q-213 0 -409 -247l-119 -24q2 -17 26 -17h17q23 0 29 -15q-14 -27 -38 -37q-16 -7 -50 -12q-38 -5 -51 -10q4 -15 28 -15q5 0 10 1h11q16 0 22 -6q-4 -34 -34 -68l-57 -63q-51 -59 -125 -59q-35 0 -104 15 q-65 16 -103 16q-69 0 -116 -43q-10 -16 -10 -34q0 -21 13 -34q35 -18 89 -18q32 0 70 6q20 3 111 30q69 20 112 20q63 0 115 -38q42 -8 77 -8q167 0 316 147v20q-19 -11 -103 -70q-69 -50 -108 -57q-40 -21 -101 -21q-99 0 -173 53q140 94 142 96q77 55 128 114l123 12v16 q-7 3 -20 3h-14q-7 -1 -14 -1q-26 0 -35 18q23 36 71 44q72 10 84 11v12q-8 3 -42 1q-26 -2 -38 15q44 105 171 194q43 31 111 31q36 0 72 -11q79 -44 75 -99q0 -41 -30 -75q-28 -33 -70 -33q-47 0 -75 37q-10 4 -10 24v13q1 6 1 12q0 13 -7 13q-5 0 -15 -7q-5 -12 -5 -23 q0 -28 25 -56q54 -40 111 -36q55 10 91 83zM139 63q-94 -47 -169 -47q-52 0 -93 23q-2 20 18 31q29 15 30 16q30 5 55 5q72 0 159 -28z" />
<glyph unicode="&#xa4;" horiz-adv-x="606" d="M50 656l1 -1l96 -95q-45 -66 -45 -128q-2 -26 14 -73q14 -33 35 -55l-105 -100l28 -29l106 97q56 -41 123 -41q71 0 129 45l100 -101l29 29l-101 100q45 57 45 128q0 70 -45 128l101 100l-29 29l-100 -101q-58 46 -129 46q-72 0 -128 -46l-101 101zM152 490q15 35 37 57 q49 47 115 47q68 0 115 -47t47 -114q0 -68 -47 -115t-115 -47q-66 0 -115 47q-42 44 -47 104q5 55 10 68z" />
<glyph unicode="&#xa5;" horiz-adv-x="814" d="M969 868h-69l-368 -318l-61 -53l-25 -20l-9 45q-1 5 -2 11t-2 10t-2 8.5t-1.5 7t-1 6t-1 4.5t-0.5 3v2v1l-66 293h-79l50 -214l14 -64l-147 2q-20 -30 -33 -53q68 0 70 -2q12 -1 24 -1t22.5 -0.5t15.5 -1t6 -0.5l52 -2q19 -55 19 -76q0 -10 -11 -30h-268l-17 -28t-15 -24 h285l-227 -374h76l231 374h257q6 10 14 22l12 18l6 9l-233 3v9q2 13 3 14q69 60 107 89h193l32 54h-164z" />
<glyph unicode="&#xa6;" horiz-adv-x="500" d="M228 199v-370h44v370h-44zM228 699v-370h44v370h-44z" />
<glyph unicode="&#xa7;" horiz-adv-x="533" d="M556 616l-89 112l-10 17l-28 61q-1 4 -5 11t-5 10h3v19h-10q-13 36 -13 61q0 112 135 112q32 0 92 -23t62 -23q24 0 24 27t-59 44q-47 12 -83 12q-82 0 -150 -51q-73 -55 -73 -135q0 -36 22 -86q-84 -12 -133 -58q-52 -51 -52 -133q0 -59 36 -137l62 -131q32 -72 32 -105 q0 -50 -44 -82q-40 -26 -93 -26q-38 0 -97 25q-57 25 -61 25q-28 0 -28 -28q0 -31 59 -48q42 -12 81 -12q87 0 157 49q63 45 74 110l15 15l-34 99q12 1 29 5h3q58 0 107 61q45 49 45 126q0 59 -37 137l-12 25zM333 364l-88 191q-22 45 -22 77q0 61 49 97q39 30 106 38 l88 -189q19 -40 22 -71l-1 3q-10 -10 -25 -10q-4 0 -16 2.5t-16 2.5q-9 0 -57 -75q-1 -1 -5 -1l-16 -60l2 -2z" />
<glyph unicode="&#xa8;" horiz-adv-x="543" d="M468 621q12 3 17 8q21 23 18 34q-3 13 -16 23t-27 10q-3 0 -9 -2q-8 -2 -19 -19q-10 -16 -7 -28q2 -10 16.5 -19.5t26.5 -6.5zM199 622q12 3 17 8q21 22 18 34t-16 22t-27 10q-6 0 -9 -1q-9 -2 -19 -19t-7 -28q2 -10 16.5 -20t26.5 -6z" />
<glyph unicode="&#xa9;" horiz-adv-x="888" d="M904 343q0 31 -11 73q-14 53 -51 104q-25 33 -85 74q-65 42 -101 42q-2 0 -11.5 2.5t-11.5 2.5t-7.5 1t-7.5 1t-9.5 2.5t-9.5 2.5q-98 0 -164 -26q-53 -23 -101 -65q-86 -77 -95 -182q-3 -26 -1 -46q4 -39 8 -59q10 -37 31 -80q16 -27 50 -61q31 -31 58 -47 q45 -26 60 -30q65 -21 86 -21l7 4q5 0 4 -4q42 0 66 2q1 0 7.5 1.5t8.5 1.5t7 1t7 1q40 0 105 38q59 35 92 74q30 36 47 79q9 26 11 34q11 49 11 80zM831 431q0 -6 -7 -48q-6 -43 -6 -47q0 -6 4 -39q1 -10 2.5 -20.5t2 -14.5t0.5 -5q0 -97 -146 -156q-37 -15 -40 -15h-3 q-4 -1 -11 -2.5t-14 -2.5q-23 -4 -28 -4h-24q-2 0 -16 1t-16 1q-4 0 -37 10q-38 12 -43 14q-79 34 -121 102q-38 62 -38 131q0 1 1 15.5t1 19.5v3q20 113 107 174q74 52 168 52q79 0 159 -45q79 -43 99 -103q6 -20 6 -21zM733 267l3 14l-33 13q-18 -18 -18 -24 q-29 -44 -81 -44q-38 0 -63 31q-9 12 -17 38q0 1 -3 13t-5 24q-3 18 0 77q6 100 81 100q72 0 101 -104h20v81q4 21 2 23q-1 3 -3 8t-2 6q-15 9 -19 11q-4 -14 -11 -20q-10 7 -18 7q-2 0 -5.5 -1t-5.5 -1l-16 5q-12 4 -41 11q-14 2 -32 2q-14 0 -45 -10q-39 -12 -72 -51 q-33 -38 -38 -79v-64q8 -26 13 -39q8 -24 24 -40q29 -30 52 -41q41 -19 62 -19q15 -1 43 0q52 3 86 43l7 6q15 24 31 24h3z" />
<glyph unicode="&#xaa;" horiz-adv-x="571" d="M471 696v13h-8q-39 -51 -65 -72q-30 -30 -41 -45l-30 -22h-16q-29 0 -29 20q0 18 159 236q20 37 26 51q-10 16 -33 16q-16 0 -35 -18q-11 -9 -15.5 -13t-3.5 -4q-4 0 -18 13t-18 13h-14v-11q26 -3 26 -33q0 -27 -25 -64q-4 -7 -46 -61q-68 -87 -72 -91q-38 -38 -89 -76 l5 -4q3 0 13 5t11 5q19 8 25 14t27 31q41 37 47 42q8 -5 8 -14q0 -4 -1 -5v1q-7 -8 -22 -15v-20q2 -2 3 -19q12 -12 13 -15l18 -2q14 -14 22 -14q7 0 29 14l16 4q1 0 7 7t8 7t2.5 -1.5t2.5 -1.5q3 0 24 27l17.5 22.5l12.5 15.5t5 6q38 42 54 58zM302 867v11h-25q-6 0 -14 -8 q-39 -16 -50 -22q-13 -9 -29 -25q-94 -68 -110 -120q-8 -17 -12 -24q-10 -56 -10 -66q0 -12 10 -39q12 -36 25 -36q6 0 6 3v11q-14 8 -14 21q0 27 57 109q49 71 65 86l51 54q28 31 50 45zM463 490q2 8 3 11l-10 10q-174 1 -271 3l-139 3q0 -10 -1 -12q0 -2 -0.5 -5.5 t-1.5 -5.5q13 0 19 1q50 -3 77 -3q56 -1 110.5 -2.5t77.5 -2t27 -0.5q-5 1 -11 1q10 2 120 2zM325 873v11h-18l-2 -14q9 3 20 3zM120 535v11h-15v-11h15z" />
<glyph unicode="&#xab;" horiz-adv-x="547" d="M292 535q0 10 -4 14h-17q-113 -100 -197 -155q-12 -5 -25 -8q-65 -41 -65 -88q0 -20 5 -28q63 -75 82 -95q27 -27 61 -75q25 -37 33 -37t13 5v32q0 3 -19 40l-4 6q-14 33 -21 46l-7 15l-9 14l-7 63q50 79 84 110q30 40 41 60q12 12 20 17l25 37q11 17 11 27zM559 549 q0 5 -6 12t-12 7q-4 0 -28 -27q-30 -31 -42 -42q-102 -68 -119 -78q-15 -8 -63 -38q-22 -12 -34 -28q-14 -20 -14 -38q0 -8 56 -79l68 -84q16 -19 35 -49q12 -19 26 -19q2 0 9 7v33q0 3 -14 29t-14 29q0 6 -2 6q-30 56 -30 92v30q7 18 35 54q30 28 72 78l45 49q32 37 32 56z " />
<glyph unicode="&#xac;" horiz-adv-x="833" d="M709 418l-15 -1l-209 2q-247 -5 -334 -5l-6 -35l526 -1v-205h38v243v2z" />
<glyph unicode="&#xad;" horiz-adv-x="685" d="M598 488q0 9 5 17l-16 15q-317 -3 -394 -3q0 -16 -5 -27q-3 -8 0 -11q20 2 30 4q38 -5 63 -3l58 2q84 0 125 1q6 0 22.5 1t48.5 2zM470 482q52 -1 92 1h-98l-5 -1h11z" />
<glyph unicode="&#xae;" horiz-adv-x="887" d="M916 517q0 15 -15 16q-2 -2 -13 -3q-2 -2 -51 -15q-2 -8 -6.5 -10t-8.5 -8q-7 6 -7 16q1 11 1 17q-6 8 -12 8q-2 0 -3.5 -1.5t-3.5 -1.5q-3 0 -18 17l-23 23q-28 23 -35 27q-33 21 -50 28q-42 16 -57 16q-2 0 -11.5 2.5t-11.5 2.5t-7.5 1t-7.5 1t-9.5 2.5t-9.5 2.5 q-98 0 -164 -26q-53 -23 -101 -65q-86 -77 -95 -182l-3 -3l-1 -2q5 -5 4 -10q-3 -12 -1 -31q4 -39 8 -59q0 -3 4 -18q5 -16 4 -17q-5 -4 2 -5q13 -22 21 -40q17 -28 51 -63q34 -33 57 -45l59 -30l40 -10q44 -11 52 -11h72q2 0 8 2.5t8 2.5t7 1t7 1q40 0 105 38q60 35 92 74 q13 17 33 49q2 3 7 5l26 55l2.5 13t1.5 9l2 -4q-2 23 14 60q1 0 7 25q8 29 13 39l7 14q3 38 2 52q0 7 0.5 13t1.5 9v3q6 16 6 15zM789 432l-13 -86q0 -2 1.5 -17t3.5 -28q4 -28 4 -34q0 -97 -146 -156q-37 -15 -40 -15h-3q-4 -1 -11 -2.5t-14 -2.5q-23 -4 -28 -4h-24 q-2 0 -16 1t-16 1q-4 0 -37 10q-38 12 -43 14q-79 34 -121 102q-38 62 -38 131l1 15q1 15 1 23q19 107 92 160q78 57 167 64q107 0 174 -43q103 -52 106 -133zM708 266v33h-23v-25q-1 -14 -12 -22h-14q-4 0 -5 10q0 7 -0.5 20.5t-1.5 20.5q-2 29 -18 45q-11 12 -28 19 q-10 3 -30 11l3 2q90 15 90 76q0 30 -24 50q-41 31 -153 26l-95 -1v-22q2 -1 7.5 -2.5t7.5 -2.5t6.5 -3t6 -3.5t3 -4.5t1.5 -7v-212q0 -6 -9 -15t-15 -9h-5q-1 -1 -3 -1v-14q5 -5 5 -8h142v22q-11 0 -20 9.5t-9 19.5v92h17q8 0 21 -16q9 -8 13 -37q6 -57 20 -75 q15 -19 32 -19q2 0 13 -2.5t12 -2.5q2 0 8 2.5t8 2.5q23 0 39 21q10 13 10 22zM581 455q0 -62 -44 -62h-19q0 46 -2 78q0 4 -0.5 7.5t-0.5 5.5v3.5v2.5q2 7 8 11q7 7 14 7h8q16 0 26 -16.5t10 -36.5zM866 286l-1 1z" />
<glyph unicode="&#xaf;" horiz-adv-x="449" d="M323 760q-2 6 3 11l-10 10q-220 -4 -250 -3q0 -2 -3 -23q9 0 19 2q7 -1 77 -1l102 1l1 1zM332 757h-71l-1 -1q71 0 72 1z" />
<glyph unicode="&#xb0;" horiz-adv-x="460" d="M337 646q3 -12 19 -23t31 -7q14 4 26.5 18.5t12.5 28.5q0 19 -22 29q-21 12 -37 8q-11 -3 -23 -22q-11 -20 -7 -32zM347 649q-2 8 7 23t16 17q14 4 28 -5t17 -22q-1 -2 -2.5 -6t-2.5 -6q-10 -19 -26 -24q-9 -2 -21.5 6.5t-15.5 16.5z" />
<glyph unicode="&#xb1;" horiz-adv-x="927" d="M798 567l-1 36h-254v262h-34v-263l-254 -2l-1 -42l145 2l110 -2v-249h32l1 253zM778 211l7 13l-10 13q-438 -3 -544 -3q0 -7 -3 -16l-2 -2l-2.5 -5t-1.5 -4t3 -3l40 3q36 -2 164 -1q51 0 349 5z" />
<glyph unicode="&#xb2;" horiz-adv-x="541" d="M591 808q21 51 5 63q0 12 -7 21.5t-15.5 13.5t-12.5 0q-22 5 -31 5q-27 0 -81 -20q-60 -24 -99 -57q-49 -42 -49 -89q0 -17 17 -31q16 -11 31 -11q31 0 73 30l72 54l4 -3q-31 -50 -123 -121q-8 -12 -26 -25l-15.5 -12l-30.5 -22.5l-37 -27.5l-109 -82q-1 -2 -1 -5l12 -3 l53 35q37 24 60 24q14 0 26 -19q2 -2 7.5 -10t8.5 -13t8 -10q13 -6 41 -3q4 -3 4 -1q11 8 20 8q15 3 21 2l7 7v2q6 11 27.5 26.5t24.5 20.5q2 5 0 10q-8 -5 -23 -16q-22 -16 -28 -16q-5 0 -81 38q39 55 38 56l84 55q51 36 87 73q36 39 38 53zM542 869v-17q-2 2 -5 2t-41 -37 q-38 -40 -60 -56q-23 -18 -34 -23q-34 -22 -52 -22q-22 0 -22 18q0 8 12 23l16 20q22 31 80 74q65 47 94 47q2 0 6 -2l4 -1q0 -1 -1 -2q-1 -3 -1 -5q-1 -4 0 -7z" />
<glyph unicode="&#xb3;" horiz-adv-x="536" d="M600 842q0 12 -6 26t-14 19q-34 18 -40 18h-24q-2 0 -9 -2l-7 -2q-40 -4 -85 -21q-26 -14 -37 -22q-20 -10 -31 -42q-1 -1 -1 -16q0 -44 53 -44q12 0 47 20q34 20 39 24q12 11 26 26.5t14 17.5q0 4 -6 9q-13 -7 -13 -8q-20 -18 -30 -30q-18 -15 -39 -26q-31 -15 -50 -15 q-3 0 -6.5 3t-3.5 7t14 24q20 32 62 55q35 18 71 23q9 3 11 3q6 0 16 -7q12 -9 12 -18q0 -20 -27 -51q-27 -34 -42 -43l-16 -13l-121 -56q3 -3 4 -6q1 -1 3 -1h3q7 0 11 2q2 -2 0 -6q11 -9 11 -28q0 -13 -9 -22q20 6 22 7q-3 12 1 22l-2 14q5 12 11 16q1 1 9 1q12 0 21 -6 q12 -6 12 -19q0 -9 -10 -20l-15 -17q-17 -23 -40 -39q-6 10 -8 13l-8 -9q-2 6 -2 9q0 2 2.5 9.5t2.5 9.5q-18 -7 -27 -9q-5 -2 -13.5 -10t-8.5 -10q0 -3 4 -3t3 -4q-5 -12 -8 -25q-27 -43 -47 -55l-47 -29q-20 -10 -55 -10q-25 0 -28 1q-13 3 -27 18q-3 3 -3 10t2 7h10 q17 0 27.5 9t10.5 25q0 8 -5 20q-8 14 -22 14q-3 0 -6 1h-5q-32 -14 -38 -23q-3 -4 -3 -20q0 -24 3 -31q6 -17 22.5 -30t30.5 -13q4 0 5 1q4 -4 6 -4l7 3h12q2 0 5 -1.5t5 -1.5q1 0 7 -1t8 -1l5 2q3 3 5 3q8 0 12 -4q-19 -22 -27 -33q4 1 13 12q6 9 13 9q2 0 6 -2t5 -2 q3 0 20 11q15 13 24 16q68 25 101 42q5 5 12 11q8 6 10 6t14 -2.5t13 -2.5q40 0 96 47l-6 2q-24 -16 -35 -25q-26 -15 -41 -15q-12 0 -19 10l21 20.5l17 16.5q22 22 23 58q-3 34 -11 52q-2 5 -8 14q-5 8 -5 9q0 8 31 21q30 12 45 17q14 9 22 17q23 12 35 31q8 16 8 42z" />
<glyph unicode="&#xb4;" horiz-adv-x="432" d="M552 749q0 14 -2 18q-38 23 -43 23q-19 0 -29 -16q-16 -28 -19 -31l-20 -47q-51 -51 -81 -76l17 -5q37 15 89 50l43 32q3 0 7 -2t8 -2q9 0 19.5 19.5t10.5 36.5zM542 753h-7v14h7v-14z" />
<glyph unicode="&#xb5;" horiz-adv-x="674" d="M273 483l-15 15q-10 10 -13 18q-16 48 -20 69l-49 -80q-30 -47 -45 -65l-185 -227q23 -29 18 -40q-5 -17 -103 -142l-122 -150l-71 -74l-39 -36q-40 -37 -46 -60q-2 -9 2 -25q5 -23 5 -26q20 9 24 2q-2 -7 -5 -14l-5 -12l-2 -4h20q4 0 43 10q37 10 53 10q71 95 102 133 q108 179 136 215q35 -28 54 -28q24 0 80 22q2 6 -6 6t-25 -6q-3 1 -51 -13q-3 7 -3 9q-13 13 -29 23l4 13q15 28 18 33q2 6 2 10zM613 167q-164 -128 -175 -128h-36q-11 0 -20 12q2 1 7.5 3t7.5 4q9 0 18 -10l4 22q-17 48 -13 62q2 6 4 8l254 410q-12 7 -22 14q-5 1 -28 1 q-3 0 -23 -7q-106 -91 -112 -99q-186 -256 -194 -265l-96 -112l105 100q10 18 29 24l13 -13q-4 -36 -10 -66q2 -46 25.5 -74.5t51.5 -28.5q48 0 101 40q36 28 109 103z" />
<glyph unicode="&#xb6;" horiz-adv-x="694" d="M544 860q1 -50 5 -122q4 -47 -1 -176l-19 -2v-28l1 -32l76 1q-1 -5 -1 -68q3 -71 3 -78v-401l37 -1l6 754q9 9 17 9q3 0 2 -1q0 -1 20 14q4 3 22 6t24 5v50q-2 2 -27 3q-28 3 -30 4q-6 2 -9 2q-2 0 -9.5 2t-8.5 2v173h76v33l-329 -3q-98 0 -162 -64q-63 -63 -63 -152 q0 -105 63 -160q36 -32 85 -45q28 -7 96 -15q31 -3 39 -7v-606h41v1019h46l3 -5l-3 -11v-28q2 0 0 -3v-69z" />
<glyph unicode="&#xb7;" horiz-adv-x="381" d="M187 268q50 0 87 34t37 85q0 132 -114 132q-51 0 -92 -39q-39 -38 -39 -93q0 -39 42 -79q41 -40 79 -40z" />
<glyph unicode="&#xb8;" horiz-adv-x="164" d="M270 5l-81 -2q-5 -7 -54 -56q-33 -33 -28 -55q7 1 32 14q20 11 31 11t24 -8q-6 -23 -31 -48q-11 -11 -45 -39q-12 -13 -67 -34q-41 -17 -38 -42l46 10l36.5 8t18.5 4q128 30 156 124q0 21 -20 46l-38 36l78 33q-14 -2 -20 -2zM290 7l2 1z" />
<glyph unicode="&#xb9;" horiz-adv-x="327" d="M489 921q0 7 -1 10q-2 8 -9 8q-17 0 -35 -8q-47 -29 -75 -50l-117 -72q-13 -11 -16 -15q-91 -49 -125 -70v-8h11l197 113q48 33 61 33q4 0 5 -1q-18 -29 -89 -100l-142 -149q-110 -119 -110 -131q3 -8 6 -11l57 1q4 0 28 26q21 22 26 31l25 37l103 118q129 156 152 182 q21 19 45 50q3 9 3 6z" />
<glyph unicode="&#xba;" horiz-adv-x="317" d="M251 707q-3 29 -27.5 46t-54.5 13q-46 0 -93 -59q-18 -17 -18 -53q0 -30 14 -52q16 -24 46 -24q11 0 46 7q48 35 61 48q31 32 26 74zM216 696q-7 -53 -76 -88q-35 0 -41 18q0 33 29 60q24 22 59 33q29 0 29 -23z" />
<glyph unicode="&#xbb;" horiz-adv-x="674" d="M428 580q63 -135 67 -143l14 -28l2 -49q-50 -79 -84 -110q-27 -35 -40 -60q-13 -12 -20 -17q-37 -52 -37 -64q0 -10 4 -14h18q156 126 199 157l-2 -2q13 6 25 8q64 40 64 88q0 21 -4 28q-48 57 -91 100q3 3 0 7t-7 5q-13 13 -45 58q-25 37 -34 37q-28 0 -29 -1zM64 95 q0 -4 6 -11.5t11 -7.5q3 0 29 27q28 31 42 42q98 67 118 77l64 39q21 13 33 28q14 20 14 38v6q0 8 -61 79l-63 78l-4 9q-12 10 -30 40q-12 19 -26 19q-2 0 -9 -7v-33q0 -3 14 -29t14 -29q0 -6 1 -6q31 -55 31 -92q0 -29 -1 -30q-7 -18 -35 -54q-34 -33 -48 -44 q-19 -25 -24 -34l-44 -49q-32 -37 -32 -56z" />
<glyph unicode="&#xbc;" horiz-adv-x="717" d="M655 238q-31 3 -59 -28l-46 -54q-57 -27 -67 -27q-17 0 -27 15l175 158q5 8 5 16q0 32 -46 32q-8 0 -11 -1q-27 -10 -50 -46q-28 -42 -38 -54q-16 -23 -75 -76q-50 -45 -53 -81l82 -12v-76q21 -8 34 -8q31 0 59 36q36 45 53 54q4 7 17 8q23 0 24 1q14 2 17 14 q-39 7 -39 32q0 15 21 49q23 34 24 48zM439 635l-12 17q-151 -58 -210 -117q7 -6 18 -6q6 0 22.5 6.5t20.5 6.5q8 0 15 -7q-21 -27 -66 -65q-51 -41 -69 -61q-33 -37 -34 -78q22 -6 40 -6q26 0 41 12l117 149zM690 629q-136 -103 -316 -292q-256 -267 -303 -309v-24h12 q75 83 314 315q204 199 293 310z" />
<glyph unicode="&#xbd;" horiz-adv-x="717" d="M695 282q-24 77 -113 77q-23 0 -50 -7q-44 -11 -73 -41q-33 -33 -33 -76q7 -31 39 -31h14q7 1 15 1q21 0 32 -11q-24 -24 -77 -50q-64 -31 -82 -45q-42 -30 -57 -74q8 -2 11 -2q15 0 42 21q26 22 40 22q16 -6 45 -38q25 -28 47 -28q9 0 75 26q27 15 27 35q0 7 -1 11 l-76 -35q-14 11 -23 36q-10 31 -18 40q17 17 54 24q52 11 63 17q42 9 72 47q32 39 27 81zM432 667q-50 -13 -114 -51q-6 -3 -107 -66q8 -5 17 -5t31 11q21 12 30 12q7 0 15 -6l-105 -96q-67 -61 -88 -114q15 -9 34 -9q31 0 66 21q25 42 117 151q78 93 104 152zM701 656 q-120 -91 -323 -284l-319 -300l-18 -35q458 400 660 619zM619 299q0 -19 -17 -36q-2 -2 -35 -28q0 3 1 13t1 12q0 11 -14 16l-70 -41q0 36 40 58q45 24 71 36q24 -13 24 -23q0 -4 -1 -7z" />
<glyph unicode="&#xbe;" horiz-adv-x="717" d="M111 438q-12 -21 -20 -24l156 -93q61 20 86 36q48 29 55 75q-16 25 -16 44q0 24 56 54q56 32 56 62q0 10 -3 21q-21 43 -86 43q-69 0 -130 -37q-10 -20 -10 -38q0 -20 16 -32q22 -7 38 -7q35 0 44 30l-36 17l12 18q57 27 67 27q16 0 27 -15q0 -40 -28 -59 q-18 -11 -59 -27q-43 -15 -59 -31q-3 -6 -3 -10q0 -7 17 -10t21 -9q-15 -43 -43 -61t-82 -25q-2 -1 -7 -1q-18 0 -37 22q-18 22 -18 41q0 4 2 8l-1 1q-2 0 -2 1q-1 0 -13 -21zM679 245q-25 -10 -85 -76q-51 -58 -89 -58q-19 0 -42 12q13 15 103 92q68 57 90 106 q-10 11 -30 12h-34q-95 -87 -193 -228q1 -4 2.5 -7t3 -5.5t5 -3.5t6.5 -1.5t9 -0.5h11h15h18q23 -8 23 -19q0 -5 -14 -24q-13 -16 -13 -26q0 -9 10 -18q21 -8 35 -8q32 0 63 51t50 51q3 0 11 -1t11 -1q20 0 23 19q-38 9 -38 28q0 12 25 46q26 37 26 51q0 3 -2 9zM773 630 l-356 -291q-198 -169 -339 -322l12 -5l348 300q206 178 335 318z" />
<glyph unicode="&#xbf;" horiz-adv-x="677" d="M13 -156q0 -81 53 -108q21 -14 26 -19q50 -6 70 -6q3 1 59 12q105 20 117 25q168 70 168 171q0 36 -25 55.5t-65 19.5q-64 0 -164 -64q-101 -65 -136 -128h16q63 65 141 115q89 56 145 56q45 0 45 -26q0 -52 -136 -137q-132 -81 -203 -81q-72 0 -72 64q0 33 51 92 q46 49 81 70l262 154q150 97 244 214l-10 6l-113 -95q-81 -66 -149 -86q-20 -9 -30 -15q-108 -19 -218 -81q-157 -90 -157 -208zM690 410q0 -8 21 -33q25 -31 44 -31q11 0 34 27q22 26 22 37q0 10 -23 33t-35 23t-38 -20q-25 -19 -25 -36z" />
<glyph unicode="&#xc0;" d="M-210 -30q98 0 212 55q116 56 180 130l98 -42q60 -25 102 -35l-10 -64q20 -10 64 -10q16 0 41 30q29 37 36 40l108 45q90 37 90 58l-11 10l-77 -43q-45 -23 -83 -25q65 109 173 246q153 195 185 245l121 131q76 82 127 125l50 53q28 35 47 69l14 4l12 24l53 3h14q0 3 3 3 q11 0 35 -4q26 -4 37 -1q6 2 10 6q5 5 20 44l-12 13l-31 19q-47 -1 -81 -1q-24 0 -69 -17q-40 -15 -67 -27q-24 -11 -44 -11l-39 -19q-307 -186 -543 -437l-32 -37q-23 -25 -40 -23q-63 107 -115 185q-93 72 -157 72q-81 0 -143 -71q-50 -59 -73 -147q22 -50 28 -118 t22 -105q29 -69 111 -166q-37 -38 -97 -80q-69 -48 -98 -73q-10 -1 -71 -20q-42 -13 -74 -13q-75 0 -114 15q-52 19 -85 78q0 3 -1 9t-1.5 10.5t-0.5 6.5q0 6 5 4q20 -11 46 -11t38.5 10.5t11.5 32.5q-1 15 -1 27q-7 22 -29 38q-13 5 -21 9q-45 2 -68 -36l-6 -25.5t-4 -17.5 l-1 -5q0 -73 67 -122q62 -44 138 -44zM176 201q-60 67 -86 105q-42 64 -52 123q-4 17 -4 67q-2 44 -6 66q25 60 61 92q2 1 89 62q12 0 38 3q23 4 38 4q69 0 129 -83q29 -39 79 -141q-16 -38 -132 -154q-97 -98 -154 -144zM494 243q14 78 14 138q0 18 -4 53q-3 30 -1 54 q98 107 234 226l248 208q-5 -19 -70 -82q-44 -86 -44 -109q0 -10 -3.5 -21t-8 -19t-14 -19l-14.5 -16.5t-17.5 -17.5l-16.5 -16l-296 -382q-2 -2 -7 3zM384 107q-152 27 -171 73q14 21 87 100q73 78 85 82q51 61 76 83l14 -6q5 -23 5 -92q0 -93 -66 -235q-17 0 -30 -5z M1241 1306q0 -17 10 -36.5t20 -19.5q2 0 6.5 2t8.5 2l43 -32q52 -35 89 -50l17 5q-31 24 -81 76l-20 47q-5 5 -20 31q-9 16 -28 16q-5 0 -43 -23q-2 -4 -2 -18zM1257 1310h-6v14h6v-14z" />
<glyph unicode="&#xc1;" d="M-210 -30q98 0 212 55q116 56 180 130l98 -42q60 -25 102 -35l-10 -64q20 -10 64 -10q16 0 41 30q29 37 36 40l108 45q90 37 90 58l-11 10l-77 -43q-45 -23 -83 -25q65 109 173 246q153 195 185 245l121 131q76 82 127 125l50 53q28 35 47 69l14 4l12 24l53 3h14q0 3 3 3 q11 0 35 -4q26 -4 37 -1q6 2 10 6q5 5 20 44l-12 13l-31 19q-47 -1 -81 -1q-24 0 -69 -17q-40 -15 -67 -27q-24 -11 -44 -11l-39 -19q-307 -186 -543 -437l-32 -37q-23 -25 -40 -23q-63 107 -115 185q-93 72 -157 72q-81 0 -143 -71q-50 -59 -73 -147q22 -50 28 -118 t22 -105q29 -69 111 -166q-37 -38 -97 -80q-69 -48 -98 -73q-10 -1 -71 -20q-42 -13 -74 -13q-75 0 -114 15q-52 19 -85 78q0 3 -1 9t-1.5 10.5t-0.5 6.5q0 6 5 4q20 -11 46 -11t38.5 10.5t11.5 32.5q-1 15 -1 27q-7 22 -29 38q-13 5 -21 9q-45 2 -68 -36l-6 -25.5t-4 -17.5 l-1 -5q0 -73 67 -122q62 -44 138 -44zM176 201q-60 67 -86 105q-42 64 -52 123q-4 17 -4 67q-2 44 -6 66q25 60 61 92q2 1 89 62q12 0 38 3q23 4 38 4q69 0 129 -83q29 -39 79 -141q-16 -38 -132 -154q-97 -98 -154 -144zM494 243q14 78 14 138q0 18 -4 53q-3 30 -1 54 q98 107 234 226l248 208q-5 -19 -70 -82q-44 -86 -44 -109q0 -10 -3.5 -21t-8 -19t-14 -19l-14.5 -16.5t-17.5 -17.5l-16.5 -16l-296 -382q-2 -2 -7 3zM384 107q-152 27 -171 73q14 21 87 100q73 78 85 82q51 61 76 83l14 -6q5 -23 5 -92q0 -93 -66 -235q-17 0 -30 -5z M1477 1287q0 14 -2 18q-38 23 -43 23q-19 0 -28 -16q-15 -26 -20 -31l-20 -47q-50 -52 -81 -76l17 -5q37 15 89 50l43 32q4 0 8.5 -2t6.5 -2q10 0 20 19.5t10 36.5zM1467 1291h-6v14h6v-14z" />
<glyph unicode="&#xc2;" d="M-210 -30q98 0 212 55q116 56 180 130l98 -42q60 -25 102 -35l-10 -64q20 -10 64 -10q16 0 41 30q29 37 36 40l108 45q90 37 90 58l-11 10l-77 -43q-45 -23 -83 -25q65 109 173 246q153 195 185 245l121 131q76 82 127 125l50 53q28 35 47 69l14 4l12 24l53 3h14q0 3 3 3 q11 0 35 -4q26 -4 37 -1q6 2 10 6q5 5 20 44l-12 13l-31 19q-47 -1 -81 -1q-24 0 -69 -17q-40 -15 -67 -27q-24 -11 -44 -11l-39 -19q-307 -186 -543 -437l-32 -37q-23 -25 -40 -23q-63 107 -115 185q-93 72 -157 72q-81 0 -143 -71q-50 -59 -73 -147q22 -50 28 -118 t22 -105q29 -69 111 -166q-37 -38 -97 -80q-69 -48 -98 -73q-10 -1 -71 -20q-42 -13 -74 -13q-75 0 -114 15q-52 19 -85 78q0 3 -1 9t-1.5 10.5t-0.5 6.5q0 6 5 4q20 -11 46 -11t38.5 10.5t11.5 32.5q-1 15 -1 27q-7 22 -29 38q-13 5 -21 9q-45 2 -68 -36l-6 -25.5t-4 -17.5 l-1 -5q0 -73 67 -122q62 -44 138 -44zM176 201q-60 67 -86 105q-42 64 -52 123q-4 17 -4 67q-2 44 -6 66q25 60 61 92q2 1 89 62q12 0 38 3q23 4 38 4q69 0 129 -83q29 -39 79 -141q-16 -38 -132 -154q-97 -98 -154 -144zM494 243q14 78 14 138q0 18 -4 53q-3 30 -1 54 q98 107 234 226l248 208q-5 -19 -70 -82q-44 -86 -44 -109q0 -10 -3.5 -21t-8 -19t-14 -19l-14.5 -16.5t-17.5 -17.5l-16.5 -16l-296 -382q-2 -2 -7 3zM384 107q-152 27 -171 73q14 21 87 100q73 78 85 82q51 61 76 83l14 -6q5 -23 5 -92q0 -93 -66 -235q-17 0 -30 -5z M1458 1162q10 0 10 9q0 1 -15 15t-20 20l-39 59l-19 32q-9 14 -14 17q-11 6 -18 6h-6l-75 -63l-21 -12q-14 -9 -14 -17q0 -1 3 -4h17q1 0 6.5 3t18 8.5l26.5 11.5l12 7q22 1 34 -3l36 -28q5 -6 26 -23l24 -22q17 -16 28 -16z" />
<glyph unicode="&#xc3;" d="M-210 -30q98 0 212 55q116 56 180 130l98 -42q60 -25 102 -35l-10 -64q20 -10 64 -10q16 0 41 30q29 37 36 40l108 45q90 37 90 58l-11 10l-77 -43q-45 -23 -83 -25q65 109 173 246q153 195 185 245l121 131q76 82 127 125l50 53q28 35 47 69l14 4l12 24l53 3h14q0 3 3 3 q11 0 35 -4q26 -4 37 -1q6 2 10 6q5 5 20 44l-12 13l-31 19q-47 -1 -81 -1q-24 0 -69 -17q-40 -15 -67 -27q-24 -11 -44 -11l-39 -19q-307 -186 -543 -437l-32 -37q-23 -25 -40 -23q-63 107 -115 185q-93 72 -157 72q-81 0 -143 -71q-50 -59 -73 -147q22 -50 28 -118 t22 -105q29 -69 111 -166q-37 -38 -97 -80q-69 -48 -98 -73q-10 -1 -71 -20q-42 -13 -74 -13q-75 0 -114 15q-52 19 -85 78q0 3 -1 9t-1.5 10.5t-0.5 6.5q0 6 5 4q20 -11 46 -11t38.5 10.5t11.5 32.5q-1 15 -1 27q-7 22 -29 38q-13 5 -21 9q-45 2 -68 -36l-6 -25.5t-4 -17.5 l-1 -5q0 -73 67 -122q62 -44 138 -44zM176 201q-60 67 -86 105q-42 64 -52 123q-4 17 -4 67q-2 44 -6 66q25 60 61 92q2 1 89 62q12 0 38 3q23 4 38 4q69 0 129 -83q29 -39 79 -141q-16 -38 -132 -154q-97 -98 -154 -144zM494 243q14 78 14 138q0 18 -4 53q-3 30 -1 54 q98 107 234 226l248 208q-5 -19 -70 -82q-44 -86 -44 -109q0 -10 -3.5 -21t-8 -19t-14 -19l-14.5 -16.5t-17.5 -17.5l-16.5 -16l-296 -382q-2 -2 -7 3zM384 107q-152 27 -171 73q14 21 87 100q73 78 85 82q51 61 76 83l14 -6q5 -23 5 -92q0 -93 -66 -235q-17 0 -30 -5z M1554 1241l-5 3q-43 -25 -66 -25q-2 0 -17.5 6.5t-47.5 17t-69 17.5h-46.5t-38.5 -5.5t-32 -17.5q-47 -40 -52 -45q14 0 27 13q13 4 49 4q33 0 75 -16t46 -16h38q43 0 73 15q18 9 66 49z" />
<glyph unicode="&#xc4;" d="M-210 -30q98 0 212 55q116 56 180 130l98 -42q60 -25 102 -35l-10 -64q20 -10 64 -10q16 0 41 30q29 37 36 40l108 45q90 37 90 58l-11 10l-77 -43q-45 -23 -83 -25q65 109 173 246q153 195 185 245l121 131q76 82 127 125l50 53q28 35 47 69l14 4l12 24l53 3h14q0 3 3 3 q11 0 35 -4q26 -4 37 -1q6 2 10 6q5 5 20 44l-12 13l-31 19q-47 -1 -81 -1q-24 0 -69 -17q-40 -15 -67 -27q-24 -11 -44 -11l-39 -19q-307 -186 -543 -437l-32 -37q-23 -25 -40 -23q-63 107 -115 185q-93 72 -157 72q-81 0 -143 -71q-50 -59 -73 -147q22 -50 28 -118 t22 -105q29 -69 111 -166q-37 -38 -97 -80q-69 -48 -98 -73q-10 -1 -71 -20q-42 -13 -74 -13q-75 0 -114 15q-52 19 -85 78q0 3 -1 9t-1.5 10.5t-0.5 6.5q0 6 5 4q20 -11 46 -11t38.5 10.5t11.5 32.5q-1 15 -1 27q-7 22 -29 38q-13 5 -21 9q-45 2 -68 -36l-6 -25.5t-4 -17.5 l-1 -5q0 -73 67 -122q62 -44 138 -44zM176 201q-60 67 -86 105q-42 64 -52 123q-4 17 -4 67q-2 44 -6 66q25 60 61 92q2 1 89 62q12 0 38 3q23 4 38 4q69 0 129 -83q29 -39 79 -141q-16 -38 -132 -154q-97 -98 -154 -144zM494 243q14 78 14 138q0 18 -4 53q-3 30 -1 54 q98 107 234 226l248 208q-5 -19 -70 -82q-44 -86 -44 -109q0 -10 -3.5 -21t-8 -19t-14 -19l-14.5 -16.5t-17.5 -17.5l-16.5 -16l-296 -382q-2 -2 -7 3zM384 107q-152 27 -171 73q14 21 87 100q73 78 85 82q51 61 76 83l14 -6q5 -23 5 -92q0 -93 -66 -235q-17 0 -30 -5z M1468 1185q11 3 16 8q22 22 19 34q-4 13 -16.5 23t-27.5 10q-3 0 -9 -2q-8 -2 -19 -19q-10 -16 -7 -28q2 -10 17 -19.5t27 -6.5zM1254 1186q12 3 17 8q21 22 18 34t-16 22t-27 10q-6 0 -9 -1q-8 -2 -19 -19q-10 -16 -7 -28q3 -10 17 -20t26 -6z" />
<glyph unicode="&#xc5;" d="M-210 -30q98 0 212 55q116 56 180 130l98 -42q60 -25 102 -35l-10 -64q20 -10 64 -10q16 0 41 30q29 37 36 40l108 45q90 37 90 58l-11 10l-77 -43q-45 -23 -83 -25q65 109 173 246q153 195 185 245l121 131q76 82 127 125l50 53q28 35 47 69l14 4l12 24l53 3h14q0 3 3 3 q11 0 35 -4q26 -4 37 -1q6 2 10 6q5 5 20 44l-12 13l-31 19q-47 -1 -81 -1q-24 0 -69 -17q-40 -15 -67 -27q-24 -11 -44 -11l-39 -19q-307 -186 -543 -437l-32 -37q-23 -25 -40 -23q-63 107 -115 185q-93 72 -157 72q-81 0 -143 -71q-50 -59 -73 -147q22 -50 28 -118 t22 -105q29 -69 111 -166q-37 -38 -97 -80q-69 -48 -98 -73q-10 -1 -71 -20q-42 -13 -74 -13q-75 0 -114 15q-52 19 -85 78q0 3 -1 9t-1.5 10.5t-0.5 6.5q0 6 5 4q20 -11 46 -11t38.5 10.5t11.5 32.5q-1 15 -1 27q-7 22 -29 38q-13 5 -21 9q-45 2 -68 -36l-6 -25.5t-4 -17.5 l-1 -5q0 -73 67 -122q62 -44 138 -44zM176 201q-60 67 -86 105q-42 64 -52 123q-4 17 -4 67q-2 44 -6 66q25 60 61 92q2 1 89 62q12 0 38 3q23 4 38 4q69 0 129 -83q29 -39 79 -141q-16 -38 -132 -154q-97 -98 -154 -144zM494 243q14 78 14 138q0 18 -4 53q-3 30 -1 54 q98 107 234 226l248 208q-5 -19 -70 -82q-44 -86 -44 -109q0 -10 -3.5 -21t-8 -19t-14 -19l-14.5 -16.5t-17.5 -17.5l-16.5 -16l-296 -382q-2 -2 -7 3zM384 107q-152 27 -171 73q14 21 87 100q73 78 85 82q51 61 76 83l14 -6q5 -23 5 -92q0 -93 -66 -235q-17 0 -30 -5z M1516 1284q-3 26 -24.5 41t-48.5 11q-41 0 -81 -52q-16 -13 -16 -46q0 -26 12 -46q14 -21 41 -21q9 0 40 6q43 31 54 42q27 29 23 65zM1485 1275q-8 -48 -67 -78q-32 0 -36 16q0 29 25 53q24 20 52 29q26 0 26 -20z" />
<glyph unicode="&#xc6;" horiz-adv-x="1238" d="M1520 878l-32 36q-32 6 -65 6q-147 0 -316 -137q-51 -21 -69 -86l-28 -102q-24 -48 -90 -43q-7 1 -26.5 -1t-22.5 -2q-26 0 -30 19q44 64 131 145q105 100 143 141q6 4 6 12q0 16 -10 20q-183 -47 -377 -184q-79 -56 -338 -277q-120 231 -286 227q-152 -38 -152 -204 q0 -142 121 -293l-8 -19q-184 -131 -332 -131q-30 0 -53 4q-88 26 -107 75q6 8 31 12t31 15q6 12 6 25q0 34 -29 51q-11 8 -22 8q-30 0 -53 -36q-7 -17 -7 -37q0 -51 50 -98q62 -43 150 -43q116 0 235 67q25 5 73 43q46 36 68 36t42 -19q14 -17 76 -30q52 -10 52 -36 q0 -12 -9 -29q0 -17 21 -21q4 -1 35 -3q41 42 137 71q104 32 141 60q20 -46 54 -77q27 -27 63 -38q24 -7 72 -7q122 0 232 56q108 55 178 157q10 17 10 41q0 39 -26 74q-45 30 -97 30q-96 0 -248 -121l-74 -70q-41 -40 -49 -81h8q176 212 361 250q14 2 15 2q38 0 76 -38 q2 -14 2 -20q0 -76 -105 -166q-160 -95 -265 -95q-52 0 -96 19q-46 40 -46 90q0 16 6 33q45 128 142 219q106 102 231 111q30 -17 45 -24q26 -12 47 -12q17 0 35 8q3 11 3 17q0 26 -51 37q-50 12 -55 33q35 23 125 56q86 31 125 56l87 52q117 72 108 166zM1488 870 q-3 -56 -59 -104l-100 -71l-120 -58q-68 -33 -126 -41q13 70 82 145q50 55 119 99q83 53 141 53q37 0 63 -23zM1019 830q-337 -294 -619 -631q11 148 8 191q209 191 291 256q169 132 320 184zM1007 529q-108 -45 -174 -64q-82 -33 -141 -98q-65 -71 -77 -152 q-13 -89 -171 -135q-7 6 -7 13t13 23q14 17 14 24l162 196q94 113 175 185q162 8 206 8zM364 398l-246 -215q-32 10 -64 51l-47 72q-19 76 -19 126q0 66 31 112q51 60 131 60q19 0 56 -8q41 -10 76 -48q13 -14 55 -75zM368 354q9 -32 9 -63q0 -99 -76 -203q-89 0 -159 63 q129 129 226 203z" />
<glyph unicode="&#xc7;" horiz-adv-x="662" d="M936 1030h72q41 -1 58 -32q-35 -120 -200 -212l-130 -71q-147 -65 -427 -111q167 171 290 261q169 124 337 165zM907 772q90 49 127 86q61 61 64 135q-4 26 -25.5 46t-48.5 23q-175 -1 -360 -88q-110 -53 -319 -190q-39 -27 -74 -59q-85 -80 -103 -94q-67 -50 -126 -58 q-168 11 -228 112q-12 29 -12 58q0 60 61 152q186 205 513 205q31 0 48 -1l6 13q-78 8 -139 8q-337 0 -493 -219q-37 -62 -37 -129q0 -41 17 -78q37 -76 121 -113q26 -12 161 -48l-90 -126q-48 -73 -70 -137q-8 -27 -8 -52q0 -73 61 -155q24 -14 57 -26l-3 1q-4 -24 -51 -71 q-32 -33 -28 -55q8 2 31 14q20 11 32 11q11 0 24 -8q-6 -23 -31 -48q-10 -11 -45 -39q-12 -13 -67 -34q-41 -17 -38 -42q25 5 50 11t36.5 8.5t14.5 2.5q128 30 156 124q0 21 -20 46l-38 36l61 26q11 -1 32 -1q174 0 395 161q91 67 91 148q0 64 -42 90q-19 12 -64 23 q-325 -22 -490 -299l12 -6q117 129 209 189q128 85 264 85q20 0 30 -1h-1q53 -17 53 -76q0 -13 -5 -30v2q-77 -127 -210 -194q-127 -64 -279 -64q-33 0 -61 4q-34 9 -58 39.5t-24 66.5q45 182 292 390q357 68 581 175q69 37 88 50z" />
<glyph unicode="&#xc8;" horiz-adv-x="974" d="M1335 878l-32 36q-31 6 -65 6q-147 0 -316 -137q-51 -21 -69 -86l-28 -102q-24 -48 -90 -43q-7 1 -26.5 -1t-22.5 -2q-107 0 -268 1q-246 -12 -341 -81q-93 -69 -96 -121q-3 -113 291 -302q111 44 150 74q20 -46 54 -77q27 -27 63 -38q24 -7 72 -7q122 0 232 56 q108 55 178 157q10 17 10 41q0 39 -26 74q-45 30 -97 30q-96 0 -248 -121l-74 -70q-41 -40 -49 -81h8q176 212 361 250q14 2 15 2q38 0 76 -38q2 -14 2 -20q0 -76 -105 -166q-160 -95 -265 -95q-52 0 -96 19q-46 40 -46 90q0 16 6 33q45 128 142 219q107 102 231 111 q30 -17 45 -24q25 -12 47 -12q17 0 35 8q3 11 3 17q0 26 -51 37q-50 12 -55 33q35 23 125 56q86 31 125 56l87 52q117 72 108 166zM1303 870q-3 -56 -59 -104l-100 -71l-120 -58q-68 -33 -126 -41q13 70 82 145q50 55 119 99q83 53 141 53q37 0 63 -23zM822 529 q-108 -45 -174 -64q-82 -33 -141 -98q-65 -71 -77 -152q-13 -88 -134 -143q-16 16 -92 76t-112 127q-34 64 -34 81q-2 47 63 89.5t197 80.5q416 22 504 3zM1045 1140q0 -17 10 -36.5t20 -19.5q2 0 6.5 2t8.5 2l43 -32q52 -35 89 -50l17 5q-31 24 -81 76l-20 47q-5 5 -20 31 q-9 16 -28 16q-5 0 -43 -23q-2 -4 -2 -18zM1061 1144h-6v14h6v-14z" />
<glyph unicode="&#xc9;" horiz-adv-x="974" d="M1335 878l-32 36q-31 6 -65 6q-147 0 -316 -137q-51 -21 -69 -86l-28 -102q-24 -48 -90 -43q-7 1 -26.5 -1t-22.5 -2q-107 0 -268 1q-246 -12 -341 -81q-93 -69 -96 -121q-3 -113 291 -302q111 44 150 74q20 -46 54 -77q27 -27 63 -38q24 -7 72 -7q122 0 232 56 q108 55 178 157q10 17 10 41q0 39 -26 74q-45 30 -97 30q-96 0 -248 -121l-74 -70q-41 -40 -49 -81h8q176 212 361 250q14 2 15 2q38 0 76 -38q2 -14 2 -20q0 -76 -105 -166q-160 -95 -265 -95q-52 0 -96 19q-46 40 -46 90q0 16 6 33q45 128 142 219q107 102 231 111 q30 -17 45 -24q25 -12 47 -12q17 0 35 8q3 11 3 17q0 26 -51 37q-50 12 -55 33q35 23 125 56q86 31 125 56l87 52q117 72 108 166zM1303 870q-3 -56 -59 -104l-100 -71l-120 -58q-68 -33 -126 -41q13 70 82 145q50 55 119 99q83 53 141 53q37 0 63 -23zM822 529 q-108 -45 -174 -64q-82 -33 -141 -98q-65 -71 -77 -152q-13 -88 -134 -143q-16 16 -92 76t-112 127q-34 64 -34 81q-2 47 63 89.5t197 80.5q416 22 504 3zM1303 1132q0 14 -2 18q-38 23 -43 23q-19 0 -28 -16q-15 -26 -20 -31l-20 -47q-50 -52 -81 -76l17 -5q37 15 89 50 l43 32q4 0 8.5 -2t6.5 -2q10 0 20 19.5t10 36.5zM1293 1136h-6v14h6v-14z" />
<glyph unicode="&#xca;" horiz-adv-x="974" d="M1335 878l-32 36q-31 6 -65 6q-147 0 -316 -137q-51 -21 -69 -86l-28 -102q-24 -48 -90 -43q-7 1 -26.5 -1t-22.5 -2q-107 0 -268 1q-246 -12 -341 -81q-93 -69 -96 -121q-3 -113 291 -302q111 44 150 74q20 -46 54 -77q27 -27 63 -38q24 -7 72 -7q122 0 232 56 q108 55 178 157q10 17 10 41q0 39 -26 74q-45 30 -97 30q-96 0 -248 -121l-74 -70q-41 -40 -49 -81h8q176 212 361 250q14 2 15 2q38 0 76 -38q2 -14 2 -20q0 -76 -105 -166q-160 -95 -265 -95q-52 0 -96 19q-46 40 -46 90q0 16 6 33q45 128 142 219q107 102 231 111 q30 -17 45 -24q25 -12 47 -12q17 0 35 8q3 11 3 17q0 26 -51 37q-50 12 -55 33q35 23 125 56q86 31 125 56l87 52q117 72 108 166zM1303 870q-3 -56 -59 -104l-100 -71l-120 -58q-68 -33 -126 -41q13 70 82 145q50 55 119 99q83 53 141 53q37 0 63 -23zM822 529 q-108 -45 -174 -64q-82 -33 -141 -98q-65 -71 -77 -152q-13 -88 -134 -143q-16 16 -92 76t-112 127q-34 64 -34 81q-2 47 63 89.5t197 80.5q416 22 504 3zM1332 1000q10 0 10 9q0 1 -15 15t-20 20l-39 59l-19 32q-9 14 -14 17q-11 6 -18 6h-6l-75 -63l-21 -12 q-14 -9 -14 -17q0 -1 3 -4h17q1 0 6.5 3t18 8.5l26.5 11.5l12 7q22 1 34 -3l36 -28q5 -6 26 -23l24 -22q17 -16 28 -16z" />
<glyph unicode="&#xcb;" horiz-adv-x="974" d="M1335 878l-32 36q-31 6 -65 6q-147 0 -316 -137q-51 -21 -69 -86l-28 -102q-24 -48 -90 -43q-7 1 -26.5 -1t-22.5 -2q-107 0 -268 1q-246 -12 -341 -81q-93 -69 -96 -121q-3 -113 291 -302q111 44 150 74q20 -46 54 -77q27 -27 63 -38q24 -7 72 -7q122 0 232 56 q108 55 178 157q10 17 10 41q0 39 -26 74q-45 30 -97 30q-96 0 -248 -121l-74 -70q-41 -40 -49 -81h8q176 212 361 250q14 2 15 2q38 0 76 -38q2 -14 2 -20q0 -76 -105 -166q-160 -95 -265 -95q-52 0 -96 19q-46 40 -46 90q0 16 6 33q45 128 142 219q107 102 231 111 q30 -17 45 -24q25 -12 47 -12q17 0 35 8q3 11 3 17q0 26 -51 37q-50 12 -55 33q35 23 125 56q86 31 125 56l87 52q117 72 108 166zM1303 870q-3 -56 -59 -104l-100 -71l-120 -58q-68 -33 -126 -41q13 70 82 145q50 55 119 99q83 53 141 53q37 0 63 -23zM822 529 q-108 -45 -174 -64q-82 -33 -141 -98q-65 -71 -77 -152q-13 -88 -134 -143q-16 16 -92 76t-112 127q-34 64 -34 81q-2 47 63 89.5t197 80.5q416 22 504 3zM1324 1020q11 3 16 8q22 22 19 34q-4 13 -16.5 23t-27.5 10q-3 0 -9 -2q-8 -2 -19 -19q-10 -16 -7 -28 q2 -10 17 -19.5t27 -6.5zM1092 1021q12 3 17 8q21 22 18 34t-16 22t-27 10q-6 0 -9 -1q-8 -2 -19 -19q-10 -16 -7 -28q3 -10 17 -19.5t26 -6.5z" />
<glyph unicode="&#xcc;" horiz-adv-x="524" d="M-183 -46q74 11 150 16q74 22 105 29l127 52l114 76l32 28.5l31 27t20 18.5q4 2 12 12l9 10q83 118 94 128q3 11 26 52q18 27 29 35q25 23 50 35q21 11 96 45q5 5 27 14q41 22 79 57q45 44 80 103l24 37q12 19 21 39q-3 3 -10 3l-48 -69l-55 -68q-74 -70 -171 -117 q-14 -10 -38 -11q-3 3 -3 5l-1 2l14 31q9 19 12 29q32 53 45 70l22 32q42 61 46 65l12 14l9.5 11t4.5 5l56 58q44 46 53 59q75 45 125 80l66 29q35 16 67 27l62 14q17 11 31 16q-17 7 -43 11q-77 -8 -222 -15q-122 -5 -283 -68q-98 -33 -194 -98q-63 -47 -95 -112 q-30 -76 -43 -118q-2 -21 -1 -31q0 -20 1 -28l38 -69q30 -21 66 -42q8 -11 8 -16q-4 -13 -9 -25l-91 -141q-39 -51 -46 -59l-19 -21l-167 -153q-34 -17 -47 -30q-51 -26 -118 -51q-42 -7 -157 -22q-44 6 -105 9l-21 9l-22 9q-20 16 -29 26q3 6 3 20q33 26 60 42q5 25 5 42 q-10 15 -16 27q-18 10 -28 13q-47 -15 -63 -24l-7.5 -21t-6.5 -18l2 -33q1 -10 1 -31q11 -19 23 -19q4 0 6 1q21 -19 44 -36l70 -21q48 -2 81 -6zM488 513l-50 25l-21.5 32.5l-16.5 25.5q-1 8 -1 26q-1 9 1 29q16 44 32 76q37 65 93 106q65 59 147 99q142 62 271 95 q75 9 163 15q3 -4 3 -9q0 -3 -2 -9q-125 -56 -183 -89l-172 -125q-84 -84 -100 -103l-146 -193q-13 0 -18 -1zM925 1269q0 -17 10 -36.5t20 -19.5q2 0 6.5 2t8.5 2l43 -32q52 -35 89 -50l17 5q-31 24 -81 76l-20 47q-5 5 -20 31q-9 16 -28 16q-5 0 -43 -23q-2 -4 -2 -18z M941 1273h-6v14h6v-14z" />
<glyph unicode="&#xcd;" horiz-adv-x="524" d="M-183 -46q74 11 150 16q74 22 105 29l127 52l114 76l32 28.5l31 27t20 18.5q4 2 12 12l9 10q83 118 94 128q3 11 26 52q18 27 29 35q25 23 50 35q21 11 96 45q5 5 27 14q41 22 79 57q45 44 80 103l24 37q12 19 21 39q-3 3 -10 3l-48 -69l-55 -68q-74 -70 -171 -117 q-14 -10 -38 -11q-3 3 -3 5l-1 2l14 31q9 19 12 29q32 53 45 70l22 32q42 61 46 65l12 14l9.5 11t4.5 5l56 58q44 46 53 59q75 45 125 80l66 29q35 16 67 27l62 14q17 11 31 16q-17 7 -43 11q-77 -8 -222 -15q-122 -5 -283 -68q-98 -33 -194 -98q-63 -47 -95 -112 q-30 -76 -43 -118q-2 -21 -1 -31q0 -20 1 -28l38 -69q30 -21 66 -42q8 -11 8 -16q-4 -13 -9 -25l-91 -141q-39 -51 -46 -59l-19 -21l-167 -153q-34 -17 -47 -30q-51 -26 -118 -51q-42 -7 -157 -22q-44 6 -105 9l-21 9l-22 9q-20 16 -29 26q3 6 3 20q33 26 60 42q5 25 5 42 q-10 15 -16 27q-18 10 -28 13q-47 -15 -63 -24l-7.5 -21t-6.5 -18l2 -33q1 -10 1 -31q11 -19 23 -19q4 0 6 1q21 -19 44 -36l70 -21q48 -2 81 -6zM488 513l-50 25l-21.5 32.5l-16.5 25.5q-1 8 -1 26q-1 9 1 29q16 44 32 76q37 65 93 106q65 59 147 99q142 62 271 95 q75 9 163 15q3 -4 3 -9q0 -3 -2 -9q-125 -56 -183 -89l-172 -125q-84 -84 -100 -103l-146 -193q-13 0 -18 -1zM1197 1271q0 14 -2 18q-38 23 -43 23q-19 0 -28 -16q-15 -26 -20 -31l-20 -47q-50 -52 -81 -76l17 -5q37 15 89 50l43 32q4 0 8.5 -2t6.5 -2q10 0 20 19.5 t10 36.5zM1187 1275h-6v14h6v-14z" />
<glyph unicode="&#xce;" horiz-adv-x="524" d="M-183 -46q74 11 150 16q74 22 105 29l127 52l114 76l32 28.5l31 27t20 18.5q4 2 12 12l9 10q83 118 94 128q3 11 26 52q18 27 29 35q25 23 50 35q21 11 96 45q5 5 27 14q41 22 79 57q45 44 80 103l24 37q12 19 21 39q-3 3 -10 3l-48 -69l-55 -68q-74 -70 -171 -117 q-14 -10 -38 -11q-3 3 -3 5l-1 2l14 31q9 19 12 29q32 53 45 70l22 32q42 61 46 65l12 14l9.5 11t4.5 5l56 58q44 46 53 59q75 45 125 80l66 29q35 16 67 27l62 14q17 11 31 16q-17 7 -43 11q-77 -8 -222 -15q-122 -5 -283 -68q-98 -33 -194 -98q-63 -47 -95 -112 q-30 -76 -43 -118q-2 -21 -1 -31q0 -20 1 -28l38 -69q30 -21 66 -42q8 -11 8 -16q-4 -13 -9 -25l-91 -141q-39 -51 -46 -59l-19 -21l-167 -153q-34 -17 -47 -30q-51 -26 -118 -51q-42 -7 -157 -22q-44 6 -105 9l-21 9l-22 9q-20 16 -29 26q3 6 3 20q33 26 60 42q5 25 5 42 q-10 15 -16 27q-18 10 -28 13q-47 -15 -63 -24l-7.5 -21t-6.5 -18l2 -33q1 -10 1 -31q11 -19 23 -19q4 0 6 1q21 -19 44 -36l70 -21q48 -2 81 -6zM488 513l-50 25l-21.5 32.5l-16.5 25.5q-1 8 -1 26q-1 9 1 29q16 44 32 76q37 65 93 106q65 59 147 99q142 62 271 95 q75 9 163 15q3 -4 3 -9q0 -3 -2 -9q-125 -56 -183 -89l-172 -125q-84 -84 -100 -103l-146 -193q-13 0 -18 -1zM1176 1117q10 0 10 9q0 2 -15 15q-15 14 -20 20l-39 59l-19 32q-9 14 -14 17q-11 6 -18 6h-6l-75 -63l-21 -12q-14 -9 -14 -17q0 -1 3 -4h17q1 0 6.5 3t18 8.5 l26.5 11.5l12 7q22 1 34 -3l36 -28q5 -6 26 -23l24 -22q17 -16 28 -16z" />
<glyph unicode="&#xcf;" horiz-adv-x="524" d="M-183 -46q74 11 150 16q74 22 105 29l127 52l114 76l32 28.5l31 27t20 18.5q4 2 12 12l9 10q83 118 94 128q3 11 26 52q18 27 29 35q25 23 50 35q21 11 96 45q5 5 27 14q41 22 79 57q45 44 80 103l24 37q12 19 21 39q-3 3 -10 3l-48 -69l-55 -68q-74 -70 -171 -117 q-14 -10 -38 -11q-3 3 -3 5l-1 2l14 31q9 19 12 29q32 53 45 70l22 32q42 61 46 65l12 14l9.5 11t4.5 5l56 58q44 46 53 59q75 45 125 80l66 29q35 16 67 27l62 14q17 11 31 16q-17 7 -43 11q-77 -8 -222 -15q-122 -5 -283 -68q-98 -33 -194 -98q-63 -47 -95 -112 q-30 -76 -43 -118q-2 -21 -1 -31q0 -20 1 -28l38 -69q30 -21 66 -42q8 -11 8 -16q-4 -13 -9 -25l-91 -141q-39 -51 -46 -59l-19 -21l-167 -153q-34 -17 -47 -30q-51 -26 -118 -51q-42 -7 -157 -22q-44 6 -105 9l-21 9l-22 9q-20 16 -29 26q3 6 3 20q33 26 60 42q5 25 5 42 q-10 15 -16 27q-18 10 -28 13q-47 -15 -63 -24l-7.5 -21t-6.5 -18l2 -33q1 -10 1 -31q11 -19 23 -19q4 0 6 1q21 -19 44 -36l70 -21q48 -2 81 -6zM488 513l-50 25l-21.5 32.5l-16.5 25.5q-1 8 -1 26q-1 9 1 29q16 44 32 76q37 65 93 106q65 59 147 99q142 62 271 95 q75 9 163 15q3 -4 3 -9q0 -3 -2 -9q-125 -56 -183 -89l-172 -125q-84 -84 -100 -103l-146 -193q-13 0 -18 -1zM1213 1127q11 3 16 8q22 22 19 34q-4 13 -16.5 23t-27.5 10q-3 0 -9 -2q-8 -2 -19 -19q-10 -16 -7 -28q2 -10 17 -19.5t27 -6.5zM981 1128q12 3 17 8q21 22 18 34 t-16 22t-27 10q-6 0 -9 -1q-8 -2 -19 -19q-10 -16 -7 -28q2 -10 16.5 -20t26.5 -6z" />
<glyph unicode="&#xd0;" horiz-adv-x="1154" d="M177 -15q-4 -4 -34 -12q-27 -7 -34 -7h-84q-59 0 -107 7q-97 13 -97 44q0 40 104 40q95 0 228 -54l5 -13q2 0 9.5 3t9.5 3v-11zM501 25q-16 -8 -19 -8q-13 0 -102 -14q51 24 121 22zM77 55l-20 4v5l20 -3v-6zM513 25h-8v5h8v-5zM1165 230l3 32q-61 0 -84 -1q39 53 71 108 q8 11 15 11q2 0 8.5 8t16.5 21.5t16 20.5q0 15 11 42q12 27 11 89q1 17 6 51q3 28 3 31q0 4 -6 40q-6 37 -6 41q0 5 7 23q8 22 14 26q103 65 133 80q6 5 6 14l-157 -88q-8 0 -14 9l-46 74q-32 47 -64 73q-105 87 -211 110q-101 22 -177 22q-104 0 -294 -32q-32 -10 -46 -16 q-149 -45 -259 -128l-6 6l-9 -18q-37 -40 -64 -65q-6 -10 -18.5 -28t-16.5 -25q-27 -31 -48 -93t-21 -103q0 -35 20 -90l2 -16q1 -11 13 -18q0 3 3 6q12 -21 39 -46q27 -24 48 -34q3 -1 3 -8q3 3 6 3q6 0 72 -25l73 -25q60 -17 90 -14q29 3 50 6q52 4 88 4q3 1 9 2.5l8 2 t6.5 3t8 6t7.5 9.5q11 16 10 22q-2 0 -8 3t-8 3q-3 0 -12 -5.5t-10 -5.5q-43 -13 -89 -3q-49 11 -118 11q-3 0 -57 12t-58 12q-35 0 -64 13q-7 6 -12 13q-29 3 -39 8q-22 23 -30 37q10 11 5 19q-11 24 -11 54q0 31 1 33q25 97 56 126q27 25 47 48q17 21 30 22l20 26 q96 84 124 104l48 38q77 43 145 72q23 7 30 8q60 26 115 38q59 13 125 13q106 0 153 -10q72 -15 132 -49q44 -27 73 -48q22 -13 70 -72q53 -68 53 -96q0 -8 -2 -10l-1 -7l-131 -105q-81 -67 -112 -63q-54 -35 -63 -46q-23 -19 -26 -21q-23 -38 -29 -49q-10 -9 -16 -12 q-30 -66 -55 -104q-19 -30 -66 -86q-5 -5 -13 -15h-193q0 -16 -5 -27q-3 -8 0 -11q20 2 30 4q38 -5 63 -3l58 2h16l-40 -42q-5 -4 -42 -47q-17 -21 -37 -32q-10 -2 -13 -2l-28 -19.5l-26 -18.5q-36 -12 -113 -30q-65 -16 -74 -16q-2 0 -10.5 3t-10.5 3t-101 26 q-98 26 -120 26q-6 0 -41 7l-20.5 4t-14.5 3t-5 1q-76 0 -99 -14q4 0 17.5 2.5t15.5 2.5q63 0 69 -1q27 -1 86 -16v-2l-113 13h-9q-35 0 -77 -14q-50 -16 -52 -45q1 0 4 -13q10 -13 26 -20l22 -9q11 -7 12 -7q70 -10 88 -10q5 0 36 -3t34 -3l230 18q3 0 59 -9q78 -13 89 -14 q3 -1 50 -1q139 0 271 43q8 3 22 7l44 16q2 0 5 -1.5t6 -1.5q2 0 23 21l58 32q27 20 32 24q70 52 142 140zM1212 711q0 -35 -24 -81q0 -2 -68 -140q1 -37 1 -105q0 -23 -13 -37q2 -4 2 -6q0 -6 -10 -19t-7 -18l7 5q-12 -14 -15 -17q-20 -25 -28 -32q-143 0 -202 -1 q18 29 31 65l35 94q22 46 70 107q52 67 98 107q32 26 54 61q33 27 52 37h14q3 -7 3 -20zM914 224l129 -1q-65 -80 -190 -166l-104 -51q-151 -46 -234 -46q-73 0 -82 1q-50 10 -62 13q7 -1 22 0q11 1 19 1q12 0 85 18q70 18 72 19q96 31 188 123q46 46 75 89h82zM595 482 q0 2 -5.5 9t-5.5 9q-4 27 -40 58q-35 31 -70 31q-20 0 -81 -46q-1 -32 1 -48q6 -27 29 -41q33 -13 49 -14q44 -20 45 -33q-19 -19 -19 -30q0 -30 31 -30q20 0 44 55q22 50 22 80zM1091 286q-3 -5 -9 -14t-7 -11h-10z" />
<glyph unicode="&#xd1;" horiz-adv-x="562" d="M359 -21h29q18 13 44 25l65 62q-5 3 -10 3q-20 -20 -30 -29l-31 -26q-5 -4 -11 -4l75 121l48 77l89 149q-49 -61 -52 -72q-4 -4 -19 -25.5t-21 -26.5q-2 -8 -2 -13l-27.5 -38t-24.5 -36q-3 8 -3 18q12 32 34 96q25 70 33 94q16 53 20 75q11 37 18 72q17 135 18 152 l27 107q18 72 26 108l56 120q-4 2 -5 3h-1q-2 -6 -12 -11q-13 -17 -20 -41l-37 -44l-47 -78q-60 -99 -127 -185q-6 -19 -13 -31q-9 -4 -15 -10q-5 -9 -61 -92q-52 -76 -52 -78q-9 -4 -15 -10v-7q3 -4 9 -3l50 67q67 93 84 127l43 56q39 53 43 58q25 41 56 86q4 4 9 4 q0 -9 -9 -36l-64 -180q-8 -21 -15 -56q-14 -62 -35 -208l-22 -153q-1 -1 -9 -11q-4 2 -6 2t-6 -2q-2 -6 -2 -20l-37 -45l6 -14q-2 -2 -2 -10q-27 -25 -32 -31q-14 -26 -20 -40q5 -12 13 -16zM-374 36q14 -14 25 -23t16.5 -12.5t7.5 -1.5q16 -3 22 -10q27 -3 62 -8q55 9 69 9 q40 17 71 26q94 56 116 71q28 32 31 35q28 10 30 11q128 134 138 139q6 14 9 17.5t9 3.5q67 90 74 98q-3 3 -10 3l-81 -94l-79 -94q-32 -24 -50 -46l-60 -48l-61 -47q-34 -20 -90 -47l-60 -12q-36 -7 -59 -11q-20 5 -35 14t-27 20.5t-14 12.5q-3 7 -6.5 16t-3.5 10 q11 20 14 21l5 -5l2 -1q14 7 19 18q4 41 1 49q1 12 -3 31q-12 14 -16 20q-20 2 -38 2q-42 -29 -55 -66q-18 -42 15 -91q9 -5 12 -10zM880 710q1 -1 2 -1q3 0 33 40l17 10q46 51 86 91q76 62 113 95l85 47q22 9 80 26q46 8 81 9l57 -7l52 -33q6 -16 3 -23q-12 -6 -24 -8 q-15 -20 -22 -27q4 -17 4 -37l41 -46q5 5 37 35q1 12 0 21l-3 56l-28 47l-67 31q-17 1 -48 1q-15 -1 -44 -1l-136 -38q-62 -41 -94 -60q-103 -93 -185 -175q-24 -37 -40 -53zM708 502q10 0 12 1q18 14 23 20l30 12q16 26 34 48q-5 -4 -15 -4q-5 3 -9 10l-39 -45zM823 645 q3 -5 9 -3q25 30 31 41q-5 -4 -15 -4q-14 -23 -25 -34zM652 402q-13 -25 -19 -33q3 3 9.5 9t9.5 8q14 21 20 34l-4 2l-2 1q-1 -10 -14 -21zM-310 89q-2 2 -2 3q2 -2 2 -3zM602 801v1v-1zM1189 1136l-5 3q-43 -25 -66 -25q-2 0 -17.5 6.5t-47.5 17t-69 17.5h-46.5t-38.5 -5.5 t-32 -17.5q-47 -40 -52 -45q14 0 27 13q13 4 49 4q33 0 75 -16t46 -16h38q43 0 73 15q18 9 66 49z" />
<glyph unicode="&#xd2;" horiz-adv-x="580" d="M55 53q10 215 55 334q23 44 28 52l69 110q3 7 3 14q29 47 57 83l142 172l101 101l94 71q155 70 164 73q27 3 81 3q49 -10 76 -18q23 -18 34 -25q15 -19 21 -29q18 -38 20 -43v-54q-21 -59 -21 -61q-10 -11 -17 -18q-8 -5 -54 -29q-32 -7 -51 -7q-1 -3 -1 -10q0 -5 1 -7 q15 -4 45 -4q18 6 52 21q30 26 49 51q12 52 16 64q14 70 -19 119q-26 21 -49 43q-40 18 -59 25q-27 4 -89 4q-89 -15 -161 -44q-87 -42 -132 -71q-13 -10 -52 -32q-31 -18 -49 -33l-109 -108q-89 -91 -130 -151q-13 -23 -16.5 -27.5t-6.5 -4.5h-1l-25 -38 q-110 -154 -131 -242q-21 -90 -17 -145q-6 -39 16 -105q23 -68 94 -98q9 -4 33 -4q23 4 80 4q54 25 103 53l44 37q15 12 45 34q10 16 18 22l52 47q100 94 92 97q69 64 94 122q31 43 62 94l72 144l20 52q10 27 18 51q9 49 14 109q-3 17 -3 53l-24 65q-27 23 -30 25 q-18 3 -32 3q-4 0 -14 -1t-29 -2.5t-38 -3.5q-35 -22 -64 -43q-45 -41 -75 -71l-55 -90q-26 -62 -37 -98q-7 -46 -9 -71q3 -13 3 -36q15 -41 16 -43q17 -16 30 -25q16 -4 52 -4q69 19 121 76q8 23 24 39q25 48 40 72q31 71 35 82q9 30 19 76l4 37q2 24 2 35q-4 2 -6 2 q-3 0 -5 -2q-24 -106 -33 -151q-33 -66 -54 -115q-9 -14 -19 -25q-70 -71 -75 -79q-37 -19 -53 -26q-13 -3 -39 -3q-13 4 -24.5 19.5t-14.5 30.5l-4 22q3 18 3 47l24 64l70 123l73 86l79 54q16 4 56 4q17 -12 37 -19q27 -55 28 -58q3 -16 3 -46q-6 -60 -9 -93l-46 -126 q-10 -18 -18 -38q-67 -117 -95 -159q-43 -64 -113 -140l-70 -78q-1 -3 -42 -45q-46 -42 -47 -43q-3 4 -9 4l4 -6l2 -2l-53 -43q-19 -16 -52 -40q-30 -14 -43 -19l-40 -16q-42 -8 -57 -8q-22 8 -32 8zM621 1288q0 -17 10 -36.5t20 -19.5q2 0 6.5 2t8.5 2l43 -32 q52 -35 89 -50l17 5q-31 24 -81 76l-20 47q-5 5 -20 31q-9 16 -28 16q-5 0 -43 -23q-2 -4 -2 -18zM637 1292h-6v14h6v-14z" />
<glyph unicode="&#xd3;" horiz-adv-x="580" d="M55 53q10 215 55 334q23 44 28 52l69 110q3 7 3 14q29 47 57 83l142 172l101 101l94 71q155 70 164 73q27 3 81 3q49 -10 76 -18q23 -18 34 -25q15 -19 21 -29q18 -38 20 -43v-54q-21 -59 -21 -61q-10 -11 -17 -18q-8 -5 -54 -29q-32 -7 -51 -7q-1 -3 -1 -10q0 -5 1 -7 q15 -4 45 -4q18 6 52 21q30 26 49 51q12 52 16 64q14 70 -19 119q-26 21 -49 43q-40 18 -59 25q-27 4 -89 4q-89 -15 -161 -44q-87 -42 -132 -71q-13 -10 -52 -32q-31 -18 -49 -33l-109 -108q-89 -91 -130 -151q-13 -23 -16.5 -27.5t-6.5 -4.5h-1l-25 -38 q-110 -154 -131 -242q-21 -90 -17 -145q-6 -39 16 -105q23 -68 94 -98q9 -4 33 -4q23 4 80 4q54 25 103 53l44 37q15 12 45 34q10 16 18 22l52 47q100 94 92 97q69 64 94 122q31 43 62 94l72 144l20 52q10 27 18 51q9 49 14 109q-3 17 -3 53l-24 65q-27 23 -30 25 q-18 3 -32 3q-4 0 -14 -1t-29 -2.5t-38 -3.5q-35 -22 -64 -43q-45 -41 -75 -71l-55 -90q-26 -62 -37 -98q-7 -46 -9 -71q3 -13 3 -36q15 -41 16 -43q17 -16 30 -25q16 -4 52 -4q69 19 121 76q8 23 24 39q25 48 40 72q31 71 35 82q9 30 19 76l4 37q2 24 2 35q-4 2 -6 2 q-3 0 -5 -2q-24 -106 -33 -151q-33 -66 -54 -115q-9 -14 -19 -25q-70 -71 -75 -79q-37 -19 -53 -26q-13 -3 -39 -3q-13 4 -24.5 19.5t-14.5 30.5l-4 22q3 18 3 47l24 64l70 123l73 86l79 54q16 4 56 4q17 -12 37 -19q27 -55 28 -58q3 -16 3 -46q-6 -60 -9 -93l-46 -126 q-10 -18 -18 -38q-67 -117 -95 -159q-43 -64 -113 -140l-70 -78q-1 -3 -42 -45q-46 -42 -47 -43q-3 4 -9 4l4 -6l2 -2l-53 -43q-19 -16 -52 -40q-30 -14 -43 -19l-40 -16q-42 -8 -57 -8q-22 8 -32 8zM891 1278q0 14 -2 18q-38 23 -43 23q-19 0 -28 -16q-15 -26 -20 -31 l-20 -47q-50 -52 -81 -76l17 -5q37 15 89 50l43 32q4 0 8.5 -2t6.5 -2q10 0 20 19.5t10 36.5zM881 1282h-6v14h6v-14z" />
<glyph unicode="&#xd4;" horiz-adv-x="580" d="M55 53q10 215 55 334q23 44 28 52l69 110q3 7 3 14q29 47 57 83l142 172l101 101l94 71q155 70 164 73q27 3 81 3q49 -10 76 -18q23 -18 34 -25q15 -19 21 -29q18 -38 20 -43v-54q-21 -59 -21 -61q-10 -11 -17 -18q-8 -5 -54 -29q-32 -7 -51 -7q-1 -3 -1 -10q0 -5 1 -7 q15 -4 45 -4q18 6 52 21q30 26 49 51q12 52 16 64q14 70 -19 119q-26 21 -49 43q-40 18 -59 25q-27 4 -89 4q-89 -15 -161 -44q-87 -42 -132 -71q-13 -10 -52 -32q-31 -18 -49 -33l-109 -108q-89 -91 -130 -151q-13 -23 -16.5 -27.5t-6.5 -4.5h-1l-25 -38 q-110 -154 -131 -242q-21 -90 -17 -145q-6 -39 16 -105q23 -68 94 -98q9 -4 33 -4q23 4 80 4q54 25 103 53l44 37q15 12 45 34q10 16 18 22l52 47q100 94 92 97q69 64 94 122q31 43 62 94l72 144l20 52q10 27 18 51q9 49 14 109q-3 17 -3 53l-24 65q-27 23 -30 25 q-18 3 -32 3q-4 0 -14 -1t-29 -2.5t-38 -3.5q-35 -22 -64 -43q-45 -41 -75 -71l-55 -90q-26 -62 -37 -98q-7 -46 -9 -71q3 -13 3 -36q15 -41 16 -43q17 -16 30 -25q16 -4 52 -4q69 19 121 76q8 23 24 39q25 48 40 72q31 71 35 82q9 30 19 76l4 37q2 24 2 35q-4 2 -6 2 q-3 0 -5 -2q-24 -106 -33 -151q-33 -66 -54 -115q-9 -14 -19 -25q-70 -71 -75 -79q-37 -19 -53 -26q-13 -3 -39 -3q-13 4 -24.5 19.5t-14.5 30.5l-4 22q3 18 3 47l24 64l70 123l73 86l79 54q16 4 56 4q17 -12 37 -19q27 -55 28 -58q3 -16 3 -46q-6 -60 -9 -93l-46 -126 q-10 -18 -18 -38q-67 -117 -95 -159q-43 -64 -113 -140l-70 -78q-1 -3 -42 -45q-46 -42 -47 -43q-3 4 -9 4l4 -6l2 -2l-53 -43q-19 -16 -52 -40q-30 -14 -43 -19l-40 -16q-42 -8 -57 -8q-22 8 -32 8zM906 1158q10 0 10 9q0 1 -15 15t-20 20l-39 59l-19 32q-9 14 -14 17 q-11 6 -18 6h-6l-75 -63l-21 -12q-14 -9 -14 -17q0 -1 3 -4h17q1 0 6.5 3t18 8.5l26.5 11.5l12 7q22 1 34 -3l36 -28q5 -6 26 -23l24 -22q17 -16 28 -16z" />
<glyph unicode="&#xd5;" horiz-adv-x="580" d="M55 53q10 215 55 334q23 44 28 52l69 110q3 7 3 14q29 47 57 83l142 172l101 101l94 71q155 70 164 73q27 3 81 3q49 -10 76 -18q23 -18 34 -25q15 -19 21 -29q18 -38 20 -43v-54q-21 -59 -21 -61q-10 -11 -17 -18q-8 -5 -54 -29q-32 -7 -51 -7q-1 -3 -1 -10q0 -5 1 -7 q15 -4 45 -4q18 6 52 21q30 26 49 51q12 52 16 64q14 70 -19 119q-26 21 -49 43q-40 18 -59 25q-27 4 -89 4q-89 -15 -161 -44q-87 -42 -132 -71q-13 -10 -52 -32q-31 -18 -49 -33l-109 -108q-89 -91 -130 -151q-13 -23 -16.5 -27.5t-6.5 -4.5h-1l-25 -38 q-110 -154 -131 -242q-21 -90 -17 -145q-6 -39 16 -105q23 -68 94 -98q9 -4 33 -4q23 4 80 4q54 25 103 53l44 37q15 12 45 34q10 16 18 22l52 47q100 94 92 97q69 64 94 122q31 43 62 94l72 144l20 52q10 27 18 51q9 49 14 109q-3 17 -3 53l-24 65q-27 23 -30 25 q-18 3 -32 3q-4 0 -14 -1t-29 -2.5t-38 -3.5q-35 -22 -64 -43q-45 -41 -75 -71l-55 -90q-26 -62 -37 -98q-7 -46 -9 -71q3 -13 3 -36q15 -41 16 -43q17 -16 30 -25q16 -4 52 -4q69 19 121 76q8 23 24 39q25 48 40 72q31 71 35 82q9 30 19 76l4 37q2 24 2 35q-4 2 -6 2 q-3 0 -5 -2q-24 -106 -33 -151q-33 -66 -54 -115q-9 -14 -19 -25q-70 -71 -75 -79q-37 -19 -53 -26q-13 -3 -39 -3q-13 4 -24.5 19.5t-14.5 30.5l-4 22q3 18 3 47l24 64l70 123l73 86l79 54q16 4 56 4q17 -12 37 -19q27 -55 28 -58q3 -16 3 -46q-6 -60 -9 -93l-46 -126 q-10 -18 -18 -38q-67 -117 -95 -159q-43 -64 -113 -140l-70 -78q-1 -3 -42 -45q-46 -42 -47 -43q-3 4 -9 4l4 -6l2 -2l-53 -43q-19 -16 -52 -40q-30 -14 -43 -19l-40 -16q-42 -8 -57 -8q-22 8 -32 8zM1071 1257l-5 3q-43 -25 -66 -25q-2 0 -17.5 6.5t-47.5 17t-69 17.5 h-46.5t-38.5 -5.5t-32 -17.5q-47 -40 -52 -45q14 0 27 13q13 4 49 4q33 0 75 -16t46 -16h38q43 0 73 15q18 9 66 49z" />
<glyph unicode="&#xd6;" horiz-adv-x="580" d="M55 53q10 215 55 334q23 44 28 52l69 110q3 7 3 14q29 47 57 83l142 172l101 101l94 71q155 70 164 73q27 3 81 3q49 -10 76 -18q23 -18 34 -25q15 -19 21 -29q18 -38 20 -43v-54q-21 -59 -21 -61q-10 -11 -17 -18q-8 -5 -54 -29q-32 -7 -51 -7q-1 -3 -1 -10q0 -5 1 -7 q15 -4 45 -4q18 6 52 21q30 26 49 51q12 52 16 64q14 70 -19 119q-26 21 -49 43q-40 18 -59 25q-27 4 -89 4q-89 -15 -161 -44q-87 -42 -132 -71q-13 -10 -52 -32q-31 -18 -49 -33l-109 -108q-89 -91 -130 -151q-13 -23 -16.5 -27.5t-6.5 -4.5h-1l-25 -38 q-110 -154 -131 -242q-21 -90 -17 -145q-6 -39 16 -105q23 -68 94 -98q9 -4 33 -4q23 4 80 4q54 25 103 53l44 37q15 12 45 34q10 16 18 22l52 47q100 94 92 97q69 64 94 122q31 43 62 94l72 144l20 52q10 27 18 51q9 49 14 109q-3 17 -3 53l-24 65q-27 23 -30 25 q-18 3 -32 3q-4 0 -14 -1t-29 -2.5t-38 -3.5q-35 -22 -64 -43q-45 -41 -75 -71l-55 -90q-26 -62 -37 -98q-7 -46 -9 -71q3 -13 3 -36q15 -41 16 -43q17 -16 30 -25q16 -4 52 -4q69 19 121 76q8 23 24 39q25 48 40 72q31 71 35 82q9 30 19 76l4 37q2 24 2 35q-4 2 -6 2 q-3 0 -5 -2q-24 -106 -33 -151q-33 -66 -54 -115q-9 -14 -19 -25q-70 -71 -75 -79q-37 -19 -53 -26q-13 -3 -39 -3q-13 4 -24.5 19.5t-14.5 30.5l-4 22q3 18 3 47l24 64l70 123l73 86l79 54q16 4 56 4q17 -12 37 -19q27 -55 28 -58q3 -16 3 -46q-6 -60 -9 -93l-46 -126 q-10 -18 -18 -38q-67 -117 -95 -159q-43 -64 -113 -140l-70 -78q-1 -3 -42 -45q-46 -42 -47 -43q-3 4 -9 4l4 -6l2 -2l-53 -43q-19 -16 -52 -40q-30 -14 -43 -19l-40 -16q-42 -8 -57 -8q-22 8 -32 8zM969 1164q11 3 16 8q22 22 19 34q-4 13 -16.5 23t-27.5 10q-3 0 -9 -2 q-8 -2 -19 -19q-10 -16 -7 -28q2 -10 17 -19.5t27 -6.5zM737 1165q12 3 17 8q21 22 18 34t-16 22t-27 10q-6 0 -9 -1q-8 -2 -19 -19q-10 -16 -7 -28q2 -10 16.5 -19.5t26.5 -6.5z" />
<glyph unicode="&#xd7;" horiz-adv-x="735" d="M630 643l-31 33l-202 -195l-200 208l-27 -26l200 -207l-194 -188q-16 -24 -20 -36q28 3 54 -23q3 2 4.5 4.5t2 3.5t-0.5 2q7 21 104 115q87 82 87 84l188 -195l25 25l-187 193q0 7 7 4q18 17 63 66l48 52q-54 -51 -88 -78q158 159 167 158zM561 572q-1 -2 -5 -5t-5 -4 q7 7 10 9z" />
<glyph unicode="&#xd8;" horiz-adv-x="580" d="M1000 951q-11 26 -19 40l-153 -132q0 -1 1 -4t1 -4q-5 -60 -14 -109q-8 -24 -18 -51l-20 -52l-36 -71q-78 -173 -192 -327q-92 -123 -184.5 -196.5t-173.5 -73.5q-50 0 -84 14q-18 2 -25 4q-71 30 -94 98q-22 66 -16 105q-4 55 17 145q21 88 131 242l25 38h1q3 0 6.5 4.5 t16.5 27.5q41 60 130 151l109 108q18 15 49 33q39 22 52 32q45 29 132 71q72 29 161 44q62 0 89 -4q19 -7 59 -25q23 -22 49 -43q33 -49 19 -119q-4 -12 -16 -64q-19 -25 -49 -51q-34 -15 -52 -21q-30 0 -45 4q-1 2 -1 7q0 7 1 10q19 0 51 7q49 24 71 47q0 2 21 61v54z M805 834l-70 -70l-29 -68q-15 -24 -40 -72q-16 -16 -24 -39q-52 -57 -121 -76q-27 0 -38 1l-386 -389q-3 -41 12.5 -72.5t46.5 -43.5q7 1 25 5l40 16q13 5 43 19q33 24 52 40l103 90l42 45l70 78q70 76 113 140l19 31q131 233 142 365zM138 439q-2 -3 -6 -10t-5 -9 q-72 -177 -35 -254l361 359q-2 2 -6.5 6t-7.5 7q-1 2 -16 43q0 23 -3 36q2 25 9 71q11 36 37 98l55 90q30 30 75 71q29 21 64 43q19 2 38 3.5t29 2.5t14 1q14 0 32 -3q3 -2 30 -25q0 -3 1 -4l6 -9l-2 1l-2 1q4 -8 16 -43q1 -1 1.5 -4t0.5 -4v3l3 -6v-5l133 121l-1 2 q-1 2 -2 2q-18 12 -28 20q-40 17 -102 17q-43 0 -89 -11l-134 -60l-94 -71l-101 -101l-142 -172q-28 -36 -57 -83zM760 854q-2 -7 -7 -29l56 55q1 0 1 1t1 2q0 3 -0.5 8.5t-1.5 8.5t-28 58q-20 7 -37 19q-40 0 -56 -4l-79 -54l-73 -86l-70 -123l-24 -64q0 -29 -3 -47l4 -22 q3 -15 21 -39l1 -1l261 261l29 128q2 2 5 2q2 0 6 -2q0 -11 -2 -35zM668 660l30 66l-198 -199q12 1 21 3q16 7 53 26q5 8 75 79q10 11 19 25zM822 915l2 -5q7 27 -14 46q9 -16 12 -41z" />
<glyph unicode="&#xd9;" horiz-adv-x="803" d="M1477 952v56q-35 23 -39 23h-46h-43q-7 0 -71 -18q-66 -17 -69 -17q-4 0 -9.5 2t-8.5 2q-5 0 -106 -96l-132 -128q-81 -84 -93 -107q13 -28 7 -58t-34 -55l-48 -43l-9 -13q-49 -68 -154 -163l-183 -160q-60 -46 -97 -69q-34 -28 -96 -60l-94 -45q3 -2 11 -4 q141 59 177 82q54 34 100 78q11 8 26.5 22.5t17.5 16.5q12 7 19 8q2 2 9 -5v-12q-19 -19 -37 -67q-16 -42 -16 -67q0 -15 15 -35q16 -22 34 -17q-27 9 -27 38q0 24 32 68q34 44 64 66q27 18 100 75q72 58 130 137q48 64 87 100l242 256l192 204q4 0 8 -3l46 3 q16 -16 25 -18.5t30 5.5q21 9 30 22q4 -4 10 -4zM726 913q0 54 -13 77q-17 33 -77 71q-11 5 -38 4q17 -3 46 -22q34 -22 45 -46q5 -25 7 -44q0 -1 4 -15t4 -18q0 -116 -440 -493q-149 -128 -213 -223q-51 -75 -51 -132q0 -40 28 -62q26 -20 64 -20q21 0 31 7q-12 -1 -29 -1 q-67 0 -67 52q0 54 147 194l191 173q120 108 151 133q210 208 210 365zM594 920q-59 -65 -86 -80q-24 -12 -81 -57q-58 -45 -78 -58q-139 -81 -251 -81q-147 0 -147 98q0 81 88 160q71 63 180 114q95 44 151 51q-38 5 -141 -40q-114 -49 -193 -114q-98 -83 -98 -160 q0 -69 73 -100q48 -22 118 -22q53 0 57 1q2 0 6 1.5l11 4t14 4.5q93 19 165 65q36 21 49 32l98 95q35 44 65 86zM623 30l151 111v9l-96 -70q-75 -53 -99 -61q-37 -17 -44 -19h23q7 -1 34 11q8 3 31 19zM578 1068v7l-34 7v-7zM939 1258q0 -17 10 -36.5t20 -19.5q2 0 6.5 2 t8.5 2l43 -32q52 -35 89 -50l17 5q-31 24 -81 76l-20 47q-5 5 -20 31q-9 16 -28 16q-5 0 -43 -23q-2 -4 -2 -18zM955 1262h-6v14h6v-14z" />
<glyph unicode="&#xda;" horiz-adv-x="803" d="M1477 952v56q-35 23 -39 23h-46h-43q-7 0 -71 -18q-66 -17 -69 -17q-4 0 -9.5 2t-8.5 2q-5 0 -106 -96l-132 -128q-81 -84 -93 -107q13 -28 7 -58t-34 -55l-48 -43l-9 -13q-49 -68 -154 -163l-183 -160q-60 -46 -97 -69q-34 -28 -96 -60l-94 -45q3 -2 11 -4 q141 59 177 82q54 34 100 78q11 8 26.5 22.5t17.5 16.5q12 7 19 8q2 2 9 -5v-12q-19 -19 -37 -67q-16 -42 -16 -67q0 -15 15 -35q16 -22 34 -17q-27 9 -27 38q0 24 32 68q34 44 64 66q27 18 100 75q72 58 130 137q48 64 87 100l242 256l192 204q4 0 8 -3l46 3 q16 -16 25 -18.5t30 5.5q21 9 30 22q4 -4 10 -4zM726 913q0 54 -13 77q-17 33 -77 71q-11 5 -38 4q17 -3 46 -22q34 -22 45 -46q5 -25 7 -44q0 -1 4 -15t4 -18q0 -116 -440 -493q-149 -128 -213 -223q-51 -75 -51 -132q0 -40 28 -62q26 -20 64 -20q21 0 31 7q-12 -1 -29 -1 q-67 0 -67 52q0 54 147 194l191 173q120 108 151 133q210 208 210 365zM594 920q-59 -65 -86 -80q-24 -12 -81 -57q-58 -45 -78 -58q-139 -81 -251 -81q-147 0 -147 98q0 81 88 160q71 63 180 114q95 44 151 51q-38 5 -141 -40q-114 -49 -193 -114q-98 -83 -98 -160 q0 -69 73 -100q48 -22 118 -22q53 0 57 1q2 0 6 1.5l11 4t14 4.5q93 19 165 65q36 21 49 32l98 95q35 44 65 86zM623 30l151 111v9l-96 -70q-75 -53 -99 -61q-37 -17 -44 -19h23q7 -1 34 11q8 3 31 19zM578 1068v7l-34 7v-7zM1219 1238q0 14 -2 18q-38 23 -43 23 q-19 0 -28 -16q-15 -26 -20 -31l-20 -47q-50 -52 -81 -76l17 -5q37 15 89 50l43 32q4 0 8.5 -2t6.5 -2q10 0 20 19.5t10 36.5zM1209 1242h-6v14h6v-14z" />
<glyph unicode="&#xdb;" horiz-adv-x="803" d="M1477 952v56q-35 23 -39 23h-46h-43q-7 0 -71 -18q-66 -17 -69 -17q-4 0 -9.5 2t-8.5 2q-5 0 -106 -96l-132 -128q-81 -84 -93 -107q13 -28 7 -58t-34 -55l-48 -43l-9 -13q-49 -68 -154 -163l-183 -160q-60 -46 -97 -69q-34 -28 -96 -60l-94 -45q3 -2 11 -4 q141 59 177 82q54 34 100 78q11 8 26.5 22.5t17.5 16.5q12 7 19 8q2 2 9 -5v-12q-19 -19 -37 -67q-16 -42 -16 -67q0 -15 15 -35q16 -22 34 -17q-27 9 -27 38q0 24 32 68q34 44 64 66q27 18 100 75q72 58 130 137q48 64 87 100l242 256l192 204q4 0 8 -3l46 3 q16 -16 25 -18.5t30 5.5q21 9 30 22q4 -4 10 -4zM726 913q0 54 -13 77q-17 33 -77 71q-11 5 -38 4q17 -3 46 -22q34 -22 45 -46q5 -25 7 -44q0 -1 4 -15t4 -18q0 -116 -440 -493q-149 -128 -213 -223q-51 -75 -51 -132q0 -40 28 -62q26 -20 64 -20q21 0 31 7q-12 -1 -29 -1 q-67 0 -67 52q0 54 147 194l191 173q120 108 151 133q210 208 210 365zM594 920q-59 -65 -86 -80q-24 -12 -81 -57q-58 -45 -78 -58q-139 -81 -251 -81q-147 0 -147 98q0 81 88 160q71 63 180 114q95 44 151 51q-38 5 -141 -40q-114 -49 -193 -114q-98 -83 -98 -160 q0 -69 73 -100q48 -22 118 -22q53 0 57 1q2 0 6 1.5l11 4t14 4.5q93 19 165 65q36 21 49 32l98 95q35 44 65 86zM623 30l151 111v9l-96 -70q-75 -53 -99 -61q-37 -17 -44 -19h23q7 -1 34 11q8 3 31 19zM578 1068v7l-34 7v-7zM1190 1128q10 0 10 9q0 1 -15 15t-20 20l-39 59 l-19 32q-9 14 -14 17q-11 6 -18 6h-6l-75 -63l-21 -12q-14 -9 -14 -17q0 -1 3 -4h17q1 0 6.5 3t18 8.5l26.5 11.5l12 7q22 1 34 -3l36 -28q5 -6 26 -23l24 -22q17 -16 28 -16z" />
<glyph unicode="&#xdc;" horiz-adv-x="803" d="M1477 952v56q-35 23 -39 23h-46h-43q-7 0 -71 -18q-66 -17 -69 -17q-4 0 -9.5 2t-8.5 2q-5 0 -106 -96l-132 -128q-81 -84 -93 -107q13 -28 7 -58t-34 -55l-48 -43l-9 -13q-49 -68 -154 -163l-183 -160q-60 -46 -97 -69q-34 -28 -96 -60l-94 -45q3 -2 11 -4 q141 59 177 82q54 34 100 78q11 8 26.5 22.5t17.5 16.5q12 7 19 8q2 2 9 -5v-12q-19 -19 -37 -67q-16 -42 -16 -67q0 -15 15 -35q16 -22 34 -17q-27 9 -27 38q0 24 32 68q34 44 64 66q27 18 100 75q72 58 130 137q48 64 87 100l242 256l192 204q4 0 8 -3l46 3 q16 -16 25 -18.5t30 5.5q21 9 30 22q4 -4 10 -4zM726 913q0 54 -13 77q-17 33 -77 71q-11 5 -38 4q17 -3 46 -22q34 -22 45 -46q5 -25 7 -44q0 -1 4 -15t4 -18q0 -116 -440 -493q-149 -128 -213 -223q-51 -75 -51 -132q0 -40 28 -62q26 -20 64 -20q21 0 31 7q-12 -1 -29 -1 q-67 0 -67 52q0 54 147 194l191 173q120 108 151 133q210 208 210 365zM594 920q-59 -65 -86 -80q-24 -12 -81 -57q-58 -45 -78 -58q-139 -81 -251 -81q-147 0 -147 98q0 81 88 160q71 63 180 114q95 44 151 51q-38 5 -141 -40q-114 -49 -193 -114q-98 -83 -98 -160 q0 -69 73 -100q48 -22 118 -22q53 0 57 1q2 0 6 1.5l11 4t14 4.5q93 19 165 65q36 21 49 32l98 95q35 44 65 86zM623 30l151 111v9l-96 -70q-75 -53 -99 -61q-37 -17 -44 -19h23q7 -1 34 11q8 3 31 19zM578 1068v7l-34 7v-7zM1188 1134q11 3 16 8q22 22 19 34 q-4 13 -16.5 23t-27.5 10q-3 0 -9 -2q-8 -2 -19 -19q-10 -16 -7 -28q2 -10 17 -19.5t27 -6.5zM956 1135q12 3 17 8q21 22 18 34t-16 22t-27 10q-6 0 -9 -1q-8 -2 -19 -19q-10 -16 -7 -28q3 -10 17 -19.5t26 -6.5z" />
<glyph unicode="&#xdd;" horiz-adv-x="929" d="M1414 911l-12 13l-68 -2q-9 0 -42 -34l-16.5 -17l-19 -20.5t-16.5 -17.5l-139 -143l-206 -183q-8 -5 -49 -50q-33 -35 -52 -46q-25 -4 -38 -3q-24 -16 -34 -27l-86 -69q0 -18 -6 -31q-53 -29 -90 -53q-4 -13 -3 -17q13 4 36 16q26 14 31 14q9 0 12 -3v-18q0 -7 -14 -35 t-22 -36q-6 -5 -25 -13.5t-25 -14.5l15 -34q-191 -183 -391 -186v-18l60 1q4 -1 16 3.5t14 4.5q25 0 91 21q69 21 112 43q29 9 36 18q58 40 96 59q55 38 201 163l75 61q27 9 30 12q3 4 33 -2q21 -3 59 -9q0 -4 18 -1q19 3 18 18l-20 12q-25 9 -37 21q-36 28 -37 27 q-17 8 -17 21q0 5 0.5 7t3.5 4l4 2l11 12zM829 889q-5 200 -236 196q-13 0 -79 -2v-19q17 0 38 0.5t32 1t17 0.5q187 3 188 -148q1 -34 -1 -41q-26 -72 -128 -166l-187 -163q-107 -95 -149 -176q-10 -22 -21 -54q-10 -30 -10 -41q1 -23 18 -48q9 -13 29 -39q0 -1 3.5 -3.5 t8.5 -5t9 -2.5h16v18q-49 15 -49 61q-1 49 130 159q199 167 243 214q130 138 128 258zM721 917l-11 5q-10 -4 -48 -48q-28 -30 -53 -52.5t-28 -25.5q-63 -62 -182 -118q-123 -58 -209 -59q-46 0 -81 20q-41 25 -43 73q-1 100 150 212q137 102 278 131l-1 18h-20 q-5 0 -75 -24q-121 -43 -221 -121q-136 -106 -135 -214q1 -121 177 -118q129 1 262 83q143 87 240 238zM111 91q0 22 -17 40t-40 18q-45 -2 -67 -53q-17 -40 -16 -73q1 -60 27 -89q9 -9 37 -27q27 -17 34 -16h16l-1 18q-87 29 -89 100q0 41 21 51q30 -19 49 -18q47 0 46 49z M528 215h-26q-12 0 -41 -16v-18h21q11 0 27 12t19 22zM445 176v18l-57 -1v-18zM1343 1185q0 14 -2 18q-38 23 -43 23q-19 0 -28 -16q-15 -26 -20 -31l-20 -47q-50 -52 -81 -76l17 -5q37 15 89 50l43 32q4 0 8.5 -2t6.5 -2q10 0 20 19.5t10 36.5zM1333 1189h-6v14h6v-14z" />
<glyph unicode="&#xde;" horiz-adv-x="774" d="M874 1081q-15 -4 -40.5 -2t-36.5 -2q-18 -20 -50 -62.5t-47 -60.5q-46 -54 -90 -85l-63 -43q-55 -36 -128 -56.5l-144.5 -40.5t-126.5 -57q-76 -58 -99 -143q-7 -52 4 -69q16 -27 46 -18q15 9 29.5 28t19.5 39q7 40 12.5 63t18.5 53t32 49q33 29 72.5 41.5t82.5 20.5 t70 22q-3 -8 4 -8t7 -3v-3q-112 -41 -164 -41l-1 -4q-1 -4 1 -6q22 -1 50.5 4.5t46 11.5l53 18.5t45.5 16.5q16 16 50.5 39.5t53.5 43.5q0 -3 1.5 -8.5t0.5 -10.5l-97 -132l1 1l-65.5 -81.5l-76 -95t-60.5 -84.5q-31 -43 -125.5 -184t-149.5 -210l1 -11q7 -35 47 1 q9 7 13.5 11t12 8t12.5 5l153 204l23 46q-1 -5 -4 -13t-4 -12l60 80.5l60 79.5q140 191 295 316q130 104 198 95q33 -7 38 -52q0 -44 -15 -97.5t-29.5 -87t-41.5 -89.5q-127 -236 -243 -317q-25 -20 -52.5 -16.5t-42.5 27.5q-13 39 3 91q5 23 32.5 63.5t27.5 69.5 q-2 20 -11 29.5t-21 7.5q-22 1 -53 -45q-30 -55 -30 -134q0 -22 3 -40q12 -76 77 -89q66 0 132.5 46.5t143.5 131.5q176 210 186 419q1 41 -14.5 68t-41.5 34q-121 24 -294 -131q-5 0 -8 21l244 320q6 14 6 19zM534 800l-3 -1z" />
<glyph unicode="&#xdf;" horiz-adv-x="785" d="M1059 985q-41 53 -113 47q-25 -3 -52 -13.5t-44 -18t-48.5 -31.5t-39.5 -30.5t-45 -39t-40 -34.5l-235 -227q-87 -74 -334 -261l-200 -169v-19l182 154q224 173 269 205v-10l-431 -488l-14 -14l-449 -508h86l1163 1305l43 43l48 47t43.5 37.5t52.5 36t52 21.5 q53 7 79 -27q32 -39 -2 -140q-38 -94 -110 -177.5t-159 -123.5q-17 17 -43 35q-25 13 -56 13.5t-57 -13.5q-9 -10 -4 -30q2 -6 17 -21q15 -6 35 -8t31.5 -1.5t39 3t32.5 2.5q21 -44 -13 -126q-10 -22 -14 -33q-4 -15 -58 -92q-1 -5 -45 -51q-52 -51 -123.5 -101.5 t-105.5 -81.5l-38 -3q-2 -6 1.5 -8t10.5 -2q-78 -32 -123 -12l3 -20q31 -10 112 2q43 9 120 43q30 13 120 42q4 2 16 6.5t24 11t23 17.5q98 66 144 126q-9 -7 -36.5 -32.5t-43.5 -36.5q-51 -38 -69 -45l-27 -6q-10 -8 -18 -2q41 33 61 55q25 21 25 22q57 74 77 131 q4 11 14 59q11 80 -20 141q53 19 98 41q92 45 152 131t60 183l-2 7q0 48 -22 89zM242 185l2 29q-50 -50 -57 -110q-7 -17 7 -62q18 -24 41 -35q6 21 -7 29h11l3 16q-13 10 -24.5 30t-14.5 22q10 42 39 81zM499 346l-2 13q-120 -41 -192 -93q-4 -4 -22 -16t-25 -22.5 t-1 -24.5q86 88 242 143zM269 42q-16 0 -23 5v-13l23 -2v10zM677 540q0 -1 -1 -1h-2l1 1h2zM395 577l-20 -22q-2 -2 -2 0q0 1 -2 3zM716 567l24 -19q-16 -8 -59 -8q-5 5 -8 0q0 -1 1 -1q-46 -2 -60 19q-3 10 4 17q24 12 50.5 9.5t47.5 -17.5z" />
<glyph unicode="&#xe0;" horiz-adv-x="571" d="M600 253v20h-12q-55 -75 -95 -106q-42 -42 -60 -66q-45 -33 -48 -33h-3q-3 1 -7 1.5t-8 0.5q-43 0 -43 28t232 345q29 53 38 75q-14 24 -48 24q-23 0 -52 -26l-15.5 -14t-9.5 -9t-2 -3q-5 0 -27 19q-23 20 -26 20h-21v-17q24 -2 31.5 -12.5t7.5 -35.5q0 -38 -36 -93 q-10 -17 -68 -90q-94 -121 -106 -133q-41 -43 -129 -110l7 -7q14 0 35 16q25 9 37 20q26 29 39 45l69 62q11 -8 11 -22v-6l-1 -1v2q-11 -12 -32 -22v-31q0 -4 2 -14q1 -4 2 -9v-3q18 -18 20 -23q19 -2 26 -3q22 -20 32 -20t42 20q11 5 23 7q2 0 11 10.5t12 10.5q2 0 3 -2.5 t3 -2.5q5 0 36 40q46 59 51 63zM353 504v16h-37q-4 0 -12 -6t-9 -6q-47 -20 -72 -33q-25 -18 -43 -36q-134 -98 -160 -176q-11 -25 -18 -35q-14 -89 -14 -95q0 -15 14 -59q18 -52 37 -52q8 0 8 5v16q-6 3 -12.5 13.5t-6.5 17.5q0 38 82 159q66 97 95 126l74 79q42 44 74 66z M336 749q0 -17 10 -36.5t20 -19.5q2 0 6.5 2t8.5 2l43 -32q52 -35 89 -50l17 5q-31 24 -81 76l-20 47q-5 5 -20 31q-9 16 -28 16q-5 0 -43 -23q-2 -4 -2 -18zM386 512v16h-25l-4 -20q12 4 29 4zM86 18v16h-22v-16h22zM352 753h-6v14h6v-14z" />
<glyph unicode="&#xe1;" horiz-adv-x="571" d="M600 253v20h-12q-55 -75 -95 -106q-42 -42 -60 -66q-45 -33 -48 -33h-3q-3 1 -7 1.5t-8 0.5q-43 0 -43 28t232 345q29 53 38 75q-14 24 -48 24q-23 0 -52 -26l-15.5 -14t-9.5 -9t-2 -3q-5 0 -27 19q-23 20 -26 20h-21v-17q24 -2 31.5 -12.5t7.5 -35.5q0 -38 -36 -93 q-10 -17 -68 -90q-94 -121 -106 -133q-41 -43 -129 -110l7 -7q14 0 35 16q25 9 37 20q26 29 39 45l69 62q11 -8 11 -22v-6l-1 -1v2q-11 -12 -32 -22v-31q0 -4 2 -14q1 -4 2 -9v-3q18 -18 20 -23q19 -2 26 -3q22 -20 32 -20t42 20q11 5 23 7q2 0 11 10.5t12 10.5q2 0 3 -2.5 t3 -2.5q5 0 36 40q46 59 51 63zM353 504v16h-37q-4 0 -12 -6t-9 -6q-47 -20 -72 -33q-25 -18 -43 -36q-134 -98 -160 -176q-11 -25 -18 -35q-14 -89 -14 -95q0 -15 14 -59q18 -52 37 -52q8 0 8 5v16q-6 3 -12.5 13.5t-6.5 17.5q0 38 82 159q66 97 95 126l74 79q42 44 74 66z M682 746q0 14 -2 18q-38 23 -43 23q-19 0 -28 -16q-15 -26 -20 -31l-20 -47q-50 -52 -81 -76l17 -5q37 15 89 50l43 32q4 0 8.5 -2t6.5 -2q10 0 20 19.5t10 36.5zM386 512v16h-25l-4 -20q12 4 29 4zM86 18v16h-22v-16h22zM672 750h-6v14h6v-14z" />
<glyph unicode="&#xe2;" horiz-adv-x="571" d="M600 253v20h-12q-55 -75 -95 -106q-42 -42 -60 -66q-45 -33 -48 -33h-3q-3 1 -7 1.5t-8 0.5q-43 0 -43 28t232 345q29 53 38 75q-14 24 -48 24q-23 0 -52 -26l-12 -11.5t-9 -8.5l-1 1v-1q-6 -6 -5 -6q-5 0 -27 19q-23 20 -26 20h-21v-17q24 -2 31.5 -12.5t7.5 -35.5 q0 -38 -36 -93q-10 -17 -68 -90q-94 -121 -106 -133q-41 -43 -129 -110l7 -7q14 0 35 16q25 9 37 20q26 29 39 45l69 62q11 -8 11 -22v-6l-1 -1v2q-11 -12 -32 -22v-31q0 -4 2 -14q1 -4 2 -9v-3q18 -18 20 -23q19 -2 26 -3q22 -20 32 -20t42 20q11 5 23 7q2 0 11 10.5 t12 10.5q2 0 3 -2.5t3 -2.5q5 0 36 40q46 59 51 63zM353 504v16h-37q-4 0 -12 -6t-9 -6q-47 -20 -72 -33q-25 -18 -43 -36q-134 -98 -160 -176q-11 -25 -18 -35q-14 -89 -14 -95q0 -15 14 -59q18 -52 37 -52q8 0 8 5v16q-6 3 -12.5 13.5t-6.5 17.5q0 38 82 159q66 97 95 126 l74 79q42 44 74 66zM386 512v16h-25l-4 -20q12 4 29 4zM86 18v16h-22v-16h22zM474 502l-6 -10q3 8 6 10zM570 605q10 0 10 9q0 2 -15 15q-15 14 -20 20l-39 59l-19 32q-9 14 -14 17q-11 6 -18 6h-6l-75 -63l-21 -12q-14 -9 -14 -17q0 -1 3 -4h17q1 0 6.5 3t18 8.5l26.5 11.5 l12 7q22 1 34 -3l36 -28q5 -6 26 -23l24 -22q17 -16 28 -16z" />
<glyph unicode="&#xe3;" horiz-adv-x="571" d="M600 253v20h-12q-55 -75 -95 -106q-42 -42 -60 -66q-45 -33 -48 -33h-3q-3 1 -7 1.5t-8 0.5q-43 0 -43 28t232 345q29 53 38 75q-14 24 -48 24q-23 0 -52 -26l-15.5 -14t-9.5 -9t-2 -3q-5 0 -27 19q-23 20 -26 20h-21v-17q24 -2 31.5 -12.5t7.5 -35.5q0 -38 -36 -93 q-10 -17 -68 -90q-94 -121 -106 -133q-41 -43 -129 -110l7 -7q14 0 35 16q25 9 37 20q26 29 39 45l69 62q11 -8 11 -22v-6l-1 -1v2q-11 -12 -32 -22v-31q0 -4 2 -14q1 -4 2 -9v-3q18 -18 20 -23q19 -2 26 -3q22 -20 32 -20t42 20q11 5 23 7q2 0 11 10.5t12 10.5q2 0 3 -2.5 t3 -2.5q5 0 36 40q46 59 51 63zM353 504v16h-37q-4 0 -12 -6t-9 -6q-47 -20 -72 -33q-25 -18 -43 -36q-134 -98 -160 -176q-11 -25 -18 -35q-14 -89 -14 -95q0 -15 14 -59q18 -52 37 -52q8 0 8 5v16q-6 3 -12.5 13.5t-6.5 17.5q0 38 82 159q66 97 95 126l74 79q42 44 74 66z M751 711l-5 3q-43 -25 -66 -25q-2 0 -17.5 6.5t-47.5 17t-69 17.5h-46.5t-38.5 -5.5t-32 -17.5q-47 -40 -52 -45q14 0 27 13q13 4 49 4q33 0 75 -16t46 -16h38q43 0 73 15q18 9 66 49zM386 512v16h-25l-4 -20q12 4 29 4zM86 18v16h-22v-16h22z" />
<glyph unicode="&#xe4;" horiz-adv-x="571" d="M600 253v20h-12q-55 -75 -95 -106q-42 -42 -60 -66q-45 -33 -48 -33h-3q-3 1 -7 1.5t-8 0.5q-43 0 -43 28t232 345q29 53 38 75q-14 24 -48 24q-23 0 -52 -26l-15.5 -14t-9.5 -9t-2 -3q-5 0 -27 19q-23 20 -26 20h-21v-17q24 -2 31.5 -12.5t7.5 -35.5q0 -38 -36 -93 q-10 -17 -68 -90q-94 -121 -106 -133q-41 -43 -129 -110l7 -7q14 0 35 16q25 9 37 20q26 29 39 45l69 62q11 -8 11 -22v-6l-1 -1v2q-11 -12 -32 -22v-31q0 -4 2 -14q1 -4 2 -9v-3q18 -18 20 -23q19 -2 26 -3q22 -20 32 -20t42 20q11 5 23 7q2 0 11 10.5t12 10.5q2 0 3 -2.5 t3 -2.5q5 0 36 40q46 59 51 63zM353 504v16h-37q-4 0 -12 -6t-9 -6q-47 -20 -72 -33q-25 -18 -43 -36q-134 -98 -160 -176q-11 -25 -18 -35q-14 -89 -14 -95q0 -15 14 -59q18 -52 37 -52q8 0 8 5v16q-6 3 -12.5 13.5t-6.5 17.5q0 38 82 159q66 97 95 126l74 79q42 44 74 66z M655 621q11 3 16 8q22 22 19 34q-4 13 -16.5 23t-27.5 10q-3 0 -9 -2q-8 -2 -19 -19q-10 -16 -7 -28q2 -10 17 -19.5t27 -6.5zM441 622q12 3 17 8q21 22 18 34t-16 22t-27 10q-6 0 -9 -1q-8 -2 -19 -19q-10 -16 -7 -28q2 -10 16.5 -20t26.5 -6zM386 512v16h-25l-4 -20 q12 4 29 4zM86 18v16h-22v-16h22z" />
<glyph unicode="&#xe5;" horiz-adv-x="571" d="M600 253v20h-12q-55 -75 -95 -106q-42 -42 -60 -66q-45 -33 -48 -33h-3q-3 1 -7 1.5t-8 0.5q-43 0 -43 28t232 345q29 53 38 75q-14 24 -48 24q-23 0 -52 -26l-15.5 -14t-9.5 -9t-2 -3q-5 0 -27 19q-23 20 -26 20h-21v-17q24 -2 31.5 -12.5t7.5 -35.5q0 -38 -36 -93 q-10 -17 -68 -90q-94 -121 -106 -133q-41 -43 -129 -110l7 -7q14 0 35 16q25 9 37 20q26 29 39 45l69 62q11 -8 11 -22v-6l-1 -1v2q-11 -12 -32 -22v-31q0 -4 2 -14q1 -4 2 -9v-3q18 -18 20 -23q19 -2 26 -3q22 -20 32 -20t42 20q11 5 23 7q2 0 11 10.5t12 10.5q2 0 3 -2.5 t3 -2.5q5 0 36 40q46 59 51 63zM353 504v16h-37q-4 0 -12 -6t-9 -6q-47 -20 -72 -33q-25 -18 -43 -36q-134 -98 -160 -176q-11 -25 -18 -35q-14 -89 -14 -95q0 -15 14 -59q18 -52 37 -52q8 0 8 5v16q-6 3 -12.5 13.5t-6.5 17.5q0 38 82 159q66 97 95 126l74 79q42 44 74 66z M386 512v16h-25l-4 -20q12 4 29 4zM86 18v16h-22v-16h22zM608 691q-3 26 -24.5 41t-48.5 11q-41 0 -81 -52q-16 -13 -16 -46q0 -27 12 -46q14 -21 41 -21q9 0 40 6q43 32 54 42q27 29 23 65zM577 682q-8 -48 -67 -78q-32 0 -36 16q0 29 25 53q24 20 52 29q26 0 26 -20z" />
<glyph unicode="&#xe6;" horiz-adv-x="867" d="M979 511q-13 7 -29 7q-5 0 -63 -14l-62 -8q-25 33 -58 33q-23 0 -70 -24q-48 -23 -68 -23q-25 0 -43 22q-38 7 -83 7q-143 0 -279 -90q-124 -83 -208 -211q-15 -54 -15 -95q0 -59 30 -89q40 -25 87 -25q68 0 148 50l135 90q49 -95 70 -115q36 -10 76 -10q198 0 424 241 q-56 -30 -123 -76l-124 -87q-8 -1 -78 -37q-49 -25 -81 -25q-35 0 -64 24q11 109 99 164q28 18 185 76q120 45 170 107q35 26 35 71q0 21 -11 37zM586 434q-95 -150 -208 -251q-142 -127 -285 -141q-17 14 -17 29q0 11 12 31q4 6 7 11t5.5 8.5t4 6.5t2.5 4l1 2l202 199 q115 112 230 147q34 -12 46 -46zM933 488q9 -10 9 -23q0 -35 -33 -46q-100 -86 -177 -86q32 48 91 86z" />
<glyph unicode="&#xe7;" horiz-adv-x="447" d="M412 324l-29 46q-19 3 -37 3q-153 0 -301 -166q-45 -51 -45 -132q0 -38 10 -72q-5 -7 -54 -56q-32 -33 -28 -55q8 2 31 14q20 11 32 11q11 0 24 -8q-6 -23 -31 -48q-10 -11 -45 -39q-12 -13 -67 -34q-41 -17 -38 -42q25 5 50 11t36.5 8.5t14.5 2.5q128 30 156 124 q0 21 -20 46l-38 36l82 35q-12 -4 -24 -4q-25 0 -41 21q19 79 97 164q44 47 149 134q10 -3 10 -10q0 -2 -5 -14t-5 -17q8 -35 46 -35q63 25 70 76zM304 89q16 15 39 33l-2 -1q-36 -18 -49 -18h-1q-71 -44 -92 -77q35 4 105 63zM398 170q-12 -26 -55 -48q20 16 55 48z M294 105l-3 -2q0 1 3 2z" />
<glyph unicode="&#xe8;" horiz-adv-x="633" d="M618 323q-104 -88 -123 -113q4 0 7 -3.5t6.5 -9.5t6.5 -9q16 6 52 34q33 27 50 44q14 18 54 61q-40 -1 -51 -4h-2zM348 766q0 -17 10 -36.5t20 -19.5q2 0 6.5 2t8.5 2l43 -32q52 -35 89 -50l17 5q-31 24 -81 76l-20 47q-5 5 -20 31q-9 16 -28 16q-5 0 -43 -23 q-2 -4 -2 -18zM364 770h-6v14h6v-14zM166 229q83 51 188 90q181 82 227 148q25 20 23 77q-1 18 -12 34.5t-25 16.5h-3q-8 4 -43 2l-133 -46q-48 -16 -120 -59q-67 -39 -146 -122q-91 -96 -105 -158q-8 -32 -6 -85q0 -56 31 -93q34 -43 96 -38q53 2 87 23q149 67 248 137 q14 11 35 25q-12 13 -14 29q-81 -51 -99 -64q-20 -15 -107 -66q-25 -14 -52.5 -25.5t-42 -16.5t-15.5 -5l-56 -1q-45 29 -27 122q27 46 71 75zM522 571q27 5 27 2q9 -27 5 -43q-8 -16 -17 -27q-12 -26 -96 -95l-123 -65q-9 -1 -23 -1q-1 3 -1 7q0 15 26 41l27 28 q51 51 61 60q74 65 78 67z" />
<glyph unicode="&#xe9;" horiz-adv-x="633" d="M618 323q-104 -88 -123 -113q4 0 7 -3.5t6.5 -9.5t6.5 -9q16 6 52 34q33 27 50 44q14 18 54 61q-40 -1 -51 -4h-2zM166 229q83 51 188 90q181 82 227 148q25 20 23 77q-1 18 -12 34.5t-25 16.5h-3q-8 4 -43 2l-133 -46q-48 -16 -120 -59q-67 -39 -146 -122 q-91 -96 -105 -158q-8 -32 -6 -85q0 -56 31 -93q34 -43 96 -38q53 2 87 23q149 67 248 137q14 11 35 25q-12 13 -14 29q-81 -51 -99 -64q-20 -15 -107 -66q-25 -14 -52.5 -25.5t-42 -16.5t-15.5 -5l-56 -1q-45 29 -27 122q27 46 71 75zM522 571q27 5 27 2q9 -27 5 -43 q-8 -16 -17 -27q-12 -26 -96 -95l-123 -65q-9 -1 -23 -1q-1 3 -1 7q0 15 26 41l27 28q51 51 61 60q74 65 78 67zM710 764q0 14 -2 18q-38 23 -43 23q-19 0 -28 -16q-15 -26 -20 -31l-20 -47q-50 -52 -81 -76l17 -5q37 15 89 50l43 32q4 0 8.5 -2t6.5 -2q10 0 20 19.5 t10 36.5zM700 768h-6v14h6v-14z" />
<glyph unicode="&#xea;" horiz-adv-x="633" d="M618 323q-104 -88 -123 -113q4 0 7 -3.5t6.5 -9.5t6.5 -9q16 6 52 34q33 27 50 44q14 18 54 61q-40 -1 -51 -4h-2zM166 229q83 51 188 90q181 82 227 148q25 20 23 77q-1 18 -12 34.5t-25 16.5h-3q-8 4 -43 2l-133 -46q-48 -16 -120 -59q-67 -39 -146 -122 q-91 -96 -105 -158q-8 -32 -6 -85q0 -56 31 -93q34 -43 96 -38q53 2 87 23q149 67 248 137q14 11 35 25q-12 13 -14 29q-81 -51 -99 -64q-20 -15 -107 -66q-25 -14 -52.5 -25.5t-42 -16.5t-15.5 -5l-56 -1q-45 29 -27 122q27 46 71 75zM522 571q27 5 27 2q9 -27 5 -43 q-8 -16 -17 -27q-12 -26 -96 -95l-123 -65q-9 -1 -23 -1q-1 3 -1 7q0 15 26 41l27 28q51 51 61 60q74 65 78 67zM647 627q10 0 10 9q0 2 -15 15q-15 14 -20 20l-39 59l-19 32q-9 14 -14 17q-10 6 -18 6h-6l-75 -63l-21 -12q-14 -9 -14 -17q0 -1 3 -4h17q1 0 6.5 3t18 8.5 l26.5 11.5l12 7q22 1 34 -3l36 -28q5 -6 26 -23l24 -22q17 -16 28 -16z" />
<glyph unicode="&#xeb;" horiz-adv-x="633" d="M618 323q-104 -88 -123 -113q4 0 7 -3.5t6.5 -9.5t6.5 -9q16 6 52 34q33 27 50 44q14 18 54 61q-40 -1 -51 -4h-2zM166 229q83 51 188 90q181 82 227 148q25 20 23 77q-1 18 -12 34.5t-25 16.5h-3q-8 4 -43 2l-133 -46q-48 -16 -120 -59q-67 -39 -146 -122 q-91 -96 -105 -158q-8 -32 -6 -85q0 -56 31 -93q34 -43 96 -38q53 2 87 23q149 67 248 137q14 11 35 25q-12 13 -14 29q-81 -51 -99 -64q-20 -15 -107 -66q-25 -14 -52.5 -25.5t-42 -16.5t-15.5 -5l-56 -1q-45 29 -27 122q27 46 71 75zM522 571q27 5 27 2q9 -27 5 -43 q-8 -16 -17 -27q-12 -26 -96 -95l-123 -65q-9 -1 -23 -1q-1 3 -1 7q0 15 26 41l27 28q51 51 61 60q74 65 78 67zM676 647q11 3 16 8q22 22 19 34q-4 13 -16.5 23t-27.5 10q-3 0 -9 -2q-8 -2 -19 -19q-10 -16 -7 -28q2 -10 17 -19.5t27 -6.5zM444 648q12 3 17 8q21 22 18 34 t-16 22t-27 10q-6 0 -9 -1q-8 -2 -19 -19q-10 -16 -7 -28q3 -10 17 -20t26 -6z" />
<glyph unicode="&#xec;" horiz-adv-x="277" d="M27 -8q33 5 50 16q23 18 37 30q46 19 66 49q105 169 134 202l9 23l-5 2l-25 -16q-24 -32 -57 -65q-2 -6 -2 -7q0 -2 2 -8l-43 -58q-41 -63 -69 -76q-8 -3 -60 -17q-7 3 -8 13q-6 31 0 62q16 34 29 54q28 34 79.5 112l65.5 98l96 147q-4 1 -6 5l-1 3q-46 -3 -48 -4 q-18 -10 -45 -17l-120 -151l-116 -150q-15 -42 -25 -86q-7 -44 -1 -68q4 -31 24 -64q0 -5 12 -20q10 -11 27 -9zM216 737q0 -17 10 -36.5t20 -19.5q2 0 6.5 2t8.5 2l43 -32q52 -35 89 -50l17 5q-31 24 -81 76l-20 47q-5 5 -20 31q-9 16 -28 16q-5 0 -43 -23q-2 -4 -2 -18z M232 741h-6v14h6v-14z" />
<glyph unicode="&#xed;" horiz-adv-x="277" d="M27 -8q33 5 50 16q23 18 37 30q46 19 66 49q105 169 134 202l9 23l-5 2l-25 -16q-24 -32 -57 -65q-2 -6 -2 -7q0 -2 2 -8l-43 -58q-41 -63 -69 -76q-8 -3 -60 -17q-7 3 -8 13q-6 31 0 62q16 34 29 54q28 34 79.5 112l65.5 98l96 147q-4 1 -6 5l-1 3q-46 -3 -48 -4 q-18 -10 -45 -17l-120 -151l-116 -150q-15 -42 -25 -86q-7 -44 -1 -68q4 -31 24 -64q0 -5 12 -20q10 -11 27 -9zM496 755q0 14 -2 18q-38 23 -43 23q-19 0 -28 -16q-15 -26 -20 -31l-20 -47q-50 -52 -81 -76l17 -5q37 15 89 50l43 32q4 0 8.5 -2t6.5 -2q10 0 20 19.5 t10 36.5zM486 759h-6v14h6v-14z" />
<glyph unicode="&#xee;" horiz-adv-x="277" d="M27 -8q33 5 50 16q23 18 37 30q46 19 66 49q105 169 134 202l9 23l-5 2l-25 -16q-24 -32 -57 -65q-2 -6 -2 -7q0 -2 2 -8l-43 -58q-41 -63 -69 -76q-8 -3 -60 -17q-7 3 -8 13q-6 31 0 62q16 34 29 54q28 34 79.5 112l65.5 98l96 147q-4 1 -6 5l-1 3q-46 -3 -48 -4 q-18 -10 -45 -17l-120 -151l-116 -150q-15 -42 -25 -86q-7 -44 -1 -68q4 -31 24 -64q0 -5 12 -20q10 -11 27 -9zM469 593q10 0 10 9q0 2 -15 15q-15 14 -20 20l-39 59l-19 32q-9 14 -14 17q-10 6 -18 6h-6l-75 -63l-21 -12q-14 -9 -14 -17q0 -1 3 -4h17q1 0 6.5 3t18 8.5 l26.5 11.5l12 7q22 1 34 -3l36 -28q5 -6 26 -23l24 -22q17 -16 28 -16z" />
<glyph unicode="&#xef;" horiz-adv-x="277" d="M27 -8q33 5 50 16q23 18 37 30q46 19 66 49q105 169 134 202l9 23l-5 2l-25 -16q-24 -32 -57 -65q-2 -6 -2 -7q0 -2 2 -8l-43 -58q-41 -63 -69 -76q-8 -3 -60 -17q-7 3 -8 13q-6 31 0 62q16 34 29 54q28 34 79.5 112l65.5 98l96 147q-4 1 -6 5l-1 3q-46 -3 -48 -4 q-18 -10 -45 -17l-120 -151l-116 -150q-15 -42 -25 -86q-7 -44 -1 -68q4 -31 24 -64q0 -5 12 -20q10 -11 27 -9zM488 639q11 3 16 8q22 22 19 34q-4 13 -16.5 23t-27.5 10q-3 0 -9 -2q-8 -2 -19 -19q-10 -16 -7 -28q2 -10 17 -19.5t27 -6.5zM256 640q12 3 17 8q21 22 18 34 t-16 22t-27 10q-6 0 -9 -1q-8 -2 -19 -19q-10 -16 -7 -28q3 -10 17 -20t26 -6z" />
<glyph unicode="&#xf0;" horiz-adv-x="585" d="M834 1189l4 46l-22 -1l-6 -45l-32 -180l-123 -49v-23q92 36 113 40l-39 -143q-21 -74 -95 -229q-79 -164 -116 -219q-1 2 -28 29q-4 5 -4 23q0 8 -3 12q-2 -5 -4 -5q-1 0 -3 2t-2 0q0 -1 1 -3q-27 40 -66 36q-162 -21 -296 -165q-23 -23 -54 -73.5t-41 -63.5 q-3 -5 -13 -17.5t-14.5 -22.5t-2.5 -21q7 -2 12.5 3t11 13.5t8.5 10.5q1 -9 -0.5 -54t5.5 -50q5 -23 23.5 -41t37.5 -22q30 -6 64.5 3t55 19.5t56.5 32.5q22 -4 91 37q68 42 107 92q48 61 90 161q168 320 242 666q5 7 31 14l4 3l118 47v26q-41 -16 -68 -29q-33 -14 -67 -25z M369 448q1 4 11 4q-10 0 -11 -4zM465 431v-4q-9 3 -26 11.5t-31.5 13t-27.5 0.5q23 16 52 9q2 -1 7 -4t7.5 -5l6.5 -5t7 -7t5 -9zM458 377q-3 -5 -10 -5q-19 0 -22 -6q-1 -5 1 -14l16 -12q-5 -5 -2.5 -13.5t-2.5 -24.5l-14.5 -30.5l-11.5 -23.5q-7 -9 -21 -31 q-115 -169 -246 -224q-18 -5 -34 -5q-18 0 -32 11q-23 24 -16 64q48 123 174 266q2 1 7 5.5t7 6t6.5 4.5t7 4t7 3t8 2t8 -0.5t8.5 -1.5q3 -3 18 2q10 6 29 19.5t31 21t30 14.5t34 8q5 -5 8 -11.5t6.5 -15z" />
<glyph unicode="&#xf1;" horiz-adv-x="660" d="M701 428q-2 43 -20 70q-23 33 -65 33q-46 -1 -147 -72l-126 -93l-5 36q15 37 25 49q-14 8 -39 43q-22 32 -30 30h-27v-30q11 0 21 -8.5t11 -20.5q0 -23 -84 -135q-69 -93 -193 -244l-72 -105q21 -36 64 -35q45 1 56 12l342 411l20 17.5l14 12t5 4.5l70 61q39 33 90 35h25 q17 -5 20 -26q-41 -67 -117 -158q-78 -94 -94 -121q-38 -66 -37 -130q0 -20 14 -53q20 -42 42 -41l40 1l-1 30q-43 -6 -44 24q0 47 136 192q43 46 73 105q35 65 33 106zM259 507l-34 -1q-19 1 -122 -97q-105 -100 -112 -136q15 13 81 79q51 51 79 72q96 72 108 83zM751 711 l-5 3q-43 -25 -66 -25q-2 0 -17.5 6.5t-47.5 17t-69 17.5h-46.5t-38.5 -5.5t-32 -17.5q-47 -40 -52 -45q14 0 27 13q13 4 49 4q33 0 75 -16t46 -16h38q43 0 73 15q18 9 66 49z" />
<glyph unicode="&#xf2;" horiz-adv-x="389" d="M493 469q0 18 -11 40q-14 26 -34 26v-20q14 -14 17 -24v-27q0 -67 -75 -181q-69 -103 -164 -188q-98 -87 -155 -87q-20 0 -28 2q-22 9 -22 41q0 18 31 79q34 70 60 70q49 50 70 83q2 4 6.5 15l6.5 16t7.5 15.5t10.5 17.5t13 17t18 20l29 36l5 2q29 39 78 71q47 32 73 32 v26q-3 0 -16 3t-15 3q-48 0 -203 -90q-36 -21 -61 -51q-4 -5 -12 -9t-12 -6.5t-2 -5.5l-16 -20q-71 -77 -95 -175q-24 -99 -21 -103q-3 -61 25 -93q23 -29 66 -29q45 0 124 61q49 39 125 113q64 62 66 62q4 0 25 -8t25 -8q43 0 43 37q-3 1 -10 1q-3 0 -13 -1.5t-12 -1.5 q-16 0 -29 22q0 25 5 37q18 26 29 39q13 18 30 64q18 51 18 77zM244 749q0 -17 10 -36.5t20 -19.5q2 0 6.5 2t8.5 2l43 -32q52 -35 89 -50l17 5q-31 24 -81 76l-20 47q-5 5 -20 31q-9 16 -28 16q-5 0 -43 -23q-2 -4 -2 -18zM260 753h-6v14h6v-14z" />
<glyph unicode="&#xf3;" horiz-adv-x="389" d="M493 469q0 18 -11 40q-14 26 -34 26v-20q14 -14 17 -24v-27q0 -67 -75 -181q-69 -103 -164 -188q-98 -87 -155 -87q-20 0 -28 2q-22 9 -22 41q0 18 31 79q34 70 60 70q49 50 70 83q2 4 6.5 15l6.5 16t7.5 15.5t10.5 17.5t13 17t18 20l29 36l5 2q29 39 78 71q47 32 73 32 v26q-3 0 -16 3t-15 3q-48 0 -203 -90q-36 -21 -61 -51q-4 -5 -12 -9t-12 -6.5t-2 -5.5l-16 -20q-71 -77 -95 -175q-24 -99 -21 -103q-3 -61 25 -93q23 -29 66 -29q45 0 124 61q49 39 125 113q64 62 66 62q4 0 25 -8t25 -8q43 0 43 37q-3 1 -10 1q-3 0 -13 -1.5t-12 -1.5 q-16 0 -29 22q0 25 5 37q18 26 29 39q13 18 30 64q18 51 18 77zM585 749q0 14 -2 18q-38 23 -43 23q-19 0 -28 -16q-15 -26 -20 -31l-20 -47q-50 -52 -81 -76l17 -5q37 15 89 50l43 32q4 0 8.5 -2t6.5 -2q10 0 20 19.5t10 36.5zM575 753h-6v14h6v-14z" />
<glyph unicode="&#xf4;" horiz-adv-x="389" d="M493 469q0 18 -11 40q-14 26 -34 26v-20q14 -14 17 -24v-27q0 -67 -75 -181q-69 -103 -164 -188q-98 -87 -155 -87q-20 0 -28 2q-22 9 -22 41q0 18 31 79q34 70 60 70q49 50 70 83q2 4 6.5 15l6.5 16t7.5 15.5t10.5 17.5t13 17t18 20l29 36l5 2q29 39 78 71q47 32 73 32 v26q-3 0 -16 3t-15 3q-48 0 -203 -90q-36 -21 -61 -51q-4 -5 -12 -9t-12 -6.5t-2 -5.5l-16 -20q-71 -77 -95 -175q-24 -99 -21 -103q-3 -61 25 -93q23 -29 66 -29q45 0 124 61q49 39 125 113q64 62 66 62q4 0 25 -8t25 -8q43 0 43 37q-3 1 -10 1q-3 0 -13 -1.5t-12 -1.5 q-16 0 -29 22q0 25 5 37q18 26 29 39q13 18 30 64q18 51 18 77zM551 615q10 0 10 9q0 2 -15 15q-15 14 -20 20l-39 59l-19 32q-9 14 -14 17q-10 6 -18 6h-6l-75 -63l-21 -12q-14 -9 -14 -17q0 -1 3 -4h17q1 0 6.5 3t18 8.5l26.5 11.5l12 7q22 1 34 -3l36 -28q5 -6 26 -23 l24 -22q17 -16 28 -16z" />
<glyph unicode="&#xf5;" horiz-adv-x="389" d="M493 469q0 18 -11 40q-14 26 -34 26v-20q14 -14 17 -24v-27q0 -67 -75 -181q-69 -103 -164 -188q-98 -87 -155 -87q-20 0 -28 2q-22 9 -22 41q0 18 31 79q34 70 60 70q49 50 70 83q2 4 6.5 15l6.5 16t7.5 15.5t10.5 17.5t13 17t18 20l29 36l5 2q29 39 78 71q47 32 73 32 v26q-3 0 -16 3t-15 3q-48 0 -203 -90q-36 -21 -61 -51q-4 -5 -12 -9t-12 -6.5t-2 -5.5l-16 -20q-71 -77 -95 -175q-24 -99 -21 -103q-3 -61 25 -93q23 -29 66 -29q45 0 124 61q49 39 125 113q64 62 66 62q4 0 25 -8t25 -8q43 0 43 37q-3 1 -10 1q-3 0 -13 -1.5t-12 -1.5 q-16 0 -29 22q0 25 5 37q18 26 29 39q13 18 30 64q18 51 18 77zM650 711l-5 3q-43 -25 -66 -25q-2 0 -17.5 6.5t-47.5 17t-69 17.5h-46.5t-38.5 -5.5t-32 -17.5q-47 -40 -52 -45q14 0 27 13q13 4 49 4q33 0 75 -16t46 -16h38q43 0 73 15q18 9 66 49z" />
<glyph unicode="&#xf6;" horiz-adv-x="389" d="M493 469q0 18 -11 40q-14 26 -34 26v-20q14 -14 17 -24v-27q0 -67 -75 -181q-69 -103 -164 -188q-98 -87 -155 -87q-20 0 -28 2q-22 9 -22 41q0 18 31 79q34 70 60 70q49 50 70 83q2 4 6.5 15l6.5 16t7.5 15.5t10.5 17.5t13 17t18 20l29 36l5 2q29 39 78 71q47 32 73 32 v26q-3 0 -16 3t-15 3q-48 0 -203 -90q-36 -21 -61 -51q-4 -5 -12 -9t-12 -6.5t-2 -5.5l-16 -20q-71 -77 -95 -175q-24 -99 -21 -103q-3 -61 25 -93q23 -29 66 -29q45 0 124 61q49 39 125 113q64 62 66 62q4 0 25 -8t25 -8q43 0 43 37q-3 1 -10 1q-3 0 -13 -1.5t-12 -1.5 q-16 0 -29 22q0 25 5 37q18 26 29 39q13 18 30 64q18 51 18 77zM583 621q11 3 16 8q22 22 19 34q-4 13 -16.5 23t-27.5 10q-3 0 -9 -2q-8 -2 -19 -19q-10 -16 -7 -28q2 -10 17 -19.5t27 -6.5zM351 622q12 3 17 8q21 22 18 34t-16 22t-27 10q-6 0 -9 -1q-8 -2 -19 -19 q-10 -16 -7 -28q2 -10 16.5 -20t26.5 -6z" />
<glyph unicode="&#xf7;" horiz-adv-x="818" d="M776 485v37h-473q-4 0 -16.5 -5t-14.5 -5q12 -10 16 -28q2 -10 2 -16q10 0 9 3q19 8 250 7l82 4q85 1 145 3zM519 703q-13 0 -24 -13.5t-11 -23.5q0 -11 14 -25t23 -14q17 0 30 14t13 30q0 11 -27 28q-4 4 -18 4zM562 331q0 13 -3 18q-17 27 -29 27q-16 0 -29.5 -13 t-13.5 -30q0 -9 13.5 -23t24.5 -14t24 11t13 24z" />
<glyph unicode="&#xf8;" horiz-adv-x="508" d="M634 528q-3 4 -3 6h-9l-47 -45q-10 13 -25 13v-19q3 -4 9 -10l-351 -363l-75 -78q-1 5 -1 15q0 15 30 74q34 66 96 138q58 69 104 112q49 61 98 92q46 30 71 30v24q-3 0 -15 3t-15 3q-48 0 -199 -85q-149 -138 -183 -241q-34 -102 -31 -107q-3 -52 20 -83 q-35 -35 -48 -49l4 -4l1 -3q5 -5 4 -6q4 4 8 10l41 40q23 -20 59 -20q45 0 121 57q54 41 123 107q61 58 64 58q5 0 24 -8q18 -7 25 -7q42 0 42 35q-3 1 -9 1q-3 0 -13 -1.5t-12 -1.5q-16 0 -28 21q0 23 5 35l28 36q12 17 29 61q18 48 18 72q0 18 -10 35q47 50 50 53zM154 8 q-7 3 -14 8l427 441v-22q0 -63 -74 -170q-71 -102 -160 -177q-95 -82 -152 -82q-21 0 -27 2z" />
<glyph unicode="&#xf9;" horiz-adv-x="707" d="M793 532q-9 17 -52 17q-52 0 -71 -19l-314 -335q-49 -43 -71 -57q-93 -83 -113 -97q-2 -3 -6 -11q-5 -10 -5 -12h25q24 -2 188 159q8 8 26 18l8 -9v-15q0 -8 -10 -44q-9 -36 -9 -43q0 -40 20 -71q24 -33 65 -33q36 0 92 41l79 65q11 7 33 19q9 6 23 27q17 24 15 35 l-111 -84q-89 -66 -126 -66q-38 0 -38 30q0 34 145 209l181 213q26 32 26 63zM413 509q0 14 -24 23q-18 6 -36 6q-33 0 -44 -8q-94 -67 -271 -258l12 -48l-26 -53q-20 -75 -20 -92q0 -42 24.5 -70.5t58.5 -28.5q48 0 69 42q-28 -5 -62 -5l-18 -1q-14 3 -25 20q0 27 11 41 l190 231l83 94q78 92 78 107zM428 749q0 -17 10 -36.5t20 -19.5q2 0 6.5 2t8.5 2l43 -32q52 -35 89 -50l17 5q-31 24 -81 76l-20 47q-5 5 -20 31q-9 16 -28 16q-5 0 -43 -23q-2 -4 -2 -18zM773 215h-17q-17 -17 -15 -31h17q15 16 15 31zM444 753h-6v14h6v-14z" />
<glyph unicode="&#xfa;" horiz-adv-x="707" d="M793 532q-9 17 -52 17q-52 0 -71 -19l-314 -335q-49 -43 -71 -57q-93 -83 -113 -97q-2 -3 -6 -11q-5 -10 -5 -12h25q24 -2 188 159q8 8 26 18l8 -9v-15q0 -8 -10 -44q-9 -36 -9 -43q0 -40 20 -71q24 -33 65 -33q36 0 92 41l79 65q11 7 33 19q9 6 23 27q17 24 15 35 l-111 -84q-89 -66 -126 -66q-38 0 -38 30q0 34 145 209l181 213q26 32 26 63zM413 509q0 14 -24 23q-18 6 -36 6q-33 0 -44 -8q-94 -67 -271 -258l12 -48l-26 -53q-20 -75 -20 -92q0 -42 24.5 -70.5t58.5 -28.5q48 0 69 42q-28 -5 -62 -5l-18 -1q-14 3 -25 20q0 27 11 41 l190 231l83 94q78 92 78 107zM711 749q0 14 -2 18q-38 23 -43 23q-19 0 -28 -16q-15 -26 -20 -31l-20 -47q-50 -52 -81 -76l17 -5q37 15 89 50l43 32q4 0 8.5 -2t6.5 -2q10 0 20 19.5t10 36.5zM773 215h-17q-17 -17 -15 -31h17q15 16 15 31zM701 753h-6v14h6v-14z" />
<glyph unicode="&#xfb;" horiz-adv-x="707" d="M793 532q-9 17 -52 17q-52 0 -71 -19l-314 -335q-49 -43 -71 -57q-93 -83 -113 -97q-2 -3 -6 -11q-5 -10 -5 -12h25q24 -2 188 159q8 8 26 18l8 -9v-15q0 -8 -10 -44q-9 -36 -9 -43q0 -40 20 -71q24 -33 65 -33q36 0 92 41l79 65q11 7 33 19q9 6 23 27q17 24 15 35 l-111 -84q-89 -66 -126 -66q-38 0 -38 30q0 34 145 209l181 213q26 32 26 63zM413 509q0 14 -24 23q-18 6 -36 6q-33 0 -44 -8q-94 -67 -271 -258l12 -48l-26 -53q-20 -75 -20 -92q0 -42 24.5 -70.5t58.5 -28.5q48 0 69 42q-28 -5 -62 -5l-18 -1q-14 3 -25 20q0 27 11 41 l190 231l83 94q78 92 78 107zM773 215h-17q-17 -17 -15 -31h17q15 16 15 31zM700 614q10 0 10 9q0 1 -15 15t-20 20l-39 59l-19 32q-9 14 -14 17q-11 6 -18 6h-6l-75 -63l-21 -12q-14 -9 -14 -17q0 -1 3 -4h17q1 0 6.5 3t18 8.5l26.5 11.5l12 7q22 1 34 -3l36 -28 q5 -6 26 -23l24 -22q17 -16 28 -16z" />
<glyph unicode="&#xfc;" horiz-adv-x="707" d="M793 532q-9 17 -52 17q-52 0 -71 -19l-314 -335q-49 -43 -71 -57q-93 -83 -113 -97q-2 -3 -6 -11q-5 -10 -5 -12h25q24 -2 188 159q8 8 26 18l8 -9v-15q0 -8 -10 -44q-9 -36 -9 -43q0 -40 20 -71q24 -33 65 -33q36 0 92 41l79 65q11 7 33 19q9 6 23 27q17 24 15 35 l-111 -84q-89 -66 -126 -66q-38 0 -38 30q0 34 145 209l181 213q26 32 26 63zM413 509q0 14 -24 23q-18 6 -36 6q-33 0 -44 -8q-94 -67 -271 -258l12 -48l-26 -53q-20 -75 -20 -92q0 -42 24.5 -70.5t58.5 -28.5q48 0 69 42q-28 -5 -62 -5l-19 -1q-14 5 -24 20q0 27 11 41 l190 231l83 94q78 92 78 107zM726 621q11 3 16 8q22 22 19 34q-4 13 -16.5 23t-27.5 10q-3 0 -9 -2q-8 -2 -19 -19q-10 -16 -7 -28q2 -10 17 -19.5t27 -6.5zM494 622q12 3 17 8q21 22 18 34t-16 22t-27 10q-6 0 -9 -1q-8 -2 -19 -19q-10 -16 -7 -28q3 -10 17 -20t26 -6z M773 215h-17q-17 -17 -15 -31h17q15 16 15 31z" />
<glyph unicode="&#xfd;" horiz-adv-x="520" d="M683 534q0 2 -3 9.5t-3 9.5h-80q-7 0 -110 -92q-115 -107 -196 -173q-115 -93 -154 -93q-24 0 -24 18q0 22 56 72q86 75 104 96q56 62 56 117q0 24 -16 40t-42 16q-59 0 -144 -84q97 57 126 57q8 0 13.5 -5.5t4.5 -11.5q-9 -19 -70 -72q-71 -62 -100 -97 q-51 -61 -51 -109q0 -23 15 -41q19 -22 53 -22q53 0 149 63v-6q-25 -34 -41 -53q-51 -66 -69 -77q-44 -26 -126 -62q-85 -37 -122 -58q-197 -111 -197 -190q0 -50 74 -50q70 0 173 70q59 40 162 132q27 25 100 102q61 65 80 74q207 86 345 207h-19q-194 -124 -247 -142 l-14 13zM92 19q-57 -85 -136 -161q-106 -101 -173 -101q-15 0 -39 12l-2 2l-2.5 5t-1.5 7q0 9 6 16l9 9q26 59 137 128q85 53 178 90zM617 749q0 14 -2 18q-38 23 -43 23q-19 0 -29 -16q-17 -28 -19 -31l-20 -47q-50 -52 -81 -76l17 -5q37 15 89 50l43 32q4 0 8 -2t7 -2 q9 0 19.5 19.5t10.5 36.5zM693 353h-19q-13 -11 -5 -21q24 12 24 21zM118 456l-19 8l-6 -20q1 0 12 6t13 6zM607 753h-6v14h6v-14z" />
<glyph unicode="&#xfe;" horiz-adv-x="680" d="M699 988q-13 -4 -44.5 -1t-43.5 -7l-370 -502l-71 -87l-50 -49t-45.5 -32.5t-55.5 -18.5q-6 -1 -18 3.5t-16 -0.5q-2 -3 -1 -6l2 -4q19 -14 46.5 -15.5t51.5 11.5q2 -4 4 -15l-41 -52l-87 -113l-173 -217l-209 -268l65 1l14 14q41 60 148.5 179t148.5 179l205 275 q131 168 320 250l27 12q6 1 24 5.5t31.5 7t25.5 2.5q48 0 64 -39q8 -50 -40 -132l-100 -104q-43 -43 -70 -73q-43 -19 -75 -2q-24 13 -19 44q1 29 15.5 40.5t37 18.5t33.5 19q12 12 14 33q0 28 -22 40q-10 6 -14 -6l-2 8q-52 -8 -84 -67q-26 -42 -13 -94q27 -68 103 -56 q36 -4 70.5 2t53.5 13t57 23q10 6 60 39q97 71 151 144l-83 -79q-57 -45 -68 -52q-26 -10 -41 -11q-6 7 -3 18q48 40 64 63q16 26 20 39l22 51l8 27q2 33 -1 47q-12 39 -64 54q-132 22 -326 -73q-1 3 -3 8t-2 7l367 484q5 11 2 14zM381 196l10 4h-10v-4zM-407 -310q0 2 -2 2 h-4q4 -4 6 -2z" />
<glyph unicode="&#xff;" horiz-adv-x="476" d="M649 353h-19q-13 -11 -5 -21q24 12 24 21zM74 456l-19 8l-6 -20q1 0 12 6t13 6zM639 534q0 2 -3 9.5t-3 9.5h-80q-7 0 -110 -92q-115 -107 -196 -173q-115 -93 -154 -93q-24 0 -24 18q0 22 56 72q86 75 104 96q56 62 56 117q0 24 -16 40t-42 16q-59 0 -144 -84 q97 57 126 57q8 0 13.5 -5.5t4.5 -11.5q-9 -19 -70 -72q-71 -62 -100 -97q-51 -61 -51 -109q0 -23 15 -41q19 -22 53 -22q53 0 149 63v-6q-25 -34 -41 -53q-51 -66 -69 -77q-44 -26 -126 -62q-85 -37 -122 -58q-197 -111 -197 -190q0 -50 74 -50q70 0 173 70q59 40 162 132 q27 25 100 102q61 65 80 74q207 86 345 207h-19q-194 -124 -247 -142l-14 13zM48 19q-57 -85 -136 -161q-106 -101 -173 -101q-15 0 -39 12l-2 2l-2.5 5t-1.5 7q0 9 6 16l9 9q26 59 137 128q85 53 178 90zM632 621q12 3 17 8q23 23 18 34q-3 13 -15.5 23t-27.5 10 q-3 0 -9 -2q-8 -2 -19 -19q-10 -16 -7 -28q2 -10 16.5 -19.5t26.5 -6.5zM363 622q12 3 17 8q21 22 18 34t-16 22t-27 10q-6 0 -9 -1q-9 -2 -19 -19t-7 -28q2 -10 16.5 -20t26.5 -6z" />
<glyph unicode="&#x152;" horiz-adv-x="1342" d="M1175 1019q-24 54 -114 69q-120 11 -226.5 -27.5t-236.5 -117.5q-3 -1 -6 -8q-157 -105 -297.5 -248t-224.5 -295q-26 -51 -40.5 -105.5t-13 -117t26.5 -111.5q42 -51 91 -61q113 -6 164 19h-11q-4 0 -10 2q-12 -2 -35.5 -8t-42 -9t-36.5 -2q0 6 1 8q-42 6 -57 17 q-10 7 -9 14q1 4 -3 7.5t-14 7.5l-21 22q-24 57 17 160q6 4 6 25q22 50 68 132l2 4q79 136 245 335q104 112 196 185q152 113 304 147q40 8 67.5 11t65 3t67.5 -12t51 -36l-2 -5q3 -11 11.5 -32.5t10.5 -31.5t-1 -34q-11 -46 -53 -76t-88 -39q0 -1 -1 -6t-1 -6h5 q22 11 51.5 11t63.5 -3.5t54 -1.5q-15 -36 -21 -114q-152 -30 -256 10q16 65 13 106l-3 9q-3 5 -2 10q-15 75 -67 90q-47 6 -65 -22q-12 -16 -12 -42q0 -24 6 -47q6 -36 37.5 -67.5t68.5 -46.5q-12 -46 -40 -99q-6 -3 -2 -6q-135 -255 -373 -444l11 -15q75 62 198 187 q-22 -50 -21 -116.5t25 -114.5q66 -86 136 -86q157 -20 309 74q11 0 23.5 11.5t15.5 12.5q96 50 180 153v2q-67 -69 -119 -103h-2l37 42q22 30 35 63t16.5 72t-14.5 72q-23 38 -78 47q-134 15 -257 -93l-19 -19t-23 -25t-14 -23v8q-50 -64 -90 -161q2 0 6.5 -1.5t8.5 -1.5 q21 45 41 80.5t48 75t63 69t75 46.5q97 53 182 25q22 -8 37.5 -27t17.5 -42q14 -132 -136 -237q-26 -21 -73 -46q-131 -44 -217 -47v-10q58 3 164 27q-7 -3 -53 -17q-74 -20 -135 -19q-32 1 -65 14q-31 12 -62 58q-9 39 -9 42q-3 97 38 180.5t119 165.5q36 37 73 68 q85 70 229 97q14 -41 27 -61q21 -40 69 -45q36 0 55 22q20 29 0 67q-27 37 -93 37q-24 0 -36 -1q-6 12 0 27q217 49 348 148l98 13v7l-37 -5.5t-47 -4.5l41 35q52 46 78 90.5t10 96.5q-32 48 -123 30q-204 -51 -322 -187q-19 12 -57 46q-8 10 -10 37t-10 37zM1690 1038 q2 -33 -16 -66.5t-35.5 -51.5t-54.5 -51l-46 -38q-66 -8 -131 -3q-9 4 -51 14t-61 27q149 188 317 209q57 5 78 -40zM1521 819q-144 -93 -313 -123q14 53 37 90q23 38 24 42l4 12l13 3l40 -3q65 -31 195 -21zM1178 672v-25q-69 -15 -117 -32q-53 -17 -125 -63 q-10 -6 -93 -78q-9 -4 -15 -2l-4 15l50 97l45 97q105 -33 259 -9zM896 861q7 -10 17 -39l3 -15q7 -56 -14 -99q-33 14 -60.5 42t-35.5 61q-4 15 -4 37q0 20 11 34q15 20 43 17q29 -9 40 -38zM1311 613l12 -18q9 -29 -10 -45q-15 -15 -47 -9q-45 15 -60 89q64 13 105 -17z M1231 871l-29 -55q-38 -2 -58 -2h-57q30 10 59 40t36 62zM445 95v3q-4 -3 -8 -4t-11 0t-9 1l-24 -18l8 -2q29 0 44 20z" />
<glyph unicode="&#x153;" horiz-adv-x="996" d="M544 538q-8 21 -39 34q-18 3 -35 3.5t-35.5 -3l-32.5 -6t-34 -11t-30.5 -12.5t-32.5 -16l-29.5 -16l-30.5 -17q-135 -101 -193 -207l-7 -20q-19 -40 -19 -63q1 -13 -1.5 -39t-2.5 -32q0 -17 3 -33q4 -16 31 -50l29 -19q10 0 33.5 -1.5t40 -1t30.5 5.5q41 25 127 49 t122 43q14 -78 61 -95q67 -9 133 5t117.5 40.5t111 76t100 91.5l98.5 107v23q-58 -63 -100.5 -105t-99 -89.5t-114 -79t-117.5 -46.5q-69 -9 -78 -9q-47 0 -69 31q-13 34 8 79q80 44 180 156q55 9 83 14.5t70 21.5t74 40q85 65 72 141q-12 36 -60 46q-90 9 -177 -31 t-183 -115q20 58 -4 110zM655 307q-50 -51 -131 -116l-14 10q19 40 64 100q14 0 41 3t40 3zM440 239l-5 -63q2 -36 -26 -50q-48 -18 -126 -38q73 58 157 151zM925 544q17 -17 11 -50q-25 -55 -69.5 -85.5t-107.5 -53.5q-70 -21 -92 -22q-26 -2 -40 0q-18 2 -26 1l51.5 61 t50 53.5t57.5 52t58 34.5t67 22q23 5 40 -13zM532 521q4 -15 5 -29t-2.5 -29.5t-5 -25t-10.5 -27.5l-11.5 -23t-14 -25.5t-12.5 -22.5q-111 -174 -271 -267q-48 -18 -42 -18q-56 -24 -80 6q-20 19 -14 62q56 143 231 324q36 34 56 51t54.5 36.5t65.5 23.5q32 5 51 -36z" />
<glyph unicode="&#x160;" horiz-adv-x="731" d="M108 681q19 -30 33 -55l-27 62q-3 18 -3 54q10 27 18 61l38 51q16 20 34 49q3 4 11 4q3 3 3 11l129 97q16 9 37 19l38 17q37 11 75 18l76 18q128 5 146 5q26 1 99 -2l-3 3l-1 2v3q-85 6 -90 6q-44 -3 -119 -11l-115 -10l-100 -32q-73 -35 -104 -47q-57 -42 -100 -83 q-36 -51 -46 -67q-22 -56 -26 -69q-3 -36 -3 -104zM-205 66q14 -8 24 -20l-24 46q-3 18 -3 47q5 5 14 17q27 -7 47 -21h28q20 16 29 32q-4 7 -4 21q-12 14 -20 22l-23 22q-39 -21 -60 -29q-18 -26 -29 -57q4 -12 4 -40q16 -32 17 -40zM-61 -8h14q2 2 7.5 9t7.5 9 q-21 10 -29 11q-9 -5 -18 -11q-11 3 -27 3q4 -1 34 -11q6 -1 11 -10zM-122 13h11l-43 21q-3 -3 -5 -3h-3q25 -13 40 -18zM304 526h18q-24 7 -35 7q4 -2 8 -3.5t6 -2.5t3 -1zM1029 655q-15 -7 -35 -13q13 0 35 13zM1109 910q0 8 3 11v-2q1 -1 3 -5h-2zM236 548h8q-7 1 -8 0z M144 620l-3 6zM-180 45l-1 1zM749 569q-24 -31 -24 -36q-12 -19 -19 -39q-9 -11 -25 -33l-22 -31q-132 -101 -157 -116q-4 -3 -4 -10q-10 -7 -32 -15v-7l122 61v-11q-92 -107 -181 -186q-71 -47 -109 -69q-81 -34 -129 -50q-81 -15 -104 -17l-7 -14q7 -4 17 -4h43q2 2 7.5 9 t7.5 9q24 4 53 11l136 42q17 11 54 25q177 111 212 158q26 32 39 51l126 161q15 12 68 58q45 52 72 86q50 15 68 21q4 4 4 11q-20 -6 -58 -22q-2 2 -4 6l-2 2q6 34 6 35l26 26l133 36l129 47q39 21 97 46v-7l-74 -47q-82 -50 -119 -68l-48 -22v-7l38 16q38 15 101 52 l51.5 30.5l35 20.5t11.5 7q30 24 57 48l55 49l46 71q3 21 3 51q-7 10 -13 28q-6 4 -30 19h-57q-79 -23 -101 -36q14 4 31 9.5l29 9.5t19 6q29 3 73 3q7 -3 21 -11q-3 -3 -11 -3q-6 0 -50 3q-42 -13 -68 -17q-95 -48 -100 -50q-42 -31 -69 -47q-2 1 -5 4l-3 3l122 83 q-2 2 -4 2l-2 1l-169 -104l-90 -72l-70 -75q-23 -25 -70 -72q5 -4 11 -7zM1281 1296q10 -1 7 -10q-5 -5 -20 -13q-5 -3 -11 -6t-9.5 -5t-5.5 -3l-25.5 -22.5t-20.5 -18t-10 -9.5l-28 -27q-13 -12 -19 -14q-11 -4 -20 -2l-5 1l-51 77l-16 16q-10 11 -8 20q0 1 5 3l16 -4 q1 0 5.5 -3.5t14.5 -12.5t21 -17l9 -9q22 -5 33 -4l44 20q14 9 32 17l30 17q23 11 32 9z" />
<glyph unicode="&#x161;" horiz-adv-x="363" d="M345 269q9 43 -24 126q-33 58 -31 102q-3 18 25 60l22 45l-24 -5q-18 -19 -48 -57q-6 -6 -42 -61q-15 -20 -19 -32l-91 -119l-24 -31l-40 -42l-37 -55q0 -1 3 2l6 7q5 4 15 20t14 20q117 130 142 162q32 42 33 54l23 14q20 9 23 -5l12 -67l-5 -68l-27 -114 q-7 -28 -25 -62q-21 -37 -36 -59q-8 -12 -49 -65q-18 -28 -38 -39l-39 -21l-57 -10q43 -3 80 14q6 5 40 15q22 8 37 20q8 6 52 44q66 48 104 114l12 29zM-69 28q28 -45 75 -59q-5 2 -32 21q20 29 34 32l10 16l-6 33q-4 22 -16 25q-12 4 -33 -4q-22 -8 -23 -21q1 -4 -4 -22 t-5 -21zM483 795q10 -1 7 -10q-5 -5 -20 -13q-5 -3 -11 -6t-9.5 -5t-5.5 -3l-25.5 -22.5t-20.5 -18t-10 -9.5l-28 -27q-13 -12 -19 -14q-11 -4 -20 -2l-5 1l-51 77l-16 16q-10 11 -8 20q0 1 5 3l16 -4q1 0 5.5 -3.5t14.5 -12.5t21 -17l9 -9q22 -5 33 -4l44 20q14 9 32 17 l30 17q23 11 32 9z" />
<glyph unicode="&#x178;" horiz-adv-x="929" d="M1414 911l-12 13l-68 -2q-9 0 -42 -34l-16.5 -17l-19 -20.5t-16.5 -17.5l-139 -143l-206 -183q-8 -5 -49 -50q-33 -35 -52 -46q-25 -4 -38 -3q-24 -16 -34 -27l-86 -69q0 -18 -6 -31q-53 -29 -90 -53q-4 -13 -3 -17q13 4 36 16q26 14 31 14q9 0 12 -3v-18q0 -7 -14 -35 t-22 -36q-6 -5 -25 -13.5t-25 -14.5l15 -34q-191 -183 -391 -186v-18l60 1q4 -1 16 3.5t14 4.5q25 0 91 21q69 21 112 43q29 9 36 18q58 40 96 59q55 38 201 163l75 61q27 9 30 12q3 4 33 -2q21 -3 59 -9q0 -4 18 -1q19 3 18 18l-20 12q-25 9 -37 21q-36 28 -37 27 q-17 8 -17 21q0 5 0.5 7t3.5 4l4 2l11 12zM829 889q-5 200 -236 196q-13 0 -79 -2v-19q17 0 38 0.5t32 1t17 0.5q187 3 188 -148q1 -34 -1 -41q-26 -72 -128 -166l-187 -163q-107 -95 -149 -176q-10 -22 -21 -54q-10 -30 -10 -41q1 -23 18 -48q9 -13 29 -39q0 -1 3.5 -3.5 t8.5 -5t9 -2.5h16v18q-49 15 -49 61q-1 49 130 159q199 167 243 214q130 138 128 258zM721 917l-11 5q-10 -4 -48 -48q-28 -30 -53 -52.5t-28 -25.5q-63 -62 -182 -118q-123 -58 -209 -59q-46 0 -81 20q-41 25 -43 73q-1 100 150 212q137 102 278 131l-1 18h-20 q-5 0 -75 -24q-121 -43 -221 -121q-136 -106 -135 -214q1 -121 177 -118q129 1 262 83q143 87 240 238zM111 91q0 22 -17 40t-40 18q-45 -2 -67 -53q-17 -40 -16 -73q1 -60 27 -89q9 -9 37 -27q27 -17 34 -16h16l-1 18q-87 29 -89 100q0 41 21 51q30 -19 49 -18q47 0 46 49z M528 215h-26q-12 0 -41 -16v-18h21q11 0 27 12t19 22zM445 176v18l-57 -1v-18zM1255 1002q11 3 16 8q22 22 19 34q-4 13 -16.5 23t-27.5 10q-3 0 -9 -2q-8 -2 -19 -19q-10 -16 -7 -28q2 -10 17 -19.5t27 -6.5zM1041 1003q12 3 17 8q21 22 18 34t-16 22t-27 10q-6 0 -9 -1 q-8 -2 -19 -19q-10 -16 -7 -28q2 -10 16.5 -19.5t26.5 -6.5z" />
<glyph unicode="&#x17d;" horiz-adv-x="844" d="M1335 1043q0 37 -49 37q-48 0 -137 -60q-44 -31 -144 -113q-73 -61 -84 -61q-8 0 -29 -7t-28 -7h-7l-1 1l1 2q-10 0 -19.5 0.5t-14 1t-5.5 0.5q-8 0 -19 8t-11 15q0 6 16 28t16 52l-2 24q-2 18 -42 51t-61 33q-7 0 -14 -7q46 -46 46 -50q0 -6 -21 -51t-21 -50 q0 -8 -3 -23q-2 -15 22 -43q60 -10 73 -13q-53 -43 -72 -67l-35 -55q-18 -21 -47 -47t-36 -26q-4 0 -13.5 2.5t-12.5 2.5q-29 0 -103 -16q-46 -9 -107 -75l48 4q74 37 82 37t16.5 -10.5t8.5 -17.5q0 -13 -156 -170l-174 -169q-14 -14 -48 -30l-282 -147q-3 -2 -5.5 -4 l-4.5 -3.5t-4.5 -5.5t-4 -6t-6.5 -9.5t-8 -12.5q1 -22 34 -22h55q40 0 159 91l83 62.5l57 42.5l15 11q11 1 28 12q19 14 69 35q42 16 129 45q10 0 26 -22l6 -38q-1 -15 -12 -26q-27 -6 -50 -53q-22 -46 15 -96t78 -63q35 -4 104 -9q82 9 154 46q55 61 86 120q31 38 25 55 t-6 26q-168 -161 -189 -161l-12 4q-5 67 -5 70q0 6 17 32q18 27 21 38l8 29q0 13 -13 38q-13 27 -25 31q-2 0 -11 3l-29.5 9.5l-41.5 13.5q-77 24 -81 20q-5 -3 -31 -3q-4 0 -47 8l208 176l11 -4q5 1 61 1q37 0 58 9q67 27 107 88q-2 2 -20 0q-13 -2 -12 -5l-54 -35 q-27 -4 -47 -4q-13 0 -19 11l50 68q47 59 70 59q4 0 19 -7t17 -7q4 0 27 5q25 5 32 6q19 35 19 54q0 10 -17 18.5t-31 8.5q-2 0 -15 -3.5t-17 -3.5q-5 0 -7 1q45 45 58 50q63 20 120 35q50 17 141 68q127 72 127 119zM1312 1039q0 -16 -55 -53l-70 -45l-89 -47 q-76 -28 -78 -30q-7 3 -11 7q14 27 125 106q116 85 152 85q9 0 17.5 -7.5t8.5 -15.5zM696 1040v12q-51 14 -119 14q-44 0 -81 -8l-32 -3q-76 -23 -97 -32q-59 -19 -123 -84q-67 -68 -67 -121q0 -3 26 -55q2 5 3.5 10.5t1.5 6.5q-14 36 -7 58q29 99 150 157q111 53 237 53 q26 0 108 -8zM678 31q-52 -39 -69 -39l-13 4q-13 3 -17 1q-11 11 -11 18t33 35l58 47q-4 -5 -4 -14q0 -21 23 -52zM457 709v17h-20q-9 0 -44 -7q-37 -6 -43 -6q-24 0 -56 7q-35 8 -40 14q-4 6 -11 6l-13 -4q7 0 14 -7l8 -8q38 -26 97 -26q2 0 13 1.5t39 5t56 7.5zM654 827 h-16q-101 -72 -148 -99h20q13 -1 125 69q19 12 19 30zM1180 1270q10 -1 7 -10q-5 -5 -20 -13q-5 -3 -11 -6t-9.5 -5t-5.5 -3l-25.5 -22.5t-20.5 -18t-10 -9.5l-28 -27q-13 -12 -19 -14q-11 -4 -20 -2l-5 1l-51 77l-16 16q-10 11 -8 20q0 1 5 3l16 -4q1 0 5.5 -3.5 t14.5 -12.5t21 -17l9 -9q22 -5 33 -4l44 20q14 9 32 17l30 17q23 11 32 9z" />
<glyph unicode="&#x17e;" horiz-adv-x="497" d="M-328 -454q35 9 85 12q56 17 121 39q68 33 181 110q34 32 49 45q104 98 162 158q92 137 104 222q10 7 24 7q20 -17 46 -30q4 6 13 6q-27 21 -46 39l112 90q18 22 61 52l-9 5l-139 -102q-25 -12 -64 -34q-24 19 -43 30q-27 15 -47 25q-78 -10 -96 -12q-17 -2 -41 0 q3 8 3 20l203 188l48 18l49 18l90 56q8 20 12 24q-5 5 -6 14q-15 3 -33 2q-48 -42 -94 -74l-41 -18l-42 -18q-21 2 -42 0q-26 0 -38 -1q-5 5 -4 11q0 1 1.5 5.5l3.5 11t5 14.5q-19 30 -22 37q-14 4 -33 2l-23 -16q-12 -19 -29 -51q-3 -17 -1 -47l-145 -141q3 1 9.5 3.5 t9.5 3.5q57 57 136 129q30 12 46 14q59 -7 73 -8q8 -10 10 -13l-59 -60q-47 -47 -101 -96l-91 -80l-69 -77q7 -3 24 -3q106 66 189 112q64 10 104 13q6 -13 16 -17q-27 -13 -32 -13q-29 -27 -68 -101l-62 -52l-381 -217q-63 -49 -95 -71q-73 -64 -70 -125q13 -49 76 -59z M-324 -439q-52 15 -61 51q16 40 28 60q38 35 66 67l111 74l115 74l222 117h1q1 1 5.5 4t10.5 6q20 11 26 11q10 -1 9 -21q0 -12 -3 -19l-85 -111q-75 -98 -223 -225q-120 -67 -128 -72q-67 -10 -94 -16zM603 728q10 -1 7 -10q-5 -5 -20 -13q-5 -3 -11 -6t-9.5 -5t-5.5 -3 l-25.5 -22.5t-20.5 -18t-10 -9.5l-28 -27q-13 -12 -19 -14q-11 -4 -20 -2l-5 1l-51 77l-16 16q-10 11 -8 20q0 1 5 3l16 -4q1 0 5.5 -3.5t14.5 -12.5t21 -17l9 -9q22 -5 33 -4l44 20q14 9 32 17l30 17q23 11 32 9z" />
<glyph unicode="&#x192;" horiz-adv-x="398" d="M-466 -237q-50 6 -97 7q-39 10 -85 26q-26 18 -52 43q-6 -2 -8 -2q-14 0 -27 24q0 13 -2 37l-2 40q10 25 17 46q23 13 75 29q11 -3 34 -15q2 -5 19 -33q0 -23 -6 -51q-27 -17 -72 -50q0 -16 -3 -24q18 -18 35 -31l26 -11q9 -3 25 -11q86 -5 126 -11q121 15 226 50 q47 8 162 75q111 65 170 130q54 60 217 315q-14 9 -5 25h-139q-7 0 -5 10q2 9 10 9h148l18 21l54.5 67.5l54 66t58.5 68.5l55.5 59.5t57.5 55t52 40t51.5 29.5t44.5 9q37 0 54.5 -23t6.5 -65q-7 -27 -26.5 -46.5t-46.5 -19.5q-13 0 -19 7.5t-4 18.5q6 21 33 32t32 30 q7 21 -4.5 34t-33.5 13q-20 0 -45 -13.5t-52.5 -40t-52.5 -54.5t-55.5 -68l-50.5 -67.5l-48 -67.5l-39 -55l14 -12q13 -12 18 -19h73q7 0 5 -9q-2 -10 -10 -10h-105q-184 -322 -280 -400q-99 -90 -290 -154q-60 -14 -127 -35q-74 -4 -180 -19z" />
<glyph unicode="&#x2c6;" horiz-adv-x="543" d="M441 625q10 0 10 9q0 2 -15 15q-15 14 -20 20l-39 59l-19 32q-9 14 -14 17q-10 6 -18 6h-6l-75 -63l-21 -12q-14 -9 -14 -17q0 -1 3 -4h17q1 0 6.5 3t18 8.5l26.5 11.5l12 7q22 1 34 -3l36 -28q5 -6 26 -23l24 -22q17 -16 28 -16z" />
<glyph unicode="&#x2dc;" horiz-adv-x="585" d="M571 714v20q-12 0 -30 -2.5t-20 -2.5q-7 0 -40 12q-35 13 -57 19q-32 8 -88 8q-8 0 -36 -22q-14 -11 -42 -35v-20l8 -7q24 11 34 11q5 0 70 -17q61 -16 70 -16q76 0 131 52z" />
<glyph unicode="&#x2000;" horiz-adv-x="673" />
<glyph unicode="&#x2001;" horiz-adv-x="1347" />
<glyph unicode="&#x2002;" horiz-adv-x="673" />
<glyph unicode="&#x2003;" horiz-adv-x="1347" />
<glyph unicode="&#x2004;" horiz-adv-x="449" />
<glyph unicode="&#x2005;" horiz-adv-x="336" />
<glyph unicode="&#x2006;" horiz-adv-x="224" />
<glyph unicode="&#x2007;" horiz-adv-x="224" />
<glyph unicode="&#x2008;" horiz-adv-x="168" />
<glyph unicode="&#x2009;" horiz-adv-x="269" />
<glyph unicode="&#x200a;" horiz-adv-x="74" />
<glyph unicode="&#x2010;" horiz-adv-x="685" d="M598 488q0 9 5 17l-16 15q-317 -3 -394 -3q0 -16 -5 -27q-3 -8 0 -11q20 2 30 4q38 -5 63 -3l58 2q84 0 125 1q6 0 22.5 1t48.5 2zM470 482q52 -1 92 1h-98l-5 -1h11z" />
<glyph unicode="&#x2011;" horiz-adv-x="685" d="M598 488q0 9 5 17l-16 15q-317 -3 -394 -3q0 -16 -5 -27q-3 -8 0 -11q20 2 30 4q38 -5 63 -3l58 2q84 0 125 1q6 0 22.5 1t48.5 2zM470 482q52 -1 92 1h-98l-5 -1h11z" />
<glyph unicode="&#x2012;" horiz-adv-x="685" d="M598 488q0 9 5 17l-16 15q-317 -3 -394 -3q0 -16 -5 -27q-3 -8 0 -11q20 2 30 4q38 -5 63 -3l58 2q84 0 125 1q6 0 22.5 1t48.5 2zM470 482q52 -1 92 1h-98l-5 -1h11z" />
<glyph unicode="&#x2013;" horiz-adv-x="495" d="M439 289q2 8 3 11l-10 10q-174 1 -271 3l-139 3q0 -10 -1 -12q0 -2 -0.5 -5.5t-1.5 -5.5q13 0 19 1q50 -3 77 -3q61 -1 115.5 -2.5t78 -2t24.5 -0.5q-7 1 -14 1q10 2 120 2z" />
<glyph unicode="&#x2014;" horiz-adv-x="1008" d="M935 289q2 8 3 11l-10 10q-624 2 -720 3l-139 3q0 -10 -1 -12q0 -2 -0.5 -5.5t-1.5 -5.5q13 0 19 1q49 -3 77 -3q123 -1 237 -1.5t188.5 -1.5t131 -1.5t83 -0.5h27.5q-7 1 -14 1q10 2 120 2z" />
<glyph unicode="&#x2018;" horiz-adv-x="234" d="M141 674q-2 17 5 37.5t16 23.5q3 0 8 -2t8 0l37 37q46 43 81 62l18 -2q-21 -23 -70 -87l-12 -50q-2 -3 -15 -33q-8 -17 -26 -20q-5 0 -45 17q-3 1 -5 17zM158 673l-6 -1l2 -14l5 1z" />
<glyph unicode="&#x2019;" horiz-adv-x="403" d="M479 829q-5 14 -8 16q-41 7 -49 5q-17 -8 -20 -25q-4 -26 -7 -36q-2 -40 -1 -51q-28 -67 -48 -101l18 2q30 28 64 79q2 4 12.5 20.5t15.5 25.5q4 2 9 1t7 1q9 3 11 25t-4 38zM468 829l-5 -3l-5 13l5 3z" />
<glyph unicode="&#x201a;" horiz-adv-x="159" d="M81 47q0 11 -2 13q-26 17 -31 17q-14 0 -21 -12q-11 -21 -14 -22q-12 -28 -14 -34q-32 -33 -59 -56l12 -3q69 37 96 59q3 0 6 -1.5t5 -1.5q7 0 14.5 14.5t7.5 26.5zM74 50h-5v10h5v-10z" />
<glyph unicode="&#x201c;" horiz-adv-x="369" d="M244 674q-2 17 5 37.5t16 23.5q3 0 8 -2t8 0l37 37q46 43 81 62l18 -2q-21 -23 -70 -87l-12 -50q-1 -3 -15 -33q-8 -17 -26 -20q-5 0 -45 17q-3 1 -5 17zM261 673l-6 -1l2 -14l5 1zM88 674q-2 17 5 37.5t16 23.5q3 0 8 -2t8 0l37 37q46 43 81 62l18 -2q-21 -23 -70 -87 l-12 -50q-1 -3 -15 -33q-8 -17 -26 -20q-5 0 -45 17q-3 1 -5 17zM105 673l-6 -1l2 -14l5 1z" />
<glyph unicode="&#x201d;" horiz-adv-x="395" d="M469 829q-5 14 -8 16q-41 7 -49 5q-17 -8 -20 -25q-4 -26 -7 -36q-2 -40 -1 -51q-28 -67 -48 -101l18 2q30 28 64 79q2 4 12.5 20.5t15.5 25.5q4 2 9 1t7 1q9 3 11 25t-4 38zM458 829l-5 -3l-5 13l5 3zM310 829q-5 14 -8 16q-41 7 -49 5q-17 -8 -20 -25q-4 -26 -7 -36 q-2 -40 -1 -51q-28 -67 -48 -101l18 2q30 28 64 79q2 4 12.5 20.5t15.5 25.5q4 2 9 1t7 1q9 3 11 25t-4 38zM299 829l-5 -3l-5 13l5 3z" />
<glyph unicode="&#x201e;" horiz-adv-x="340" d="M279 47q0 11 -2 13q-26 17 -31 17q-14 0 -21 -12q-11 -21 -14 -22q-12 -28 -14 -34q-32 -33 -59 -56l12 -3q69 37 96 59q3 0 6 -1.5t5 -1.5q7 0 14.5 14.5t7.5 26.5zM126 47q0 11 -2 13q-26 17 -31 17q-13 0 -21 -12q-11 -21 -14 -22q-12 -28 -14 -34q-32 -33 -59 -56 l12 -3q69 37 96 59q3 0 6 -1.5t5 -1.5q7 0 14.5 14.5t7.5 26.5zM272 50h-5v10h5v-10zM119 50h-5v10h5v-10z" />
<glyph unicode="&#x2020;" horiz-adv-x="817" d="M1044 890q-14 11 -50 -6q-43 -34 -81 -86l-75.5 -106t-76.5 -89q-17 0 -48 3t-44 3q-22 2 -73.5 8t-74 7t-74.5 -3q-15 -2 -22 -3.5t-17 -8.5t-11 -18q2 -11 11 -13q64 -11 176.5 2.5t162.5 10.5v-3l-226 -247l-272 -271q-14 0 -48 -37l5 -10q-48 -54 -58 -73 q-7 -16 -2 -22q23 -2 38 7q30 19 62 50.5t48.5 52l48.5 61.5q25 24 29 35v2q91 119 118 151l214 235l18 26h1q9 7 21.5 22t20.5 21q45 1 142.5 -11.5t151.5 -8.5q7 2 20 4.5l21 4t17.5 7t15.5 13.5q2 14 -6 15q-7 4 -16 6t-15.5 2t-19 -0.5t-17.5 -0.5l-222 -19h-59 q25 36 59.5 70.5t82.5 76t68 60.5l17.5 17.5t19 20.5t12 19t7.5 23z" />
<glyph unicode="&#x2021;" horiz-adv-x="843" d="M984 891h-7q-13 -4 -26 -13.5t-22.5 -18l-32.5 -30.5q-17 -18 -41 -49.5l-27 -35.5q-8 -9 -4 -11q-67 -92 -107 -134q-42 -2 -152 13t-169 2q-2 -1 -12 -3.5t-14.5 -4.5t-9.5 -8t-5 -14q2 -3 24 -10q44 -3 57 -3.5t57.5 3l57.5 4.5q26 2 74 -2.5t65 -4.5l-307 -338 q-103 6 -219 17l-62 2q-5 -1 -16.5 -2t-17.5 -2t-15.5 -3.5t-16.5 -7t-13 -11.5q-6 -13 4 -17q25 -10 64 -10l241 21h38q-36 -47 -128 -131t-129 -137q-8 -14 -3 -17q19 -4 38 3.5t28.5 16t29 30t24.5 26.5l113 156l46 51q48 5 129 -6.5t106 -12.5q45 0 83 6q35 11 42 21 q0 14 -4 15q-26 13 -81 9q-178 -14 -262 -17l311 343l4 4q2 3 7 8q30 1 104 -7q68 -7 102 -12q39 -3 71 -2q8 2 26 4.5t33 7.5t26 16q7 9 -2 13q-35 16 -122 10q-2 6 -38 1q-9 -1 -15.5 -2t-11 -2t-6 -1.5t-1.5 -1.5q-95 -13 -153 -13q46 59 73 81q9 8 16 17l96 83q8 5 8 9 q30 24 45 44q2 5 8 14t9.5 17t3.5 16q0 6 -12 11z" />
<glyph unicode="&#x2022;" horiz-adv-x="334" d="M234 363q31 0 54 22t23 52q0 82 -71 82q-32 0 -56.5 -24.5t-24.5 -57.5q0 -23 26 -49q25 -25 49 -25z" />
<glyph unicode="&#x2026;" horiz-adv-x="842" d="M235 201q0 29 -9 42q-34 57 -61 57q-32 0 -64 -29q-31 -28 -31 -63q0 -20 29 -52q30 -32 55 -32q18 0 50 24q31 24 31 53zM498 201q0 29 -9 42q-35 57 -61 57q-32 0 -64 -29q-31 -28 -31 -63q0 -20 29 -52q30 -32 55 -32q19 0 50 24t31 53zM781 201q0 29 -9 42 q-34 57 -61 57q-32 0 -64 -29q-31 -28 -31 -63q0 -20 29 -52q30 -32 55 -32q18 0 50 24q31 24 31 53z" />
<glyph unicode="&#x202f;" horiz-adv-x="269" />
<glyph unicode="&#x2030;" horiz-adv-x="798" d="M586 238q-22 36 -36 34q-17 2 -64 -3q-16 -6 -30 -16q-18 -6 -45 -6q-18 0 -37 6t-23 6t-12 -5q-12 -8 -13 -9q-13 -26 -18 -53q-3 -16 -12 -23q15 -6 15 -18q0 -10 -4 -17q-8 -15 -19 -32q-6 -15 -6 -39q0 -29 3 -39q7 -19 28 -35t41 -16q2 0 11.5 3t11.5 3q3 0 5 3t4 3 q22 0 89 48q52 48 79 79q3 13 20 46q15 28 15 50q0 14 -4 26q-1 2 1 4zM382 488q0 65 -89 65q-44 0 -70 -17q-49 -32 -81 -49q-41 -37 -57 -64q-32 -56 -33 -85q2 -34 21 -54q0 -10 4 -4q2 4 3 5q9 -17 57 -17q57 0 133 63q71 59 97 123zM358 495q0 -6 -11 -33 q-19 -45 -43 -71q-102 -106 -165 -106q-19 0 -28 10q1 12 1 27q22 54 87 121q61 63 98 79q9 4 36 4q11 0 18 -10.5t7 -20.5zM566 193q-25 -72 -89 -133q-67 -63 -120 -63q-20 0 -21 1q-7 3 -7 21q0 38 100 147l37 34q19 15 44 25l29 13q7 -3 13 -3q16 -24 14 -42zM602 540 q-3 4 -3 7h-11l-375 -368l-24 -29l5 -1l-1 -1l-150 -155q2 -2 3 -5l2 -3l178 168q2 0 4 -3zM411 230q-23 -12 -32 -18q1 12 -3 19q4 1 10.5 3t10.5 3t7 1q7 -7 7 -8zM369 212l-6.5 4.5t-4.5 3.5q2 0 6 2l5 1v-11zM887 180q0 65 -89 65q-46 0 -149 -69l-59 -61 q-10 -25 -13 -32q-15 -15 -25 -39q-6 -17 4 -47l22 -21q4 -3 7 1q9 -17 57 -17q56 0 133 63q71 59 97 123zM863 187q0 -6 -11 -33q-19 -45 -43 -71q-102 -106 -165 -106q-19 0 -28 10q1 12 1 27q22 54 87 121q61 63 98 79q9 4 36 4q11 0 18 -10.5t7 -20.5z" />
<glyph unicode="&#x2039;" horiz-adv-x="458" d="M448 561q0 4 -6 11.5t-12 7.5q-4 0 -29 -28q-30 -33 -43 -43q-87 -58 -122 -79l-65 -39q-22 -14 -34 -29q-14 -20 -14 -38q0 -10 1 -13q101 -119 128 -153q32 -47 41 -64q8 -8 18 -8q2 0 10 8v33q0 5 -30 66q-7 15 -17 40l-15 24q-3 44 6 70l57 72q19 16 48 54l45 50 q33 37 33 58z" />
<glyph unicode="&#x203a;" horiz-adv-x="323" d="M332 344q-33 -32 -33 -37q-25 -35 -40 -48q-41 -45 -48 -54q-54 -71 -76 -71q-3 0 -4 1q2 -14 2 -38q7 0 38 18q38 22 53 34q89 61 120 79l66 39q22 14 34 29q14 20 14 38q0 10 -1 13l-128 153q-32 47 -41 64q-8 8 -18 8q-2 0 -10 -8v-33q0 -2 6.5 -13.5t18.5 -37.5 t22 -55q7 -22 13 -22l2 -2q0 -4 6 -23t6 -25q0 -3 -2 -9zM129 140q1 -1 1 -2q1 -2 1 -3q-3 1 -3 4z" />
<glyph unicode="&#x205f;" horiz-adv-x="336" />
<glyph unicode="&#x20ac;" horiz-adv-x="896" d="M-38 570h125q-17 -38 -35 -133l-125 -2q-12 0 -12 -20q7 -12 10 -12h119l6 -3q-12 -87 0 -159q8 -75 57 -140.5t111 -83.5q59 -23 137 -12q103 0 265 79q108 62 186 174q-84 -92 -137 -125q-7 -3 -22 -5q68 59 133 133q7 7 -4 16q-11 6 -19 0l-41.5 -40.5l-41 -38 t-43 -37.5l-43.5 -34t-45.5 -30.5l-45.5 -24.5t-49 -19.5t-49.5 -11.5t-52.5 -4.5t-54 5.5q-1 1 -35 16q-29 14 -51 36q-46 49 -46 148q0 67 26 161h377q1 0 3 2l5 5q5 17 -8 25l-369 2q28 79 57 133q67 -7 220 -1.5t221 1.5l5 8q7 20 -5 24l-422 3q-1 2 4.5 9l10 13t1.5 7 q58 95 142 189q74 81 182 155q28 15 43.5 22.5t42 16.5t49.5 7.5t45 -12.5q33 -21 29 -61q1 -12 -3 -23.5t-8.5 -19t-15 -16.5t-16.5 -13t-19 -12t-16 -10q-25 -10 -30 -35q-5 -24 6 -33q-3 -10 5 -24q8 -20 24.5 -32t33.5 -10q51 4 86 90l2 5q26 72 -2 148q-41 97 -164 91 q-190 -15 -353.5 -133t-251.5 -319h-40v1q-74 -2 -95 -4q-10 -4 -10 -17q8 -14 10 -15z" />
<glyph unicode="&#x2122;" horiz-adv-x="628" d="M359 603q-69 -9 -80 -9q-1 0 -1 4t-2 4h-183l-4 -5v-8q-3 -19 -3 -39h3q3 0 4 1q5 19 12 25q21 16 57 10q-1 -32 -0.5 -57.5t0 -57.5t-2.5 -57q-2 -9 -23 -11v-8l97 1v7l-16 3q-7 4 -12 15v165q3 0 14 0.5t15.5 0t12.5 -2t13 -5.5t9 -10q4 -2 4 -8.5t1.5 -9.5t7.5 0 q0 5 -1.5 18.5t-0.5 19.5q2 0 9.5 -1.5t17.5 -3t21 -2.5q5 -84 0 -167q-2 -10 -27 -12v-7h78v8h-22q-9 6 -11 17v140l80 -166h4q2 0 3 1l79 167q3 -74 0 -146q-1 -4 -3 -7t-6 -4l-6 -1.5t-7.5 -1t-6.5 -0.5v-8h50q35 0 52 1v7l-17 3q-10 3 -11 15q0 14 -1.5 51.5t-0.5 64 t6 51.5q7 5 24 5v9l-34 2l-41 -5q-51 -117 -65 -144l-72 147z" />
<glyph unicode="&#xe000;" horiz-adv-x="575" d="M0 575h575v-575h-575v575z" />
</font>
</defs>
</svg>
