<?xml version="1.0" standalone="no"?>
<!DOCTYPE svg PUBLIC "-//W3C//DTD SVG 1.1//EN" "http://www.w3.org/Graphics/SVG/1.1/DTD/svg11.dtd" >
<svg xmlns="http://www.w3.org/2000/svg">
<metadata>
This is a custom SVG webfont generated by Font Squirrel.
Copyright   : C 2003 Bitstream Inc  Font Diner  All Rights Reserved Designed by Stuart Sandler  httpwwwfontdinercom ROE
</metadata>
<defs>
<font id="webfonth7rn3p30" horiz-adv-x="1706" >
<font-face units-per-em="2048" ascent="1638" descent="-410" />
<missing-glyph horiz-adv-x="709" />
<glyph unicode=" "  horiz-adv-x="709" />
<glyph unicode="&#x09;" horiz-adv-x="709" />
<glyph unicode="&#xa0;" horiz-adv-x="709" />
<glyph unicode="!" horiz-adv-x="573" d="M516 1384l-14 -1003q-1 -66 -66 -66l-325 4q-67 1 -66 66l23 999q0 25 20.5 45.5t44.5 20.5h318q66 0 65 -66zM553 123q0 -87 -98 -137q-77 -39 -166 -39q-94 0 -171 40q-98 51 -98 142q0 85 100 136q80 40 165 40q88 0 168 -42q100 -52 100 -140zM473 1384q0 23 -22 23 h-318q-24 0 -24 -23l-21 -999q0 -22 23 -23l325 -4q25 0 25 23zM510 123q0 67 -84 107q-66 32 -141 32q-73 0 -139 -30q-83 -39 -83 -103q0 -70 82 -110q64 -31 144 -31q74 0 140 30q81 39 81 105z" />
<glyph unicode="&#x22;" horiz-adv-x="819" d="M791 1374l-15 -567q0 -25 -20.5 -45t-44.5 -21l-230 -2q-28 0 -47 20t-18 48l10 571q1 67 66 66l233 -4q67 -1 66 -66zM403 1374l-12 -567q0 -25 -20.5 -45t-44.5 -21l-232 -2q-28 0 -47 20t-18 48l8 571q1 67 65 66l238 -4q65 -1 63 -66zM750 1374q0 22 -25 23l-233 4 q-25 0 -25 -23l-8 -571q0 -10 6 -17.5t16 -7.5l230 2q22 1 22 23zM360 1374q1 22 -20 23l-238 4q-22 0 -22 -23l-10 -571q-1 -10 6.5 -17.5t17.5 -7.5l232 2q22 1 22 23z" />
<glyph unicode="#" horiz-adv-x="1575" d="M1446 956l-31 -90h-323l-101 -282h348l-30 -90h-351l-174 -494h-112l176 494h-270l-179 -494h-110l174 494h-334l31 90h336l100 282h-360l28 90h365l176 498h110l-174 -498h271l176 498h110l-174 -498h322zM979 866h-270l-99 -282h269z" />
<glyph unicode="$" horiz-adv-x="1030" d="M995 453q0 -289 -385 -330q0 -12 -1 -37t-1 -37q0 -69 -114 -69h-13q-29 -5 -51 15.5t-22 49.5v80q-232 40 -351 162v-2q-16 16 -16 47q0 30 18 45v-2l146 153q15 19 45 19q20 0 35 -8q88 -51 125 -66q0 15 1 49t1 53q-172 51 -254 112q-123 92 -123 243q0 129 132 224 q110 79 249 101v86q0 66 67 66h23q59 0 77 -6q39 -13 38 -62l-3 -79q231 -36 355 -162q16 -14 16 -45q0 -35 -135 -174l-31 -33q-13 -15 -45 -15q-17 0 -30 9q-69 41 -132 65q0 -15 -1 -49t-1 -55q169 -56 251 -115q130 -94 130 -233zM954 453q0 124 -135 211 q-78 50 -248 106l2 193q84 -22 193 -86q7 -5 12 -5q8 0 17 9q153 153 153 172q0 4 -8 16q-59 61 -167 105q-96 39 -189 49h-9l3 116q0 22 -37 25h-58q-24 1 -24 -23v-120q-131 -17 -245 -89q-138 -87 -138 -202q0 -137 127 -221q79 -52 252 -101l-2 -194q-67 19 -189 88 q-7 4 -14 4q-10 0 -14 -8l-146 -152q-8 -8 -8 -14t8 -19q122 -124 354 -149l9 -2l-2 -117q-1 -11 7 -18.5t17 -6.5l53 4q37 5 37 25l2 113q387 26 387 291zM457 813q-90 42 -90 84q0 66 90 78v-162zM662 487q0 -72 -93 -84v168q93 -34 93 -84zM414 885v24q-4 -7 -4 -12 q0 -8 4 -12zM621 487q0 9 -9 17v-35q9 8 9 18z" />
<glyph unicode="%" horiz-adv-x="1616" d="M1565 397q0 -153 -94 -265q-100 -120 -252 -120q-177 0 -278 109q-97 105 -97 282q0 90 28 166l-344 -518q-25 -29 -51 -31q-78 -4 -176 -6q-70 -1 -70 66q0 16 5 24l421 637q-101 -94 -229 -94q-178 0 -279 109q-98 105 -98 282q0 174 102 289q107 119 279 119 q156 0 253 -136q87 -120 87 -278q0 -82 -33 -164l361 547q27 31 53 31l178 -4q66 -2 66 -66q0 -20 -4 -24l-424 -637q104 94 256 94q154 0 252 -134q88 -121 88 -278zM1522 397q0 142 -77 249q-85 120 -220 120q-153 0 -248 -106q-90 -102 -90 -257q0 -158 86 -252 q89 -98 246 -98q134 0 221 107q82 100 82 237zM1354 1376q0 22 -23 23l-178 4q-10 0 -18 -12l-859 -1299q-3 -7 -4 -12q0 -26 27 -25l176 8q11 1 19 13l856 1286q4 8 4 14zM729 1032q0 142 -75 250q-85 121 -222 121q-153 0 -245.5 -104.5t-92.5 -260.5q0 -158 86 -251 q90 -97 248 -97q133 0 220 107q81 99 81 235zM1339 393q0 -62 -34 -111q-38 -55 -97 -55q-60 0 -97 55q-34 48 -34 111t34 111q37 53 97 53q59 0 97 -53q34 -49 34 -111zM547 1028q0 -61 -34 -109q-38 -55 -97 -55t-97 55q-34 48 -34 109q0 62 34 110q38 54 97 54t97 -54 q34 -48 34 -110zM1296 393q0 46 -22 81q-25 40 -66 40t-67 -40q-23 -35 -23 -81t23 -82q26 -41 67 -41q40 0 66 41q22 36 22 82zM504 1028q0 47 -23 83q-25 40 -65 40q-41 0 -66 -40q-22 -36 -22 -83q0 -46 22 -82q26 -41 66 -41t65 41q23 36 23 82z" />
<glyph unicode="&#x26;" horiz-adv-x="1413" d="M1368 457q0 -42 -131 -158l66 -53q22 -19 22 -49t-16 -50l-15 -12l-90 -87q-61 -58 -88 -58t-155 110q-195 -114 -435 -114q-190 0 -326 96q-155 109 -155 293q0 272 244 383q-146 153 -146 305q0 426 572 426q203 0 354 -89q184 -108 184 -302q0 -135 -135 -275 q-106 -110 -264 -196l119 -101q46 29 112 103l-4 -4l25 26q20 21 47 21q31 0 49 -19l146 -147q20 -21 20 -49zM1325 457q0 12 -8 16l-146 150q-8 8 -18 8q-6 0 -16 -10l-79 -80q-45 -42 -91 -66l-191 160q160 75 281 185q155 143 155 278q0 173 -170 270q-141 80 -327 80 q-226 0 -360 -77q-169 -98 -169 -308q0 -164 179 -322q-124 -40 -199 -138q-78 -100 -78 -228q0 -164 141 -261q124 -85 297 -85q254 0 439 123q148 -119 151 -119q26 0 160 147q6 3 6 17q0 13 -6 16l-109 86q27 16 89 75q69 65 69 83zM850 1024q0 -67 -268 -176 q-64 63 -64 149q0 62 73 94q56 25 126 25q44 0 85 -23q48 -27 48 -69zM739 367q-98 -50 -174 -50q-121 0 -121 91q0 82 103 112zM807 1024q0 22 -32 37q-27 12 -58 12q-158 0 -158 -76q0 -56 35 -100q213 91 213 127zM657 377l-118 96q-52 -26 -52 -65q0 -48 78 -48 q27 0 92 17z" />
<glyph unicode="'" horiz-adv-x="408" d="M391 1374l-12 -567q-1 -25 -21 -45t-45 -21l-231 -2q-29 0 -47.5 20t-18.5 48l9 571q1 67 65 66l238 -4q65 -1 63 -66zM350 1374q1 22 -22 23l-238 4q-22 0 -22 -23l-11 -571q0 -10 7 -17.5t18 -7.5l231 2q22 1 23 23z" />
<glyph unicode="(" horiz-adv-x="549" d="M524 1413q0 -22 -6 -31q-117 -321 -117 -647q0 -346 88 -659q9 -13 9 -31q0 -23 -20.5 -43.5t-43.5 -21.5q-65 -4 -192 -7q-41 -1 -58 27q-79 129 -123 368q-36 196 -36 382q0 179 39 364q48 223 135 340q21 30 59 29l203 -4q23 -1 43 -22t20 -44zM483 1413q0 22 -24 23 l-203 6q-13 0 -23 -12q-83 -113 -129 -328q-38 -180 -38 -352q0 -178 35 -369q42 -230 116 -352q10 -13 23 -13l192 4q23 1 23 25v6q-97 328 -97 684q0 347 123 670q2 2 2 8z" />
<glyph unicode=")" horiz-adv-x="549" d="M524 750q0 -186 -36 -382q-44 -239 -123 -368q-18 -28 -56 -27l-194 7q-23 0 -43.5 21t-20.5 44q2 10 2 8q94 406 94 682q0 337 -116 647q-6 9 -6 31q0 23 20 44t43 22q92 4 205 4q36 0 57 -29q87 -116 135 -340q39 -184 39 -364zM483 750q0 172 -38 352 q-47 215 -130 328q-9 12 -22 12l-203 -6q-24 -1 -24 -23q0 -6 2 -8q122 -315 122 -670q0 -285 -96 -684v-6q0 -24 23 -25l192 -4q13 0 23 13q74 122 116 352q35 191 35 369z" />
<glyph unicode="*" horiz-adv-x="860" />
<glyph unicode="+" d="M1452 569h-559v-569h-80v569h-559v82h559v570h80v-570h559v-82z" />
<glyph unicode="," horiz-adv-x="573" d="M553 123q0 -189 -264 -293q-13 -8 -31 -8q-65 0 -65 65q0 9 12 37q3 9 8 29q-194 42 -193 176q1 85 100 136q79 40 165 40q88 0 168 -42q100 -52 100 -140zM510 123q0 67 -84 107q-66 32 -141 32q-74 0 -139 -30q-83 -38 -83 -103v-4q0 -61 72 -100q56 -31 125 -37v-13 q0 -23 -12 -53.5t-12 -34.5q0 -22 22 -22q2 0 4 0.5t4 1.5q244 89 244 256z" />
<glyph unicode="-" horiz-adv-x="819" d="M754 373q0 -66 -66 -66h-557q-65 0 -65 68l6 260q0 25 20.5 45t44.5 20h551q66 0 66 -65v-262zM713 373v262q0 24 -25 24h-551q-22 0 -22 -24l-9 -260q0 -27 25 -27h557q25 0 25 25z" />
<glyph unicode="." horiz-adv-x="573" d="M553 123q0 -87 -98 -137q-77 -39 -166 -39q-94 0 -171 40q-98 51 -98 142q0 85 100 136q80 40 165 40q88 0 168 -42q100 -52 100 -140zM510 123q0 67 -84 107q-66 32 -141 32q-73 0 -139 -30q-83 -39 -83 -103q0 -70 82 -110q64 -31 144 -31q74 0 140 30q81 39 81 105z " />
<glyph unicode="/" horiz-adv-x="934" d="M899 1362q0 -31 -403 -1083l-78 -201q-16 -42 -62 -43q-84 -4 -254 -8q-67 -2 -67 65q0 17 477 1297q16 43 59 43l263 -5q65 -1 65 -65zM856 1362q0 22 -22 22l-263 5q-17 0 -22 -15l-248 -671q-223 -603 -223 -611q0 -23 24 -22l254 8q18 0 23 14q477 1256 477 1270z " />
<glyph unicode="0" horiz-adv-x="1417" d="M1391 680q0 -293 -176 -506q-187 -227 -476 -227q-335 0 -527 205q-185 199 -185 536q0 329 194 548q203 228 531 228q291 0 474 -255q165 -229 165 -529zM1348 680q0 285 -153 500q-171 241 -443 241q-308 0 -499 -215q-183 -207 -183 -518q0 -318 174 -506 q180 -194 495 -194q270 0 445 215q164 202 164 477zM971 670q0 -120 -66 -215q-73 -107 -188 -107t-188 107q-64 95 -64 215q0 121 64 215q73 106 188 106t188 -106q66 -95 66 -215zM928 670q0 105 -54 187q-61 91 -157 91t-157 -91q-54 -82 -54 -187q0 -104 54 -186 q61 -93 157 -93t157 93q54 82 54 186z" />
<glyph unicode="1" horiz-adv-x="551" d="M530 1372l-30 -1288q-1 -25 -21 -45t-45 -21l-348 -6q-29 0 -47.5 20t-18.5 48l17 1300q1 67 65 66l363 -6q27 -1 46.5 -21t18.5 -47zM487 1372q1 24 -22 25l-363 6q-22 0 -22 -23l-17 -1300q0 -11 6.5 -19t16.5 -8l348 8q22 1 23 23z" />
<glyph unicode="2" horiz-adv-x="1235" d="M1214 1032q0 -209 -168 -349q-99 -83 -323 -175q-51 -20 -133 -59h489q66 0 66 -66v-299q0 -66 -66 -66h-987q-65 0 -65 66v106q0 18 -1 54t-1 53q0 226 157 390q134 140 365 220l20 6h-2q150 46 150 72q0 31 -60 31q-101 0 -272 -121l-35 -25q-14 -10 -41 -10 q-29 0 -39 12l-231 287q-17 17 -17 45q0 29 17 45l-4 -6q95 127 255.5 207t319.5 80q271 0 425 -108q181 -126 181 -390zM1171 1032q0 455 -563 455q-150 0 -301 -74.5t-239 -193.5q-5 -5 -5 -15t5 -14l225 -281q8 -8 14 -8q13 0 19 4q124 85 155 102q93 52 174 52 q103 0 103 -74q0 -50 -197 -119q-493 -172 -493 -569q0 -36 1 -106.5t1 -106.5q0 -23 22 -23h987q23 0 23 23v299q0 25 -23 25h-575q0 55 173 127q235 97 321 164q173 132 173 333z" />
<glyph unicode="3" horiz-adv-x="1194" d="M1153 414q0 -453 -610 -453q-153 0 -310 69q-163 71 -258 185l2 -4q-18 18 -18 47t18 47v-2l224 252q18 20 47 20q22 0 63 -26q180 -117 283 -117q59 0 59 27q0 73 -172 73q-24 0 -39 -2q-6 0 -22.5 -1t-22.5 -1q-67 0 -67 66v283q0 65 67 65h33q5 0 16.5 -1t16.5 -1 q190 0 190 76q0 14 -49 14q-134 0 -317 -129l6 4q-14 -14 -47 -14q-32 0 -49 22l-111 129l-111 129l2 -4q-18 19 -18 47q0 30 18 46l-2 -5q95 117 258 189q156 69 310 69q205 0 394 -119q216 -136 216 -335q0 -209 -160 -334q160 -129 160 -311zM1110 414q0 185 -190 313 q190 119 190 332q0 179 -201 303q-175 108 -366 108q-145 0 -293 -64q-153 -68 -242 -177q-6 -6 -6 -15t6 -16l221 -258q6 -8 17 -8q12 0 16 4q196 137 342 137q92 0 92 -57q0 -119 -233 -119q-12 0 -34 1t-32 1q-24 0 -24 -22v-283q0 -25 24 -25q13 0 41.5 2t42.5 2 q215 0 215 -114q0 -70 -102 -70q-91 0 -223 73t-123 73q-11 0 -17 -9l-223 -252q-6 -7 -6 -16q0 -11 6 -14q89 -108 243 -175q148 -65 292 -65q567 0 567 410z" />
<glyph unicode="4" horiz-adv-x="1274" d="M1229 371q0 -66 -66 -66h-61q0 -41 -2 -113t-2 -112q0 -23 -20.5 -44t-43.5 -22q-167 -7 -348 -12q-67 -2 -68 66l-2 237h-628q-66 0 -66 66q0 16 6 28l492 990q18 36 59 36q189 4 565 9q28 0 47 -18.5t19 -47.5l-6 -670h59q66 0 66 -65v-262zM1186 371v262q0 22 -23 22 h-102l6 713q0 10 -6.5 16.5t-16.5 6.5l-565 -7q-17 0 -20 -14l-492 -991q-2 -4 -2 -8q0 -25 23 -25h669l2 -278q1 -24 25 -23l348 10q22 1 23 25l4 266h104q23 0 23 25zM657 655h-165l165 328v-328zM616 698v103l-57 -103h57z" />
<glyph unicode="5" horiz-adv-x="1276" d="M1235 440q0 -229 -199 -372q-178 -127 -413 -127q-152 0 -308 68q-163 72 -258 188l2 -4q-18 18 -18 45q0 29 18 45v-2l222 251q20 23 47 23t47 -16l-6 2q165 -113 268 -113q40 0 73 21.5t33 56.5q0 141 -282 141q-135 0 -295 -33q-78 0 -78 68l-2 721q0 67 66 67h913 q65 0 65 -65v-264q0 -66 -65 -66h-485q-5 -41 -5 -71q31 4 97 4q272 0 417.5 -147.5t145.5 -420.5zM1192 440q0 253 -134 389t-386 136q-69 0 -140 -13l5 166h528q22 0 22 23v264q0 22 -22 22h-913q-23 0 -23 -24l2 -721q0 -25 29 -25q178 33 301 33q323 0 323 -184 q0 -54 -45.5 -87.5t-101.5 -33.5q-120 0 -293 121q-6 6 -16 6t-17 -8l-221 -252q-6 -7 -6 -14q0 -9 6 -15q89 -108 242 -175q147 -64 291 -64q219 0 384 116q185 130 185 340z" />
<glyph unicode="6" horiz-adv-x="1309" d="M1284 446q0 -242 -179 -366q-154 -107 -403 -107q-308 0 -503 193.5t-195 501.5q0 403 282 619q255 196 675 196q82 0 90 -56l53 -362q4 -30 -16.5 -52t-51.5 -22q-35 0 -47 2h-37q-363 0 -442 -233q157 80 344 80q180 0 302 -106q128 -110 128 -288zM1243 446 q0 158 -116 258q-111 95 -273 95q-211 0 -403 -125q12 193 166 285q127 77 335 77q15 0 43 -2t41 -2q29 0 25 27l-53 360q-4 23 -52 23q-397 0 -641 -186q-270 -206 -270 -588q0 -290 184 -471t473 -181q232 0 374 97q167 113 167 333zM872 463q0 -107 -147 -107 q-158 0 -231 117q125 94 258 94q47 0 82 -27q38 -30 38 -77zM829 463q0 61 -77 61q-98 0 -197 -61q53 -64 170 -64q104 0 104 64z" />
<glyph unicode="7" horiz-adv-x="1120" d="M1161 1354q0 -11 -413 -1008q-93 -223 -115 -280q-24 -41 -60 -41q-118 -4 -356 -9q-65 0 -65 66q0 24 346 846q33 78 43 98h-457q-64 0 -64 66v262q0 65 64 65h1012q65 0 65 -65zM1120 1354q0 24 -24 24h-1012q-23 0 -23 -24v-262q0 -23 23 -23h518l-215 -517 q-192 -461 -192 -470q0 -23 22 -23l356 9q12 0 21 14l278 667q248 597 248 605z" />
<glyph unicode="8" horiz-adv-x="1229" d="M1208 416q0 -207 -204 -337q-176 -112 -390 -112q-217 0 -391 111q-203 128 -203 338q0 175 160 309q-160 134 -160 307q0 211 204 340q174 111 390 111t391 -112q203 -129 203 -339q0 -178 -161 -307q161 -133 161 -309zM1165 416q0 192 -194 309q194 117 194 307 t-188 307q-162 101 -363 101t-363 -100q-188 -117 -188 -308t193 -307q-193 -116 -193 -309q0 -190 188 -306q161 -100 363 -100q199 0 363 102q188 118 188 304zM786 989q0 -48 -65 -74q-49 -20 -107 -20q-57 0 -106 20q-66 26 -66 74t66 73q50 19 106 19q57 0 106 -19 q66 -25 66 -73zM786 487q0 -48 -65 -73q-49 -19 -107 -19t-106 19q-66 25 -66 73q0 49 66 75q49 20 106 20q58 0 107 -20q65 -26 65 -75zM743 989q0 49 -129 49t-129 -49q0 -53 129 -53t129 53zM743 487q0 52 -129 52t-129 -52q0 -49 129 -49t129 49z" />
<glyph unicode="9" horiz-adv-x="1284" d="M1282 793q0 -384 -268 -587q-241 -183 -637 -183h-6q-86 -11 -97 57l-47 313q-4 32 16.5 54t51.5 22q40 0 53 -2t43 -2q322 0 406 188q-167 -82 -342 -82q-181 0 -304 106q-128 111 -128 288q0 232 167 381q160 141 392 141q309 0 504.5 -194t195.5 -500zM1239 793 q0 288 -184 470.5t-473 182.5q-213 0 -361 -131q-155 -137 -155 -350q0 -157 115 -256q110 -95 274 -95q206 0 403 123q-26 -315 -467 -315q-16 0 -48 2t-48 2q-28 0 -25 -27l45 -315q3 -18 62 -18q378 0 607 172q255 192 255 555zM815 940q-126 -92 -258 -92q-48 0 -83 26 q-38 30 -38 76q0 54 49 83q40 24 99 24q158 0 231 -117zM752 950q-64 64 -168 64q-107 0 -107 -64q0 -59 80 -59q102 0 195 59z" />
<glyph unicode=":" horiz-adv-x="582" d="M557 659q0 -86 -97 -137q-79 -41 -167 -41q-93 0 -171 42q-97 52 -97 143q0 84 99 133q79 39 165 39q90 0 168 -40q100 -51 100 -139zM557 123q0 -87 -97 -137q-78 -39 -167 -39q-94 0 -171 40q-97 51 -97 142q0 85 99 136q80 40 165 40q89 0 168 -42q100 -52 100 -140z M514 659q0 68 -83 107q-67 31 -142 31q-73 0 -138 -30q-83 -37 -83 -101q0 -71 81 -110q65 -32 144 -32q75 0 140 31q81 38 81 104zM514 123q0 67 -83 107q-67 32 -142 32q-72 0 -138 -30q-83 -39 -83 -103q0 -70 81 -110q65 -31 144 -31q75 0 140 30q81 39 81 105z" />
<glyph unicode=";" horiz-adv-x="582" d="M557 659q0 -86 -97 -137q-79 -41 -167 -41q-93 0 -171 42q-97 52 -97 143q0 84 99 133q79 39 165 39q90 0 168 -40q100 -51 100 -139zM557 123q0 -189 -264 -293q-12 -8 -31 -8q-65 0 -65 65q0 9 12 37q3 9 8 29q-194 42 -192 176q0 85 99 136q79 40 165 40q89 0 168 -42 q100 -52 100 -140zM514 659q0 68 -83 107q-67 31 -142 31q-73 0 -138 -30q-83 -37 -83 -101q0 -71 81 -110q65 -32 144 -32q75 0 140 31q81 38 81 104zM514 123q0 67 -83 107q-67 32 -142 32q-74 0 -139 -30q-82 -38 -82 -103v-4q0 -61 71 -100q56 -31 125 -37v-13 q0 -23 -12 -53.5t-12 -34.5q0 -22 22 -22q2 0 4 0.5t4 1.5q244 89 244 256z" />
<glyph unicode="&#x3c;" d="M1442 98l-1178 482v61l1178 483v-90l-1045 -424l1045 -424v-88z" />
<glyph unicode="=" d="M1452 752h-1198v79h1198v-79zM1452 387h-1198v82h1198v-82z" />
<glyph unicode="&#x3e;" d="M1442 580l-1178 -482v88l1045 424l-1045 424v90l1178 -483v-61z" />
<glyph unicode="?" horiz-adv-x="1284" d="M1239 1032q0 -120 -87 -242q-48 -67 -173 -190q-78 -76 -103 -107q-50 -60 -69 -122q-16 -52 -64 -52h-378q-66 0 -66 68q0 127 104 256q62 78 197 188h-4q12 7 27 19q116 100 116 135q0 31 -59 31q-89 0 -270 -121l-37 -25q-16 -10 -41 -10q-29 0 -39 12l-232 287 q-16 17 -16 45q0 29 16 45l-4 -6q95 127 256 207t320 80q271 0 426 -108q180 -127 180 -390zM823 123q0 -87 -96 -137q-78 -39 -168 -39q-93 0 -170 40q-96 51 -96 142q0 85 99 136q79 40 165 40q89 0 168 -42q98 -52 98 -140zM1196 1032q0 455 -563 455q-150 0 -301 -74.5 t-240 -193.5q-4 -5 -4 -15t4 -14l225 -281q9 -8 15 -8q12 0 18 4q127 87 154 102q94 52 176 52q102 0 102 -74q0 -44 -59 -104q-15 -15 -96 -82q-130 -108 -188 -179q-99 -120 -99 -233q0 -25 25 -25h378q17 0 23 19q32 101 184 250q119 116 164 178q82 114 82 223zM782 123 q0 67 -84 107q-67 32 -141 32q-72 0 -139 -30q-84 -39 -84 -103q0 -70 82 -110q65 -31 143 -31q75 0 141 30q82 39 82 105z" />
<glyph unicode="@" horiz-adv-x="2048" d="M1927 778q0 -169 -63 -308t-181 -232q-139 -111 -305 -111q-192 0 -192 145q0 3 4 33v6q-50 -90 -125 -137t-166 -47q-153 0 -233 83.5t-80 242.5q0 228 134.5 386t326.5 158q193 0 256 -170l61 129h80l-137 -553q-21 -82 -21 -108q0 -92 117 -92q46 0 100.5 20.5 t102.5 55.5q106 77 167 218q56 130 56 271q0 275 -199 440.5t-526 165.5q-166 0 -310.5 -48.5t-258.5 -143.5q-310 -257 -310 -672q0 -345 239 -538q221 -179 574 -179q338 0 623 193l29 -45q-145 -109 -308 -164.5t-340 -55.5q-192 0 -344.5 45.5t-275.5 139.5 q-301 228 -301 616q0 328 198 572q292 356 795 356q164 0 305 -43t248 -125q128 -98 194 -226.5t66 -277.5zM1282 721q-45 203 -233 203q-171 0 -272 -160q-87 -137 -87 -318q0 -109 53 -174q57 -71 164 -71q110 0 197 73q84 73 115 193z" />
<glyph unicode="A" horiz-adv-x="1315" d="M1311 -4q0 -67 -66 -66l-368 7q-57 0 -66 53l-39 221h-229l-37 -188q-10 -53 -66 -54l-370 -2q-66 0 -66 74l303 1313q12 55 66 55h575q54 0 66 -55l-2 2zM1268 -4v4l-297 1348q-4 18 -23 18h-575q-21 0 -25 -18l-301 -1315q0 -23 23 -23l370 2q19 0 23 19l45 221h301 l45 -254q3 -18 23 -18l368 -7q23 0 23 23zM754 561h-183l99 469zM705 602l-37 197l-43 -197h80z" />
<glyph unicode="B" horiz-adv-x="1253" d="M1233 373q0 -292 -327 -404q-214 -73 -611 -73h-186q-66 0 -66 65l-2 1415q0 66 65 66h187q397 0 611 -74q327 -112 327 -403q0 -169 -154 -297q156 -126 156 -295zM1190 373q0 180 -191 295q189 117 189 297q0 266 -315 369q-205 66 -586 66q-36 0 -97 -1h-84 q-22 0 -22 -23l2 -1415q0 -22 23 -22t83.5 -1t96.5 -1q381 0 586 67q315 102 315 369zM805 940q0 -133 -279 -152l-2 316q281 0 281 -164zM807 399q0 -166 -281 -166l2 316q279 -19 279 -150zM762 940q0 112 -195 121q0 -39 1 -109.5t1 -117.5q193 23 193 106zM764 399 q0 81 -193 105q0 -40 -1 -111.5t-1 -116.5q195 10 195 123z" />
<glyph unicode="C" horiz-adv-x="1317" d="M1274 154q0 -30 -19 -45l2 4q-71 -86 -224 -132q-125 -38 -255 -38q-334 0 -541 191q-214 198 -214 536q0 407 281 623q255 196 679 196q40 0 52 -4q28 -11 34 -49l53 -365q5 -33 -15 -53.5t-52 -20.5q-34 0 -47.5 2t-36.5 2q-193 0 -313 -71q-146 -87 -146 -262 q0 -122 80 -189q75 -63 203 -63q144 0 319 108q14 11 33 11q55 0 65 -56l62 -313v-12zM1231 154v4l-62 315q-3 19 -22 19q-2 0 -14 -7q-174 -110 -338 -110q-147 0 -234 72q-92 78 -92 221q0 198 159 296q132 80 343 80q14 0 41.5 -2t42.5 -2q30 0 26 25l-55 362 q-3 21 -49 21q-402 0 -644 -186q-267 -206 -267 -592q0 -317 202 -505q196 -181 510 -181q122 0 239 35q141 43 208 120q6 7 6 15z" />
<glyph unicode="D" horiz-adv-x="1251" d="M1231 668q0 -425 -372 -621q-287 -151 -750 -151q-66 0 -66 65l-2 1415q0 66 65 66q465 0 752 -152q373 -196 373 -622zM1188 668q0 402 -360 588q-276 143 -722 143q-22 0 -22 -23l2 -1415q0 -22 23 -22q445 0 720 142q359 185 359 587zM768 668q0 -120 -63 -215 q-72 -109 -187 -109v649q114 0 187 -109q63 -96 63 -216zM725 668q0 91 -41 169q-47 87 -125 107v-551q78 20 125 107q41 78 41 168z" />
<glyph unicode="E" horiz-adv-x="1118" d="M1081 66q0 -66 -65 -66h-912q-65 0 -65 66l-2 1302q0 66 65 66h914q65 0 65 -66v-262q0 -66 -65 -66h-488q0 -22 -1 -63.5t-1 -71.5h379q66 0 66 -65v-262q0 -66 -66 -66h-381q0 -14 -1 -55t-1 -64h494q65 0 65 -65v-262zM1038 66v262q0 22 -22 22h-537l2 205h424 q25 0 25 23v262q0 24 -25 24h-422l2 219h531q22 0 22 23v262q0 23 -22 23h-914q-22 0 -22 -23l2 -1302q0 -23 22 -23h912q22 0 22 23z" />
<glyph unicode="F" horiz-adv-x="1098" d="M1092 1317l-2 -262q-1 -66 -68 -66l-485 4q-5 -90 -5 -133q64 0 190 -2t190.5 -2t64.5 -65l-2 -263q-1 -66 -68 -65l-381 4q0 -75 -2 -223.5t-2 -223.5q0 -65 -65 -65l-355 2q-66 0 -65 66l10 1302q1 66 66 66l913 -7q66 0 66 -67zM1049 1317q0 24 -23 24l-913 9 q-23 0 -23 -25l-10 -1302q0 -23 22 -23l355 -2q24 0 24 22l2 488l424 -2q27 0 27 22l2 263q0 22 -25 22l-422 4l5 219l528 -6q24 0 25 25z" />
<glyph unicode="G" horiz-adv-x="1319" d="M1276 158q0 -32 -19 -47v2q-71 -82 -227 -127q-129 -37 -260 -37q-333 0 -537 189q-210 196 -210 532q0 407 281 623q255 196 679 196q40 0 52 -4q28 -11 34 -49l53 -365q5 -32 -15 -53t-50 -21q-14 0 -42 2t-42 2q-200 0 -319 -74q-142 -89 -142 -272q0 -247 211 -247 q18 0 63 4q0 61 -2 88q-94 -4 -129 -4q-67 0 -65 67l4 185q0 23 18.5 43t42.5 22q301 21 533 35q64 4 65 -64q2 -77 14 -313q9 -195 9 -311v-2zM1233 158l-21 626q0 22 -24 21l-531 -35q-22 -1 -22 -22l-2 -185q0 -11 6 -18t16 -6l170 2l4 -164q-49 -12 -106 -12 q-254 0 -254 290q0 205 156 306q130 83 348 83q13 0 41 -2t43 -2q28 0 24 25l-55 362q-3 21 -49 21q-402 0 -644 -186q-267 -206 -267 -592q0 -316 198 -501q193 -179 506 -179q122 0 244 35q145 42 213 116q6 7 6 17z" />
<glyph unicode="H" horiz-adv-x="1292" d="M1249 1366l-10 -1286q0 -23 -21 -44t-44 -22q-117 -5 -349 -14q-65 -2 -65 66l-2 385h-230q0 -61 -2 -186t-2 -185q0 -25 -18.5 -45t-44.5 -21q-59 -1 -175 -6.5t-173 -7.5q-29 -1 -49.5 18t-20.5 48v1302q0 66 63 66l365 -2q66 -1 66 -66l-7 -522h228v524q0 66 65 66 l361 -2q66 -1 65 -66zM1208 1366q1 22 -24 23l-361 2q-24 0 -24 -23v-567h-310l7 565q0 22 -25 23l-365 2q-22 0 -22 -23l2 -1302q0 -24 25 -23l350 12q20 1 20 25l4 414h314l2 -428q0 -24 24 -23l349 12q22 1 22 25z" />
<glyph unicode="I" horiz-adv-x="551" d="M530 1323l-30 -1286q-1 -23 -22 -44t-44 -22q-79 -2 -348 -6q-29 0 -47.5 18.5t-18.5 47.5l17 1300q1 67 65 66l363 -6q27 -1 46.5 -21.5t18.5 -46.5zM487 1323q1 26 -22 27l-363 4q-22 0 -22 -23l-17 -1300q0 -11 6 -17t17 -6l348 6q22 1 23 23z" />
<glyph unicode="J" horiz-adv-x="1294" d="M1251 1294l-16 -737q-6 -290 -156 -448q-155 -166 -448 -166q-588 0 -588 596q0 13 1 38t1 37v74q0 30 21.5 50t50.5 16h-2q123 -14 366 -39q58 -12 58 -66v-43q0 -7 -1 -21.5t-1 -21.5q0 -178 98 -178q102 0 104 209l11 719q0 69 67 65l373 -18q24 -1 43 -21.5t18 -44.5 zM1210 1294q1 24 -22 25l-373 16q-22 1 -22 -22l-11 -719q-3 -252 -147 -252q-139 0 -139 221q0 15 1 43.5t1 42.5q0 20 -23 23l-364 39q-25 2 -25 -23t-1 -74.5t-1 -74.5q0 -555 547 -555t561 575z" />
<glyph unicode="K" horiz-adv-x="1321" d="M1309 1282q0 -18 -4 -27l-381 -565q49 -79 195 -344q155 -279 155 -297q0 -25 -18.5 -44.5t-43.5 -20.5q-140 -7 -409 -19q-45 -2 -64 37l-176 371q0 -48 -1 -140.5t-1 -138.5q0 -23 -18.5 -43.5t-42.5 -21.5q-192 -13 -385 -23q-27 -1 -46.5 19.5t-19.5 46.5l-6 1243 q0 65 66 65l399 2q29 1 47.5 -18t17.5 -47l-4 -352l219 358l-2 -2q15 36 60 35l399 -8q25 -1 44.5 -21t19.5 -45zM1266 1282q0 22 -21 23l-399 10q-15 0 -23 -12l-297 -498l4 512q1 9 -5.5 15.5t-16.5 6.5l-399 -2q-23 0 -23 -22l6 -1243q0 -23 21 -23h4l381 23q22 1 22 22 l4 416l21 4l233 -494q9 -12 23 -12l409 17q21 0 21 24q0 10 -166 306l-188 337l385 576q4 8 4 14z" />
<glyph unicode="L" horiz-adv-x="1079" d="M1073 66q0 -66 -67 -66h-893q-66 0 -66 66q-1 209 -5 631t-5 632q0 65 65 66q60 0 180.5 3.5t180.5 4.5q65 1 65 -66l2 -944h476q67 0 67 -65v-262zM1030 66v262q0 22 -24 22h-519l-2 987q0 23 -22 23l-361 -8q-22 -1 -22 -23l8 -1263q0 -23 25 -23h893q24 0 24 23z" />
<glyph unicode="M" horiz-adv-x="1599" d="M1548 72q0 -24 -18.5 -44t-42.5 -22q-108 -9 -324 -22q-25 -1 -46 19.5t-21 45.5q-3 107 -11 461l-122 -432l2 4q-11 -53 -66 -53h-199q-52 0 -63 53l2 -4l-125 434q-4 -155 -10 -463q0 -28 -20 -47.5t-48 -17.5l-321 14q-66 3 -64 70l51 1271q1 23 23.5 43.5t44.5 20.5 l375 -2q41 0 61 -43l195 -588l194 588q20 43 62 43l375 2q23 0 43.5 -20t21.5 -44l32 -632q19 -382 19 -633v-2zM1505 72l-51 1265q-1 23 -22 23l-375 -2q-16 0 -23 -15l-233 -710l-236 710q-7 15 -20 15l-375 2q-24 0 -25 -23l-51 -1271q-1 -24 23 -25l319 -14q24 -1 25 22 l16 750l203 -711q5 -16 20 -16h199q18 0 23 16l200 711l17 -750q0 -22 22 -22h2l322 22q21 2 20 23z" />
<glyph unicode="N" horiz-adv-x="1292" d="M1249 1319l-10 -1288q0 -61 -61 -64q-112 -5 -336 -14q-44 -1 -62 37l-276 588l-6 -547q-1 -26 -20.5 -44.5t-43.5 -19.5q-108 -5 -321 -14q-28 -1 -49 18.5t-21 46.5v1301q0 68 63 67l351 -2q41 0 57 -34l272 -586q0 78 -1 277.5t-1 277.5q0 68 66 67l334 -2 q66 0 65 -65zM1208 1319q1 24 -24 24l-334 3q-25 0 -25 -27l2 -746l-352 756q-7 14 -18 14l-351 3q-22 0 -22 -27l2 -1301q0 -23 25 -22l323 14q22 1 23 21l8 737l354 -758q7 -15 21 -14l336 14q20 1 20 21z" />
<glyph unicode="O" horiz-adv-x="1417" d="M1391 633q0 -293 -176 -507q-187 -228 -476 -228q-335 0 -527 205q-185 200 -185 536q0 330 194 549q203 229 531 229q291 0 474 -256q165 -229 165 -528zM1348 633q0 283 -153 500q-171 241 -443 241q-307 0 -499 -216q-183 -208 -183 -519q0 -317 174 -505 q180 -193 495 -193q270 0 445 214q164 201 164 478zM971 623q0 -121 -66 -215q-73 -105 -188 -105t-188 105q-64 94 -64 215q0 119 64 213q73 106 188 106t188 -106q66 -94 66 -213zM928 623q0 103 -54 185q-61 91 -157 91t-157 -91q-54 -82 -54 -185q0 -105 54 -187 q61 -92 157 -92t157 92q54 82 54 187z" />
<glyph unicode="P" horiz-adv-x="1206" d="M1186 868q0 -252 -198 -412q-174 -142 -435 -167q0 -41 -2 -125t-2 -125q0 -23 -18.5 -43.5t-43.5 -22.5q-124 -10 -372 -24q-28 -1 -49 18t-21 47l-4 1399q0 66 65 66q259 0 469 -27q302 -38 442 -155q169 -139 169 -429zM1145 868q0 268 -159 398q-133 109 -417 145 q-192 25 -463 25q-24 0 -24 -23l6 -1399q0 -26 25 -24l372 26q21 2 21 23l4 289q259 8 436 142q199 150 199 398zM776 834q0 -172 -260 -195l6 408q111 0 178 -49q76 -56 76 -164zM733 834q0 144 -170 167q0 -104 -2 -313q172 28 172 146z" />
<glyph unicode="Q" horiz-adv-x="1438" d="M1391 633q0 -348 -234 -570q1 -2 4 -7t4 -7l-2 2q148 -206 148 -233q0 -23 -20.5 -44t-43.5 -22l-411 -20q-20 -1 -58 30l-46 70l-46 70q-315 12 -491 219q-168 197 -168 518q0 330 194 549q203 229 531 229q291 0 474 -255q165 -229 165 -529zM1348 633q0 284 -153 500 q-171 241 -443 241q-307 0 -499 -216q-183 -208 -183 -519q0 -305 164 -493q172 -197 475 -203l104 -156q9 -13 21 -12l411 18q23 1 23 25q0 8 -77 120l-91 132q119 98 185 253q63 147 63 310zM971 623q0 -121 -66 -215q-73 -105 -188 -105t-188 105q-64 94 -64 215 q0 119 64 213q73 106 188 106t188 -106q66 -94 66 -213zM928 623q0 103 -54 185q-61 91 -157 91t-157 -91q-54 -82 -54 -185q0 -105 54 -187q61 -92 157 -92t157 92q54 82 54 187z" />
<glyph unicode="R" horiz-adv-x="1276" d="M1235 14q0 -24 -20.5 -44.5t-45.5 -20.5q-128 -7 -378 -17q-36 -1 -58 29v-2l-192 260q-2 -65 -2 -194q0 -24 -19 -44t-43 -22q-211 -14 -360 -22q-28 -2 -49 17.5t-21 47.5l-6 1339q0 47 49 64q80 27 322 27q427 0 610 -209q133 -152 133 -353q0 -259 -213 -444 l279 -373l-4 6q18 -15 18 -45zM1192 14q0 9 -6 15l-305 405q106 74 168.5 191t62.5 245q0 184 -123 324q-170 195 -577 195q-238 0 -310 -25q-18 -6 -18 -23l6 -1339q0 -24 25 -22l360 22q20 1 21 23l4 321l268 -362q9 -9 20 -9l381 15q23 1 23 24zM715 813 q0 -166 -211 -201l6 381q84 -3 142 -48q63 -50 63 -132zM672 813q0 95 -119 133l-6 -280q125 35 125 147z" />
<glyph unicode="S" horiz-adv-x="1288" d="M1245 1126q0 -31 -16 -45l2 4l-223 -260q-21 -24 -52 -24q-27 0 -43 18l7 -4q-179 129 -320 129q-47 0 -47 -16q0 -11 162 -70h-2q237 -87 341 -162q181 -131 181 -327q0 -453 -610 -453q-152 0 -310 70q-163 71 -258 186l2 -4q-18 18 -18 45q0 29 18 47v-2l222 250 q20 22 51 22q20 0 61 -26q182 -117 283 -117q59 0 59 25q0 16 -162 65q-236 71 -340 146q-180 128 -180 348q0 196 217 333q189 119 389 119q156 0 313 -67q165 -71 259 -187l-2 5q16 -17 16 -48zM1204 1126q0 11 -6 17q-89 108 -243 175q-149 64 -296 64q-187 0 -363 -109 q-200 -124 -200 -302q0 -203 177 -322q95 -64 328 -136q177 -54 177 -101q0 -68 -102 -68q-91 0 -222.5 71.5t-121.5 71.5q-15 0 -21 -8l-221 -250q-6 -7 -6 -16q0 -8 6 -14q89 -109 242 -176q148 -66 293 -66q567 0 567 412q0 179 -177 302q-96 66 -328 151 q-177 65 -177 106q0 59 90 59q154 0 344 -137q6 -6 12 -6q13 0 19 8l223 260q6 7 6 14z" />
<glyph unicode="T" horiz-adv-x="1151" d="M1143 1006q0 -66 -68 -66h-239l8 -936q0 -24 -20.5 -44.5t-45.5 -20.5q-121 -4 -360 -9q-66 0 -66 66l-2 944h-276q-66 0 -66 66v262q0 65 66 65h1001q68 0 68 -65v-262zM1100 1006v262q0 22 -25 22h-1001q-23 0 -23 -22v-262q0 -23 23 -23h319l2 -987q0 -23 23 -23 l360 9q23 0 23 22l-8 979h282q25 0 25 23z" />
<glyph unicode="U" horiz-adv-x="1294" d="M1251 1255l-16 -739q-6 -290 -156 -447q-155 -165 -448 -165q-588 0 -588 598q0 317 4 571q0 22 3 94q1 58 1 93q0 28 21 47.5t49 17.5l373 -20q25 -2 43.5 -22t17.5 -44l-18 -717q0 -176 98 -176q102 0 104 209l11 690q0 25 18.5 45t44.5 21q50 0 186 4q119 4 187 4 q67 0 65 -64zM1210 1255q1 10 -6.5 16.5t-17.5 6.5l-373 -10q-20 -1 -20 -23l-11 -690q-1 -112 -22 -164q-33 -86 -125 -86q-139 0 -139 217q0 55 16 717q1 21 -20 23l-373 22q-24 2 -25 -24q-10 -666 -10 -758q0 -555 547 -555t561 571z" />
<glyph unicode="V" horiz-adv-x="1294" d="M1282 1354h-2l-291 -1254q-8 -53 -65 -53h-576q-55 0 -65 51l-271 1260q0 77 66 76l368 -7q57 0 66 -55l119 -717l149 717q11 53 64 53l370 2q27 1 47.5 -20.5t20.5 -52.5zM1239 1362q0 22 -25 22h-370q-17 0 -21 -20l-194 -948l-160 948q-3 20 -23 20l-368 7 q-23 0 -23 -23v-4l271 -1255q4 -21 22 -21h576q19 0 24 21z" />
<glyph unicode="W" horiz-adv-x="1579" d="M1556 1317l-100 -1297q-4 -57 -65 -59q-128 -5 -381 -14q-44 -1 -64 41l-155 446l-150 -444q-19 -45 -63 -43l-369 14q-51 2 -62 55l-124 1307q0 26 20 48t45 22h311q24 0 44 -18t22 -42q8 -135 37 -540l92 409q11 53 63 53h263q54 0 65 -53q21 -88 86 -401l41 540 q2 26 23.5 43.5t46.5 16.5l313 -17q25 -1 44 -21.5t17 -45.5zM1516 1319q-6 12 -23 24l-313 15q-23 1 -25 -21l-63 -835l-150 692q-4 18 -22 18h-263q-16 0 -20 -18l-158 -692l-57 827q-2 23 -23 23h-311q-25 0 -25 -25v-2l125 -1302q4 -18 23 -19l367 -16q16 -1 22 18 l188 561l197 -563q6 -17 23 -16l383 16q21 1 22 21z" />
<glyph unicode="X" horiz-adv-x="1219" d="M1208 1341q0 -16 -8 -30l-338 -590l338 -598q6 -11 6 -33q0 -25 -18.5 -45t-44.5 -20q-116 -5 -344 -13q-44 -1 -62 35l2 -2l-64 114.5l-65 114.5l-131 -229l2 2q-18 -36 -59 -35l-348 13q-25 0 -44.5 20.5t-19.5 44.5q0 18 8 33l338 596l-338 592q-8 14 -8 30 q0 66 66 66h364q44 0 60 -35l-2 2l110 -198l56.5 98.5l56.5 99.5l-2 -2q16 35 57 35h367q65 0 65 -66zM1165 1341q0 23 -22 23h-367q-13 0 -20 -12l-148 -262l-147 262q-3 12 -21 12h-364q-23 0 -23 -23q0 -5 4 -12l346 -608l-346 -619q-4 -7 -4 -12q0 -21 23 -22l346 -15 q13 0 20 13l166 292l168 -292q8 -13 21 -13l346 15q20 0 20 22q0 9 -2 12l-346 619l346 608q4 7 4 12z" />
<glyph unicode="Y" horiz-adv-x="1348" d="M1333 1266q0 -25 -422 -881l7 -367q0 -26 -20.5 -45.5t-45.5 -19.5l-387 -6q-66 -1 -66 65v377q-8 21 -30 72l-216 471q-139 306 -139 340q0 66 66 65l387 -6q49 -1 63 -45l134 -422l155 424q16 43 60 43h389q65 0 65 -65zM1290 1266q0 22 -22 22h-389q-18 0 -23 -14 l-194 -543l-170 543q-5 14 -25 14l-387 6q-23 1 -23 -22l385 -873v-387q0 -25 23 -24l387 8q23 0 22 22l-6 381q422 844 422 867z" />
<glyph unicode="Z" horiz-adv-x="1251" d="M1210 6q0 -66 -67 -65l-1026 12q-25 0 -45 20.5t-21 44.5q-4 114 -10 342q0 23 20 48l527 499l-471 13q-25 0 -45 20.5t-21 44.5q-4 108 -10 324q0 28 20 46.5t45 18.5l1039 2q65 0 65 -65v-363q0 -24 -18 -47l-520 -493q76 0 236.5 1t236.5 1q65 0 65 -66v-338zM1167 6 v338q0 25 -22 25l-580 -2l596 565q6 12 6 16v363q0 22 -22 22l-1039 -2q-23 0 -22 -22l8 -324q1 -24 25 -24l573 -13l-600 -573q-6 -3 -6 -15l8 -342q1 -22 25 -22l1026 -12q24 -1 24 22z" />
<glyph unicode="[" horiz-adv-x="772" d="M745 -178q0 -66 -67 -66h-584q-65 0 -65 66l-2 1685q0 66 65 66l586 2q28 0 47.5 -20t19.5 -48v-231q0 -66 -67 -66h-201l-6 -1089h207q67 0 67 -66v-233zM702 -178v233q0 25 -24 25h-248l4 1173h244q24 0 24 23v231q0 25 -24 25l-586 -2q-22 0 -22 -23l2 -1685 q0 -23 22 -23h584q24 0 24 23z" />
<glyph unicode="\" horiz-adv-x="934" d="M899 92q0 -67 -65 -65l-256 8q-44 1 -62 43l-78 201q-403 1052 -403 1083q0 64 65 65l262 5q48 0 64 -43q473 -1269 473 -1297zM856 92q0 35 -471 1282q-3 15 -23 15l-262 -5q-22 0 -22 -22q0 -14 477 -1270q5 -14 23 -14l256 -8q22 -1 22 22z" />
<glyph unicode="]" horiz-adv-x="772" d="M745 1507l-4 -1685q0 -66 -65 -66h-584q-65 0 -65 66v233q0 66 65 66h207l-6 1089h-201q-65 0 -65 66v231q0 68 65 68l586 -2q68 0 67 -66zM702 1507q0 23 -24 23l-586 2q-22 0 -22 -25v-231q0 -23 22 -23h244l4 -1173h-248q-22 0 -22 -25v-233q0 -23 22 -23h584 q22 0 22 23z" />
<glyph unicode="^" horiz-adv-x="2048" d="M1622 901h-125l-473 469l-475 -469h-125l539 557h118z" />
<glyph unicode="_" horiz-adv-x="1024" d="M1024 -483h-1024v80h1024v-80z" />
<glyph unicode="`" horiz-adv-x="1040" d="M778 1163q0 -30 -18 -47l-92 -84q-27 -16 -43 -16q-26 0 -50 18h3l-293 287q-23 22 -23 49q0 29 14 43l146 117q23 18 49 18q34 0 51 -28l-2 2l244 -320l-2 6q16 -19 16 -45zM735 1163q0 6 -4 15l-244 319q-6 8 -16 8q-11 0 -16 -4l-144 -115q-6 -6 -6 -16t8 -18 l293 -287q6 -6 19 -6q10 0 14 4l90 84q6 12 6 16z" />
<glyph unicode="a" horiz-adv-x="1090" d="M1053 678q0 -140 -23 -471l-12 -166q-2 -30 -2 -25q0 -30 -2 -45q-8 -57 -68 -57l-244 -2q-27 0 -47 20t-20 48v32q-92 -26 -199 -26q-180 0 -290 76q-130 90 -130 266q0 193 201 287q154 73 381 73q27 0 80 -4v4q0 37 -25 66.5t-61 29.5q-60 0 -82 -29q-28 -37 -61 -46 l-283 -43q-30 -5 -53 14t-23 51l2 14q50 166 178 255q125 87 301 87q482 0 482 -409zM1010 678q0 366 -439 366q-162 0 -277 -78t-161 -227q0 -2 -1 -4t-1 -4q0 -26 29 -22l286 39q4 0 42 41q36 38 104 38q53 0 90 -40t37 -93q0 -9 -1 -26.5t-1 -26.5q-65 10 -119 10 q-196 0 -340 -61q-199 -85 -199 -262q0 -155 116 -233q99 -66 261 -66q129 0 246 43q0 -16 -2 -46.5t-2 -45.5q0 -27 24 -27l244 2q25 0 29 36v54q35 562 35 633zM707 434l-13 -196q-58 -11 -104 -11q-146 0 -146 97q0 114 203 114q19 0 60 -4zM659 395h-12q-162 0 -162 -71 q0 -54 105 -54q39 0 63 4q1 19 6 121z" />
<glyph unicode="b" horiz-adv-x="1139" d="M1120 528q0 -228 -138 -374t-364 -146q-62 0 -124 17v-60q0 -67 -68 -65l-293 6q-22 0 -43.5 21t-21.5 42l-50 1479q0 27 18.5 47.5t47.5 20.5h334q65 0 65 -66l4 -391q15 2 45 2q244 0 411 -142q177 -150 177 -391zM1077 528q0 220 -165 360q-156 132 -380 132 q-52 0 -88 -10l-4 440q0 25 -22 25l-334 -2q-23 -1 -23 -25l50 -1477q0 -22 22 -22l293 -6q11 -1 19 5.5t8 16.5l-2 123q77 -39 167 -39q207 0 334 136q125 133 125 343zM674 471q0 -149 -148 -149q-28 0 -77 12l-3 315q228 0 228 -178zM631 471q0 123 -144 133 q0 -41 1 -116.5t1 -120.5q11 -2 37 -2q105 0 105 106z" />
<glyph unicode="c" horiz-adv-x="846" d="M836 289l-11 -221q-2 -45 -45 -60q-52 -18 -155 -18q-245 0 -418 121q-197 137 -197 374q0 272 151.5 432t420.5 160q121 0 192 -30h-2q43 -20 43 -60v-321q0 -24 -17.5 -45t-43.5 -21q-11 0 -30 1t-26 1q-32 4 -49 4q-200 0 -200 -141q0 -121 194 -121q21 0 63 6t64 6 q29 0 48 -19.5t18 -47.5zM795 289q1 24 -25 24h-4q-19 0 -60.5 -5t-62.5 -5q-237 0 -237 162q0 184 243 184q18 0 52.5 -4t52.5 -4t18 25v321q0 14 -14 21q-61 26 -176 26q-250 0 -390.5 -148t-140.5 -401q0 -215 184 -341q162 -111 390 -111q95 0 139 16q17 4 18 21z" />
<glyph unicode="d" horiz-adv-x="1159" d="M1141 1438l-82 -1479q-2 -24 -22 -42.5t-44 -18.5l-293 -2q-25 -1 -45.5 18t-19.5 47l2 59q-55 -12 -117 -12q-223 0 -362.5 144.5t-139.5 369.5q0 246 175 396q166 143 413 143q11 0 30 -1t28 -1q2 130 10 391q1 28 21 47t46 19l334 -11q69 -2 66 -67zM1098 1438 q1 24 -23 24l-334 11q-24 0 -24 -23l-12 -444q-46 14 -99 14q-229 0 -383 -133q-162 -140 -162 -365q0 -207 127.5 -340t331.5 -133q87 0 160 35l-2 -123q0 -9 7 -15.5t15 -6.5l293 2q24 0 25 20zM694 647l-6 -317q-35 -8 -76 -8q-147 0 -147 145q0 180 229 180zM651 602 q-145 -15 -145 -135q0 -102 106 -102h33z" />
<glyph unicode="e" horiz-adv-x="926" d="M913 80q0 -51 -127 -84q-94 -25 -161 -25q-267 0 -435 145q-178 153 -178 416q0 243 108 431q131 227 363 227q424 0 424 -504q0 -63 -33 -165q-42 -127 -94 -126q-110 5 -362 13q48 -109 180 -109q72 0 221 47q16 2 17 2q58 0 65 -59q1 -35 7 -125q5 -85 5 -84zM870 80 q0 227 -34 227q-3 0 -4.5 -0.5l-4.5 -1.5q-143 -49 -229 -49q-201 0 -238 197l422 -15q35 -1 62 107q22 88 22 141q0 461 -383 461q-211 0 -330 -212q-98 -175 -98 -403q0 -243 166 -385q156 -133 404 -133q58 0 137 15q108 19 108 51zM616 711q0 -19 -5 -55q-8 -45 -17 -46 l-236 -8q25 229 160 229q98 0 98 -120zM575 711q0 80 -57 80q-85 0 -110 -146q53 3 159 7q8 45 8 59z" />
<glyph unicode="f" horiz-adv-x="791" d="M901 1276q0 -22 -18 -44t-43 -22t-54 4q-14 3 -47 3q-176 0 -184 -125q-3 -37 -8 -131q56 -4 168 -11q24 -1 43 -21.5t18 -43.5l-6 -246q-2 -67 -65 -64l-142 9q0 -102 2 -303t2 -301q0 -66 -67 -66l-301 2q-26 0 -46.5 19t-19.5 47l19 653h-58q-51 0 -63 57q-2 15 -4 41 q-15 115 -15 168q0 29 21 48t49 18l65 -2q-2 41 -2 129q0 102 9 151v-2q39 199 183 309q138 107 341 107q105 0 182 -27q41 -19 41 -61v-295zM860 1276v295q0 16 -16 22q-56 23 -166 23q-186 0 -313 -98q-133 -101 -168 -283q-16 -81 -4 -315l-113 6q-27 1 -27 -25 q0 -42 21 -201q3 -21 20 -22l101 -4l-19 -692q-1 -25 23 -25l301 -2q9 0 16.5 7t7.5 18l-4 649l185 -11q24 -1 24 23l4 244q1 21 -20 22l-207 13q0 80 6 174q11 163 227 163q17 0 50.5 -2t50.5 -2q20 0 20 23z" />
<glyph unicode="g" horiz-adv-x="1118" d="M1083 799q0 -233 -10 -578q-1 -20 -2 -55q-2 -123 -5 -184q-6 -104 -22 -177q-39 -190 -181.5 -303.5t-338.5 -113.5q-110 0 -186 28q-43 17 -43 62v295q0 65 70 65q15 0 45.5 -4t46.5 -4q184 0 184 123v80q-46 -10 -111 -10q-228 0 -371 143.5t-143 372.5q0 238 167 379 q157 133 399 133q34 0 49 -2v20q0 66 65 66l320 -2q64 -1 65 -68q2 -125 2 -266zM1038 1065q0 27 -22 27h-320q-22 0 -22 -23v-72q-51 11 -92 11q-225 0 -369 -121q-154 -129 -154 -348q0 -211 130.5 -342t340.5 -131q77 0 154 24v-137q0 -164 -227 -164q-16 0 -47 3t-45 3 q-27 0 -27 -22v-295q0 -16 16 -23q61 -24 170 -24q186 0 313 99q131 102 164 284q18 96 29 409q14 411 8 842zM680 342q-33 -4 -49 -4q-168 0 -168 143q0 179 215 183zM637 379l-2 237q-131 -22 -131 -135q0 -102 127 -102h6z" />
<glyph unicode="h" horiz-adv-x="1130" d="M1094 561q0 -140 -15 -350q-2 -32 -8 -195q-2 -67 -65 -63l-304 18q-25 2 -43 22t-18 44q0 -2 2 174q4 352 4 350q0 166 -67 166q-68 0 -101 -45l4 -631q0 -25 -20 -45t-45 -20q-109 -2 -309 -4q-68 -2 -68 65l-4 1552q0 66 65 66h306q65 0 65 -66l4 -524q83 51 193 51 q230 0 338 -180q86 -144 86 -385zM1051 561q0 223 -77 357q-97 167 -304 167q-128 0 -236 -96l-4 610q0 23 -22 23h-306q-22 0 -22 -23l4 -1552q0 -25 25 -24l309 6q25 0 24 22l-6 643q44 74 144 74q108 0 108 -207q0 35 -6 -524q0 -21 23 -23l301 -18q21 -1 22 20 q23 505 23 545z" />
<glyph unicode="i" horiz-adv-x="573" d="M553 1163q0 -104 -82 -174q-78 -67 -182 -67q-106 0 -185 68q-84 71 -84 175q0 106 83 177q77 67 182 67t185 -68q83 -72 83 -178zM526 836l-20 -795q-1 -25 -21 -45t-45 -21l-317 -2q-28 0 -48 18.5t-20 47.5l15 803q1 64 67 63l324 -4q67 -1 65 -65zM510 1163 q0 88 -70 147q-66 56 -155 56q-88 0 -153 -55q-69 -58 -69 -146q0 -86 70 -146q67 -56 156 -56q87 0 153 55q68 59 68 145zM483 836q1 24 -22 24l-324 4q-26 1 -26 -22l-13 -803q0 -23 25 -23h317q24 0 25 25z" />
<glyph unicode="j" horiz-adv-x="598" d="M567 1163q0 -104 -82 -174q-78 -67 -182 -67t-182 68q-82 71 -82 175q0 106 82 177q78 67 182 67t182 -68q82 -72 82 -178zM530 811q0 -428 -10 -664q-6 -153 -8 -173q-7 -103 -20 -169q-41 -190 -182.5 -303.5t-336.5 -113.5q-117 0 -190 28h2q-41 19 -41 62v295 q0 65 70 65q20 0 48.5 -4t43.5 -4q186 0 184 123l-12 860q-1 29 19 47.5t48 18.5l320 -2q65 -1 65 -66zM526 1163q0 88 -69 147q-66 56 -154 56t-154 -55q-69 -58 -69 -146q0 -86 69 -146q66 -56 154 -56t154 55q69 59 69 145zM487 811q0 22 -22 23l-320 2q-9 0 -16.5 -6.5 t-7.5 -16.5l12 -860q2 -164 -227 -164q-16 0 -47 3t-45 3q-29 0 -29 -22v-295q0 -16 16 -23q56 -24 172 -24q185 0 311 99q130 102 165 284q18 96 28 336q10 236 10 661z" />
<glyph unicode="k" horiz-adv-x="1100" d="M1094 33q0 -24 -19 -44.5t-43 -21.5l-338 -14q-38 -1 -53 27l-172 186q8 -119 8 -193q0 -68 -67 -65l-312 14q-25 1 -43.5 21.5t-17.5 44.5l22 1456q1 24 20.5 43t43.5 20q168 8 328 11q28 0 47.5 -18.5t17.5 -47.5l-41 -610l117 237q17 35 59 35l322 4q65 1 65 -65 q0 -24 -264 -574l303 -399q17 -21 17 -47zM1051 33q0 12 -4 16l-324 426q274 572 274 578q0 23 -24 22l-322 -4q-14 0 -20 -12l-213 -426l55 819q1 11 -6 18t-16 7l-326 -13q-24 -1 -25 -20l-20 -1456q0 -22 20 -23l310 -14q24 -1 24 22q0 59 -5 154q-8 130 -9 156l254 -279 q6 -9 18 -8l338 14q21 1 21 23z" />
<glyph unicode="l" horiz-adv-x="530" d="M512 1397l-12 -1288q-1 -23 -21 -44t-43 -22q-158 -7 -334 -12q-28 -1 -48.5 18t-20.5 47l-2 1301q0 65 65 65h350q67 0 66 -65zM469 1397q0 22 -23 22h-350q-22 0 -22 -22l2 -1301q0 -23 24 -22l334 10q22 1 23 25z" />
<glyph unicode="m" horiz-adv-x="1831" d="M1774 518l-27 -487q-4 -66 -66 -62l-301 19q-24 1 -43.5 21.5t-19.5 43.5q0 24 2 63q2 50 2 62q4 158 4 369q0 158 -65 158q-133 0 -146 -76q15 -31 15 -263q0 -124 -5 -296q0 -22 -21.5 -42.5t-43.5 -21.5q-78 -2 -299 -6q-65 -1 -66 66l-2 487q-1 174 -71 174 q-87 0 -115 -78q5 -188 14 -567q1 -25 -18 -45t-43 -21l-312 -12q-66 -3 -67 66q-9 323 -23 970q-1 64 66 66q80 2 303 6q68 1 68 -65v-3q105 84 219 84q219 0 329 -174q126 152 310 152q222 0 332 -167q91 -138 91 -364q0 -28 -1 -57zM1731 518q0 545 -379 545 q-107 0 -183 -50q-62 -41 -133 -141q-98 215 -323 215q-136 0 -260 -143l-2 103q-1 23 -25 22l-303 -6q-23 -1 -23 -23l21 -970q0 -24 24 -23l312 10q21 1 20 25l-14 573q33 113 158 113q114 0 114 -215v-487q0 -23 25 -23l299 6q22 1 22 23q13 498 13 536q19 140 166 140 q108 0 108 -201q0 -58 -10 -494q-1 -21 24 -22l299 -19q24 -1 25 21z" />
<glyph unicode="n" horiz-adv-x="1147" d="M1110 559q0 -86 -12 -350q-5 -53 -11 -166q-1 -69 -67 -66l-301 17q-26 1 -45 21.5t-19 43.5q0 -2 2 166l5 336q0 166 -68 166q-88 0 -117 -76q3 -189 8 -569q1 -25 -20 -45t-45 -21q-110 -1 -311 -4q-68 -1 -68 66l-4 971q0 65 65 65h306q52 0 63 -53q91 65 215 65 q231 0 339 -181q85 -144 85 -386zM1067 559q0 224 -77 358q-96 168 -304 168q-142 0 -256 -116v80q0 22 -22 22h-306q-22 0 -22 -22l4 -971q0 -25 25 -25l311 6q23 1 22 23l-8 575q36 111 160 111q111 0 111 -207q0 27 -7 -502q0 -21 23 -22l299 -19q26 -1 27 25 q20 548 20 516z" />
<glyph unicode="o" horiz-adv-x="1032" d="M1018 535q0 -237 -110 -388q-125 -172 -355 -172q-250 0 -394.5 140t-144.5 389q0 252 106 409q123 185 367 185q253 0 395 -158q136 -152 136 -405zM975 535q0 234 -125 374q-131 148 -363 148q-222 0 -334 -172q-96 -146 -96 -381q0 -229 133 -358.5t363 -129.5 q209 0 322 160q100 140 100 359zM641 524q0 -74 -31 -127q-38 -65 -108 -65q-133 0 -133 151q0 72 33 127q40 66 106 66q64 0 100 -45q33 -41 33 -107zM598 524q0 111 -90 111q-46 0 -74 -52q-22 -44 -22 -100q0 -108 90 -108q96 0 96 149z" />
<glyph unicode="p" horiz-adv-x="1159" d="M1141 528q0 -228 -137 -373q-140 -147 -365 -147q-64 0 -129 17q0 -79 2 -232t2 -233q0 -28 -20 -47.5t-48 -18.5l-292 8q-24 1 -44.5 21t-21.5 43l-49 1478q-2 65 65 66l334 4q56 1 64 -55q9 0 27 1t26 1q243 0 410 -142q176 -150 176 -391zM1098 528q0 220 -164 360 q-155 132 -379 132q-48 0 -94 -12q0 63 -23 63l-334 -4q-23 0 -22 -23l49 -1476q1 -22 23 -23l292 -8q11 0 19 6.5t8 16.5l-4 528q72 -39 170 -39q206 0 334 136q125 133 125 343zM694 471q0 -149 -147 -149q-27 0 -80 12l-2 315h8q95 0 154 -40q67 -47 67 -138zM651 471 q0 118 -143 133v-235q33 -4 39 -4q104 0 104 106z" />
<glyph unicode="q" horiz-adv-x="1165" d="M1126 1053l-79 -1477q-2 -24 -22.5 -42.5t-43.5 -18.5l-293 -2q-26 -1 -46 18t-19 47l14 445q-65 -15 -117 -15q-223 0 -362.5 144.5t-139.5 369.5q0 246 175 396q166 143 413 143q37 0 53 -2q13 72 72 71q140 -1 334 -10q65 -3 61 -67zM1083 1053q2 23 -20 24l-334 13 q-27 1 -27 -82q-49 12 -96 12q-229 0 -383 -133q-162 -140 -162 -365q0 -207 127.5 -340t331.5 -133q87 0 160 35l-14 -506q-1 -10 6.5 -16t15.5 -6l293 2q23 0 25 20zM692 647l-6 -317q-33 -8 -74 -8q-149 0 -149 145q0 180 223 180h6zM649 602q-143 -15 -143 -135 q0 -102 106 -102h31z" />
<glyph unicode="r" horiz-adv-x="850" d="M842 795q0 -28 -19 -48t-47 -20q-207 0 -287 -100q12 -194 31 -574q1 -25 -18.5 -45.5t-46.5 -21.5q-109 -2 -310 -4q-21 -1 -43.5 19.5t-23.5 43.5l-49 1073q-3 66 65 66h303q24 0 45.5 -19t22.5 -45q1 -13 4 -73q128 79 256 79q108 0 111 -67q2 -57 6 -264zM799 795 l-6 264q-1 26 -72 26q-142 0 -291 -120l-8 155q-1 21 -25 21h-303q-23 0 -22 -23l49 -1071q1 -25 24 -24l310 6q24 0 24 22v2l-30 586q87 129 327 129q23 0 23 27z" />
<glyph unicode="s" horiz-adv-x="1006" d="M991 903q0 -23 -61 -96l-101 -117q-23 -28 -28 -35q-16 -18 -47 -18q-15 5 -52 25q-142 88 -233 88q-33 0 -33 -7q0 -1 127 -47q190 -68 277 -132q145 -108 145 -271q0 -371 -498 -371q-120 0 -248 55q-134 57 -210 148l2 -4q-17 19 -17 49q0 26 15 43l172 195l-2 -7 q17 27 53 27q17 0 57 -25q148 -90 219 -90q41 0 41 17q0 7 -125 45q-192 59 -277 120q-144 104 -144 283q0 163 174 275q152 98 321 98q123 0 250 -56q132 -57 207 -149v4q16 -19 16 -47zM948 903q0 9 -6 17q-71 84 -193 137q-118 51 -231 51q-154 0 -294 -87 q-161 -98 -161 -243q0 -162 143 -257q76 -51 264 -109q142 -43 142 -82q0 -58 -84 -58q-72 0 -177 56.5t-99 56.5q-13 0 -19 -8l-172 -193q-4 -8 -4 -14q0 -10 4 -18q72 -84 196 -137q118 -50 230 -50q455 0 455 328q0 146 -142 245q-77 53 -264 120q-143 52 -143 85 q0 50 76 50q85 0 189 -56.5t96 -56.5q13 0 18 8q176 211 176 215z" />
<glyph unicode="t" horiz-adv-x="780" d="M772 911l-6 -243q-2 -70 -66 -66l-141 8q0 -101 2 -301.5t2 -302.5q0 -66 -67 -65l-301 2q-26 0 -46.5 18.5t-19.5 46.5l18 654q-18 2 -57 2q-52 0 -63 55q-2 14 -4 41q-15 115 -15 168q0 65 70 65h67q0 44 -2 118l-4 118q0 28 20 47t48 18l293 -2q71 0 65 -67l-20 -238 q55 -3 166 -10q24 -2 43 -22t18 -44zM731 911q1 22 -22 23l-207 12l20 281q0 24 -22 24l-293 2q-11 0 -19 -7t-8 -17l8 -283l-112 6q-27 2 -27 -24q0 -42 21 -201q2 -22 20 -22l100 -5l-18 -692q-1 -24 23 -24h301q24 0 24 22l-4 649l184 -10q24 -1 25 23z" />
<glyph unicode="u" horiz-adv-x="1147" d="M1110 16q0 -65 -66 -65h-305q-55 0 -65 51q-91 -65 -213 -65q-229 0 -337 180q-87 145 -87 387q0 90 12 348q4 54 10 172q1 27 22 46t48 17l299 -20q24 -2 44 -22t20 -44q0 3 -3 -165l-4 -332q0 -166 66 -166q92 0 119 78q-4 188 -8 563q-1 64 65 65q104 4 311 9 q68 1 68 -66zM1067 16l-4 971q0 23 -25 23l-311 -9q-23 0 -22 -22l8 -571h-2q-37 -113 -160 -113q-109 0 -109 209q0 -37 7 497q0 24 -23 25l-299 18q-26 2 -27 -22q-20 -553 -20 -518q0 -224 77 -358q97 -166 304 -166q144 0 256 114v-78q0 -24 22 -24h305q23 0 23 24z" />
<glyph unicode="v" horiz-adv-x="1182" d="M1171 1010q0 -9 -200 -734l-62 -223q-11 -51 -65 -51h-527q-54 0 -65 51v-2q-5 26 -23 101l-219 862q0 67 66 65l332 -6q53 -1 63 -51l107 -516l129 516q10 51 65 51l334 2q65 1 65 -65zM1128 1010q0 22 -22 22l-334 -2q-18 0 -22 -16l-177 -705l-145 705q-3 16 -20 16 l-332 6q-25 1 -25 -22q0 -11 115 -455l129 -498q4 -16 22 -16h527q22 0 22 16q262 918 262 949z" />
<glyph unicode="w" horiz-adv-x="1516" d="M1495 1014l-96 -965q-10 -49 -64 -51q-125 -5 -366 -12q-47 -2 -64 37l-147 333l-144 -331v2q-15 -43 -61 -41l-352 12q-57 2 -64 55l-117 969q0 27 20.5 48.5t45.5 21.5h297q22 0 43 -18t23 -42q9 -96 32 -395q37 121 88 303l-2 -4q12 53 64 53h252q54 0 65 -53l-2 4 l84 -305q10 132 37 405q6 60 66 58l301 -11q61 -2 61 -73zM1454 1020q0 24 -22 24l-299 13q-23 1 -25 -23l-57 -631l-146 525q0 18 -22 18h-252q-21 0 -21 -18l-153 -525l-49 625q-2 23 -25 23l-297 -2q-25 -1 -25 -23v-2l119 -965q2 -17 23 -18l350 -12q18 -1 25 14 l180 420l186 -420q7 -15 25 -14l364 12q21 1 25 18z" />
<glyph unicode="x" horiz-adv-x="1159" d="M1149 70q0 -25 -19.5 -45.5t-44.5 -20.5q-108 -4 -325 -10q-34 -1 -55 29v-3l-63 87.5l-62 87.5l-125 -175v3q-23 -30 -56 -29l-325 10q-25 1 -44.5 21t-19.5 45q0 22 6 34l314 443l-314 436q-6 12 -6 35q0 65 64 65h346q33 0 53 -28l107 -152q36 49 106 152q19 28 53 28 h346q64 0 64 -65q0 -23 -6 -35l-314 -436l314 -445q6 -12 6 -32zM1108 70q0 8 -4 12l-326 465l326 457q4 8 4 14q0 22 -23 22h-346q-11 0 -18 -10l-141 -201l-142 201q-7 10 -18 10h-346q-23 0 -23 -22q0 -6 4 -14l326 -457l-326 -465q-4 -4 -4 -12q0 -22 23 -23l325 -10 q13 -1 21 10l160 223l159 -223q8 -11 21 -10l325 10q23 1 23 23z" />
<glyph unicode="y" horiz-adv-x="1128" d="M1092 1057q0 -533 -9 -819q-1 -24 -2 -64q-2 -134 -5 -197q-6 -113 -21 -184q-41 -190 -183 -303t-337 -113q-116 0 -189 29h2q-43 18 -43 59v297q0 66 68 66q22 0 51 -4t43 -4q184 0 184 123v61q-89 -61 -211 -61q-229 0 -337 179q-87 144 -87 384q0 117 15 358 q3 55 8 164q1 68 70 64l299 -19q24 -1 43.5 -21.5t19.5 -43.5l-2 -166l-4 -334q0 -166 65 -166q89 0 117 72l-6 645q0 28 18.5 47t47.5 18l319 -2q66 0 66 -65zM1049 1057q0 22 -23 22l-319 2q-10 0 -16.5 -6.5t-6.5 -15.5l6 -651q-37 -109 -160 -109q-108 0 -108 209 q0 -35 6 500q0 21 -22 22l-300 19q-25 1 -26 -23q-21 -548 -21 -520q0 -222 78 -356q97 -166 303 -166q140 0 252 112q0 -25 1 -76.5t1 -76.5q0 -164 -227 -164q-15 0 -47 4t-47 4q-27 0 -27 -25v-297q0 -13 19 -20q61 -25 170 -25q185 0 313.5 100.5t163.5 280.5 q18 96 28 439q9 269 9 817z" />
<glyph unicode="z" horiz-adv-x="1083" d="M1047 39q0 -66 -66 -66l-872 11q-25 0 -45.5 20.5t-20.5 44.5q0 14 -4 98t-4 154q0 36 24 49l428 371q-55 1 -210 5q-130 3 -168 3q-25 0 -45.5 20.5t-20.5 45.5q0 39 -4 117.5t-4 117.5q0 66 65 66l881 2q66 0 66 -66v-268q0 -36 -23 -51l-426 -365q254 4 383 4 q66 0 66 -67v-246zM1006 39v246q0 24 -25 24l-496 -2l512 438q9 6 9 19v268q0 25 -25 25l-881 -2q-22 0 -22 -25q0 -44 3 -118q4 -88 5 -117q1 -25 23 -25l491 -8l-514 -445q-8 -5 -8 -16q0 -48 3 -127q4 -93 5 -125q1 -24 23 -24l872 -9q25 0 25 23z" />
<glyph unicode="{" horiz-adv-x="1024" d="M848 -414h-43q-201 0 -269 88q-57 75 -57 287v240q0 160 -57.5 223t-200.5 63q7 0 -22 -2h-23v90q7 0 21 -2h28q146 0 203 72q51 64 51 215v240q0 229 67.5 303t258.5 74h43v-88h-37q-143 0 -190 -62q-39 -52 -39 -203v-241q0 -152 -30 -220q-41 -96 -165 -133 q124 -36 165 -132q30 -69 30 -220v-241q0 -162 46 -212.5t181 -50.5h39v-88z" />
<glyph unicode="|" horiz-adv-x="1024" d="M557 -483h-90v2048h90v-2048z" />
<glyph unicode="}" horiz-adv-x="1024" d="M848 485h-23q-29 2 -22 2q-143 0 -200.5 -63t-57.5 -223v-240q0 -212 -57 -287q-68 -88 -269 -88h-43v88h39q135 0 181 50.5t46 212.5v241q0 153 30 221q42 95 167 131q-125 37 -167 132q-30 68 -30 221v241q0 151 -39 203q-47 62 -190 62h-37v88h43q191 0 258.5 -74 t67.5 -303v-240q0 -159 57 -223t201 -64h22q30 2 23 2v-90z" />
<glyph unicode="~" d="M1530 647q-211 -147 -387 -147q-99 0 -266 61l-23 8q-9 4 -33 13q-164 59 -256 59q-85 0 -174.5 -36.5t-212.5 -123.5v92q101 72 200 109t187 37q100 0 271 -62l18 -6l29 -10q169 -61 260 -61q80 0 176 38q92 38 211 121v-92z" />
<glyph unicode="&#xa1;" horiz-adv-x="573" d="M49 8l14 1004q1 66 66 65l326 -4q67 -1 65 -65l-22 -1000q-1 -25 -21 -45t-45 -20h-317q-67 0 -66 65zM12 1270q0 86 98 136q77 40 166 40q94 0 171 -41q98 -50 98 -141q0 -85 -100 -136q-79 -41 -164 -41q-89 0 -169 42q-100 53 -100 141zM92 8q0 -22 23 -22h317 q24 0 25 22l20 1000q1 22 -22 22l-326 4q-24 1 -25 -22zM55 1270q0 -68 84 -108q67 -32 142 -32q72 0 138 31q83 38 83 103q0 70 -81 109q-65 32 -145 32q-74 0 -139 -31q-82 -38 -82 -104z" />
<glyph unicode="&#xa2;" horiz-adv-x="938" d="M907 469l-12 -233q-2 -41 -53 -62q-52 -16 -152 -16v-41q0 -64 -59 -74q-20 -3 -70 -6q-29 -5 -51.5 15.5t-22.5 49.5v76q-205 46 -324 168q-132 136 -132 344q0 239 115 390q119 156 348 200v121q0 29 19.5 48t47.5 17l74 -4q26 -1 44.5 -20.5t18.5 -44.5v-107 q91 -7 144 -30q41 -19 41 -60l-2 -291q-1 -65 -70 -65q-42 0 -70 6l-47 6q-4 -225 -4 -336q15 0 62 8.5t90 8.5q28 0 47.5 -20.5t17.5 -47.5zM864 469q2 25 -22 25h-4q-28 0 -81 -8.5t-79 -8.5h-29l2 420h31q23 0 65.5 -5t63.5 -5h4q25 0 25 22l2 291q0 16 -17 23 q-62 24 -170 28v146q0 21 -20 22l-74 4q-24 2 -24 -22v-158q-226 -35 -344.5 -179.5t-118.5 -373.5q0 -199 134 -325q118 -112 322 -152v-111q0 -26 25 -22q29 0 77 6q17 7 17 31q0 6 -1 33t-1 51q117 -5 187 14q17 7 18 23zM535 877l-3 -381q-145 44 -145 176 q0 151 148 205zM492 807q-62 -49 -62 -135q0 -77 59 -113q0 166 3 248z" />
<glyph unicode="&#xa3;" horiz-adv-x="1231" d="M1190 836q0 -28 -23 -48.5t-51 -17.5h2l-299 31q-69 7 -59 119q0 3 1 8t1 8q0 145 -78 145q-80 0 -84 -172q0 -6 -1 -22.5t-1 -24.5v-104q131 -4 199 -4q25 0 45.5 -19t19.5 -47l-4 -186q-1 -64 -63 -64l-211 2q0 -53 -2 -98l553 -47q52 -11 51 -66l-4 -163 q-2 -64 -66 -62l-911 29q-29 1 -47 21.5t-17 47.5l15 344q-12 0 -25 1.5t-25 1.5q-25 0 -44 20t-19 45l-2 184q-1 64 65 64h58q3 59 8 180q17 524 516 524q502 0 502 -510v-120zM1149 836v120q0 467 -461 467q-462 0 -475 -483l-6 -221l-101 2q-10 0 -17 -6.5t-7 -16.5 l2 -184q0 -22 22 -22l93 -3l-15 -389q-1 -23 23 -24l909 -29q22 -1 23 21l6 161q1 21 -23 23l-585 51l6 180l252 -4q22 0 22 23l4 186q1 22 -24 23l-246 4q4 43 8 194q3 98 19 141q28 74 106 74q119 0 119 -188q0 -94 -2 -54q2 -36 22 -38l297 -31q29 -3 29 23z" />
<glyph unicode="&#xa4;" horiz-adv-x="1427" d="M1380 96q0 -30 -16 -47l2 4q-69 -78 -212 -121q-118 -34 -241 -34q-245 0 -427 119q-197 129 -255 358h-118q-25 0 -45 20.5t-21 44.5l-2 99q-1 46 43 63q-40 15 -41 60l-2 100q-1 28 18.5 48t47.5 19l129 -4q80 263 338 401q226 122 528 122q73 0 82 -56l53 -334 q5 -31 -15.5 -53t-51.5 -22q-14 0 -41.5 2t-40.5 2q-185 0 -287 -64q23 0 69.5 -1t69.5 -1q66 0 66 -65q0 -2 -23 -86q-5 -17 -12 -37q-17 -39 -51 -45q28 -22 28 -53q0 -4 -24 -84q-4 -17 -10 -39q-19 -45 -64 -45h-55q54 -25 131 -25q134 0 293 98q16 11 34 11 q55 0 66 -52q7 -31 57 -290v-13zM1339 96v4l-57 291q-3 17 -25 17q-6 0 -10 -2q-172 -105 -317 -105q-166 0 -258 109l182 -2q15 -1 23 18q32 115 32 109q0 22 -22 22l-260 2q0 47 4 74l282 -2q15 0 21 14q33 131 33 111q0 22 -23 22l-254 2q130 148 402 148q14 0 41 -1 t41 -1q28 0 24 26l-51 334q-3 19 -47 19q-299 0 -513 -118q-250 -137 -315 -405l-161 4q-9 1 -16 -7t-7 -17l2 -100q1 -25 23 -25h137q-2 -25 -2 -74h-137q-23 0 -23 -24l2 -99q1 -22 23 -22l153 -2q46 -229 234 -357q174 -118 413 -118q116 0 226 31q133 38 194 110 q6 3 6 14z" />
<glyph unicode="&#xa5;" horiz-adv-x="1339" d="M1296 1260q0 -27 -217 -457l-16 -33v0l-2 -4h14q26 0 46 -19t20 -47l-4 -157q-2 -50 -47 -64q52 -12 51 -63l-4 -158q-2 -67 -68 -65l-170 4q0 -19 1 -56t1 -55q0 -65 -63 -66l-363 -6q-64 -1 -65 66l-2 123q-35 0 -101.5 1t-101.5 1q-25 0 -45 20.5t-21 44.5l-2 154 q-1 62 62 65q-23 2 -41 22.5t-19 43.5l-2 154q-1 65 66 65h53q-213 478 -213 490q0 68 66 67l364 -6q45 -1 64 -41l125 -393l143 393q19 41 61 41h365q65 0 65 -65zM1253 1260q0 24 -22 24h-365q-16 0 -22 -16l-185 -512l-163 512q-6 16 -23 16l-364 4q-23 0 -23 -24 q0 -9 109 -254q106 -238 127 -279l-119 2q-10 0 -16.5 -7t-6.5 -17l2 -154q1 -22 23 -23l207 -2l39 -86l-248 2q-10 1 -16.5 -5.5t-6.5 -16.5l2 -154q1 -24 23 -24l246 -2l2 -164q0 -25 22 -25l363 8q20 1 20 23l-2 154l213 -4q24 -1 25 22l4 158q0 24 -23 24h-223l41 82 l176 -2q24 0 25 23l4 157q0 25 -23 25h-82l139 280q121 246 121 255zM311 487q-37 2 -106 2z" />
<glyph unicode="&#xa6;" horiz-adv-x="1024" d="M557 674h-90v758h90v-758zM557 -350h-90v758h90v-758z" />
<glyph unicode="&#xa7;" horiz-adv-x="1024" d="M911 598q0 -175 -194 -279q106 -94 106 -227q0 -124 -92.5 -203t-236.5 -79q-156 0 -240 83.5t-84 239.5v23h121v-11q0 -103 52 -162q55 -63 157 -63q93 0 145.5 45.5t52.5 124.5q0 105 -174 215l-45 29l-172 110q-198 128 -198 279q0 196 198 297q-104 75 -104 207 q0 126 88.5 205t230.5 79q141 0 224 -86t83 -227v-22h-116q-2 101 -51 162q-53 67 -152 67q-83 0 -133.5 -47.5t-50.5 -124.5q0 -108 157 -201l203 -119q118 -69 171.5 -144.5t53.5 -170.5zM782 580q0 125 -166 227l-239 147q-150 -59 -150 -192q0 -121 154 -217l268 -168 q69 45 101 94.5t32 108.5z" />
<glyph unicode="&#xa8;" horiz-adv-x="1040" d="M930 1212q0 -80 -72 -131q-64 -45 -143 -45q-165 0 -205 119q-59 -119 -184 -119q-90 0 -150 45q-65 49 -65 131q0 79 69 131q63 46 139 46q136 0 195 -105q18 48 84 78q57 27 115 27q80 0 144 -46q73 -52 73 -131zM889 1212q0 61 -59 100q-53 36 -117 36t-117 -36 q-59 -40 -59 -100q0 -61 59 -99q53 -34 119 -34q64 0 115 34q59 38 59 99zM488 1220q0 47 -52.5 87.5t-111.5 40.5q-66 0 -116 -36q-56 -39 -56 -100q0 -62 54 -99q49 -34 120 -34q66 0 116 49q46 44 46 92z" />
<glyph unicode="&#xa9;" d="M1583 721q0 -304 -211 -512q-222 -219 -520 -219q-297 0 -513 216t-216 515t217 520q207 211 512 211t520 -215q211 -211 211 -516zM1511 721q0 273 -190 465q-194 194 -469 194q-273 0 -461 -190q-196 -200 -196 -469q0 -128 51 -250q105 -252 356 -358q116 -50 250 -50 q196 0 366 113t244 293q49 119 49 252zM1196 547q-12 -130 -116 -207q-97 -72 -232 -72q-187 0 -288 139q-89 124 -89 318q0 193 96 316q106 135 293 135q127 0 216 -66q96 -71 110 -192h-105q-42 172 -227 172q-127 0 -196.5 -97t-69.5 -274q0 -148 58 -246 q70 -119 208 -119q92 0 156 52t84 141h102z" />
<glyph unicode="&#xaa;" horiz-adv-x="731" d="M707 1163q0 -87 -11 -202q-1 -20 -6 -80q-1 -9 -2 -29q-2 -57 -8 -125q-12 -59 -66 -59h-133q-62 0 -65 61q-49 -14 -113 -14q-278 0 -278 231q0 118 114 182q-61 4 -61 68q0 17 4 27q40 95 121.5 154t183.5 59q320 0 320 -273zM440 1190q-10 29 -39 29q-23 0 -43 -29 q-1 0 -2 -2q17 2 50 2h34zM664 1163q0 230 -277 230q-194 0 -266 -187v-10q0 -26 26 -22l156 22q5 1 30 32.5t68 31.5q36 0 59 -25t23 -61v-31q-26 4 -77 4q-126 0 -216 -39q-122 -53 -122 -162q0 -188 235 -188q80 0 160 28q-4 -36 -4 -53q0 -25 22 -24l133 2q22 0 25 22 l8 152q17 258 17 278zM477 1012l-8 -127q-45 -8 -70 -8q-92 0 -92 63q0 74 129 74q27 0 41 -2zM430 971q-82 0 -82 -31q0 -20 51 -20q18 0 29 2q0 7 1 23.5t1 25.5z" />
<glyph unicode="&#xab;" horiz-adv-x="1221" d="M1180 915q0 -28 -17 -45l2 4l-146 -172.5l-147 -173.5l277 -286v2q16 -20 16 -49q0 -27 -41 -113h2q-5 -13 -12 -33q-16 -41 -63 -41q-31 0 -45 15l6 -3l-441 336q-25 16 -28 50l-8 86q-9 79 -9 141q0 27 21 45l446 399q17 17 47 17q34 0 52 -25l2 -4l52 -74 q34 -51 34 -76zM692 915q0 -28 -14 -45l2 4l-146.5 -172.5l-146.5 -173.5l137 -143l138 -143v2q18 -19 18 -49q0 -26 -41 -111q-9 -18 -16 -41q-18 -35 -60 -35q-28 0 -43 15l6 -3l-442 336q-25 19 -29 50l-6 79q-8 101 -8 148q0 27 20 45l447 399q16 17 47 17q34 0 51 -25 q86 -126 86 -154zM1139 915q0 21 -80 127q-8 11 -19 11q-9 0 -16 -6l-449 -400q-8 -7 -8 -14q0 -35 8 -111q9 -92 11 -114q0 -9 8 -17l442 -338q4 -4 15 -4q16 0 22 14q49 123 49 132q0 13 -6 16l-299 313l316 377q6 6 6 14zM651 915q0 24 -78 127q-7 11 -18 11q-9 0 -16 -6 l-449 -400q-8 -7 -8 -14q0 -36 7 -111q8 -96 9 -114q1 -9 8 -17l445 -338q4 -4 12 -4q17 0 23 14q51 120 51 132q0 13 -6 16l-299 313l315 377q4 4 4 14z" />
<glyph unicode="&#xac;" d="M1452 354h-78v420h-1120v82h1198v-502z" />
<glyph unicode="&#xad;" horiz-adv-x="819" d="M754 373q0 -66 -66 -66h-557q-65 0 -65 68l6 260q0 25 20.5 45t44.5 20h551q66 0 66 -65v-262zM713 373v262q0 24 -25 24h-551q-22 0 -22 -24l-9 -260q0 -27 25 -27h557q25 0 25 25z" />
<glyph unicode="&#xae;" d="M1583 721q0 -304 -211 -512q-222 -219 -520 -219q-297 0 -513 216t-216 515t217 520q207 211 512 211t520 -215q211 -211 211 -516zM1511 721q0 273 -190 465q-194 194 -469 194q-273 0 -461 -190q-196 -200 -196 -469q0 -128 51 -250q105 -252 356 -358q116 -50 250 -50 q196 0 366 113t244 293q49 119 49 252zM1223 922q0 -92 -55.5 -150.5t-147.5 -69.5l190 -393h-131l-182 377h-213v-377h-115v846h305q349 0 349 -233zM1106 926q0 151 -254 151h-168v-313h168q143 0 198.5 36.5t55.5 125.5z" />
<glyph unicode="&#xaf;" horiz-adv-x="1040" d="M885 1128q0 -27 -20.5 -46.5t-45.5 -18.5l-598 20q-65 3 -65 68q0 29 8 172q2 36 2 43q0 66 63 66l586 -7q27 0 46 -20.5t20 -44.5zM842 1128l-4 232q-1 24 -23 24l-586 5q-19 0 -20 -23q-10 -210 -10 -215q0 -26 24 -27l596 -18q12 5 23 22z" />
<glyph unicode="&#x2c9;" horiz-adv-x="1040" d="M885 1128q0 -27 -20.5 -46.5t-45.5 -18.5l-598 20q-65 3 -65 68q0 29 8 172q2 36 2 43q0 66 63 66l586 -7q27 0 46 -20.5t20 -44.5zM842 1128l-4 232q-1 24 -23 24l-586 5q-19 0 -20 -23q-10 -210 -10 -215q0 -26 24 -27l596 -18q12 5 23 22z" />
<glyph unicode="&#xb0;" horiz-adv-x="674" d="M610 1176q0 -115 -80 -194t-194 -79q-117 0 -195 78t-78 195q0 115 79.5 194.5t195.5 79.5q114 0 193 -80t79 -194zM551 1176q0 86 -63.5 149.5t-149.5 63.5q-91 0 -152 -61.5t-61 -151.5q0 -89 62.5 -151t150.5 -62q90 0 151.5 61t61.5 152z" />
<glyph unicode="&#xb1;" d="M1452 727h-559v-352h-80v352h-559v80h559v354h80v-354h559v-80zM1452 59h-1198v82h1198v-82z" />
<glyph unicode="&#xb2;" horiz-adv-x="680" d="M655 1149q0 -112 -85 -185q-48 -42 -164 -94h149q66 0 66 -65v-119q0 -65 -66 -65h-465q-65 0 -65 65v90q0 176 165 273h-2q-36 0 -55 28l-4 4q-102 135 -102 152q0 31 16 47l-2 -4q49 61 130.5 100t160.5 39q323 0 323 -266zM356 1122q-23 0 -96 -39q1 1 47 19z M614 1149q0 223 -282 223q-70 0 -142.5 -34.5t-115.5 -88.5q-6 -6 -6 -16t44 -65l56 -68q6 -8 20 -8q1 0 62.5 35.5t105.5 35.5q58 0 58 -39q0 -23 -91 -59q-116 -47 -167 -91q-90 -77 -90 -198v-90q0 -22 24 -22h465q25 0 25 22v119q0 24 -25 24h-276v7q0 26 87 63 q117 50 161 84q87 67 87 166z" />
<glyph unicode="&#xb3;" horiz-adv-x="676" d="M651 836q0 -244 -323 -244q-76 0 -155 32q-85 35 -132 91l2 -4q-18 18 -18 49q0 39 94 133l16 16l-4 -6q16 25 53 25q15 0 23 -4q-2 4 -2 18v125q-6 -4 -21 -4q-42 0 -53 23q-4 4 -20 24q-86 104 -86 129q0 31 16 47l-2 -4q47 55 134 90q81 33 157 33q107 0 207 -64 q114 -73 114 -182q0 -108 -69 -166q69 -60 69 -157zM360 1128h-2q-25 0 -59 -10q49 0 61 10zM610 836q0 94 -98 157q98 64 98 166q0 89 -99 150q-87 53 -181 53q-67 0 -140 -29q-77 -30 -118 -78q-6 -7 -6 -16q0 -10 43 -62l55 -63q6 -8 20 -8q-2 0 60.5 32.5t113.5 32.5 q52 0 52 -32q0 -64 -121 -64q-41 0 -41 -22v-111q0 -22 24 -22q138 0 138 -62q0 -37 -56 -37q-43 0 -106.5 33l-63.5 33q-13 0 -18 -8q-100 -115 -100 -119q0 -9 8 -19q91 -106 254 -106q282 0 282 201zM131 1086l-1 2q0 -1 1 -2zM133 1083l-2 3v-1zM367 858q0 19 -70 19 q31 -13 57 -13q13 0 13 -6z" />
<glyph unicode="&#xb4;" horiz-adv-x="1040" d="M778 1370q0 -26 -18 -49l-295 -287q-37 -18 -47 -18q-28 0 -45 16l-88 84q-21 19 -21 47q0 21 4 27l262 348q8 10 39 10q29 0 45 -16l138 -113q26 -21 26 -49zM735 1370q0 13 -10 16l-141 115q-2 4 -15 4q-10 0 -18 -8l-242 -319q-2 -4 -2 -15q0 -10 6 -16l90 -84 q3 -4 15 -4q9 0 18 6l293 287q6 12 6 18z" />
<glyph unicode="&#xb5;" horiz-adv-x="1094" d="M1022 1063l-166 -787q-1 -6 -4 -22q-21 -95 -21 -113q0 -63 68 -63h19q6 1 20 2l-18 -96q-3 -1 -9 -2q-46 -11 -67 -11q-133 0 -133 127v17q0 2 4 28q-89 -172 -312 -172q-206 0 -274 172l-119 -567h-121l316 1487h121l-123 -590q-17 -79 -17 -141q0 -258 234 -258 q263 0 356 422l125 567h121z" />
<glyph unicode="&#x3bc;" horiz-adv-x="1094" d="M1022 1063l-166 -787q-1 -6 -4 -22q-21 -95 -21 -113q0 -63 68 -63h19q6 1 20 2l-18 -96q-3 -1 -9 -2q-46 -11 -67 -11q-133 0 -133 127v17q0 2 4 28q-89 -172 -312 -172q-206 0 -274 172l-119 -567h-121l316 1487h121l-123 -590q-17 -79 -17 -141q0 -258 234 -258 q263 0 356 422l125 567h121z" />
<glyph unicode="&#xb6;" horiz-adv-x="1024" d="M932 1415h-129v-1415h-70v1415h-192v-1415h-70v782q-166 8 -269 94q-112 93 -112 254q0 165 118 261q108 88 277 88h447v-64z" />
<glyph unicode="&#xb7;" horiz-adv-x="545" d="M354 696q0 -33 -24.5 -57.5t-57.5 -24.5t-57.5 24.5t-24.5 57.5q0 36 24 59t58 23q33 0 57.5 -24.5t24.5 -57.5z" />
<glyph unicode="&#x2219;" horiz-adv-x="545" d="M354 696q0 -33 -24.5 -57.5t-57.5 -24.5t-57.5 24.5t-24.5 57.5q0 36 24 59t58 23q33 0 57.5 -24.5t24.5 -57.5z" />
<glyph unicode="&#xb8;" horiz-adv-x="1040" d="M954 -403q0 -153 -116 -245q-107 -85 -260 -85q-158 0 -290 90q-128 87 -200 235q0 4 -1 8.5t-1 8.5q0 28 20 46.5t46 18.5t43 -16q183 -102 288 -102q95 0 95 86q0 100 -230 108q-27 1 -47 21t-20 45q0 18 114 211q22 35 47 82q24 26 54 26h139q65 0 65 -65 q0 -11 -55 -152q134 -25 215 -101q94 -87 94 -220zM911 -403q0 129 -101 208q-88 68 -224 80q10 20 40 96q33 80 33 89q0 22 -24 22h-139q-11 0 -21 -10q-5 -12 -81 -140q-70 -119 -70 -126q0 -24 24 -25q273 -5 273 -149q0 -129 -138 -129q-116 0 -319 114q-4 4 -12 4 q-23 0 -23 -22q0 -2 1 -5t1 -5q64 -132 181 -209q121 -80 266 -80q137 0 231 73q102 80 102 214z" />
<glyph unicode="&#xb9;" horiz-adv-x="317" d="M305 1303l-16 -617q-1 -24 -21 -44.5t-45 -20.5l-145 -5q-28 0 -47 20t-19 48l8 623q1 67 66 65l154 -4q67 -2 65 -65zM262 1303q1 21 -22 22l-154 4q-22 1 -23 -22l-8 -623q0 -11 6.5 -18t16.5 -7l145 5q22 0 23 22z" />
<glyph unicode="&#xba;" horiz-adv-x="745" d="M719 1042q0 -161 -76 -265q-87 -118 -246 -118q-173 0 -271.5 96t-98.5 269t72 281q86 127 255 127q174 0 272 -110q93 -104 93 -280zM678 1042q0 157 -83 250q-86 97 -241 97q-148 0 -223 -114q-63 -96 -63 -251q0 -153 88 -238.5t241 -85.5q139 0 214 105q67 93 67 237 zM457 1036q0 -131 -95 -131q-90 0 -90 105q0 48 23 86q27 45 72 45q90 0 90 -105zM416 1036q0 62 -49 62q-52 0 -52 -88q0 -62 47 -62q54 0 54 88z" />
<glyph unicode="&#xbb;" horiz-adv-x="1221" d="M1180 631q0 -45 -17 -225q0 -32 -26 -50l2 2l-439 -335q-14 -15 -43 -15q-43 0 -63 41q-3 11 -12 35q-41 85 -41 111q0 30 18 49v-2l275 286l-293 346l2 -4q-17 17 -17 45q0 36 76 142q5 7 14 16l-4 -6q20 27 54 27q30 0 47 -17h-2l222.5 -198.5l223.5 -198.5 q23 -15 23 -49zM692 631q0 -45 -8 -152q-4 -53 -6 -73q0 -28 -29 -50l2 2l-436 -335q-14 -15 -45 -15q-44 0 -61 37q-5 11 -15 37h2q-41 86 -41 113q0 29 17 49v-2l276 286l-293 346l2 -4q-16 17 -16 45q0 47 84 152v-2q19 29 55 29q31 0 47 -17h-2l222.5 -198.5 l222.5 -198.5q22 -15 22 -49zM1139 631q0 11 -9 16l-448 400q-7 6 -16 6q-11 0 -19 -11q-80 -106 -80 -127q0 -8 6 -14l316 -377l-299 -313q-6 -3 -6 -16q0 -12 51 -132q6 -14 22 -14q9 0 13 4l444 338q6 6 6 17l11 112q8 76 8 111zM651 631q0 11 -8 16l-446 400q-7 6 -17 6 q-13 0 -20 -11q-78 -103 -78 -127q0 -8 6 -14l315 -377l-299 -313q-6 -3 -6 -16q0 -17 49 -132q7 -14 23 -14q10 0 14 4l443 338q7 8 8 17q1 16 10 112q6 75 6 111z" />
<glyph unicode="&#xbc;" horiz-adv-x="1309" d="M1219 1376q0 -20 -5 -24l-874 -1301q-25 -29 -51 -31q-79 -4 -176 -6q-70 -1 -70 66q0 16 4 24l354 531q-20 -14 -41 -14l-145 -5q-27 0 -46.5 20t-18.5 48l8 623q1 67 65 65l154 -4q67 -2 65 -65l-16 -617q0 -3 -1 -8t-1 -8l496 745q20 32 53 31l180 -4q66 -2 66 -66z M1266 229q0 -57 -64 -65q-2 -27 -2 -82q0 -25 -19 -45t-44 -21l-146 -2q-65 -1 -65 66v84h-277q-65 0 -65 65q0 15 8 31l231 467q18 37 60 37l258 2q29 0 47 -18t18 -48l-2 -301q62 -4 62 -67v-103zM1176 1376q0 22 -23 23l-180 4q-10 0 -19 -12l-866 -1299q-4 -7 -4 -12 q0 -26 27 -25l176 8q10 1 18 13l866 1286q5 8 5 14zM1223 229v103q0 21 -23 23q8 -1 -39 -1l2 346q0 11 -6 18t-16 7l-258 -4q-17 0 -21 -14l-231 -465q-4 -9 -4 -13q0 -22 22 -22h318v-127q0 -25 24 -25l146 4q22 1 22 23v125q48 0 39 -1q25 3 25 23zM399 1303q1 21 -22 22 l-154 4q-22 1 -22 -22l-8 -623q-1 -11 6 -18t16 -7l145 5q22 0 23 22zM967 354h-97q17 31 95 187z" />
<glyph unicode="&#xbd;" horiz-adv-x="1425" d="M1380 541q0 -176 -250 -275h150q66 0 66 -65v-119q0 -66 -66 -66h-467q-65 0 -65 66v90q0 176 165 270h-2q-36 0 -53 31q-1 0 -4 2q-104 129 -104 154q0 28 16 45l-2 -6q47 62 130 101.5t161 39.5q325 0 325 -268zM1221 1376q0 -4 -2 -24l-877 -1301q-20 -30 -51 -31 l-176 -6q-70 -1 -70 66q0 16 4 24l354 531q-17 -14 -38 -14l-146 -5q-28 0 -47 20t-18 48l8 623q1 67 65 65l152 -4q67 -2 65 -65l-14 -617q0 -3 -1 -8t-1 -8l496 745q21 32 53 31l178 -4q66 -2 66 -66zM1081 516q-35 -3 -92 -37l41 19q12 5 51 18zM1337 541q0 225 -282 225 q-70 0 -143 -34t-115 -89q-4 -8 -4 -14q0 -20 100 -133q3 -11 18 -11q1 0 64 37t108 37q54 0 54 -41q0 -23 -90 -60q-116 -46 -167 -90q-89 -76 -89 -196v-90q0 -25 22 -25h467q23 0 23 25v119q0 22 -23 22h-279v8q0 27 88 63q117 48 161 82q87 66 87 165zM1180 1376 q0 22 -25 23l-178 4q-12 0 -21 -12l-864 -1299q-3 -7 -4 -12q0 -26 25 -25l178 8q12 1 16 13l869 1286q4 8 4 14zM403 1303q1 21 -24 22l-152 4q-22 1 -22 -22l-8 -623q-1 -11 6 -18t16 -7l146 5q21 0 22 22z" />
<glyph unicode="&#xbe;" horiz-adv-x="1505" d="M1456 229q0 -57 -63 -65q-2 -27 -2 -82q0 -25 -20.5 -45t-45.5 -21l-143 -2q-68 -1 -68 66v84h-274q-66 0 -66 65q0 19 6 31l232 467q18 37 59 37l258 2q28 0 48 -18.5t20 -47.5l-4 -301q63 -4 63 -67v-103zM1407 1376q0 -20 -4 -24l-873 -1301q-25 -30 -55 -31l-174 -6 q-68 -1 -68 66q0 16 5 24l376 568q-79 -80 -262 -80q-76 0 -155 32q-84 35 -131 91l2 -4q-19 18 -19 49q0 39 94 133l17 16l-4 -6q16 25 53 25q14 0 22 -4q-2 4 -2 18v125q-6 -4 -20 -4q-42 0 -54 23q-3 4 -20 24q-86 104 -86 129q0 31 17 47l-3 -4q48 55 134 90 q82 33 157 33q108 0 207 -64q115 -73 115 -182q0 -108 -70 -166q70 -60 70 -157q0 -52 -17 -101l451 680q27 31 53 31l178 -4q66 -2 66 -66zM1364 1376q0 22 -23 23l-178 4q-10 0 -18 -12l-866 -1299q0 4 -3 -12q0 -26 23 -25l176 8q13 1 21 13l864 1286q4 8 4 14zM1415 229 v103q0 21 -25 23q9 -1 -38 -1l2 346q0 11 -7 18t-18 7l-258 -4q-13 0 -20 -14l-232 -465q-2 -4 -2 -13q0 -22 23 -22h317v-127q0 -25 25 -25l143 4q24 1 25 23l2 125q47 0 38 -1q25 3 25 23zM385 1128h-2q-25 0 -59 -10q48 0 61 10zM635 836q0 94 -98 157q98 64 98 166 q0 89 -100 150q-86 53 -181 53q-67 0 -139 -29q-77 -30 -119 -78q-6 -7 -6 -16q0 -10 44 -62l54 -63q7 -8 21 -8q-3 0 60 32.5t114 32.5t51 -32q0 -64 -121 -64q-41 0 -41 -22v-111q0 -22 25 -22q137 0 137 -62q0 -37 -55 -37q-43 0 -106.5 33l-63.5 33q-13 0 -19 -8 q-100 -115 -100 -119q0 -9 8 -19q92 -106 254 -106q283 0 283 201zM155 1086l-1 2q1 -1 1 -2zM158 1083l-3 3l1 -1zM391 858q0 19 -69 19q30 -13 57 -13q12 0 12 -6zM1157 354h-96l96 187v-187z" />
<glyph unicode="&#xbf;" horiz-adv-x="1276" d="M29 446q0 121 87 243q48 67 173 190q78 76 103 107q49 60 69 122q16 51 63 51h379q66 0 66 -67q0 -127 -104 -256q-63 -78 -197 -189h4q-13 -6 -27 -18q-117 -100 -117 -135q0 -31 60 -31q89 0 270 121l37 24q15 10 41 10q29 0 39 -12l231 -287q17 -16 17 -45 q0 -28 -17 -45l4 7q-95 -128 -255.5 -207.5t-319.5 -79.5q-272 0 -426 108q-180 126 -180 389zM444 1356q0 86 97 136q77 40 168 40q93 0 170 -41q96 -50 96 -141q0 -85 -99 -136q-79 -40 -165 -40q-89 0 -168 41q-99 53 -99 141zM72 446q0 -454 563 -454q150 0 301 74.5 t240 193.5q4 4 4 14q0 11 -4 15l-226 280q-8 9 -14 9q-13 0 -18 -5q-127 -87 -155 -102q-93 -51 -175 -51q-103 0 -103 74q0 44 60 104q15 14 96 82q130 108 188 178q99 120 99 234q0 24 -25 24h-379q-16 0 -22 -18q-32 -101 -185 -250q-118 -116 -163 -179 q-82 -113 -82 -223zM485 1356q0 -67 85 -107q67 -32 141 -32q72 0 139 30q84 38 84 103q0 70 -82 109q-65 32 -143 32q-75 0 -141 -31q-83 -38 -83 -104z" />
<glyph unicode="&#xc0;" horiz-adv-x="1315" d="M1311 -4q0 -67 -66 -66l-368 7q-57 0 -66 53l-39 221h-229l-37 -188q-10 -53 -66 -54l-370 -2q-66 0 -66 74l303 1313q12 55 66 55h575q54 0 66 -55l-2 2zM1268 -4v4l-297 1348q-4 18 -23 18h-575q-21 0 -25 -18l-301 -1315q0 -23 23 -23l370 2q19 0 23 19l45 221h301 l45 -254q3 -18 23 -18l368 -7q23 0 23 23zM754 561h-183l99 469zM705 602l-37 197l-43 -197h80zM839 1634q0 -30 -18 -47l-92 -84q-27 -16 -43 -16q-26 0 -50 18h3l-293 287q-23 22 -23 49q0 29 14 43l146 117q23 18 49 18q34 0 51 -28l-2 2l244 -320l-2 6q16 -19 16 -45z M796 1634q0 6 -4 15l-244 319q-6 8 -16 8q-11 0 -16 -4l-144 -115q-6 -6 -6 -16t8 -18l293 -287q6 -6 19 -6q10 0 14 4l90 84q6 12 6 16z" />
<glyph unicode="&#xc1;" horiz-adv-x="1315" d="M1311 -4q0 -67 -66 -66l-368 7q-57 0 -66 53l-39 221h-229l-37 -188q-10 -53 -66 -54l-370 -2q-66 0 -66 74l303 1313q12 55 66 55h575q54 0 66 -55l-2 2zM1268 -4v4l-297 1348q-4 18 -23 18h-575q-21 0 -25 -18l-301 -1315q0 -23 23 -23l370 2q19 0 23 19l45 221h301 l45 -254q3 -18 23 -18l368 -7q23 0 23 23zM754 561h-183l99 469zM705 602l-37 197l-43 -197h80zM1003 1821q0 -26 -18 -49l-295 -287q-37 -18 -47 -18q-28 0 -45 16l-88 84q-21 19 -21 47q0 21 4 27l262 348q8 10 39 10q29 0 45 -16l138 -113q26 -21 26 -49zM960 1821 q0 13 -10 16l-141 115q-2 4 -15 4q-10 0 -18 -8l-242 -319q-2 -4 -2 -15q0 -10 6 -16l90 -84q3 -4 15 -4q9 0 18 6l293 287q6 12 6 18z" />
<glyph unicode="&#xc2;" horiz-adv-x="1315" d="M1311 -4q0 -67 -66 -66l-368 7q-57 0 -66 53l-39 221h-229l-37 -188q-10 -53 -66 -54l-370 -2q-66 0 -66 74l303 1313q12 55 66 55h575q54 0 66 -55l-2 2zM1268 -4v4l-297 1348q-4 18 -23 18h-575q-21 0 -25 -18l-301 -1315q0 -23 23 -23l370 2q19 0 23 19l45 221h301 l45 -254q3 -18 23 -18l368 -7q23 0 23 23zM754 561h-183l99 469zM705 602l-37 197l-43 -197h80zM1099 1614q0 -16 -65 -121q-5 -5 -4 -4q-29 -39 -62 -39q-16 0 -24 5l-283 192l-268 -180q-8 -4 -27 -4q-34 0 -51 26q-52 59 -70 82q-18 19 -18 45q0 29 18 47v-2l273 285 q14 15 43 18q22 1 65 5q77 8 119 8q24 0 47 -19l289 -295q18 -18 18 -49zM1056 1614q0 12 -6 19l-289 295q-6 6 -16 6q10 0 -180 -13q-11 0 -16 -6l-273 -282q-6 -7 -6 -17q0 -8 6 -14l74 -90q6 -6 16 -6q6 0 15 4l280 190l295 -202q8 -5 12 -5q13 0 21 11q67 93 67 110z " />
<glyph unicode="&#xc3;" horiz-adv-x="1315" d="M1311 -4q0 -67 -66 -66l-368 7q-57 0 -66 53l-39 221h-229l-37 -188q-10 -53 -66 -54l-370 -2q-66 0 -66 74l303 1313q12 55 66 55h575q54 0 66 -55l-2 2zM1268 -4v4l-297 1348q-4 18 -23 18h-575q-21 0 -25 -18l-301 -1315q0 -23 23 -23l370 2q19 0 23 19l45 221h301 l45 -254q3 -18 23 -18l368 -7q23 0 23 23zM754 561h-183l99 469zM705 602l-37 197l-43 -197h80zM1028 1573q0 -43 -74 -68q-56 -20 -111 -20q-82 0 -215 43h2q-134 39 -184 39q-11 -2 -36 -6t-44 -4q-28 0 -48.5 19.5t-18.5 48.5l12 206q0 43 75 68q56 18 111 18 q76 0 201 -39h-2q139 -34 174 -34q24 0 39 6h-2q27 8 53 8q68 0 68 -66v-219zM985 1573v219q0 23 -25 23q-12 0 -42.5 -6t-47.5 -6q-63 0 -185.5 35.5t-187.5 35.5q-141 0 -143 -43l-12 -209q-2 -22 24 -22q12 0 39.5 4t40.5 4q67 0 197 -40t200 -40q142 0 142 45z" />
<glyph unicode="&#xc4;" horiz-adv-x="1315" d="M1311 -4q0 -67 -66 -66l-368 7q-57 0 -66 53l-39 221h-229l-37 -188q-10 -53 -66 -54l-370 -2q-66 0 -66 74l303 1313q12 55 66 55h575q54 0 66 -55l-2 2zM1268 -4v4l-297 1348q-4 18 -23 18h-575q-21 0 -25 -18l-301 -1315q0 -23 23 -23l370 2q19 0 23 19l45 221h301 l45 -254q3 -18 23 -18l368 -7q23 0 23 23zM754 561h-183l99 469zM705 602l-37 197l-43 -197h80zM1073 1642q0 -80 -72 -131q-64 -45 -143 -45q-165 0 -205 119q-59 -119 -184 -119q-90 0 -150 45q-65 49 -65 131q0 79 69 131q63 46 139 46q136 0 195 -105q18 48 84 78 q57 27 115 27q80 0 144 -46q73 -52 73 -131zM1032 1642q0 61 -59 100q-53 36 -117 36t-117 -36q-59 -40 -59 -100q0 -61 59 -99q53 -34 119 -34q64 0 115 34q59 38 59 99zM631 1650q0 47 -52.5 87.5t-111.5 40.5q-66 0 -116 -36q-56 -39 -56 -100q0 -62 54 -99 q49 -34 120 -34q66 0 116 49q46 44 46 92z" />
<glyph unicode="&#xc5;" horiz-adv-x="1315" d="M1311 -4q0 -67 -66 -66l-368 7q-57 0 -66 53l-39 221h-229l-37 -188q-10 -53 -66 -54l-370 -2q-66 0 -66 74l303 1313q12 55 66 55h28q-43 66 -43 131q0 109 91 182q85 68 194 68q111 0 196 -68q91 -73 91 -182q0 -73 -43 -131h61q54 0 66 -55l-2 2zM1268 -4v4l-297 1348 q-4 18 -23 18h-174q113 62 113 174q0 91 -78 151q-71 56 -166 56q-93 0 -165 -56q-77 -60 -77 -151q0 -113 111 -174h-139q-21 0 -25 -18l-301 -1315q0 -23 23 -23l370 2q19 0 23 19l45 221h301l45 -254q3 -18 23 -18l368 -7q23 0 23 23zM735 1540q0 -31 -31 -50 q-27 -15 -61 -15q-32 0 -59 15q-31 19 -31 50q0 30 31 49q27 17 59 17q33 0 62.5 -18t29.5 -48zM754 561h-183l99 469zM692 1540q0 23 -49 23q-47 0 -47 -23q0 -24 47 -24q49 0 49 24zM705 602l-37 197l-43 -197h80z" />
<glyph unicode="&#xc6;" horiz-adv-x="1980" d="M1917 47q0 -65 -64 -65l-925 -2q-66 0 -66 65l2 199h-233l-76 -195q-16 -39 -59 -39l-369 -2q-66 0 -66 66q0 13 258 626q244 580 289 680q17 37 62 37h1183q27 0 45.5 -20t18.5 -47v-263q0 -65 -64 -65h-487q0 -23 -1 -63.5t-1 -69.5h381q65 0 65 -66v-264 q0 -65 -65 -65h-383q0 -13 -1 -54.5t-1 -64.5h493q64 0 64 -66v-262zM1876 47v262q0 25 -23 25h-536l2 203h426q22 0 22 22v264q0 23 -22 23h-422l2 217h528q23 0 23 24v263q0 24 -23 24h-1183q-19 0 -23 -14l-287 -674q-256 -604 -256 -612q0 -25 23 -25l369 2q17 0 20 15 l88 221h303l-2 -242q0 -25 23 -25l925 3q23 0 23 24zM907 588h-184l184 467v-467zM864 631v200l-80 -200h80z" />
<glyph unicode="&#xc7;" horiz-adv-x="1317" d="M1274 154q0 -30 -19 -45l2 4q-72 -84 -219 -131q-124 -39 -250 -39l-18 -43q133 -26 214 -102q93 -87 93 -220q0 -152 -116 -245q-107 -85 -261 -85q-157 0 -289 89q-128 87 -200 237q0 4 -1 8.5t-1 7.5q0 27 20 46.5t45 19.5q27 0 43 -16q188 -105 289 -105q94 0 94 88 q0 94 -231 107q-26 1 -46 21.5t-20 43.5q0 17 84 158q2 5 15 31q-222 69 -348 244q-131 182 -131 442q0 407 281 623q255 196 679 196q40 0 52 -4q28 -11 34 -49l53 -365q5 -33 -15 -53.5t-52 -20.5q-34 0 -47.5 2t-36.5 2q-193 0 -313 -71q-146 -87 -146 -262 q0 -122 80 -189q75 -63 203 -63q144 0 319 108q14 11 33 11q55 0 65 -56l62 -313v-12zM1231 154v4l-62 315q-3 19 -22 19q-2 0 -14 -7q-174 -110 -338 -110q-147 0 -234 72q-92 78 -92 221q0 198 159 296q132 80 343 80q14 0 41.5 -2t42.5 -2q30 0 26 25l-55 362 q-3 21 -49 21q-402 0 -644 -186q-267 -206 -267 -592q0 -260 139 -436q133 -169 362 -224q-121 -218 -121 -215q0 -21 25 -22q272 -11 272 -150q0 -129 -137 -129q-116 0 -319 115q-4 4 -13 4q-22 0 -22 -23q0 -2 1 -5t1 -5q64 -132 182.5 -210.5t263.5 -78.5q138 0 232 74 q102 80 102 213q0 128 -101 207q-90 70 -224 80q12 24 49 119h20q122 0 239 35q141 43 208 120q6 7 6 15z" />
<glyph unicode="&#xc8;" horiz-adv-x="1118" d="M1081 66q0 -66 -65 -66h-912q-65 0 -65 66l-2 1302q0 66 65 66h914q65 0 65 -66v-262q0 -66 -65 -66h-488q0 -22 -1 -63.5t-1 -71.5h379q66 0 66 -65v-262q0 -66 -66 -66h-381q0 -14 -1 -55t-1 -64h494q65 0 65 -65v-262zM1038 66v262q0 22 -22 22h-537l2 205h424 q25 0 25 23v262q0 24 -25 24h-422l2 219h531q22 0 22 23v262q0 23 -22 23h-914q-22 0 -22 -23l2 -1302q0 -23 22 -23h912q22 0 22 23zM758 1614q0 -30 -18 -47l-92 -84q-27 -16 -43 -16q-26 0 -50 18h3l-293 287q-23 22 -23 49q0 29 14 43l146 117q23 18 49 18q34 0 51 -28 l-2 2l244 -320l-2 6q16 -19 16 -45zM715 1614q0 6 -4 15l-244 319q-6 8 -16 8q-11 0 -16 -4l-144 -115q-6 -6 -6 -16t8 -18l293 -287q6 -6 19 -6q10 0 14 4l90 84q6 12 6 16z" />
<glyph unicode="&#xc9;" horiz-adv-x="1118" d="M1081 66q0 -66 -65 -66h-912q-65 0 -65 66l-2 1302q0 66 65 66h914q65 0 65 -66v-262q0 -66 -65 -66h-488q0 -22 -1 -63.5t-1 -71.5h379q66 0 66 -65v-262q0 -66 -66 -66h-381q0 -14 -1 -55t-1 -64h494q65 0 65 -65v-262zM1038 66v262q0 22 -22 22h-537l2 205h424 q25 0 25 23v262q0 24 -25 24h-422l2 219h531q22 0 22 23v262q0 23 -22 23h-914q-22 0 -22 -23l2 -1302q0 -23 22 -23h912q22 0 22 23zM901 1821q0 -26 -18 -49l-295 -287q-37 -18 -47 -18q-28 0 -45 16l-88 84q-21 19 -21 47q0 21 4 27l262 348q8 10 39 10q29 0 45 -16 l138 -113q26 -21 26 -49zM858 1821q0 13 -10 16l-141 115q-2 4 -15 4q-10 0 -18 -8l-242 -319q-2 -4 -2 -15q0 -10 6 -16l90 -84q3 -4 15 -4q9 0 18 6l293 287q6 12 6 18z" />
<glyph unicode="&#xca;" horiz-adv-x="1118" d="M1081 66q0 -66 -65 -66h-912q-65 0 -65 66l-2 1302q0 66 65 66h914q65 0 65 -66v-262q0 -66 -65 -66h-488q0 -22 -1 -63.5t-1 -71.5h379q66 0 66 -65v-262q0 -66 -66 -66h-381q0 -14 -1 -55t-1 -64h494q65 0 65 -65v-262zM1038 66v262q0 22 -22 22h-537l2 205h424 q25 0 25 23v262q0 24 -25 24h-422l2 219h531q22 0 22 23v262q0 23 -22 23h-914q-22 0 -22 -23l2 -1302q0 -23 22 -23h912q22 0 22 23zM976 1634q0 -16 -65 -121q-5 -5 -4 -4q-29 -39 -62 -39q-16 0 -24 5l-283 192l-268 -180q-8 -4 -27 -4q-34 0 -51 26q-52 59 -70 82 q-18 19 -18 45q0 29 18 47v-2l273 285q14 15 43 18q22 1 65 5q77 8 119 8q24 0 47 -19l289 -295q18 -18 18 -49zM933 1634q0 12 -6 19l-289 295q-6 6 -16 6q10 0 -180 -13q-11 0 -16 -6l-273 -282q-6 -7 -6 -17q0 -8 6 -14l74 -90q6 -6 16 -6q6 0 15 4l280 190l295 -202 q8 -5 12 -5q13 0 21 11q67 93 67 110z" />
<glyph unicode="&#xcb;" horiz-adv-x="1118" d="M1081 66q0 -66 -65 -66h-912q-65 0 -65 66l-2 1302q0 66 65 66h914q65 0 65 -66v-262q0 -66 -65 -66h-488q0 -22 -1 -63.5t-1 -71.5h379q66 0 66 -65v-262q0 -66 -66 -66h-381q0 -14 -1 -55t-1 -64h494q65 0 65 -65v-262zM1038 66v262q0 22 -22 22h-537l2 205h424 q25 0 25 23v262q0 24 -25 24h-422l2 219h531q22 0 22 23v262q0 23 -22 23h-914q-22 0 -22 -23l2 -1302q0 -23 22 -23h912q22 0 22 23zM971 1663q0 -80 -72 -131q-64 -45 -143 -45q-165 0 -205 119q-59 -119 -184 -119q-90 0 -150 45q-65 49 -65 131q0 79 69 131 q63 46 139 46q136 0 195 -105q18 48 84 78q57 27 115 27q80 0 144 -46q73 -52 73 -131zM930 1663q0 61 -59 100q-53 36 -117 36t-117 -36q-59 -40 -59 -100q0 -61 59 -99q53 -34 119 -34q64 0 115 34q59 38 59 99zM529 1671q0 47 -52.5 87.5t-111.5 40.5q-66 0 -116 -36 q-56 -39 -56 -100q0 -62 54 -99q49 -34 120 -34q66 0 116 49q46 44 46 92z" />
<glyph unicode="&#xcc;" horiz-adv-x="551" d="M530 1323l-30 -1286q-1 -23 -22 -44t-44 -22q-79 -2 -348 -6q-29 0 -47.5 18.5t-18.5 47.5l17 1300q1 67 65 66l363 -6q27 -1 46.5 -21.5t18.5 -46.5zM487 1323q1 26 -22 27l-363 4q-22 0 -22 -23l-17 -1300q0 -11 6 -17t17 -6l348 6q22 1 23 23zM491 1634q0 -30 -18 -47 l-92 -84q-27 -16 -43 -16q-26 0 -50 18h3l-293 287q-23 22 -23 49q0 29 14 43l146 117q23 18 49 18q34 0 51 -28l-2 2l244 -320l-2 6q16 -19 16 -45zM448 1634q0 6 -4 15l-244 319q-6 8 -16 8q-11 0 -16 -4l-144 -115q-6 -6 -6 -16t8 -18l293 -287q6 -6 19 -6q10 0 14 4 l90 84q6 12 6 16z" />
<glyph unicode="&#xcd;" horiz-adv-x="551" d="M530 1323l-30 -1286q-1 -23 -22 -44t-44 -22q-79 -2 -348 -6q-29 0 -47.5 18.5t-18.5 47.5l17 1300q1 67 65 66l363 -6q27 -1 46.5 -21.5t18.5 -46.5zM487 1323q1 26 -22 27l-363 4q-22 0 -22 -23l-17 -1300q0 -11 6 -17t17 -6l348 6q22 1 23 23zM655 1821q0 -26 -18 -49 l-295 -287q-37 -18 -47 -18q-28 0 -45 16l-88 84q-21 19 -21 47q0 21 4 27l262 348q8 10 39 10q29 0 45 -16l138 -113q26 -21 26 -49zM612 1821q0 13 -10 16l-141 115q-2 4 -15 4q-10 0 -18 -8l-242 -319q-2 -4 -2 -15q0 -10 6 -16l90 -84q3 -4 15 -4q9 0 18 6l293 287 q6 12 6 18z" />
<glyph unicode="&#xce;" horiz-adv-x="551" d="M530 1323l-30 -1286q-1 -23 -22 -44t-44 -22q-79 -2 -348 -6q-29 0 -47.5 18.5t-18.5 47.5l17 1300q1 67 65 66l363 -6q27 -1 46.5 -21.5t18.5 -46.5zM487 1323q1 26 -22 27l-363 4q-22 0 -22 -23l-17 -1300q0 -11 6 -17t17 -6l348 6q22 1 23 23zM731 1634 q0 -16 -65 -121q-5 -5 -4 -4q-29 -39 -62 -39q-16 0 -24 5l-283 192l-268 -180q-8 -4 -27 -4q-34 0 -51 26q-52 59 -70 82q-18 19 -18 45q0 29 18 47v-2l273 285q14 15 43 18q22 1 65 5q77 8 119 8q24 0 47 -19l289 -295q18 -18 18 -49zM688 1634q0 12 -6 19l-289 295 q-6 6 -16 6q10 0 -180 -13q-11 0 -16 -6l-273 -282q-6 -7 -6 -17q0 -8 6 -14l74 -90q6 -6 16 -6q6 0 15 4l280 190l295 -202q8 -5 12 -5q13 0 21 11q67 93 67 110z" />
<glyph unicode="&#xcf;" horiz-adv-x="551" d="M530 1323l-30 -1286q-1 -23 -22 -44t-44 -22q-79 -2 -348 -6q-29 0 -47.5 18.5t-18.5 47.5l17 1300q1 67 65 66l363 -6q27 -1 46.5 -21.5t18.5 -46.5zM487 1323q1 26 -22 27l-363 4q-22 0 -22 -23l-17 -1300q0 -11 6 -17t17 -6l348 6q22 1 23 23zM705 1642 q0 -80 -72 -131q-64 -45 -143 -45q-165 0 -205 119q-59 -119 -184 -119q-90 0 -150 45q-65 49 -65 131q0 79 69 131q63 46 139 46q136 0 195 -105q18 48 84 78q57 27 115 27q80 0 144 -46q73 -52 73 -131zM664 1642q0 61 -59 100q-53 36 -117 36t-117 -36q-59 -40 -59 -100 q0 -61 59 -99q53 -34 119 -34q64 0 115 34q59 38 59 99zM263 1650q0 47 -52.5 87.5t-111.5 40.5q-66 0 -116 -36q-56 -39 -56 -100q0 -62 54 -99q49 -34 120 -34q66 0 116 49q46 44 46 92z" />
<glyph unicode="&#xd0;" horiz-adv-x="1251" d="M1227 668q0 -425 -372 -621q-287 -151 -751 -151q-65 0 -65 65v522h-66q-67 0 -65 68l8 262q1 25 21 45.5t45 20.5h55v497q0 66 65 66q464 0 752 -152q373 -196 373 -622zM1184 668q0 402 -360 588q-276 143 -722 143q-22 0 -22 -23v-540h-98q-22 0 -23 -23l-8 -262 q-1 -25 22 -25h109v-565q0 -22 22 -22q446 0 721 142q359 185 359 587zM764 668q0 -120 -63 -215q-72 -109 -187 -109v182h64q22 0 22 23v262q0 25 -22 25h-64v157q114 0 186 -109q64 -96 64 -216zM721 668q0 91 -42 169q-46 87 -124 107v-65h23q65 0 65 -68v-262 q0 -66 -65 -66h-23v-90q78 20 124 107q42 78 42 168z" />
<glyph unicode="&#xd1;" horiz-adv-x="1292" d="M1249 1319l-10 -1288q0 -61 -61 -64q-112 -5 -336 -14q-44 -1 -62 37l-276 588l-6 -547q-1 -26 -20.5 -44.5t-43.5 -19.5q-108 -5 -321 -14q-28 -1 -49 18.5t-21 46.5v1301q0 68 63 67l351 -2q41 0 57 -34l272 -586q0 78 -1 277.5t-1 277.5q0 68 66 67l334 -2 q66 0 65 -65zM1208 1319q1 24 -24 24l-334 3q-25 0 -25 -27l2 -746l-352 756q-7 14 -18 14l-351 3q-22 0 -22 -27l2 -1301q0 -23 25 -22l323 14q22 1 23 21l8 737l354 -758q7 -15 21 -14l336 14q20 1 20 21zM967 1532q0 -43 -74 -68q-56 -20 -111 -20q-82 0 -215 43h2 q-134 39 -184 39q-11 -2 -36 -6t-44 -4q-28 0 -48.5 19.5t-18.5 48.5l12 206q0 43 75 68q56 18 111 18q76 0 201 -39h-2q139 -34 174 -34q24 0 39 6h-2q27 8 53 8q68 0 68 -66v-219zM924 1532v219q0 23 -25 23q-12 0 -42.5 -6t-47.5 -6q-63 0 -185.5 35.5t-187.5 35.5 q-141 0 -143 -43l-12 -209q-2 -22 24 -22q12 0 39.5 4t40.5 4q67 0 197 -40t200 -40q142 0 142 45z" />
<glyph unicode="&#xd2;" horiz-adv-x="1417" d="M1391 633q0 -293 -176 -507q-187 -228 -476 -228q-335 0 -527 205q-185 200 -185 536q0 330 194 549q203 229 531 229q291 0 474 -256q165 -229 165 -528zM1348 633q0 283 -153 500q-171 241 -443 241q-307 0 -499 -216q-183 -208 -183 -519q0 -317 174 -505 q180 -193 495 -193q270 0 445 214q164 201 164 478zM971 623q0 -121 -66 -215q-73 -105 -188 -105t-188 105q-64 94 -64 215q0 119 64 213q73 106 188 106t188 -106q66 -94 66 -213zM928 623q0 103 -54 185q-61 91 -157 91t-157 -91q-54 -82 -54 -185q0 -105 54 -187 q61 -92 157 -92t157 92q54 82 54 187zM942 1614q0 -30 -18 -47l-92 -84q-27 -16 -43 -16q-26 0 -50 18h3l-293 287q-23 22 -23 49q0 29 14 43l146 117q23 18 49 18q34 0 51 -28l-2 2l244 -320l-2 6q16 -19 16 -45zM899 1614q0 6 -4 15l-244 319q-6 8 -16 8q-11 0 -16 -4 l-144 -115q-6 -6 -6 -16t8 -18l293 -287q6 -6 19 -6q10 0 14 4l90 84q6 12 6 16z" />
<glyph unicode="&#xd3;" horiz-adv-x="1417" d="M1391 633q0 -293 -176 -507q-187 -228 -476 -228q-335 0 -527 205q-185 200 -185 536q0 330 194 549q203 229 531 229q291 0 474 -256q165 -229 165 -528zM1348 633q0 283 -153 500q-171 241 -443 241q-307 0 -499 -216q-183 -208 -183 -519q0 -317 174 -505 q180 -193 495 -193q270 0 445 214q164 201 164 478zM971 623q0 -121 -66 -215q-73 -105 -188 -105t-188 105q-64 94 -64 215q0 119 64 213q73 106 188 106t188 -106q66 -94 66 -213zM928 623q0 103 -54 185q-61 91 -157 91t-157 -91q-54 -82 -54 -185q0 -105 54 -187 q61 -92 157 -92t157 92q54 82 54 187zM942 1800q0 -26 -18 -49l-295 -287q-37 -18 -47 -18q-28 0 -45 16l-88 84q-21 19 -21 47q0 21 4 27l262 348q8 10 39 10q29 0 45 -16l138 -113q26 -21 26 -49zM899 1800q0 13 -10 16l-141 115q-2 4 -15 4q-10 0 -18 -8l-242 -319 q-2 -4 -2 -15q0 -10 6 -16l90 -84q3 -4 15 -4q9 0 18 6l293 287q6 12 6 18z" />
<glyph unicode="&#xd4;" horiz-adv-x="1417" d="M1391 633q0 -293 -176 -507q-187 -228 -476 -228q-335 0 -527 205q-185 200 -185 536q0 330 194 549q203 229 531 229q291 0 474 -256q165 -229 165 -528zM1348 633q0 283 -153 500q-171 241 -443 241q-307 0 -499 -216q-183 -208 -183 -519q0 -317 174 -505 q180 -193 495 -193q270 0 445 214q164 201 164 478zM971 623q0 -121 -66 -215q-73 -105 -188 -105t-188 105q-64 94 -64 215q0 119 64 213q73 106 188 106t188 -106q66 -94 66 -213zM928 623q0 103 -54 185q-61 91 -157 91t-157 -91q-54 -82 -54 -185q0 -105 54 -187 q61 -92 157 -92t157 92q54 82 54 187zM1181 1593q0 -16 -65 -121q-5 -5 -4 -4q-29 -39 -62 -39q-16 0 -24 5l-283 192l-268 -180q-8 -4 -27 -4q-34 0 -51 26q-52 59 -70 82q-18 19 -18 45q0 29 18 47v-2l273 285q14 15 43 18q22 1 65 5q77 8 119 8q24 0 47 -19l289 -295 q18 -18 18 -49zM1138 1593q0 12 -6 19l-289 295q-6 6 -16 6q10 0 -180 -13q-11 0 -16 -6l-273 -282q-6 -7 -6 -17q0 -8 6 -14l74 -90q6 -6 16 -6q6 0 15 4l280 190l295 -202q8 -5 12 -5q13 0 21 11q67 93 67 110z" />
<glyph unicode="&#xd5;" horiz-adv-x="1417" d="M1391 633q0 -293 -176 -507q-187 -228 -476 -228q-335 0 -527 205q-185 200 -185 536q0 330 194 549q203 229 531 229q291 0 474 -256q165 -229 165 -528zM1348 633q0 283 -153 500q-171 241 -443 241q-307 0 -499 -216q-183 -208 -183 -519q0 -317 174 -505 q180 -193 495 -193q270 0 445 214q164 201 164 478zM971 623q0 -121 -66 -215q-73 -105 -188 -105t-188 105q-64 94 -64 215q0 119 64 213q73 106 188 106t188 -106q66 -94 66 -213zM928 623q0 103 -54 185q-61 91 -157 91t-157 -91q-54 -82 -54 -185q0 -105 54 -187 q61 -92 157 -92t157 92q54 82 54 187zM1069 1593q0 -43 -74 -68q-56 -20 -111 -20q-82 0 -215 43h2q-134 39 -184 39q-11 -2 -36 -6t-44 -4q-28 0 -48.5 19.5t-18.5 48.5l12 206q0 43 75 68q56 18 111 18q76 0 201 -39h-2q139 -34 174 -34q24 0 39 6h-2q27 8 53 8 q68 0 68 -66v-219zM1026 1593v219q0 23 -25 23q-12 0 -42.5 -6t-47.5 -6q-63 0 -185.5 35.5t-187.5 35.5q-141 0 -143 -43l-12 -209q-2 -22 24 -22q12 0 39.5 4t40.5 4q67 0 197 -40t200 -40q142 0 142 45z" />
<glyph unicode="&#xd6;" horiz-adv-x="1417" d="M1391 633q0 -293 -176 -507q-187 -228 -476 -228q-335 0 -527 205q-185 200 -185 536q0 330 194 549q203 229 531 229q291 0 474 -256q165 -229 165 -528zM1348 633q0 283 -153 500q-171 241 -443 241q-307 0 -499 -216q-183 -208 -183 -519q0 -317 174 -505 q180 -193 495 -193q270 0 445 214q164 201 164 478zM971 623q0 -121 -66 -215q-73 -105 -188 -105t-188 105q-64 94 -64 215q0 119 64 213q73 106 188 106t188 -106q66 -94 66 -213zM928 623q0 103 -54 185q-61 91 -157 91t-157 -91q-54 -82 -54 -185q0 -105 54 -187 q61 -92 157 -92t157 92q54 82 54 187zM1094 1642q0 -80 -72 -131q-64 -45 -143 -45q-165 0 -205 119q-59 -119 -184 -119q-90 0 -150 45q-65 49 -65 131q0 79 69 131q63 46 139 46q136 0 195 -105q18 48 84 78q57 27 115 27q80 0 144 -46q73 -52 73 -131zM1053 1642 q0 61 -59 100q-53 36 -117 36t-117 -36q-59 -40 -59 -100q0 -61 59 -99q53 -34 119 -34q64 0 115 34q59 38 59 99zM652 1650q0 47 -52.5 87.5t-111.5 40.5q-66 0 -116 -36q-56 -39 -56 -100q0 -62 54 -99q49 -34 120 -34q66 0 116 49q46 44 46 92z" />
<glyph unicode="&#xd7;" d="M1399 123l-58 -57l-487 487l-487 -487l-58 57l488 487l-488 488l58 57l487 -487l487 487l58 -57l-488 -488z" />
<glyph unicode="&#xd8;" horiz-adv-x="1417" d="M1391 633q0 -293 -176 -507q-187 -228 -476 -228q-65 0 -96 4l-8 -23q-16 -42 -62 -43q-85 -3 -254 -8q-67 -1 -67 66q0 4 20 69q7 13 27 66q-272 185 -272 610q0 330 194 549q203 229 531 229q39 0 59 -2q3 6 29 68q18 43 59 43l262 -4q66 -1 66 -66q0 -9 -31 -92 q-9 -30 -41 -115q113 -115 176 -285q60 -161 60 -331zM1348 633q0 170 -62 330q-66 168 -182 274l80 219q0 25 -23 25l-262 2q-15 0 -20 -15l-39 -102q-39 8 -88 8q-307 0 -499 -216q-183 -208 -183 -519q0 -411 278 -592l-53 -153q0 -24 24 -23l254 8q17 1 21 15l22 55 q52 -8 123 -8q270 0 445 214q164 201 164 478zM971 623q0 -109 -58 -201q-63 -101 -161 -117l88 234.5l94 246.5q37 -87 37 -163zM682 940l-182 -483q-35 79 -35 166q0 109 55 199q62 101 162 118zM930 641q-2 10 -2 8l-49 -133h-2l-52 -131q103 86 103 238q0 16 2 18z M604 858q-98 -86 -98 -235q0 -21 -4 -21l4 -8q34 87 98 264z" />
<glyph unicode="&#xd9;" horiz-adv-x="1294" d="M1251 1255l-16 -739q-6 -290 -156 -447q-155 -165 -448 -165q-588 0 -588 598q0 317 4 571q0 22 3 94q1 58 1 93q0 28 21 47.5t49 17.5l373 -20q25 -2 43.5 -22t17.5 -44l-18 -717q0 -176 98 -176q102 0 104 209l11 690q0 25 18.5 45t44.5 21q50 0 186 4q119 4 187 4 q67 0 65 -64zM1210 1255q1 10 -6.5 16.5t-17.5 6.5l-373 -10q-20 -1 -20 -23l-11 -690q-1 -112 -22 -164q-33 -86 -125 -86q-139 0 -139 217q0 55 16 717q1 21 -20 23l-373 22q-24 2 -25 -24q-10 -666 -10 -758q0 -555 547 -555t561 571zM839 1491q0 -30 -18 -47l-92 -84 q-27 -16 -43 -16q-26 0 -50 18h3l-293 287q-23 22 -23 49q0 29 14 43l146 117q23 18 49 18q34 0 51 -28l-2 2l244 -320l-2 6q16 -19 16 -45zM796 1491q0 6 -4 15l-244 319q-6 8 -16 8q-11 0 -16 -4l-144 -115q-6 -6 -6 -16t8 -18l293 -287q6 -6 19 -6q10 0 14 4l90 84 q6 12 6 16z" />
<glyph unicode="&#xda;" horiz-adv-x="1294" d="M1251 1255l-16 -739q-6 -290 -156 -447q-155 -165 -448 -165q-588 0 -588 598q0 317 4 571q0 22 3 94q1 58 1 93q0 28 21 47.5t49 17.5l373 -20q25 -2 43.5 -22t17.5 -44l-18 -717q0 -176 98 -176q102 0 104 209l11 690q0 25 18.5 45t44.5 21q50 0 186 4q119 4 187 4 q67 0 65 -64zM1210 1255q1 10 -6.5 16.5t-17.5 6.5l-373 -10q-20 -1 -20 -23l-11 -690q-1 -112 -22 -164q-33 -86 -125 -86q-139 0 -139 217q0 55 16 717q1 21 -20 23l-373 22q-24 2 -25 -24q-10 -666 -10 -758q0 -555 547 -555t561 571zM962 1698q0 -26 -18 -49l-295 -287 q-37 -18 -47 -18q-28 0 -45 16l-88 84q-21 19 -21 47q0 21 4 27l262 348q8 10 39 10q29 0 45 -16l138 -113q26 -21 26 -49zM919 1698q0 13 -10 16l-141 115q-2 4 -15 4q-10 0 -18 -8l-242 -319q-2 -4 -2 -15q0 -10 6 -16l90 -84q3 -4 15 -4q9 0 18 6l293 287q6 12 6 18z" />
<glyph unicode="&#xdb;" horiz-adv-x="1294" d="M1251 1255l-16 -739q-6 -290 -156 -447q-155 -165 -448 -165q-588 0 -588 598q0 317 4 571q0 22 3 94q1 58 1 93q0 28 21 47.5t49 17.5l373 -20q25 -2 43.5 -22t17.5 -44l-18 -717q0 -176 98 -176q102 0 104 209l11 690q0 25 18.5 45t44.5 21q50 0 186 4q119 4 187 4 q67 0 65 -64zM1210 1255q1 10 -6.5 16.5t-17.5 6.5l-373 -10q-20 -1 -20 -23l-11 -690q-1 -112 -22 -164q-33 -86 -125 -86q-139 0 -139 217q0 55 16 717q1 21 -20 23l-373 22q-24 2 -25 -24q-10 -666 -10 -758q0 -555 547 -555t561 571zM1079 1552q0 -16 -65 -121 q-5 -5 -4 -4q-29 -39 -62 -39q-16 0 -24 5l-283 192l-268 -180q-8 -4 -27 -4q-34 0 -51 26q-52 59 -70 82q-18 19 -18 45q0 29 18 47v-2l273 285q14 15 43 18q22 1 65 5q77 8 119 8q24 0 47 -19l289 -295q18 -18 18 -49zM1036 1552q0 12 -6 19l-289 295q-6 6 -16 6 q10 0 -180 -13q-11 0 -16 -6l-273 -282q-6 -7 -6 -17q0 -8 6 -14l74 -90q6 -6 16 -6q6 0 15 4l280 190l295 -202q8 -5 12 -5q13 0 21 11q67 93 67 110z" />
<glyph unicode="&#xdc;" horiz-adv-x="1294" d="M1251 1255l-16 -739q-6 -290 -156 -447q-155 -165 -448 -165q-588 0 -588 598q0 317 4 571q0 22 3 94q1 58 1 93q0 28 21 47.5t49 17.5l373 -20q25 -2 43.5 -22t17.5 -44l-18 -717q0 -176 98 -176q102 0 104 209l11 690q0 25 18.5 45t44.5 21q50 0 186 4q119 4 187 4 q67 0 65 -64zM1210 1255q1 10 -6.5 16.5t-17.5 6.5l-373 -10q-20 -1 -20 -23l-11 -690q-1 -112 -22 -164q-33 -86 -125 -86q-139 0 -139 217q0 55 16 717q1 21 -20 23l-373 22q-24 2 -25 -24q-10 -666 -10 -758q0 -555 547 -555t561 571zM1073 1581q0 -80 -72 -131 q-64 -45 -143 -45q-165 0 -205 119q-59 -119 -184 -119q-90 0 -150 45q-65 49 -65 131q0 79 69 131q63 46 139 46q136 0 195 -105q18 48 84 78q57 27 115 27q80 0 144 -46q73 -52 73 -131zM1032 1581q0 61 -59 100q-53 36 -117 36t-117 -36q-59 -40 -59 -100q0 -61 59 -99 q53 -34 119 -34q64 0 115 34q59 38 59 99zM631 1589q0 47 -52.5 87.5t-111.5 40.5q-66 0 -116 -36q-56 -39 -56 -100q0 -62 54 -99q49 -34 120 -34q66 0 116 49q46 44 46 92z" />
<glyph unicode="&#xdd;" horiz-adv-x="1348" d="M1333 1266q0 -25 -422 -881l7 -367q0 -26 -20.5 -45.5t-45.5 -19.5l-387 -6q-66 -1 -66 65v377q-8 21 -30 72l-216 471q-139 306 -139 340q0 66 66 65l387 -6q49 -1 63 -45l134 -422l155 424q16 43 60 43h389q65 0 65 -65zM1290 1266q0 22 -22 22h-389q-18 0 -23 -14 l-194 -543l-170 543q-5 14 -25 14l-387 6q-23 1 -23 -22l385 -873v-387q0 -25 23 -24l387 8q23 0 22 22l-6 381q422 844 422 867zM1044 1698q0 -26 -18 -49l-295 -287q-37 -18 -47 -18q-28 0 -45 16l-88 84q-21 19 -21 47q0 21 4 27l262 348q8 10 39 10q29 0 45 -16 l138 -113q26 -21 26 -49zM1001 1698q0 13 -10 16l-141 115q-2 4 -15 4q-10 0 -18 -8l-242 -319q-2 -4 -2 -15q0 -10 6 -16l90 -84q3 -4 15 -4q9 0 18 6l293 287q6 12 6 18z" />
<glyph unicode="&#xde;" horiz-adv-x="1227" d="M1186 737q0 -252 -198 -412q-174 -142 -435 -167q0 -20 -2 -48.5t-2 -48.5q0 -59 -62 -63q-124 -9 -372 -25q-28 -1 -49 18.5t-21 47.5l-4 1397q0 29 19 47.5t46 17.5l406 -14q63 -2 63 -66v-98q314 -39 446 -147q165 -134 165 -439zM1145 737q0 291 -167 415 q-130 98 -446 134q2 118 0 135q0 24 -22 25l-404 12q-10 1 -17 -5.5t-7 -16.5l6 -1397q0 -24 25 -23l372 25q20 1 21 20l4 136q259 8 436 142q199 149 199 398zM776 702q0 -171 -260 -194l6 407h13q104 0 170 -53q71 -58 71 -160zM733 702q0 75 -49 121q-46 43 -121 47 q0 -194 -2 -313q172 28 172 145z" />
<glyph unicode="&#xdf;" horiz-adv-x="1272" d="M1231 422q0 -234 -201 -355q-165 -100 -409 -100q-68 0 -68 66q0 26 2 82.5t2 83.5v12q0 50 4 65l-2 -2q7 43 55 58q9 1 25 4q9 1 25 4h-2q100 29 100 109q0 66 -94 94q-7 1 -21.5 3.5l-36.5 6.5h2q-58 12 -57 65l4 205q1 51 55 64q45 10 54 10q94 31 94 94q0 49 -29 81 t-76 32t-80.5 -43t-33.5 -94v-1188q0 -66 -66 -66l-371 2q-65 1 -65 66l6 1177q1 206 199 369q188 156 397 156q225 0 394 -115q192 -131 192 -350q0 -169 -154 -297q156 -119 156 -299zM1188 422q0 183 -191 299q189 117 189 297q0 198 -179 318q-156 104 -364 104 q-195 0 -369 -143q-183 -149 -184 -339l-6 -1177q0 -25 22 -25h371q23 0 23 23v1188q0 67 46 123.5t111 56.5q68 0 108 -44.5t40 -111.5q0 -98 -125 -133q-31 -9 -59 -14q-19 -4 -19 -21l-4 -205q0 -18 20.5 -21.5t61.5 -12.5q125 -35 125 -135q0 -116 -131 -150 q-17 -3 -51 -10q-18 -6 -21 -21l-2 -71q-4 -148 -4 -164q0 -23 25 -23q226 0 380 91q187 110 187 321z" />
<glyph unicode="&#xe0;" horiz-adv-x="1090" d="M1053 678q0 -140 -23 -471l-12 -166q-2 -30 -2 -25q0 -30 -2 -45q-8 -57 -68 -57l-244 -2q-27 0 -47 20t-20 48v32q-92 -26 -199 -26q-180 0 -290 76q-130 90 -130 266q0 193 201 287q154 73 381 73q27 0 80 -4v4q0 37 -25 66.5t-61 29.5q-60 0 -82 -29q-28 -37 -61 -46 l-283 -43q-30 -5 -53 14t-23 51l2 14q50 166 178 255q125 87 301 87q482 0 482 -409zM1010 678q0 366 -439 366q-162 0 -277 -78t-161 -227q0 -2 -1 -4t-1 -4q0 -26 29 -22l286 39q4 0 42 41q36 38 104 38q53 0 90 -40t37 -93q0 -9 -1 -26.5t-1 -26.5q-65 10 -119 10 q-196 0 -340 -61q-199 -85 -199 -262q0 -155 116 -233q99 -66 261 -66q129 0 246 43q0 -16 -2 -46.5t-2 -45.5q0 -27 24 -27l244 2q25 0 29 36v54q35 562 35 633zM707 434l-13 -196q-58 -11 -104 -11q-146 0 -146 97q0 114 203 114q19 0 60 -4zM659 395h-12q-162 0 -162 -71 q0 -54 105 -54q39 0 63 4q1 19 6 121zM860 1245q0 -30 -18 -47l-92 -84q-27 -16 -43 -16q-26 0 -50 18h3l-293 287q-23 22 -23 49q0 29 14 43l146 117q23 18 49 18q34 0 51 -28l-2 2l244 -320l-2 6q16 -19 16 -45zM817 1245q0 6 -4 15l-244 319q-6 8 -16 8q-11 0 -16 -4 l-144 -115q-6 -6 -6 -16t8 -18l293 -287q6 -6 19 -6q10 0 14 4l90 84q6 12 6 16z" />
<glyph unicode="&#xe1;" horiz-adv-x="1090" d="M1053 678q0 -140 -23 -471l-12 -166q-2 -30 -2 -25q0 -30 -2 -45q-8 -57 -68 -57l-244 -2q-27 0 -47 20t-20 48v32q-92 -26 -199 -26q-180 0 -290 76q-130 90 -130 266q0 193 201 287q154 73 381 73q27 0 80 -4v4q0 37 -25 66.5t-61 29.5q-60 0 -82 -29q-28 -37 -61 -46 l-283 -43q-30 -5 -53 14t-23 51l2 14q50 166 178 255q125 87 301 87q482 0 482 -409zM1010 678q0 366 -439 366q-162 0 -277 -78t-161 -227q0 -2 -1 -4t-1 -4q0 -26 29 -22l286 39q4 0 42 41q36 38 104 38q53 0 90 -40t37 -93q0 -9 -1 -26.5t-1 -26.5q-65 10 -119 10 q-196 0 -340 -61q-199 -85 -199 -262q0 -155 116 -233q99 -66 261 -66q129 0 246 43q0 -16 -2 -46.5t-2 -45.5q0 -27 24 -27l244 2q25 0 29 36v54q35 562 35 633zM707 434l-13 -196q-58 -11 -104 -11q-146 0 -146 97q0 114 203 114q19 0 60 -4zM659 395h-12q-162 0 -162 -71 q0 -54 105 -54q39 0 63 4q1 19 6 121zM942 1472q0 -26 -18 -49l-295 -287q-37 -18 -47 -18q-28 0 -45 16l-88 84q-21 19 -21 47q0 21 4 27l262 348q8 10 39 10q29 0 45 -16l138 -113q26 -21 26 -49zM899 1472q0 13 -10 16l-141 115q-2 4 -15 4q-10 0 -18 -8l-242 -319 q-2 -4 -2 -15q0 -10 6 -16l90 -84q3 -4 15 -4q9 0 18 6l293 287q6 12 6 18z" />
<glyph unicode="&#xe2;" horiz-adv-x="1090" d="M1053 678q0 -140 -23 -471l-12 -166q-2 -30 -2 -25q0 -30 -2 -45q-8 -57 -68 -57l-244 -2q-27 0 -47 20t-20 48v32q-92 -26 -199 -26q-180 0 -290 76q-130 90 -130 266q0 193 201 287q154 73 381 73q27 0 80 -4v4q0 37 -25 66.5t-61 29.5q-60 0 -82 -29q-28 -37 -61 -46 l-283 -43q-30 -5 -53 14t-23 51l2 14q50 166 178 255q125 87 301 87q482 0 482 -409zM1010 678q0 366 -439 366q-162 0 -277 -78t-161 -227q0 -2 -1 -4t-1 -4q0 -26 29 -22l286 39q4 0 42 41q36 38 104 38q53 0 90 -40t37 -93q0 -9 -1 -26.5t-1 -26.5q-65 10 -119 10 q-196 0 -340 -61q-199 -85 -199 -262q0 -155 116 -233q99 -66 261 -66q129 0 246 43q0 -16 -2 -46.5t-2 -45.5q0 -27 24 -27l244 2q25 0 29 36v54q35 562 35 633zM707 434l-13 -196q-58 -11 -104 -11q-146 0 -146 97q0 114 203 114q19 0 60 -4zM659 395h-12q-162 0 -162 -71 q0 -54 105 -54q39 0 63 4q1 19 6 121zM1038 1224q0 -16 -65 -121q-5 -5 -4 -4q-29 -39 -62 -39q-16 0 -24 5l-283 192l-268 -180q-8 -4 -27 -4q-34 0 -51 26q-52 59 -70 82q-18 19 -18 45q0 29 18 47v-2l273 285q14 15 43 18q22 1 65 5q77 8 119 8q24 0 47 -19l289 -295 q18 -18 18 -49zM995 1224q0 12 -6 19l-289 295q-6 6 -16 6q10 0 -180 -13q-11 0 -16 -6l-273 -282q-6 -7 -6 -17q0 -8 6 -14l74 -90q6 -6 16 -6q6 0 15 4l280 190l295 -202q8 -5 12 -5q13 0 21 11q67 93 67 110z" />
<glyph unicode="&#xe3;" horiz-adv-x="1090" d="M1053 678q0 -140 -23 -471l-12 -166q-2 -30 -2 -25q0 -30 -2 -45q-8 -57 -68 -57l-244 -2q-27 0 -47 20t-20 48v32q-92 -26 -199 -26q-180 0 -290 76q-130 90 -130 266q0 193 201 287q154 73 381 73q27 0 80 -4v4q0 37 -25 66.5t-61 29.5q-60 0 -82 -29q-28 -37 -61 -46 l-283 -43q-30 -5 -53 14t-23 51l2 14q50 166 178 255q125 87 301 87q482 0 482 -409zM1010 678q0 366 -439 366q-162 0 -277 -78t-161 -227q0 -2 -1 -4t-1 -4q0 -26 29 -22l286 39q4 0 42 41q36 38 104 38q53 0 90 -40t37 -93q0 -9 -1 -26.5t-1 -26.5q-65 10 -119 10 q-196 0 -340 -61q-199 -85 -199 -262q0 -155 116 -233q99 -66 261 -66q129 0 246 43q0 -16 -2 -46.5t-2 -45.5q0 -27 24 -27l244 2q25 0 29 36v54q35 562 35 633zM707 434l-13 -196q-58 -11 -104 -11q-146 0 -146 97q0 114 203 114q19 0 60 -4zM659 395h-12q-162 0 -162 -71 q0 -54 105 -54q39 0 63 4q1 19 6 121zM967 1204q0 -43 -74 -68q-56 -20 -111 -20q-82 0 -215 43h2q-134 39 -184 39q-11 -2 -36 -6t-44 -4q-28 0 -48.5 19.5t-18.5 48.5l12 206q0 43 75 68q56 18 111 18q76 0 201 -39h-2q139 -34 174 -34q24 0 39 6h-2q27 8 53 8 q68 0 68 -66v-219zM924 1204v219q0 23 -25 23q-12 0 -42.5 -6t-47.5 -6q-63 0 -185.5 35.5t-187.5 35.5q-141 0 -143 -43l-12 -209q-2 -22 24 -22q12 0 39.5 4t40.5 4q67 0 197 -40t200 -40q142 0 142 45z" />
<glyph unicode="&#xe4;" horiz-adv-x="1090" d="M1053 678q0 -140 -23 -471l-12 -166q-2 -30 -2 -25q0 -30 -2 -45q-8 -57 -68 -57l-244 -2q-27 0 -47 20t-20 48v32q-92 -26 -199 -26q-180 0 -290 76q-130 90 -130 266q0 193 201 287q154 73 381 73q27 0 80 -4v4q0 37 -25 66.5t-61 29.5q-60 0 -82 -29q-28 -37 -61 -46 l-283 -43q-30 -5 -53 14t-23 51l2 14q50 166 178 255q125 87 301 87q482 0 482 -409zM1010 678q0 366 -439 366q-162 0 -277 -78t-161 -227q0 -2 -1 -4t-1 -4q0 -26 29 -22l286 39q4 0 42 41q36 38 104 38q53 0 90 -40t37 -93q0 -9 -1 -26.5t-1 -26.5q-65 10 -119 10 q-196 0 -340 -61q-199 -85 -199 -262q0 -155 116 -233q99 -66 261 -66q129 0 246 43q0 -16 -2 -46.5t-2 -45.5q0 -27 24 -27l244 2q25 0 29 36v54q35 562 35 633zM707 434l-13 -196q-58 -11 -104 -11q-146 0 -146 97q0 114 203 114q19 0 60 -4zM659 395h-12q-162 0 -162 -71 q0 -54 105 -54q39 0 63 4q1 19 6 121zM991 1273q0 -80 -72 -131q-64 -45 -143 -45q-165 0 -205 119q-59 -119 -184 -119q-90 0 -150 45q-65 49 -65 131q0 79 69 131q63 46 139 46q136 0 195 -105q18 48 84 78q57 27 115 27q80 0 144 -46q73 -52 73 -131zM950 1273 q0 61 -59 100q-53 36 -117 36t-117 -36q-59 -40 -59 -100q0 -61 59 -99q53 -34 119 -34q64 0 115 34q59 38 59 99zM549 1281q0 47 -52.5 87.5t-111.5 40.5q-66 0 -116 -36q-56 -39 -56 -100q0 -62 54 -99q49 -34 120 -34q66 0 116 49q46 44 46 92z" />
<glyph unicode="&#xe5;" horiz-adv-x="1090" d="M1053 678q0 -140 -23 -471l-12 -166q-2 -30 -2 -25q0 -30 -2 -45q-8 -57 -68 -57l-244 -2q-27 0 -47 20t-20 48v32q-92 -26 -199 -26q-180 0 -290 76q-130 90 -130 266q0 193 201 287q154 73 381 73q27 0 80 -4v4q0 37 -25 66.5t-61 29.5q-60 0 -82 -29q-28 -37 -61 -46 l-283 -43q-30 -5 -53 14t-23 51l2 14q50 166 178 255q125 87 301 87q482 0 482 -409zM1010 678q0 366 -439 366q-162 0 -277 -78t-161 -227q0 -2 -1 -4t-1 -4q0 -26 29 -22l286 39q4 0 42 41q36 38 104 38q53 0 90 -40t37 -93q0 -9 -1 -26.5t-1 -26.5q-65 10 -119 10 q-196 0 -340 -61q-199 -85 -199 -262q0 -155 116 -233q99 -66 261 -66q129 0 246 43q0 -16 -2 -46.5t-2 -45.5q0 -27 24 -27l244 2q25 0 29 36v54q35 562 35 633zM707 434l-13 -196q-58 -11 -104 -11q-146 0 -146 97q0 114 203 114q19 0 60 -4zM659 395h-12q-162 0 -162 -71 q0 -54 105 -54q39 0 63 4q1 19 6 121zM866 1354q0 -110 -90 -182q-84 -66 -195 -66t-194 66q-90 72 -90 182t90 183q84 69 194 69q111 0 195 -69q90 -73 90 -183zM825 1354q0 91 -78 152q-73 57 -166 57t-165 -57q-79 -61 -79 -152t79 -150q71 -55 165 -55t166 55 q78 59 78 150zM671 1354q0 -30 -28.5 -48t-61.5 -18t-59 17q-31 19 -31 49q0 65 90 65t90 -65zM630 1354q0 24 -49 24t-49 -24q0 -23 49 -23t49 23z" />
<glyph unicode="&#xe6;" horiz-adv-x="1626" d="M1575 66q2 -54 -131 -88q-96 -25 -162 -25q-150 0 -283 57v-8q-1 -3 -2 -8q-2 -59 -65 -60l-232 -2q-65 0 -65 66v29q-93 -23 -184 -23q-172 0 -277 72q-123 84 -123 252q0 231 279 315l-133 -18q-30 -4 -53 16t-23 49q2 14 2 12q48 161 168.5 253t286.5 92 q143 0 243 -41q129 165 324 165q205 0 318 -130q106 -123 106 -330q0 -203 -70 -303q-28 -32 -55 -31l-365 14q48 -110 178 -110q76 0 216 49l-13 -8q16 10 35 10q25 0 45 -19t21 -45q5 -68 14 -202zM1532 63l-14 205q-2 21 -23 21h-8q-132 -49 -230 -49q-198 0 -235 196 l422 -16q10 -1 20 14q62 87 62 277q0 188 -95 299q-102 118 -286 118q-185 0 -311 -176q-98 52 -256 52q-150 0 -259.5 -82t-152.5 -224q-1 -2 -1.5 -4t-0.5 -4q0 -26 26 -22l271 37q11 1 18 16q39 78 119 78q51 0 86 -35t35 -86q0 -7 -1 -23.5t-1 -23.5q-59 6 -115 6 q-193 0 -328 -60q-180 -81 -180 -249q0 -146 110 -219q93 -62 247 -62q122 0 233 39q-6 -86 -6 -88q0 -23 22 -23l232 2q23 1 24 21l5 78q144 -80 321 -80q58 0 139 14q113 21 111 53zM676 678q0 33 -22.5 55.5t-55.5 22.5q-55 0 -80 -54q-4 -6 -20 -28q55 6 104 6 q51 0 74 -2zM1278 700q0 -54 -18 -106l-240 -8q20 229 160 229q98 0 98 -115zM705 428l-11 -184q-54 -11 -98 -11q-137 0 -137 91q0 108 190 108q19 0 56 -4zM1235 700q0 72 -55 72q-83 0 -113 -143q166 6 160 6q8 45 8 65zM659 387l-10 2q-147 0 -147 -65q0 -48 94 -48 q35 0 57 3z" />
<glyph unicode="&#xe7;" horiz-adv-x="846" d="M834 289l-13 -221q-2 -45 -43 -60q-52 -18 -155 -18q-66 0 -115 8q-4 -9 -11.5 -29.5t-11.5 -29.5q133 -26 214 -102q92 -87 92 -220q0 -154 -116 -245q-105 -85 -259 -85q-159 0 -290 88q-128 85 -200 232l-2 20q0 28 20 47t46 19q28 0 43 -15q179 -104 289 -104 q94 0 94 86q0 96 -232 109q-27 1 -46 21t-19 44q0 20 127 236v-2q2 3 6 10q1 1 0 0.5t2 3.5q-248 133 -248 403q0 272 152 432t422 160q118 0 192 -30h-2q43 -20 43 -60v-321q0 -23 -18.5 -44.5t-42.5 -21.5q-11 0 -30.5 1t-27.5 1q-28 4 -47 4q-201 0 -201 -141 q0 -121 195 -121q21 0 53.5 6t73.5 6q29 0 48 -19.5t18 -47.5zM791 289q1 24 -23 24h-4q-21 0 -61.5 -5t-61.5 -5q-238 0 -238 162q0 184 244 184q18 0 52.5 -4t52.5 -4t18 25v321q0 13 -16 21q-61 26 -174 26q-250 0 -390.5 -148t-140.5 -401q0 -264 264 -387l-83 -140 q-68 -115 -68 -124q0 -21 24 -22q273 -11 273 -152q0 -129 -137 -129q-121 0 -320 117q-4 4 -12 4q-23 0 -23 -25q2 -9 2 -8q64 -132 182.5 -210.5t264.5 -78.5q137 0 231 74q103 80 103 213q0 128 -102 206q-88 69 -224 81l57 143q63 -14 142 -14q92 0 139 16q17 4 18 21z " />
<glyph unicode="&#xe8;" horiz-adv-x="926" d="M913 80q0 -51 -127 -84q-94 -25 -161 -25q-267 0 -435 145q-178 153 -178 416q0 243 108 431q131 227 363 227q424 0 424 -504q0 -63 -33 -165q-42 -127 -94 -126q-110 5 -362 13q48 -109 180 -109q72 0 221 47q16 2 17 2q58 0 65 -59q1 -35 7 -125q5 -85 5 -84zM870 80 q0 227 -34 227q-3 0 -4.5 -0.5l-4.5 -1.5q-143 -49 -229 -49q-201 0 -238 197l422 -15q35 -1 62 107q22 88 22 141q0 461 -383 461q-211 0 -330 -212q-98 -175 -98 -403q0 -243 166 -385q156 -133 404 -133q58 0 137 15q108 19 108 51zM616 711q0 -19 -5 -55q-8 -45 -17 -46 l-236 -8q25 229 160 229q98 0 98 -120zM575 711q0 80 -57 80q-85 0 -110 -146q53 3 159 7q8 45 8 59zM798 1306q0 -30 -18 -47l-92 -84q-27 -16 -43 -16q-26 0 -50 18h3l-293 287q-23 22 -23 49q0 29 14 43l146 117q23 18 49 18q34 0 51 -28l-2 2l244 -320l-2 6 q16 -19 16 -45zM755 1306q0 6 -4 15l-244 319q-6 8 -16 8q-11 0 -16 -4l-144 -115q-6 -6 -6 -16t8 -18l293 -287q6 -6 19 -6q10 0 14 4l90 84q6 12 6 16z" />
<glyph unicode="&#xe9;" horiz-adv-x="926" d="M913 80q0 -51 -127 -84q-94 -25 -161 -25q-267 0 -435 145q-178 153 -178 416q0 243 108 431q131 227 363 227q424 0 424 -504q0 -63 -33 -165q-42 -127 -94 -126q-110 5 -362 13q48 -109 180 -109q72 0 221 47q16 2 17 2q58 0 65 -59q1 -35 7 -125q5 -85 5 -84zM870 80 q0 227 -34 227q-3 0 -4.5 -0.5l-4.5 -1.5q-143 -49 -229 -49q-201 0 -238 197l422 -15q35 -1 62 107q22 88 22 141q0 461 -383 461q-211 0 -330 -212q-98 -175 -98 -403q0 -243 166 -385q156 -133 404 -133q58 0 137 15q108 19 108 51zM616 711q0 -19 -5 -55q-8 -45 -17 -46 l-236 -8q25 229 160 229q98 0 98 -120zM575 711q0 80 -57 80q-85 0 -110 -146q53 3 159 7q8 45 8 59zM901 1554q0 -26 -18 -49l-295 -287q-37 -18 -47 -18q-28 0 -45 16l-88 84q-21 19 -21 47q0 21 4 27l262 348q8 10 39 10q29 0 45 -16l138 -113q26 -21 26 -49zM858 1554 q0 13 -10 16l-141 115q-2 4 -15 4q-10 0 -18 -8l-242 -319q-2 -4 -2 -15q0 -10 6 -16l90 -84q3 -4 15 -4q9 0 18 6l293 287q6 12 6 18z" />
<glyph unicode="&#xea;" horiz-adv-x="926" d="M913 80q0 -51 -127 -84q-94 -25 -161 -25q-267 0 -435 145q-178 153 -178 416q0 243 108 431q131 227 363 227q424 0 424 -504q0 -63 -33 -165q-42 -127 -94 -126q-110 5 -362 13q48 -109 180 -109q72 0 221 47q16 2 17 2q58 0 65 -59q1 -35 7 -125q5 -85 5 -84zM870 80 q0 227 -34 227q-3 0 -4.5 -0.5l-4.5 -1.5q-143 -49 -229 -49q-201 0 -238 197l422 -15q35 -1 62 107q22 88 22 141q0 461 -383 461q-211 0 -330 -212q-98 -175 -98 -403q0 -243 166 -385q156 -133 404 -133q58 0 137 15q108 19 108 51zM616 711q0 -19 -5 -55q-8 -45 -17 -46 l-236 -8q25 229 160 229q98 0 98 -120zM575 711q0 80 -57 80q-85 0 -110 -146q53 3 159 7q8 45 8 59zM956 1265q0 -16 -65 -121q-5 -5 -4 -4q-29 -39 -62 -39q-16 0 -24 5l-283 192l-268 -180q-8 -4 -27 -4q-34 0 -51 26q-52 59 -70 82q-18 19 -18 45q0 29 18 47v-2l273 285 q14 15 43 18q22 1 65 5q77 8 119 8q24 0 47 -19l289 -295q18 -18 18 -49zM913 1265q0 12 -6 19l-289 295q-6 6 -16 6q10 0 -180 -13q-11 0 -16 -6l-273 -282q-6 -7 -6 -17q0 -8 6 -14l74 -90q6 -6 16 -6q6 0 15 4l280 190l295 -202q8 -5 12 -5q13 0 21 11q67 93 67 110z" />
<glyph unicode="&#xeb;" horiz-adv-x="926" d="M913 80q0 -51 -127 -84q-94 -25 -161 -25q-267 0 -435 145q-178 153 -178 416q0 243 108 431q131 227 363 227q424 0 424 -504q0 -63 -33 -165q-42 -127 -94 -126q-110 5 -362 13q48 -109 180 -109q72 0 221 47q16 2 17 2q58 0 65 -59q1 -35 7 -125q5 -85 5 -84zM870 80 q0 227 -34 227q-3 0 -4.5 -0.5l-4.5 -1.5q-143 -49 -229 -49q-201 0 -238 197l422 -15q35 -1 62 107q22 88 22 141q0 461 -383 461q-211 0 -330 -212q-98 -175 -98 -403q0 -243 166 -385q156 -133 404 -133q58 0 137 15q108 19 108 51zM616 711q0 -19 -5 -55q-8 -45 -17 -46 l-236 -8q25 229 160 229q98 0 98 -120zM575 711q0 80 -57 80q-85 0 -110 -146q53 3 159 7q8 45 8 59zM930 1396q0 -80 -72 -131q-64 -45 -143 -45q-165 0 -205 119q-59 -119 -184 -119q-90 0 -150 45q-65 49 -65 131q0 79 69 131q63 46 139 46q136 0 195 -105q18 48 84 78 q57 27 115 27q80 0 144 -46q73 -52 73 -131zM889 1396q0 61 -59 100q-53 36 -117 36t-117 -36q-59 -40 -59 -100q0 -61 59 -99q53 -34 119 -34q64 0 115 34q59 38 59 99zM488 1404q0 47 -52.5 87.5t-111.5 40.5q-66 0 -116 -36q-56 -39 -56 -100q0 -62 54 -99 q49 -34 120 -34q66 0 116 49q46 44 46 92z" />
<glyph unicode="&#xec;" horiz-adv-x="573" d="M526 836l-20 -795q-1 -25 -21 -45t-45 -21l-317 -2q-28 0 -48 18.5t-20 47.5l15 803q1 64 67 63l324 -4q67 -1 65 -65zM483 836q1 24 -22 24l-324 4q-26 1 -26 -22l-13 -803q0 -23 25 -23h317q24 0 25 25zM471 1081q0 -30 -18 -47l-92 -84q-27 -16 -43 -16q-26 0 -50 18 h3l-293 287q-23 22 -23 49q0 29 14 43l146 117q23 18 49 18q34 0 51 -28l-2 2l244 -320l-2 6q16 -19 16 -45zM428 1081q0 6 -4 15l-244 319q-6 8 -16 8q-11 0 -16 -4l-144 -115q-6 -6 -6 -16t8 -18l293 -287q6 -6 19 -6q10 0 14 4l90 84q6 12 6 16z" />
<glyph unicode="&#xed;" horiz-adv-x="573" d="M526 836l-20 -795q-1 -25 -21 -45t-45 -21l-317 -2q-28 0 -48 18.5t-20 47.5l15 803q1 64 67 63l324 -4q67 -1 65 -65zM483 836q1 24 -22 24l-324 4q-26 1 -26 -22l-13 -803q0 -23 25 -23h317q24 0 25 25zM676 1309q0 -26 -18 -49l-295 -287q-37 -18 -47 -18 q-28 0 -45 16l-88 84q-21 19 -21 47q0 21 4 27l262 348q8 10 39 10q29 0 45 -16l138 -113q26 -21 26 -49zM633 1309q0 13 -10 16l-141 115q-2 4 -15 4q-10 0 -18 -8l-242 -319q-2 -4 -2 -15q0 -10 6 -16l90 -84q3 -4 15 -4q9 0 18 6l293 287q6 12 6 18z" />
<glyph unicode="&#xee;" horiz-adv-x="573" d="M526 836l-20 -795q-1 -25 -21 -45t-45 -21l-317 -2q-28 0 -48 18.5t-20 47.5l15 803q1 64 67 63l324 -4q67 -1 65 -65zM483 836q1 24 -22 24l-324 4q-26 1 -26 -22l-13 -803q0 -23 25 -23h317q24 0 25 25zM751 1061q0 -16 -65 -121q-5 -5 -4 -4q-29 -39 -62 -39 q-16 0 -24 5l-283 192l-268 -180q-8 -4 -27 -4q-34 0 -51 26q-52 59 -70 82q-18 19 -18 45q0 29 18 47v-2l273 285q14 15 43 18q22 1 65 5q77 8 119 8q24 0 47 -19l289 -295q18 -18 18 -49zM708 1061q0 12 -6 19l-289 295q-6 6 -16 6q10 0 -180 -13q-11 0 -16 -6l-273 -282 q-6 -7 -6 -17q0 -8 6 -14l74 -90q6 -6 16 -6q6 0 15 4l280 190l295 -202q8 -5 12 -5q13 0 21 11q67 93 67 110z" />
<glyph unicode="&#xef;" horiz-adv-x="573" d="M526 836l-20 -795q-1 -25 -21 -45t-45 -21l-317 -2q-28 0 -48 18.5t-20 47.5l15 803q1 64 67 63l324 -4q67 -1 65 -65zM483 836q1 24 -22 24l-324 4q-26 1 -26 -22l-13 -803q0 -23 25 -23h317q24 0 25 25zM725 1151q0 -80 -72 -131q-64 -45 -143 -45q-165 0 -205 119 q-59 -119 -184 -119q-90 0 -150 45q-65 49 -65 131q0 79 69 131q63 46 139 46q136 0 195 -105q18 48 84 78q57 27 115 27q80 0 144 -46q73 -52 73 -131zM684 1151q0 61 -59 100q-53 36 -117 36t-117 -36q-59 -40 -59 -100q0 -61 59 -99q53 -34 119 -34q64 0 115 34 q59 38 59 99zM283 1159q0 47 -52.5 87.5t-111.5 40.5q-66 0 -116 -36q-56 -39 -56 -100q0 -62 54 -99q49 -34 120 -34q66 0 116 49q46 44 46 92z" />
<glyph unicode="&#xf0;" horiz-adv-x="1073" d="M1038 442q0 -224 -118 -366q-126 -154 -347 -154q-250 0 -394 140t-144 389q0 173 62 310q66 148 192 222q-27 3 -41 23l-19 20q-67 83 -67 111q0 30 55 77q-13 4 -20 9l2 -2q-24 4 -41 14h4q-43 18 -43 61q0 15 78 138q65 103 94 143v-2q18 29 53 29q42 0 209 -121 q74 69 119 69q16 0 74.5 -67.5t58.5 -83.5q0 -39 -68 -88q301 -348 301 -871zM455 1040q-9 17 -21 29q15 14 8 10q-40 -36 -73 -59q30 9 86 20zM995 442q0 535 -321 877q88 66 88 82q0 12 -40 61t-50 49q-14 0 -117 -84q-32 28 -103 75q-87 59 -108 59q-15 0 -18 -11 q-23 -29 -90 -130q-74 -113 -74 -124q0 -16 14 -22q42 -16 123 -51l-54 -42q-40 -32 -40 -44q0 -2 76 -103q6 -8 16 -8q8 0 137 100q58 -51 86 -122q-219 -8 -337 -175q-105 -148 -105 -378q0 -228 132.5 -357t362.5 -129q200 0 315 140q107 131 107 337zM662 473 q0 -76 -32 -129q-38 -65 -108 -65q-133 0 -133 153q0 70 34 126q39 67 105 67q65 0 101 -45q33 -42 33 -107zM618 473q0 109 -90 109q-46 0 -73 -51q-23 -43 -23 -99q0 -110 90 -110q49 0 75 51q21 42 21 100z" />
<glyph unicode="&#xf1;" horiz-adv-x="1147" d="M1110 559q0 -86 -12 -350q-5 -53 -11 -166q-1 -69 -67 -66l-301 17q-26 1 -45 21.5t-19 43.5q0 -2 2 166l5 336q0 166 -68 166q-88 0 -117 -76q3 -189 8 -569q1 -25 -20 -45t-45 -21q-110 -1 -311 -4q-68 -1 -68 66l-4 971q0 65 65 65h306q52 0 63 -53q91 65 215 65 q231 0 339 -181q85 -144 85 -386zM1067 559q0 224 -77 358q-96 168 -304 168q-142 0 -256 -116v80q0 22 -22 22h-306q-22 0 -22 -22l4 -971q0 -25 25 -25l311 6q23 1 22 23l-8 575q36 111 160 111q111 0 111 -207q0 27 -7 -502q0 -21 23 -22l299 -19q26 -1 27 25 q20 548 20 516zM946 1286q0 -43 -74 -68q-56 -20 -111 -20q-82 0 -215 43h2q-134 39 -184 39q-11 -2 -36 -6t-44 -4q-28 0 -48.5 19.5t-18.5 48.5l12 206q0 43 75 68q56 18 111 18q76 0 201 -39h-2q139 -34 174 -34q24 0 39 6h-2q27 8 53 8q68 0 68 -66v-219zM903 1286v219 q0 23 -25 23q-12 0 -42.5 -6t-47.5 -6q-63 0 -185.5 35.5t-187.5 35.5q-141 0 -143 -43l-12 -209q-2 -22 24 -22q12 0 39.5 4t40.5 4q67 0 197 -40t200 -40q142 0 142 45z" />
<glyph unicode="&#xf2;" horiz-adv-x="1032" d="M1018 535q0 -237 -110 -388q-125 -172 -355 -172q-250 0 -394.5 140t-144.5 389q0 252 106 409q123 185 367 185q253 0 395 -158q136 -152 136 -405zM975 535q0 234 -125 374q-131 148 -363 148q-222 0 -334 -172q-96 -146 -96 -381q0 -229 133 -358.5t363 -129.5 q209 0 322 160q100 140 100 359zM641 524q0 -74 -31 -127q-38 -65 -108 -65q-133 0 -133 151q0 72 33 127q40 66 106 66q64 0 100 -45q33 -41 33 -107zM598 524q0 111 -90 111q-46 0 -74 -52q-22 -44 -22 -100q0 -108 90 -108q96 0 96 149zM778 1245q0 -30 -18 -47l-92 -84 q-27 -16 -43 -16q-26 0 -50 18h3l-293 287q-23 22 -23 49q0 29 14 43l146 117q23 18 49 18q34 0 51 -28l-2 2l244 -320l-2 6q16 -19 16 -45zM735 1245q0 6 -4 15l-244 319q-6 8 -16 8q-11 0 -16 -4l-144 -115q-6 -6 -6 -16t8 -18l293 -287q6 -6 19 -6q10 0 14 4l90 84 q6 12 6 16z" />
<glyph unicode="&#xf3;" horiz-adv-x="1032" d="M1018 535q0 -237 -110 -388q-125 -172 -355 -172q-250 0 -394.5 140t-144.5 389q0 252 106 409q123 185 367 185q253 0 395 -158q136 -152 136 -405zM975 535q0 234 -125 374q-131 148 -363 148q-222 0 -334 -172q-96 -146 -96 -381q0 -229 133 -358.5t363 -129.5 q209 0 322 160q100 140 100 359zM641 524q0 -74 -31 -127q-38 -65 -108 -65q-133 0 -133 151q0 72 33 127q40 66 106 66q64 0 100 -45q33 -41 33 -107zM598 524q0 111 -90 111q-46 0 -74 -52q-22 -44 -22 -100q0 -108 90 -108q96 0 96 149zM901 1472q0 -26 -18 -49 l-295 -287q-37 -18 -47 -18q-28 0 -45 16l-88 84q-21 19 -21 47q0 21 4 27l262 348q8 10 39 10q29 0 45 -16l138 -113q26 -21 26 -49zM858 1472q0 13 -10 16l-141 115q-2 4 -15 4q-10 0 -18 -8l-242 -319q-2 -4 -2 -15q0 -10 6 -16l90 -84q3 -4 15 -4q9 0 18 6l293 287 q6 12 6 18z" />
<glyph unicode="&#xf4;" horiz-adv-x="1032" d="M1018 535q0 -237 -110 -388q-125 -172 -355 -172q-250 0 -394.5 140t-144.5 389q0 252 106 409q123 185 367 185q253 0 395 -158q136 -152 136 -405zM975 535q0 234 -125 374q-131 148 -363 148q-222 0 -334 -172q-96 -146 -96 -381q0 -229 133 -358.5t363 -129.5 q209 0 322 160q100 140 100 359zM641 524q0 -74 -31 -127q-38 -65 -108 -65q-133 0 -133 151q0 72 33 127q40 66 106 66q64 0 100 -45q33 -41 33 -107zM598 524q0 111 -90 111q-46 0 -74 -52q-22 -44 -22 -100q0 -108 90 -108q96 0 96 149zM936 1204q0 -16 -65 -121 q-5 -5 -4 -4q-29 -39 -62 -39q-16 0 -24 5l-283 192l-268 -180q-8 -4 -27 -4q-34 0 -51 26q-52 59 -70 82q-18 19 -18 45q0 29 18 47v-2l273 285q14 15 43 18q22 1 65 5q77 8 119 8q24 0 47 -19l289 -295q18 -18 18 -49zM893 1204q0 12 -6 19l-289 295q-6 6 -16 6 q10 0 -180 -13q-11 0 -16 -6l-273 -282q-6 -7 -6 -17q0 -8 6 -14l74 -90q6 -6 16 -6q6 0 15 4l280 190l295 -202q8 -5 12 -5q13 0 21 11q67 93 67 110z" />
<glyph unicode="&#xf5;" horiz-adv-x="1032" d="M1018 535q0 -237 -110 -388q-125 -172 -355 -172q-250 0 -394.5 140t-144.5 389q0 252 106 409q123 185 367 185q253 0 395 -158q136 -152 136 -405zM975 535q0 234 -125 374q-131 148 -363 148q-222 0 -334 -172q-96 -146 -96 -381q0 -229 133 -358.5t363 -129.5 q209 0 322 160q100 140 100 359zM641 524q0 -74 -31 -127q-38 -65 -108 -65q-133 0 -133 151q0 72 33 127q40 66 106 66q64 0 100 -45q33 -41 33 -107zM598 524q0 111 -90 111q-46 0 -74 -52q-22 -44 -22 -100q0 -108 90 -108q96 0 96 149zM885 1224q0 -43 -74 -68 q-56 -20 -111 -20q-82 0 -215 43h2q-134 39 -184 39q-11 -2 -36 -6t-44 -4q-28 0 -48.5 19.5t-18.5 48.5l12 206q0 43 75 68q56 18 111 18q76 0 201 -39h-2q139 -34 174 -34q24 0 39 6h-2q27 8 53 8q68 0 68 -66v-219zM842 1224v219q0 23 -25 23q-12 0 -42.5 -6t-47.5 -6 q-63 0 -185.5 35.5t-187.5 35.5q-141 0 -143 -43l-12 -209q-2 -22 24 -22q12 0 39.5 4t40.5 4q67 0 197 -40t200 -40q142 0 142 45z" />
<glyph unicode="&#xf6;" horiz-adv-x="1032" d="M1018 535q0 -237 -110 -388q-125 -172 -355 -172q-250 0 -394.5 140t-144.5 389q0 252 106 409q123 185 367 185q253 0 395 -158q136 -152 136 -405zM975 535q0 234 -125 374q-131 148 -363 148q-222 0 -334 -172q-96 -146 -96 -381q0 -229 133 -358.5t363 -129.5 q209 0 322 160q100 140 100 359zM641 524q0 -74 -31 -127q-38 -65 -108 -65q-133 0 -133 151q0 72 33 127q40 66 106 66q64 0 100 -45q33 -41 33 -107zM598 524q0 111 -90 111q-46 0 -74 -52q-22 -44 -22 -100q0 -108 90 -108q96 0 96 149zM910 1273q0 -80 -72 -131 q-64 -45 -143 -45q-165 0 -205 119q-59 -119 -184 -119q-90 0 -150 45q-65 49 -65 131q0 79 69 131q63 46 139 46q136 0 195 -105q18 48 84 78q57 27 115 27q80 0 144 -46q73 -52 73 -131zM869 1273q0 61 -59 100q-53 36 -117 36t-117 -36q-59 -40 -59 -100q0 -61 59 -99 q53 -34 119 -34q64 0 115 34q59 38 59 99zM468 1281q0 47 -52.5 87.5t-111.5 40.5q-66 0 -116 -36q-56 -39 -56 -100q0 -62 54 -99q49 -34 120 -34q66 0 116 49q46 44 46 92z" />
<glyph unicode="&#xf7;" d="M952 956q0 -40 -29 -70t-69 -30q-42 0 -70 29t-28 71t28.5 70.5t69.5 28.5t69.5 -28.5t28.5 -70.5zM1452 569h-1198v82h1198v-82zM952 264q0 -41 -28.5 -69.5t-69.5 -28.5t-69.5 28.5t-28.5 69.5q0 42 28 71.5t70 29.5t70 -29t28 -72z" />
<glyph unicode="&#xf8;" horiz-adv-x="1032" d="M1018 535q0 -237 -110 -388q-125 -172 -355 -172q-59 0 -127 11q-5 -10 -14 -37q-15 -41 -62 -43q-24 -3 -76 -8q-27 -5 -49 15.5t-22 49.5q0 17 30 96q-219 137 -219 445q0 252 106 409q123 185 367 185q69 0 134 -13q7 19 14 41q19 45 61 43l88 -4q66 -3 66 -65 q0 -3 -23 -64q-1 -5 -10 -37q201 -153 201 -464zM975 535q0 315 -211 448q39 101 43 117q0 24 -23 24l-88 2q-17 1 -22 -14l-29 -78q-74 23 -158 23q-222 0 -334 -172q-96 -146 -96 -381q0 -306 228 -426l-41 -115q0 -25 26 -22l80 8q18 0 21 14l28 72q71 -19 154 -19 q209 0 322 160q100 140 100 359zM641 524q0 -72 -29 -124q-34 -63 -98 -68l109 278q18 -37 18 -86zM510 676l-111 -299q-30 43 -30 106q0 72 33 127q40 66 106 66h2z" />
<glyph unicode="&#xf9;" horiz-adv-x="1147" d="M1110 16q0 -65 -66 -65h-305q-55 0 -65 51q-91 -65 -213 -65q-229 0 -337 180q-87 145 -87 387q0 90 12 348q4 54 10 172q1 27 22 46t48 17l299 -20q24 -2 44 -22t20 -44q0 3 -3 -165l-4 -332q0 -166 66 -166q92 0 119 78q-4 188 -8 563q-1 64 65 65q104 4 311 9 q68 1 68 -66zM1067 16l-4 971q0 23 -25 23l-311 -9q-23 0 -22 -22l8 -571h-2q-37 -113 -160 -113q-109 0 -109 209q0 -37 7 497q0 24 -23 25l-299 18q-26 2 -27 -22q-20 -553 -20 -518q0 -224 77 -358q97 -166 304 -166q144 0 256 114v-78q0 -24 22 -24h305q23 0 23 24z M839 1245q0 -30 -18 -47l-92 -84q-27 -16 -43 -16q-26 0 -50 18h3l-293 287q-23 22 -23 49q0 29 14 43l146 117q23 18 49 18q34 0 51 -28l-2 2l244 -320l-2 6q16 -19 16 -45zM796 1245q0 6 -4 15l-244 319q-6 8 -16 8q-11 0 -16 -4l-144 -115q-6 -6 -6 -16t8 -18l293 -287 q6 -6 19 -6q10 0 14 4l90 84q6 12 6 16z" />
<glyph unicode="&#xfa;" horiz-adv-x="1147" d="M1110 16q0 -65 -66 -65h-305q-55 0 -65 51q-91 -65 -213 -65q-229 0 -337 180q-87 145 -87 387q0 90 12 348q4 54 10 172q1 27 22 46t48 17l299 -20q24 -2 44 -22t20 -44q0 3 -3 -165l-4 -332q0 -166 66 -166q92 0 119 78q-4 188 -8 563q-1 64 65 65q104 4 311 9 q68 1 68 -66zM1067 16l-4 971q0 23 -25 23l-311 -9q-23 0 -22 -22l8 -571h-2q-37 -113 -160 -113q-109 0 -109 209q0 -37 7 497q0 24 -23 25l-299 18q-26 2 -27 -22q-20 -553 -20 -518q0 -224 77 -358q97 -166 304 -166q144 0 256 114v-78q0 -24 22 -24h305q23 0 23 24z M901 1411q0 -26 -18 -49l-295 -287q-37 -18 -47 -18q-28 0 -45 16l-88 84q-21 19 -21 47q0 21 4 27l262 348q8 10 39 10q29 0 45 -16l138 -113q26 -21 26 -49zM858 1411q0 13 -10 16l-141 115q-2 4 -15 4q-10 0 -18 -8l-242 -319q-2 -4 -2 -15q0 -10 6 -16l90 -84 q3 -4 15 -4q9 0 18 6l293 287q6 12 6 18z" />
<glyph unicode="&#xfb;" horiz-adv-x="1147" d="M1110 16q0 -65 -66 -65h-305q-55 0 -65 51q-91 -65 -213 -65q-229 0 -337 180q-87 145 -87 387q0 90 12 348q4 54 10 172q1 27 22 46t48 17l299 -20q24 -2 44 -22t20 -44q0 3 -3 -165l-4 -332q0 -166 66 -166q92 0 119 78q-4 188 -8 563q-1 64 65 65q104 4 311 9 q68 1 68 -66zM1067 16l-4 971q0 23 -25 23l-311 -9q-23 0 -22 -22l8 -571h-2q-37 -113 -160 -113q-109 0 -109 209q0 -37 7 497q0 24 -23 25l-299 18q-26 2 -27 -22q-20 -553 -20 -518q0 -224 77 -358q97 -166 304 -166q144 0 256 114v-78q0 -24 22 -24h305q23 0 23 24z M1017 1245q0 -16 -65 -121q-5 -5 -4 -4q-29 -39 -62 -39q-16 0 -24 5l-283 192l-268 -180q-8 -4 -27 -4q-34 0 -51 26q-52 59 -70 82q-18 19 -18 45q0 29 18 47v-2l273 285q14 15 43 18q22 1 65 5q77 8 119 8q24 0 47 -19l289 -295q18 -18 18 -49zM974 1245q0 12 -6 19 l-289 295q-6 6 -16 6q10 0 -180 -13q-11 0 -16 -6l-273 -282q-6 -7 -6 -17q0 -8 6 -14l74 -90q6 -6 16 -6q6 0 15 4l280 190l295 -202q8 -5 12 -5q13 0 21 11q67 93 67 110z" />
<glyph unicode="&#xfc;" horiz-adv-x="1147" d="M1110 16q0 -65 -66 -65h-305q-55 0 -65 51q-91 -65 -213 -65q-229 0 -337 180q-87 145 -87 387q0 90 12 348q4 54 10 172q1 27 22 46t48 17l299 -20q24 -2 44 -22t20 -44q0 3 -3 -165l-4 -332q0 -166 66 -166q92 0 119 78q-4 188 -8 563q-1 64 65 65q104 4 311 9 q68 1 68 -66zM1067 16l-4 971q0 23 -25 23l-311 -9q-23 0 -22 -22l8 -571h-2q-37 -113 -160 -113q-109 0 -109 209q0 -37 7 497q0 24 -23 25l-299 18q-26 2 -27 -22q-20 -553 -20 -518q0 -224 77 -358q97 -166 304 -166q144 0 256 114v-78q0 -24 22 -24h305q23 0 23 24z M991 1294q0 -80 -72 -131q-64 -45 -143 -45q-165 0 -205 119q-59 -119 -184 -119q-90 0 -150 45q-65 49 -65 131q0 79 69 131q63 46 139 46q136 0 195 -105q18 48 84 78q57 27 115 27q80 0 144 -46q73 -52 73 -131zM950 1294q0 61 -59 100q-53 36 -117 36t-117 -36 q-59 -40 -59 -100q0 -61 59 -99q53 -34 119 -34q64 0 115 34q59 38 59 99zM549 1302q0 47 -52.5 87.5t-111.5 40.5q-66 0 -116 -36q-56 -39 -56 -100q0 -62 54 -99q49 -34 120 -34q66 0 116 49q46 44 46 92z" />
<glyph unicode="&#xfd;" horiz-adv-x="1128" d="M1092 1057q0 -533 -9 -819q-1 -24 -2 -64q-2 -134 -5 -197q-6 -113 -21 -184q-41 -190 -183 -303t-337 -113q-116 0 -189 29h2q-43 18 -43 59v297q0 66 68 66q22 0 51 -4t43 -4q184 0 184 123v61q-89 -61 -211 -61q-229 0 -337 179q-87 144 -87 384q0 117 15 358 q3 55 8 164q1 68 70 64l299 -19q24 -1 43.5 -21.5t19.5 -43.5l-2 -166l-4 -334q0 -166 65 -166q89 0 117 72l-6 645q0 28 18.5 47t47.5 18l319 -2q66 0 66 -65zM1049 1057q0 22 -23 22l-319 2q-10 0 -16.5 -6.5t-6.5 -15.5l6 -651q-37 -109 -160 -109q-108 0 -108 209 q0 -35 6 500q0 21 -22 22l-300 19q-25 1 -26 -23q-21 -548 -21 -520q0 -222 78 -356q97 -166 303 -166q140 0 252 112q0 -25 1 -76.5t1 -76.5q0 -164 -227 -164q-15 0 -47 4t-47 4q-27 0 -27 -25v-297q0 -13 19 -20q61 -25 170 -25q185 0 313.5 100.5t163.5 280.5 q18 96 28 439q9 269 9 817zM901 1452q0 -26 -18 -49l-295 -287q-37 -18 -47 -18q-28 0 -45 16l-88 84q-21 19 -21 47q0 21 4 27l262 348q8 10 39 10q29 0 45 -16l138 -113q26 -21 26 -49zM858 1452q0 13 -10 16l-141 115q-2 4 -15 4q-10 0 -18 -8l-242 -319q-2 -4 -2 -15 q0 -10 6 -16l90 -84q3 -4 15 -4q9 0 18 6l293 287q6 12 6 18z" />
<glyph unicode="&#xfe;" horiz-adv-x="1180" d="M1141 500q0 -228 -137 -373q-140 -147 -365 -147q-74 0 -129 16q0 -79 2 -232t2 -233q0 -28 -20 -47t-48 -19l-292 9q-24 0 -44.5 20t-21.5 43l-49 1968q-1 65 65 66l334 4q65 1 66 -66l4 -479q14 2 45 2q243 0 411 -142q177 -150 177 -390zM1098 500q0 220 -165 359 q-156 132 -380 132q-52 0 -88 -10l-4 528q0 23 -23 23l-334 -4q-23 0 -22 -23l49 -1966q1 -22 23 -22l292 -9q11 0 19 7t8 16l-4 528q72 -39 170 -39q206 0 334 136q125 134 125 344zM694 440q0 -147 -147 -147q-25 0 -78 12l-2 316q227 0 227 -181zM651 440q0 125 -143 135 q0 -38 1 -118t1 -119q12 -2 37 -2q104 0 104 104z" />
<glyph unicode="&#xff;" horiz-adv-x="1128" d="M969 1348l-41 41l-6 -7q6 -18 6 -34q0 -105 -135 -129l-37 -48q-73 0 -135 38q-70 42 -82 110q-22 -81 -131 -100l-37 -48q-81 0 -147 46q-74 51 -74 131q0 78 75 130q66 46 144 46q128 0 192 -97q64 97 193 97q79 0 143 -46q72 -51 72 -130zM1092 1057q0 -533 -9 -819 q-1 -24 -2 -64q-2 -134 -5 -197q-6 -113 -21 -184q-41 -190 -183 -303t-337 -113q-116 0 -189 29h2q-43 18 -43 59v297q0 66 68 66q22 0 51 -4t43 -4q184 0 184 123v61q-89 -61 -211 -61q-229 0 -337 179q-87 144 -87 384q0 117 15 358q3 55 8 164q1 68 70 64l299 -19 q24 -1 43.5 -21.5t19.5 -43.5l-2 -166l-4 -334q0 -166 65 -166q89 0 117 72l-6 645q0 28 18.5 47t47.5 18l319 -2q66 0 66 -65zM922 1382q-16 46 -68 75q-47 26 -100 26q-64 0 -117 -36q-59 -39 -59 -99q0 -62 59 -100q53 -34 119 -34q14 0 37 5zM541 1389l-6 -7l2 -8 q0 3 4 15zM543 1348h-2q0 9 -4 26v-26q0 -18 2 -29q4 16 4 29zM535 1382q-16 46 -67 75q-47 26 -99 26q-64 0 -117 -36q-59 -39 -59 -99q0 -62 59 -100q53 -34 119 -34q14 0 37 5zM1049 1057q0 22 -23 22l-319 2q-10 0 -16.5 -6.5t-6.5 -15.5l6 -651q-37 -109 -160 -109 q-108 0 -108 209q0 -35 6 500q0 21 -22 22l-300 19q-25 1 -26 -23q-21 -548 -21 -520q0 -222 78 -356q97 -166 303 -166q140 0 252 112q0 -25 1 -76.5t1 -76.5q0 -164 -227 -164q-15 0 -47 4t-47 4q-27 0 -27 -25v-297q0 -13 19 -20q61 -25 170 -25q185 0 313.5 100.5 t163.5 280.5q18 96 28 439q9 269 9 817z" />
<glyph unicode="&#x106;" horiz-adv-x="1317" d="M1274 154q0 -30 -19 -45l2 4q-71 -86 -224 -132q-125 -38 -255 -38q-334 0 -541 191q-214 198 -214 536q0 407 281 623q255 196 679 196q40 0 52 -4q28 -11 34 -49l53 -365q5 -33 -15 -53.5t-52 -20.5q-34 0 -47.5 2t-36.5 2q-193 0 -313 -71q-146 -87 -146 -262 q0 -122 80 -189q75 -63 203 -63q144 0 319 108q14 11 33 11q55 0 65 -56l62 -313v-12zM1231 154v4l-62 315q-3 19 -22 19q-2 0 -14 -7q-174 -110 -338 -110q-147 0 -234 72q-92 78 -92 221q0 198 159 296q132 80 343 80q14 0 41.5 -2t42.5 -2q30 0 26 25l-55 362 q-3 21 -49 21q-402 0 -644 -186q-267 -206 -267 -592q0 -317 202 -505q196 -181 510 -181q122 0 239 35q141 43 208 120q6 7 6 15zM819 1800q0 -26 -18 -49l-295 -287q-37 -18 -47 -18q-28 0 -45 16l-88 84q-21 19 -21 47q0 21 4 27l262 348q8 10 39 10q29 0 45 -16 l138 -113q26 -21 26 -49zM776 1800q0 13 -10 16l-141 115q-2 4 -15 4q-10 0 -18 -8l-242 -319q-2 -4 -2 -15q0 -10 6 -16l90 -84q3 -4 15 -4q9 0 18 6l293 287q6 12 6 18z" />
<glyph unicode="&#x107;" horiz-adv-x="846" d="M836 289l-11 -221q-2 -45 -45 -60q-52 -18 -155 -18q-245 0 -418 121q-197 137 -197 374q0 272 151.5 432t420.5 160q121 0 192 -30h-2q43 -20 43 -60v-321q0 -24 -17.5 -45t-43.5 -21q-11 0 -30 1t-26 1q-32 4 -49 4q-200 0 -200 -141q0 -121 194 -121q21 0 63 6t64 6 q29 0 48 -19.5t18 -47.5zM795 289q1 24 -25 24h-4q-19 0 -60.5 -5t-62.5 -5q-237 0 -237 162q0 184 243 184q18 0 52.5 -4t52.5 -4t18 25v321q0 14 -14 21q-61 26 -176 26q-250 0 -390.5 -148t-140.5 -401q0 -215 184 -341q162 -111 390 -111q95 0 139 16q17 4 18 21z M778 1411q0 -26 -18 -49l-295 -287q-37 -18 -47 -18q-28 0 -45 16l-88 84q-21 19 -21 47q0 21 4 27l262 348q8 10 39 10q29 0 45 -16l138 -113q26 -21 26 -49zM735 1411q0 13 -10 16l-141 115q-2 4 -15 4q-10 0 -18 -8l-242 -319q-2 -4 -2 -15q0 -10 6 -16l90 -84 q3 -4 15 -4q9 0 18 6l293 287q6 12 6 18z" />
<glyph unicode="&#x10c;" horiz-adv-x="1317" d="M1274 154q0 -30 -19 -45l2 4q-71 -86 -224 -132q-125 -38 -255 -38q-334 0 -541 191q-214 198 -214 536q0 407 281 623q255 196 679 196q40 0 52 -4q28 -11 34 -49l53 -365q5 -33 -15 -53.5t-52 -20.5q-34 0 -47.5 2t-36.5 2q-193 0 -313 -71q-146 -87 -146 -262 q0 -122 80 -189q75 -63 203 -63q144 0 319 108q14 11 33 11q55 0 65 -56l62 -313v-12zM1231 154v4l-62 315q-3 19 -22 19q-2 0 -14 -7q-174 -110 -338 -110q-147 0 -234 72q-92 78 -92 221q0 198 159 296q132 80 343 80q14 0 41.5 -2t42.5 -2q30 0 26 25l-55 362 q-3 21 -49 21q-402 0 -644 -186q-267 -206 -267 -592q0 -317 202 -505q196 -181 510 -181q122 0 239 35q141 43 208 120q6 7 6 15zM956 1854q0 -32 -18 -47v2l-272 -283q-25 -20 -43 -20q-24 -2 -66 -6q-76 -9 -119 -9q-25 0 -47 23l-289 295q-18 15 -18 45q0 25 66 121 q2 2 4 2q28 41 61 41q18 0 27 -4l282 -193l269 182q8 5 24 5q38 0 51 -25q35 -37 70 -82q18 -23 18 -47zM913 1854q0 10 -6 16l-71 86q-6 9 -19 9q-4 0 -12 -5l-281 -190l-295 203q-4 2 -14 2q-13 0 -18 -8q-70 -105 -70 -113t6 -14l289 -297q8 -9 16 -9q35 0 91 6 q74 8 89 9q12 0 17 6l272 283q6 6 6 16z" />
<glyph unicode="&#x10d;" horiz-adv-x="846" d="M836 289l-11 -221q-2 -45 -45 -60q-52 -18 -155 -18q-245 0 -418 121q-197 137 -197 374q0 272 151.5 432t420.5 160q121 0 192 -30h-2q43 -20 43 -60v-321q0 -24 -17.5 -45t-43.5 -21q-11 0 -30 1t-26 1q-32 4 -49 4q-200 0 -200 -141q0 -121 194 -121q21 0 63 6t64 6 q29 0 48 -19.5t18 -47.5zM795 289q1 24 -25 24h-4q-19 0 -60.5 -5t-62.5 -5q-237 0 -237 162q0 184 243 184q18 0 52.5 -4t52.5 -4t18 25v321q0 14 -14 21q-61 26 -176 26q-250 0 -390.5 -148t-140.5 -401q0 -215 184 -341q162 -111 390 -111q95 0 139 16q17 4 18 21z M874 1423q0 -32 -18 -47v2l-272 -283q-25 -20 -43 -20q-24 -2 -66 -6q-76 -9 -119 -9q-25 0 -47 23l-289 295q-18 15 -18 45q0 25 66 121q2 2 4 2q28 41 61 41q18 0 27 -4l282 -193l269 182q8 5 24 5q38 0 51 -25q35 -37 70 -82q18 -23 18 -47zM831 1423q0 10 -6 16l-71 86 q-6 9 -19 9q-4 0 -12 -5l-281 -190l-295 203q-4 2 -14 2q-13 0 -18 -8q-70 -105 -70 -113t6 -14l289 -297q8 -9 16 -9q35 0 91 6q74 8 89 9q12 0 17 6l272 283q6 6 6 16z" />
<glyph unicode="&#x111;" horiz-adv-x="1159" d="M1321 1137q0 -66 -66 -66h-129l-61 -1112q-1 -24 -21.5 -42.5t-44.5 -18.5l-292 -2q-26 -1 -46.5 18t-19.5 47l2 59q-55 -12 -119 -12q-221 0 -360 144.5t-139 369.5q0 246 174 396q166 143 413 143q10 0 29 -1t29 -1v12h-152q-29 0 -48 21t-17 49l8 166q1 23 20 43 t43 20h152q4 53 4 80.5t20 46.5t48 19l331 -11q68 -2 66 -69l-2 -66h112q66 0 66 -67v-166zM1278 1137v166q0 24 -23 24h-157l6 111q1 23 -25 24l-331 11q-27 0 -27 -23l-2 -123h-195q-21 0 -22 -22l-8 -166q-2 -25 24 -25h195l-2 -108q-46 14 -99 14q-229 0 -383 -133 q-161 -140 -161 -365q0 -207 126.5 -340t329.5 -133q87 0 162 35l-2 -123q0 -9 6.5 -16t16.5 -6l292 2q22 0 23 20l63 1153h170q23 0 23 23zM700 647l-8 -317q-33 -8 -74 -8q-149 0 -149 145q0 180 231 180zM655 602q-143 -15 -143 -135q0 -102 106 -102h33q4 155 4 237z " />
<glyph unicode="&#x11e;" horiz-adv-x="1319" d="M1276 158q0 -32 -19 -47v2q-71 -82 -227 -127q-129 -37 -260 -37q-333 0 -537 189q-210 196 -210 532q0 407 281 623q255 196 679 196q40 0 52 -4q28 -11 34 -49l53 -365q5 -32 -15 -53t-50 -21q-14 0 -42 2t-42 2q-200 0 -319 -74q-142 -89 -142 -272q0 -247 211 -247 q18 0 63 4q0 61 -2 88q-94 -4 -129 -4q-67 0 -65 67l4 185q0 23 18.5 43t42.5 22q301 21 533 35q64 4 65 -64q2 -77 14 -313q9 -195 9 -311v-2zM1233 158l-21 626q0 22 -24 21l-531 -35q-22 -1 -22 -22l-2 -185q0 -11 6 -18t16 -6l170 2l4 -164q-49 -12 -106 -12 q-254 0 -254 290q0 205 156 306q130 83 348 83q13 0 41 -2t43 -2q28 0 24 25l-55 362q-3 21 -49 21q-402 0 -644 -186q-267 -206 -267 -592q0 -316 198 -501q193 -179 506 -179q122 0 244 35q145 42 213 116q6 7 6 17zM1102 1760q0 -17 -7 -29v2q-49 -105 -155 -167 q-101 -60 -219 -60q-120 0 -231 61q-114 62 -173 164q-10 18 -10 31q0 16 59.5 85.5t75.5 69.5q18 0 43 -12q113 -90 225 -90q105 0 213 80q25 14 41 14q17 0 77.5 -66.5t60.5 -82.5zM1058 1760q0 12 -41 59t-53 47q-10 0 -16 -6q-114 -86 -238 -86q-122 0 -250 96 q-8 6 -18 6q-11 0 -51.5 -51t-40.5 -63q0 -6 4 -13q54 -91 156 -145.5t211 -54.5q105 0 198.5 54t136.5 146q2 5 2 11z" />
<glyph unicode="&#x11f;" horiz-adv-x="1118" d="M1083 799q0 -233 -10 -578q-1 -20 -2 -55q-2 -123 -5 -184q-6 -104 -22 -177q-39 -190 -181.5 -303.5t-338.5 -113.5q-110 0 -186 28q-43 17 -43 62v295q0 65 70 65q15 0 45.5 -4t46.5 -4q184 0 184 123v80q-46 -10 -111 -10q-228 0 -371 143.5t-143 372.5q0 238 167 379 q157 133 399 133q34 0 49 -2v20q0 66 65 66l320 -2q64 -1 65 -68q2 -125 2 -266zM1038 1065q0 27 -22 27h-320q-22 0 -22 -23v-72q-51 11 -92 11q-225 0 -369 -121q-154 -129 -154 -348q0 -211 130.5 -342t340.5 -131q77 0 154 24v-137q0 -164 -227 -164q-16 0 -47 3t-45 3 q-27 0 -27 -22v-295q0 -16 16 -23q61 -24 170 -24q186 0 313 99q131 102 164 284q18 96 29 409q14 411 8 842zM680 342q-33 -4 -49 -4q-168 0 -168 143q0 179 215 183zM637 379l-2 237q-131 -22 -131 -135q0 -102 127 -102h6zM959 1411q0 -17 -7 -29v2q-49 -105 -155 -167 q-101 -60 -219 -60q-120 0 -231 61q-114 62 -173 164q-10 18 -10 31q0 16 59.5 85.5t75.5 69.5q18 0 43 -12q113 -90 225 -90q105 0 213 80q25 14 41 14q17 0 77.5 -66.5t60.5 -82.5zM915 1411q0 12 -41 59t-53 47q-10 0 -16 -6q-114 -86 -238 -86q-122 0 -250 96 q-8 6 -18 6q-11 0 -51.5 -51t-40.5 -63q0 -6 4 -13q54 -91 156 -145.5t211 -54.5q105 0 198.5 54t136.5 146q2 5 2 11z" />
<glyph unicode="&#x130;" horiz-adv-x="551" d="M530 1323l-30 -1286q-1 -23 -22 -44t-44 -22q-79 -2 -348 -6q-29 0 -47.5 18.5t-18.5 47.5l17 1300q1 67 65 66l363 -6q27 -1 46.5 -21.5t18.5 -46.5zM487 1323q1 26 -22 27l-363 4q-22 0 -22 -23l-17 -1300q0 -11 6 -17t17 -6l348 6q22 1 23 23zM512 1642 q0 -80 -72 -131q-64 -45 -143 -45q-81 0 -145 45q-74 51 -74 131q0 79 74 131q65 46 143 46q80 0 145 -46q72 -52 72 -131zM471 1642q0 61 -59 100q-52 36 -117 36q-63 0 -116 -36q-60 -40 -60 -100q0 -61 60 -99q52 -34 118 -34q64 0 116 34q58 38 58 99z" />
<glyph unicode="&#x131;" horiz-adv-x="573" d="M526 836l-20 -795q-1 -25 -21 -45t-45 -21l-317 -2q-28 0 -48 18.5t-20 47.5l15 803q1 64 67 63l324 -4q67 -1 65 -65zM483 836q1 24 -22 24l-324 4q-26 1 -26 -22l-13 -803q0 -23 25 -23h317q24 0 25 25z" />
<glyph unicode="&#x141;" horiz-adv-x="1079" d="M1067 66q0 -66 -68 -66h-895q-64 0 -65 66l-4 428l-55 -23q-10 -3 -20 -3q-50 0 -66 42q-13 31 -93 248q-2 8 -2 16q0 48 39 64l195 80q0 68 -2 205.5t-2 205.5q0 65 65 66q61 0 181.5 3.5t179.5 4.5q65 1 65 -66v-221l68 27q11 5 23 5q48 0 65 -46l-2 2l50 -125l50 -125 q2 -8 2 -17q0 -49 -43 -63l2 2q-40 -15 -106.5 -42.5l-106.5 -43.5v-297h477q68 0 68 -65v-262zM1024 66v262q0 22 -25 22h-518v369l238 96q21 8 14 31l-98 244q-10 24 -31 12l-125 -49v284q0 23 -24 23l-361 -8q-23 -1 -22 -23l4 -440l-221 -90q-22 -5 -13 -29l90 -246 q8 -21 31 -16l115 47l4 -489q0 -23 22 -23h895q25 0 25 23z" />
<glyph unicode="&#x142;" horiz-adv-x="530" d="M764 858q3 -9 3 -19q0 -50 -44 -65l2 2l-219 -90l-6 -577q0 -23 -20.5 -44t-43.5 -22q-154 -7 -334 -12q-26 -1 -46.5 18t-20.5 47v400q-65 -30 -84 -30q-46 0 -68 44l-90 248q-2 7 -2 16q0 47 39 64l203 82v477q0 65 65 65h348q67 0 66 -65l-4 -285l35.5 14.5l36.5 14.5 h-5q12 5 25 5q49 0 66 -44l-2 2zM723 846l-98 244q-9 21 -31 12l-129 -51l4 346q0 22 -23 22h-348q-24 0 -24 -22v-504l-230 -94q-19 -5 -10 -29l90 -246q8 -20 31 -16l121 51v-463q0 -23 24 -22l334 10q25 1 25 25l4 606l248 100q19 8 12 31z" />
<glyph unicode="&#x152;" horiz-adv-x="2079" d="M2013 31q0 -66 -65 -66h-934q-120 -47 -236 -47q-334 0 -526 205q-186 200 -186 539q0 329 194 546q203 228 531 228q75 0 219 -37h938q65 0 65 -66v-262q0 -65 -65 -65h-486q0 -22 -1 -63.5t-1 -70.5h379q66 0 66 -65v-264q0 -66 -66 -66h-383q0 -12 -1 -52.5t-1 -64.5 h494q65 0 65 -65v-264zM1970 31v264q0 22 -22 22h-535v203h426q25 0 25 23v264q0 24 -25 24h-422l2 218h529q22 0 22 22v262q0 23 -22 23h-947q-121 37 -210 37q-308 0 -499 -215q-183 -207 -183 -516q0 -319 175 -507q179 -194 494 -194q112 0 226 47h944q22 0 22 23z M1010 641q0 -119 -66 -213q-73 -106 -188 -106t-189 106q-65 94 -65 213q0 121 65 215q74 107 189 107t188 -107q66 -94 66 -215zM967 641q0 104 -55 187q-62 94 -156 94q-96 0 -157 -94q-54 -83 -54 -187t54 -185q61 -91 157 -91q95 0 156 91q55 82 55 185z" />
<glyph unicode="&#x153;" horiz-adv-x="1622" d="M1571 59q4 -55 -130 -88q-96 -24 -165 -24q-227 0 -387 112q-120 -108 -299 -108q-250 0 -394.5 139.5t-144.5 386.5q0 254 105 411q124 185 368 185q173 0 295 -78q136 168 324 168q211 0 321 -139q101 -126 101 -340q0 -183 -70 -283q-22 -31 -55 -30l-363 12 q47 -109 176 -109q95 0 207 41q10 9 31 9q23 0 43.5 -19t21.5 -43zM1528 55l-15 205q-1 21 -22 21q-6 0 -8 -2q-127 -48 -230 -48q-196 0 -233 197l420 -16q10 -1 20 14q62 90 62 258q0 195 -90 311q-99 127 -289 127q-188 0 -316 -184q-123 92 -303 92q-222 0 -335 -171 q-95 -145 -95 -382q0 -228 133 -356.5t363 -128.5q181 0 295 123q156 -127 391 -127q58 0 140 14q114 21 112 53zM1274 707q3 -18 -4 -68q-9 -53 -19 -53l-235 -8q20 229 162 229q92 0 96 -100zM678 500q0 -76 -31 -129q-38 -64 -108 -64q-133 0 -133 152q0 70 33 126 q40 66 106 66q63 0 99 -45q34 -41 34 -106zM1251 629q-9 29 -20 71v5q0 61 -53 61q-85 0 -115 -145q32 1 94.5 4t93.5 4zM635 500q0 108 -90 108q-47 0 -74 -51q-22 -43 -22 -98q0 -111 90 -111q49 0 75 51q21 42 21 101z" />
<glyph unicode="&#x15e;" horiz-adv-x="1288" d="M1245 1126q0 -31 -16 -45l2 4l-223 -260q-21 -24 -52 -24q-27 0 -43 18l7 -4q-179 129 -320 129q-47 0 -47 -16q0 -11 162 -70h-2q237 -87 341 -162q181 -131 181 -327q0 -403 -496 -451q-2 -6 -8 -18q133 -26 214 -102q93 -87 93 -220q0 -152 -116 -245 q-107 -85 -260 -85q-158 0 -287.5 88t-202.5 238q0 4 -1 8.5t-1 7.5q0 27 20 46.5t46 19.5t43 -16q187 -105 288 -105q95 0 95 88q0 99 -230 107q-26 1 -45.5 20.5t-19.5 44.5t71 146q-245 64 -381 231l2 -4q-18 18 -18 45q0 29 18 47v-2l222 250q20 22 51 22q20 0 61 -26 q182 -117 283 -117q59 0 59 25q0 16 -162 65q-236 71 -340 146q-180 128 -180 348q0 196 217 333q189 119 389 119q156 0 313 -67q165 -71 259 -187l-2 5q16 -17 16 -48zM1204 1126q0 11 -6 17q-89 108 -243 175q-149 64 -296 64q-187 0 -363 -109q-200 -124 -200 -302 q0 -203 177 -322q95 -64 328 -136q177 -54 177 -101q0 -68 -102 -68q-91 0 -222.5 71.5t-121.5 71.5q-15 0 -21 -8l-221 -250q-6 -7 -6 -16q0 -8 6 -14q149 -181 416 -230q-98 -168 -98 -174q0 -21 24 -22q273 -11 273 -150q0 -129 -138 -129q-116 0 -319 115q-4 4 -12 4 q-23 0 -23 -23q0 -2 1 -5t1 -5q66 -133 183.5 -211t263.5 -78q137 0 231 74q102 80 102 213q0 128 -101 207q-89 70 -224 80q3 6 39 94q483 36 483 410q0 179 -177 302q-96 66 -328 151q-177 65 -177 106q0 59 90 59q154 0 344 -137q6 -6 12 -6q13 0 19 8l223 260q6 7 6 14z " />
<glyph unicode="&#x15f;" horiz-adv-x="1006" d="M991 903q0 -23 -61 -96l-101 -117q-23 -28 -28 -35q-16 -18 -47 -18q-15 5 -52 25q-142 88 -233 88q-33 0 -33 -7q0 -1 127 -47q190 -68 277 -132q145 -108 145 -271q0 -319 -387 -363l-12 -30q133 -26 215 -102q94 -87 94 -220q0 -152 -115 -245q-107 -85 -262 -85 q-157 0 -286.5 88t-202.5 238v16q0 27 20 46.5t45 19.5t41 -16q192 -105 289 -105q94 0 94 88q0 99 -227 107q-28 1 -48 20.5t-20 44.5q0 29 80 158q-174 52 -274 172l2 -4q-17 19 -17 49q0 26 15 43l172 195l-2 -7q17 27 53 27q17 0 57 -25q148 -90 219 -90q41 0 41 17 q0 7 -125 45q-192 59 -277 120q-144 104 -144 283q0 163 174 275q152 98 321 98q123 0 250 -56q132 -57 207 -149v4q16 -19 16 -47zM948 903q0 9 -6 17q-71 84 -193 137q-118 51 -231 51q-154 0 -294 -87q-161 -98 -161 -243q0 -162 143 -257q76 -51 264 -109 q142 -43 142 -82q0 -58 -84 -58q-72 0 -177 56.5t-99 56.5q-13 0 -19 -8l-172 -193q-4 -8 -4 -14q0 -10 4 -18q109 -127 308 -172q-105 -176 -105 -185q0 -21 27 -22q270 -11 270 -150q0 -129 -137 -129q-117 0 -320 115q-4 4 -10 4q-24 0 -24 -23q0 -2 1 -5t1 -5 q65 -133 181 -210q120 -79 265 -79q137 0 232 74q102 80 102 213q0 128 -101 207q-90 70 -225 80q2 3 43 104q373 28 373 324q0 146 -142 245q-77 53 -264 120q-143 52 -143 85q0 50 76 50q85 0 189 -56.5t96 -56.5q13 0 18 8q176 211 176 215z" />
<glyph unicode="&#x160;" horiz-adv-x="1288" d="M1245 1126q0 -31 -16 -45l2 4l-223 -260q-21 -24 -52 -24q-27 0 -43 18l7 -4q-179 129 -320 129q-47 0 -47 -16q0 -11 162 -70h-2q237 -87 341 -162q181 -131 181 -327q0 -453 -610 -453q-152 0 -310 70q-163 71 -258 186l2 -4q-18 18 -18 45q0 29 18 47v-2l222 250 q20 22 51 22q20 0 61 -26q182 -117 283 -117q59 0 59 25q0 16 -162 65q-236 71 -340 146q-180 128 -180 348q0 196 217 333q189 119 389 119q156 0 313 -67q165 -71 259 -187l-2 5q16 -17 16 -48zM1204 1126q0 11 -6 17q-89 108 -243 175q-149 64 -296 64q-187 0 -363 -109 q-200 -124 -200 -302q0 -203 177 -322q95 -64 328 -136q177 -54 177 -101q0 -68 -102 -68q-91 0 -222.5 71.5t-121.5 71.5q-15 0 -21 -8l-221 -250q-6 -7 -6 -16q0 -8 6 -14q89 -109 242 -176q148 -66 293 -66q567 0 567 412q0 179 -177 302q-96 66 -328 151 q-177 65 -177 106q0 59 90 59q154 0 344 -137q6 -6 12 -6q13 0 19 8l223 260q6 7 6 14zM1079 1854q0 -32 -18 -47v2l-272 -283q-25 -20 -43 -20q-24 -2 -66 -6q-76 -9 -119 -9q-25 0 -47 23l-289 295q-18 15 -18 45q0 25 66 121q2 2 4 2q28 41 61 41q18 0 27 -4l282 -193 l269 182q8 5 24 5q38 0 51 -25q35 -37 70 -82q18 -23 18 -47zM1036 1854q0 10 -6 16l-71 86q-6 9 -19 9q-4 0 -12 -5l-281 -190l-295 203q-4 2 -14 2q-13 0 -18 -8q-70 -105 -70 -113t6 -14l289 -297q8 -9 16 -9q35 0 91 6q74 8 89 9q12 0 17 6l272 283q6 6 6 16z" />
<glyph unicode="&#x161;" horiz-adv-x="1006" d="M991 903q0 -23 -61 -96l-101 -117q-23 -28 -28 -35q-16 -18 -47 -18q-15 5 -52 25q-142 88 -233 88q-33 0 -33 -7q0 -1 127 -47q190 -68 277 -132q145 -108 145 -271q0 -371 -498 -371q-120 0 -248 55q-134 57 -210 148l2 -4q-17 19 -17 49q0 26 15 43l172 195l-2 -7 q17 27 53 27q17 0 57 -25q148 -90 219 -90q41 0 41 17q0 7 -125 45q-192 59 -277 120q-144 104 -144 283q0 163 174 275q152 98 321 98q123 0 250 -56q132 -57 207 -149v4q16 -19 16 -47zM948 903q0 9 -6 17q-71 84 -193 137q-118 51 -231 51q-154 0 -294 -87 q-161 -98 -161 -243q0 -162 143 -257q76 -51 264 -109q142 -43 142 -82q0 -58 -84 -58q-72 0 -177 56.5t-99 56.5q-13 0 -19 -8l-172 -193q-4 -8 -4 -14q0 -10 4 -18q72 -84 196 -137q118 -50 230 -50q455 0 455 328q0 146 -142 245q-77 53 -264 120q-143 52 -143 85 q0 50 76 50q85 0 189 -56.5t96 -56.5q13 0 18 8q176 211 176 215zM936 1546q0 -32 -18 -47v2l-272 -283q-25 -20 -43 -20q-24 -2 -66 -6q-76 -9 -119 -9q-25 0 -47 23l-289 295q-18 15 -18 45q0 25 66 121q2 2 4 2q28 41 61 41q18 0 27 -4l282 -193l269 182q8 5 24 5 q38 0 51 -25q35 -37 70 -82q18 -23 18 -47zM893 1546q0 10 -6 16l-71 86q-6 9 -19 9q-4 0 -12 -5l-281 -190l-295 203q-4 2 -14 2q-13 0 -18 -8q-70 -105 -70 -113t6 -14l289 -297q8 -9 16 -9q35 0 91 6q74 8 89 9q12 0 17 6l272 283q6 6 6 16z" />
<glyph unicode="&#x178;" horiz-adv-x="1348" d="M1333 1266q0 -25 -422 -881l7 -367q0 -26 -20.5 -45.5t-45.5 -19.5l-387 -6q-66 -1 -66 65v377q-8 21 -30 72l-216 471q-139 306 -139 340q0 66 66 65l387 -6q49 -1 63 -45l134 -422l155 424q16 43 60 43h389q65 0 65 -65zM1290 1266q0 22 -22 22h-389q-18 0 -23 -14 l-194 -543l-170 543q-5 14 -25 14l-387 6q-23 1 -23 -22l385 -873v-387q0 -25 23 -24l387 8q23 0 22 22l-6 381q422 844 422 867zM1086 1521q0 -80 -72 -131q-64 -45 -143 -45q-165 0 -205 119q-59 -119 -184 -119q-90 0 -150 45q-65 49 -65 131q0 79 69 131q63 46 139 46 q136 0 195 -105q18 48 84 78q57 27 115 27q80 0 144 -46q73 -52 73 -131zM1045 1521q0 61 -59 100q-53 36 -117 36t-117 -36q-59 -40 -59 -100q0 -61 59 -99q53 -34 119 -34q64 0 115 34q59 38 59 99zM644 1529q0 47 -52.5 87.5t-111.5 40.5q-66 0 -116 -36 q-56 -39 -56 -100q0 -62 54 -99q49 -34 120 -34q66 0 116 49q46 44 46 92z" />
<glyph unicode="&#x17d;" horiz-adv-x="1251" d="M1210 6q0 -66 -67 -65l-1026 12q-25 0 -45 20.5t-21 44.5q-4 114 -10 342q0 23 20 48l527 499l-471 13q-25 0 -45 20.5t-21 44.5q-4 108 -10 324q0 28 20 46.5t45 18.5l1039 2q65 0 65 -65v-363q0 -24 -18 -47l-520 -493q76 0 236.5 1t236.5 1q65 0 65 -66v-338zM1167 6 v338q0 25 -22 25l-580 -2l596 565q6 12 6 16v363q0 22 -22 22l-1039 -2q-23 0 -22 -22l8 -324q1 -24 25 -24l573 -13l-600 -573q-6 -3 -6 -15l8 -342q1 -22 25 -22l1026 -12q24 -1 24 22zM1058 1813q0 -32 -18 -47v2l-272 -283q-25 -20 -43 -20q-24 -2 -66 -6 q-76 -9 -119 -9q-25 0 -47 23l-289 295q-18 15 -18 45q0 25 66 121q2 2 4 2q28 41 61 41q18 0 27 -4l282 -193l269 182q8 5 24 5q38 0 51 -25q35 -37 70 -82q18 -23 18 -47zM1015 1813q0 10 -6 16l-71 86q-6 9 -19 9q-4 0 -12 -5l-281 -190l-295 203q-4 2 -14 2 q-13 0 -18 -8q-70 -105 -70 -113t6 -14l289 -297q8 -9 16 -9q35 0 91 6q74 8 89 9q12 0 17 6l272 283q6 6 6 16z" />
<glyph unicode="&#x17e;" horiz-adv-x="1083" d="M1047 39q0 -66 -66 -66l-872 11q-25 0 -45.5 20.5t-20.5 44.5q0 14 -4 98t-4 154q0 36 24 49l428 371q-55 1 -210 5q-130 3 -168 3q-25 0 -45.5 20.5t-20.5 45.5q0 39 -4 117.5t-4 117.5q0 66 65 66l881 2q66 0 66 -66v-268q0 -36 -23 -51l-426 -365q254 4 383 4 q66 0 66 -67v-246zM1006 39v246q0 24 -25 24l-496 -2l512 438q9 6 9 19v268q0 25 -25 25l-881 -2q-22 0 -22 -25q0 -44 3 -118q4 -88 5 -117q1 -25 23 -25l491 -8l-514 -445q-8 -5 -8 -16q0 -48 3 -127q4 -93 5 -125q1 -24 23 -24l872 -9q25 0 25 23zM976 1526 q0 -32 -18 -47v2l-272 -283q-25 -20 -43 -20q-24 -2 -66 -6q-76 -9 -119 -9q-25 0 -47 23l-289 295q-18 15 -18 45q0 25 66 121q2 2 4 2q28 41 61 41q18 0 27 -4l282 -193l269 182q8 5 24 5q38 0 51 -25q35 -37 70 -82q18 -23 18 -47zM933 1526q0 10 -6 16l-71 86 q-6 9 -19 9q-4 0 -12 -5l-281 -190l-295 203q-4 2 -14 2q-13 0 -18 -8q-70 -105 -70 -113t6 -14l289 -297q8 -9 16 -9q35 0 91 6q74 8 89 9q12 0 17 6l272 283q6 6 6 16z" />
<glyph unicode="&#x192;" horiz-adv-x="1503" d="M1454 1341l-49 -282q-10 -55 -66 -55q-22 0 -48.5 4t-45.5 4q-176 0 -205 -123q-22 -97 -36 -189q126 -4 192 -4q28 0 47 -22.5t19 -50.5l-23 -250q-12 -61 -65 -60l-242 4l-109 -557q-38 -187 -219 -297q-162 -98 -362 -98q-108 0 -154 21h2q-41 19 -41 73l49 283 q10 53 66 53q15 0 45.5 -3t46.5 -3q179 0 205 121l28 135h-2q20 83 54 277q-17 0 -52.5 1t-54.5 1q-26 0 -46 18.5t-19 46.5l6 256q1 67 65 66l172 -4l66 331q38 189 220 300q162 98 364 98q98 0 151 -21h-2q43 -18 43 -74zM1413 1352q0 17 -18 24q-41 17 -133 17 q-188 0 -338 -90q-169 -100 -203 -273l-72 -364l-209 2q-24 0 -24 -23l-6 -256q-1 -22 24 -22l158 -2q-13 -95 -90 -463q-33 -156 -246 -156q-17 0 -47.5 4t-44.5 4q-19 0 -23 -20l-51 -289q0 -13 16 -20q41 -19 136 -19q186 0 336 90q168 101 202 273l117 591l277 -4 q18 0 22 21l25 250q0 26 -25 26l-242 4q12 91 45 240q36 158 246 158q17 0 49 -4t45 -4q20 0 23 18z" />
<glyph unicode="&#x2c6;" horiz-adv-x="1040" d="M956 1163q0 -16 -65 -121q-5 -5 -4 -4q-29 -39 -62 -39q-16 0 -24 5l-283 192l-268 -180q-8 -4 -27 -4q-34 0 -51 26q-52 59 -70 82q-18 19 -18 45q0 29 18 47v-2l273 285q14 15 43 18q22 1 65 5q77 8 119 8q24 0 47 -19l289 -295q18 -18 18 -49zM913 1163q0 12 -6 19 l-289 295q-6 6 -16 6q10 0 -180 -13q-11 0 -16 -6l-273 -282q-6 -7 -6 -17q0 -8 6 -14l74 -90q6 -6 16 -6q6 0 15 4l280 190l295 -202q8 -5 12 -5q13 0 21 11q67 93 67 110z" />
<glyph unicode="&#x2c7;" horiz-adv-x="1040" d="M956 1362q0 -32 -18 -47v2l-272 -283q-25 -20 -43 -20q-24 -2 -66 -6q-76 -9 -119 -9q-25 0 -47 23l-289 295q-18 15 -18 45q0 25 66 121q2 2 4 2q28 41 61 41q18 0 27 -4l282 -193l269 182q8 5 24 5q38 0 51 -25q35 -37 70 -82q18 -23 18 -47zM913 1362q0 10 -6 16 l-71 86q-6 9 -19 9q-4 0 -12 -5l-281 -190l-295 203q-4 2 -14 2q-13 0 -18 -8q-70 -105 -70 -113t6 -14l289 -297q8 -9 16 -9q35 0 91 6q74 8 89 9q12 0 17 6l272 283q6 6 6 16z" />
<glyph unicode="&#x2d8;" horiz-adv-x="1040" d="M918 1268q0 -17 -7 -29v2q-49 -105 -155 -167q-101 -60 -219 -60q-120 0 -231 61q-114 62 -173 164q-10 18 -10 31q0 16 59.5 85.5t75.5 69.5q18 0 43 -12q113 -90 225 -90q105 0 213 80q25 14 41 14q17 0 77.5 -66.5t60.5 -82.5zM874 1268q0 12 -41 59t-53 47 q-10 0 -16 -6q-114 -86 -238 -86q-122 0 -250 96q-8 6 -18 6q-11 0 -51.5 -51t-40.5 -63q0 -6 4 -13q54 -91 156 -145.5t211 -54.5q105 0 198.5 54t136.5 146q2 5 2 11z" />
<glyph unicode="&#x2d9;" horiz-adv-x="1040" d="M737 1212q0 -80 -72 -131q-64 -45 -143 -45q-81 0 -145 45q-74 51 -74 131q0 79 74 131q65 46 143 46q80 0 145 -46q72 -52 72 -131zM696 1212q0 61 -59 100q-52 36 -117 36q-63 0 -116 -36q-60 -40 -60 -100q0 -61 60 -99q52 -34 118 -34q64 0 116 34q58 38 58 99z" />
<glyph unicode="&#x2da;" horiz-adv-x="1040" d="M805 1231q0 -110 -90 -182q-84 -66 -195 -66t-194 66q-90 72 -90 182t90 183q84 69 194 69q111 0 195 -69q90 -73 90 -183zM764 1231q0 91 -78 152q-73 57 -166 57t-165 -57q-79 -61 -79 -152t79 -150q71 -55 165 -55t166 55q78 59 78 150zM610 1231q0 -30 -28.5 -48 t-61.5 -18t-59 17q-31 19 -31 49q0 65 90 65t90 -65zM569 1231q0 24 -49 24t-49 -24q0 -23 49 -23t49 23z" />
<glyph unicode="&#x2db;" horiz-adv-x="1040" d="M977 -317q0 -13 -19 -50q-77 -71 -206 -117q-124 -44 -232 -44q-188 0 -313 87q-144 100 -144 283q0 150 58 250q23 41 63 37l142 -12q59 -5 59 -66q0 -15 -10 -39q-15 -64 -15 -59q0 -68 82 -102q63 -27 148 -27q111 0 260 65h-2q12 7 31 7q54 0 63 -52l-2 2 q37 -159 37 -163zM934 -317q0 26 -35 153q-3 17 -20 17h-13q-149 -70 -276 -70q-101 0 -176 35q-97 46 -97 135q0 24 12.5 60t12.5 38q0 23 -23 25l-139 10q-14 1 -22 -14q-52 -97 -52 -230q0 -162 131 -250q113 -77 283 -77q101 0 215 40q121 42 193 107q6 19 6 21z" />
<glyph unicode="&#x2dc;" horiz-adv-x="1040" d="M885 1122q0 -43 -74 -68q-56 -20 -111 -20q-82 0 -215 43h2q-134 39 -184 39q-11 -2 -36 -6t-44 -4q-28 0 -48.5 19.5t-18.5 48.5l12 206q0 43 75 68q56 18 111 18q76 0 201 -39h-2q139 -34 174 -34q24 0 39 6h-2q27 8 53 8q68 0 68 -66v-219zM842 1122v219q0 23 -25 23 q-12 0 -42.5 -6t-47.5 -6q-63 0 -185.5 35.5t-187.5 35.5q-141 0 -143 -43l-12 -209q-2 -22 24 -22q12 0 39.5 4t40.5 4q67 0 197 -40t200 -40q142 0 142 45z" />
<glyph unicode="&#x2dd;" horiz-adv-x="1040" d="M952 1370q0 -35 -24 -51l-146.5 -142.5l-146.5 -142.5h2q-19 -18 -45 -18q-28 0 -47 16h2l-90 84q-21 19 -21 47v17l-147 -146h2q-23 -18 -47 -18q-28 0 -47 16h2l-88 84q-23 20 -23 47q0 29 16 45l-2 -6l242 320l-2 -2q17 28 55 28q27 0 43 -16l138 -113q11 -8 18 -24 l96 125q15 28 53 28q26 0 45.5 -16.5l137.5 -112.5q24 -20 24 -49zM909 1370q0 13 -10 16l-139 115q-4 4 -15 4q-12 0 -18 -8l-244 -319q-6 -7 -6 -15t8 -16l90 -84q5 -4 17 -4q8 0 14 6l295 287q8 5 8 18zM561 1370q0 13 -10 16l-141 115q-4 4 -13 4q-14 0 -20 -8 l-242 -319q-4 -4 -4 -15q0 -8 8 -16l88 -84q5 -4 17 -4q10 0 16 6l293 287q8 5 8 18z" />
<glyph unicode="&#x394;" horiz-adv-x="1335" d="M1346 0h-1358l594 1473h172zM1155 121l-487 1233l-490 -1233h977z" />
<glyph unicode="&#x2206;" horiz-adv-x="1335" d="M1346 0h-1358l594 1473h172zM1155 121l-487 1233l-490 -1233h977z" />
<glyph unicode="&#x3a9;" horiz-adv-x="1585" d="M1456 786q0 -208 -87.5 -370t-272.5 -295h356v-121h-573v102q438 274 438 684q0 271 -145.5 439t-378.5 168q-231 0 -378 -169t-147 -438q0 -204 110.5 -376.5t328.5 -307.5v-102h-572v121h354q-185 133 -272.5 295t-87.5 370q0 306 177 511q186 216 487 216 q300 0 486 -216q177 -205 177 -511z" />
<glyph unicode="&#x2126;" horiz-adv-x="1585" d="M1456 786q0 -208 -87.5 -370t-272.5 -295h356v-121h-573v102q438 274 438 684q0 271 -145.5 439t-378.5 168q-231 0 -378 -169t-147 -438q0 -204 110.5 -376.5t328.5 -307.5v-102h-572v121h354q-185 133 -272.5 295t-87.5 370q0 306 177 511q186 216 487 216 q300 0 486 -216q177 -205 177 -511z" />
<glyph unicode="&#x3c0;" horiz-adv-x="1155" d="M1126 1063l-24 -105h-182l-119 -565q-29 -136 -29 -188q0 -107 109 -107q51 0 92 11l-25 -109q-28 -9 -51 -12q-27 -4 -45 -4q-92 0 -145.5 55t-53.5 147q0 56 11 123q6 43 45 228l88 421h-381l-203 -958h-121l201 958h-39q-106 0 -127 -133h-121q26 139 87.5 188.5 t203.5 49.5h829z" />
<glyph unicode="&#x2000;" horiz-adv-x="1009" />
<glyph unicode="&#x2001;" horiz-adv-x="2019" />
<glyph unicode="&#x2002;" horiz-adv-x="1009" />
<glyph unicode="&#x2003;" horiz-adv-x="2019" />
<glyph unicode="&#x2004;" horiz-adv-x="673" />
<glyph unicode="&#x2005;" horiz-adv-x="504" />
<glyph unicode="&#x2006;" horiz-adv-x="336" />
<glyph unicode="&#x2007;" horiz-adv-x="336" />
<glyph unicode="&#x2008;" horiz-adv-x="252" />
<glyph unicode="&#x2009;" horiz-adv-x="403" />
<glyph unicode="&#x200a;" horiz-adv-x="112" />
<glyph unicode="&#x2010;" horiz-adv-x="819" d="M754 373q0 -66 -66 -66h-557q-65 0 -65 68l6 260q0 25 20.5 45t44.5 20h551q66 0 66 -65v-262zM713 373v262q0 24 -25 24h-551q-22 0 -22 -24l-9 -260q0 -27 25 -27h557q25 0 25 25z" />
<glyph unicode="&#x2011;" horiz-adv-x="819" d="M754 373q0 -66 -66 -66h-557q-65 0 -65 68l6 260q0 25 20.5 45t44.5 20h551q66 0 66 -65v-262zM713 373v262q0 24 -25 24h-551q-22 0 -22 -24l-9 -260q0 -27 25 -27h557q25 0 25 25z" />
<glyph unicode="&#x2012;" horiz-adv-x="819" d="M754 373q0 -66 -66 -66h-557q-65 0 -65 68l6 260q0 25 20.5 45t44.5 20h551q66 0 66 -65v-262zM713 373v262q0 24 -25 24h-551q-22 0 -22 -24l-9 -260q0 -27 25 -27h557q25 0 25 25z" />
<glyph unicode="&#x2013;" horiz-adv-x="1024" d="M958 373q0 -66 -65 -66h-762q-65 0 -65 68l6 260q0 25 20.5 45t44.5 20h756q65 0 65 -65v-262zM918 373v262q0 24 -25 24h-756q-22 0 -22 -24l-9 -260q0 -27 25 -27h762q25 0 25 25z" />
<glyph unicode="&#x2014;" horiz-adv-x="2048" d="M2028 373q0 -66 -66 -66h-1876q-66 0 -66 68l9 260q0 25 20.5 45t44.5 20h1868q66 0 66 -65v-262zM1985 373v262q0 24 -23 24h-1868q-22 0 -22 -24l-9 -260q0 -27 23 -27h1876q23 0 23 25z" />
<glyph unicode="&#x2018;" horiz-adv-x="580" d="M555 1042q0 -85 -98 -134q-78 -40 -164 -40q-90 0 -170 43q-100 54 -98 146q2 189 280 291q9 2 14 2q66 0 66 -66q0 -2 -12 -37q-4 -9 -11 -28q193 -43 193 -172v-5zM512 1042v5q0 60 -71 100q-57 31 -126 37v12q0 24 13.5 54t13.5 34q0 23 -23 23q-2 -1 -3.5 -1.5 t-4.5 -0.5q-243 -93 -243 -250v-6q0 -66 83 -106q67 -32 142 -32q74 0 138 30q81 37 81 101z" />
<glyph unicode="&#x2019;" horiz-adv-x="580" d="M555 1161q0 -193 -283 -293q-5 -1 -12 -2q-65 0 -65 68q0 -3 18 57q4 8 4 6q-194 43 -192 177q0 84 99 134q78 40 165 40q88 0 167 -42q99 -52 99 -139v-6zM512 1163v4q0 66 -82 106q-67 32 -141 32t-139 -30q-82 -37 -82 -101v-5q0 -60 71 -99q56 -30 125 -36v-14 q0 -24 -13 -53t-13 -33q0 -25 22 -25q3 1 5.5 1.5t4.5 0.5q242 90 242 252z" />
<glyph unicode="&#x201a;" horiz-adv-x="573" d="M553 123q0 -189 -264 -293q-13 -8 -31 -8q-65 0 -65 65q0 9 12 37q3 9 8 29q-194 42 -193 176q1 85 100 136q79 40 165 40q88 0 168 -42q100 -52 100 -140zM510 123q0 67 -84 107q-66 32 -141 32q-74 0 -139 -30q-83 -38 -83 -103v-4q0 -61 72 -100q56 -31 125 -37v-13 q0 -23 -12 -53.5t-12 -34.5q0 -22 22 -22q2 0 4 0.5t4 1.5q244 89 244 256z" />
<glyph unicode="&#x201c;" horiz-adv-x="1118" d="M1077 1042q0 -84 -99 -134q-78 -40 -165 -40q-69 0 -138 29q-85 35 -114 96q-26 -62 -113 -97q-69 -28 -139 -28q-90 0 -169 43q-100 54 -99 146q3 188 278 291q16 2 17 2q65 0 65 -66q0 -10 -12 -37q-10 -22 -10 -28q131 -30 174 -111q41 155 274 240q14 2 15 2 q65 0 65 -66q0 -1 -10 -37q-5 -9 -12 -28q192 -43 192 -172v-5zM1034 1042v5q0 60 -71 100q-57 31 -125 37v12q0 24 14 54t14 34q0 23 -24 23l-6 -2q-246 -82 -246 -250v-6q0 -66 83 -106q67 -32 140 -32q74 0 139 30q82 37 82 101zM528 1042v5q0 60 -71 100q-56 31 -125 37 v12q0 24 13 54t13 34q0 23 -22 23q-2 -1 -4 -1.5t-4 -0.5q-244 -91 -244 -250v-6q0 -66 83 -106q68 -32 142 -32q73 0 137 30q82 37 82 101z" />
<glyph unicode="&#x201d;" horiz-adv-x="1118" d="M1077 1161q0 -189 -278 -293l-17 -2q-65 0 -65 68q0 4 20 57q2 8 2 6q-129 29 -176 111q-39 -159 -274 -240q-3 0 -6.5 -0.5t-6.5 -1.5q-65 0 -65 68q0 9 18 57q4 8 4 6q-193 43 -192 177q1 84 99 134q79 40 165 40q70 0 139 -29q85 -35 113 -96q28 61 113 96 q69 29 139 29q89 0 169 -42q99 -52 99 -139v-6zM1034 1163v4q0 66 -83 106q-67 32 -142 32q-73 0 -137 -30q-82 -37 -82 -101v-5q0 -60 71 -99q56 -30 125 -36v-14q0 -24 -13 -53t-13 -33q0 -25 22 -25l4.5 1.5t4.5 0.5q243 91 243 252zM528 1163v4q0 66 -83 106 q-67 32 -140 32q-74 0 -139 -30q-82 -37 -82 -101v-5q0 -60 71 -99q56 -30 126 -36v-14q0 -24 -14.5 -53t-14.5 -33q0 -25 24 -25l4.5 1.5t4.5 0.5q243 89 243 252z" />
<glyph unicode="&#x201e;" horiz-adv-x="1106" d="M1069 123q0 -189 -264 -293q-12 -8 -31 -8q-65 0 -65 65q0 10 12 37q8 18 10 29q-127 29 -172 100q-43 -140 -254 -223q-12 -8 -31 -8q-65 0 -65 65q0 15 10 37q8 18 10 29q-193 42 -192 176q1 85 99 136q78 40 165 40q68 0 136 -27q83 -33 114 -92q30 59 115 92 q68 27 135 27q90 0 169 -42q99 -52 99 -140zM1026 123q0 67 -83 107q-67 32 -142 32q-72 0 -138 -30q-83 -39 -83 -103v-4q0 -61 71 -100q56 -31 125 -37v-13q0 -23 -12 -53.5t-12 -34.5q0 -22 22 -22q2 0 4 0.5t4 1.5q244 89 244 256zM526 123q0 67 -84 107q-67 32 -141 32 q-73 0 -139 -30q-82 -38 -82 -103v-4q0 -61 71 -100q57 -31 125 -37v-13q0 -23 -13 -53.5t-13 -34.5q0 -22 24 -22q2 0 3.5 0.5t3.5 1.5q245 88 245 256z" />
<glyph unicode="&#x2020;" horiz-adv-x="1024" d="M942 938h-373v-1153h-120v1153h-367v106h367v429h120v-429h373v-106z" />
<glyph unicode="&#x2021;" horiz-adv-x="1024" d="M954 211h-387v-428h-121v428h-376v108h376v617h-376v106h376v431h121v-431h387v-106h-387v-617h387v-108z" />
<glyph unicode="&#x2022;" horiz-adv-x="1208" d="M899 762q0 -122 -87.5 -209.5t-209.5 -87.5t-208.5 87.5t-86.5 209.5q0 124 86 209.5t211 85.5q124 0 209.5 -85.5t85.5 -209.5z" />
<glyph unicode="&#x2026;" horiz-adv-x="1802" d="M1745 123q0 -87 -98 -137q-77 -39 -166 -39q-94 0 -171 40q-98 51 -98 142q0 85 100 136q80 40 165 40q88 0 168 -42q100 -52 100 -140zM1167 123q0 -87 -97 -137q-78 -39 -167 -39q-94 0 -171 40q-97 51 -97 142q0 85 100 136q79 40 164 40q89 0 169 -42q99 -52 99 -140 zM590 123q0 -87 -98 -137q-77 -39 -166 -39q-94 0 -171 40q-98 51 -98 142q0 85 99 136q79 40 166 40q88 0 168 -42q100 -52 100 -140zM1702 123q0 67 -84 107q-67 32 -141 32q-71 0 -138 -30q-84 -39 -84 -103q0 -70 82 -110q65 -31 144 -31q74 0 139 30q82 39 82 105z M1124 123q0 67 -83 107q-67 32 -142 32q-72 0 -138 -30q-83 -39 -83 -103q0 -70 81 -110q65 -31 144 -31q75 0 140 30q81 39 81 105zM547 123q0 67 -84 107q-68 32 -141 32t-139 -30q-83 -39 -83 -103q0 -70 82 -110q64 -31 144 -31q73 0 139 30q82 39 82 105z" />
<glyph unicode="&#x202f;" horiz-adv-x="403" />
<glyph unicode="&#x2030;" horiz-adv-x="2312" d="M2241 397q0 -153 -94 -265q-100 -120 -253 -120q-261 0 -344 215q-93 -215 -311 -215q-176 0 -277 109q-98 105 -98 282q0 90 29 166l-344 -518q-26 -30 -53 -31l-174 -6q-70 -1 -70 66q0 16 4 24l422 637q-101 -94 -229 -94q-178 0 -280 109q-97 105 -97 282 q0 174 102 289q107 119 281 119q154 0 251 -136q87 -121 87 -278q0 -82 -33 -164l360 547q27 31 54 31l178 -4q65 -2 65 -66q0 -20 -4 -24l-424 -637q104 94 256 94q212 0 305 -236q94 236 351 236q154 0 252 -134q88 -121 88 -278zM2198 397q0 142 -77 249 q-85 120 -220 120q-153 0 -248 -106q-90 -102 -90 -257q0 -158 86 -252q89 -98 245 -98q135 0 222 107q82 100 82 237zM1542 397q0 142 -76 249q-85 120 -221 120q-153 0 -247 -106q-91 -102 -91 -257q0 -158 86 -252q89 -98 246 -98q134 0 221 107q82 100 82 237z M1374 1376q0 22 -22 23l-178 4q-11 0 -19 -12l-858 -1299q-4 -7 -4 -12q0 -26 26 -25l177 8q10 1 18 13l856 1286q4 8 4 14zM750 1032q0 142 -76 250q-84 121 -219 121q-155 0 -249 -106q-91 -102 -91 -259q0 -158 86 -251q89 -97 248 -97q132 0 219 107q82 99 82 235z M2015 393q0 -62 -34 -111q-38 -55 -97 -55q-60 0 -98 55q-33 48 -33 111t33 111q38 53 98 53q59 0 97 -53q34 -49 34 -111zM1360 393q0 -62 -34 -111q-38 -55 -97 -55q-60 0 -98 55q-33 48 -33 111t33 111q37 53 98 53q59 0 97 -53q34 -49 34 -111zM567 1028q0 -61 -34 -109 q-38 -55 -97 -55t-97 55q-34 48 -34 109q0 62 34 110q38 54 97 54t97 -54q34 -48 34 -110zM1972 393q0 46 -22 81q-26 40 -66 40q-41 0 -67 -40q-23 -35 -23 -81t23 -82q26 -41 67 -41q40 0 66 41q22 36 22 82zM1317 393q0 46 -23 81q-25 40 -65 40q-41 0 -67 -40 q-23 -35 -23 -81q0 -45 23 -82q27 -41 67 -41t65 41q23 36 23 82zM524 1028q0 47 -22 83q-25 40 -66 40q-40 0 -65 -40q-23 -36 -23 -83q0 -46 23 -82q25 -41 65 -41t66 41q22 36 22 82z" />
<glyph unicode="&#x2039;" horiz-adv-x="702" d="M678 915q0 -28 -16 -45l2 4l-293 -346l276 -286v2q17 -17 17 -49q0 -24 -39 -111q-9 -17 -19 -41q-17 -35 -57 -35q-29 0 -45 15l6 -3l-221.5 169.5l-220.5 168.5l2 -2q-29 18 -29 50l-6 79q-10 127 -10 148q0 27 20 45l449 399q13 17 45 17q36 0 53 -25q86 -126 86 -154 zM635 915q0 14 -76 127q-7 11 -20 11q-8 0 -15 -6l-450 -400q-6 -12 -6 -14q0 18 14 -225q0 -9 10 -17l443 -338q4 -4 14 -4q14 0 20 14q54 125 54 132q0 13 -7 16l-301 313l316 377q4 4 4 14z" />
<glyph unicode="&#x203a;" horiz-adv-x="702" d="M678 631q0 -19 -10 -152q-4 -53 -6 -73q0 -31 -29 -50l2 2l-220.5 -168.5l-219.5 -169.5l6 3q-17 -15 -47 -15q-43 0 -60 37l-16 37h2q-39 92 -39 113q0 32 16 49v-2l277 286l-293 346v-4q-16 20 -16 45q0 32 84 152v-2q19 29 57 29q31 0 45 -17h-2l446 -397 q23 -20 23 -49zM635 631q0 11 -8 16l-447 400q-7 6 -14 6q-16 0 -23 -11q-75 -113 -75 -127q0 -8 6 -14l315 -377l-301 -313q-6 -3 -6 -16q0 -12 51 -132q6 -14 21 -14q12 0 16 4l440 338q10 8 11 17q14 236 14 223z" />
<glyph unicode="&#x2044;" horiz-adv-x="1257" d="M1217 1376q0 -20 -5 -24l-874 -1301q-25 -29 -51 -31q-82 -4 -176 -6q-70 -1 -70 66q0 16 4 24l873 1311q26 31 53 31l180 -4q66 -2 66 -66zM1174 1376q0 22 -23 23l-180 4q-10 0 -19 -12l-864 -1299q-4 -7 -4 -12q0 -26 25 -25l178 8q8 1 16 13l866 1286q5 8 5 14z" />
<glyph unicode="&#x205f;" horiz-adv-x="504" />
<glyph unicode="&#x20a3;" horiz-adv-x="1935" d="M1100 1317l-2 -262q-1 -66 -68 -66l-485 4q-5 -90 -5 -133q64 0 190 -2t190.5 -2t64.5 -65l-2 -263q-1 -66 -68 -65l-381 4q0 -75 -2 -223.5t-2 -223.5q0 -65 -65 -65l-355 2q-66 0 -65 66l10 1302q1 66 66 66l913 -7q66 0 66 -67zM1057 1317q0 24 -23 24l-913 9 q-23 0 -23 -25l-10 -1302q0 -23 22 -23l355 -2q24 0 24 22l2 488l424 -2q27 0 27 22l2 263q0 22 -25 22l-422 4l5 219l528 -6q24 0 25 25zM1936 795q0 -28 -19 -48t-47 -20q-207 0 -287 -100q12 -194 31 -574q1 -25 -18.5 -45.5t-46.5 -21.5q-109 -2 -310 -4 q-21 -1 -43.5 19.5t-23.5 43.5l-49 1073q-3 66 65 66h303q24 0 45.5 -19t22.5 -45q1 -13 4 -73q128 79 256 79q108 0 111 -67q2 -57 6 -264zM1893 795l-6 264q-1 26 -72 26q-142 0 -291 -120l-8 155q-1 21 -25 21h-303q-23 0 -22 -23l49 -1071q1 -25 24 -24l310 6 q24 0 24 22v2l-30 586q87 129 327 129q23 0 23 27z" />
<glyph unicode="&#x20ac;" horiz-adv-x="1427" d="M1388 96q0 -30 -16 -47l2 4q-69 -78 -212 -121q-118 -34 -241 -34q-245 0 -427 119q-197 129 -255 358h-118q-25 0 -45 20.5t-21 44.5l-2 99q-1 46 43 63q-40 15 -41 60l-2 100q-1 28 18.5 48t47.5 19l129 -4q80 263 338 401q226 122 528 122q73 0 82 -56l53 -334 q5 -31 -15.5 -53t-51.5 -22q-14 0 -41.5 2t-40.5 2q-185 0 -287 -64q23 0 69.5 -1t69.5 -1q66 0 66 -65q0 -2 -23 -86q-5 -17 -12 -37q-17 -39 -51 -45q28 -22 28 -53q0 -4 -24 -84q-4 -17 -10 -39q-19 -45 -64 -45h-55q54 -25 131 -25q134 0 293 98q16 11 34 11 q55 0 66 -52q7 -31 57 -290v-13zM1347 96v4l-57 291q-3 17 -25 17q-6 0 -10 -2q-172 -105 -317 -105q-166 0 -258 109l182 -2q15 -1 23 18q32 115 32 109q0 22 -22 22l-260 2q0 47 4 74l282 -2q15 0 21 14q33 131 33 111q0 22 -23 22l-254 2q130 148 402 148q14 0 41 -1 t41 -1q28 0 24 26l-51 334q-3 19 -47 19q-299 0 -513 -118q-250 -137 -315 -405l-161 4q-9 1 -16 -7t-7 -17l2 -100q1 -25 23 -25h137q-2 -25 -2 -74h-137q-23 0 -23 -24l2 -99q1 -22 23 -22l153 -2q46 -229 234 -357q174 -118 413 -118q116 0 226 31q133 38 194 110 q6 3 6 14z" />
<glyph unicode="&#x2122;" d="M1364 924h-59v479l-181 -479h-49l-190 479v-479h-60v530h101l174 -440l162 440h102v-530zM694 1403h-174v-479h-67v479h-179v51h420v-51z" />
<glyph unicode="&#x2202;" horiz-adv-x="1024" d="M899 752q0 -267 -96 -489q-125 -290 -359 -290q-140 0 -224.5 104.5t-84.5 280.5q0 166 98 288q106 132 267 132q124 0 190 -79q37 -45 60 -121q22 141 22 305q0 176 -38.5 265t-115.5 89q-39 0 -99.5 -73.5t-108.5 -73.5q-28 0 -48 18.5t-20 46.5q0 69 74 110 q61 35 135 35q187 0 279 -192q69 -146 69 -356zM713 459q0 256 -185 256q-141 0 -211 -168q-53 -124 -53 -287q0 -242 185 -242q115 0 189.5 124.5t74.5 316.5z" />
<glyph unicode="&#x220f;" horiz-adv-x="1491" d="M1327 -393h-135v1743h-893v-1743h-135v1866h1163v-1866z" />
<glyph unicode="&#x2211;" horiz-adv-x="1290" d="M1253 -393h-1243v127l752 829l-717 787v123h1208v-123h-1038l721 -787l-760 -835h1077v-121z" />
<glyph unicode="&#x2212;" d="M1452 569h-1198v82h1198v-82z" />
<glyph unicode="&#x221a;" horiz-adv-x="1264" d="M1264 1565h-129l-596 -1606h-31l-330 907l-110 -39l-15 50l230 79l278 -759l531 1429h172v-61z" />
<glyph unicode="&#x221e;" d="M1468 616q0 -149 -68 -251q-80 -117 -222 -117q-94 0 -165 60.5t-143 201.5q-69 -136 -148.5 -202t-172.5 -66q-142 0 -231 117q-80 107 -80 253q0 165 80 267t210 102q99 0 172 -63.5t136 -204.5q130 274 323 274q141 0 229 -118q80 -107 80 -253zM1421 629 q0 109 -55 187q-63 87 -168 87q-107 0 -196 -126q-49 -70 -113 -220q107 -205 287 -205q112 0 181 84q64 78 64 193zM819 670q-104 204 -287 204q-112 0 -181 -83q-64 -78 -64 -193q0 -108 56 -186q63 -86 167 -86q108 0 197 124q49 69 112 220z" />
<glyph unicode="&#x222b;" horiz-adv-x="948" d="M903 1421q0 -98 -102 -98q-76 0 -100.5 64.5t-34.5 64.5q-66 0 -93 -160q-26 -163 -26 -686q0 -374 -40 -574q-80 -403 -314 -403q-59 0 -101 30q-47 33 -47 89q0 107 105 107q36 0 57 -12.5t39 -43.5q2 -4 12 -47q7 -28 25 -28q93 0 114 394q4 71 4 460q0 367 41 569 q81 399 314 399q61 0 102 -31q45 -34 45 -94z" />
<glyph unicode="&#x2248;" d="M1530 809q-209 -145 -387 -145q-100 0 -292 69.5t-286 69.5q-85 0 -170.5 -34.5t-216.5 -125.5v92q209 148 387 148q104 0 295 -72q186 -70 283 -70q83 0 168 35t219 127v-94zM1530 485q-211 -147 -387 -147q-108 0 -295 70q-193 71 -283 71q-85 0 -170.5 -34.5 t-216.5 -125.5v93q209 145 387 145q100 0 292 -69.5t286 -69.5q86 0 171 34.5t216 125.5v-93z" />
<glyph unicode="&#x22f2;" d="M1530 809q-209 -145 -387 -145q-100 0 -292 69.5t-286 69.5q-85 0 -170.5 -34.5t-216.5 -125.5v92q209 148 387 148q104 0 295 -72q186 -70 283 -70q83 0 168 35t219 127v-94zM1530 485q-211 -147 -387 -147q-108 0 -295 70q-193 71 -283 71q-85 0 -170.5 -34.5 t-216.5 -125.5v93q209 145 387 145q100 0 292 -69.5t286 -69.5q86 0 171 34.5t216 125.5v-93z" />
<glyph unicode="&#x2260;" d="M1452 387h-711l-254 -324l-61 48l215 276h-387v82h436l221 283h-657v79h709l254 326l63 -49l-217 -277h389v-79h-440l-219 -283h659v-82z" />
<glyph unicode="&#x2264;" d="M1442 293l-1178 405v70l1178 403v-88l-1043 -350l1043 -352v-88zM1442 49h-1178v80h1178v-80z" />
<glyph unicode="&#x2265;" d="M1442 698l-1178 -405v88l1043 352l-1043 350v88l1178 -403v-70zM1442 49h-1178v80h1178v-80z" />
<glyph unicode="&#x25ca;" horiz-adv-x="1012" d="M1006 592l-500 -1069l-500 1069l500 1061zM891 592l-385 817l-385 -817l385 -825z" />
<glyph unicode="&#xe000;" horiz-adv-x="1085" d="M0 1085h1085v-1085h-1085v1085z" />
<glyph unicode="&#xf000;" horiz-adv-x="1618" d="M1167 1552q0 -131 -103 -234.5t-204 -103.5h-8h-8q-3 1 -8 3q-1 4 -2 14v22q0 132 102 237q96 99 229 124q1 -7 2 -23v-39zM1505 403q-90 -195 -152 -279q-118 -159 -257 -159q-46 0 -129.5 33t-124.5 33q-44 0 -130 -33t-128 -33q-129 0 -258 176q-213 291 -213 596 q0 211 117 349q124 145 331 145q67 0 156 -35q84 -33 123 -33q31 0 123.5 35t150.5 35q113 0 198 -38.5t161 -125.5q-201 -128 -201 -328q0 -114 59 -199.5t174 -138.5z" />
<glyph unicode="&#xf001;" horiz-adv-x="1497" d="M1448 1139q0 -105 -82 -176q-77 -66 -180 -66q-106 0 -184 68q-82 72 -82 178q0 104 81 174q77 67 181 67q105 0 184 -68q82 -72 82 -177zM1417 831l-14 -845q-1 -26 -21 -45t-45 -19l-317 -2q-29 0 -47.5 19t-18.5 47l9 514q-381 6 -365 6q0 -96 1 -289.5t1 -290.5 q0 -66 -63 -65l-304 2q-25 0 -45.5 18.5t-19.5 46.5l20 627q-19 1 -59 4q-51 4 -61 55q-2 15 -5 41q-16 131 -16 170q0 29 21 48t49 18l67 -2q-2 45 -2 139q0 259 119 408q133 168 395 168q217 0 217 -88v-295q0 -24 -16 -44q-19 -22 -45 -22q-10 0 -27.5 1t-25.5 1 q-33 4 -45 4q-156 0 -162 -123q-4 -45 -10 -155l770 14q28 0 47 -19.5t18 -46.5zM1407 1139q0 86 -70 146q-67 56 -155 56t-153 -54q-68 -58 -68 -144q0 -87 68 -145t157 -58q87 0 152 55q69 58 69 144zM1376 831q0 10 -7 17.5t-17 7.5l-813 -16q0 24 10 200q9 164 205 164 q16 0 49 -4t49 -4q18 0 18 25v295q0 15 -14 22q-62 23 -160 23q-240 0 -362 -155q-109 -139 -109 -378q0 -63 4 -186l-114 6q-25 1 -25 -23q0 -44 21 -202q2 -20 20 -21l100 -6l-22 -668q-1 -22 24 -22l304 -2q9 0 15.5 6.5t6.5 15.5l-4 623l451 -8l-11 -555q0 -10 7 -16.5 t18 -6.5l317 2q22 0 23 21z" />
<glyph unicode="&#xf002;" horiz-adv-x="1470" d="M1423 1253l-12 -1288q0 -23 -19 -42.5t-42 -20.5q-112 -6 -334 -15q-28 0 -49 19t-21 47v569q-110 3 -350 8q0 -100 2 -301.5t2 -302.5q0 -66 -65 -65l-304 2q-26 0 -46 18.5t-19 46.5l22 650q-19 1 -59 4q-53 4 -61 55q-2 15 -5 41q-16 131 -16 170q0 29 21 47.5 t49 17.5l67 -2q-2 39 -2 125q0 259 130 408q139 160 403 160q110 0 178 -27q43 -17 43 -61v-295q0 -26 -19 -46t-45 -20q-11 0 -28.5 1t-24.5 1q-24 4 -43 4q-180 0 -186 -123q-2 -38 -6 -133q44 -1 179 -5q108 -3 183 -3v356q0 66 66 66h346q66 0 65 -66zM1380 1253 q1 23 -22 23h-346q-25 0 -25 -23v-399l-448 10q3 60 10 176q9 164 227 164q17 0 49 -4t47 -4q21 0 21 25v295q0 15 -14 22q-62 23 -164 23q-243 0 -371 -148q-119 -137 -119 -377q0 -53 4 -172l-114 6q-25 2 -25 -22q0 -60 19 -203q2 -19 22 -20l98 -7l-20 -690 q-1 -22 22 -22l304 -2q22 0 22 22l-2 645l434 -6v-612q0 -24 25 -23l334 15q22 1 22 20z" />
</font>
</defs>
</svg>
