<?xml version="1.0" standalone="no"?>
<!DOCTYPE svg PUBLIC "-//W3C//DTD SVG 1.1//EN" "http://www.w3.org/Graphics/SVG/1.1/DTD/svg11.dtd" >
<svg xmlns="http://www.w3.org/2000/svg">
<metadata>
This is a custom SVG webfont generated by Font Squirrel.
Copyright   : C 2003 Bitstream Inc  Font Diner  All Rights Reserved  Designed by Stuart Sandler   httpwwwfontdinercom ROE
</metadata>
<defs>
<font id="webfonttkqwt3oT" horiz-adv-x="1706" >
<font-face units-per-em="2048" ascent="1638" descent="-410" />
<missing-glyph horiz-adv-x="532" />
<glyph unicode=" "  horiz-adv-x="532" />
<glyph unicode="&#x09;" horiz-adv-x="532" />
<glyph unicode="&#xa0;" horiz-adv-x="532" />
<glyph unicode="!" horiz-adv-x="430" d="M365 1425l-11 -1065q0 -24 -18 -24l-260 4q-19 0 -19 25l17 1060q0 25 18 25h254q19 0 19 -25zM393 86q0 -71 -65 -111q-51 -32 -111 -32q-62 0 -115 33q-65 42 -65 116q0 69 66 109q52 32 110 32q59 0 113 -34q67 -42 67 -113z" />
<glyph unicode="&#x22;" horiz-adv-x="614" d="M578 1415l-13 -602q0 -24 -18 -25l-182 -2q-8 0 -13.5 8.5t-5.5 18.5l8 606q1 25 19 25l186 -4q19 -1 19 -25zM268 1415l-10 -602q0 -24 -18 -25l-185 -2q-7 0 -12.5 8.5t-5.5 18.5l8 606q0 25 18 25l189 -4q17 -1 16 -25z" />
<glyph unicode="#" horiz-adv-x="1575" d="M1581 1104l-100 -270h-252l-76 -213h258l-100 -271h-254l-131 -366h-289l131 366h-227l-131 -366h-289l131 366h-258l100 271h254l74 213h-258l98 270h258l129 366h289l-129 -366h227l129 366h289l-129 -366h256zM946 834h-239l-78 -213h239z" />
<glyph unicode="$" horiz-adv-x="773" d="M735 436q0 -285 -307 -309v-121q0 -22 -30 -27l-44 -2q-18 -1 -18 25v125l-6 2q-74 9 -151 50q-85 46 -132 110q-6 8 -6 18q0 8 6 17l117 159q6 9 12 9q5 0 10 -5q92 -70 150 -92l2 207q-138 52 -200 107q-101 88 -101 235q0 122 111 214q90 75 194 93v129q0 26 18 25h46 q31 -4 30 -27l-2 -125h6q74 -9 152 -51q85 -46 133 -110q6 -9 6 -19q0 -8 -121 -182q-5 -8 -14 -8q-3 0 -8 4q-87 69 -154 92l-2 -205q136 -62 196 -113q107 -92 107 -225zM340 819v172q-72 -13 -72 -84q0 -46 72 -88zM504 473q0 52 -74 90v-180q74 15 74 90z" />
<glyph unicode="%" horiz-adv-x="1212" d="M545 1053q0 -146 -66 -252q-69 -113 -176 -113q-125 0 -197 103q-69 100 -69 268q0 166 72 274q75 113 198 113q108 0 177 -128q61 -115 61 -265zM1042 1417q0 -6 -4 -14l-684 -1368q-6 -12 -12 -12l-141 -9q-21 -1 -21 25q0 10 2 14l684 1381q7 12 17 12l141 -4 q18 -1 18 -25zM1176 377q0 -146 -66 -252q-69 -113 -176 -113q-126 0 -197 103q-69 100 -69 268q0 166 72 274q75 113 198 113q108 0 176 -128q62 -115 62 -265zM397 1049q0 65 -27 116q-30 58 -77 58t-78 -58q-27 -51 -27 -116q0 -66 27 -118q31 -59 78 -59t77 59 q27 52 27 118zM1030 373q0 65 -27 116q-30 58 -77 58q-48 0 -78 -58q-27 -51 -27 -116q0 -66 27 -118q31 -58 78 -58t77 58q27 52 27 118z" />
<glyph unicode="&#x26;" horiz-adv-x="1060" d="M1024 440q0 -19 -55 -87q-49 -61 -72 -81l86 -90q6 -6 6 -18q0 -13 -4 -19q-120 -155 -127 -155q-8 0 -123 127q-146 -131 -348 -131q-138 0 -238 90q-112 102 -112 276q0 137 62 244q60 103 159 147q-143 166 -143 342q0 408 422 408q148 0 260 -85q135 -103 135 -286 q0 -144 -124 -296q-95 -117 -222 -197l151 -168q48 32 135 153q8 11 15 11q8 0 14 -9l117 -157q6 -9 6 -19zM643 1042q0 45 -37 74q-32 25 -67 25q-56 0 -101 -27q-59 -34 -59 -98q0 -92 51 -160q213 112 213 186zM557 344l-154 164q-81 -36 -81 -119q0 -96 96 -96 q57 0 139 51z" />
<glyph unicode="'" horiz-adv-x="306" d="M268 1415l-10 -602q0 -24 -18 -25l-185 -2q-7 0 -12.5 8.5t-5.5 18.5l8 606q0 25 18 25l189 -4q17 -1 16 -25z" />
<glyph unicode="(" horiz-adv-x="412" d="M373 1456q0 -1 -2 -8q-97 -335 -97 -711q0 -387 74 -727q1 -3 2 -8q0 -24 -18 -25l-154 -6q-11 0 -18 15q-59 128 -92 374q-27 202 -27 392q0 185 30 374q36 229 103 349q7 12 16 12l164 -6q19 -1 19 -25z" />
<glyph unicode=")" horiz-adv-x="412" d="M373 752q0 -188 -28 -392q-34 -245 -93 -374q-7 -15 -19 -15l-153 6q-19 1 -19 25q1 3 2 8q76 427 76 727q0 369 -98 711v8q0 24 18 25l162 6q10 0 17 -12q66 -121 104 -349q31 -191 31 -374z" />
<glyph unicode="*" horiz-adv-x="645" d="M608 977q0 -7 -82 -199q-5 -12 -16 -12q-8 0 -12 6l-113 146q31 -195 31 -205q0 -25 -19 -25h-159q-19 0 -19 25q0 9 37 202l-109 -141q-6 -8 -12 -8q-11 0 -16 12q-82 192 -82 199q0 17 12 22l148 66l-146 63q-12 6 -12 25q0 8 86 199q5 12 16 12q8 0 13 -6l106 -141 l-35 200q0 25 21 25l164 -4q18 -1 18 -25q0 9 -41 -194l105 137q6 8 14 8q9 0 14 -12q88 -196 88 -199q0 -18 -14 -25l-145 -63l147 -66q12 -5 12 -22z" />
<glyph unicode="+" d="M1452 475h-459v-475h-280v475h-459v273h459v473h280v-473h459v-273z" />
<glyph unicode="," horiz-adv-x="430" d="M393 86q0 -179 -194 -272q-2 -1 -6 -2q-19 0 -19 24q0 3 10.5 35t10.5 57v9v6q-56 6 -101 39q-57 42 -57 106v4q1 69 66 109q52 32 110 32q60 0 113 -34q67 -42 67 -113z" />
<glyph unicode="-" horiz-adv-x="821" d="M784 350q0 -24 -18 -24h-711q-19 0 -18 26l6 279q1 24 18 24h705q18 0 18 -26v-279z" />
<glyph unicode="." horiz-adv-x="430" d="M393 86q0 -71 -65 -111q-51 -32 -111 -32q-62 0 -115 33q-65 42 -65 116q0 69 66 109q52 32 110 32q59 0 113 -34q67 -42 67 -113z" />
<glyph unicode="/" horiz-adv-x="700" d="M662 1403q0 -7 -381 -1350q-5 -16 -19 -16l-203 -8q-18 -1 -18 24q0 9 375 1362q4 17 18 17l209 -5q19 0 19 -24z" />
<glyph unicode="0" horiz-adv-x="1063" d="M1042 678q0 -293 -130 -507q-140 -228 -355 -228q-251 0 -395 206q-139 200 -139 537q0 331 145 551q153 229 397 229q218 0 355 -256q122 -230 122 -532zM741 668q0 126 -52 227q-59 113 -150 113q-92 0 -151 -113q-52 -101 -52 -227q0 -127 52 -229q59 -113 151 -113 q91 0 150 113q52 102 52 229z" />
<glyph unicode="1" horiz-adv-x="413" d="M377 1413l-25 -1368q0 -24 -18 -25l-279 -8q-7 0 -12.5 8t-5.5 19l14 1382q0 25 19 25l288 -6q19 -1 19 -27z" />
<glyph unicode="2" horiz-adv-x="926" d="M905 1053q0 -215 -138 -356q-69 -70 -256 -174q-138 -77 -138 -136h458q19 0 19 -25v-317q0 -25 -19 -25h-786q-18 0 -18 25q0 29 -1 113q-1 73 -1 112q0 425 393 607q157 72 157 124q0 78 -81 78q-65 0 -140 -54q-29 -21 -123 -107q-4 -5 -14 -5q-7 0 -12 9l-180 299 q-2 3 -2 14t2 14q70 128 191 207.5t241 79.5q200 0 314 -105q134 -123 134 -378z" />
<glyph unicode="3" horiz-adv-x="895" d="M858 395q0 -436 -450 -436q-116 0 -234 68q-124 71 -194 186q-5 7 -5 16q0 11 5 17l178 268q5 8 14 8q-7 0 98 -76.5t176 -76.5q82 0 82 73q0 123 -170 123q-11 0 -33.5 -2t-33.5 -2q-21 0 -21 25v301q0 24 21 24q8 0 25 -1t26 -1q186 0 186 125q0 62 -73 62 q-117 0 -273 -146q-4 -4 -12 -4q-7 0 -12 8l-178 275q-5 6 -5 16t5 17q71 116 193 187q118 69 235 69q151 0 291 -115q159 -132 159 -324q0 -222 -151 -352q151 -135 151 -332z" />
<glyph unicode="4" horiz-adv-x="955" d="M920 348q0 -24 -19 -24h-84l-2 -285q0 -24 -18 -25l-279 -12q-18 -1 -18 25l-2 297h-535q-18 0 -18 24q0 5 2 10l391 1053q5 14 16 14l451 9q9 -6 18 -25l-4 -758h82q19 0 19 -24v-279zM498 651v348l-133 -348h133z" />
<glyph unicode="5" horiz-adv-x="957" d="M920 422q0 -224 -147 -362q-131 -123 -306 -123q-115 0 -233 69q-122 71 -193 187q-4 6 -4 14q0 10 4 16l178 266q7 11 12 11q6 0 13 -6q139 -129 233 -129q45 0 80 33q39 38 39 96q0 194 -258 194q-103 0 -242 -35q-22 0 -22 27l-2 766q0 27 18 27h729q19 0 19 -25v-281 q0 -24 -19 -24h-422l-2 -176q54 14 111 14q201 0 307.5 -144.5t106.5 -414.5z" />
<glyph unicode="6" horiz-adv-x="982" d="M961 430q0 -235 -133 -355q-114 -104 -298 -104q-230 0 -377 193t-147 500q0 407 215 626q194 197 512 197q37 0 39 -23l43 -383q3 -28 -18 -28q-11 0 -34 2t-34 2q-380 0 -399 -385q152 131 319 131q130 0 219 -100q93 -105 93 -273zM666 446q0 50 -31 82q-27 29 -66 29 q-106 0 -207 -100q58 -123 185 -123q119 0 119 112z" />
<glyph unicode="7" horiz-adv-x="840" d="M864 1395q0 -6 -418 -1352q-5 -16 -16 -16l-285 -9q-18 0 -18 25q0 -1 326 1049h-412q-18 0 -18 24v279q0 24 18 24h805q18 0 18 -24z" />
<glyph unicode="8" horiz-adv-x="922" d="M901 397q0 -198 -151 -323q-131 -109 -289 -109q-161 0 -289 107q-149 123 -149 325q0 201 153 328q-153 127 -153 328q0 202 149 325q128 107 289 107q160 0 290 -107q150 -125 150 -325t-156 -328q156 -128 156 -328zM598 1006q0 47 -47 74q-39 24 -90 24t-91 -24 q-46 -27 -46 -74q0 -51 52 -79q40 -22 85 -22q44 0 84 22q53 28 53 79zM598 473q0 51 -53 79q-40 21 -84 21q-45 0 -85 -21q-52 -28 -52 -79q0 -47 46 -75q40 -23 91 -23t90 23q47 28 47 75z" />
<glyph unicode="9" horiz-adv-x="963" d="M956 797q0 -386 -203 -589q-182 -183 -483 -183q-47 0 -49 20l-37 334q-3 29 21 29q13 0 38 -2.5t38 -2.5q353 0 372 336q-152 -131 -321 -131q-129 0 -217 101q-92 105 -92 272q0 227 123 372q117 138 288 138q230 0 376 -193.5t146 -500.5zM618 954q-57 123 -184 123 q-117 0 -117 -112q0 -50 31 -81q27 -28 66 -28q106 0 204 98z" />
<glyph unicode=":" horiz-adv-x="436" d="M397 655q0 -70 -66 -111q-52 -32 -112 -32q-62 0 -114 33q-64 42 -64 117q0 68 66 108q52 31 110 31q60 0 113 -33q67 -42 67 -113zM397 86q0 -70 -66 -111q-52 -32 -112 -32q-62 0 -114 33q-64 42 -64 116q0 69 66 109q52 32 110 32q60 0 113 -34q67 -42 67 -113z" />
<glyph unicode=";" horiz-adv-x="436" d="M397 655q0 -70 -66 -111q-52 -32 -112 -32q-62 0 -114 33q-64 42 -64 117q0 68 66 108q52 31 110 31q60 0 113 -33q67 -42 67 -113zM397 86q0 -178 -196 -272q-2 -1 -6 -2q-19 0 -19 24q0 3 10.5 35t10.5 57v9v6q-55 6 -100 39q-56 42 -56 106v4q1 69 66 109 q52 32 110 32q60 0 113 -34q67 -42 67 -113z" />
<glyph unicode="&#x3c;" d="M1442 -16l-1178 487v281l1178 487v-301l-801 -328l801 -327v-299z" />
<glyph unicode="=" d="M1452 711h-1198v272h1198v-272zM1452 240h-1198v272h1198v-272z" />
<glyph unicode="&#x3e;" d="M1442 471l-1178 -487v299l801 327l-801 328v301l1178 -487v-281z" />
<glyph unicode="?" horiz-adv-x="963" d="M924 1053q0 -117 -66 -238q-36 -67 -131 -190q-62 -81 -86 -121q-41 -69 -59 -144q-5 -20 -19 -20h-303q-18 0 -18 27q0 190 229 438q123 133 123 196q0 78 -82 78q-66 0 -139 -54q-24 -17 -123 -107q-5 -5 -14 -5q-8 0 -13 9l-180 299q-2 3 -2 14t2 14q71 128 192 207.5 t240 79.5q201 0 315 -106q134 -123 134 -377zM594 86q0 -70 -66 -111q-53 -32 -112 -32q-62 0 -114 33q-64 42 -64 116q0 69 65 109q53 32 111 32q59 0 113 -34q67 -42 67 -113z" />
<glyph unicode="@" horiz-adv-x="2048" d="M1978 764q0 -173 -67 -314.5t-197 -242.5q-145 -113 -328 -113q-112 0 -168 37t-65 117q-61 -83 -127 -117.5t-162 -34.5q-344 0 -344 350q0 234 131 398q141 178 369 178q153 0 221 -111l49 82h242l-156 -626q-3 -14 -4 -19v-12q0 -49 47 -49q151 0 250 168 q84 143 84 305q0 256 -196 399q-175 127 -441 127q-289 0 -491 -141q-322 -225 -322 -619q0 -295 199 -469t536 -174q324 0 586 187l115 -160q-322 -240 -723 -240q-191 0 -354 54q-166 53 -295 157q-297 238 -297 639q0 357 219 617q150 177 362 271.5t461 94.5 q361 0 602 -185q264 -204 264 -554zM1174 688q-7 66 -43.5 104.5t-90.5 38.5q-115 0 -184 -145q-55 -117 -55 -246q0 -151 117 -151q79 0 138 64q50 56 70 141z" />
<glyph unicode="A" horiz-adv-x="986" d="M981 -49q0 -25 -18 -25l-295 6q-16 1 -19 21l-35 270h-241l-35 -235q-3 -21 -19 -21l-294 -2q-19 0 -19 25v6l242 1390q3 21 18 21h459q15 0 18 -21zM569 551l-67 500l-78 -500h145z" />
<glyph unicode="B" horiz-adv-x="940" d="M920 350q0 -283 -252 -391q-163 -71 -467 -71q-29 0 -77 1h-67q-18 0 -18 25l-2 1503q0 25 18 25h67q48 1 77 1q304 0 467 -70q252 -109 252 -392q0 -190 -152 -315q154 -127 154 -316zM612 954q0 174 -223 174l2 -335q221 20 221 161zM612 379q0 139 -221 160v-336 q221 0 221 176z" />
<glyph unicode="C" horiz-adv-x="988" d="M950 119q0 -10 -4 -17q-52 -81 -165 -126q-94 -37 -191 -37q-251 0 -406 192q-161 199 -161 537q0 409 212 627q193 198 513 198q38 0 40 -20l43 -386q3 -26 -20 -26q-11 0 -33.5 2t-34.5 2q-168 0 -273 -86q-126 -104 -126 -315q0 -152 73 -235q69 -77 185 -77 q128 0 270 119q8 6 11 6q15 0 18 -20z" />
<glyph unicode="D" horiz-adv-x="938" d="M918 666q0 -428 -286 -625q-220 -152 -575 -152q-18 0 -18 25l-2 1503q0 25 18 25q356 0 576 -152q287 -197 287 -624zM582 666q0 127 -51 228q-57 116 -148 116v-688q92 0 149 115q50 100 50 229z" />
<glyph unicode="E" horiz-adv-x="839" d="M803 25q0 -25 -19 -25h-727q-18 0 -18 25l-2 1384q0 25 18 25h729q19 0 19 -25v-279q0 -24 -19 -24h-424v-234h336q19 0 19 -24v-279q0 -24 -19 -24h-338l-2 -217h428q19 0 19 -25v-278z" />
<glyph unicode="F" horiz-adv-x="823" d="M809 1075q0 -25 -21 -24l-421 6l-2 -234l335 -4q19 0 19 -24l-2 -279q0 -25 -19 -24l-338 4l-4 -519q0 -24 -18 -24l-283 2q-18 0 -18 25l8 1384q0 25 18 25l728 -9q18 0 18 -26v-279z" />
<glyph unicode="G" horiz-adv-x="989" d="M952 123q1 -11 -4 -19q-54 -79 -170 -123q-97 -36 -194 -36q-251 0 -404 190q-157 197 -157 533q0 409 212 627q193 198 513 198q38 0 40 -20l43 -386q3 -26 -20 -26q-11 0 -32.5 2t-33.5 2q-172 0 -277 -90q-124 -107 -124 -324q0 -309 201 -309q50 0 86 14l-4 174 l-135 -4q-8 0 -13.5 8t-5.5 19l4 197q1 23 17 24l421 37q20 2 21 -23z" />
<glyph unicode="H" horiz-adv-x="969" d="M932 1407l-8 -1368q0 -24 -19 -25l-278 -14q-19 -1 -19 25l-2 454h-250l-2 -440q0 -24 -18 -25l-277 -14q-20 -1 -20 25l-2 1384q0 25 18 25l291 -2q19 -1 19 -25l-5 -600h246v602q0 25 19 25l288 -2q19 -1 19 -25z" />
<glyph unicode="I" horiz-adv-x="413" d="M377 1362l-25 -1368q0 -24 -18 -25l-279 -6q-7 0 -12.5 7t-5.5 18l14 1382q0 25 19 25l288 -6q19 -1 19 -27z" />
<glyph unicode="J" horiz-adv-x="971" d="M934 1331l-14 -782q-12 -610 -449 -610q-434 0 -434 589q0 30 1 79q1 61 1 79q0 28 20 25l289 -41q19 -3 19 -25q-2 -114 -2 -92q0 -234 112 -234q115 0 117 267l6 764q0 25 18 24l300 -18q16 -1 16 -25z" />
<glyph unicode="K" horiz-adv-x="991" d="M977 1317q0 -10 -2 -14l-307 -613q282 -676 282 -684q0 -23 -18 -24l-326 -19q-13 -1 -18 14l-185 525l-18 -4l-2 -443q0 -23 -16 -24l-308 -25q-18 0 -18 25l-4 1321q0 24 18 24l318 2q9 -5 18 -24l-4 -543l238 528q5 13 18 13l318 -11q16 0 16 -24z" />
<glyph unicode="L" horiz-adv-x="809" d="M797 25q0 -25 -21 -25h-713q-18 0 -18 25l-8 1343q0 24 18 25l287 8q18 0 18 -25l2 -1048h414q21 0 21 -25v-278z" />
<glyph unicode="M" horiz-adv-x="1200" d="M1163 31q1 -23 -16 -25l-258 -22q-9 5 -19 24l-12 797l-160 -756q-4 -18 -18 -18h-160q-12 0 -16 18l-162 756l-12 -797q-1 -25 -19 -24l-256 14q-19 1 -18 27l41 1351q1 25 20 25l299 -2q13 0 17 -17l186 -755l186 755q4 17 19 17l299 2q18 0 18 -25z" />
<glyph unicode="N" horiz-adv-x="969" d="M932 1358l-8 -1370q0 -22 -17 -23l-268 -14q-11 -1 -16 14l-283 807l-6 -784q0 -22 -19 -23l-256 -14q-20 -1 -20 24l-2 1383q0 27 18 26l279 -2q9 0 14 -14l283 -803l-2 793q0 27 18 26l266 -2q19 0 19 -24z" />
<glyph unicode="O" horiz-adv-x="1063" d="M1042 627q0 -293 -130 -507q-140 -229 -355 -229q-251 0 -395 206q-139 200 -139 538q0 330 145 550q153 230 397 230q218 0 355 -256q122 -230 122 -532zM741 616q0 127 -52 228q-59 112 -150 112q-92 0 -151 -112q-52 -101 -52 -228q0 -126 52 -227q59 -113 151 -113 q91 0 150 113q52 101 52 227z" />
<glyph unicode="P" horiz-adv-x="905" d="M883 879q0 -265 -157 -425q-141 -143 -347 -151l-4 -307q-1 -23 -17 -25l-297 -26q-20 -2 -20 24l-4 1487q0 25 18 25q218 0 371 -27q225 -39 331 -154q126 -138 126 -421zM590 842q0 225 -203 225l-4 -432q207 24 207 207z" />
<glyph unicode="Q" horiz-adv-x="1078" d="M1042 627q0 -381 -198 -598q133 -262 133 -269q0 -23 -19 -24l-327 -21q-10 0 -17 13l-82 166q-241 7 -378 216q-131 199 -131 525q0 330 145 550q153 230 397 230q218 0 355 -256q122 -230 122 -532zM741 616q0 127 -52 228q-59 112 -150 112q-92 0 -151 -112 q-52 -101 -52 -228q0 -126 52 -227q59 -113 151 -113q91 0 150 113q52 101 52 227z" />
<glyph unicode="R" horiz-adv-x="957" d="M920 -31q0 -23 -19 -24l-301 -17q-12 0 -18 11l-213 385l-2 -342q-1 -23 -19 -25l-287 -25q-20 -1 -20 25l-4 1423q0 18 16 25q60 27 246 27q326 0 461 -207q98 -151 98 -344q0 -293 -184 -465l241 -430q5 -8 5 -17zM539 819q0 87 -50 140q-45 48 -112 53l-4 -406 q166 35 166 213z" />
<glyph unicode="S" horiz-adv-x="966" d="M930 1153q0 -10 -4 -16l-178 -277q-6 -8 -15 -8q-4 0 -10 6q-153 146 -274 146q-72 0 -72 -64q0 -42 141 -111q184 -90 261 -161q141 -130 141 -322q0 -436 -453 -436q-115 0 -233 69q-122 72 -193 187q-4 7 -4 16q0 11 4 17l178 266q6 8 14 8q-6 0 98.5 -75.5 t176.5 -75.5q82 0 82 71q0 50 -141 107q-185 76 -261 144q-141 127 -141 343q0 190 159 322q139 114 290 114q116 0 235 -67q124 -71 195 -187q4 -6 4 -16z" />
<glyph unicode="T" horiz-adv-x="863" d="M850 1024q0 -25 -21 -25h-223l6 -1040q0 -24 -18 -25l-289 -8q-18 0 -18 25v1048h-254q-19 0 -19 25v279q0 24 19 24h796q21 0 21 -24v-279z" />
<glyph unicode="U" horiz-adv-x="971" d="M934 1288l-14 -782q-12 -608 -449 -608q-434 0 -434 589q0 -48 8 807q0 26 21 25l294 -23q19 -1 19 -24l-14 -762q0 -231 112 -231q115 0 117 266l6 733q0 24 18 25l297 10q8 0 13.5 -7t5.5 -18z" />
<glyph unicode="V" horiz-adv-x="971" d="M956 1397l-231 -1327q-4 -21 -18 -21h-459q-15 0 -19 21l-215 1339q0 25 19 25l293 -7q15 0 18 -22l127 -1008l154 1008q3 20 18 20l295 2q18 1 18 -24v-6z" />
<glyph unicode="W" horiz-adv-x="1184" d="M1171 1356l-81 -1374q-2 -22 -19 -23l-305 -16q-14 -1 -18 16l-156 598l-152 -596q-5 -19 -18 -18l-291 16q-15 1 -16 21l-101 1386q0 25 19 25h248q17 0 18 -23l47 -881l125 738q3 18 16 18h209q16 0 19 -18l119 -738l49 889q1 24 20 23l250 -17q18 -1 18 -24v-2z" />
<glyph unicode="X" horiz-adv-x="914" d="M901 1380q0 -2 -4 -12l-276 -647l276 -658q2 -4 2 -12q0 -24 -16 -24l-277 -15q-11 0 -16 13l-133 311l-133 -311q-6 -13 -17 -13l-274 15q-19 1 -19 24q0 8 2 12l277 658l-277 647q-2 5 -2 12q0 25 19 25h291q11 0 16 -12l117 -281l118 281q6 12 15 12h293q18 0 18 -25z " />
<glyph unicode="Y" horiz-adv-x="1011" d="M997 1300q0 -6 -335 -921l4 -404q0 -24 -19 -24l-307 -8q-18 -1 -18 24v412q-308 923 -308 928q0 25 19 24l309 -6q15 0 18 -16l136 -578l155 578q5 16 17 16h311q18 0 18 -25z" />
<glyph unicode="Z" horiz-adv-x="938" d="M901 -39q0 -25 -18 -24l-820 14q-17 0 -18 24l-8 363q0 8 6 16l477 609l-457 14q-17 0 -18 24l-8 345q-1 24 18 24l828 2q18 0 18 -24v-385q0 -9 -6 -17l-473 -602l461 2q18 0 18 -24v-361z" />
<glyph unicode="[" horiz-adv-x="579" d="M543 -233q0 -25 -21 -25h-465q-18 0 -18 25l-2 1789q0 25 18 25l467 2q21 0 21 -27v-245q0 -25 -21 -25h-192l-6 -1247h198q21 0 21 -25v-247z" />
<glyph unicode="\" horiz-adv-x="700" d="M662 53q0 -25 -19 -24l-205 8q-12 0 -16 16q-381 1343 -381 1350q0 24 18 24l209 5q14 0 19 -17q375 -1353 375 -1362z" />
<glyph unicode="]" horiz-adv-x="579" d="M543 1556l-4 -1789q0 -25 -19 -25h-465q-18 0 -18 25v247q0 25 18 25h199l-4 1247h-195q-18 0 -18 25v245q0 27 18 27l467 -2q21 0 21 -25z" />
<glyph unicode="^" horiz-adv-x="2048" d="M1634 897h-303l-307 309l-309 -309h-303l442 565h338z" />
<glyph unicode="_" horiz-adv-x="1024" d="M1024 -483h-1024v282h1024v-282z" />
<glyph unicode="`" horiz-adv-x="780" d="M561 1192q0 -11 -6 -18l-70 -89q-4 -6 -12 -6t-14 8l-234 306q-6 8 -6 18q0 12 6 19l113 120q4 4 12 4q10 0 15 -8l194 -340q2 -3 2 -14z" />
<glyph unicode="a" horiz-adv-x="817" d="M780 676q0 -106 -26 -674q-1 -24 -4 -70q-4 -24 -21 -24l-194 -2q-21 0 -21 26q0 19 3 50q3 38 3 49q-95 -45 -196 -45q-130 0 -209 70q-92 83 -92 247q0 190 152 282q114 68 278 68q36 0 94 -10q2 68 2 55q0 57 -30 96.5t-73 39.5q-54 0 -83.5 -53t-32.5 -54l-228 -41 q-22 -4 -22 25q1 3 2 8q37 161 129.5 253.5t218.5 92.5q350 0 350 -389zM539 416q-40 4 -50 4q-159 0 -159 -121q0 -102 116 -102q41 0 82 10z" />
<glyph unicode="b" horiz-adv-x="854" d="M834 516q0 -222 -101.5 -365t-265.5 -143q-76 0 -135 41l2 -131q0 -10 -6.5 -17.5t-14.5 -6.5l-233 6q-18 0 -19 24l-38 1569q-1 26 18 27l264 2q18 0 19 -25l4 -469q30 10 69 10q180 0 304 -140q133 -148 133 -382zM510 455q0 188 -180 190v-336q38 -12 63 -12 q117 0 117 158z" />
<glyph unicode="c" horiz-adv-x="634" d="M612 262l-8 -233q0 -17 -14 -23q-36 -16 -113 -16q-181 0 -309 117q-145 134 -145 364q0 268 111.5 426t309.5 158q92 0 140 -29q12 -7 12 -22v-342q0 -25 -14 -25t-42 4t-42 4q-193 0 -193 -196q0 -173 189 -173q16 0 48.5 6.5t49.5 6.5h2q19 0 18 -27z" />
<glyph unicode="d" horiz-adv-x="869" d="M848 1483l-64 -1569q-1 -22 -18 -23l-234 -2q-18 0 -18 25v131q-56 -37 -127 -37q-162 0 -263 141.5t-101 360.5q0 240 129 388q122 140 305 140q38 0 78 -14l10 471q0 25 18 25l266 -11q20 0 19 -26zM526 643q-184 0 -184 -192q0 -154 119 -154q31 0 59 8z" />
<glyph unicode="e" horiz-adv-x="694" d="M674 39q0 -33 -87 -54q-64 -16 -110 -16q-198 0 -322 142q-132 150 -132 409q0 242 78 428q95 226 264 226q303 0 303 -490q0 -57 -17 -150q-21 -115 -49 -114l-336 16q30 -209 189 -209q64 0 182 52q2 1 6 2q17 0 19 -23q12 -238 12 -219zM471 711q0 129 -80 129 q-108 0 -127 -244l189 8q18 1 18 107z" />
<glyph unicode="f" horiz-adv-x="593" d="M664 1311q0 -25 -15 -25q-13 0 -39.5 3t-40.5 3q-174 0 -182 -174q-3 -66 -6 -186l166 -12q17 -2 16 -25l-4 -258q0 -26 -18 -25l-148 11l4 -691q0 -10 -6 -17t-14 -7l-240 2q-19 0 -18 24l14 738l-80 4q-15 1 -16 22q-14 207 -14 215q0 26 18 25l92 -6q-9 253 2 336 q27 192 134 301q103 104 251 104q84 0 131 -24q13 -7 13 -25v-313z" />
<glyph unicode="g" horiz-adv-x="839" d="M803 1087q4 -472 -6 -894q-3 -150 -25 -437q-27 -192 -130 -299.5t-251 -107.5q-87 0 -135 26q-12 7 -12 25v313q0 25 20 25q11 0 36 -4t38 -4q182 0 182 176v145q-57 -26 -123 -26q-167 0 -270.5 139t-103.5 362q0 235 121 371q115 129 294 129q34 0 74 -10v76 q0 24 18 24l254 -2q19 0 19 -27zM516 317l-2 342q-172 -5 -172 -192q0 -154 135 -154q13 0 39 4z" />
<glyph unicode="h" horiz-adv-x="848" d="M811 551q0 -31 -18 -578q-1 -24 -19 -22l-239 18q-17 2 -17 25l4 557q0 221 -88 221q-76 0 -112 -80l4 -682q0 -24 -19 -24l-248 -6q-18 -1 -18 24l-4 1651q0 24 18 24h244q18 0 18 -24l2 -649q86 102 189 102q303 0 303 -557z" />
<glyph unicode="i" horiz-adv-x="430" d="M393 1192q0 -92 -53 -152.5t-123 -60.5q-71 0 -124 60q-56 62 -56 155q0 92 54 154q52 59 122 59q71 0 125.5 -61t54.5 -154zM373 844l-17 -846q0 -24 -18 -25l-254 -2q-8 0 -13.5 7.5t-4.5 17.5l10 854q0 23 20 22l258 -4q19 0 19 -24z" />
<glyph unicode="j" horiz-adv-x="449" d="M412 1192q0 -92 -53.5 -152.5t-122.5 -60.5q-71 0 -123 60q-56 62 -56 155q0 92 55 154q52 59 121 59q71 0 123 -60q56 -62 56 -155zM381 817q0 -437 -8 -702q-3 -121 -23 -359q-27 -193 -129 -300t-250 -107q-91 0 -137 26q-12 8 -12 25v313q0 25 22 25q12 0 37 -4 t37 -4q182 0 180 176l-8 913q0 10 5.5 17.5t13.5 7.5l253 -2q19 0 19 -25z" />
<glyph unicode="k" horiz-adv-x="825" d="M811 -10q0 -24 -16 -25l-269 -14q-10 -1 -16 8l-201 297q10 -317 10 -330q0 -26 -20 -24l-246 16q-16 1 -16 25l16 1546q0 22 19 22l260 13q8 0 13.5 -7.5t4.5 -17.5l-43 -872l170 454q5 12 17 13l256 4q18 0 18 -25q0 -11 -217 -612l258 -455q2 -3 2 -16z" />
<glyph unicode="l" horiz-adv-x="398" d="M360 1440l-8 -1370q0 -24 -18 -25l-266 -12q-21 -1 -21 24v1383q0 24 19 24h276q19 0 18 -24z" />
<glyph unicode="m" horiz-adv-x="1373" d="M1337 506q0 -15 -20 -516q-1 -24 -21 -23l-237 21q-19 1 -19 24q9 553 9 525q0 213 -86 213q-119 0 -136 -148q4 -41 -8 -571q0 -24 -18 -25l-238 -6q-18 0 -18 25l-2 518q-1 229 -90 229q-99 0 -127 -121v-2l12 -608q0 -24 -16 -25l-250 -12q-18 -1 -19 25l-16 1032 q-1 24 18 24l242 7q20 0 20 -25v-109q99 152 209 152q180 0 258 -227q57 105 106 148q60 54 144 54q303 0 303 -579z" />
<glyph unicode="n" horiz-adv-x="860" d="M823 549q0 -45 -16 -549q-1 -26 -21 -25l-239 19q-17 1 -17 24l5 533q0 221 -89 221q-97 0 -127 -119l7 -610q0 -24 -19 -25l-248 -6q-18 0 -18 25l-4 1032q0 25 18 25h244q18 0 18 -25v-84q92 123 203 123q303 0 303 -559z" />
<glyph unicode="o" horiz-adv-x="774" d="M754 522q0 -231 -80 -380q-91 -169 -258 -169q-183 0 -288 136.5t-105 379.5q0 251 75 405q89 183 267 183q185 0 289 -156q100 -149 100 -399zM487 512q0 162 -106 162q-52 0 -84 -71q-27 -59 -27 -134q0 -162 107 -162q56 0 86 69q24 56 24 136z" />
<glyph unicode="p" horiz-adv-x="869" d="M848 516q0 -222 -100.5 -365t-264.5 -143q-79 0 -137 41l2 -561q0 -25 -18 -25l-234 9q-18 0 -18 24l-41 1569q-1 24 18 25l267 4q18 0 18 -68q35 12 76 12q178 0 302 -140q130 -148 130 -382zM526 455q0 190 -178 190h-6l2 -336q37 -12 66 -12q116 0 116 158z" />
<glyph unicode="q" horiz-adv-x="874" d="M838 1073l-64 -1567q-1 -22 -18 -22l-234 -2q-9 5 -18 24l10 539q-57 -37 -127 -37q-162 0 -263 141.5t-101 360.5q0 240 129 388q122 140 305 140q41 0 75 -12q2 87 23 86l266 -12q18 -1 17 -27zM526 643h-6q-178 0 -178 -192q0 -154 119 -154q31 0 59 8z" />
<glyph unicode="r" horiz-adv-x="637" d="M616 799q1 -27 -18 -27q-190 0 -262 -137l24 -625q0 -24 -18 -24l-246 -6q-19 -1 -20 24l-39 1139q-1 24 18 24h242q20 0 20 -22l7 -164q115 127 231 127q57 0 57 -29z" />
<glyph unicode="s" horiz-adv-x="754" d="M733 915q0 -9 -141 -229q-5 -8 -14 -8q6 0 -77 59.5t-151 59.5q-59 0 -59 -52q0 -35 113 -90q150 -73 211 -129q114 -105 114 -260q0 -348 -362 -348q-91 0 -186 54q-99 56 -154 145q-4 6 -4 18q0 10 4 17l137 204q5 9 12 9q-4 0 80 -60.5t141 -60.5q68 0 68 61 q0 41 -113 87q-150 62 -210 116q-113 101 -113 274q0 153 127 258q111 93 233 93q91 0 186 -54q98 -57 154 -147q4 -7 4 -17z" />
<glyph unicode="t" horiz-adv-x="585" d="M563 924l-4 -258q0 -26 -18 -25l-148 10l4 -690q0 -10 -6 -17.5t-14 -6.5l-240 2q-19 0 -18 24l14 737l-80 5q-15 0 -16 22q-14 206 -14 215q0 26 18 25l92 -6l-6 301q0 10 5.5 17t12.5 7l234 -2q18 0 18 -24v-3l-16 -296l166 -13q17 -1 16 -24z" />
<glyph unicode="u" horiz-adv-x="860" d="M823 -29q0 -24 -18 -24h-242q-18 0 -18 24v84q-91 -123 -203 -123q-166 0 -243 178q-62 143 -62 379q0 45 16 551q1 27 21 25l239 -21q17 -1 17 -24l-4 -531q0 -221 86 -221q97 0 127 119h2l-6 608q-1 24 18 25l248 8q20 1 20 -24z" />
<glyph unicode="v" horiz-adv-x="886" d="M872 1028q0 -4 -208 -1008q-4 -18 -19 -18h-420q-15 0 -18 18q-193 998 -193 1012q0 25 19 25l264 -6q14 -1 16 -19l117 -747l139 747q4 19 19 19l266 2q18 0 18 -25z" />
<glyph unicode="w" horiz-adv-x="1137" d="M1122 1036l-75 -1018q-2 -19 -19 -20l-293 -12q-13 -1 -18 14l-148 446l-145 -446q-5 -15 -18 -14l-279 12q-17 1 -18 20l-95 1029q0 22 19 22l235 2q19 0 21 -22l41 -666l121 559q4 19 16 19h201q14 0 18 -19l117 -559l45 672q1 23 18 22l240 -12q16 -1 16 -27v-2z" />
<glyph unicode="x" horiz-adv-x="869" d="M856 29q0 -24 -18 -25l-258 -10q-11 -1 -17 10l-129 238l-127 -238q-5 -10 -14 -10l-260 10q-19 1 -19 25q0 10 2 14l260 494l-260 485q-2 4 -2 14q0 25 19 25h274q11 0 17 -10l110 -215l113 215q5 10 16 10h275q18 0 18 -25q0 -6 -4 -14l-258 -485l258 -494q4 -8 4 -14z " />
<glyph unicode="y" horiz-adv-x="846" d="M809 1077q0 -586 -6 -868q-3 -117 -5 -234q-5 -142 -18 -231q-27 -192 -129.5 -299t-251.5 -107q-89 0 -135 27q-14 9 -14 23v315q0 25 22 25q12 0 37 -4.5t37 -4.5q180 0 180 175v163q-89 -118 -200 -118q-303 0 -303 555q0 46 16 553q1 24 20 22l240 -18q17 -2 16 -25 l-4 -530q0 -224 86 -224q97 0 127 117l-4 690q0 10 5.5 17.5t13.5 7.5l252 -2q18 0 18 -25z" />
<glyph unicode="z" horiz-adv-x="813" d="M776 -4q0 -25 -18 -25l-697 11q-17 0 -18 24q-6 246 -6 268q0 12 6 19l410 471l-392 10q-17 1 -18 25q-6 246 -6 252q0 24 18 24l703 2q18 0 18 -24v-287q0 -11 -6 -18l-410 -467l398 4q18 0 18 -27v-262z" />
<glyph unicode="{" horiz-adv-x="1024" d="M905 -414h-80q-242 0 -331 45q-72 37 -95 116q-14 47 -14 155v258q0 127 -46.5 179t-158.5 52q7 0 -16 -2h-19v283h19q23 -2 16 -2q110 0 157.5 53t47.5 178v258q0 109 14 156q22 80 95 117q90 45 331 45h80v-285q7 0 -22 2h-21q-86 0 -116.5 -30.5t-30.5 -127.5v-239 q0 -129 -46 -186.5t-171 -80.5q124 -23 170.5 -79.5t46.5 -184.5v-241q0 -94 30.5 -125t114.5 -31q-8 0 23 2h22v-285z" />
<glyph unicode="|" horiz-adv-x="1024" d="M653 -483h-280v2048h280v-2048z" />
<glyph unicode="}" horiz-adv-x="1024" d="M881 389h-19q-23 2 -16 2q-112 0 -158.5 -52t-46.5 -179v-258q0 -109 -14 -157q-23 -78 -97 -116q-84 -43 -315 -43h-94v283h22q29 -2 21 -2q86 0 116.5 30.5t30.5 127.5v241q0 128 46.5 184.5t170.5 79.5q-126 23 -171.5 79t-45.5 186v241q0 97 -30.5 127.5t-116.5 30.5 h-21q-28 -2 -22 -2v285h80q241 0 329 -45q74 -38 97 -116q14 -49 14 -157v-258q0 -125 47.5 -178t157.5 -53q-7 0 16 2h19v-283z" />
<glyph unicode="~" d="M1530 543q-197 -133 -371 -133q-51 0 -112 12q-54 11 -154 45q-203 70 -332 70q-162 0 -383 -158v299q117 73 217 108t191 35q113 0 278 -53q2 0 64 -23q149 -53 235 -53q167 0 367 150v-299z" />
<glyph unicode="&#xa1;" horiz-adv-x="430" d="M59 -33l11 1065q0 25 18 25l260 -4q19 -1 19 -25l-17 -1061q0 -24 -18 -24h-254q-19 0 -19 24zM31 1307q0 70 65 111q51 32 111 32q62 0 115 -33q65 -42 65 -117q0 -68 -66 -109q-52 -32 -110 -32q-59 0 -113 34q-67 43 -67 114z" />
<glyph unicode="&#xa2;" horiz-adv-x="703" d="M668 453l-11 -246q0 -21 -35 -30q-51 -13 -128 -9q1 -35 2 -88q-1 -29 -21 -35q-5 -1 -53 -6q-21 -2 -21 24v119q-162 41 -257 161q-107 134 -107 345q0 243 94.5 397t274.5 191v168q0 26 20 24l57 -4q19 -1 19 -24v-156q87 -4 135 -31q12 -6 12 -22l-2 -309 q0 -25 -18 -25h-4q-18 0 -51.5 6t-51.5 6h-24l-2 -446h22q22 0 64 8t63 8h4q20 0 19 -26zM403 481v406q-116 -58 -116 -217q0 -140 116 -189z" />
<glyph unicode="&#xa3;" horiz-adv-x="923" d="M887 844q0 -28 -23 -25l-237 33q-12 2 -16 21q-2 14 -1 41q2 38 2 36q0 199 -96 199t-100 -227q-1 -70 -6 -207l196 -4q19 -1 19 -25l-2 -199q-1 -22 -19 -22l-201 4l-4 -193l467 -53q17 -2 17 -24l-4 -172q-1 -24 -19 -23l-725 31q-17 1 -16 26l10 414l-74 2 q-16 1 -16 25l-2 194q0 11 5.5 18t12.5 7l80 -2l6 235q14 514 379 514q367 0 367 -497v-127z" />
<glyph unicode="&#xa4;" horiz-adv-x="1071" d="M1034 57q0 -10 -4 -16q-49 -76 -156 -116q-87 -34 -180 -34q-190 0 -329 127q-150 137 -187 379l-121 2q-18 1 -18 25l-2 104q0 10 5.5 17.5t12.5 7.5q75 -1 109 0q0 24 2 80h-109q-18 0 -18 24l-2 107q0 10 5.5 18.5t12.5 8.5l127 -5q52 285 252 431q171 124 410 124 q34 0 37 -20l41 -354q3 -29 -21 -29q-10 0 -31.5 2t-31.5 2q-219 0 -322 -158l203 -2q18 0 18 -24q0 1 -26 -117q-4 -16 -17 -16l-225 2q-4 -43 -4 -78l209 -2q18 0 18 -25q0 3 -26 -114q-5 -19 -19 -19l-145 2q72 -117 207 -117q115 0 252 111q5 4 8 4q15 0 18 -18z" />
<glyph unicode="&#xa5;" horiz-adv-x="1005" d="M969 1294q0 -2 -209 -569h65q19 0 19 -25l-4 -168q-1 -24 -19 -24l-141 2l-31 -86l176 -2q19 0 19 -25l-4 -168q-1 -25 -19 -24l-170 4l2 -162q1 -24 -16 -24l-289 -9q-18 0 -18 25l-2 176l-195 2q-18 0 -18 25l-2 164q0 10 5 17t13 7l197 -2l-31 90l-164 2q-18 0 -18 25 l-2 164q0 10 5 17t13 7l94 -2q-188 564 -188 567q0 27 18 27l291 -6q15 0 19 -16l131 -545l145 545q4 16 18 16h291q19 0 19 -25z" />
<glyph unicode="&#xa6;" horiz-adv-x="1024" d="M653 674h-280v758h280v-758zM653 -350h-280v758h280v-758z" />
<glyph unicode="&#xa7;" horiz-adv-x="1024" d="M1012 635q0 -203 -174 -273q61 -52 89.5 -113.5t28.5 -135.5q0 -171 -133 -260q-115 -76 -295 -76q-446 0 -450 391h305v-8q0 -64 38 -106t101 -42q45 0 78 23q37 27 37 69t-150 117l-8 4l-153 60q-314 121 -314 370q0 179 176 279q-104 90 -104 237q0 162 108.5 252 t301.5 90q440 0 446 -368h-313q0 65 -33.5 101t-91.5 36q-47 0 -76 -22.5t-29 -59.5t39 -70q34 -28 121 -65l160 -68q148 -62 221.5 -151.5t73.5 -210.5zM725 594q0 61 -168 135q-103 45 -166 78q-96 -54 -96 -121q0 -55 174 -125q101 -40 166 -69q90 32 90 102z" />
<glyph unicode="&#xa8;" horiz-adv-x="780" d="M682 1243q0 -65 -46 -105q-40 -36 -91 -36t-93 36q-46 40 -46 105t46 107q42 36 93 36q50 0 91 -36q46 -42 46 -107zM375 1243q0 -65 -46 -105q-41 -36 -91 -36q-52 0 -93 36q-47 40 -47 105t47 107q42 36 93 36q50 0 91 -36q46 -42 46 -107z" />
<glyph unicode="&#xa9;" d="M1606 741q0 -315 -217 -526q-232 -225 -537 -225q-304 0 -528 223q-222 220 -222 528q0 311 224 537q212 215 526 215q318 0 537 -219q105 -106 161 -242.5t56 -290.5zM1452 743q0 248 -175 423t-423 175q-251 0 -420 -172q-88 -90 -133 -197t-45 -229q0 -245 176 -421.5 t422 -176.5q122 0 229 45t197 134q172 169 172 419zM1239 627q-6 -158 -117 -245q-102 -81 -264 -81q-195 0 -306.5 116t-111.5 320q0 192 103 315q109 132 297 132q161 0 263 -69q117 -79 126 -232h-242q-3 61 -39 98t-92 37q-156 0 -156 -273q0 -262 164 -262 q121 0 127 144h248z" />
<glyph unicode="&#xaa;" horiz-adv-x="548" d="M512 1192q0 -40 -12 -297q-2 -64 -8 -162q-4 -22 -19 -22l-106 -2q-19 -1 -19 24q0 10 2 30.5t2 27.5q-65 -31 -127 -31q-188 0 -188 201q0 115 96 171q72 42 172 42q40 0 64 -5v33q0 92 -66 92q-34 0 -53.5 -33t-24.5 -34l-125 -25q-22 -4 -22 25q0 3 2 10 q55 199 213 199q219 0 219 -244zM362 1030q-19 2 -32 2q-103 0 -103 -78q0 -67 74 -67q22 0 55 8z" />
<glyph unicode="&#xab;" horiz-adv-x="915" d="M879 928q0 -8 -5 -15l-251 -401l239 -332q4 -5 4 -18q0 -12 -39 -139q-4 -15 -18 -15q-8 0 -12 4l-351 359q-7 7 -8 18q-14 260 -14 238q0 9 6 16l358 424q6 6 13 6q9 0 14 -10q64 -130 64 -135zM489 928q0 -11 -2 -15l-251 -401l239 -332q4 -5 4 -18q0 -5 -41 -139 q-4 -15 -16 -15q-8 0 -12 4l-353 359q-7 7 -8 18q-12 222 -12 238q0 9 6 16l358 424q6 6 13 6q9 0 14 -10q61 -126 61 -135z" />
<glyph unicode="&#xac;" d="M1452 367h-272v235h-926v266h1198v-501z" />
<glyph unicode="&#xad;" horiz-adv-x="821" d="M784 350q0 -24 -18 -24h-711q-19 0 -18 26l6 279q1 24 18 24h705q18 0 18 -26v-279z" />
<glyph unicode="&#xae;" d="M1606 741q0 -315 -217 -526q-232 -225 -537 -225q-304 0 -528 223q-222 220 -222 528q0 311 224 537q212 215 526 215q318 0 537 -219q105 -106 161 -242.5t56 -290.5zM1452 743q0 248 -175 423t-423 175q-251 0 -420 -172q-88 -90 -133 -197t-45 -229q0 -245 176 -421.5 t422 -176.5q122 0 229 45t197 134q172 169 172 419zM1233 352h-279l-145 312h-25v-312h-256v813h334q174 0 265.5 -60.5t91.5 -178.5q0 -163 -164 -219zM956 911q0 95 -133 95h-39v-193h54q118 0 118 98z" />
<glyph unicode="&#xaf;" horiz-adv-x="780" d="M645 1155q0 -25 -18 -25l-473 21q-19 1 -19 27q0 32 6 229q1 25 19 25l467 -7q18 0 18 -24v-246z" />
<glyph unicode="&#x2c9;" horiz-adv-x="780" d="M645 1155q0 -25 -18 -25l-473 21q-19 1 -19 27q0 32 6 229q1 25 19 25l467 -7q18 0 18 -24v-246z" />
<glyph unicode="&#xb0;" horiz-adv-x="674" d="M659 1149q0 -135 -94 -228.5t-229 -93.5t-227 93q-95 93 -95 229t94.5 230t229.5 94t228 -94.5t93 -229.5zM489 1151q0 63 -45 107.5t-108 44.5q-64 0 -107 -43.5t-43 -108.5t43.5 -109.5t108.5 -44.5q63 0 107 45.5t44 108.5z" />
<glyph unicode="&#xb1;" d="M1452 680h-459v-309h-280v309h-459v272h459v310h280v-310h459v-272zM1452 -41h-1198v272h1198v-272z" />
<glyph unicode="&#xb2;" horiz-adv-x="510" d="M473 1176q0 -106 -69 -177q-35 -36 -128 -88q-69 -39 -69 -67v-8h221q18 0 18 -25v-127q0 -25 -18 -25h-373q-18 0 -18 25v96q0 129 72 210q41 47 133 96q71 39 71 63q0 43 -45 43q-35 0 -84.5 -39t-50.5 -39q-8 0 -14 10q-80 133 -80 142t4 16q34 58 92.5 94.5 t114.5 36.5q223 0 223 -237z" />
<glyph unicode="&#xb3;" horiz-adv-x="507" d="M471 844q0 -215 -225 -215q-54 0 -110 31q-60 32 -93 83q-6 10 -6 19q0 7 80 127q5 8 14 8l51.5 -35t85.5 -35q43 0 43 39q0 66 -110 66q-19 0 -19 24v117q0 25 33 25q96 0 96 67q0 35 -41 35t-91 -35t-48 -35q-11 0 -16 9q-78 121 -78 133q0 10 4 16q33 52 95 84 q57 31 112 31q75 0 144 -56q79 -65 79 -159q0 -108 -80 -176q80 -72 80 -168z" />
<glyph unicode="&#xb4;" horiz-adv-x="780" d="M561 1411q0 -10 -6 -18l-233 -306q-7 -8 -15 -8q-7 0 -12 6l-70 89q-6 7 -6 18t2 14l195 340q4 8 14 8q9 0 12 -4l111 -120q8 -9 8 -19z" />
<glyph unicode="&#xb5;" horiz-adv-x="1372" d="M1327 1087l-158 -1087h-368l18 131q-37 -70 -82 -102.5t-106 -32.5t-105.5 31.5t-70.5 93.5l-72 -543h-412l209 1509h422l-84 -614l-4 -33v-20q0 -133 127 -133q79 0 124 52t60 161l84 587h418z" />
<glyph unicode="&#x3bc;" horiz-adv-x="1372" d="M1327 1087l-158 -1087h-368l18 131q-37 -70 -82 -102.5t-106 -32.5t-105.5 31.5t-70.5 93.5l-72 -543h-412l209 1509h422l-84 -614l-4 -33v-20q0 -133 127 -133q79 0 124 52t60 161l84 587h418z" />
<glyph unicode="&#xb6;" horiz-adv-x="1024" d="M1014 1337h-101v-1337h-202v1337h-140v-1337h-202v784q-158 8 -255 98q-104 94 -104 248q0 165 115 260q107 89 274 89h615v-142z" />
<glyph unicode="&#xb7;" horiz-adv-x="674" d="M553 717q0 -90 -63.5 -152.5t-153.5 -62.5q-93 0 -154 61t-61 154q0 94 61 155.5t154 61.5q91 0 154 -63t63 -154z" />
<glyph unicode="&#x2219;" horiz-adv-x="674" d="M553 717q0 -90 -63.5 -152.5t-153.5 -62.5q-93 0 -154 61t-61 154q0 94 61 155.5t154 61.5q91 0 154 -63t63 -154z" />
<glyph unicode="&#xb8;" horiz-adv-x="780" d="M700 -473q0 -142 -80 -227q-75 -78 -184 -78q-115 0 -210 83t-146 224v10q0 25 18 25q3 0 8 -4q159 -123 256 -123q107 0 107 137q0 149 -217 160q-19 1 -19 24q0 2 123 283q6 12 15 12h110q19 0 19 -24q0 -2 -58 -197q108 -11 178 -85q80 -83 80 -220z" />
<glyph unicode="&#xb9;" horiz-adv-x="238" d="M201 1339l-13 -655q0 -24 -18 -25l-115 -4q-7 0 -12.5 8t-5.5 19l6 661q0 26 18 25l121 -4q19 -1 19 -25z" />
<glyph unicode="&#xba;" horiz-adv-x="559" d="M522 1063q0 -154 -52 -252q-60 -111 -171 -111q-121 0 -191.5 90.5t-70.5 251.5q0 166 50 269q59 121 177 121q123 0 192 -104q66 -100 66 -265zM348 1057q0 110 -74 110q-35 0 -56 -47q-17 -40 -17 -92q0 -110 71 -110q76 0 76 139z" />
<glyph unicode="&#xbb;" horiz-adv-x="915" d="M879 625q0 23 -15 -236q0 -13 -6 -18l-352 -359q-4 -4 -10 -4q-14 0 -19 15q-41 134 -41 139q0 13 4 18l240 332l-252 401q-4 7 -4 15q0 5 63 135q5 10 15 10q7 0 12 -6l358 -424q7 -7 7 -18zM489 625q0 -14 -12 -236q-1 -13 -6 -18l-352 -359q-4 -4 -13 -4q-12 0 -16 15 q-41 134 -41 139q0 13 4 18l240 332l-252 401q-4 7 -4 15q0 9 61 135q5 10 17 10q7 0 12 -6l356 -424q6 -7 6 -18z" />
<glyph unicode="&#xbc;" horiz-adv-x="982" d="M287 1339l-13 -655q0 -24 -18 -25l-115 -4q-7 0 -12.5 8t-5.5 19l6 661q0 26 18 25l121 -4q19 -1 19 -25zM907 1417q0 -6 -4 -14l-690 -1368q-6 -12 -14 -12l-142 -9q-20 -1 -20 25q0 6 4 14l688 1381q6 12 16 12l144 -4q18 -1 18 -25zM944 199q0 -22 -19 -25q3 0 -30 0 l-2 -131q0 -24 -16 -25l-117 -4q-19 0 -19 25v135h-254q-18 0 -18 25q0 6 2 12l184 496q6 14 19 14l205 4q7 0 12.5 -7t5.5 -18l-2 -368q49 0 49 -25v-108zM741 332l-2 198l-75 -198h77z" />
<glyph unicode="&#xbd;" horiz-adv-x="1069" d="M287 1339l-13 -655q0 -24 -18 -25l-115 -4q-7 0 -12.5 8t-5.5 19l6 661q0 26 18 25l121 -4q19 -1 19 -25zM1032 530q0 -105 -69 -175q-35 -36 -128 -88q-69 -39 -69 -66v-8h221q19 0 19 -25v-127q0 -25 -19 -25h-373q-18 0 -18 25v96q0 129 72 210q41 47 133 96 q71 39 71 63q0 43 -43 43q-35 0 -85.5 -39t-51.5 -39q-8 0 -14 10q-80 133 -80 142t4 16q34 58 92.5 94.5t114.5 36.5q223 0 223 -240zM907 1417q0 -6 -4 -14l-690 -1368q-6 -12 -14 -12l-142 -9q-20 -1 -20 25q0 6 4 14l688 1381q6 12 16 12l144 -4q18 -1 18 -25z" />
<glyph unicode="&#xbe;" horiz-adv-x="1129" d="M1053 1417q0 -6 -4 -14l-689 -1368q-5 -12 -16 -12l-141 -9q-19 -1 -19 25q0 6 4 14l689 1381q6 12 16 12l141 -4q19 -1 19 -25zM471 844q0 -215 -225 -215q-54 0 -110 31q-60 32 -93 83q-6 10 -6 19q0 7 80 127q5 8 14 8l51.5 -35t85.5 -35q43 0 43 39q0 66 -110 66 q-19 0 -19 24v117q0 25 33 25q96 0 96 67q0 35 -41 35t-91 -35t-48 -35q-11 0 -16 9q-78 121 -78 133q0 10 4 16q33 52 95 84q57 31 112 31q75 0 144 -56q79 -65 79 -159q0 -108 -80 -176q80 -72 80 -168zM1092 199q0 -22 -20 -25q4 0 -30 0l-2 -131q0 -24 -18 -25l-115 -4 q-20 0 -20 25v135h-252q-19 0 -19 25q0 6 2 12l185 496q5 14 16 14l205 4q10 -5 20 -25l-2 -368q50 0 50 -25v-108zM887 332v198l-76 -198h76z" />
<glyph unicode="&#xbf;" horiz-adv-x="957" d="M27 426q0 117 65 237q37 68 132 191q62 81 86 120q41 69 59 144q5 21 19 21h303q18 0 18 -27q0 -190 -229 -438q-123 -133 -123 -197q0 -78 82 -78q66 0 139 54q24 18 123 108q4 4 14 4q8 0 13 -8l180 -299q2 -3 2 -14t-2 -15q-71 -127 -192 -206.5t-240 -79.5 q-201 0 -315 105q-134 124 -134 378zM357 1393q0 70 66 111q52 32 112 32q62 0 114 -33q64 -42 64 -117q0 -68 -66 -109q-52 -32 -110 -32q-59 0 -113 34q-67 43 -67 114z" />
<glyph unicode="&#xc0;" horiz-adv-x="986" d="M981 -49q0 -25 -18 -25l-295 6q-16 1 -19 21l-35 270h-241l-35 -235q-3 -21 -19 -21l-294 -2q-19 0 -19 25v6l242 1390q3 21 18 21h459q15 0 18 -21zM569 551l-67 500l-78 -500h145zM607 1663q0 -11 -6 -18l-70 -89q-4 -6 -12 -6t-14 9l-234 305q-6 8 -6 18q0 12 6 19 l113 120q4 4 12 4q10 0 15 -8l194 -340q2 -3 2 -14z" />
<glyph unicode="&#xc1;" horiz-adv-x="986" d="M981 -49q0 -25 -18 -25l-295 6q-16 1 -19 21l-35 270h-241l-35 -235q-3 -21 -19 -21l-294 -2q-19 0 -19 25v6l242 1390q3 21 18 21h459q15 0 18 -21zM569 551l-67 500l-78 -500h145zM730 1862q0 -11 -6 -19l-234 -305q-6 -8 -14 -8q-7 0 -12 6l-70 88q-6 8 -6 18 q0 11 2 15l195 340q4 8 14 8q9 0 12 -4l111 -121q8 -9 8 -18z" />
<glyph unicode="&#xc2;" horiz-adv-x="986" d="M981 -49q0 -25 -18 -25l-295 6q-16 1 -19 21l-35 270h-241l-35 -235q-3 -21 -19 -21l-294 -2q-19 0 -19 25v6l242 1390q3 21 18 21h459q15 0 18 -21zM569 551l-67 500l-78 -500h145zM812 1642q0 -7 -55 -118q-5 -11 -17 -11q-3 0 -8 5l-235 215l-226 -203q-4 -4 -10 -4 q-9 0 -14 8l-58 94q-4 7 -4 17t4 16l218 301q3 5 12 6q150 14 145 14q7 0 13 -8l229 -313q6 -8 6 -19z" />
<glyph unicode="&#xc3;" horiz-adv-x="986" d="M981 -49q0 -25 -18 -25l-295 6q-16 1 -19 21l-35 270h-241l-35 -235q-3 -21 -19 -21l-294 -2q-19 0 -19 25v6l242 1390q3 21 18 21h459q15 0 18 -21zM569 551l-67 500l-78 -500h145zM753 1597q0 -47 -113 -47q-55 0 -159 43t-158 43q-11 0 -31 -5t-31 -5q-19 0 -18 25 l6 221q1 47 117 47q51 0 148 -39t149 -39q12 0 36 7t35 7q19 0 19 -24v-234z" />
<glyph unicode="&#xc4;" horiz-adv-x="986" d="M981 -49q0 -25 -18 -25l-295 6q-16 1 -19 21l-35 270h-241l-35 -235q-3 -21 -19 -21l-294 -2q-19 0 -19 25v6l242 1390q3 21 18 21h459q15 0 18 -21zM569 551l-67 500l-78 -500h145zM789 1673q0 -65 -45 -105q-41 -36 -92 -36t-92 36q-47 40 -47 105t47 107q41 37 92 37 t92 -37q45 -42 45 -107zM482 1673q0 -65 -46 -105q-40 -36 -91 -36t-92 36q-47 40 -47 105t47 107q41 37 92 37t91 -37q46 -42 46 -107z" />
<glyph unicode="&#xc5;" horiz-adv-x="986" d="M981 -49q0 -25 -18 -25l-295 6q-16 1 -19 21l-35 270h-241l-35 -235q-3 -21 -19 -21l-294 -2q-19 0 -19 25v6l242 1390q3 21 18 21h113q-90 64 -90 184q0 97 62 162q58 59 132 59q75 0 132 -59q61 -65 61 -162q0 -120 -90 -184h139q15 0 18 -21zM555 1591q0 70 -72 70 q-26 0 -48 -17q-25 -20 -25 -53t25 -52q22 -17 48 -17q72 0 72 69zM569 551l-67 500l-78 -500h145z" />
<glyph unicode="&#xc6;" horiz-adv-x="1485" d="M1448 4q0 -24 -18 -24l-738 -3q-18 0 -18 25l2 258h-242l-67 -235q-4 -15 -19 -15l-293 -2q-18 0 -18 25q0 5 432 1368q5 14 18 14h943q18 0 18 -26v-279q0 -25 -18 -25h-420l-2 -231h335q19 0 19 -25v-280q0 -25 -19 -25h-337l-2 -215h426q18 0 18 -24v-281zM678 1075 l-148 -495h146z" />
<glyph unicode="&#xc7;" horiz-adv-x="988" d="M950 119q0 -10 -4 -17q-52 -81 -165 -126q-94 -37 -191 -37h-17l-38 -127q107 -11 177 -85q81 -84 81 -221q0 -142 -81 -227q-74 -78 -184 -78q-115 0 -210 83.5t-146 223.5v11q0 24 18 24q3 0 9 -4q158 -123 256 -123q106 0 106 138q0 148 -217 159q-18 1 -18 25 q0 13 96 227q-184 60 -289 239q-110 188 -110 464q0 409 212 627q193 198 513 198q38 0 40 -20l43 -386q3 -26 -20 -26q-11 0 -33.5 2t-34.5 2q-168 0 -273 -86q-126 -104 -126 -315q0 -152 73 -235q69 -77 185 -77q128 0 270 119q8 6 11 6q15 0 18 -20z" />
<glyph unicode="&#xc8;" horiz-adv-x="839" d="M803 25q0 -25 -19 -25h-727q-18 0 -18 25l-2 1384q0 25 18 25h729q19 0 19 -25v-279q0 -24 -19 -24h-424v-234h336q19 0 19 -24v-279q0 -24 -19 -24h-338l-2 -217h428q19 0 19 -25v-278zM546 1642q0 -10 -6 -18l-70 -88q-5 -6 -12 -6q-8 0 -15 8l-233 305q-6 8 -6 19 t6 18l113 121q3 4 12 4t14 -8l195 -340q2 -4 2 -15z" />
<glyph unicode="&#xc9;" horiz-adv-x="839" d="M803 25q0 -25 -19 -25h-727q-18 0 -18 25l-2 1384q0 25 18 25h729q19 0 19 -25v-279q0 -24 -19 -24h-424v-234h336q19 0 19 -24v-279q0 -24 -19 -24h-338l-2 -217h428q19 0 19 -25v-278zM653 1862q0 -11 -6 -19l-233 -305q-7 -8 -15 -8q-7 0 -12 6l-70 88q-6 8 -6 18 q0 11 2 15l195 340q5 8 14 8t13 -4l110 -121q8 -9 8 -18z" />
<glyph unicode="&#xca;" horiz-adv-x="839" d="M803 25q0 -25 -19 -25h-727q-18 0 -18 25l-2 1384q0 25 18 25h729q19 0 19 -25v-279q0 -24 -19 -24h-424v-234h336q19 0 19 -24v-279q0 -24 -19 -24h-338l-2 -217h428q19 0 19 -25v-278zM720 1663q0 -7 -55 -119q-6 -10 -17 -10q-4 0 -8 4l-236 215l-225 -203 q-4 -4 -10 -4q-9 0 -14 8l-58 95q-4 6 -4 16q0 11 4 16l217 301q4 6 13 7q150 14 145 14q6 0 12 -8l230 -314q6 -8 6 -18z" />
<glyph unicode="&#xcb;" horiz-adv-x="839" d="M803 25q0 -25 -19 -25h-727q-18 0 -18 25l-2 1384q0 25 18 25h729q19 0 19 -25v-279q0 -24 -19 -24h-424v-234h336q19 0 19 -24v-279q0 -24 -19 -24h-338l-2 -217h428q19 0 19 -25v-278zM713 1694q0 -65 -46 -106q-41 -36 -92 -36t-92 36q-47 41 -47 106t47 106 q42 37 92 37q51 0 92 -37q46 -41 46 -106zM405 1694q0 -65 -45 -106q-41 -36 -92 -36t-92 36q-47 41 -47 106t47 106q41 37 92 37t92 -37q45 -41 45 -106z" />
<glyph unicode="&#xcc;" horiz-adv-x="413" d="M377 1362l-25 -1368q0 -24 -18 -25l-279 -6q-7 0 -12.5 7t-5.5 18l14 1382q0 25 19 25l288 -6q19 -1 19 -27zM346 1663q0 -11 -6 -18l-70 -89q-5 -6 -12 -6q-8 0 -14 9l-234 305q-6 8 -6 18q0 12 6 19l113 120q4 4 12 4q10 0 14 -8l195 -340q2 -3 2 -14z" />
<glyph unicode="&#xcd;" horiz-adv-x="413" d="M377 1362l-25 -1368q0 -24 -18 -25l-279 -6q-7 0 -12.5 7t-5.5 18l14 1382q0 25 19 25l288 -6q19 -1 19 -27zM469 1862q0 -11 -6 -19l-234 -305q-6 -8 -14 -8q-7 0 -12 6l-70 88q-6 8 -6 18q0 11 2 15l195 340q4 8 14 8q8 0 12 -4l111 -121q8 -9 8 -18z" />
<glyph unicode="&#xce;" horiz-adv-x="413" d="M377 1362l-25 -1368q0 -24 -18 -25l-279 -6q-7 0 -12.5 7t-5.5 18l14 1382q0 25 19 25l288 -6q19 -1 19 -27zM536 1663q0 -7 -56 -119q-5 -10 -16 -10q-4 0 -8 4l-236 215l-225 -203q-5 -4 -10 -4q-10 0 -15 8l-57 95q-4 6 -4 16q0 11 4 16l217 301q4 6 12 7 q150 14 146 14q6 0 12 -8l229 -314q7 -8 7 -18z" />
<glyph unicode="&#xcf;" horiz-adv-x="413" d="M377 1362l-25 -1368q0 -24 -18 -25l-279 -6q-7 0 -12.5 7t-5.5 18l14 1382q0 25 19 25l288 -6q19 -1 19 -27zM513 1673q0 -65 -46 -105q-40 -36 -91 -36t-92 36q-47 40 -47 105t47 107q41 37 92 37q50 0 91 -37q46 -42 46 -107zM206 1673q0 -65 -46 -105q-40 -36 -91 -36 q-52 0 -93 36q-47 40 -47 105t47 107q42 37 93 37q50 0 91 -37q46 -42 46 -107z" />
<glyph unicode="&#xd0;" horiz-adv-x="938" d="M918 666q0 -428 -286 -625q-220 -152 -575 -152q-18 0 -18 25l-2 600h-84q-19 0 -19 27l7 278q0 25 18 25h78v573q0 25 18 25q356 0 576 -152q287 -197 287 -624zM582 666q0 127 -51 228q-57 116 -148 116v-166h51q19 0 19 -27v-278q0 -25 -19 -25h-51v-192q92 0 149 115 q50 100 50 229z" />
<glyph unicode="&#xd1;" horiz-adv-x="969" d="M932 1358l-8 -1370q0 -22 -17 -23l-268 -14q-11 -1 -16 14l-283 807l-6 -784q0 -22 -19 -23l-256 -14q-20 -1 -20 24l-2 1383q0 27 18 26l279 -2q9 0 14 -14l283 -803l-2 793q0 27 18 26l266 -2q19 0 19 -24zM707 1556q0 -47 -113 -47q-55 0 -159 43t-159 43 q-10 0 -30.5 -5t-30.5 -5q-19 0 -18 25l6 221q1 47 116 47q52 0 149 -39t148 -39q13 0 37 7.5t35 7.5q19 0 19 -25v-234z" />
<glyph unicode="&#xd2;" horiz-adv-x="1063" d="M1042 627q0 -293 -130 -507q-140 -229 -355 -229q-251 0 -395 206q-139 200 -139 538q0 330 145 550q153 230 397 230q218 0 355 -256q122 -230 122 -532zM741 616q0 127 -52 228q-59 112 -150 112q-92 0 -151 -112q-52 -101 -52 -228q0 -126 52 -227q59 -113 151 -113 q91 0 150 113q52 101 52 227zM684 1642q0 -10 -6 -18l-70 -88q-5 -6 -12 -6q-8 0 -14 8l-234 305q-6 8 -6 19t6 18l113 121q4 4 12 4q10 0 14 -8l195 -340q2 -4 2 -15z" />
<glyph unicode="&#xd3;" horiz-adv-x="1063" d="M1042 627q0 -293 -130 -507q-140 -229 -355 -229q-251 0 -395 206q-139 200 -139 538q0 330 145 550q153 230 397 230q218 0 355 -256q122 -230 122 -532zM741 616q0 127 -52 228q-59 112 -150 112q-92 0 -151 -112q-52 -101 -52 -228q0 -126 52 -227q59 -113 151 -113 q91 0 150 113q52 101 52 227zM684 1841q0 -10 -6 -18l-234 -305q-6 -9 -14 -9q-7 0 -12 7l-70 88q-6 7 -6 18t2 14l195 340q4 9 14 9q8 0 12 -5l111 -120q8 -9 8 -19z" />
<glyph unicode="&#xd4;" horiz-adv-x="1063" d="M1042 627q0 -293 -130 -507q-140 -229 -355 -229q-251 0 -395 206q-139 200 -139 538q0 330 145 550q153 230 397 230q218 0 355 -256q122 -230 122 -532zM741 616q0 127 -52 228q-59 112 -150 112q-92 0 -151 -112q-52 -101 -52 -228q0 -126 52 -227q59 -113 151 -113 q91 0 150 113q52 101 52 227zM873 1622q0 -7 -55 -119q-5 -10 -16 -10q-4 0 -8 4l-236 215l-225 -203q-5 -4 -10 -4q-10 0 -15 8l-57 95q-4 6 -4 16q0 11 4 16l217 302q4 5 12 6q150 14 146 14q6 0 12 -8l229 -314q6 -8 6 -18z" />
<glyph unicode="&#xd5;" horiz-adv-x="1063" d="M1042 627q0 -293 -130 -507q-140 -229 -355 -229q-251 0 -395 206q-139 200 -139 538q0 330 145 550q153 230 397 230q218 0 355 -256q122 -230 122 -532zM741 616q0 127 -52 228q-59 112 -150 112q-92 0 -151 -112q-52 -101 -52 -228q0 -126 52 -227q59 -113 151 -113 q91 0 150 113q52 101 52 227zM783 1618q0 -47 -112 -47q-55 0 -159 43t-159 43q-10 0 -30.5 -5t-30.5 -5q-19 0 -19 24l7 221q1 47 116 47q51 0 148.5 -38.5t148.5 -38.5q13 0 37 7t35 7q18 0 18 -25v-233z" />
<glyph unicode="&#xd6;" horiz-adv-x="1063" d="M1042 627q0 -293 -130 -507q-140 -229 -355 -229q-251 0 -395 206q-139 200 -139 538q0 330 145 550q153 230 397 230q218 0 355 -256q122 -230 122 -532zM741 616q0 127 -52 228q-59 112 -150 112q-92 0 -151 -112q-52 -101 -52 -228q0 -126 52 -227q59 -113 151 -113 q91 0 150 113q52 101 52 227zM805 1673q0 -65 -46 -105q-40 -36 -91 -36q-52 0 -93 36q-47 40 -47 105t47 107q42 37 93 37q50 0 91 -37q46 -42 46 -107zM498 1673q0 -65 -46 -105q-41 -36 -92 -36t-92 36q-47 40 -47 105t47 107q42 37 92 37q51 0 92 -37q46 -42 46 -107z " />
<glyph unicode="&#xd7;" d="M1495 184l-195 -194l-426 426l-425 -426l-195 194l426 426l-426 426l195 195l425 -426l426 426l195 -195l-426 -426z" />
<glyph unicode="&#xd8;" horiz-adv-x="1063" d="M1042 627q0 -293 -130 -507q-140 -229 -355 -229q-57 0 -100 9l-17 -58q-4 -16 -16 -16l-203 -8q-20 -1 -20 24q8 38 43 162q-221 193 -221 631q0 330 145 550q153 230 397 230q35 0 72 -8l31 109q4 16 16 16l209 -4q18 -1 18 -25q0 -1 -65 -233q93 -113 146 -293 q50 -170 50 -350zM741 616q0 88 -30 175l-146 -512q80 17 131 124q45 98 45 213zM510 954q-79 -17 -129 -125q-45 -97 -45 -213q0 -89 31 -176z" />
<glyph unicode="&#xd9;" horiz-adv-x="971" d="M934 1288l-14 -782q-12 -608 -449 -608q-434 0 -434 589q0 -49 8 807q0 26 21 25l294 -23q19 -1 19 -24l-14 -762q0 -231 112 -231q115 0 117 266l6 733q0 24 18 25l297 10q8 0 13.5 -7t5.5 -18zM607 1520q0 -11 -6 -19l-70 -88q-4 -6 -12 -6t-14 8l-234 305q-6 8 -6 19 q0 12 6 18l113 121q4 4 12 4q10 0 15 -8l194 -340q2 -4 2 -14z" />
<glyph unicode="&#xda;" horiz-adv-x="971" d="M934 1288l-14 -782q-12 -608 -449 -608q-434 0 -434 589q0 -49 8 807q0 26 21 25l294 -23q19 -1 19 -24l-14 -762q0 -231 112 -231q115 0 117 266l6 733q0 24 18 25l297 10q8 0 13.5 -7t5.5 -18zM699 1739q0 -11 -6 -19l-233 -305q-6 -8 -15 -8q-7 0 -12 6l-69 88 q-7 8 -7 19q0 10 2 14l195 340q5 8 14 8t13 -4l110 -121q8 -9 8 -18z" />
<glyph unicode="&#xdb;" horiz-adv-x="971" d="M934 1288l-14 -782q-12 -608 -449 -608q-434 0 -434 589q0 -49 8 807q0 26 21 25l294 -23q19 -1 19 -24l-14 -762q0 -231 112 -231q115 0 117 266l6 733q0 24 18 25l297 10q8 0 13.5 -7t5.5 -18zM797 1581q0 -7 -56 -119q-5 -10 -16 -10q-4 0 -8 4l-236 215l-225 -203 q-5 -4 -10 -4q-10 0 -15 9l-57 94q-4 6 -4 16q0 11 4 16l217 302q4 5 12 6q150 14 146 14q6 0 12 -8l230 -314q6 -8 6 -18z" />
<glyph unicode="&#xdc;" horiz-adv-x="971" d="M934 1288l-14 -782q-12 -608 -449 -608q-434 0 -434 589q0 -49 8 807q0 26 21 25l294 -23q19 -1 19 -24l-14 -762q0 -231 112 -231q115 0 117 266l6 733q0 24 18 25l297 10q8 0 13.5 -7t5.5 -18zM789 1612q0 -65 -45 -106q-41 -36 -92 -36t-92 36q-47 41 -47 106t47 106 q41 37 92 37t92 -37q45 -41 45 -106zM482 1612q0 -65 -46 -106q-40 -36 -91 -36t-92 36q-47 41 -47 106t47 106q41 37 92 37t91 -37q46 -41 46 -106z" />
<glyph unicode="&#xdd;" horiz-adv-x="1011" d="M997 1300q0 -6 -336 -921l5 -404q0 -24 -19 -24l-307 -8q-18 -1 -18 24v412q-308 923 -308 928q0 25 19 24l309 -6q15 0 18 -16l136 -578l155 578q5 16 17 16h311q18 0 18 -25zM761 1739q0 -11 -6 -19l-234 -305q-6 -8 -14 -8t-12 6l-70 88q-6 8 -6 19q0 10 2 14l194 340 q5 8 15 8q8 0 12 -4l111 -121q8 -9 8 -18z" />
<glyph unicode="&#xde;" horiz-adv-x="920" d="M883 739q0 -264 -157 -424q-141 -143 -347 -151l-4 -144q-1 -21 -17 -22l-297 -27q-20 -2 -20 25l-4 1485q0 25 18 24l324 -14q17 -1 18 -25q1 -18 0 -143q251 -40 354 -143q132 -133 132 -441zM590 702q0 109 -57 169q-52 57 -136 57h-10l-4 -432q207 24 207 206z" />
<glyph unicode="&#xdf;" horiz-adv-x="954" d="M918 403q0 -224 -149 -341q-123 -97 -304 -97q-19 0 -19 25q0 75 3 174q-1 26 2 76q2 17 16 21t41 11q104 39 104 160q0 106 -100 143q-16 4 -47 13q-19 6 -19 24l5 217q0 18 15 22.5l46 14.5q100 39 100 142q0 71 -31.5 118.5t-84.5 47.5q-52 0 -89.5 -60.5 t-37.5 -130.5v-1264q0 -24 -19 -24l-295 2q-18 0 -18 24l4 1252q0 200 148 360q140 152 294 152q167 0 291 -111q141 -127 141 -338q0 -190 -149 -315q152 -126 152 -318z" />
<glyph unicode="&#xe0;" horiz-adv-x="817" d="M780 676q0 -106 -26 -674q-1 -24 -4 -70q-4 -24 -21 -24l-194 -2q-21 0 -21 26q0 19 3 50q3 38 3 49q-95 -45 -196 -45q-130 0 -209 70q-92 83 -92 247q0 190 152 282q114 68 278 68q36 0 94 -10q2 68 2 55q0 57 -30 96.5t-73 39.5q-54 0 -83.5 -53t-32.5 -54l-228 -41 q-22 -4 -22 25q1 3 2 8q36 161 129 253.5t219 92.5q350 0 350 -389zM539 416q-40 4 -50 4q-159 0 -159 -121q0 -102 116 -102q41 0 82 10zM623 1274q0 -11 -7 -19l-69 -88q-5 -6 -12 -6q-9 0 -15 8l-233 306q-6 8 -6 18q0 12 6 18l112 121q4 4 13 4t14 -8l195 -340 q2 -3 2 -14z" />
<glyph unicode="&#xe1;" horiz-adv-x="817" d="M780 676q0 -106 -26 -674q-1 -24 -4 -70q-4 -24 -21 -24l-194 -2q-21 0 -21 26q0 19 3 50q3 38 3 49q-95 -45 -196 -45q-130 0 -209 70q-92 83 -92 247q0 190 152 282q114 68 278 68q36 0 94 -10q2 68 2 55q0 57 -30 96.5t-73 39.5q-54 0 -83.5 -53t-32.5 -54l-228 -41 q-22 -4 -22 25q1 3 2 8q36 161 129 253.5t219 92.5q350 0 350 -389zM539 416q-40 4 -50 4q-159 0 -159 -121q0 -102 116 -102q41 0 82 10zM684 1513q0 -10 -6 -18l-234 -305q-6 -8 -14 -8q-7 0 -12 6l-70 88q-6 8 -6 18q0 11 2 15l195 340q4 8 14 8q8 0 12 -4l111 -121 q8 -9 8 -19z" />
<glyph unicode="&#xe2;" horiz-adv-x="817" d="M780 676q0 -106 -26 -674q-1 -24 -4 -70q-4 -24 -21 -24l-194 -2q-21 0 -21 26q0 19 3 50q3 38 3 49q-95 -45 -196 -45q-130 0 -209 70q-92 83 -92 247q0 190 152 282q114 68 278 68q36 0 94 -10q2 68 2 55q0 57 -30 96.5t-73 39.5q-54 0 -83.5 -53t-32.5 -54l-228 -41 q-22 -4 -22 25q1 3 2 8q36 161 129 253.5t219 92.5q350 0 350 -389zM539 416q-40 4 -50 4q-159 0 -159 -121q0 -102 116 -102q41 0 82 10zM766 1253q0 -7 -55 -118q-5 -11 -17 -11q-3 0 -8 4l-235 215l-226 -202q-4 -4 -10 -4q-9 0 -14 8l-58 94q-4 7 -4 16q0 11 4 17 l217 301q4 5 13 6q150 14 145 14q6 0 12 -8l230 -313q6 -9 6 -19z" />
<glyph unicode="&#xe3;" horiz-adv-x="817" d="M780 676q0 -106 -26 -674q-1 -24 -4 -70q-4 -24 -21 -24l-194 -2q-21 0 -21 26q0 19 3 50q3 38 3 49q-95 -45 -196 -45q-130 0 -209 70q-92 83 -92 247q0 190 152 282q114 68 278 68q36 0 94 -10q2 68 2 55q0 57 -30 96.5t-73 39.5q-54 0 -83.5 -53t-32.5 -54l-228 -41 q-22 -4 -22 25q1 3 2 8q36 161 129 253.5t219 92.5q350 0 350 -389zM539 416q-40 4 -50 4q-159 0 -159 -121q0 -102 116 -102q41 0 82 10zM707 1229q0 -47 -113 -47q-55 0 -159 43t-159 43q-10 0 -30.5 -5.5t-30.5 -5.5q-19 0 -18 25l6 221q1 47 116 47q52 0 149 -38.5 t148 -38.5q13 0 37 7t35 7q19 0 19 -25v-233z" />
<glyph unicode="&#xe4;" horiz-adv-x="817" d="M780 676q0 -106 -26 -674q-1 -24 -4 -70q-4 -24 -21 -24l-194 -2q-21 0 -21 26q0 19 3 50q3 38 3 49q-95 -45 -196 -45q-130 0 -209 70q-92 83 -92 247q0 190 152 282q114 68 278 68q36 0 94 -10q2 68 2 55q0 57 -30 96.5t-73 39.5q-54 0 -83.5 -53t-32.5 -54l-228 -41 q-22 -4 -22 25q1 3 2 8q36 161 129 253.5t219 92.5q350 0 350 -389zM539 416q-40 4 -50 4q-159 0 -159 -121q0 -102 116 -102q41 0 82 10zM728 1305q0 -65 -46 -106q-40 -36 -91 -36t-92 36q-47 41 -47 106t47 106q41 37 92 37q50 0 91 -37q46 -41 46 -106zM421 1305 q0 -65 -46 -106q-40 -36 -91 -36q-52 0 -93 36q-47 41 -47 106t47 106q42 37 93 37q50 0 91 -37q46 -41 46 -106z" />
<glyph unicode="&#xe5;" horiz-adv-x="817" d="M780 676q0 -106 -26 -674q-1 -24 -4 -70q-4 -24 -21 -24l-194 -2q-21 0 -21 26q0 19 3 50q3 38 3 49q-95 -45 -196 -45q-130 0 -209 70q-92 83 -92 247q0 190 152 282q114 68 278 68q36 0 94 -10q2 68 2 55q0 57 -30 96.5t-73 39.5q-54 0 -83.5 -53t-32.5 -54l-228 -41 q-22 -4 -22 25q1 3 2 8q60 265 252 330q-76 65 -76 174q0 97 62 161q58 60 133 60q74 0 131 -60q61 -64 61 -161q0 -112 -80 -176q215 -70 215 -371zM524 1223q0 69 -71 69q-27 0 -49 -17q-25 -20 -25 -52q0 -33 25 -53q22 -17 49 -17q71 0 71 70zM539 416q-40 4 -50 4 q-159 0 -159 -121q0 -102 116 -102q41 0 82 10z" />
<glyph unicode="&#xe6;" horiz-adv-x="1220" d="M1184 23q2 -35 -89 -57q-65 -15 -112 -15q-136 0 -254 84l-6 -82q-2 -22 -18 -23l-185 -2q-18 0 -18 25q0 17 2 47q3 37 4 47q-91 -43 -186 -43q-123 0 -198 66q-87 78 -87 233q0 180 144 266q107 64 261 64q44 0 90 -8q3 68 3 51q0 53 -28.5 90t-68.5 37q-65 0 -94 -82 q-5 -15 -14 -16l-215 -41q-23 -5 -23 24q1 3 2 8q35 152 122 239t206 87q124 0 205 -55q100 188 247 188t228 -126q76 -119 76 -318q0 -204 -50 -295q-8 -15 -16 -15l-336 17q30 -209 189 -209q73 0 182 53h6q17 0 18 -22zM981 698q0 123 -80 123q-108 0 -127 -243l193 8 q14 61 14 112zM524 410q-39 4 -45 4q-151 0 -151 -115q0 -96 108 -96q36 0 78 10z" />
<glyph unicode="&#xe7;" horiz-adv-x="634" d="M612 262l-8 -233q0 -17 -14 -23q-36 -16 -113 -16q-54 0 -112 14l-46 -151q108 -11 178 -85q81 -84 81 -221q0 -142 -81 -227q-74 -78 -184 -78q-115 0 -210 83.5t-146 223.5v11q0 24 18 24q3 0 9 -4q158 -123 256 -123q106 0 106 137q0 149 -217 160q-18 1 -18 25 q0 7 120 280q-208 130 -208 412q0 268 111.5 426t309.5 158q92 0 140 -29q12 -7 12 -22v-342q0 -25 -14 -25t-42 4t-42 4q-193 0 -193 -196q0 -173 189 -173q16 0 48.5 6.5t49.5 6.5h2q19 0 18 -27z" />
<glyph unicode="&#xe8;" horiz-adv-x="694" d="M674 39q0 -33 -87 -54q-64 -16 -110 -16q-198 0 -322 142q-132 150 -132 409q0 242 78 428q95 226 264 226q303 0 303 -490q0 -57 -17 -150q-21 -115 -49 -114l-336 16q30 -209 189 -209q64 0 182 52q2 1 6 2q17 0 18 -23q13 -238 13 -219zM471 711q0 129 -80 129 q-108 0 -127 -244l189 8q18 1 18 107zM577 1335q0 -10 -7 -18l-69 -88q-5 -6 -13 -6t-14 8l-233 305q-7 8 -7 18q0 12 7 19l112 121q4 4 13 4t14 -8l194 -340q3 -4 3 -15z" />
<glyph unicode="&#xe9;" horiz-adv-x="694" d="M674 39q0 -33 -87 -54q-64 -16 -110 -16q-198 0 -322 142q-132 150 -132 409q0 242 78 428q95 226 264 226q303 0 303 -490q0 -57 -17 -150q-21 -115 -49 -114l-336 16q30 -209 189 -209q64 0 182 52q2 1 6 2q17 0 18 -23q13 -238 13 -219zM471 711q0 129 -80 129 q-108 0 -127 -244l189 8q18 1 18 107zM653 1595q0 -10 -6 -18l-233 -305q-7 -8 -15 -8q-7 0 -12 6l-70 88q-6 8 -6 18q0 11 2 15l195 340q5 8 14 8t13 -4l110 -121q8 -9 8 -19z" />
<glyph unicode="&#xea;" horiz-adv-x="694" d="M674 39q0 -33 -87 -54q-64 -16 -110 -16q-198 0 -322 142q-132 150 -132 409q0 242 78 428q95 226 264 226q303 0 303 -490q0 -57 -17 -150q-21 -115 -49 -114l-336 16q30 -209 189 -209q64 0 182 52q2 1 6 2q17 0 18 -23q13 -238 13 -219zM471 711q0 129 -80 129 q-108 0 -127 -244l189 8q18 1 18 107zM705 1294q0 -7 -56 -118q-5 -11 -16 -11q-4 0 -8 4l-236 215l-225 -202q-5 -4 -10 -4q-10 0 -15 8l-57 94q-4 7 -4 16q0 11 4 17l217 301q4 5 12 6q150 14 146 14q6 0 12 -8l229 -313q7 -9 7 -19z" />
<glyph unicode="&#xeb;" horiz-adv-x="694" d="M674 39q0 -33 -87 -54q-64 -16 -110 -16q-198 0 -322 142q-132 150 -132 409q0 242 78 428q95 226 264 226q303 0 303 -490q0 -57 -17 -150q-21 -115 -49 -114l-336 16q30 -209 189 -209q64 0 182 52q2 1 6 2q17 0 18 -23q13 -238 13 -219zM471 711q0 129 -80 129 q-108 0 -127 -244l189 8q18 1 18 107zM682 1427q0 -64 -46 -105q-40 -36 -91 -36t-93 36q-47 41 -47 105q0 65 47 107q42 37 93 37q50 0 91 -37q46 -41 46 -107zM375 1427q0 -64 -46 -105q-41 -36 -91 -36q-52 0 -93 36q-47 41 -47 105q0 65 47 107q42 37 93 37q50 0 91 -37 q46 -41 46 -107z" />
<glyph unicode="&#xec;" horiz-adv-x="430" d="M373 844l-17 -846q0 -24 -18 -25l-254 -2q-8 0 -13.5 7.5t-4.5 17.5l10 854q0 23 20 22l258 -4q19 0 19 -24zM331 1110q0 -11 -6 -18l-70 -88q-5 -7 -12 -7q-8 0 -15 9l-233 305q-6 8 -6 18q0 12 6 19l113 120q3 5 12 5t14 -9l195 -340q2 -3 2 -14z" />
<glyph unicode="&#xed;" horiz-adv-x="430" d="M373 844l-17 -846q0 -24 -18 -25l-254 -2q-8 0 -13.5 7.5t-4.5 17.5l10 854q0 23 20 22l258 -4q19 0 19 -24zM484 1350q0 -11 -6 -19l-233 -305q-7 -8 -15 -8q-7 0 -12 6l-70 88q-6 8 -6 18q0 11 2 15l195 340q5 8 14 8t13 -4l110 -121q8 -9 8 -18z" />
<glyph unicode="&#xee;" horiz-adv-x="430" d="M373 844l-17 -846q0 -24 -18 -25l-254 -2q-8 0 -13.5 7.5t-4.5 17.5l10 854q0 23 20 22l258 -4q19 0 19 -24zM551 1090q0 -8 -55 -119q-5 -10 -17 -10q-3 0 -8 4l-235 215l-226 -203q-4 -4 -10 -4q-9 0 -14 8l-58 94q-4 7 -4 17t4 16l217 301q4 5 13 6q150 15 145 15 q6 0 12 -9l230 -313q6 -8 6 -18z" />
<glyph unicode="&#xef;" horiz-adv-x="430" d="M373 844l-17 -846q0 -24 -18 -25l-254 -2q-8 0 -13.5 7.5t-4.5 17.5l10 854q0 23 20 22l258 -4q19 0 19 -24zM528 1182q0 -65 -46 -106q-40 -36 -91 -36t-92 36q-47 41 -47 106t47 106q41 37 92 37t91 -37q46 -41 46 -106zM221 1182q0 -65 -46 -106q-40 -36 -91 -36 t-92 36q-47 41 -47 106t47 106q41 37 92 37t91 -37q46 -41 46 -106z" />
<glyph unicode="&#xf0;" horiz-adv-x="805" d="M768 426q0 -219 -85 -358q-91 -150 -251 -150q-183 0 -289 137t-106 379q0 244 84 402q95 178 270 186q-23 72 -69 131q-103 -109 -109 -109q-8 0 -14 11q-60 99 -60 108q0 12 74 90q-9 6 -98 56q-13 6 -13 24q0 7 131 271q6 10 17 10q37 0 168 -141q83 88 92 88 t40.5 -52.5t31.5 -64.5q0 -14 -70 -88q256 -365 256 -930zM502 457q0 161 -105 161q-52 0 -84 -70q-26 -60 -26 -134q0 -162 104 -162q56 0 86 68q25 57 25 137z" />
<glyph unicode="&#xf1;" horiz-adv-x="860" d="M823 549q0 -45 -16 -549q-1 -26 -21 -25l-239 19q-17 1 -17 24l5 533q0 221 -89 221q-97 0 -127 -119l7 -610q0 -24 -19 -25l-248 -6q-18 0 -18 25l-4 1032q0 25 18 25h244q18 0 18 -25v-84q92 123 203 123q303 0 303 -559zM691 1311q0 -47 -112 -47q-55 0 -159 43 t-159 43q-11 0 -31 -5.5t-30 -5.5q-19 0 -19 25l6 221q2 47 117 47q51 0 148.5 -39t148.5 -39q13 0 37 7.5t35 7.5q18 0 18 -25v-233z" />
<glyph unicode="&#xf2;" horiz-adv-x="774" d="M754 522q0 -231 -80 -380q-91 -169 -258 -169q-183 0 -288 136.5t-105 379.5q0 251 75 405q89 183 267 183q185 0 289 -156q100 -149 100 -399zM487 512q0 162 -106 162q-52 0 -84 -71q-27 -59 -27 -134q0 -162 107 -162q56 0 86 69q24 56 24 136zM561 1274q0 -11 -6 -19 l-70 -88q-4 -6 -12 -6t-14 8l-234 306q-6 8 -6 18q0 12 6 18l113 121q4 4 12 4q10 0 15 -8l194 -340q2 -3 2 -14z" />
<glyph unicode="&#xf3;" horiz-adv-x="774" d="M754 522q0 -231 -80 -380q-91 -169 -258 -169q-183 0 -288 136.5t-105 379.5q0 251 75 405q89 183 267 183q185 0 289 -156q100 -149 100 -399zM487 512q0 162 -106 162q-52 0 -84 -71q-27 -59 -27 -134q0 -162 107 -162q56 0 86 69q24 56 24 136zM653 1513q0 -10 -6 -18 l-233 -305q-7 -8 -15 -8q-7 0 -12 6l-70 88q-6 8 -6 18q0 11 2 15l195 340q5 8 14 8t13 -4l110 -121q8 -9 8 -19z" />
<glyph unicode="&#xf4;" horiz-adv-x="774" d="M754 522q0 -231 -80 -380q-91 -169 -258 -169q-183 0 -288 136.5t-105 379.5q0 251 75 405q89 183 267 183q185 0 289 -156q100 -149 100 -399zM487 512q0 162 -106 162q-52 0 -84 -71q-27 -59 -27 -134q0 -162 107 -162q56 0 86 69q24 56 24 136zM689 1233 q0 -8 -55 -119q-5 -10 -17 -10q-3 0 -8 4l-235 215l-226 -203q-4 -4 -10 -4q-9 0 -14 8l-57 95q-5 6 -5 16q0 11 5 16l217 301q3 6 12 7q150 14 145 14q7 0 13 -8l229 -314q6 -8 6 -18z" />
<glyph unicode="&#xf5;" horiz-adv-x="774" d="M754 522q0 -231 -80 -380q-91 -169 -258 -169q-183 0 -288 136.5t-105 379.5q0 251 75 405q89 183 267 183q185 0 289 -156q100 -149 100 -399zM487 512q0 162 -106 162q-52 0 -84 -71q-27 -59 -27 -134q0 -162 107 -162q56 0 86 69q24 56 24 136zM645 1249 q0 -47 -113 -47q-54 0 -158 43t-159 43q-11 0 -31 -5t-30 -5q-20 0 -19 25l6 221q2 47 117 47q51 0 148.5 -39t148.5 -39q13 0 37 7t35 7q18 0 18 -24v-234z" />
<glyph unicode="&#xf6;" horiz-adv-x="774" d="M754 522q0 -231 -80 -380q-91 -169 -258 -169q-183 0 -288 136.5t-105 379.5q0 251 75 405q89 183 267 183q185 0 289 -156q100 -149 100 -399zM487 512q0 162 -106 162q-52 0 -84 -71q-27 -59 -27 -134q0 -162 107 -162q56 0 86 69q24 56 24 136zM667 1305 q0 -65 -46 -106q-41 -36 -92 -36t-92 36q-47 41 -47 106t47 106q42 37 92 37q51 0 92 -37q46 -41 46 -106zM359 1305q0 -65 -46 -106q-40 -36 -91 -36t-92 36q-47 41 -47 106t47 106q41 37 92 37t91 -37q46 -41 46 -106z" />
<glyph unicode="&#xf7;" d="M1036 1032q0 -74 -54 -128t-130 -54t-129 53t-53 129t54 130.5t130 54.5q73 0 127.5 -56t54.5 -129zM1452 475h-1198v273h1198v-273zM1036 188q0 -73 -54 -127.5t-130 -54.5t-129 53t-53 129q0 78 53.5 130.5t130.5 52.5q74 0 128 -54.5t54 -128.5z" />
<glyph unicode="&#xf8;" horiz-adv-x="774" d="M754 522q0 -231 -80 -380q-91 -169 -258 -169q-66 0 -123 19l-21 -76q-4 -15 -16 -16l-66 -9q-20 -2 -20 25q4 18 33 121q-180 127 -180 452q0 251 75 405q89 183 267 183q65 0 124 -22l25 82q5 17 16 16l70 -4q18 -1 18 -25q-4 -17 -34 -125q170 -144 170 -477zM487 512 q0 51 -16 92l-86 -297q51 6 79 73q23 56 23 132zM383 674h-2q-52 0 -84 -71q-27 -59 -27 -134q0 -71 23 -113z" />
<glyph unicode="&#xf9;" horiz-adv-x="860" d="M823 -29q0 -24 -18 -24h-242q-18 0 -18 24v84q-91 -123 -203 -123q-166 0 -243 178q-62 143 -62 379q0 45 16 551q1 27 21 25l239 -21q17 -1 17 -24l-4 -531q0 -221 86 -221q97 0 127 119h2l-6 608q-1 24 18 25l248 8q20 1 20 -24zM607 1274q0 -11 -6 -19l-70 -88 q-4 -6 -12 -6t-14 8l-234 306q-6 8 -6 18q0 12 6 18l113 121q4 4 12 4q10 0 15 -8l194 -340q2 -3 2 -14z" />
<glyph unicode="&#xfa;" horiz-adv-x="860" d="M823 -29q0 -24 -18 -24h-242q-18 0 -18 24v84q-91 -123 -203 -123q-166 0 -243 178q-62 143 -62 379q0 45 16 551q1 27 21 25l239 -21q17 -1 17 -24l-4 -531q0 -221 86 -221q97 0 127 119h2l-6 608q-1 24 18 25l248 8q20 1 20 -24zM653 1452q0 -10 -6 -18l-233 -306 q-7 -8 -15 -8q-7 0 -12 6l-70 88q-6 8 -6 19t2 14l195 340q5 8 14 8t13 -4l110 -121q8 -8 8 -18z" />
<glyph unicode="&#xfb;" horiz-adv-x="860" d="M823 -29q0 -24 -18 -24h-242q-18 0 -18 24v84q-91 -123 -203 -123q-166 0 -243 178q-62 143 -62 379q0 45 16 551q1 27 21 25l239 -21q17 -1 17 -24l-4 -531q0 -221 86 -221q97 0 127 119h2l-6 608q-1 24 18 25l248 8q20 1 20 -24zM751 1274q0 -8 -56 -119 q-5 -10 -16 -10q-4 0 -8 4l-236 215l-225 -203q-5 -4 -10 -4q-10 0 -15 8l-57 95q-4 6 -4 16q0 11 4 16l217 301q4 6 12 6q150 15 146 15q6 0 12 -8l229 -314q7 -8 7 -18z" />
<glyph unicode="&#xfc;" horiz-adv-x="860" d="M823 -29q0 -24 -18 -24h-242q-18 0 -18 24v84q-91 -123 -203 -123q-166 0 -243 178q-62 143 -62 379q0 45 16 551q1 27 21 25l239 -21q17 -1 17 -24l-4 -531q0 -221 86 -221q97 0 127 119h2l-6 608q-1 24 18 25l248 8q20 1 20 -24zM728 1325q0 -65 -46 -106 q-40 -35 -91 -35t-92 35q-47 41 -47 106t47 107q41 36 92 36q50 0 91 -36q46 -42 46 -107zM421 1325q0 -65 -46 -106q-40 -35 -91 -35q-52 0 -93 35q-47 41 -47 106t47 107q42 36 93 36q50 0 91 -36q46 -42 46 -107z" />
<glyph unicode="&#xfd;" horiz-adv-x="846" d="M809 1077q0 -586 -6 -868q-3 -117 -5 -234q-5 -142 -18 -231q-27 -192 -129.5 -299t-251.5 -107q-89 0 -135 27q-14 9 -14 23v315q0 25 22 25q12 0 37 -4.5t37 -4.5q180 0 180 175v163q-89 -118 -200 -118q-303 0 -303 555q0 46 16 553q1 24 20 22l240 -18q17 -2 16 -25 l-4 -530q0 -224 86 -224q97 0 127 117l-4 690q0 10 5.5 17.5t13.5 7.5l252 -2q18 0 18 -25zM653 1493q0 -10 -6 -18l-233 -306q-7 -8 -15 -8q-7 0 -12 6l-70 88q-6 8 -6 19t2 14l195 340q5 8 14 8t13 -4l110 -121q8 -9 8 -18z" />
<glyph unicode="&#xfe;" horiz-adv-x="885" d="M848 485q0 -222 -100.5 -365t-264.5 -143q-79 0 -137 41l2 -561q0 -25 -18 -24l-234 8q-18 1 -18 24l-41 2089q-1 25 18 25l267 4q18 0 18 -24l2 -562q30 11 72 11q179 0 303 -140q131 -148 131 -383zM526 424q0 190 -182 190l2 -335q37 -13 64 -13q116 0 116 158z" />
<glyph unicode="&#xff;" horiz-adv-x="846" d="M809 1077q0 -586 -6 -868q-3 -117 -5 -234q-5 -142 -18 -231q-27 -192 -129.5 -299t-251.5 -107q-89 0 -135 27q-14 9 -14 23v315q0 25 22 25q12 0 37 -4.5t37 -4.5q180 0 180 175v163q-89 -118 -200 -118q-303 0 -303 555q0 46 16 553q1 24 20 22l240 -18q17 -2 16 -25 l-4 -530q0 -224 86 -224q97 0 127 117l-4 690q0 10 5.5 17.5t13.5 7.5l252 -2q18 0 18 -25zM713 1386q0 -64 -46 -105q-41 -36 -92 -36t-92 36q-47 41 -47 105q0 65 47 107q42 37 92 37q51 0 92 -37q46 -41 46 -107zM405 1386q0 -64 -45 -105q-41 -36 -92 -36t-92 36 q-47 41 -47 105q0 65 47 107q41 37 92 37t92 -37q45 -41 45 -107z" />
<glyph unicode="&#x106;" horiz-adv-x="988" d="M950 119q0 -10 -4 -17q-53 -81 -165 -126q-94 -37 -191 -37q-251 0 -406 192q-161 199 -161 537q0 409 212 627q193 198 513 198q38 0 40 -20l43 -386q3 -26 -20 -26q-11 0 -33.5 2t-34.5 2q-168 0 -273 -86q-126 -104 -126 -315q0 -152 73 -235q69 -77 185 -77 q128 0 270 119q8 6 11 6q15 0 18 -20zM592 1841q0 -10 -6 -18l-234 -305q-6 -9 -14 -9t-12 7l-70 88q-6 7 -6 18t2 14l194 340q5 9 15 9q8 0 12 -5l111 -120q8 -9 8 -19z" />
<glyph unicode="&#x107;" horiz-adv-x="634" d="M612 262l-8 -233q0 -17 -14 -23q-36 -16 -113 -16q-181 0 -309 117q-145 134 -145 364q0 268 111.5 426t309.5 158q92 0 140 -29q12 -7 12 -22v-342q0 -25 -14 -25t-42 4t-42 4q-193 0 -193 -196q0 -173 189 -173q16 0 48.5 6.5t49.5 6.5h2q19 0 18 -27zM561 1452 q0 -10 -6 -18l-233 -306q-7 -8 -15 -8q-7 0 -12 6l-70 88q-6 8 -6 19t2 14l195 340q4 8 14 8q9 0 12 -4l111 -121q8 -8 8 -18z" />
<glyph unicode="&#x10c;" horiz-adv-x="988" d="M950 119q0 -10 -4 -17q-53 -81 -165 -126q-94 -37 -191 -37q-251 0 -406 192q-161 199 -161 537q0 409 212 627q193 198 513 198q38 0 40 -20l43 -386q3 -26 -20 -26q-11 0 -33.5 2t-34.5 2q-168 0 -273 -86q-126 -104 -126 -315q0 -152 73 -235q69 -77 185 -77 q128 0 270 119q8 6 11 6q15 0 18 -20zM705 1894q0 -10 -7 -18l-217 -299q-5 -8 -12 -8q-150 -15 -143 -15q-9 0 -15 9l-229 315q-4 6 -4 16q0 8 55 119q5 10 14 10q6 0 11 -4l235 -215l225 203q5 4 9 4q11 0 16 -8l55 -92q7 -10 7 -17z" />
<glyph unicode="&#x10d;" horiz-adv-x="634" d="M612 262l-8 -233q0 -17 -14 -23q-36 -16 -113 -16q-181 0 -309 117q-145 134 -145 364q0 268 111.5 426t309.5 158q92 0 140 -29q12 -7 12 -22v-342q0 -25 -14 -25t-42 4t-42 4q-193 0 -193 -196q0 -173 189 -173q16 0 48.5 6.5t49.5 6.5h2q19 0 18 -27zM643 1464 q0 -10 -6 -18l-217 -299q-6 -8 -12 -8q-150 -15 -144 -15q-8 0 -14 9l-230 315q-4 6 -4 16q0 8 56 119q5 10 14 10q6 0 10 -4l236 -215l225 203q5 4 8 4q12 0 17 -8l55 -92q6 -11 6 -17z" />
<glyph unicode="&#x111;" horiz-adv-x="869" d="M987 1163q0 -24 -18 -24h-135l-50 -1225q-1 -22 -18 -23l-234 -2q-18 0 -18 25v131q-56 -37 -127 -37q-162 0 -263 141.5t-101 360.5q0 240 129 388q122 140 305 140q38 0 78 -14l2 115h-156q-19 0 -19 26l7 176q0 25 18 25h154l4 129q1 25 18 25l266 -11q20 0 19 -26 l-4 -117h125q18 0 18 -27v-176zM526 643q-184 0 -184 -192q0 -154 119 -154q31 0 59 8z" />
<glyph unicode="&#x11e;" horiz-adv-x="989" d="M952 123q1 -11 -4 -19q-54 -79 -170 -123q-97 -36 -194 -36q-251 0 -404 190q-157 197 -157 533q0 409 212 627q193 198 513 198q38 0 40 -20l43 -386q3 -26 -20 -26q-11 0 -32.5 2t-33.5 2q-172 0 -277 -90q-124 -107 -124 -324q0 -309 201 -309q50 0 86 14l-4 174 l-135 -4q-8 0 -13.5 8t-5.5 19l4 197q1 23 17 24l421 37q20 2 21 -23zM812 1794q0 -4 -2 -10q-35 -100 -109.5 -157.5t-158.5 -57.5q-87 0 -167 58q-83 59 -126 157q-2 4 -2 12q0 13 32 67t42 54q6 0 12 -6q102 -103 200 -103q97 0 189 93q6 6 14 6q9 0 42.5 -50t33.5 -63z " />
<glyph unicode="&#x11f;" horiz-adv-x="839" d="M803 1087q4 -472 -6 -894q-3 -150 -25 -437q-27 -192 -130 -299.5t-251 -107.5q-87 0 -135 26q-12 7 -12 25v313q0 25 20 25q11 0 36 -4t38 -4q182 0 182 176v145q-57 -26 -123 -26q-167 0 -270.5 139t-103.5 362q0 235 121 371q115 129 294 129q34 0 74 -10v76 q0 24 18 24l254 -2q19 0 19 -27zM516 317l-2 342q-172 -5 -172 -192q0 -154 135 -154q13 0 39 4zM705 1446q0 -5 -3 -10q-35 -100 -109 -157.5t-159 -57.5q-86 0 -167.5 58.5t-125.5 156.5q-2 4 -2 12q0 12 32.5 66.5t41.5 54.5q6 0 12 -6q102 -103 201 -103q97 0 188 92 q7 7 15 7q9 0 42.5 -50t33.5 -63z" />
<glyph unicode="&#x130;" horiz-adv-x="413" d="M377 1362l-25 -1368q0 -24 -18 -25l-279 -6q-7 0 -12.5 7t-5.5 18l14 1382q0 25 19 25l288 -6q19 -1 19 -27zM359 1673q0 -65 -46 -105q-40 -36 -91 -36t-92 36q-47 40 -47 105t47 107q41 37 92 37t91 -37q46 -42 46 -107z" />
<glyph unicode="&#x131;" horiz-adv-x="430" d="M373 844l-17 -846q0 -24 -18 -25l-254 -2q-8 0 -13.5 7.5t-4.5 17.5l10 854q0 23 20 22l258 -4q19 0 19 -24z" />
<glyph unicode="&#x141;" horiz-adv-x="809" d="M797 25q0 -25 -21 -25h-713q-18 0 -18 25l-4 520l-90 -49q-18 -10 -25 16l-71 262q-6 22 10 31l174 94l-2 469q0 24 18 25l287 8q18 0 18 -25v-303l101 53q17 10 24 -14l78 -258q7 -23 -10 -33l-191 -102v-391h414q21 0 21 -25v-278z" />
<glyph unicode="&#x142;" horiz-adv-x="398" d="M563 854q7 -23 -10 -33l-197 -106l-4 -645q0 -24 -18 -25l-266 -12q-21 -1 -21 24v492l-96 -53q-18 -10 -25 16l-71 262q-6 22 10 31l182 98v537q0 24 19 24h276q19 0 18 -24l-2 -369l103 55q17 10 24 -14z" />
<glyph unicode="&#x152;" horiz-adv-x="1559" d="M1522 -12q0 -25 -19 -25h-751q-85 -49 -181 -49q-250 0 -394 205q-140 200 -140 538q0 330 147 550q153 229 398 229q62 0 168 -39h753q19 0 19 -25v-278q0 -25 -19 -25h-420l-2 -231h336q19 0 19 -25v-281q0 -24 -19 -24h-338l-2 -215h426q19 0 19 -25v-280zM756 637 q0 127 -53 228q-59 114 -150 114t-149 -114q-52 -101 -52 -228t52 -227q58 -113 149 -113t150 113q53 100 53 227z" />
<glyph unicode="&#x153;" horiz-adv-x="1217" d="M1180 14q1 -34 -86 -55q-65 -16 -115 -16q-187 0 -311 135q-90 -131 -236 -131q-183 0 -289 136.5t-106 379.5q0 251 75 405q90 183 267 183q144 0 244 -99q101 195 249 195q152 0 232 -135q72 -122 72 -330q0 -181 -50 -274q-7 -15 -16 -15l-336 17q30 -209 189 -209 q78 0 182 51q2 1 6 2q17 0 18 -23zM977 707q-3 106 -76 106q-110 0 -129 -244l189 9q7 0 13 55t3 74zM502 485q0 162 -105 162q-52 0 -84 -70q-26 -60 -26 -135q0 -161 104 -161q56 0 86 68q25 56 25 136z" />
<glyph unicode="&#x15e;" horiz-adv-x="966" d="M930 1153q0 -10 -4 -16l-178 -277q-6 -8 -15 -8q-4 0 -10 6q-153 146 -274 146q-72 0 -72 -64q0 -42 141 -111q184 -90 261 -161q141 -130 141 -322q0 -399 -385 -434l-31 -100q107 -11 178 -85q80 -84 80 -221q0 -142 -81 -227q-74 -78 -183 -78q-116 0 -211 83.5 t-146 223.5v11q0 24 19 24q3 0 8 -4q158 -123 256 -123q106 0 106 138q0 148 -217 159q-18 1 -18 25q0 10 78 184q-214 53 -332 244q-4 7 -4 16q0 11 4 17l178 266q6 8 14 8q-6 0 98.5 -75.5t176.5 -75.5q82 0 82 71q0 50 -141 107q-185 76 -261 144q-141 127 -141 343 q0 190 159 322q139 114 290 114q116 0 235 -67q124 -71 195 -187q4 -6 4 -16z" />
<glyph unicode="&#x15f;" horiz-adv-x="754" d="M733 915q0 -9 -141 -229q-5 -8 -14 -8q6 0 -77 59.5t-151 59.5q-59 0 -59 -52q0 -35 113 -90q150 -73 211 -129q114 -105 114 -260q0 -312 -299 -344l-33 -110q108 -11 178 -85q80 -84 80 -221q0 -142 -81 -227q-75 -78 -185 -78q-115 0 -209 83t-145 224q-2 6 -2 11 q0 24 18 24q5 0 10 -4q159 -123 254 -123q109 0 109 138q0 148 -217 159q-19 1 -19 25q0 11 82 194q-158 48 -243 185q-4 6 -4 18q0 10 4 17l137 204q5 9 12 9q-4 0 80 -60.5t141 -60.5q68 0 68 61q0 41 -113 87q-150 62 -210 116q-113 101 -113 274q0 153 127 258 q111 93 233 93q91 0 186 -54q98 -57 154 -147q4 -7 4 -17z" />
<glyph unicode="&#x160;" horiz-adv-x="966" d="M930 1153q0 -10 -4 -16l-178 -277q-6 -8 -15 -8q-4 0 -10 6q-153 146 -274 146q-72 0 -72 -64q0 -42 141 -111q184 -90 261 -161q141 -130 141 -322q0 -436 -453 -436q-115 0 -233 69q-122 72 -193 187q-4 7 -4 16q0 11 4 17l178 266q6 8 14 8q-6 0 98.5 -75.5 t176.5 -75.5q82 0 82 71q0 50 -141 107q-185 76 -261 144q-141 127 -141 343q0 190 159 322q139 114 290 114q116 0 235 -67q124 -71 195 -187q4 -6 4 -16zM797 1894q0 -10 -6 -18l-218 -299q-5 -8 -12 -8q-150 -15 -143 -15q-9 0 -15 9l-229 315q-4 6 -4 16q0 8 55 119 q5 10 15 10q5 0 10 -4l235 -215l226 203q4 4 8 4q11 0 16 -8l56 -92q6 -10 6 -17z" />
<glyph unicode="&#x161;" horiz-adv-x="754" d="M733 915q0 -9 -141 -229q-5 -8 -14 -8q6 0 -77 59.5t-151 59.5q-59 0 -59 -52q0 -35 113 -90q150 -73 211 -129q114 -105 114 -260q0 -348 -362 -348q-91 0 -186 54q-99 56 -154 145q-4 6 -4 18q0 10 4 17l137 204q5 9 12 9q-4 0 80 -60.5t141 -60.5q68 0 68 61 q0 41 -113 87q-150 62 -210 116q-113 101 -113 274q0 153 127 258q111 93 233 93q91 0 186 -54q98 -57 154 -147q4 -7 4 -17zM689 1587q0 -10 -6 -18l-217 -299q-6 -8 -12 -8q-150 -15 -144 -15q-8 0 -14 8l-229 316q-5 5 -5 16q0 8 56 119q5 10 14 10q6 0 10 -4l236 -215 l225 203q5 4 8 4q12 0 17 -8l55 -92q6 -11 6 -17z" />
<glyph unicode="&#x178;" horiz-adv-x="1011" d="M997 1300q0 -6 -336 -921l5 -404q0 -24 -19 -24l-307 -8q-18 -1 -18 24v412q-308 923 -308 928q0 25 19 24l309 -6q15 0 18 -16l136 -578l155 578q5 16 17 16h311q18 0 18 -25zM789 1571q0 -65 -45 -106q-41 -35 -92 -35t-92 35q-47 41 -47 106t47 106q41 37 92 37 t92 -37q45 -41 45 -106zM482 1571q0 -65 -46 -106q-40 -35 -91 -35t-92 35q-47 41 -47 106t47 106q41 37 92 37t91 -37q46 -41 46 -106z" />
<glyph unicode="&#x17d;" horiz-adv-x="938" d="M901 -39q0 -25 -18 -24l-820 14q-17 0 -18 24l-8 363q0 8 6 16l477 609l-457 14q-17 0 -18 24l-8 345q-1 24 18 24l828 2q18 0 18 -24v-385q0 -9 -6 -17l-473 -602l461 2q18 0 18 -24v-361zM781 1853q0 -10 -6 -18l-217 -299q-5 -8 -12 -8q-150 -15 -144 -15q-8 0 -14 9 l-229 315q-4 6 -4 16q0 8 55 119q5 10 14 10q6 0 10 -4l236 -215l225 203q5 4 8 4q12 0 17 -8l55 -92q6 -10 6 -17z" />
<glyph unicode="&#x17e;" horiz-adv-x="813" d="M776 -4q0 -25 -18 -25l-697 11q-17 0 -18 24q-6 246 -6 268q0 12 6 19l410 471l-392 10q-17 1 -18 25q-6 246 -6 252q0 24 18 24l703 2q18 0 18 -24v-287q0 -11 -6 -18l-410 -467l398 4q18 0 18 -27v-262zM720 1567q0 -10 -6 -19l-217 -299q-6 -7 -13 -8 q-150 -14 -143 -14q-8 0 -14 8l-230 315q-4 6 -4 17q0 7 55 119q6 10 15 10q6 0 10 -4l236 -215l225 202q4 4 8 4q12 0 16 -8l56 -92q6 -10 6 -16z" />
<glyph unicode="&#x192;" horiz-adv-x="1127" d="M1092 1389l-41 -302q-3 -20 -19 -20q-11 0 -37 4t-39 4q-167 0 -194 -166q-14 -85 -37 -256l195 -4q18 0 18 -26v-2l-18 -265q-2 -22 -19 -22l-221 4l-92 -629q-27 -183 -162 -290q-119 -95 -268 -95q-77 0 -109 19q-12 7 -12 22v6l41 301q3 21 18 21q11 0 36 -4t38 -4 q169 0 195.5 164.5t70.5 492.5l-125 2q-19 0 -18 25l4 272q0 25 18 25l168 -4l56 389q26 183 161 290q121 95 271 95q74 0 106 -19q15 -8 15 -24v-4z" />
<glyph unicode="&#x2c6;" horiz-adv-x="780" d="M705 1192q0 -7 -56 -119q-5 -10 -16 -10q-4 0 -8 4l-236 215l-225 -203q-5 -4 -10 -4q-10 0 -15 8l-57 95q-4 6 -4 16q0 11 4 16l217 301q4 6 12 7q150 14 146 14q6 0 12 -8l229 -314q7 -8 7 -18z" />
<glyph unicode="&#x2c7;" horiz-adv-x="780" d="M705 1403q0 -10 -7 -19l-217 -299q-5 -7 -12 -8q-150 -14 -143 -14q-9 0 -15 8l-229 315q-4 6 -4 17q0 7 55 119q5 10 14 10q6 0 11 -4l235 -215l225 203q5 4 9 4q11 0 16 -9l55 -92q7 -10 7 -16z" />
<glyph unicode="&#x2d8;" horiz-adv-x="780" d="M674 1303q0 -5 -2 -11q-35 -99 -109.5 -157t-159.5 -58q-86 0 -166 58q-83 60 -126 157q-2 5 -2 13q0 12 32 66t41 54q6 0 13 -6q101 -102 200 -102q97 0 189 92q6 6 14 6q9 0 42.5 -50t33.5 -62z" />
<glyph unicode="&#x2d9;" horiz-adv-x="780" d="M528 1243q0 -65 -46 -105q-40 -36 -91 -36t-92 36q-47 40 -47 105t47 107q41 36 92 36t91 -36q46 -42 46 -107z" />
<glyph unicode="&#x2da;" horiz-adv-x="780" d="M584 1264q0 -97 -62 -161q-56 -59 -131 -59t-132 59q-62 64 -62 161t62 161q57 60 132 60t131 -60q62 -64 62 -161zM463 1264q0 69 -72 69q-26 0 -48 -17q-26 -20 -26 -52q0 -33 26 -53q22 -17 48 -17q72 0 72 70z" />
<glyph unicode="&#x2db;" horiz-adv-x="780" d="M719 -383q0 -13 -6 -20q-57 -71 -153 -116q-90 -42 -171 -42q-135 0 -225 82q-103 94 -103 266q0 146 41 244q8 17 19 16l110 -12q17 -2 17 -25q0 -4 -9.5 -41.5t-9.5 -62.5q0 -95 77 -144q60 -38 140 -38q99 0 222 73q3 2 8 2q15 0 18 -18q25 -153 25 -164z" />
<glyph unicode="&#x2dc;" horiz-adv-x="780" d="M645 1147q0 -47 -113 -47q-54 0 -158 43t-159 43q-11 0 -31 -5t-30 -5q-20 0 -19 24l6 221q2 47 117 47q51 0 148.5 -38.5t148.5 -38.5q13 0 37 7t35 7q18 0 18 -25v-233z" />
<glyph unicode="&#x2dd;" horiz-adv-x="780" d="M700 1411q0 -10 -6 -18l-235 -306q-7 -8 -13 -8q-7 0 -12 6l-72 89q-6 7 -6 18q0 7 4 14l195 340q5 8 14 8t13 -4l110 -120q8 -9 8 -19zM422 1411q0 -10 -6 -18l-234 -306q-6 -8 -12 -8q-7 0 -12 6l-72 89q-6 7 -6 18q0 7 4 14l192 340q5 8 17 8q6 0 10 -4l113 -120 q6 -7 6 -19z" />
<glyph unicode="&#x394;" horiz-adv-x="1505" d="M1509 0h-1515l518 1473h479zM958 309l-206 705l-207 -705h413z" />
<glyph unicode="&#x2206;" horiz-adv-x="1505" d="M1509 0h-1515l518 1473h479zM958 309l-206 705l-207 -705h413z" />
<glyph unicode="&#x3a9;" d="M1671 0h-661v403q135 164 135 379q0 151 -70 249q-78 112 -223 112q-132 0 -211.5 -99t-79.5 -262q0 -215 135 -379v-403h-661v350h371q-287 163 -287 510q0 308 216 486q202 165 517 165q314 0 517 -166q218 -178 218 -485q0 -347 -287 -510h371v-350z" />
<glyph unicode="&#x2126;" d="M1671 0h-661v403q135 164 135 379q0 151 -70 249q-78 112 -223 112q-132 0 -211.5 -99t-79.5 -262q0 -215 135 -379v-403h-661v350h371q-287 163 -287 510q0 308 216 486q202 165 517 165q314 0 517 -166q218 -178 218 -485q0 -347 -287 -510h371v-350z" />
<glyph unicode="&#x3c0;" horiz-adv-x="1716" d="M1702 1087l-41 -241h-180l-119 -846h-418l119 846h-227l-119 -846h-418l119 846h-29q-74 0 -90 -133h-258q36 215 129 294.5t311 79.5h1221z" />
<glyph unicode="&#x2000;" horiz-adv-x="1012" />
<glyph unicode="&#x2001;" horiz-adv-x="2025" />
<glyph unicode="&#x2002;" horiz-adv-x="1012" />
<glyph unicode="&#x2003;" horiz-adv-x="2025" />
<glyph unicode="&#x2004;" horiz-adv-x="675" />
<glyph unicode="&#x2005;" horiz-adv-x="506" />
<glyph unicode="&#x2006;" horiz-adv-x="337" />
<glyph unicode="&#x2007;" horiz-adv-x="337" />
<glyph unicode="&#x2008;" horiz-adv-x="253" />
<glyph unicode="&#x2009;" horiz-adv-x="405" />
<glyph unicode="&#x200a;" horiz-adv-x="112" />
<glyph unicode="&#x2010;" horiz-adv-x="821" d="M784 350q0 -24 -18 -24h-711q-19 0 -18 26l6 279q1 24 18 24h705q18 0 18 -26v-279z" />
<glyph unicode="&#x2011;" horiz-adv-x="821" d="M784 350q0 -24 -18 -24h-711q-19 0 -18 26l6 279q1 24 18 24h705q18 0 18 -26v-279z" />
<glyph unicode="&#x2012;" horiz-adv-x="821" d="M784 350q0 -24 -18 -24h-711q-19 0 -18 26l6 279q1 24 18 24h705q18 0 18 -26v-279z" />
<glyph unicode="&#x2013;" horiz-adv-x="1024" d="M987 350q0 -24 -18 -24h-914q-19 0 -18 26l6 279q1 24 18 24h908q18 0 18 -26v-279z" />
<glyph unicode="&#x2014;" horiz-adv-x="2048" d="M2068 350q0 -24 -18 -24h-2052q-19 0 -18 26l6 279q0 24 18 24h2046q18 0 18 -26v-279z" />
<glyph unicode="&#x2018;" horiz-adv-x="435" d="M395 1063q-1 -69 -66 -108q-52 -31 -110 -31q-59 0 -112 33q-66 41 -66 112v6q3 175 195 266q2 1 6 2q18 0 18 -24q0 -3 -11 -35t-11 -57q-1 -7 0 -8v-7q55 -6 100 -39q57 -42 57 -106v-4z" />
<glyph unicode="&#x2019;" horiz-adv-x="435" d="M395 1192q-3 -177 -194 -268q-2 -1 -6 -2q-19 0 -19 26q0 3 10.5 34t10.5 56v9v8q-56 6 -100 38q-56 41 -56 105v4q1 69 66 108q52 31 110 31q60 0 112 -33q66 -41 66 -112v-4z" />
<glyph unicode="&#x201a;" horiz-adv-x="430" d="M393 86q0 -179 -194 -272q-2 -1 -6 -2q-19 0 -19 24q0 3 10.5 35t10.5 57v9v6q-56 6 -101 39q-57 42 -57 106v4q1 69 66 109q52 32 110 32q60 0 113 -34q67 -42 67 -113z" />
<glyph unicode="&#x201c;" horiz-adv-x="839" d="M799 1063q-2 -69 -67 -108q-51 -31 -109 -31q-60 0 -113 33q-66 41 -66 112v6q4 175 195 266q2 1 6 2q19 0 19 -24q0 -3 -10.5 -35t-10.5 -57v-8v-7q55 -6 99 -39q57 -42 57 -106v-4zM395 1063q-1 -69 -66 -108q-52 -31 -110 -31q-59 0 -112 33q-66 41 -66 112v6 q3 175 195 266q2 1 6 2q18 0 18 -24q0 -3 -11 -35t-11 -57q-1 -7 0 -8v-7q55 -6 100 -39q57 -42 57 -106v-4z" />
<glyph unicode="&#x201d;" horiz-adv-x="839" d="M799 1192q-4 -177 -195 -268q-2 -1 -6 -2q-18 0 -18 26q0 3 10 34t10 56v9v8q-55 6 -99 38q-57 41 -57 105v4q2 69 66 108q51 31 108 31q60 0 114 -33q67 -41 67 -112v-4zM395 1192q-3 -177 -194 -268q-2 -1 -6 -2q-19 0 -19 26q0 3 10.5 34t10.5 56v9v8q-56 6 -100 38 q-56 41 -56 105v4q1 69 66 108q52 31 110 31q60 0 112 -33q66 -41 66 -112v-4z" />
<glyph unicode="&#x201e;" horiz-adv-x="829" d="M793 86q0 -179 -195 -272q-2 -1 -6 -2q-19 0 -19 24q0 3 10.5 35t10.5 57v9v6q-55 6 -100 39q-58 42 -58 106v4q2 69 67 109q52 32 109 32q60 0 114 -34q67 -42 67 -113zM393 86q0 -179 -194 -272q-2 -1 -6 -2q-19 0 -19 24q0 3 10.5 35t10.5 57v9v6q-56 6 -101 39 q-57 42 -57 106v4q1 69 66 109q52 32 110 32q60 0 113 -34q67 -42 67 -113z" />
<glyph unicode="&#x2020;" horiz-adv-x="1024" d="M997 799h-313v-1026h-346v1026h-315v282h315v394h346v-394h313v-282z" />
<glyph unicode="&#x2021;" horiz-adv-x="1024" d="M981 113h-305v-338h-330v338h-305v276h305v471h-305v268h305v345h330v-345h305v-268h-305v-471h305v-276z" />
<glyph unicode="&#x2022;" horiz-adv-x="1208" d="M899 762q0 -122 -87.5 -209.5t-209.5 -87.5t-208.5 87.5t-86.5 209.5q0 124 86 209.5t211 85.5q124 0 209.5 -85.5t85.5 -209.5z" />
<glyph unicode="&#x2026;" horiz-adv-x="1352" d="M1315 86q0 -71 -65 -111q-52 -32 -111 -32q-63 0 -115 33q-66 42 -66 116q0 69 66 109q53 32 111 32q59 0 113 -34q67 -42 67 -113zM854 86q0 -71 -65 -111q-52 -32 -111 -32q-63 0 -115 33q-65 42 -65 116q0 69 66 109q52 32 110 32q59 0 113 -34q67 -42 67 -113z M393 86q0 -71 -65 -111q-51 -32 -111 -32q-62 0 -115 33q-65 42 -65 116q0 69 66 109q52 32 110 32q59 0 113 -34q67 -42 67 -113z" />
<glyph unicode="&#x202f;" horiz-adv-x="405" />
<glyph unicode="&#x2030;" horiz-adv-x="1734" d="M1698 377q0 -146 -66 -252q-69 -113 -176 -113q-125 0 -197 103q-69 100 -69 268q0 166 72 274q75 113 198 113q108 0 177 -128q61 -115 61 -265zM545 1053q0 -146 -66 -252q-69 -113 -176 -113q-125 0 -197 103q-69 100 -69 268q0 166 72 274q75 113 198 113 q108 0 177 -128q61 -115 61 -265zM1042 1417q0 -6 -4 -14l-684 -1368q-6 -12 -12 -12l-141 -9q-21 -1 -21 25q0 10 2 14l684 1381q7 12 17 12l141 -4q18 -1 18 -25zM1176 377q0 -146 -66 -252q-69 -113 -176 -113q-126 0 -197 103q-69 100 -69 268q0 166 72 274 q75 113 198 113q108 0 176 -128q62 -115 62 -265zM1552 373q0 65 -27 116q-30 58 -77 58t-78 -58q-27 -51 -27 -116q0 -66 27 -118q31 -58 78 -58t77 58q27 52 27 118zM397 1049q0 65 -27 116q-30 58 -77 58t-78 -58q-27 -51 -27 -116q0 -66 27 -118q31 -59 78 -59t77 59 q27 52 27 118zM1030 373q0 65 -27 116q-30 58 -77 58q-48 0 -78 -58q-27 -51 -27 -116q0 -66 27 -118q31 -58 78 -58t77 58q27 52 27 118z" />
<glyph unicode="&#x2039;" horiz-adv-x="527" d="M489 928q0 -11 -2 -15l-251 -401l239 -332q4 -5 4 -18q0 -5 -41 -139q-4 -15 -16 -15q-8 0 -12 4l-353 359q-7 7 -8 18q-12 222 -12 238q0 9 6 16l358 424q6 6 13 6q9 0 14 -10q61 -126 61 -135z" />
<glyph unicode="&#x203a;" horiz-adv-x="527" d="M489 625q0 -14 -12 -236q-1 -13 -6 -18l-352 -359q-4 -4 -13 -4q-12 0 -16 15q-41 134 -41 139q0 13 4 18l240 332l-252 401q-4 7 -4 15q0 9 61 135q5 10 17 10q7 0 12 -6l356 -424q6 -7 6 -18z" />
<glyph unicode="&#x2044;" horiz-adv-x="943" d="M907 1417q0 -6 -4 -14l-690 -1368q-6 -12 -14 -12l-142 -9q-20 -1 -20 25q0 6 4 14l688 1381q6 12 16 12l144 -4q18 -1 18 -25z" />
<glyph unicode="&#x205f;" horiz-adv-x="506" />
<glyph unicode="&#x20a3;" horiz-adv-x="1452" d="M815 1075q0 -25 -20 -24l-422 6l-2 -234l336 -4q18 0 18 -24l-2 -279q0 -25 -18 -24l-338 4l-5 -519q0 -24 -18 -24l-283 2q-18 0 -18 25l8 1384q0 25 19 25l727 -9q18 0 18 -26v-279zM1437 799q0 -27 -19 -27q-190 0 -262 -137l25 -625q0 -24 -19 -24l-246 -6 q-19 -1 -20 24l-39 1139q-1 24 19 24h241q20 0 21 -22l6 -164q115 127 231 127q57 0 58 -29z" />
<glyph unicode="&#x20ac;" horiz-adv-x="1071" d="M1040 57q0 -10 -4 -16q-49 -76 -156 -116q-87 -34 -180 -34q-190 0 -329 127q-150 137 -187 379l-121 2q-17 1 -18 25l-2 104q0 10 5.5 17.5t12.5 7.5q75 -1 109 0q0 24 2 80h-109q-17 0 -18 24l-2 107q0 10 5.5 18.5t12.5 8.5l127 -5q52 285 252 431q171 124 410 124 q34 0 37 -20l41 -354q3 -29 -21 -29q-10 0 -31.5 2t-31.5 2q-219 0 -322 -158l203 -2q18 0 18 -24q0 1 -26 -117q-4 -16 -17 -16l-225 2q-4 -43 -4 -78l209 -2q18 0 18 -25q0 3 -26 -114q-4 -19 -19 -19l-145 2q72 -117 207 -117q115 0 252 111q5 4 8 4q15 0 18 -18z" />
<glyph unicode="&#x2122;" d="M1497 909h-182v367l-137 -367h-70l-137 367v-367h-183v559h256l99 -266l98 266h256v-559zM690 1317h-162v-408h-202v408h-162v151h526v-151z" />
<glyph unicode="&#x2202;" horiz-adv-x="1139" d="M1098 768q0 -311 -141 -532q-165 -259 -459 -259q-211 0 -333 110q-128 115 -128 323q0 202 127 339.5t307 137.5q196 0 299 -172q45 229 45 360q0 213 -104 213q-59 0 -109 -92q-86 -158 -192 -158q-61 0 -102.5 36.5t-41.5 96.5q0 105 132 163q103 46 220 46 q224 0 352 -162.5t128 -449.5zM694 553q0 112 -34.5 171.5t-98.5 59.5q-91 0 -151 -139.5t-60 -355.5q0 -230 135 -230q116 0 171 203q38 136 38 291z" />
<glyph unicode="&#x220f;" horiz-adv-x="1688" d="M1538 -393h-473v1474h-453v-1474h-473v1866h1399v-1866z" />
<glyph unicode="&#x2211;" horiz-adv-x="1583" d="M1534 -393h-1475v200l664 738l-643 629v299h1368v-353h-778l559 -557l-541 -600h846v-356z" />
<glyph unicode="&#x2212;" d="M1452 473h-1198v277h1198v-277z" />
<glyph unicode="&#x221a;" horiz-adv-x="1395" d="M1399 1565h-86l-588 -1606h-143l-301 827l-156 -59l-41 154l395 139l209 -600l483 1317h228v-172z" />
<glyph unicode="&#x221e;" d="M1526 606q0 -171 -74 -292q-89 -144 -250 -144q-105 0 -203 84q-58 50 -149 170q-67 -129 -145 -191q-81 -63 -177 -63q-144 0 -245 126t-101 312q0 171 74 292q88 144 248 144q103 0 202 -85q55 -47 150 -168q137 253 324 253q143 0 244.5 -125.5t101.5 -312.5z M1384 598q0 63 -48.5 108.5t-116.5 45.5q-124 0 -244 -191q80 -115 219 -115q76 0 129 37q61 43 61 115zM731 653q-81 115 -219 115q-83 0 -135.5 -43.5t-52.5 -110.5q0 -65 47 -108t118 -43q124 0 242 190z" />
<glyph unicode="&#x222b;" horiz-adv-x="1331" d="M1284 1350q0 -68 -46 -112t-116 -44q-135 0 -135 160v10q2 17 2 16q0 50 -35 50q-104 0 -127 -662q0 -33 -2 -86q-8 -266 -21 -382q-25 -220 -89 -370q-130 -303 -404 -303q-107 0 -178 50q-82 57 -82 159q0 156 166 156q131 0 131 -142q0 7 -2 -30v-23q0 -41 33 -41 q28 0 53 41q28 46 43 115q20 93 27 385q2 110 8 293q18 406 87 609q122 360 425 360q120 0 191 -58t71 -151z" />
<glyph unicode="&#x2248;" d="M1530 774q-202 -133 -371 -133q-90 0 -280 64q-197 65 -318 65q-83 0 -173.5 -36.5t-209.5 -119.5v299q221 140 410 140q104 0 296 -63.5t281 -63.5q162 0 365 149v-301zM1530 309q-105 -68 -195.5 -100.5t-177.5 -32.5q-90 0 -280 64q-197 65 -316 65q-158 0 -383 -158 v299q220 142 410 142q122 0 309 -64q193 -65 268 -65q159 0 365 149v-299z" />
<glyph unicode="&#x22f2;" d="M1530 774q-202 -133 -371 -133q-90 0 -280 64q-197 65 -318 65q-83 0 -173.5 -36.5t-209.5 -119.5v299q221 140 410 140q104 0 296 -63.5t281 -63.5q162 0 365 149v-301zM1530 309q-105 -68 -195.5 -100.5t-177.5 -32.5q-90 0 -280 64q-197 65 -316 65q-158 0 -383 -158 v299q220 142 410 142q122 0 309 -64q193 -65 268 -65q159 0 365 149v-299z" />
<glyph unicode="&#x2260;" d="M1452 244h-704l-242 -299l-199 159l113 140h-166v262h340l170 211h-510v260h690l244 301l196 -162l-112 -139h180v-260h-358l-172 -211h530v-262z" />
<glyph unicode="&#x2264;" d="M1452 301l-1198 371v237l1198 373v-283l-704 -208l704 -209v-281zM1454 -35h-1200v271h1200v-271z" />
<glyph unicode="&#x2265;" d="M1452 672l-1196 -371v281l705 209l-705 208v283l1196 -373v-237zM1454 -35h-1200v271h1200v-271z" />
<glyph unicode="&#x25ca;" horiz-adv-x="1012" d="M1006 588l-500 -1065l-500 1065l500 1065zM891 588l-385 821l-385 -821l385 -821z" />
<glyph unicode="&#xe000;" horiz-adv-x="1060" d="M0 1060h1060v-1060h-1060v1060z" />
<glyph unicode="&#xf000;" horiz-adv-x="1618" d="M1167 1552q0 -131 -103 -234.5t-204 -103.5h-8h-8q-3 1 -8 3q-1 4 -2 14v22q0 132 102 237q96 99 229 124q1 -7 2 -23v-39zM1505 403q-90 -195 -152 -279q-118 -159 -257 -159q-46 0 -129.5 33t-124.5 33q-44 0 -130 -33t-128 -33q-129 0 -258 176q-213 291 -213 596 q0 211 117 349q124 145 331 145q67 0 156 -35q84 -33 123 -33q36 0 121 33q89 35 153 35q112 0 199 -39t160 -123q-201 -128 -201 -328q0 -114 59 -199.5t174 -138.5z" />
<glyph unicode="&#xf001;" horiz-adv-x="1123" d="M1085 1165q0 -91 -54 -153q-52 -58 -122 -58t-124 61.5t-54 153.5t55 153q51 58 121 58q71 0 123 -59q55 -63 55 -156zM1061 838l-12 -897q-1 -23 -19 -23l-252 -2q-9 6 -18 25l6 589l-358 9l2 -662q0 -25 -19 -24l-239 2q-19 0 -19 24l17 709l-80 6q-15 1 -17 22 q-16 236 -16 215q0 26 20 25l90 -6q-2 60 -2 199q0 253 87 400q97 165 288 165q80 0 127 -25q12 -6 12 -24v-314q0 -24 -16 -24q-13 0 -39 4t-39 4q-155 0 -162 -174q-3 -71 -8 -213l647 16q8 0 13.5 -8t5.5 -18z" />
<glyph unicode="&#xf002;" horiz-adv-x="1103" d="M1067 1286l-10 -1368q0 -22 -17 -22l-266 -15q-20 -1 -20 25v649l-346 8l2 -686q0 -25 -19 -24l-239 2q-19 0 -19 24l17 733l-80 6q-15 2 -17 23q-16 236 -16 215q0 26 20 25l90 -7q-2 56 -2 183q0 254 95 400q102 157 295 157q84 0 131 -25q12 -6 12 -24v-314 q0 -24 -16 -24q-13 0 -39 4t-39 4q-172 0 -181 -174q-3 -63 -8 -189l359 -10v424q0 25 18 25h277q18 0 18 -25z" />
<glyph horiz-adv-x="0" />
<glyph horiz-adv-x="0" />
</font>
</defs>
</svg>
