<?xml version="1.0" standalone="no"?>
<!DOCTYPE svg PUBLIC "-//W3C//DTD SVG 1.1//EN" "http://www.w3.org/Graphics/SVG/1.1/DTD/svg11.dtd" >
<svg xmlns="http://www.w3.org/2000/svg">
<metadata>
This is a custom SVG webfont generated by Font Squirrel.
Copyright   : Copr1996 T26 Designed by Jim marcus
Foundry     : Copr T  Designed by Jim marcus
</metadata>
<defs>
<font id="webfontDvSx2Zez" horiz-adv-x="500" >
<font-face units-per-em="1000" ascent="800" descent="-200" />
<missing-glyph horiz-adv-x="140" />
<glyph />
<glyph />
<glyph />
<glyph unicode="&#xa;" />
<glyph />
<glyph />
<glyph unicode="&#xd;" />
<glyph horiz-adv-x="464" d="M429 712q-2 -8 -1 -16.5t1 -17.5q0 -8 -3 -15.5t-12 -12.5q-18 -10 -37 -27.5t-37 -39t-34 -45.5t-29 -46q-26 -46 -38.5 -66l-17 -27t-5.5 -8t-4 -11t-12.5 -36t-31.5 -81q-18 -47 -33.5 -99t-27.5 -100q-5 -16 -11.5 -33t-20.5 -19q-8 -2 -12.5 0t-5.5 12q-3 25 3 52 t9 51q5 37 17 71t27.5 67l32 67t30.5 71q7 20 20 34.5t22 32.5q15 30 28.5 51.5t26.5 39.5l25 33.5l25 32.5q10 13 19 27l18 27.5t18.5 24t21.5 16.5q4 2 10 5.5t11 4t8 -3t0 -16.5z" />
<glyph horiz-adv-x="335" d="M58 109q-1 -9 3.5 -21t9.5 -20q3 -5 6.5 -6.5t8.5 -5.5t11.5 -2.5t10.5 5.5q14 14 24.5 29t16.5 26l7.5 12t7.5 15q5 15 10 24t12 23q8 16 25.5 27.5t34.5 15.5l5 -9q-7 -29 -18 -57t-11 -58v-40q0 -24 15 -24q13 1 19 12t20 16q3 1 2.5 -2.5t-2.5 -9t-5.5 -10.5t-6.5 -8 l-19 -16.5t-21.5 -14t-22.5 -7.5t-21 4q-5 3 -7 10t-2.5 15.5t-2 15.5t-6.5 10t-9 -3.5t-9 -8.5l-36 -18q-5 -2 -9 -2t-9 -1q-4 -1 -3 -1.5t-1 1.5t-5.5 1t-6.5 -2q-5 -1 -9.5 2.5t-9.5 4.5q-3 1 -5.5 3t-5 4.5t-4.5 3t-3 -1.5q-11 -25 -6.5 -50.5t10.5 -47.5 q7 -23 23.5 -39t36.5 -22q11 -4 21 -6t22 0q4 1 1 -3t-8 -6t-6 -1t-7 -1q-13 -4 -25 -1t-22.5 10t-19.5 16t-16 17q-18 20 -27 45.5t-4 54.5q2 8 2 12q0 5 1 13q3 57 16 113t42 104q7 11 10.5 24.5t8.5 25.5q2 7 8 13.5t2 12.5q-5 10 -19.5 8.5t-25.5 -2.5q-7 -1 -13.5 -2.5 t-11.5 -1.5q-14 0 -25.5 -0.5t-25.5 -1.5q-16 -2 -32.5 -2.5t-27.5 8.5q-5 4 -8 3.5t-7 2.5q-7 5 -15 8.5t-9 11.5q-2 14 11.5 23t26.5 11q12 1 21 -6t20 -12q9 -5 15.5 -9.5t14.5 -7.5q26 -11 60 -13t60 9q11 5 11.5 18.5t5.5 24.5q8 18 17 36t22 33l25 26t30 21 q9 5 17.5 1t13.5 -11q11 -11 14 -28t-7 -34q-8 -13 -19.5 -21t-23.5 -9q-5 0 -7.5 4t-3 10t0.5 13.5t1 13.5q0 5 -6.5 4.5t-10.5 -2.5q-11 -8 -18 -17t-7 -21q0 -6 -2.5 -14t-3.5 -15.5t1.5 -13.5t12.5 -8q17 -4 30.5 -0.5t30.5 2.5q10 0 18.5 3.5t18.5 5.5q7 2 11 1t11 -2 q8 -2 15.5 -3t14.5 -3q4 -1 1.5 -3t-3.5 -3q-6 -2 -10.5 -5.5t-9.5 -7t-10.5 -4.5t-11.5 2q-14 8 -33 6.5t-35 -6.5q-15 -5 -32.5 -9t-28.5 -19q-5 -6 -6.5 -5.5t-6.5 -7.5q-11 -17 -17.5 -34.5t-12.5 -36.5q-8 -24 -19.5 -47t-19.5 -47l-5.5 -15t-3.5 -15z" />
<glyph horiz-adv-x="363" d="M394 44q-8 -7 -14.5 -14t-16.5 -12q-10 -6 -18.5 -14.5l-16.5 -16t-17.5 -11.5t-20.5 0q-12 4 -18.5 20t-9.5 33q-5 29 -12 56t-6 59q0 5 -1.5 14.5t-9.5 5.5q-7 -3 -12.5 -11.5t-11 -18.5l-10.5 -19.5t-12 -15.5q-2 -11 -11 -17t-16 -13q-10 -3 -18 -9.5t-18 -9.5 q-7 -8 -16 -5t-17 -1q-6 -1 -10.5 1.5t-9.5 4.5q-18 1 -26 18q-2 -5 -3.5 -10.5t-3.5 -11.5q-7 -28 -5.5 -54.5t8.5 -49.5t23.5 -39t36.5 -22q11 -4 21 -6t22 0q4 1 1 -3t-8 -6t-6 -1t-7 -1q-13 -4 -25 -1t-22.5 10t-19.5 16t-16 17q-18 20 -27 45.5t-4 54.5q2 8 2 12 q0 5 1 13q3 57 16 113t42 104q7 11 10.5 24.5t8.5 25.5q2 7 8 13.5t2 12.5q-5 10 -19.5 8.5t-25.5 -2.5q-7 -1 -13.5 -2.5t-11.5 -1.5q-14 0 -25.5 -0.5t-25.5 -1.5q-16 -2 -32.5 -2.5t-27.5 8.5q-5 4 -8 3.5t-7 2.5q-7 5 -15 8.5t-9 11.5q-2 14 11.5 23t26.5 11q12 1 21 -6 t20 -12q9 -5 15.5 -9.5t14.5 -7.5q26 -11 60 -13t60 9q11 5 11.5 18.5t5.5 24.5q8 18 17 36t22 33l25 26t30 21q9 5 17.5 1t13.5 -11q11 -11 14 -28t-7 -34q-8 -13 -19.5 -21t-23.5 -9q-5 0 -7.5 4t-3 10t0.5 13.5t1 13.5q0 5 -6.5 4.5t-10.5 -2.5q-11 -8 -18 -17t-7 -21 q0 -6 -2.5 -14t-3.5 -15.5t1.5 -13.5t12.5 -8q16 -3 20 -3t5.5 1.5t5.5 2.5t19 -1q8 -1 15.5 -2.5t14.5 -3.5q3 -1 2.5 -3.5t-1.5 -4.5q-1 -1 -1.5 1t-1.5 1q-6 -2 -10.5 -5.5t-9.5 -7t-10.5 -4.5t-11.5 2q-20 11 -32.5 6t-26.5 -24q-5 -6 -6.5 -5.5t-6.5 -7.5 q-11 -17 -17.5 -34.5t-12.5 -36.5q-8 -23 -19 -45.5t-19 -45.5q2 -13 5 -25t12 -20q2 -6 7 -8t10 -6q9 -5 19.5 -2t18.5 8q5 1 8.5 4t7.5 5q1 3 4.5 7.5l7 9t6 8.5l2.5 4q8 3 11 10t9 12q0 1 7 11.5t16.5 23.5l18 25t10.5 16q12 22 14.5 47t10.5 50q3 10 4.5 20.5t6.5 19.5 q7 15 9.5 32t6.5 33.5t12 30.5t25 24q3 1 8 5t9.5 6.5t7 1.5t1.5 -9q-5 -26 -13 -52.5t-13 -52.5q-3 -18 -5 -36t-9 -36q-2 -8 -4.5 -13t-4.5 -11q-14 -46 -23 -89.5t-13 -94.5q-2 -25 1.5 -48t14.5 -43q5 -9 18 -14t21 3q13 12 26.5 29t29.5 31v2q2 -3 6.5 -7.5t-1.5 -9.5z " />
<glyph />
<glyph />
<glyph />
<glyph />
<glyph unicode=" "  horiz-adv-x="140" />
<glyph unicode="&#x09;" horiz-adv-x="140" />
<glyph unicode="&#xa0;" horiz-adv-x="140" />
<glyph unicode="!" horiz-adv-x="247" d="M112 4q-7 0 -8 -3q-2 -4 0 -6t4 -5h3q-6 -14 -20.5 -16.5t-25.5 -8.5q1 2 -3 6l-11 -8q0 3 -2.5 5.5t-5 4.5t-3 5t4.5 6q-4 5 -1 10t5 10q4 7 11 11t14.5 6.5t14.5 5.5t13 9h16l-6 -32v0zM220 464q0 -4 2.5 -8t4.5 -7.5t2 -7.5t-4 -9q-16 -6 -26.5 -17.5t-19 -25 l-16.5 -27.5t-19 -26q-6 -27 -9.5 -38t-5 -15t-2.5 -5t-2.5 -6t-4.5 -18.5t-9 -43.5q5 -25 2 -52t1 -52q0 -8 -2 -16.5t-12 -13.5q-8 1 -11.5 0t-9.5 3q-8 12 -8.5 26t-11.5 25q-3 19 -1 37t6 36l8 36.5t3 38.5q5 10 10 19t10 19q8 33 22 52l29 39q9 16 17 32t27 25 q3 1 7.5 4t9 4t8 -0.5t5.5 -7.5z" />
<glyph unicode="&#x22;" horiz-adv-x="176" d="M159 593q-2 -6 -3 -10.5t-6 -9.5l2 -3q-4 -2 -3 -6t-1 -8q0 -6 -0.5 -13.5t-3.5 -12.5q-1 -3 -4.5 -4.5t-1.5 -4.5q-5 -2 -8.5 -4.5t-8.5 -4.5q-8 2 -5.5 9t0.5 12q-3 5 -2.5 10t1.5 10t1 10t-3 10q1 5 0.5 10t-2.5 8q2 3 0.5 8t2.5 7q0 9 5 16t7 15q4 0 9 1.5t10 2t9 -1 t6 -6.5q5 -10 1 -20t-2 -20zM93 684q-8 -10 -12.5 -25t-1.5 -27q-5 -12 -3 -22t1 -21q2 -8 0 -16t2 -16q-5 -5 -1 -9t-1 -9q4 -3 0.5 -4.5t-2.5 -4.5q-2 -5 -2.5 -9t-2.5 -9q-5 -2 -9 -4.5t-9 0.5l2 1q-3 9 -4.5 17.5t-3.5 17.5q0 4 -1 7.5t0 7.5q2 8 -1 14.5t0 14.5 q-3 5 -2 9.5t0 9.5q-3 1 -2 4t0 5q-2 8 -5 14t4 11q-1 5 2 8.5t4 7.5q1 5 5.5 9.5t7.5 9.5q5 5 8 10.5t10 7.5q5 -2 10.5 -3t6.5 -7z" />
<glyph unicode="#" d="M254 267l-10 2q-5 0 -11 -0.5t-12 -4.5q-8 -5 -9 -9.5l-3 -13.5q-1 -6 -1 -8t1 -4t1.5 -4.5t0.5 -8.5q0 -3 5 -2.5t8 1.5q10 4 24 2q8 -1 13.5 1t12.5 1q17 -2 21.5 -6.5t-15.5 -25.5q-11 0 -23 -1q-11 -1 -25 -1.5t-29 -2.5q-3 -1 -2 -5t-1 -7t-6 -19l-9 -34.5l-9.5 -34 t-5.5 -18.5q-3 -8 -5.5 -13.5t-6 -6t-8.5 4.5t-13 17q12 28 21 52q8 20 12 38.5t-1 24.5q-6 6 -8.5 7.5t-4 0.5t-3.5 -3t-9 -1q-5 0 -8.5 0.5t-7.5 -1.5q-2 0 -1 -1.5t0 -2.5q-2 -3 -6.5 -19l-9.5 -34.5l-9 -34.5t-5 -19q-3 -8 -5.5 -13t-6 -6t-8.5 4t-13 17l15 49l11 38 t5 26q1 3 -3 3q-3 0 -5 2q-5 4 -12.5 9t0.5 12q5 4 7.5 12t12.5 4q2 -1 4.5 -4t3.5 -1q3 9 6 13t5 7.5t2 7.5t-4 12q-3 6 -10 6q-6 0 -13.5 -0.5l-15 -1t-13.5 3.5q-5 4 -12 9t1 12q5 5 8 13t12 3q14 -8 26.5 -11t26.5 -4v1q2 7 5 21.5t7.5 30t10 29.5t11.5 19q4 4 11 10 t12 -4q3 -6 10 -11t0 -13q-4 -5 -10 -16.5t-12 -24.5t-10 -25t-4 -18q0 -4 5 -4q6 0 10 1q9 1 11.5 0.5t4 -1t3.5 0t10 4.5q6 3 9.5 15.5t6.5 28t6.5 29t8.5 18.5l5 5t6.5 5t6.5 1.5t6 -5.5t10 -10t0 -13q-3 -3 -8.5 -13.5t-10.5 -22.5t-9 -22.5t-3 -14.5q1 -5 6.5 -0.5 t10.5 3.5q8 -1 13.5 -2.5t7 -4.5t-1.5 -9t-13 -16zM187 262q-6 8 -10 9.5t-8 0t-9.5 -4.5t-15.5 -5q-5 -2 -6 -9t-2 -12q-1 -8 -3 -10.5t-2.5 -3.5t0.5 -3t5 -8t4.5 -7.5t1 -0.5t2.5 2.5t10 0.5q5 -1 12 -1t9 5q4 9 9 15t7.5 10.5t2 9.5t-6.5 12z" />
<glyph unicode="$" horiz-adv-x="198" d="M109 261q3 6 4.5 10t6.5 9l-2 4q4 2 3.5 5.5t1.5 7.5q1 6 2 13.5t4 12.5q2 3 5.5 4t1.5 4q5 2 9 4t9 4q8 -2 5 -9.5t-2 -12.5q4 -10 -1 -20t0 -20q-1 -5 -1 -10t2 -8q-2 -3 -1 -8t-3 -7q-1 -1 -1 -2q6 -4 11.5 -8.5t7.5 -11.5q1 -6 4.5 -9.5t5.5 -7t2 -8.5t-4 -14 q-3 -6 -7 -6t-9 2.5t-10.5 4.5t-10.5 -1q-8 -5 -17 -6.5t-14 -11.5l-2 -4t0 -4q1 -6 2.5 -8t2 -4t1.5 -5t1 -9q0 -8 2 -15t2.5 -15t-1 -18t-7.5 -23q-3 -7 -7.5 -13.5t-9.5 -11.5q-2 -7 -4.5 -13.5t-1.5 -13.5q-3 -6 -4.5 -10t-6.5 -9l2 -3q-4 -2 -3.5 -6t-1.5 -8 q-1 -6 -2 -13.5t-4 -12.5q-2 -2 -5.5 -3.5t-1.5 -4.5q-5 -2 -9 -4t-9 -3q-8 2 -5 9t2 12q-2 5 -1.5 10t2 10t2 10t-2.5 10q2 5 2 10t-2 8q2 2 1.5 5.5t0.5 6.5q-2 0 -3 1q-6 4 -8.5 13.5t-2.5 20.5q0 12 2.5 23t5.5 18q2 2 2 5t3 4q6 1 9 5t11 2q5 -1 11 2.5t9 8.5 q3 7 2.5 8.5t-1.5 9.5q-2 12 -6 22l-7.5 19.5t-4 20.5t6.5 26q4 8 8 15t12 9q10 2 17 1v5v0z" />
<glyph unicode="%" horiz-adv-x="375" d="M148 234q8 10 14.5 23t7.5 26t-4.5 22.5t-20.5 12.5q-18 3 -20.5 -9.5t-1.5 -30.5q1 -10 -1.5 -20t-4 -19t0.5 -16t12 -11q9 -3 11 6.5t7 15.5zM202 346q0 -20 -2.5 -35t-7 -28.5t-10 -28l-12.5 -33.5q-5 -12 -11 -18t-12 -15q-5 -7 -14 -13t-18 -7q-17 -3 -26 8 q-10 10 -13 21.5t-3 23.5t2 24l4 25q1 16 3 22t4.5 8.5t5.5 4t7 7.5q10 17 16.5 26t14 15.5t17.5 12.5t26 17q5 3 10.5 0t9.5 -9.5t6.5 -14t2.5 -13.5zM288 23q8 10 14.5 23t7.5 26t-4.5 22.5t-20.5 12.5q-18 3 -20.5 -9.5t-1.5 -30.5q0 -10 -2.5 -20t-4 -19t1 -16t12.5 -10 q8 -4 10.5 5.5t7.5 15.5zM342 135q0 -20 -2.5 -35t-7 -28.5t-10 -28l-12.5 -33.5q-5 -12 -11 -18t-13 -15q-5 -7 -13.5 -13t-17.5 -7q-18 -2 -26 8q-10 10 -13 21.5t-3 23.5t2 24t3 25q1 16 3.5 22.5t5 9t5.5 4t6 7.5q10 16 17 25.5t14.5 15.5t17.5 12t26 17q5 3 10 0 t9 -9.5t7 -14t3 -13.5zM331 311q0 -4 1.5 -8t3 -8.5t1 -8.5t-5.5 -8q-17 -4 -29 -13.5t-22.5 -21.5l-20.5 -24.5t-23 -22.5q-11 -25 -18 -38.5t-13 -22t-11 -13.5t-10.5 -14.5t-13 -25t-18.5 -43.5q1 -26 -6 -52t-7 -52q-2 -8 -5 -15.5t-14 -11.5q-8 2 -11.5 1.5t-8.5 4.5 q-3 7 -3.5 14l-1 13.5t-1.5 13.5t-6 13q0 19 5 36t12 34.5l13.5 35t8.5 37.5q24 32 36 50.5l22 33.5t23.5 30t40.5 41l21.5 28.5t30.5 20.5q8 2 18 5.5t12 -9.5z" />
<glyph unicode="&#x26;" horiz-adv-x="463" d="M268 505q-8 -10 -12.5 -15t-1.5 -17q-6 -16 -2.5 -21.5t13.5 -6t25 0t33 -2.5q39 -8 70 -25.5t42 -50t-3.5 -82t-66.5 -120.5q-45 -60 -91.5 -102t-110.5 -65q-6 -2 -14 -5t-15.5 -4t-14 0t-10.5 6q-27 33 -21 81q0 6 -1 13t1 13q3 10 6.5 17.5t8 14.5t10 14t14.5 17 q16 20 36.5 39.5t43.5 34.5q11 8 23 2t13 -17q1 -23 -8 -42.5t-23 -37t-31.5 -32l-33.5 -27.5q-9 -7 -7 -18.5t5 -19.5q2 -10 11.5 -13t19.5 -3q20 0 44 13t48.5 35t48.5 50.5t43 60.5q7 12 11.5 28.5t7 34t3.5 34.5t2 29q1 23 -8 42t-23.5 33t-32 22.5t-32.5 12.5 t-25.5 2.5t-10.5 -8.5q2 -8 0 -21t2 -21q-5 -5 -1 -9t-1 -9q4 -3 0.5 -4.5t-2.5 -4.5q-2 -5 -2.5 -9t-2.5 -9q-5 -2 -9 -4.5t-9 0.5l2 1q-3 9 -4.5 17.5t-3.5 17.5q0 4 -1 7.5t0 7.5q2 8 -1 14.5t0 14.5q-6 11 -29 4.5t-49.5 -20.5t-50 -30.5t-30.5 -23.5q-4 -4 -13 -12 t-17.5 -13t-14 -4.5t-3.5 14.5q8 12 26.5 25t41 26t46 25t43 23t32.5 21t13 18q-1 5 2 8.5t4 7.5q1 5 5.5 9.5t7.5 9.5q5 5 8 10.5t10 7.5q5 -2 10.5 -3t6.5 -7zM188 189q-14 3 -18.5 -8l-8.5 -20q-2 -5 -5.5 -12.5t-5.5 -14t-1 -11.5t7 -5q10 0 15.5 5.5t9 14t5.5 18.5 t5 18z" />
<glyph unicode="'" horiz-adv-x="171" d="M214 691q-10 -8 -19 -20t-10 -26q-8 -10 -9.5 -20t-5.5 -21q-1 -8 -5.5 -15t-2.5 -16q-7 -3 -4 -8t-4 -8q3 -5 -1 -5q-3 0 -4 -4q-3 -4 -4.5 -7.5t-5.5 -7.5q-5 0 -9 -1.5t-8 3.5h1q0 9 1.5 18t1.5 18q2 4 2.5 7.5t2.5 6.5q3 8 2.5 15.5t4.5 14.5q-1 5 1 9t3 9 q-2 2 0 4.5t1 4.5q2 8 0.5 15t6.5 10q1 5 5 7t6 6q2 5 7.5 7.5t10.5 6.5q6 3 11 8t12 4q3 -4 8 -6.5t4 -8.5z" />
<glyph unicode="(" horiz-adv-x="524" d="M184 -248q-3 0 -10 -4t-14 -6q-5 -2 -12 -2h-11q-3 0 -19 2.5t-27 7.5q-8 3 -17 10.5l-18 15.5q-2 2 -3.5 7t-3.5 10t-4 12t-4 12q-9 25 -11 49t0 47q4 37 9.5 73t13.5 70l17 71q1 3 5 13t6 17q3 18 9.5 38t14 39l14.5 35.5l12 28.5q2 5 3.5 12t3.5 12l5.5 8.5t5.5 10.5 q3 7 4.5 14t5.5 14q5 9 10.5 17.5t9.5 16.5q2 5 4.5 12l4.5 13q11 14 19 34.5t21 34.5q0 2 0.5 6.5t2.5 6.5q14 21 21.5 42.5t19.5 41.5q2 3 3 10.5t4 12.5q22 39 35 67t28 51q5 7 9 18.5t9 20.5q4 6 9.5 13t10.5 15q19 31 40 56t52 41q4 2 8.5 6t9.5 6q3 2 9.5 4t10.5 2 q1 0 9.5 -7.5t17 -18.5t14 -23.5t1.5 -23.5t-20.5 -18.5t-52.5 -7.5q-9 0 -17 -6.5t-14 -15.5t-10 -17t-6 -11q-2 -2 -6.5 -6t-6.5 -7q-14 -24 -29 -53.5t-31 -57.5q-2 -3 -6.5 -6t-6.5 -7t-3.5 -10t-4.5 -11l-24.5 -40l-27 -44.5l-27 -43.5l-24.5 -38q-1 -2 -4.5 -4.5 t-5.5 -5.5q-5 -8 -7.5 -17t-7.5 -17q-2 -2 -5 -4t-5 -5q-2 -4 -2 -10q0 -5 -2 -9q-4 -5 -9.5 -9.5t-9.5 -9.5q-6 -12 -9.5 -25.5t-8.5 -22.5q-2 -4 -3.5 -12.5t-4.5 -15.5q-6 -11 -16 -25q-1 -1 0 -3t1 -6q-1 -8 -4 -16.5t-7 -17.5q-2 -3 -2 -8q0 -4 -2 -9q-2 -4 -5 -8 l-6 -8q-1 -5 -0.5 -9t-1.5 -8l-4.5 -6.5t-3.5 -6.5t0.5 -11t-0.5 -14q-2 -11 -6 -24.5l-8 -26t-7.5 -21.5t-3.5 -11q-1 -3 -0.5 -7t-0.5 -9q-2 -11 -6 -24.5t-5 -22.5q0 -4 0.5 -9.5t0.5 -10.5q0 -3 -2 -9t-1 -10q1 -35 3 -66.5t17 -59.5q0 -1 1 -3q0 -4 2 -6 q5 -10 18.5 -20.5t26.5 -13.5q6 -2 14 -3.5t11 -1.5h16q2 0 8 -1t10.5 -2.5t4.5 -3.5t-9 -3z" />
<glyph unicode=")" horiz-adv-x="524" d="M400 905q3 0 10 4t14 6q5 2 12 2h11q3 0 19 -2.5t27 -7.5q8 -3 17 -10.5l18 -15.5q2 -2 3.5 -7t3.5 -10t4 -12t4 -12q8 -25 10.5 -49t0.5 -47q-7 -73 -23 -143l-17 -71q-1 -3 -5.5 -13t-5.5 -17q-3 -18 -9.5 -38t-14 -39l-14.5 -35.5l-12 -28.5q-2 -5 -3.5 -12t-3.5 -12 l-5.5 -8.5t-5.5 -10.5q-3 -7 -4.5 -14t-5.5 -14q-5 -9 -10.5 -17.5t-9.5 -16.5q-2 -5 -4.5 -12l-4.5 -13q-11 -14 -19 -34.5t-21 -34.5q0 -2 -0.5 -6.5t-2.5 -6.5q-14 -21 -21.5 -42.5t-19.5 -41.5q-2 -3 -3 -10.5t-4 -12.5q-22 -39 -35 -67t-28 -51q-5 -7 -9 -18.5 t-9 -20.5q-4 -6 -9.5 -13t-10.5 -15q-19 -31 -40 -56t-52 -41q-4 -2 -8.5 -6t-9.5 -6q-3 -2 -9.5 -4t-10.5 -2q-1 0 -9.5 7.5t-17 18.5t-14 23.5t-1.5 23.5t20.5 18.5t52.5 7.5q9 0 17 6.5t14 15.5t10 17t6 11q2 2 6.5 6t6.5 7q14 24 29 53.5t31 57.5q2 3 6.5 6t6.5 7 t3.5 10t4.5 11l24.5 40l27 44.5l27 43.5l24.5 38q1 2 4.5 4.5t5.5 5.5q5 8 7.5 17t7.5 17q2 2 5 4t5 5q2 4 2 9q0 6 2 10q4 5 9.5 9.5t9.5 9.5q6 12 9.5 25.5t8.5 22.5q2 4 3 12.5t5 15.5q2 6 6.5 12.5t9.5 12.5q1 1 0 3t-1 6q1 15 11 34q1 3 1.5 7.5t2.5 9.5q2 4 5 8l6 8 q1 5 0.5 9t1.5 8l4.5 6.5t3.5 6.5t-0.5 11t0.5 14q2 10 6 24t8 26.5t7.5 21.5t3.5 11q1 3 0 7t1 9q2 11 6 24.5t5 22.5q0 4 -0.5 9.5t-0.5 10.5q0 3 2 9t1 10q-1 35 -3 66.5t-17 59.5q-1 1 -1 3q-1 2 -1 3t-1 3q-5 10 -18.5 20.5t-26.5 13.5q-6 2 -14 3.5t-11 1.5h-16 q-2 0 -8 1t-10.5 2.5t-4.5 3.5t9 3z" />
<glyph unicode="*" horiz-adv-x="295" d="M122 434q7 -5 9 -17h4q-1 -5 2.5 -6.5t5.5 -4.5q2 -1 3 -3t3 0q4 4 2.5 8.5t-1.5 9.5q-1 5 -0.5 9.5t1.5 8.5q1 5 6 15q4 8 6.5 17t10.5 14t19 6t14 -10q3 -10 -1.5 -20t-6.5 -20q-2 -7 -4.5 -11t-7.5 -9l1 -3q-4 -2 -4 -6t-2 -8q-1 -2 -2.5 -4.5t0.5 -2.5q5 -1 8.5 3 t8.5 8q4 3 8.5 6t8.5 5q3 2 6.5 2.5t8.5 2.5q9 2 17.5 5t16.5 0q7 -3 11.5 -12.5t-3.5 -19.5q-8 -9 -18.5 -11.5t-20.5 -7.5t-22 -2l-2 -3q-4 2 -7.5 -0.5t-7.5 -3.5q-2 0 -5 -1t-2 -3q2 -4 6.5 -4.5t9.5 -2.5q8 -2 15 -7q4 -2 10 -10q5 -7 11 -12.5t5 -13.5q0 -8 -7 -18 t-18 -9t-17 8t-14 13q-8 5 -9 17h-4q1 5 -2.5 6.5t-5.5 4.5q-2 1 -3 3t-3 0q-3 -4 -2 -8.5t1 -9.5q1 -5 0.5 -9.5t-1.5 -8.5q-1 -5 -6 -15q-4 -8 -6.5 -17t-10.5 -14t-19 -6t-14 10q-3 10 1.5 20t6.5 20q2 7 4.5 11t7.5 9l-1 3q4 2 4 6t2 8q1 2 2.5 4.5t-0.5 2.5 q-5 1 -8.5 -3t-8.5 -8q-4 -3 -8.5 -6t-8.5 -5q-3 -2 -6.5 -2.5t-8.5 -2.5q-9 -2 -17.5 -5t-16.5 0q-7 3 -11.5 12.5t3.5 19.5q8 9 18.5 11.5t20.5 7.5t22 2l2 3q4 -2 7.5 0.5t7.5 3.5q2 0 5 1t2 3q-2 4 -6.5 4.5t-9.5 2.5q-8 2 -15 7q-4 2 -10 10q-5 7 -10.5 12.5t-5.5 13.5 t7 18t18 9t17 -8t14 -13z" />
<glyph unicode="+" horiz-adv-x="334" d="M289 69q-6 0 -13 2.5t-12 4.5q-8 3 -14.5 5t-13.5 2q-6 0 -11.5 1t-10.5 2q-10 1 -13 -3q-9 -10 -10 -23q-2 -11 -2.5 -21.5t-3.5 -21.5q-1 -5 -7.5 -14t-15 -18.5t-17.5 -16.5t-15 -7q-3 0 -10 3t-5 8l1 3q12 16 21 30q15 20 23 37.5t6 41.5q-1 5 -9 3t-18 -4 q-7 -2 -13 -3.5t-12 -3.5q-5 -2 -10 -3t-8 -1t-10 3.5t-14.5 8.5t-13 11.5t-4.5 11.5q1 4 6 12t11 8q8 0 16 -2.5l15 -4.5l19.5 -4t18.5 -2q5 0 10.5 -1l11.5 -2q10 -1 14 3q7 9 9 22q2 11 2.5 22t3.5 22q1 4 7.5 13.5t15 19t17.5 16.5t15 7q3 0 10 -3t6 -8l-2 -4l-19 -28.5 t-14 -25t-10 -25.5t-7 -30h3q6 0 18.5 2.5t16.5 4.5l17 5q3 0 10.5 -3.5t14.5 -9t12 -11.5t4 -11q-1 -4 -6 -12t-11 -8z" />
<glyph unicode="," horiz-adv-x="131" d="M98 26q-2 -6 -3 -10.5t-6 -9.5l2 -3q-4 -2 -3 -6t-1 -8q0 -6 -0.5 -13.5t-3.5 -12.5q-1 -3 -4.5 -4.5t-1.5 -4.5q-5 -2 -8.5 -4.5t-8.5 -4.5q-8 2 -5.5 9t0.5 12q-3 5 -2.5 10t1.5 10t1 10t-3 10q1 5 0.5 10t-2.5 8q2 3 0.5 8t2.5 7q0 9 5 16t7 15q4 0 9 1.5t10 2t9 -1 t6 -6.5q5 -10 1 -20t-2 -20z" />
<glyph unicode="-" horiz-adv-x="334" d="M289 109q-6 0 -13 3t-12 4q-37 5 -60 5q-22 0 -38.5 -2t-32 -4.5t-37.5 -2.5q-3 0 -10 2t-14.5 5.5t-13 8t-4.5 9.5q1 4 6 7t11 3q8 0 23.5 2.5t22.5 0.5q9 -2 19 1t18 3q6 0 11.5 -3t10.5 -1q14 5 26 6t24 0.5t25 -2t29 -0.5q12 1 20 -6.5t6 -18.5q-1 -4 -6 -12t-11 -8z " />
<glyph unicode="." horiz-adv-x="136" d="M111 57q-3 -9 -2.5 -18.5t0 -17.5t-5.5 -14t-18 -8q-11 -2 -24 -5t-25 2q-11 4 -8 16t7 23q3 10 9.5 14t14.5 6t17 3t18 5q5 2 12 0.5t5 -6.5z" />
<glyph unicode="/" horiz-adv-x="464" d="M429 712q-2 -8 -1 -16.5t1 -17.5q0 -8 -3 -15.5t-12 -12.5q-18 -10 -37 -27.5t-37 -39t-34 -45.5t-29 -46q-26 -46 -38.5 -66l-17 -27t-5.5 -8t-4 -11t-12.5 -36t-31.5 -81q-18 -47 -33.5 -99t-27.5 -100q-5 -16 -11.5 -33t-20.5 -19q-8 -2 -12.5 0t-5.5 12q-3 25 3 52 t9 51q5 37 17 71t27.5 67l32 67t30.5 71q7 20 20 34.5t22 32.5q15 30 28.5 51.5t26.5 39.5l25 33.5l25 32.5q10 13 19 27l18 27.5t18.5 24t21.5 16.5q4 2 10 5.5t11 4t8 -3t0 -16.5z" />
<glyph unicode="0" horiz-adv-x="161" d="M105 109q3 10 6 19t4 19q0 3 0.5 9t-0.5 11.5t-3.5 10t-6.5 4.5t-5 -1q-10 -8 -14.5 -21.5t-7.5 -24.5l-6 -23q-1 -4 -2.5 -14.5t-2 -21t1.5 -18t7 -5.5q15 6 20.5 24.5t8.5 31.5zM166 151q-12 -44 -36 -85t-56 -78q-5 -5 -11 -12.5t-11 -11.5q-3 -3 -8.5 -4.5t-9.5 -1.5 q-13 0 -22 9t-10 20q-1 10 -3 13.5t-2 10.5q2 21 7 45.5t11 45.5q4 14 8 30.5t15 28.5l18 18t16 19q9 13 17.5 21t17 13t18 9.5t21.5 12.5q1 1 4 1q6 0 7 -6t9 -8q5 -1 6 -5.5t1 -10.5t-0.5 -13t1.5 -11q5 -12 0.5 -24.5t-8.5 -25.5z" />
<glyph unicode="1" horiz-adv-x="118" d="M128 162q-3 -11 -9.5 -21.5t-12.5 -21.5q-8 -13 -12.5 -26.5t-15.5 -26.5q-5 -6 -7 -13.5t-7 -12.5l-18.5 -20t-16.5 -20q-5 -8 -12 -14t-14.5 -11t-14.5 -10.5t-13 -13.5q-1 -1 -0.5 1.5t0.5 4.5q2 6 9 11.5t9 12.5q2 5 5.5 7t5.5 7l29 45q3 4 6.5 14.5l8 23.5l9 25 t8.5 20t8 18t6 18l1 7q-2 2 -4.5 3t-3.5 4q-5 12 -1 21q10 17 20 32t34 17l4 -5q3 -18 3.5 -37t-4.5 -39z" />
<glyph unicode="2" horiz-adv-x="143" d="M159 169q-4 -14 -9 -22.5t-11 -14t-12.5 -10.5t-12.5 -11q-9 -10 -17.5 -17.5t-19.5 -14.5q-3 -3 -3 -7q-3 -11 3.5 -17t10.5 -13q2 -5 8 -6l11.5 -2t9 -3t2.5 -8q-3 -10 -6 -13.5t-7.5 -5t-9 -2.5t-10.5 -5q-7 -5 -15 -5.5t-16 -0.5q-17 0 -32 4.5t-26 15.5 q-5 5 -3.5 13t3.5 16q4 15 11.5 23.5t17 14t20 11t19.5 14.5q6 5 14 14t10 16q2 6 -1 11.5t-8 7.5q-8 2 -7.5 7t-4.5 9q-2 2 -0.5 4.5t2.5 4.5q2 7 7.5 17t13 19t16 15t16.5 6q9 0 14 -6.5t7 -14.5q2 -3 5.5 -4.5t7.5 -4.5q6 -6 5 -16t-3 -19z" />
<glyph unicode="3" horiz-adv-x="166" d="M161 169q-3 -9 -9.5 -17.5t-13.5 -16t-13 -15t-8 -14.5v-4q-1 -8 2.5 -14t1.5 -14q-4 -16 -11 -25t-15 -14.5t-16 -9t-14 -8.5q-11 -10 -24.5 -18t-28.5 -10q-3 0 -7 0.5t-7.5 2.5t-4.5 5.5t4 8.5q6 6 14 9.5t16 6.5t16 7t14 11q2 2 2 4q0 3 1 6q2 8 -1.5 20.5t-8 24 t-9 21t-3.5 11.5q1 3 10.5 4.5t11.5 1.5q3 0 9.5 2.5t12.5 6.5t11 8.5t6 7.5q1 1 1 2q-2 19 -11.5 27t-20 12.5t-17.5 8.5t-3 16l2 6q10 4 15 4q7 0 13 -1.5t13 -0.5q2 0 2 3l1 2h2q5 0 8 -1.5l7 -3.5q20 -4 32 -12t16 -26q4 -15 2 -25z" />
<glyph unicode="4" horiz-adv-x="254" d="M433 386q-2 -14 -9.5 -28.5t-21.5 -20.5q-6 -3 -10.5 5t-12.5 8q-11 0 -19 -7t-15 -17t-12.5 -20.5t-11.5 -17.5q-8 -9 -18 -31l-21 -47l-21.5 -48.5t-19.5 -34.5q-3 -3 -9.5 -15l-14.5 -25.5l-15.5 -26t-12.5 -18.5v-5q-2 -8 -8.5 -14t-7.5 -14l-10 -7 q-13 -24 -22 -48.5t-24 -49.5q-16 -25 -30.5 -51.5t-24.5 -53.5q-8 -25 -25 -50q-14 -21 -21 -45t-21 -46q-11 -20 -19.5 -40t-21.5 -40q-9 -14 -13 -30.5t-17 -27.5q-5 -5 -11 -9.5t-13 -4.5q-8 0 -10.5 7.5t-0.5 14.5q3 11 10 22t10 23q3 10 11 22.5t13 23.5 q14 26 21.5 56.5t21.5 57.5q8 15 15.5 31l14.5 31l15 33t18 32q10 14 15.5 29t16.5 31t16.5 35t14.5 36q4 8 9 16t9 16q8 17 15 34t17 34l2 4q1 5 -1.5 9.5t-6.5 5.5q-14 1 -28.5 -7.5t-28.5 -8.5t-29.5 8t-19.5 22q-2 6 -7.5 10t-3.5 12q2 14 13.5 23.5t22.5 20.5 l15.5 13.5t16.5 5.5q5 -1 7 -6t2 -13q0 -7 -0.5 -14.5t-0.5 -12.5q1 -11 5.5 -13t12.5 -7h4q16 0 38 5t34 21q5 7 12 21l14.5 29.5l15 30t15.5 23.5q12 15 22.5 29.5t24.5 28.5q6 6 17 18t19 18q4 3 14.5 8l22 10t22 8.5t14.5 3.5q7 0 15 -2.5t6 -8.5z" />
<glyph unicode="5" horiz-adv-x="186" d="M205 181q-11 -11 -24.5 -15t-27.5 -4h-12t-11 2q-2 0 -1.5 1.5t1.5 2.5q2 7 9.5 12.5t8.5 8.5q2 8 -8.5 12t-16.5 4q-11 0 -19.5 -4t-7.5 -15q2 -14 11.5 -26t21.5 -18q7 -3 11.5 -5.5t9.5 -2.5l1 1q8 -3 8 -10t5 -14q5 -6 2 -13.5t-5 -15.5q-3 -14 -15.5 -33.5 t-29 -37.5t-34 -30.5t-32.5 -12.5q-11 0 -21.5 4t-13.5 13q-2 6 -4.5 8t-2.5 7q-1 6 -2 15.5t5 11.5q13 5 28 6t32 2q5 0 5.5 -6.5t5.5 -4.5q11 3 16 13.5t7 19.5l4 10.5t2 11.5q0 5 0.5 10t-2.5 8q-9 8 -14.5 16.5t-14.5 13.5q-23 15 -31.5 42t-7.5 54l2 7l10 4t10 2 q7 0 13 -3.5t11.5 -7.5t12 -7.5t14.5 -3.5q2 0 4 -0.5t4 1.5q10 5 19 5q7 0 12.5 -1t12.5 -1q3 0 5.5 0.5t5.5 0.5q1 0 1.5 -1.5t2.5 -1.5t4 0.5t4 0.5q3 0 6.5 -4t6.5 -9t4.5 -10.5t0.5 -8.5z" />
<glyph unicode="6" horiz-adv-x="183" d="M131 75v4q-2 1 -3.5 2.5t-3.5 1.5h-2q-9 -8 -23.5 -14t-17.5 -19q-1 -3 -1.5 -9.5t4.5 -6.5q6 0 16 9t15 13v1q2 6 8 9t8 9zM181 109q-3 -13 -14 -28.5t-24.5 -30.5t-28 -29t-24.5 -25q-8 -8 -13 -15t-15 -12q-6 -2 -10.5 -4t-9.5 -2h-5q-2 6 -6 10t-6 9q-2 4 -1.5 10.5 t0 12t-3 9.5t-10.5 4q-10 0 -17 -8.5t-16 -11.5l-6 -6q-4 3 -9 5.5t-3 7.5q4 18 18 18q4 0 8.5 0.5t6.5 3.5l14 12t10.5 9.5t7.5 10.5t6 17q5 20 15 41.5t21 41.5q2 5 0.5 9.5t0.5 9.5q5 20 19 36.5l28 32.5q4 5 9 9t10 4q4 0 5 -1q3 -4 1 -10q-2 -7 -7.5 -12.5t-8.5 -12.5 q-10 -23 -23 -46.5t-19 -47.5q-8 -28 5 -47l2 -1q8 0 16 6.5t15 11.5q14 8 26.5 19t27.5 11q8 0 9 -7t-1 -14z" />
<glyph unicode="7" horiz-adv-x="142" d="M160 212q-5 -16 -13 -31.5t-12 -31.5l-1 -3q-6 -3 -8 -10v-3q0 -1 2 -3t1 -3l-1 -3h-1q-14 -18 -20 -37t-20 -39q-11 -17 -21 -35t-21 -35q-9 -14 -16 -27t-22 -22h-5q0 2 0.5 4t0.5 4q5 17 15 31.5t14 31.5l1 2q8 10 11 25q5 16 10.5 29t9.5 27q2 8 4 15t4 15l-3 3l9 32 q0 2 6.5 10.5t8.5 16.5l-4 8q-27 -7 -46 -35q-3 -4 -9 -6.5t-11.5 -3t-9 1.5t-1.5 8q3 9 12 17t20.5 15.5t23 13t20.5 10.5q15 8 27.5 17l26.5 19h4q5 0 9 -1t6 -4q2 -5 1.5 -11t-2.5 -12z" />
<glyph unicode="8" horiz-adv-x="153" d="M97 83q2 5 -1.5 9t-9.5 4q-11 0 -16 -10.5t-7 -18.5l-3 -12q1 -4 1 -11v-12t0.5 -10t3.5 -1q9 7 14 13.5t8.5 13.5t5.5 15.5t4 19.5zM131 172q-2 2 -5.5 5t-6.5 3q-11 0 -23.5 -11t-14.5 -21q-1 -4 1 -5.5t5.5 -2.5t7.5 -2.5t7 -4.5q3 -4 9 -0.5t8 5.5q5 6 6.5 13t3.5 15 zM176 168q-3 -11 -8 -21.5t-13 -19.5l-6 -17l4 -3q2 -14 -3 -29q-3 -14 -15.5 -33.5t-29 -37.5t-34 -30.5t-32.5 -12.5q-2 0 -4.5 0.5t-4.5 0.5l-1 1q-8 2 -15.5 5t-9.5 11q-2 5 -4.5 7t-2.5 7q-1 11 1.5 26.5t5.5 26.5q2 9 5.5 18.5t11.5 16.5q5 4 12 6t9 9q1 3 -5 1t-9 0 q-4 2 -4 7t2 10q1 10 7 21q3 8 6.5 9.5t9.5 6.5q12 9 25 17t28 13q13 4 20.5 13.5t13.5 20t14.5 19t23.5 10.5l3 -5q3 -17 3.5 -36t-4.5 -38z" />
<glyph unicode="9" horiz-adv-x="184" d="M114 186q-14 -4 -28 -12t-18 -23q-1 -4 -1 -10q0 -5 5 -5q6 0 15 5t16 10q7 4 10 11.5t5 14.5zM185 213q-5 -17 -12.5 -32.5t-13.5 -31.5q-2 -4 -4.5 -6t-3.5 -5v-2q0 -2 2 -3.5t1 -3.5l-1 -2h-1q-14 -18 -20 -37t-20 -39q-11 -17 -21 -35.5t-21 -35.5q-9 -14 -16 -26.5 t-22 -21.5h-5l1 7q2 17 12.5 33.5t17.5 32.5l9 20.5t6 19.5q3 11 8 20.5t8 20.5q3 8 4.5 15t3.5 15q1 2 -2 2.5t-5 0.5q-6 0 -14.5 -6t-13.5 -11q-7 -6 -15 -12t-15 -1q-11 6 -14 10t2 20q4 14 14 27t23 24.5t28 20.5t28 16q15 8 27.5 17l26.5 19h4q5 0 9 -1t6 -4 q2 -5 1.5 -11.5t-2.5 -13.5z" />
<glyph unicode=":" d="M115 220q-11 -10 -22 -17t-24 -9q-6 -1 -10.5 2t-8 8t-4.5 10.5t1 9.5q7 14 22.5 25t32.5 11l3 -11q2 -3 6 -6t6.5 -7t2.5 -8t-5 -8zM86 30q-11 -10 -22 -17t-24 -9q-6 -1 -10.5 2t-8 8t-4.5 10.5t1 9.5q7 14 22.5 25t32.5 11l3 -11q2 -3 6 -6t6.5 -7t2.5 -8t-5 -8z" />
<glyph unicode=";" d="M98 26q-2 -6 -3 -10.5t-6 -9.5l2 -3q-4 -2 -3 -6t-1 -8q0 -6 -0.5 -13.5t-3.5 -12.5q-1 -3 -4.5 -4.5t-1.5 -4.5q-5 -2 -8.5 -4.5t-8.5 -4.5q-8 2 -5.5 9t0.5 12q-3 5 -2.5 10t1.5 10t1 10t-3 10q1 5 0.5 10t-2.5 8q2 3 0.5 8t2.5 7q0 9 5 16t7 15q4 0 9 1.5t10 2t9 -1 t6 -6.5q5 -10 1 -20t-2 -20zM115 220q-11 -10 -22 -17t-24 -9q-6 -1 -10.5 2t-8 8t-4.5 10.5t1 9.5q7 14 22.5 25t32.5 11l3 -11q2 -3 6 -6t6.5 -7t2.5 -8t-5 -8z" />
<glyph unicode="&#x3c;" horiz-adv-x="198" d="M108 411q5 -2 9.5 -1.5t8.5 -1.5q7 -3 14.5 0t12.5 -1q5 -3 11 -4t9 -6q2 -5 -1 -6t-6 -1q-18 0 -38 -12t-34 -23q-5 -4 -9 -13t-7 -14q-7 -9 -3.5 -19.5t8.5 -18.5l3.5 -9t5.5 -7q3 -3 7 -4t9 -4q4 -2 6 -5t6 -8q6 -5 10 -11t11 -8q8 -3 11.5 -6.5t11.5 -4.5 q3 0 5.5 -3.5t1.5 -6.5q-2 -8 -11 -7t-17 2t-14.5 6l-13.5 10t-11.5 9.5t-12.5 9.5q-20 12 -29 28q-5 8 -9 17.5t-9 18.5q-5 8 -4 16t-2 17q-1 3 1.5 8l5.5 10.5t6 10t3 7.5q2 10 14.5 15.5t20.5 10.5q9 5 9 8t10 1z" />
<glyph unicode="=" horiz-adv-x="334" d="M291 193q-5 0 -12 3t-13 4q-37 5 -59 5t-38.5 -2t-32 -4.5t-38.5 -2.5q-3 0 -10 2t-14.5 5.5t-12.5 8t-4 9.5q0 4 5 7t12 3q8 0 23 2.5t23 0.5q9 -3 18.5 0t18.5 3q6 0 11.5 -2.5t10.5 -0.5q14 5 26 6t24 0.5t25 -2t29 -0.5q11 1 19.5 -7t6.5 -18q-1 -4 -6 -12t-12 -8z M289 109q-6 0 -13 3t-12 4q-37 5 -60 5q-22 0 -38.5 -2t-32 -4.5t-37.5 -2.5q-3 0 -10 2t-14.5 5.5t-13 8t-4.5 9.5q1 4 6 7t11 3q8 0 23.5 2.5t22.5 0.5q9 -2 19 1t18 3q6 0 11.5 -3t10.5 -1q14 5 26 6t24 0.5t25 -2t29 -0.5q12 1 20 -6.5t6 -18.5q-1 -4 -6 -12t-11 -8z " />
<glyph unicode="&#x3e;" horiz-adv-x="198" d="M104 208q-5 1 -10 1q-4 0 -9 2q-7 2 -14 -1t-13 1q-5 3 -11 4.5t-9 6.5q-2 4 1.5 5t5.5 1q18 0 38 12t35 23q5 4 8.5 13t7.5 14q6 9 2.5 19.5t-8.5 18.5l-3.5 9t-5.5 7q-3 3 -7 4.5t-8 3.5q-5 2 -7 5.5t-6 7.5q-5 5 -9.5 11.5t-11.5 8.5q-8 3 -11 6t-11 4q-4 0 -6 3.5 t-2 6.5q3 8 11.5 7.5t16.5 -1.5q8 -2 15 -7t13 -10q7 -5 11.5 -9.5t12.5 -9.5q19 -10 29 -28q5 -8 9.5 -17.5t9.5 -17.5q5 -9 3.5 -17t1.5 -17q1 -3 -1.5 -8l-5.5 -10.5t-6 -10t-3 -7.5q-2 -10 -14.5 -15.5t-20.5 -10.5q-9 -5 -9 -8t-9 0z" />
<glyph unicode="?" horiz-adv-x="228" d="M153 57q-3 -9 -2 -18.5t0 -17.5t-6 -14t-18 -8q-11 -2 -24 -5t-25 2q-11 4 -7.5 16l6.5 23q4 10 10 14t14 6t17 3t18 5q5 2 12 0.5t5 -6.5zM165 382q3 -14 2.5 -23.5t-3 -17.5t-6 -15t-5.5 -16q-2 -6 -2 -10v-7t-1 -6.5t-4 -9.5q0 -1 -4.5 -11.5l-9.5 -23l-9 -23 t-4 -11.5q1 -7 5 -13t6 -12.5t-0.5 -15.5t-13.5 -21q-2 -3 -7.5 2.5t-10.5 14t-9.5 17t-5.5 12.5q-4 15 -1 26t8.5 20.5t12 19.5t10.5 22q2 8 5.5 19.5t1.5 18.5q-2 6 -7 9.5t-10 2.5q-4 -1 -6 0t-3.5 3t-3.5 3.5t-5 2.5q-2 0 -2 3v6q-2 7 -2 18t2.5 22.5t7 21t12.5 13.5 t15.5 0.5t12.5 -9.5q3 -2 7 -1.5t9 -0.5q8 -2 12 -11.5t6 -18.5z" />
<glyph unicode="@" horiz-adv-x="463" d="M380 170l14 24t11 28t3.5 38t-8.5 54q-12 48 -50.5 76t-89 33t-104.5 -13t-96 -61q-4 -4 -13 -11t-17 -11.5t-13.5 -3t-3.5 15.5q-2 1 6.5 9l19.5 17.5l20.5 18.5l11.5 11q10 11 23 15.5t27 10.5q21 9 51 13t60 4.5t55 -1.5t36 -4q39 -8 73 -27t49 -53.5t3.5 -85.5 t-63.5 -122l-36 -48.5t-50.5 -57.5t-60.5 -42t-65 -3q-11 4 -17.5 17t-8.5 26q-1 4 -5 1.5l-7 -4.5q-20 -18 -37 -38t-43 -28q-9 -3 -18 -1t-10 10q-2 11 1 22.5t8 22.5q9 23 19 44l14 34t18 32q14 21 31 37t40 26q9 4 11.5 -4t1.5 -15q-5 -18 -14 -38t-27 -25 q-11 -2 -19 -4.5t-13 -10.5q-12 -23 -18 -49q-3 -11 -6 -23.5t6 -14.5q12 -2 20.5 4.5t15 17t12.5 22t12 20.5q8 13 15 26t15 26v7q12 10 22 22.5t26 11.5q5 -1 4.5 -4t-2.5 -7.5t-5 -9.5t-3 -9q-1 -12 -4 -24t-5 -23t-2.5 -22t4.5 -22q12 -29 33.5 -25t46.5 26t50.5 56 t44.5 66z" />
<glyph unicode="A" horiz-adv-x="744" d="M379 363q1 3 1 5q0 3 1 5q-5 1 -9.5 2.5t-8.5 1.5h-24q-48 2 -93 -8t-98 -30q-5 -2 -12.5 -4t-12.5 -4q-11 -6 -25.5 -12t-22.5 -11l-29 -20t-22 -25q-2 -4 3 -10.5t12 -13.5t13.5 -12.5t9.5 -6.5q11 17 29.5 30.5t40.5 25t44 20l40 15.5q11 5 24 9t24 7q15 5 31 9.5 l27 7.5q12 4 24 6.5t24 6.5q8 2 9 6zM344 277q1 3 0 5t1 4q5 7 9 16t3 15q-26 3 -57 -5.5l-62 -16.5q-2 -1 -5 -3t-5 -2q-9 -2 -24 -8t-31.5 -13.5t-32.5 -16.5t-26 -17q-8 -6 -14.5 -15t-11.5 -17q1 -1 10.5 -5t11.5 -5q3 0 2.5 1t2.5 0q2 -1 8 -5t9 -4q3 -1 5 0t4 1 q17 -3 39 -4.5t40 -0.5q14 0 29 2l30 4q5 1 12 1t10 4q10 12 15.5 25.5t13.5 27.5q2 2 1.5 5t0.5 5q3 5 7 12.5t5 9.5zM600 -107q5 10 6.5 24t-0.5 25q0 7 2.5 15t2.5 14q0 4 -0.5 8.5t-0.5 7.5q0 14 -2.5 26.5t-3.5 26.5q0 4 1 5q0 1 1 2q0 2 -2 7t-3 7q-2 6 -4 15t-5 17 q-2 3 -0.5 7.5t0.5 7.5q-3 3 -6 3q-2 -11 -2.5 -30t-1.5 -33q-1 -11 -4.5 -22.5t-3.5 -25.5q0 -7 -1 -15t-1 -15q-1 -8 1 -17t4 -17q1 -2 0 -9t-1 -14q0 -8 2.5 -14.5t8.5 -7.5q7 0 13 2zM551 251q-1 6 -1 12t-1 11t-3.5 9t-2.5 8q-1 3 2 6.5t2 5.5q-3 2 -4 6.5t-3 6.5 q-3 5 -7 10l-8 10q-2 3 -6.5 4.5t-6.5 3.5t-6 5t-6 3t-9 -1l-17 -2.5t-20 -3.5t-16 -2q-15 -26 -22.5 -47.5t-18.5 -42.5q-2 -5 -8 -15.5t-7 -13.5q-2 -2 -2.5 -7.5t-1.5 -10.5l41.5 9t45.5 11t45 12.5zM570 351q2 3 1 6t-2 5q-2 1 -3 2t-3 1q-3 1 -7.5 0t-8.5 -1 q5 -7 10 -13t10 -8zM585 291q4 5 3 10t1 10q0 1 2.5 9t4.5 17.5t1.5 17.5t-5.5 9q-2 0 -6 -0.5t-6 0.5q-2 -4 -4 -7.5t-3 -5.5q5 -3 5 -6l-4 -12t-1 -11q0 -8 4 -17t8 -14zM575 395q8 44 12 100t-1 111q0 4 -3.5 5.5t-6.5 3.5l-31 -58.5l-34.5 -64l-28 -52t-11.5 -22.5 l-6 -16q5 -1 12.5 -3.5l15 -5t13 -5t7.5 -2.5t11 0.5t19.5 2t20 3.5t11.5 3zM707 327q2 5 2 10q0 6 -8 10q-2 1 -5 1q-2 0 -4 1t-3 3.5t-3 2.5q-5 3 -14.5 5.5t-11.5 3.5q-3 0 -6.5 -1t-6.5 0q-3 0 -5 2.5t-5 3.5q-2 1 -6.5 0.5t-6.5 -0.5l-2 -5q-2 -15 -2.5 -30t-3.5 -29 q-2 -10 -4.5 -20.5t-2.5 -15.5q11 2 23.5 6.5l25.5 9.5q7 3 13 8.5t11 9.5q2 0 4 0.5t3 0.5q4 4 10 12.5t8 10.5zM609 -179q-1 -2 -4 -7.5t-7 -12l-7 -11.5t-4 -6q-8 -5 -14.5 -6.5t-11.5 -2.5q-1 -1 -3 -2.5t-5 -0.5q-4 1 -6 5q1 4 4 9t3 10q1 3 -0.5 6.5t-1.5 5.5 q1 2 1.5 5.5t1.5 6.5q0 13 -2.5 29t-1.5 32q0 2 1.5 7.5t0.5 8.5q0 11 -1.5 24.5t-1.5 27.5q0 2 1.5 5l2.5 5q-2 4 -2 5l4 40t3 41q0 3 -1.5 9t0.5 12q2 14 4 33.5t4 33.5q1 3 -0.5 7.5l-3.5 10.5q0 2 1.5 5l2.5 5q1 6 1.5 13t-0.5 14q-1 4 -2 8.5t-2 9.5q0 1 1 3.5t1 4.5 t-1.5 4.5t-2.5 4.5q-2 -1 -1 -0.5t-1 -2.5q-3 -7 -4 -17t-1 -20q0 -9 -0.5 -18t-1.5 -15q0 -3 -3 -7.5t-3 -9.5q-1 -8 -0.5 -18.5t-0.5 -18.5t-3.5 -18t-4.5 -21q0 -1 1 -3.5t1 -4.5l-4.5 -28t-3.5 -28q0 -2 1 -4.5t0 -4.5q-2 -9 -1.5 -19.5t-1.5 -21.5q0 -5 2.5 -11 t3.5 -12q1 -21 1 -43q0 -23 -2 -46q-2 2 -5.5 7t-6.5 10q-1 2 -0.5 5t0.5 5q0 5 -0.5 14.5t-0.5 17.5q1 15 0 33t1 30q0 4 -1 10t0 13q2 32 4 60t7 57q1 6 0.5 19t0.5 21q1 4 3 10t2 12q0 8 1.5 19t3.5 22t3 20.5t0 14.5q-2 0 -12 -2q-11 -3 -24.5 -8t-27.5 -9 q-5 -2 -10 -1.5t-10 -1.5q-13 -4 -26.5 -6.5t-27 -5.5t-26 -8.5t-22.5 -14.5q-11 -10 -19.5 -26.5t-14.5 -33t-9.5 -29t-4.5 -13.5q-3 -6 -2 -8.5t3 -3.5l4 -2t1 -3t-7.5 -3.5t-8.5 -4.5q-7 -10 -15.5 -31t-17.5 -38q-5 -10 -9.5 -23.5t-9.5 -24.5l-7 -14l-7.5 -15l-6.5 -13 t-4 -7q0 -1 -4 -11.5t-8.5 -23.5l-8.5 -25.5l-6 -18.5l-28.5 -94.5l-28.5 -95.5q-5 -2 -11.5 -6.5t-9.5 -4.5q-2 1 -9 1t-10 1q-2 0 -4.5 2t-1.5 4q2 5 5 11t5 11q1 2 0 5.5t0 5.5q6 16 13 32.5t11 33.5q5 17 14.5 41.5l17.5 46.5q2 7 3 11.5t6 18.5q2 5 4.5 12t4.5 14 q2 2 1 4.5t0 4.5q2 7 6.5 14t7.5 14q2 5 2 13q0 7 1 12q0 3 2.5 7t3.5 7q1 2 0.5 5t0.5 5l5 17t6 19t5 16t3 8q1 3 18 43.5l55 135.5v1l-2 1q-2 0 -14 -3t-21 -4q-17 -1 -37.5 -0.5t-39.5 -0.5q-4 0 -10 -1.5t-9 -0.5q-2 0 -10 1t-17 1.5t-17.5 1.5t-9.5 1q-2 1 -8.5 3.5 t-8.5 2.5q-8 1 -11 -6q-4 -10 3 -27t13 -26q1 -2 3 -2.5t3 -2.5q2 -2 3 -4.5t3 -4.5q8 -5 20 -13.5t23 -12.5l20 -8.5t16 -6.5h12q11 0 14 -1q3 0 3 -8q-8 2 -18.5 2.5t-13.5 1.5q-1 0 -5.5 1.5t-9.5 3.5t-9.5 4t-5.5 2q-2 0 -4.5 -0.5t-5.5 0.5q-2 0 -5.5 4t-6.5 4 q-2 1 -2.5 -1t-3.5 -1q-2 1 -6 4.5t-8 5.5q-2 1 -5 1t-6 1q-4 2 -9 7t-9 10q-2 2 -5 2t-5 2l-21 27t-14 31q0 1 1 3.5t1 4.5q0 5 0.5 11t-3.5 10q-2 2 -13.5 8t-16.5 12q-8 8 -14 21.5t-4 23.5q1 1 0 2.5t1 4.5q3 7 14 17t24.5 19t26 15.5l16.5 8.5l22 8.5t22 9.5 q38 16 79 27.5t72 16.5q14 2 34.5 6t32.5 6q13 2 30.5 3t32.5 3q5 9 10 22t6 16l27 66q1 1 5.5 12t11 25l13 29l11.5 26q7 15 15 35.5t16 43.5q2 4 3 10.5t2 8.5q3 8 11.5 18.5t22.5 16.5q9 4 14 5.5t8 3t5 4t4 8.5q1 2 3 19t3 29q0 1 2 3t1 4q0 5 -0.5 10t1.5 10 q4 8 7.5 19.5t7.5 21.5q-2 3 0 7q1 2 7 6t12 6q9 3 19 6t17 2q8 -2 13 -9.5t7 -16.5t2 -19q0 -9 -1 -13q-3 -8 -8 -17.5t-6 -18.5v-24q0 -18 0.5 -42.5t0.5 -50.5v-47q-1 -18 -3 -39.5l-4 -41.5t-7 -43t-10 -40q-4 -13 -6.5 -30t-7.5 -28q-2 -5 -2 -13q0 -7 -2 -14l14 -3 q2 0 7.5 1t8.5 0q1 0 6.5 -1t12.5 -3l14.5 -4t12.5 -3q2 -2 9.5 -5.5t11.5 -7.5q2 -3 5 -7t5 -6t1.5 -10t-0.5 -11q0 -2 2 -5.5t0 -5.5q-1 -3 -4.5 -10t-7.5 -11q-3 -3 -8 -6.5t-10 -7.5q-1 -1 -4 -1t-5 -2q-5 -2 -10.5 -7.5t-11.5 -8.5h-4q-2 0 -4 -1q-4 -2 -13 -9.5 t-17 -5.5q-3 0 -1.5 0.5t-0.5 1.5q-2 0 -4.5 -3t-5.5 -5q-6 -4 -10.5 -5.5t-8 -3t-6 -4.5t-5.5 -9q-1 -3 -1.5 -7.5t0.5 -7.5q7 -14 6.5 -24t0.5 -21q0 -2 2 -4t3 -5q0 -1 -1 -3t0 -4q10 -16 12 -31l4 -31q0 -2 2.5 -5.5t3.5 -7.5q1 -12 4 -30t2 -32q0 -11 4 -21.5t1 -18.5 q-2 -4 -4 -14q0 -1 1.5 -3.5t1.5 -4.5q1 -2 0.5 -4.5t-0.5 -5.5q-1 -3 -4 -9.5t-3 -9.5q-1 -6 0.5 -12t0.5 -12q0 -8 -4.5 -16.5t-7.5 -16.5q-1 -2 -0.5 -4.5t-0.5 -7.5q-2 -8 -6 -19t-5 -14z" />
<glyph unicode="B" horiz-adv-x="826" d="M231 -130q0 1 1 4.5t1.5 7.5t0.5 7t-2 3t-5.5 -4l-7.5 -9t-7 -10t-4 -8l-2 -8q6 -6 12 -6t8 6t5 17zM754 163q1 6 2 9t1 6t-0.5 8t-0.5 15q0 2 0.5 4t0.5 4q-1 2 -2 3.5t-1 3.5q-1 4 0 9.5t1 7.5q-2 5 -3 11.5t-1 13.5q-3 -1 -6 3.5t-5 11l-4 12.5t-3 8q-4 5 -8.5 9.5 t-6.5 4.5t-1.5 -1.5t-1.5 -1.5q-3 0 -5 4t-4 9t-5 8t-9 2q-1 2 -1 6t-2 4t-5.5 -2.5t-5.5 -2.5q-4 0 -6.5 3t-5 7l-4.5 7t-5 3q-2 0 -3.5 -2.5t-3.5 -2.5t-2 2q0 3 -2 3t-2.5 -1.5t-2.5 -3.5h-14q-2 0 -13 2.5t-20 6.5l-3 -10q-7 2 -18.5 -10.5t-22.5 -18.5q-10 -5 -18 -6.5 t-16 -4.5q-4 -2 -9.5 -7t-7.5 -5t-4 5q-5 -8 -11.5 -14t-8.5 -6t-2.5 1.5t-2.5 1.5q-1 0 -5 -2.5l-9 -5.5t-10 -5.5t-8 -3.5q-13 -3 -27.5 -8t-26.5 -8q0 -1 -1 -3q-2 -4 -2 -5q-2 -11 -6.5 -23t-6.5 -20t-5 -17t-4 -13q-2 -5 0 -4t0 -4l-26 -108q2 0 2 -1t2 -1 q1 0 12.5 5.5t25.5 11.5t25.5 11.5t12.5 5.5q2 0 2 -1t2 -1t5 2.5t5 4.5q9 4 21.5 6t14.5 2q6 0 10.5 -3t-0.5 -25q-8 -8 -15.5 -17.5t-16.5 -16.5q-8 -6 -18.5 -10.5t-17.5 -11.5q-2 -2 -5 -5.5t-5 -4.5q-5 -3 -10.5 -5t-9.5 -4q-17 -12 -35 -28t-35 -29q-4 -12 -7 -24 q-3 -17 -6.5 -33.5t-7.5 -33.5q12 -1 26 1t27 3q4 1 8.5 5t6.5 4q22 0 44.5 8.5t39.5 13.5q5 2 12 2t12 2q5 3 9 5t9 5q19 11 37 19.5t29 15.5l39 26t64 50.5t64.5 70.5t42.5 86zM572 346q-5 3 -10 -2t-9 -7q-8 -2 -14 -0.5t-14 1.5q-6 0 -13.5 -4t-12.5 -4q-2 0 -4 1t-4 0 q-12 -8 -26 -15.5t-23 -7.5q-2 0 -4.5 -1t-4.5 -1q-2 -2 -4 -4.5t-3 -4.5q-4 -2 -7 -2t-5 -2q-6 -5 -13 -12.5t-12 -15.5h10q1 0 14 4.5t30.5 12l37 15.5t34.5 15q15 8 30 17t27 17zM780 183q-1 -4 -7 -19t-10 -26q-8 -23 -24 -49.5t-30 -37.5q-5 -3 -11.5 -13.5t-8.5 -10.5 t-1 1.5t-1 1.5t-5 -6t-5 -8q-4 -5 -10 -9.5l-10 -7.5l-9.5 -7.5l-9.5 -7.5q-2 -2 -3 -4.5t-3 -4.5q-2 -1 -10.5 -8l-19.5 -15.5t-21.5 -15t-14.5 -6.5q-2 0 -1.5 1t-1.5 1t-12.5 -10t-17.5 -14l-23 -10t-24 -13l-1 5q-6 -5 -12 -9t-11 -6q-10 -3 -23.5 -8t-15.5 -5t-1.5 1.5 t-1.5 1.5t-8 -3.5t-11 -5.5l-25 -7.5t-29 -7.5q-2 0 -5 -3t-5 -3t-2.5 2.5t-2.5 2.5q-1 0 -7 -2.5t-13.5 -5t-13.5 -5t-7 -2.5q-2 0 -3 2.5t-3 2.5t-4 -3l-4 -6q-5 -16 -10 -37t-7 -40l-5 -20t-8 -23q-1 -3 -5.5 -9t-9.5 -12t-10 -10.5t-7 -4.5h-8q-8 0 -12 8.5t-4 21.5 t4 28.5t11 29.5q-3 3 -3.5 12.5t-2.5 9.5t-4 -1.5t-4 -1.5t-6 0.5t-6 2.5q-4 4 -8.5 8t-9.5 6q-2 1 -6.5 0t-7.5 1t-5.5 9t-5.5 12q3 11 6 26.5t5 20.5q1 7 11 21t22 28l22.5 26t13.5 15q9 10 19 19t18 19q2 10 8 18.5t8 16.5t4.5 19.5l4.5 20.5l2 1q1 5 0.5 5.5t-0.5 2.5 q2 8 5 16.5t5 16.5q2 14 4.5 26.5t5.5 25.5q-1 5 -3 8l-4 6q-5 5 -12.5 10t-9.5 5t-5 -2.5t-5 -2.5t-7 5.5t-9 10.5q-2 2 -2.5 8.5t-0.5 11.5q0 2 1 5.5t2 7.5q3 11 10.5 22.5t16.5 22l18 20t14 15.5q2 3 4 2.5t4 1.5t5.5 6.5t7.5 7.5q16 12 18 21q1 2 2.5 15.5t3.5 29 t3.5 29t2.5 16.5q4 17 12.5 34t14.5 20q1 0 2.5 1t6.5 3q6 12 16.5 19.5t11.5 7.5q4 0 10.5 -6t6.5 -11q0 -9 -0.5 -22t-2.5 -27q-2 -12 -7 -28t-7 -30q0 -3 1 -7t4 -4q1 0 7 2t14.5 4.5t18 5l17.5 4.5l13.5 3t7.5 2t6 1h8q2 0 3 -1t3 -1t6 3t6 3h16t17.5 0.5t14.5 0.5h8 q4 0 6 -6q7 -2 14 -1t13 -1q5 -2 11 -5.5t8 -3.5q14 0 28 17t37 33v-3q0 -2 -0.5 -2.5t-0.5 -1.5q-4 -4 -8 -9t-9 -9q-3 -2 -7.5 -6t-6.5 -4t-0.5 1t-0.5 1t-7 -7.5t-8 -11.5q-2 -5 2 -8q13 -7 29.5 -13.5t30.5 -17.5q3 -3 8.5 -11t12.5 -13q3 -2 6 -6l7 -9q2 -2 4.5 -3.5 t3.5 -2.5q4 -5 8 -11t6 -12q2 -7 4.5 -18t3.5 -26q0 -7 -0.5 -16.5t-1.5 -18.5t-2 -16.5t-2 -9.5zM859 680q-2 -9 -8 -24l-12.5 -30t-12 -26.5l-5.5 -11.5q-10 -18 -23.5 -38l-27.5 -39.5t-28 -36l-24 -27.5l-5 3q16 21 33.5 41.5t32.5 40.5q8 11 18 27.5l20 31.5q1 2 1 5 t1 5q5 9 11.5 22.5t7.5 18.5q0 1 1 10.5t2 21.5l2 25t2 21q1 15 -5 23q1 4 3 14q-5 14 -11.5 27.5t-14.5 21.5q-2 2 -7 1t-9 1q-1 1 -1.5 4.5t-2.5 3.5t-5 -5t-5 -5t-8 4t-8 4t-3 -4t-4 -4q-2 0 -1.5 1.5t-1.5 1.5t-5 -5t-5 -5t-7 1.5t-9 1.5q1 2 2 5.5t2 9.5q-2 2 -5 0.5 t-5 -1.5t-3 -1t-3 -1l-7 -2q1 3 1.5 7t2.5 8q-1 2 -4 2t-5.5 -4.5t-10.5 -15.5q0 5 1 10q-2 2 -6 2h-5q-5 0 -7.5 -2.5t-10.5 -8.5q1 -4 2.5 -6t2.5 -4q-1 0 -3 -2t-4 -2t-4 3.5t-3 7.5q1 1 5 -1q2 2 3.5 4.5t2.5 7.5l3 9q-1 2 -3 2q-3 0 -6 -5t-5 -5t-2.5 1t-2.5 -1 q-2 -5 2 -9q-2 0 -6 4q-1 -5 0 -9q-2 -2 -4.5 -3.5t-4.5 0.5q2 6 4.5 11t1.5 7h1l2 2q-3 4 -6 4q-2 0 -4.5 -3.5t-4.5 -3.5t-2.5 2.5t-1.5 4.5l-2 -2q0 1 -1 -4q-2 -4 -0.5 -9t2.5 -10q-3 2 -6 8.5t-5 6.5t-2 -4q-4 0 -8 -0.5t-9 -3.5q-3 -3 -7 -9q-1 0 0 2.5t0 7.5 q-8 -8 -12 -8q-2 0 -4 2.5t-4 2.5t-6 -5t-6 -5t-3 1.5t-3 3.5q-2 -4 -5 -9t-5 -10q-4 2 -6 8t-4 6t-4.5 -3.5t-4.5 -3.5t-2 1t-2 1t-4.5 -3.5t-5.5 -5.5q-4 -3 -8.5 -4t-9.5 -2q-2 -1 -3.5 -4t-3.5 -3t-4 2.5t-4 2.5q-1 0 -6.5 -4t-12.5 -8.5t-12.5 -8.5t-6.5 -4 q-2 0 -0.5 2.5t-0.5 2.5q-3 0 -8.5 -9t-6.5 -12v-1v-3l1 1h1q0 1 1 1q-2 -4 -6 -8l-6 -6q1 2 2.5 4.5t0.5 4.5q-10 -11 -12 -15.5t-7 -4.5q-2 0 -1 5t-1 5t-6 -0.5t-9 -4.5q-8 -7 -14.5 -11l-14.5 -9q-4 -2 -10 -8l-12 -12l-7 -10.5t-10 -13.5q-5 -5 -9.5 -6t-9.5 -5 q-8 -8 -16 -15t-15 -15q-2 -2 -5.5 -8t-7.5 -11q-3 0 -4 -1l-10.5 -13l-10.5 -13q-1 -1 -3 -1.5t-4 -2.5q-7 -8 -19.5 -25t-20.5 -25q-2 -2 -3.5 -6.5t-3.5 -6.5q-2 -4 -7 -8.5t-9 -9.5q-3 -5 -6 -11.5t-5 -11.5q-2 -4 -5.5 -6.5t-5.5 -6.5l-15 -27l-18.5 -34t-17.5 -35 t-11 -29q-2 -8 -3.5 -13t0.5 -22q1 -7 4 -11.5t5 -9.5q9 -18 15.5 -29t12.5 -19l11 -15t10 -17q2 -2 2 -9t-1 -12q-2 -6 -5.5 -13.5t-7.5 -14.5t-7.5 -12.5t-4.5 -6.5q-6 -3 -12 -3q-3 0 -7.5 4.5t-9.5 10.5t-9 11.5t-5 7.5q-3 6 -7.5 11t-8.5 13q-1 2 -1 7t-1 7q-2 5 -7 7 t-7 9q-4 14 -7 31.5t-7 33.5q-1 5 1 21t4 25l26 65q1 2 4 5.5t5 7.5q13 24 25 43l23 35.5t23 32.5l25 33q4 2 6 4q10 15 26 34t26 29q51 50 100 90.5t99 66.5l26.5 16.5t31.5 16.5q8 4 20 9.5l23 10.5l30 11t33 11l27.5 8.5t12.5 3.5q2 0 4 -1.5t4 -1.5t11 4t17 5 q10 2 23.5 4t25.5 3t21 1.5t10 0.5q17 0 38 -4t35 -12q2 -1 5 -6.5t5 -5.5t3 1.5t3 1.5q6 0 10 -4.5t8 -9.5q1 -2 1 -6q0 -3 2 -3q3 0 5 3q0 -3 -1.5 -10.5t2.5 -7.5q2 0 2 1q0 2 2 2q4 0 3.5 -7.5t1.5 -10.5q9 -14 8 -37t-5 -44v-7q0 -3 -1 -8zM374 690q-2 1 -5 -2.5 t-5 -5.5q0 1 4 5t6 3zM447 738q-2 -4 -5 -7t-6 -4l-1 3q3 4 4 11q6 0 8 -3zM456 737l4 9q3 0 3 -6zM500 758q-2 0 -4.5 1t-4.5 1q4 0 5.5 -1t3.5 -1zM547 770q-1 2 -1 9q1 -2 1.5 -4t-0.5 -5zM716 792l4 9q3 0 3 -9h-7zM795 762q-2 2 -3.5 7t-3.5 5t-2.5 -1.5t-2.5 -1.5 q-1 0 -2.5 4.5t-3 10l-3 11.5t-2.5 9h5q3 0 2.5 -2.5t1.5 -2.5t2 1q0 2 2 2t4.5 -4t5.5 -4q0 -2 -1 -4l-2 -4q0 -9 6 -15l-3 -11v0zM834 679q2 9 0 23t-5 24q-1 4 -3.5 6t-4.5 5q-3 9 -3 27h4q2 0 3.5 -3.5t3 -8t2.5 -8.5t1 -5q1 0 2 -1.5t2 -2.5q1 -5 2 -9.5t1 -9.5 q0 -15 -5 -37z" />
<glyph unicode="C" horiz-adv-x="524" d="M387 -143q-1 -1 -1 -3q-2 0 -3 1t-3 2q3 3 1 10q2 -2 4.5 -3.5t3.5 -4.5zM427 -47q-1 -3 -2.5 -6t-1.5 -6q-1 -2 -4 -2q-2 0 -5 -2q-1 -2 0 -4t0 -5q0 -4 -2 -9.5t-3 -10.5q1 -2 2.5 -3t0.5 -5q-1 -3 -4 -5.5t-5 -4.5q-2 5 -1.5 12.5t-0.5 14.5q0 2 -2 5t-1 6q2 9 2.5 13 t0 6t-1 2.5t0.5 3.5l6 23q1 0 3 -1t5 -1t5 1.5l6 4.5q3 -14 3.5 -16t-1.5 -11zM375 -163q-2 -6 -8 -14.5t-12.5 -16.5t-13 -14.5t-7.5 -8.5q-2 -3 -6.5 -9t-9.5 -11q-17 -17 -45 -42t-61 -46q-5 -3 -11 -9t-13 -10l-22 -11.5l-24 -12.5t-23.5 -11t-20.5 -6q-3 0 -10 -4 t-14 -6q-5 -2 -12 -2h-11q-3 0 -19 2.5t-27 7.5q-8 3 -17 10.5l-18 15.5q-2 2 -3.5 7t-3.5 10t-4 12t-4 12q-9 25 -11 49t0 47q4 37 9.5 73t13.5 70l17 71q1 3 5 13t6 17q3 18 9.5 38t14 39l14.5 35.5l12 28.5q2 5 3.5 12t3.5 12l5.5 8.5t5.5 10.5q3 7 4.5 14t5.5 14 q5 9 10.5 17.5t9.5 16.5q2 5 4.5 12l4.5 13q11 14 19 34.5t21 34.5q0 2 0.5 6.5t2.5 6.5q14 21 21.5 42.5t19.5 41.5q2 3 3 10.5t4 12.5q22 39 35 67t28 51q5 7 9 18.5t9 20.5q4 6 9.5 13t10.5 15q19 31 40 56t52 41q4 2 8.5 6t9.5 6q3 2 9.5 4t10.5 2q11 0 21.5 -4.5 t18.5 -11.5q3 -3 9 -6t11 -7q2 -2 3 -5t3 -5q11 -5 18.5 -15t12.5 -21q1 -2 4 -5.5t6 -3.5t4.5 1t4.5 1q8 0 13 -7.5t5 -19.5q-1 -8 -5.5 -18t-4.5 -18q0 -3 2 -5.5t1 -5.5q-1 -11 -3.5 -26.5t-3.5 -19.5q-1 -3 -4 -10.5t-6 -13.5q-1 -2 -0.5 -6.5t-1.5 -6.5l-9 -11t-7 -11 q-5 -10 -7.5 -21t-5.5 -22q-2 -7 -2 -14v-14q-1 -3 -3 -7t-4 -9q-6 -16 -8.5 -36t-18.5 -41q-2 -3 -7 -5.5l-9 -4.5l-18.5 -12.5t-20.5 -4.5q-2 0 -6.5 2.5t-9.5 6t-8.5 8t-2.5 7.5l31 122q1 3 1.5 3.5l2.5 2.5q3 9 7.5 24l9 29.5t8.5 26t4 13.5q1 3 2.5 14.5t-0.5 18.5 q-1 3 -3.5 6.5l-4.5 6.5q-2 4 -2 8q0 5 -2 9q0 5 3 8q-7 4 -13 10.5l-12 12.5t-11.5 10t-12.5 4q-9 0 -17 -6.5t-14 -15.5t-10 -17t-6 -11q-2 -2 -6.5 -6t-6.5 -7q-14 -24 -29 -53.5t-31 -57.5q-2 -3 -6.5 -6t-6.5 -7t-3.5 -10t-4.5 -11l-24.5 -40l-27 -44.5l-27 -43.5 l-24.5 -38q-1 -2 -4.5 -4.5t-5.5 -5.5q-5 -8 -7.5 -17t-7.5 -17q-2 -2 -5 -4t-5 -5q-2 -4 -2 -10q0 -5 -2 -9q-4 -5 -9.5 -9.5t-9.5 -9.5q-6 -12 -9.5 -25.5t-8.5 -22.5q-2 -4 -3.5 -12.5t-4.5 -15.5q-6 -11 -16 -25q-1 -1 0 -3t1 -6q-1 -8 -4 -16.5t-7 -17.5q-2 -3 -2 -8 q0 -4 -2 -9q-2 -4 -5 -8l-6 -8q-1 -5 -0.5 -9t-1.5 -8l-4.5 -6.5t-3.5 -6.5t0.5 -11t-0.5 -14q-2 -11 -6 -24.5l-8 -26t-7.5 -21.5t-3.5 -11q-1 -3 -0.5 -7t-0.5 -9q-2 -11 -6 -24.5t-5 -22.5q0 -4 0.5 -9.5t0.5 -10.5q0 -3 -2 -9t-1 -10q1 -35 3 -66.5t17 -59.5q0 -1 1 -3 q0 -4 2 -6q5 -10 18.5 -20.5t26.5 -13.5q6 -2 14 -3.5t11 -1.5h16q1 0 9 2t18.5 5t22 7t19.5 9q22 12 42.5 26.5t44.5 34.5q31 25 59 53l13.5 14t15.5 18q2 3 5.5 7.5t8.5 12.5q2 2 3 6.5t4 8.5q1 2 3.5 4t3.5 4q1 0 4 6.5t7 6.5q6 0 7.5 -4.5t0.5 -8.5z" />
<glyph unicode="D" horiz-adv-x="938" d="M475 386q-2 -7 -3 -7.5t-3 -2.5v-1q0 -2 1 -3q-7 -5 -11 -5q-1 3 -0.5 8t1.5 9q2 4 5.5 9.5t6.5 5.5q5 0 4.5 -5.5t-1.5 -7.5zM477 437q-2 -4 -3.5 -8t-3.5 -8h-1q-2 0 -2 1q-1 5 0 13.5t2 13.5q4 9 7 9q4 -4 3.5 -10t-2.5 -11zM411 640q0 2 1.5 11l3.5 21t3.5 24.5 l2.5 21.5q0 3 -5.5 7.5t-7.5 4.5q-1 0 -9 -1t-19 -2t-22.5 -3t-20.5 -3q-4 -1 -9 -4.5t-9 -4.5q-3 -1 -7 0t-7 -1q-9 -6 -21 -10l-24 -8t-22.5 -9t-16.5 -12q17 -14 32.5 -16.5t27.5 -5.5q15 -3 34.5 -6.5l37.5 -6.5l31 -5t15 -2t5.5 2.5t5.5 7.5zM892 287q2 5 1 10.5 t-2 7.5q-1 -2 -2.5 -3t-3.5 -3l2 10q2 2 4 2t4 8q4 11 3.5 27t7.5 32q-2 2 -2 6q0 5 -2 6l-2 1q1 0 -1 0q-3 0 -7.5 -5.5t-7.5 -5.5q-8 1 -4.5 9t5.5 13q-7 3 -7 8l2 4q-1 5 -4 11t-6 9q-1 1 -0.5 3.5t-0.5 3.5q-5 3 -8 6.5t-6 4.5q-1 2 -1 5t-3 3t-5.5 -2.5t-6.5 -5.5 q-1 5 0 9.5t2 6.5q-4 4 -8.5 10l-8.5 11.5t-7.5 9.5t-4.5 4q-2 0 -4 -3t-4 -3t-2 2t-2 3q-3 0 -3 -3q0 -2 -3 -2q-3 1 -3 4t1 5l-4 -4q2 8 1 11.5t-3.5 5t-6.5 1.5h-8q-2 0 -9 5t-13 7q-1 2 -1 4t-3 3q-2 0 -3 -2.5t-3 -2.5q-4 1 -8.5 6t-8.5 7q-8 5 -21.5 9t-15.5 4 q-3 1 -3 -1q0 -1 -3 -1q-3 1 -4.5 4t-3.5 5q-5 2 -12 3t-13 3q-2 1 -3.5 5t-4.5 4q-2 0 -7.5 -3t-7.5 -1l-2 4q-12 -1 -27.5 -2t-17.5 0q-5 0 -9 9q-5 -6 -8 -7.5t-5.5 -1t-5.5 1t-6 -1.5q-8 -5 -17 -13.5t-16 -16.5q-5 -6 -8.5 -15.5t-8.5 -16.5q2 -2 5 -8.5t1 -10.5 q-1 -5 -4.5 -8.5l-6.5 -6.5q-5 -6 -6.5 -12.5t-3.5 -11.5l-1 2q0 8 1 18.5t3 14.5q1 5 5 9t5 7q3 10 -4 14t-7 14q-1 5 2.5 13t5.5 13q-6 -3 -13 -7.5t-13 -6.5l-17.5 -64l-16.5 -63l-10 -35.5t-3 -28.5q12 15 16.5 34t8.5 29q1 2 2 8.5t3 13t5.5 11.5t8.5 5q4 0 3.5 -10 t-1.5 -15l-10 -24t-13 -32q-2 -4 -1 -7t-1 -6q-1 -3 -3 -6t-2 -5q-6 -24 -13.5 -45.5t-10.5 -35.5q-2 -8 -4 -19t-6 -19l-14.5 -27t-10.5 -24q0 -2 -3.5 -16.5t-7.5 -34t-9 -40.5t-8 -36q-1 -4 -0.5 -8.5t-0.5 -7.5l-8 -34t-6 -31q-2 -9 -3 -20t0 -18q5 0 11.5 1t12.5 3 q4 1 11.5 4.5l15.5 7l14 6t7 2.5q3 -1 1.5 -2t1.5 -1q1 0 10.5 3t21 7l20.5 7t11 3t3 -1t3 -1q4 0 17.5 4t30.5 10.5l36.5 14.5l35.5 14.5l27 11t12 5.5l29 16l31 17l27.5 15l17.5 10q12 8 26 19.5t26 22.5q4 4 8 7.5t6 5.5q5 5 10 12t10 12q3 2 5.5 3.5t3.5 2.5l10.5 11 t10.5 10q2 8 4 10q3 5 7.5 9.5t6.5 7.5q4 7 8 16l8 17.5t6.5 15t2.5 8.5zM923 289l-7.5 -15t-10.5 -19q-4 -7 -8.5 -23.5t-15.5 -28.5q-1 -1 -3.5 -2t-4.5 -3q-3 -2 -6.5 -8.5t-6.5 -9.5l-25.5 -26t-26.5 -22q-6 -3 -16 -13.5t-21 -18.5q-14 -10 -31 -19.5t-29 -14.5l-4 -4 t-4 -3t-4 -0.5t-4 -0.5q-12 -8 -28.5 -18t-31.5 -18q-10 -5 -18.5 -7t-19.5 -10q-6 -3 -21.5 -7.5t-26.5 -9.5q-18 -8 -36.5 -14.5t-32.5 -9.5q-2 0 -5 -3t-6 -4q-21 -6 -41 -14.5t-38 -10.5q-2 0 -6.5 -3.5t-6.5 -5.5q-7 -2 -19 -5t-22 -10q-6 -4 -7.5 -8l-3.5 -9l-28 -98 q-1 -4 -5 -9t-5 -10q-2 -4 -1.5 -7t-0.5 -6q-3 -14 -8 -27.5l-10 -27.5q-2 -8 -1 -12l-1 -3q-3 -10 -11 -20q-5 0 -12 -1.5l-13.5 -3t-11.5 -2.5t-6 -1q-10 1 -8 15q3 23 9 46.5t11 46.5q5 20 9 40.5t9 43.5l-34 2q-3 -1 -5.5 -4t-5.5 -4q-7 -3 -14.5 -4t-15.5 -5 q-11 -6 -18.5 -12.5t-15.5 -5.5q-3 0 -9.5 1t-9.5 2q-5 0 -7.5 6t2.5 20l15 13.5t16 10.5q5 2 12 2.5t15 2.5q6 2 18.5 6.5t22.5 8.5t22.5 6.5t23.5 13.5q5 18 8 38.5t7 37.5q5 26 10.5 52t10.5 61q1 6 4.5 14t4.5 14q2 12 4.5 24.5t4.5 23.5q4 24 10 54l12.5 60.5l13 60 t12.5 52.5q4 19 10.5 45l13 53l13 53l11.5 46q0 4 -2 4q-5 0 -12.5 2.5t-9.5 2.5q-3 0 -8.5 -3t-8.5 -3t-2.5 3t-1.5 4q-3 0 -8.5 -3.5t-8.5 -2.5q-2 0 -2.5 1t-3.5 1q-2 0 -5.5 -2.5t-5.5 -3.5l-14.5 -2.5l-16.5 -3t-14 -2.5t-7 -1q-2 0 -11.5 2.5t-12.5 2.5q-2 0 -6 -2 t-7 -2q-2 0 -9 0.5t-16 0.5q-8 0 -15.5 0.5t-8.5 0.5q-2 0 -9 5.5t-13 7.5q-3 1 -8.5 2.5t-10.5 3.5q-11 7 -14 16t0.5 18.5t12 18.5t20.5 16q17 7 33 10q2 1 6 4.5t7 5.5q22 10 40 16.5t37 12.5q3 1 8.5 5t10.5 6q27 10 59 20.5t55 16.5q4 1 8 2.5t7 1.5q7 1 16.5 2t18 1.5 t14.5 0.5h8q7 -2 19 -12q6 -5 12 -11q3 0 2 1t2 1q2 0 5 -10t4 -10q3 0 2.5 1t2.5 1q2 0 4 -4.5t2 -7.5q0 -7 -4 -15.5t1 -12.5q-1 -2 -2.5 -2.5t-3.5 -2.5q3 -2 1.5 -6.5t-0.5 -9.5h-6q-2 0 -7 9.5t-7 17.5q-1 4 -0.5 10t-1.5 9q-2 2 -4.5 2.5t-5.5 2.5q-2 -3 -3 -5t-3 -7 q-1 -4 -0.5 -10.5t-1.5 -11.5q-2 -10 -5 -21t-5 -22q-2 -10 -8 -24q0 -2 0.5 -5t2.5 -5q4 -4 9.5 -7.5t8.5 -4.5q2 0 5.5 2.5t7.5 4.5q5 7 6 12q2 5 -0.5 10t-0.5 9l3 14q2 0 2.5 1t2.5 1t4.5 -4t3.5 -7q2 -6 0.5 -14t-2.5 -15q0 -3 -1.5 -6.5t-3.5 -6.5q11 -4 28 -8t20 -4 q2 0 4.5 2t4.5 2t7 -2.5t10 -1.5q2 -2 4 -5t4 -3q3 0 6.5 1t5.5 1q6 0 14.5 -2t17.5 -5t16.5 -6t10.5 -4q9 -3 22.5 -5t24.5 -7q5 -2 9.5 -6t9.5 -6q2 -1 5 -1t7 -1q2 -1 2.5 -4t3.5 -3q19 -3 29.5 -10.5t23.5 -15.5q20 -11 36.5 -30t33.5 -36q3 -2 4 -9t3 -9q2 -5 9.5 -11 t9.5 -14q4 -9 5.5 -24t3.5 -28q0 -7 2.5 -14t2.5 -12q0 -6 -1 -13.5l-2 -15t-2 -13.5t-1 -8z" />
<glyph unicode="E" horiz-adv-x="882" d="M419 155q1 3 4 15.5l7 29.5l8.5 34.5t8.5 31.5q-2 4 -2.5 6.5t-2.5 2.5q-8 2 -17 -5t-14 -9t-8.5 -2.5t-6.5 -2.5q-6 -16 -8 -25.5t-3.5 -20t-4 -25t-8.5 -41.5q-2 -8 -2 -16q0 -7 1 -11q9 4 15 4t11.5 2t10.5 8.5t11 23.5zM446 400q0 13 -1.5 21.5t-4 15l-4.5 12 t-3 13.5l-7 -17q-1 -2 -2 -9.5t-2 -17t-1.5 -17.5t-0.5 -9l22 -3zM433 720q-8 4 -18 11t-13 8q-3 0 -10 -2.5t-15 -7.5t-15 -12t-10 -15q-3 -11 -3 -16q7 -9 19.5 -18.5t14.5 -10.5h5q5 9 9 19t9 18q5 7 14 14t13 12zM895 286q-5 1 -9 5t-8 8.5t-8.5 8.5t-9.5 4 q-10 1 -22.5 2.5t-23.5 3.5q-1 2 -0.5 3.5t-2.5 2.5q-2 0 -6.5 -4t-6.5 -3q-15 0 -36 -1t-40 0q-2 0 -7 -2.5l-7 -3.5q-17 -2 -33.5 -1t-32.5 1q-5 -4 -10.5 -4.5t-11 0l-11 1t-10.5 -1.5q-2 -2 -4.5 -3.5t-4.5 -3.5q-6 0 -14.5 -2t-16.5 -3.5t-15 -2.5t-8 -1q-4 1 -4 2 q0 2 -3 2q-3 1 -13.5 -4t-17.5 -8q-6 -4 -11 -16q-1 -2 -3 -8.5l-4.5 -14l-5 -15.5l-4.5 -14q-21 -39 -36.5 -76t-23.5 -83q-2 -5 -4.5 -12.5t-6.5 -16.5q39 1 80 5t79 2q6 0 15 -1l17.5 -2t15 -2t7.5 -1t10.5 -3t22 -7.5t25 -9.5t21.5 -9q13 -6 25 -13.5l24 -15.5 q1 -2 0.5 -7t-0.5 -10q-10 -10 -14 -9q-2 0 -3 1.5t-4 2.5t-7.5 9t-7.5 8q-2 0 -7.5 -1l-11.5 -2l-12 -2t-7 -1q-3 1 -8 5.5t-8 5.5q-3 0 -6 -6t-6 -5t-4 7t-4 4q-14 -3 -31 -5t-21 -1l-32 8q-11 2 -19 -2t-19 -2q-3 0 -6 2t-5 3q-3 0 -3.5 -1.5t-2.5 -2.5q-10 -8 -21 -6.5 t-17 -0.5q-5 -2 -10.5 -4.5t-8.5 -1.5q-3 0 -2 1.5t-2 2.5q-1 0 -6 -2t-11 -5l-11.5 -5.5t-7.5 -3.5q-14 -6 -23 -18t-26 -27q-5 -10 -11 -23.5l-12 -26.5l-10.5 -23t-5.5 -13q-2 -5 -4 -20.5t-6 -24.5q-5 -13 -15 -22t-15 -8q-3 1 -2 2.5t0 3.5q-5 2 -10.5 2.5t-8.5 1.5 q-3 0 -5 5t-3 10q5 11 8 24.5t6 25.5q2 8 7 17.5t8 18.5q-1 5 -2.5 8t-0.5 9q2 11 6.5 25t4.5 25q0 4 -3.5 5.5t-5.5 5.5q-2 6 -2 18q0 11 1 21q0 2 1.5 5t3.5 10q2 6 3.5 9l2.5 5q3 5 7 8t6 8t2.5 12t1.5 14q5 27 5 54t2 53q1 14 5 34.5t6 37.5q1 7 0 14t0 15q0 11 3 24 t3 24q1 6 -2.5 12.5t-3.5 17.5v13t0.5 13.5t0 11t-1.5 4.5q-3 0 -7 -6t-7 -5q-4 0 -6 8t-3 18t-3 15l4 8q3 3 12.5 10t12.5 6q3 0 7 -2.5t7 -5.5l2 2l2 5q1 3 4 15.5t6 29t6.5 34t5.5 31.5q1 6 -1.5 14.5t-3.5 16.5q-8 4 -14 17.5t-11 18.5q-7 8 -9.5 20t-16.5 26 q-7 8 -13.5 19t-14.5 19q-5 5 -11.5 9t-12.5 7q-15 9 -26 15l-21 11t-19.5 11l-22.5 14q-3 2 -5 9.5t-2 14.5q-1 5 1 13.5t4 14.5q3 8 10 13t14.5 8t13.5 4t7 1q2 -1 6 -5.5t9 -6.5q14 -7 18 -9.5t5 -3.5t4 -1.5t16 -2.5q1 0 18 -2l37 -4.5l36.5 -4.5t18.5 -2q1 0 6 0.5 t12 1l14 1t12 0.5q31 -3 50.5 -5.5t30.5 -4.5t15 -3.5t6 -1.5q3 0 5.5 2.5t6.5 2.5q1 0 20.5 -2.5l42.5 -5.5t42 -5t21 -2q1 0 8 -2.5t15 -4.5t14.5 -4t8.5 -2q3 -1 5.5 2t5.5 2q1 0 17.5 -3t36 -6t35.5 -6t18 -3q3 -1 2 -4t2 -4q3 0 8 2.5t8 2.5q3 -1 5 -3.5t4 -3.5 l46.5 -17l46.5 -18q8 -3 19 -14t19 -18q5 -3 7.5 -17.5t-3.5 -28.5q-2 -5 -8.5 -15l-11.5 -18l-28 -18t-27 -14q-12 -4 -27 -6t-18 -1t-8 5t-10 4l8 21q12 11 24.5 15.5l24 8.5t22 10.5t17.5 22.5q-2 8 -6 17.5t-9 14.5q-3 3 -9 4.5t-10 3.5q-2 2 -3.5 7.5t-5.5 6.5 q-2 0 -6 -1t-7 -1q-2 0 -6 4t-8.5 8t-8.5 8t-5 4q-3 1 -11 -1.5t-12 -1.5q-3 0 -9 4t-9 5q-2 1 -13 -1t-14 -2q-5 1 -5 7q-7 0 -15.5 1.5l-16.5 3t-14.5 3t-7.5 1.5q-2 0 -7.5 -0.5t-11.5 -0.5h-12h-7q-2 0 -13 4.5t-13 5.5q-3 0 -9 -1.5t-10 -1.5q-13 0 -24.5 3t-22.5 5 q-5 1 -14 -2t-12 -3l-11 5.5t-12 4.5q-4 1 -11 1q-6 0 -13 -2.5t-13.5 -8t-10.5 -15.5q-1 -2 -4.5 -12l-8 -22.5t-9 -26.5t-8.5 -24q0 -2 -0.5 -6t-0.5 -6q-1 -6 -4 -14t-5.5 -16.5t-4 -16.5t1.5 -12q20 -32 33.5 -72t15.5 -98q20 -3 41 -4.5t41 -3.5q15 -2 35.5 -4.5 t39 -5.5t31.5 -5.5t15 -2.5h10t18.5 0.5t17.5 0.5h11q3 0 11.5 -4.5t11.5 -4.5q2 -1 8 1.5t9 1.5q4 0 2 -3t1 -3q3 -1 5.5 2t5.5 2q3 0 2.5 -3t2.5 -4h10q9 0 18.5 -0.5t17.5 -0.5h10q3 -1 3.5 -4t2.5 -3q9 -1 15.5 -10t8 -18.5t-2 -17.5t-12.5 -6z" />
<glyph unicode="F" horiz-adv-x="873" d="M669 664q3 11 2.5 16t-2.5 12q4 10 0.5 19.5t-4.5 19.5q0 1 0.5 1.5t0.5 1.5v1l-8 16q-4 8 -10 14.5t-11 12.5q-5 5 -12 10.5t-12 10.5q-2 1 -4 1q-1 0 -2 1t0 1.5t0 1.5q-4 2 -8.5 5.5t-6.5 3.5q-3 0 -6.5 -3t-5.5 -3q-3 0 -4.5 2.5t-3.5 2.5q-3 0 -4 -1.5t-3 -1.5 q-3 0 -7.5 1t-8.5 1q-1 2 0 2.5t-2 0.5q-2 0 -6 -0.5t-6 -0.5q-2 -1 -3 -2.5t-3 -1.5t-4 1t-4 1q-3 0 -9 -1.5t-11 -3.5l-2 -2q-5 0 -9 0.5t-7 -1.5l-4.5 -3t-3.5 -1t-1 1t-1 1q-3 0 -8.5 -3t-9.5 -4q-18 -2 -39.5 -11.5t-42.5 -17.5q-5 -2 -10 -5.5t-10 -5.5 q-21 -9 -48 -24.5t-44 -26.5q-4 -2 -8.5 -5.5t-8.5 -5.5l-12 -9l-16.5 -12.5t-17 -14t-14.5 -13.5l-5 -5t-7 -6q-1 -2 -3 -2q-3 -7 -10 -18t-8 -13q0 -1 -1 -5.5t-1.5 -10t-0.5 -10.5q0 -4 1 -6q10 -17 22 -26.5t25 -15.5t26.5 -9.5t26.5 -7.5q4 -2 10.5 -1.5t11.5 -1.5 q27 -5 57 -8t44 -4q30 -2 61.5 -3t60.5 -5q7 -1 17.5 -3t12.5 -2q3 0 12 2.5t15 4.5q4 2 9 2t7 2q7 3 14.5 4.5t12.5 6.5q7 5 13 12t11 12q1 1 5 1q2 2 4.5 5t2.5 5l27 94q-4 0 -2 2q5 8 9 18.5t5 12.5zM608 421q1 3 1.5 9.5t1.5 10.5q-2 2 -10 6t-12 4q-2 0 -3 -0.5 t-3 -0.5q-3 0 -5 2.5t-4 2.5t-7.5 -1.5t-7.5 -1.5q-3 0 -5 1l-4 2q-2 0 -7 -0.5t-7 -0.5l1 -1v-1h-1q0 -4 3 -7q3 -4 8.5 -5t8.5 -3q11 -7 21 -17q5 -1 11 -5t9 -4h6l2.5 5zM746 605q-1 2 -2.5 3t-2.5 2l-2 -7l2 -1h1q0 3 4 3zM755 623q-1 0 -2 0.5t-4 0.5l1 -3q-5 -2 -5 -6 q2 0 2 -3q2 2 4 5.5t4 5.5zM932 358q-1 -2 -5.5 -4.5t-9.5 -4.5q-6 -3 -13 -5h-1q-2 0 -2.5 2.5t-0.5 4.5q-4 10 -15 10t-17 5q-5 3 -10 7t-8 4q-2 1 -5 -0.5t-5 -1.5q-7 0 -17.5 7t-11.5 7q-2 0 -2.5 -0.5t-3.5 -0.5q-1 0 -6.5 2t-13.5 4.5t-17 5l-16 4.5q-4 1 -11 0.5 t-13 1.5q-4 1 -8 2.5t-9 2.5q-5 2 -16 2h-12t-2 -1t-2 -2l-2 3q-2 -5 -5 -10.5t-4 -8.5q-2 -5 0.5 -10.5t6.5 -5.5h3q0 1 3 1q2 0 11 -2.5l16 -4.5q1 -1 1.5 -2.5t3.5 -1.5h9q4 0 7.5 -1t9 -3t14.5 -7l-1 -5q-5 -3 -9 -3q-2 0 -3 2t-4 3q-2 0 -4.5 -2.5t-5.5 -1.5 q-2 0 -7.5 0.5t-11.5 1.5t-11.5 1.5t-6.5 0.5q-2 0 -8 3t-9 3q-2 0 -6 -1t-9 -1q-3 -9 -8 -22t-9 -24.5t-7.5 -20t-3.5 -9.5q-1 -3 -2 -10.5t0 -12.5q14 1 24 0t27 3q14 4 29.5 6t31.5 5q4 1 8 1t9 2q4 1 10 3.5t9 2.5q2 0 2 -1l1 -1q0 -2 -1.5 -3t-1.5 -2q-3 0 -7.5 -1.5 t-7.5 -1.5h-2q0 1 -2 2q-2 0 -5.5 -5t-7.5 -5q-3 0 -2.5 0.5t-2.5 0.5q-2 0 -12 -2.5t-16 -4.5q-9 -2 -21 -6t-24 -6q-4 -1 -12 -1q-7 0 -14 -2q-5 -2 -10.5 -3.5l-9.5 -2.5q-2 -1 -3 -2.5t-2 -2.5l-12 -37.5l-13.5 -41.5l-11.5 -34.5t-5 -15.5t-4 -18.5t-8 -38t-8 -38 t-4 -18.5t-2.5 -5t-4.5 -9t-4.5 -9t-2.5 -5q0 -2 1.5 -13.5t-0.5 -19.5q-4 -14 -7.5 -28t-7.5 -28q-1 -2 0 -4t1 -4q-3 -15 -9.5 -39t-8.5 -42q0 -2 -1.5 -5l-2.5 -5q-3 -12 -6 -28.5t-4 -19.5q0 -1 -0.5 -2t-2 -6.5t-5.5 -18.5l-12 -39q-2 -6 -4.5 -14.5t-7.5 -16.5 q-3 -5 -15.5 -8t-17.5 -1q-5 4 -4 7.5t2 9.5q2 11 5 24l6 27l13 48.5l16.5 60l22 77l28.5 100.5q1 2 1 5q0 2 1 4q5 25 12 50l14 50q1 3 0 7.5t0 7.5q2 9 2.5 15t-0.5 14q0 4 2 8.5t2 9.5q-1 9 -4 21t-5 23v7q0 5 1 7q1 3 2.5 3.5t2.5 2.5h6q8 -10 6.5 -20.5t0.5 -10.5 q7 0 8 -1l1 1q3 16 9 32t4 30q-2 1 -3.5 0.5t-3.5 -0.5t-6.5 -0.5t-9.5 0.5q-2 0 -2 -1t-3 -1q-2 0 -17.5 1t-26.5 3l-35 4t-33 7q-23 6 -35.5 11.5t-28.5 15.5q-2 2 -4 6.5t-6 7.5q-7 5 -11 12t-8 15q-2 3 -5 6t-4 8q-2 3 -2 13t4 15q5 5 12 8q7 2 15.5 3t10.5 1t11.5 -1 t16.5 -2q2 0 4.5 -2t4.5 -3q2 -2 4.5 -1t4.5 -1q12 -6 25.5 -14.5t18.5 -22.5q-4 -2 -5.5 -3t-4.5 -1q-2 0 -11.5 3t-15.5 7q-4 2 -7 5.5t-6 5.5q-6 4 -16.5 6.5t-13.5 2.5h-3q-2 -1 -2.5 -0.5t-1.5 -2.5t2 -10l6.5 -14.5t7 -13l3.5 -5.5l11.5 -12t12.5 -12q4 -2 10.5 -6 t11.5 -6q8 -5 19.5 -6.5t21.5 -3.5q3 -1 5.5 -2.5t6.5 -1.5q2 0 3.5 0.5t3.5 0.5q3 0 8.5 -2.5t8.5 -2.5q9 -1 23 -1t26 2q4 21 8 36t7 28l6 27t5 33q-2 2 -3.5 4t-3.5 2q-3 0 -3 -1h-3q-2 0 -10 5.5t-13 9.5q-1 1 -7 1q-2 7 -12 12l-14 7q-5 2 -12 8t-15 11q-2 2 -6 2t-7 1 q-6 0 -4 8q1 3 5 6t9 6q-7 7 -20.5 6.5t-21.5 -2.5h-7t-9 1t-11.5 2l-12.5 2q-20 0 -45 2t-45 4q-6 1 -14 1.5t-15 2.5q-1 1 -0.5 1.5t-2.5 0.5q-2 0 -4.5 -1t-4.5 -1t-9 1.5l-16 3.5l-18.5 4t-15.5 4q-2 1 -7 3t-7 2t-3 -1t-4 -1q-2 0 -8.5 3t-11.5 4q-19 2 -31 12.5 t-26 20.5q-3 2 -6 8.5t-5 13.5q0 2 1 4.5t1 4.5q0 1 -1 2.5t0 4.5q7 22 25 44.5t35 40.5q2 2 5.5 4t5.5 3q23 20 42 35t39 28q2 1 4.5 1.5t4.5 2.5q3 2 7 6.5t8 6.5l15.5 10l14.5 10l16.5 9l18.5 10l33 16.5t30 14.5q1 1 2 3t4 2q2 0 1 -0.5t1 -0.5q5 0 15 4q2 1 6.5 4.5 t8.5 5.5q14 2 32 9q22 9 42 13.5t38 7.5q7 2 24 1.5t31 -0.5l6 3q1 -1 1 -2t1 -2q11 0 21 -4q2 -1 3.5 -2.5t3.5 -1.5q3 0 2.5 0.5t2.5 0.5q2 0 10 -4q5 -3 10 -8l9 -9q1 -1 2 -2.5t2 -1.5q1 -2 3.5 -6t4.5 -5q5 -11 11.5 -22.5t14.5 -20.5q3 3 8.5 5t10.5 6q3 0 8.5 1.5 t7.5 1.5t6 -5.5t7 -7.5q-1 -3 -1 -8q0 -4 -2 -7q2 -2 1.5 -7t-2.5 -9q2 -2 2 -6q-2 -11 -6 -23t0 -18q7 -1 15.5 -4t11.5 -16q1 -2 -0.5 -5.5t-2.5 -7.5l2 -2q-2 -8 -5 -18q5 -2 4 -5.5t-2 -8.5q-1 -2 -5.5 -13.5t-9.5 -19.5l-7.5 -12.5t-9.5 -13.5q-3 -5 -8.5 -11 l-10.5 -11q-8 -8 -11 -13.5t-6 -16.5q-1 -5 0 -7q0 -2 -1 -4.5t-3 -4.5q0 -5 1 -9.5t1 -9.5q0 -10 -3 -16t-3 -17q4 -2 14.5 -6.5l22.5 -9.5t21.5 -8.5t11.5 -3.5q3 -1 2.5 0t1.5 1t12 -4.5t17 -6.5q2 0 4.5 -0.5t4.5 -0.5q2 -1 3.5 -3t3.5 -3q3 -1 8.5 -1.5t10.5 -2.5 q3 -1 6.5 -3.5t6.5 -5.5q2 -1 5 -0.5t5 -0.5q8 -3 20.5 -8.5t20.5 -11.5q1 -2 5 -8.5t3 -9.5zM827 287q-5 1 -8.5 0.5t-7.5 -0.5q3 -1 6.5 2t5.5 3q4 0 4 -5zM839 290h-4q-2 0 -4 2l8 -2v0zM870 298q-2 0 -3.5 -1t-2.5 -1q-1 1 -1 2v2l7 -2v0z" />
<glyph unicode="G" horiz-adv-x="977" d="M930 193q2 3 0.5 5t-1.5 4q1 4 4 7.5t4 6.5q1 4 -4.5 12t-1.5 14q-3 3 -8 6.5t-7 8.5q-2 2 -2 6t-2 6q-15 8 -30.5 20.5l-27.5 21.5q-1 1 -4 1q-2 0 -3 1q-3 3 -7 6t-7 4q-5 2 -10.5 3t-10.5 3q-2 1 -4.5 3t-5.5 3t-16 1.5t-16 0.5q-2 1 -4.5 3t-4.5 4q-3 2 -8.5 4 t-7.5 2q-3 1 -11 1.5t-14 2.5q-2 0 -5.5 -1.5t-5.5 -0.5q-3 0 -8 2.5t-8 2.5q-1 0 -8 1.5t-16 2.5t-19 2.5t-17 1.5q-3 0 -5.5 -1t-5.5 -2q-4 -1 -8.5 0t-8.5 0q-5 -5 -7 -8q0 -1 0.5 -8t1 -16l1 -18.5t-0.5 -16.5q-1 -10 -2.5 -20t-1.5 -18q0 -5 1 -11t1 -10 q-1 -7 -2 -16.5t-1.5 -19.5t-1.5 -18.5t-2 -12.5q-5 -28 -12 -57.5t-11 -54.5q43 5 95 16.5l107 24.5q8 2 18 7.5t12 4.5q3 0 1.5 -0.5t1.5 -1.5q2 0 8.5 4t11.5 6q2 1 4.5 0.5t3.5 0.5q7 2 15 7t15 8q2 1 4 1h4q3 3 13.5 10t12.5 12q2 2 1.5 5.5t1.5 5.5q3 1 3.5 0t3.5 -1 q3 -1 4.5 0t3.5 2q5 6 10.5 14t6.5 10zM649 747q-19 -8 -37.5 -14t-34.5 -14q-27 -12 -45 -30q-5 -5 -8.5 -13t-4.5 -10q-8 -19 1.5 -37t32.5 -22q3 -1 8 -2t8 0l3 9q1 2 2.5 13.5t2.5 14.5q0 1 4 6.5l9 12.5l10.5 15t8.5 14q5 8 11 15t11 14q3 4 7.5 8t5.5 6zM226 -27l3 8 l4 -3q1 -1 0 -3t-1 -3zM253 -45l-2 -1q0 -1 -3 0t-4 2.5t-2 3.5q2 2 8 5q4 -6 3 -10zM284 -80q-3 -3 -7 -2q-5 0 -8 5q-1 2 -1.5 5t-2.5 7q-3 3 -6 4q-1 1 -1 3q0 1 -1 2q2 0 3 1t4 0q2 0 4.5 -5t4.5 -7t4.5 -6.5t6.5 -6.5zM293 -116l2 6l4 -1l-2 -5h-4zM314 -155 q0 5 -3.5 11.5t-5.5 12.5q5 -1 9.5 -3.5t7.5 -8.5zM342 -196q-2 -1 -6 -1q-3 1 -4 2l-3 3q3 5 -2.5 14.5t-9.5 15.5l5 7q-2 -2 1 -2q4 0 5 -2q2 -8 6 -16t10 -16l-2 -5v0zM963 187q-4 -8 -6.5 -8.5t-6.5 -8.5q-5 -9 -21 -18t-24 -17q-1 0 -3.5 -0.5t-4.5 -0.5q-2 -1 -2 -3 q0 -1 -2 -3q-4 -4 -11 -6q-4 -1 -11.5 -2t-13.5 -3q-8 -4 -16 -9.5t-18 -9.5q-2 -1 -5 0t-5 1q-5 -1 -11.5 -2.5t-12.5 -2.5q-1 -1 -3 -2.5t-4 -3.5q-5 -2 -12 -2q-6 0 -12 -2q-13 -4 -20.5 -6.5t-14 -4t-12.5 -3.5t-16 -6q-4 -1 -9 0.5t-10 -0.5q-7 -3 -13.5 -4.5 t-12.5 -3.5q-4 -2 -6 -4q-4 -1 -9 -1q-4 0 -10 -1q-3 -1 -6.5 -5t-6.5 -3t-2 1q2 0 -1 1t-19 -5t-28 -11l-2 -5q2 -4 8 -5q3 -1 4.5 0t6.5 0l2 -4q-5 -2 -9.5 -2.5t-6.5 -0.5q-5 -2 -9 -6t-5 -6q-2 -2 -1 -3t1 -2q-3 -13 -8 -28.5t-11 -29.5q-1 -3 -2.5 -7t-3.5 -7 q-2 -2 -3.5 -5.5t-1.5 -6.5q1 -12 -6 -21.5t-10 -17.5l-7 -26t-8 -26q-2 -5 -4.5 -8.5t-4.5 -8.5q-4 -7 -5 -15t-4 -16q-1 -2 -2 -4.5t-2 -4.5q0 -2 -0.5 -3.5t0.5 -2.5q-2 -5 -5 -10.5t-5 -10.5q-2 -9 -3.5 -18.5t-3.5 -17.5t-5.5 -16.5t-4.5 -17.5q-1 -10 -2.5 -18 l-3.5 -19q-1 -7 -0.5 -19.5t-0.5 -21.5q0 -3 -2.5 -6.5t-1.5 -6.5q0 -3 2 -6.5t1 -7.5q-1 -8 -3.5 -17t-2.5 -17t2 -20t3 -26q1 -9 1 -20q0 -12 3 -23t4 -26t3 -29q2 -6 6 -16.5t2 -12.5q-2 -6 -8.5 -11.5t-12.5 -4.5q-3 1 -9.5 5.5t-10.5 8.5q-1 4 1 7t2 6q0 6 1.5 14 t-0.5 16q-1 2 -2.5 4.5t-2.5 5.5q0 2 1.5 4t0.5 4q0 2 -2.5 5.5t-0.5 7.5q5 17 2.5 33.5t-0.5 27.5q2 6 -2 20t-5 26q-1 5 1 12t3 14q0 3 -3 6q2 3 1 7.5t-1 9.5q1 4 2.5 8t0.5 9q0 2 -2 5.5t-2 5.5l3.5 3.5t1.5 3.5l-2 4t0 5q8 24 10.5 39.5t4.5 34.5q0 2 2.5 5t3.5 6 q1 4 0.5 8t1.5 8t5 7q-4 6 -2 11q5 16 12.5 37l14 40.5t12 33t5.5 15.5l20 48q1 2 0 4t0 4t3.5 4.5t3.5 5.5q2 14 8.5 29t5.5 29q2 5 5 6q0 3 2.5 9t4.5 12t2.5 10.5t-3.5 4.5q-2 1 -6 -0.5t-6 -2.5q-6 -1 -12 0.5t-15 -4.5q1 -4 12 -4t19 -2q4 0 4 -8q-4 1 -9.5 0t-8.5 0 t-1.5 2t-1.5 1q-2 1 -10.5 0t-15.5 -1q-14 1 -27.5 4t-28.5 4q-11 2 -28 2q-16 0 -32 1h-22h-25h-20h-10q-2 0 -8 2.5t-9 3.5q-2 0 -6.5 -1.5t-8.5 -1.5q-2 0 -9 0.5t-16 0.5q-8 0 -15.5 -1.5t-9.5 -6.5q-1 -2 1 -8t2 -11q-9 3 -15 8.5t-11 11.5t-11.5 10.5t-15.5 6.5 q-2 1 -8 -0.5t-10 -1.5q-6 -1 -15 -0.5t-12 1.5q-3 0 -12 4t-12 4q-2 1 -4 0t-5 0q-2 1 -13.5 5t-17.5 8q-2 1 -2 5t-3 4q-3 1 -3 0t-3 0q-10 2 -13 9t0 13q2 6 8 8.5t13 3.5t13 0.5t9 -1.5q8 -1 26.5 -6.5t28.5 -11.5q5 -3 9.5 -7t9.5 -7q7 -4 17.5 -6.5t13.5 -3.5 q1 0 8 -1.5t16 -3t19 -3.5t18 -3q11 -2 25.5 -4t28 -3.5l23 -2.5t11.5 -1q6 0 15 3q-5 2 -9 4t-8 3q-2 0 -4 -0.5t-5 0.5q-2 0 -6.5 2t-8.5 4q-2 1 -5.5 0.5t-7.5 0.5q-5 2 -9.5 4t-10.5 4q-8 3 -17 6t-17 7q-3 3 -3 6l17 -3q3 0 3 -1t1 -2q13 -2 27 -6t27 -9q2 -2 6 -4.5 t7 -3.5t11.5 -0.5t11.5 -0.5q3 0 3 -1t1 -2q6 -2 14 -3t15 -3l1.5 -1.5t3.5 -1.5q2 0 4 1t4 1q3 -1 11 -3t15 -3q5 -1 11.5 -0.5t9.5 -0.5q1 0 12 1t25 2.5t29.5 2.5t25.5 2q2 0 11 2t10 5q1 2 3 10t4 14q1 4 0 9.5t1 9.5q4 11 4.5 23.5t2.5 22.5q1 4 3 9.5l4 10.5q0 3 -3 6 q3 14 5 27t3 25q0 3 1.5 9t2.5 11q1 7 -0.5 14t-0.5 15q1 11 4.5 23.5t2.5 23.5l-2 6t-1 7q1 6 2 13.5t-2 7.5q-2 0 -11 1t-21 2t-23.5 1.5t-16.5 -0.5q-15 -2 -26 -1.5t-22 0.5q-2 0 -4.5 -1t-5.5 -2q-2 -1 -5.5 0.5t-7.5 0.5q-7 -1 -16.5 -3.5t-16.5 -3.5q-29 -4 -66 -14 t-66 -22q-11 -5 -28.5 -10.5t-34.5 -13.5q-20 -11 -39.5 -24t-30.5 -27q-2 -4 -7.5 -14t-6.5 -12q-4 -9 0.5 -23t12.5 -27.5t16.5 -24.5t13.5 -14q3 -2 8.5 -3.5t8.5 -3.5q13 -9 22.5 -11.5t14.5 -13.5l-2 -5l-8 1q-3 1 -3.5 2.5t-2.5 2.5q-10 4 -15.5 6t-9 3.5t-7.5 4 t-11 7.5h-3t-4 2q-8 6 -18.5 13t-18.5 15q-5 5 -11.5 13.5l-11.5 15.5q-1 2 -1 4q0 3 -1 5q-2 3 -6 5.5t-5 6.5q-4 14 -2 27q0 3 2 6.5t2 6.5q0 4 -3.5 6.5t-6.5 5.5q1 2 2.5 4.5t3.5 4.5q15 15 35.5 24t40.5 22q20 14 45 23l53 20h5l36 12.5t38 9.5q2 1 6.5 3t8.5 3 l94.5 15t87.5 9q8 0 19 1.5l25 3.5q-2 20 -5 37.5l-7 42.5q0 2 1 4l2 4q-1 2 -2 3.5t-1 3.5q-1 3 0.5 7.5t-0.5 8.5q-2 5 -4.5 12.5t-4.5 15.5q-1 5 1 12t-2 13q-2 4 -10 6.5t-10 2.5q-3 1 -3.5 0t-2.5 0q-3 0 -6 3t-6 3q-3 1 -4 0t-4 0q-2 1 -10 4t-14 6q-3 2 -4.5 5.5 t-4.5 5.5q-8 6 -12.5 16.5t-5.5 15.5q-2 12 -0.5 25.5t5.5 21.5q1 2 4.5 9.5l5.5 11.5q3 4 6.5 8t7.5 8q1 0 1.5 2t2.5 4t3 4t3 4q23 19 58.5 41.5t72.5 33.5q9 3 22 6t28 6t30 5t27 2q6 0 16.5 -2t13.5 -2l10.5 -5.5t15.5 -9.5q4 -2 10 -4.5t11 -7t8.5 -11.5t3.5 -17 q0 -5 0.5 -13t-0.5 -14q-2 -8 -6.5 -20.5t-6.5 -14.5q-1 -3 -8.5 -10l-12.5 -12q-2 -2 -6.5 -4t-7.5 -2q-6 -2 -18 -3q-3 -1 -7 0t-6 2q-3 0 -8 1.5t-8 2.5q-2 0 -10 -0.5t-14 -2.5q-7 -2 -13.5 -3t-13.5 -9q-9 -9 -16 -24t-8 -17q-2 -6 2 -6q3 -1 9.5 2t13 6.5l12.5 7 t9 4.5q8 2 16.5 6t15.5 11q4 1 10 0q2 0 6 -2t7 -4q1 -1 1 -2q0 -2 1 -2q-11 -10 -24 -18.5t-22 -13.5q-2 -1 -3.5 -3.5t-4.5 -3.5q-5 -2 -11 -3t-12 -3q-2 -1 -5 -3.5t-5 -3.5q-1 -1 -1.5 -2.5t-1.5 -2.5q-5 -2 -12.5 -4t-13.5 -5l-2 -2t-2 -4q-1 -2 -1 -5t-1 -5 q-1 -8 -4 -16.5t-4 -14.5l-4 -36.5l-4 -35.5q0 -5 0.5 -12.5t1.5 -14.5q0 -4 -1.5 -10t-2 -11.5t1.5 -10.5t11 -6q3 0 8 1t10 0q8 -1 18 -2l19.5 -2t16.5 -2t9 -1q1 0 13.5 -2t29 -5.5t33 -7.5t26.5 -7q7 -2 14.5 -5t15.5 -5q1 -1 0 -2.5t2 -1.5q3 -1 3.5 0.5t3.5 0.5 q3 0 14 -5t19 -10t20.5 -11.5t19.5 -12.5l20 -16.5t16 -19.5q8 -12 12.5 -27t2.5 -28q0 -1 2 -5q-1 -5 -2 -13t-2 -11z" />
<glyph unicode="H" horiz-adv-x="774" d="M416 -341q2 7 3.5 14t3.5 13q-4 -4 -7 -13.5t0 -13.5zM419 -310q1 5 4 12.5t-1 10.5q-2 -5 -2 -11q0 -7 -1 -12zM444 -287q0 2 5 17.5l11 34l11 33.5t5 17l22 60q0 1 2.5 10.5l6 22.5l7 26.5t5.5 24.5q1 7 0.5 11.5t0.5 7.5q5 20 11 38.5l13 38.5q2 2 1 6t-1 6 q1 8 4 16.5t3 13.5t-2.5 13.5t1.5 13.5l3 -1.5t3 -0.5l5 16q-2 2 -5 3t-5 3q1 7 3 14t1 12l-9 1q1 -6 3.5 -10t-4.5 -9q-1 -8 -1 -18t-1 -12q-1 -3 -2 -3t-4 1q-1 -2 0 -5.5t1 -6.5q-7 -8 -10 -20q-1 -4 0.5 -8t0.5 -6q-3 -12 -8 -23.5t-9 -22.5q-4 -10 -5 -19.5t-3 -17.5 q-1 -2 -2.5 -4t-1.5 -4q0 -9 4 -19q-4 -7 -7 -13.5t-3 -10.5q-1 -7 -1.5 -17t-1.5 -13q-3 -8 -10 -14t-8 -9q0 -2 -0.5 -10t-0.5 -17v-18q0 -9 -1 -10q-1 -2 -5 -4t-6 -1q-2 -7 2 -11q-1 -7 -2.5 -16.5t-3 -18t-3 -15t-1.5 -7.5q-2 -5 -6.5 -9t-9.5 -2l-2 -2q-1 -1 -2 -1 q1 -3 2.5 -6t1.5 -5q2 3 5 5q0 -1 1 -2v-1q-1 -5 -2.5 -8t-3.5 -5q3 -6 1 -9q-3 -9 -5.5 -18t-3.5 -17l9 20t7 14zM606 273q2 16 7 25q-2 2 -2 5q2 8 4.5 15t3.5 12l4 21t8 18q0 25 13 45q0 2 -1.5 5t-0.5 6q4 11 6 23.5t4 22.5q2 7 4 13t4 11q2 4 4.5 7.5t3.5 5.5q1 9 2 19 t1.5 19.5t1.5 16t1 8.5q2 3 3.5 4.5t5.5 10.5l-5 -1q-2 1 1 11t-3 12l1 3l1 1q1 -2 1.5 -4t3.5 -2q2 0 3 1l1 1l2 6q-1 1 -0.5 2.5t-0.5 2.5q-5 -1 -9.5 0t-8.5 2l-2 -7q-2 -3 -2 -12q0 -8 -2 -15q-2 -4 -4.5 -7t-3.5 -5q-2 -7 -4.5 -15t-4.5 -13q-1 -2 1 -4t2 -3 q-3 -14 -5 -28.5t-7 -28.5l-7 -13.5t-6 -13.5q-2 -5 -2 -10t-1 -9q-1 -2 0.5 -4.5t1.5 -4.5t-1.5 -6t-1.5 -6q-1 -3 -1 -6t-2 -5q-3 9 -2 13q0 -2 -1 -2.5t-3 -3.5q-1 -3 -1 -10q0 -6 -1 -11q-1 -8 -3 -16t-4 -13q-2 -7 -4.5 -14.5t-6.5 -12.5q2 -5 -0.5 -10.5t-3.5 -8.5 t-1 -9q0 -5 -1 -9l-2 -4.5t-2.5 -9.5t0 -9.5t4.5 -4.5q3 -1 9.5 0t10.5 3zM761 324q-1 -3 -5 -8l-8.5 -10.5t-8.5 -9.5l-5 -5q-8 1 -14 -4.5t-10 -6.5q-8 -2 -17.5 -5t-18 -6t-15.5 -5t-8 -2q-3 1 -2 1.5t-2 1.5q-3 0 -13.5 -5.5t-12.5 -8.5q-2 -2 -2 -6t-1 -6 q-3 -5 -6.5 -12t-4.5 -10q0 -1 -3 -11.5t-6.5 -24.5t-8 -29.5t-8.5 -26.5q0 -2 -1.5 -4t-2.5 -5q-7 -20 -10.5 -41t-8.5 -41q-2 -7 -3.5 -16t-3.5 -17q-5 -15 -9 -30.5t-10 -30.5q-6 -14 -8.5 -30t-5.5 -30q-2 -5 -3.5 -11.5t-3.5 -11.5q-2 -7 -6.5 -14t-7.5 -15 q-4 -12 -8 -27t-7.5 -29.5l-6 -25t-3.5 -11.5l-34 -95q-1 -4 -6 -11t-8 -21q-3 -10 -7 -21.5l-8 -22.5l-7 -18.5t-6 -21.5q-4 -2 -9 -5.5t-8 -3.5q-3 1 -2 1.5t-2 0.5q-2 1 -8.5 -2t-8.5 -3q-3 1 -3 2h-3q-2 1 -10 -6.5t-11 -6.5q-5 1 -7 8.5t-1 9.5q1 4 7.5 13.5t7.5 12.5 q2 3 1 14t1 21q2 8 5 19t5 19q2 11 4.5 27t3.5 19t6 9.5t8 14.5q2 2 0.5 5.5t-0.5 6.5q3 7 10 7q3 -1 6.5 -4.5t6.5 -4.5q5 0 8.5 3.5t6 7.5t4.5 7.5t4 3.5q3 0 2.5 -1.5t0.5 -3.5q2 2 2 5v8q0 4 -5 7q3 11 7.5 21.5t7.5 19.5q2 2 1.5 5t0.5 5q2 11 7 26t7 27q3 18 10.5 36 t13.5 36q1 2 0 5.5t1 6.5q2 11 6 26l8 29q2 7 5.5 15t5.5 15q2 5 1.5 11.5t1.5 11.5q5 20 13 41.5t13 41.5q2 7 3.5 16.5t3.5 16.5q1 3 3 8.5t3 10.5q0 3 -0.5 5t-0.5 5q0 4 6 6q1 2 2.5 12t2 21.5t0.5 20.5t-3 9q-3 1 -13.5 -0.5t-13.5 -1.5q-2 0 -4.5 1t-5.5 2 q-9 1 -14 -2.5t-19 -5.5q-6 -2 -13 -1.5t-13 -0.5q-2 -1 -5.5 -3.5t-6.5 -1.5q-3 0 -3 1t-3 1q-4 1 -12.5 -2t-10.5 -4q-5 -1 -10.5 -0.5t-10.5 -1.5q-22 -7 -43 -11t-36 -11q3 -3 1.5 -5.5t-2.5 -4.5v-2q1 0 2 -2q-1 0 -1 -1v-3h-2q-1 0 -3 -2q-1 2 0 4.5t1 4.5l-4 1 q-2 -2 -1.5 -1.5t-0.5 -3.5q-1 -1 -2.5 -6.5t-3 -12t-2.5 -13.5t0 -12q2 -8 10.5 -15t13.5 -15l16.5 -21.5l18.5 -24.5q5 -7 12.5 -13l13.5 -11q0 -5 1 -11t-1 -10q-1 -2 -4.5 -8t-6.5 -8q-8 0 -21 -0.5t-16 0.5q-3 0 -12 3.5t-12 3.5q-3 1 -3.5 0t-2.5 -1q-3 1 -9 5t-8 4 l-13 2l-4 -12q0 -1 -1.5 -12t-2.5 -24.5t-2.5 -27.5t-1.5 -21q-1 -5 -3.5 -13.5t-4.5 -13.5q-1 -4 -2.5 -9t-2.5 -10q0 -5 1.5 -15.5t-0.5 -19.5q-2 -17 -7 -35t-9 -35l-12 -3t-10 0q-4 1 -12 1.5t-7 8.5q0 5 5.5 21t7.5 30q1 3 0.5 7t-1.5 9q-1 9 2 18.5t4 18.5q0 6 -1 19 t-3 23q-4 13 -7 31q-1 2 -3 5t-4 8q-3 8 -5 17.5t-5 16.5q-7 17 -15 31.5t-16 27.5q-4 6 -11 12.5t-12 12.5q-2 2 -4.5 6.5t-5.5 6.5l6 10q2 -4 7 -8.5t8 -9.5q5 -5 11.5 -7.5t10.5 -6.5q7 -6 12.5 -19t11.5 -21q19 -24 23.5 -40t9.5 -29q2 -5 2 -14q0 -10 5 -18q2 2 2.5 4 t1.5 5q2 3 2 14t1 21q1 5 2 13l2 16q2 15 5.5 24t0.5 23q-2 11 -10 17.5t-14 14.5q-5 8 -14 18t-11 19q-5 18 -6 36.5t7 40.5q2 3 2.5 7.5t2.5 9.5l-13 1q-3 0 -4 -1.5t-4 -1.5q-3 1 -2 2.5t-2 1.5q-3 1 -7 -1l-8 -4q-2 -1 -5 1t-5 1q-17 -4 -25.5 -2.5t-18.5 1.5 q-8 0 -19 0.5t-14 0.5q-2 0 -9 0.5t-16.5 1.5t-19 1.5t-16.5 1.5q-3 0 -8.5 2.5t-8.5 2.5q-2 1 -4.5 -2t-4.5 -5q-3 0 -8 0.5t-7 0.5q-3 1 -12 2.5t-11 1.5q-3 1 -12 0t-14 -2q-6 -1 -14.5 0.5t-10.5 2.5q-5 0 -14.5 5t-12.5 7q-10 5 -21.5 10t-21.5 12q-4 2 -6.5 9.5 t-7.5 12.5q-1 1 -4.5 2t-4.5 3l-8 16.5t-4 13.5q2 5 9 9.5t15 7.5t15 4t9 1q3 0 7 -3.5l8 -7t7 -7t4 -4.5q4 -4 10 -7t12 -7t11 -9.5t8 -14.5q2 2 2.5 3.5t3.5 1.5l7 -3.5t8 -4.5q2 -2 2.5 -5.5t2.5 -8.5q4 0 6.5 -2t5.5 -3q3 0 5 1.5t4 1.5q0 -5 2 -6.5t4 -1.5q3 0 11 -1 t13 -3q7 -2 15 -5t11 -3q2 -1 5 0.5t6 1.5t4.5 -2t4.5 -2q3 -1 5 0.5t5 1.5t4 -1t4 -2h12h26h31h29q9 1 20.5 0.5t19.5 0.5q5 0 13.5 -0.5t13.5 3.5q3 2 5.5 7.5t6.5 8.5t10 7t12 7.5t10.5 6.5t4.5 5q0 1 1.5 9.5t3 20.5t3.5 24.5t4 22.5q2 8 5 18.5t5 20.5q2 14 3 26.5 t5 22.5q2 5 3.5 17t4.5 23q4 18 11 42l13.5 46.5l11.5 38.5t5 18q1 3 3.5 6t3.5 5q8 26 20 55t35 53q1 1 11 6.5t22.5 11.5t23.5 10.5t15 4.5q5 -1 12.5 -5.5t8.5 -7.5q1 -5 -0.5 -13.5t-2.5 -11.5q-6 -17 -16.5 -24.5t-19.5 -19.5l-16 -23l-15 -23v-2q0 -1 -2 -6.5 t-6.5 -16.5t-11.5 -31q-2 -20 -11.5 -42.5t-14.5 -42.5q-7 -26 -11.5 -51.5t-11.5 -51.5l-11 -42l-9.5 -36.5t-8 -34.5l-7.5 -36q-1 -3 1 -6.5t4 -5.5q1 -1 5 -1h23q20 0 43 1l45 2t31 1q3 1 13.5 3t18.5 2h16t23 0.5t21 2.5t11 6q1 3 2.5 12.5t3.5 17.5q1 5 3.5 11l4.5 11 v1l-1 2q5 15 8 32.5t11 34.5q2 5 3.5 13t3.5 14q1 2 -0.5 4.5t-0.5 4.5q2 4 4 7.5t2 7.5q2 14 6 30l7 29q2 6 4 14.5t4 13.5l6 6q-2 1 -3.5 3.5t-0.5 5.5q0 2 2 5.5t3 6.5q3 23 6.5 42l7 36.5t6 34.5t3.5 35q0 2 1.5 5.5t0.5 5.5q0 3 -1.5 5t-1.5 4q-1 5 1 13.5t1 14.5 q0 5 -3.5 14t-3.5 17q0 1 1.5 3.5t1.5 4.5q1 5 -1.5 11l-4.5 11q0 -1 -5 2q-3 5 -5 10l-4 10q-1 2 -3 3t-4 3q1 5 3 9.5t6 6.5q5 4 12.5 5.5t10.5 1.5q3 -1 2 -2.5t2 -1.5q2 0 5 4t7.5 8.5t10 8.5t11.5 3q3 0 8 -4t10 -10t8.5 -12.5t3.5 -10.5v-9q0 -5 1 -10q0 -9 -3 -18.5 t-3 -18.5v-18t-1 -12.5t-2.5 -10.5t-3.5 -13q-3 -15 -4 -32t-3 -34q-2 -8 -4 -18t-4 -18q-2 -9 -3 -21t-3 -22q-2 -12 -6.5 -28.5t-7.5 -30.5q-3 -13 -8.5 -26.5t-9.5 -27.5q-2 -3 -1.5 -8.5t-0.5 -10.5q0 -2 -2 -6l-4 -8q-3 -9 -3 -19t-3 -21l-8.5 -23.5t-7.5 -23.5 q-6 -22 -11 -45t-11 -47q1 -1 0.5 -1.5t2.5 -0.5q2 -1 7 1.5t9 2.5q15 2 32 5.5t34 11.5q9 5 18 11t12 14q-5 6 -8.5 15t-8.5 14q0 1 2 2t3 4q2 3 0.5 4.5t-3.5 5.5q3 1 7 3.5t6 2.5q3 0 8.5 -6t10 -13.5t7.5 -14.5t2 -10zM671 872l2 6q2 0 3.5 -2t0.5 -5z" />
<glyph unicode="I" horiz-adv-x="319" d="M196 356q0 -1 -1.5 -9l-3.5 -19t-4.5 -23.5t-5.5 -23.5q-1 -2 -3 -6.5t-4 -7.5l1 -3h2q1 0 1.5 0.5t2.5 0.5q0 -5 -4.5 -10t-4.5 -10q-1 -4 0 -8t1 -7q0 -2 -1.5 -5t-1.5 -5q0 -8 0.5 -20t-1.5 -21q-2 -5 -4 -14t-4 -17l-6 -26.5t-7 -27.5q-10 -11 -13.5 -30.5 l-6.5 -36.5l-4.5 -11t-2.5 -12q0 -1 1.5 -3t1.5 -4q-3 -11 -9 -23t-10 -25q0 -2 1 -7.5t0 -10.5q-2 -5 -5.5 -11.5t-1.5 -11.5q-4 -8 -5 -16t-2 -11l-7.5 -7.5t-7.5 -8.5q-1 -2 0 -7t-1 -9q-2 -5 -3.5 -11.5t-3.5 -12.5t-2 -13t-2 -15t-8 -17.5t-7 -18.5q-1 -10 -4 -22.5 t-8 -25.5q-4 -6 -10 -14q-1 -2 -3.5 -8t-6.5 -13t-9 -11.5t-11 -3.5q-2 1 -7 5.5t-9 5.5q0 1 1.5 3t3.5 4q0 1 1.5 7.5l3 13t2.5 12.5t2 8l10 23q1 -3 0 -7q1 0 3 -4q1 0 2 2l4.5 9t10 22.5l18.5 42.5q-1 2 -1.5 3.5t-1.5 2.5q2 4 2.5 9t2.5 10q6 12 11 25.5t5 23.5 q0 2 3 5.5t3 5.5q4 11 8 24.5t9 28.5q2 4 2 10t1 11q2 7 6.5 16.5t5.5 16.5q2 16 6.5 28t7.5 24q2 10 5 21t5 24q0 3 -0.5 8t0.5 10q2 9 6.5 18.5t6.5 20.5q3 16 3.5 32t2.5 30q1 2 2.5 5.5t1.5 6.5q0 2 3 19t6 37.5l5.5 38t2.5 20.5l1.5 11l3.5 24.5t3.5 25t1.5 12.5 q1 1 3 15t4 30t3.5 30t1.5 15q1 2 -1.5 6.5t-1.5 6.5q1 5 3.5 12.5t3.5 13.5q0 5 -1 9.5t1 9.5q4 16 7 35.5t9 38.5q1 2 0 5.5t0 7.5q2 7 6 15t4 18q0 8 0.5 12.5t2.5 11.5q0 1 -1 2.5t0 4.5q0 1 1.5 3t2.5 4q0 8 -0.5 17t-1.5 17q-1 7 -6 10t-9 8q6 14 4.5 27.5t-0.5 23.5 q2 8 4.5 26.5t7.5 32.5q2 8 5 14l3.5 8.5t4.5 6.5t8.5 6t15.5 8q3 0 5.5 -1t5.5 0t6.5 2.5t7.5 0.5q2 0 6 -1t6 -3q12 -15 24 -33q1 -2 3.5 -8.5t4.5 -9.5q2 -2 0 -5.5t-1 -5.5q0 -5 2 -13.5t3 -16.5q1 -9 3.5 -18t4.5 -18q1 -2 0 -5.5t-1 -5.5q0 -1 2.5 -3t2.5 -4 q-1 -19 0 -39.5t12 -34.5q-4 -13 -15 -24t-28 -7q-3 1 -9 7.5t-6 12.5q0 3 4 9t4 12q0 2 -1.5 5t-1.5 6q0 2 2 5.5t2 7.5q1 6 1.5 12t0.5 12q-1 6 -1.5 15t-1.5 16q-1 4 -3.5 9.5t-4.5 11.5q-1 2 -0.5 6.5t0.5 8.5q0 5 -2.5 6t-6.5 6q-3 -2 -5 -8q-1 -2 -2.5 -7.5l-3.5 -13 l-4 -15.5t-4 -14q-6 -17 -14.5 -36t-14.5 -37q0 -2 1 -2t2 -1q-6 -15 -9.5 -30t-5.5 -29q-3 -18 -9 -38.5t-8 -36.5q-2 -12 -5 -26.5t-5 -28.5v-1h3q-2 -5 -3 -18.5t-1.5 -28t-1 -27t-0.5 -15.5q-2 -10 -3.5 -19.5t2.5 -18.5l-1 -37v0zM80 37q1 -1 0.5 -3t-3.5 -2zM105 136 q-2 0 -4.5 2t-0.5 4q1 3 3.5 6t3.5 5q-2 -4 -1 -8.5t-1 -8.5zM107 158q-1 11 1.5 22t5.5 21q2 5 0.5 12t0.5 9l4 4q1 -8 0.5 -18t-2.5 -18q-2 -5 -5 -14.5t-5 -17.5zM123 240q-1 -1 -2 -1h-4l5 10q-2 -2 -1 -4.5t2 -4.5zM246 691q-4 0 -4 4q0 2 -0.5 4.5t1.5 4.5q2 3 4 2.5 t4 -0.5q-2 -2 -3.5 -4.5t1.5 -3.5l-3 -7v0z" />
<glyph unicode="J" horiz-adv-x="570" d="M102 186q-1 1 -2 3t-4 3q-6 0 -9 -3q3 -2 7.5 -3t7.5 0zM314 -192q3 4 3 8q0 5 -1 13t0 11q0 2 2.5 3.5t4.5 3.5q2 5 2 10v7q1 8 -2.5 18t-2.5 12t4 4q2 -5 3 -9t5 -6l3 7q1 2 2 9.5t2.5 16t2 15.5t0.5 9q-1 5 -2.5 8t-2.5 8l-9 1q0 -5 -0.5 -12t-3.5 -12q2 -4 3 -11 t0 -9t-2 -3t-1 -2q-7 1 -4.5 5.5t0.5 9.5q-2 -1 -3 -1t-3 -1q-2 -7 -1.5 -14t0.5 -14q-3 -3 -3 -5q-1 -7 -2.5 -14.5t-1.5 -12.5q1 -14 0 -27.5t-9 -26.5q-1 -1 -2 -1t-2 -2v-8t1 -8q11 7 14.5 9.5t5.5 10.5zM331 -127q1 2 0 2.5t-2 1.5q2 -2 2 -4zM353 40q1 2 0 4.5t-1 3.5 q0 -1 -1 -0.5t-2 -2.5q-1 -2 1 -2.5t3 -2.5zM364 38q1 5 0.5 11t-1.5 11l-1 -1q-2 -2 -3 -4t1 -7.5t4 -9.5zM578 620q1 2 0.5 13t-2.5 16q-3 6 -5.5 13.5t-7.5 13.5q-8 -3 -12.5 -11.5t-6.5 -13.5q-1 -2 -5 -17t-6 -26l8 -1l2 -1q0 1 1 1l1 1q8 1 19.5 3.5t13.5 8.5z M286 -115q-3 5 0.5 11t-3.5 8q0 2 2.5 3t3.5 3q0 -4 -0.5 -8.5t1.5 -7.5l-4 -9v0zM193 150q-1 -1 -1.5 -2t-2.5 -3q-2 1 -3 2t-2 1l3 5q2 -1 3 -1q2 0 3 -2zM287 -42q-2 0 -3 1.5t-2 2.5q2 1 7 1l-2 -5v0zM278 25q-2 0 -4 1.5t-4 2.5l5 8l5 -1q2 -5 -2 -11zM285 -549 q-1 -3 -9 -7.5t-11 -3.5q-2 1 -6 1q-3 0 -6 1q-3 0 -4 3.5t0 8t2 8l1 3.5q0 19 2 37l4 35q1 4 -0.5 7.5t-0.5 8.5q2 7 5.5 13.5t3.5 12.5q1 2 -1 7t-1 9q1 8 3 18t0 19q-2 11 -4.5 22.5t-1.5 21.5q0 2 -2 3.5t-3 2.5q-1 4 0 11t3 9l4 10q2 0 3 -1.5t3 -3.5l2 1q1 0 2 3 q2 2 2.5 10.5t-1.5 14.5q-2 -2 -4 -6t-4 -7q-2 9 3 17q-1 0 1 -3q1 0 1.5 -0.5t2.5 0.5q0 2 -1.5 5t-1.5 7q-1 3 2 6.5t5 7.5q-1 6 -2 13.5t-3 12.5q-1 2 1 4.5t1 4.5q-1 5 -1.5 11.5t-0.5 13.5q0 5 1 10.5t3 10.5q-2 2 -2 4t1.5 3.5t1.5 3.5q-2 7 0 11q1 3 4.5 8t5.5 9 q0 -8 2 -13q4 0 6 5q0 1 0.5 9t0.5 17t0.5 17t0.5 10q1 2 4 3.5t6 3.5q5 -3 7 -10q3 0 4 1t-4 6q1 2 0.5 4.5t1.5 5.5l10 24l2 -3l2 1q1 0 2 2t-1 10t-1 13t1 12q0 8 2 10l7 18q2 -2 4.5 -6t2.5 -7q1 -2 -2.5 -6t-5.5 -9q-1 -8 -5 -21q-1 -3 2 -6.5t5 -8.5q1 -2 2.5 -6.5 t1.5 -6.5q1 -2 0 -4t-1 -4q4 0 5 3.5t3 5.5q1 2 0.5 4.5t-0.5 4.5q0 3 1 8.5l2 10.5q1 2 -0.5 4t-1.5 4q-1 2 0 5.5t2 6.5q-2 4 -2 5q2 8 7 17q-4 5 -9 9.5t-8 11.5q-2 6 0.5 16.5t3.5 12.5l3 7q5 -2 11 0q-2 -1 -4.5 -2t-3.5 -3q-4 -9 2.5 -9.5t7.5 -4.5q6 1 7.5 5t2.5 6 t0.5 4.5t-5.5 4.5h1q2 0 3 1q1 3 1 4l-1 -1q-1 -1 -1 -2q-2 0 -2.5 2.5t-1.5 4.5l3 -3l5 3q-2 2 -1.5 4t0.5 6q-4 -2 -4.5 -3t-3.5 -3q0 3 1.5 5t2.5 4t1 6q0 5 1 10q0 1 -1.5 2t-1.5 3q0 1 1 2.5t1 5.5q-3 -5 -4 -9t-6 -9q1 -2 3.5 -2.5t2.5 -2.5l-2 -5l-6 1h-1l-1 -2 q-1 -3 1 -8t3 -10h-5q-5 5 -2.5 14t7.5 13q-5 2 -5 8q0 7 2 11q2 5 5 7q4 0 4 -6h1l1 2q2 5 -2 6.5t-6 1.5q2 12 3.5 25t4.5 25v1h-2q-3 -1 -6.5 -0.5t-7.5 -0.5q-2 0 -4.5 -1t-5.5 -2q-2 -1 -6 0t-8 0q-2 -1 -4.5 -2.5t-4.5 -2.5q-11 -3 -24 -4t-22 0q-9 -7 -21 -5t-21 -1 q-1 0 -3 -1.5t-5 -1.5q-21 -5 -43.5 -8.5t-44.5 -7.5h-2h-5q-15 -5 -24 -3t-17 0q-4 0 -8.5 -1.5t-7.5 -1.5q-2 1 -7 1.5t-7 0.5q-10 2 -21 9t-13 12q-2 6 2 14q3 10 16.5 18t23.5 6q2 0 13 -3t14 -3q3 -1 11.5 -0.5t18.5 -0.5l-6 -14q-2 0 -3.5 -1l-4.5 -3q1 -2 2.5 -1.5 t4.5 -0.5t15 -1q13 0 21 2q3 0 6.5 2t6.5 1q3 0 1.5 -0.5t0.5 -0.5q5 -1 22.5 1l38.5 4.5t41.5 5.5t31.5 4q3 0 8 2t9 3q11 2 27 3.5t27 4.5q2 8 3.5 19t3.5 21q3 17 5.5 40t6.5 44q-1 2 -4 2t-7 1l18 45q0 1 -0.5 2.5t-0.5 4.5q1 8 3.5 17.5l4.5 17.5q1 4 1.5 12t1.5 15 q0 2 1.5 5t2.5 7q1 22 7.5 36.5t2.5 34.5q-10 0 -24 1t-17 2t-16 4t-21 5q-2 0 -5 2l-6 4q-2 1 -5 1q-2 0 -4 1q-2 2 -5.5 2.5t-7.5 2.5q-5 2 -10.5 4.5t-10.5 4.5q-1 1 -2 2.5t-3 2.5q-22 6 -38.5 18t-27.5 24q-3 0 -4 1q-2 2 -3 5.5t-3 5.5t-5 3t-5 3q-3 3 -6.5 9t-9.5 9 q-10 6 -17.5 14t-3.5 19q2 2 5 8.5t8 10.5q6 4 15.5 8.5t17.5 7.5q7 3 17 4t15 1q5 -1 12.5 -7.5t15.5 -15t14 -17l8 -11.5t6.5 -7t8.5 -9q2 -2 6.5 -4.5t7.5 -4.5q20 -13 41 -23t39 -14q2 -1 4.5 -2t4.5 -2q3 0 11.5 -1t10.5 -2q5 -1 10.5 -1.5t13.5 1.5q0 5 2 9.5t3 9.5 q1 7 1 14t2 13q2 8 5.5 17.5t4.5 17.5q1 3 3 7.5t6 7.5q-1 2 -4 5q1 2 2 5t1 6q0 10 2.5 20.5t0.5 20.5q-1 5 -6 9.5t-9 9.5q-2 2 -6.5 4t-6.5 4q-3 2 -4.5 7t-3.5 8q-2 0 -3 1q-3 1 -3 4v6t1 6q2 7 6 10q6 6 25 13q1 1 9 1q3 3 6 4q6 3 14.5 5t13.5 3q2 0 5 -0.5t6 -0.5 q3 -1 6 -1t5 -2q10 -4 17 -11q2 -2 4.5 -6.5l5.5 -9.5v-4l4 -4q0 -6 0.5 -12.5t3.5 -12.5q2 -5 7.5 -9.5t10.5 -9.5q10 -11 20 -24.5l20 -27.5q2 -3 2 -9q0 -5 2 -9q1 -4 5.5 -8.5t6.5 -8.5l4.5 -11l4.5 -11q2 -4 1.5 -10t0.5 -11q0 -5 -2 -13t-4 -14q-8 -20 -22.5 -34 t-48.5 -27q-8 -3 -21.5 -7t-24.5 -6q-3 -1 -8 -1h-9q-5 -1 -6 -4t-2 -5q-10 -25 -17.5 -52.5t-12.5 -52.5q-2 -11 -5.5 -22.5t-5.5 -25.5q0 -2 6 -4q-1 -3 -3 -8t-3.5 -10t-2.5 -9t1 -5q0 -2 -2.5 -7t2.5 -6h1l-1 -2t-5.5 -4.5t-6.5 -5.5q0 -1 -2 -10.5t-4 -22.5t-5 -26 l-5 -22q-2 -7 -4 -17.5t-4 -18.5q-2 -4 -4.5 -8.5t-3.5 -9.5q-2 -7 -2.5 -14.5t-1.5 -15.5q-3 -14 -10 -31.5t-12 -31.5q-1 -2 -1 -7v-9t-5 -7q-1 -1 -0.5 -3.5t0.5 -4.5q-2 -8 -5.5 -19.5t-7.5 -19.5q-2 -5 -2.5 -10.5t-1.5 -10.5q-2 -5 -1.5 -14.5t-0.5 -16.5 q-2 -5 -4 -11.5t-2 -10.5q0 -2 -5 -7q1 -2 2 -3.5t1 -3.5q0 -4 -3.5 -8.5t-5.5 -9.5q-2 -7 -2 -14t-2 -15t-5 -16.5t-5 -17.5q-1 -3 -2 -7t-1 -7q2 -17 -3 -27.5t-8 -22.5q-1 -5 -1 -10q0 -6 -2 -11t-5 -10t-4 -10q-2 -4 -4 -18t-4 -24q-2 -6 -0.5 -13t0.5 -14 q-2 -9 -2.5 -17.5t-2.5 -16.5q-1 -4 -2.5 -8.5t-3.5 -9.5q0 -1 2.5 -2t2.5 -3q0 -5 -1 -14t-3 -18q-1 -2 0.5 -5t0.5 -7q0 -6 -5 -13q1 -2 4 -5q-1 -3 -4 -6t-2 -6q3 -9 2.5 -19t-2.5 -19t-3.5 -16.5t-0.5 -13.5q1 -3 -2 -7.5t-3 -9.5q0 -2 1.5 -5t0.5 -5z" />
<glyph unicode="K" horiz-adv-x="600" d="M128 -4q2 5 2.5 15.5t1.5 16.5l-6 1q0 -14 -5 -22.5t-2 -19.5q6 4 9 9zM182 160v1q1 0 1 1v1q0 7 -5 12l-6 -15q0 -5 3.5 -7t-0.5 -8l5 12q2 0 2 3zM476 529q4 6 4 8l4 10t6 10l-7 2q-2 -3 -6.5 -4.5t-7.5 -4.5t-6.5 -8.5t-5.5 -7.5l-22 -19t-14 -11q-2 1 -2.5 1.5 t-3.5 1.5q-5 2 -9 -2l-14.5 -19l-16 -21.5l-13 -18.5t-5.5 -9q-1 -2 -2.5 -11t-3 -19t-2.5 -19.5t-1 -12.5q1 1 3 1h1q5 5 9 10t7 8q9 8 18 17l14 14q5 7 11.5 13.5t11.5 12.5q2 2 2 4t2 4q7 5 8 5q3 3 9.5 12t13 19.5l12.5 19.5t7 12zM341 -23q-6 5 -13 19t-9 30 q0 1 -1.5 2.5t-2.5 3.5t0 5t0 5q-4 2 -7 9q0 1 0.5 2.5t0.5 3.5q-1 6 -2.5 12t-0.5 12q0 3 -3 8t-5 10q-3 11 -4 22.5t-2 24.5h1q2 0 2 2q5 -1 4 -10t1 -13q0 -1 3 -4q2 -6 3.5 -14t3.5 -15q1 -3 0.5 -9t0.5 -10q0 -4 3 -15t6 -19q1 -1 2.5 -2t2.5 -3q0 -11 6 -27.5 t10 -29.5zM483 -125q-1 -3 -2.5 -3.5t-3.5 -1.5q-2 -2 -5 -7t-8 -6q-2 -1 -8 -1q-3 1 -5 3.5t-5 3.5l-4 -2l-9 -4.5t-10 -4.5t-8 -2q-5 1 -8 5q-4 5 -8.5 8t-7.5 7q-4 4 -4 9q-2 2 -5 2l-18.5 36t-18.5 37q2 0 4.5 -0.5t4.5 -0.5q13 -22 23 -44t27 -36q2 -2 2.5 -4t2.5 -3 l7 -1h1l1 2t-1.5 7t-3.5 10q0 1 -2 2t-3 3t-1 6q0 3 -2 5q-3 7 -11.5 15.5t-5.5 21.5q-3 3 -6 8t-5.5 11t-5 10.5t-6.5 6.5q-2 8 -4.5 15.5t-4.5 14.5q-2 5 -3 13.5t-2 15.5q-2 4 -5 4q-2 4 -2 7q-1 1 -3 2.5t-4 3.5q1 5 2 12t0 12q-2 5 -5 10q-2 2 -0.5 5.5t-0.5 6.5 q-1 2 -2.5 4t-2.5 4l-2 8t-3 9q-1 3 -1 7q0 5 -1 8q-4 7 -8 16t-6 10q-5 1 -9 -4.5t-6 -6.5q0 2 -2 4.5t-2 4.5q-2 11 -2.5 26.5t-2.5 27.5q-1 7 -3 14t-4 13l-4.5 15.5t-4.5 9.5q-2 0 -5.5 -1.5t-5.5 -3.5q-4 -4 -7 -10.5t-4 -8.5q0 -1 -2.5 -8t-5.5 -17t-6.5 -20t-7.5 -17 q-8 -16 -12 -32q-2 -5 -5 -11t-5 -13q-2 -1 -2.5 -2t-1.5 -2q-3 -6 -4.5 -13t-3.5 -13l-16 -39.5l-16 -38.5l-49 -117l-25.5 -60.5t-10.5 -23t-2 -4.5q0 -4 -2 -10q0 -5 -6 -11v-6q0 -5 -5 -12l-1 -2q0 -2 1 -3.5t1 -3.5q-13 -11 0 -26q0 -2 -3 -4t-6 -3l-1 -3 q2 -2 4.5 -1.5t4.5 -1.5q-2 -2 -4.5 -4t-4.5 -4q-1 -2 0 -3.5t1 -2.5q-3 -9 -8 -20t-11 -22q-3 -2 -11 -4t-11 -1q-4 1 -3.5 2t-2.5 2t-10 -1l2 4l2 4l4 16t6 18q2 7 -1 12q-2 8 -10 13l5.5 16l4.5 13q11 26 24.5 54t24.5 58q2 6 4 10l5 10t7 15l11 24q2 6 5.5 12.5 t6.5 13.5l12.5 31.5l14.5 36.5q1 3 7 4q1 2 -1.5 2.5t-1.5 3.5q2 9 6.5 22t10 26.5t10 26.5t6.5 23l3 5q4 -11 5 -20q0 -3 -4.5 -10.5t-2.5 -12.5q0 -2 -2 -4.5t-4 -5.5q2 -4 2.5 -7.5t4.5 -8.5l4 9q1 3 2 9.5t2 11.5q0 2 -2 4t-2 4q1 3 2.5 7l3.5 9q-5 4 -2.5 7t1.5 8 q0 3 -2.5 5t-2.5 6q0 1 1.5 3t1.5 4v7v1v2q-12 -8 -24.5 -18l-24.5 -20q-1 0 -4 -0.5t-5 -2.5q-5 -3 -9 -8.5t-9 -7.5q-2 -1 -4 -1t-4 -2q-19 -24 -34 -36.5t-24 -30.5q-5 -1 -11 -1h-8q-3 1 -5 1t-5 1q-2 0 -4.5 3.5t-1.5 5.5q2 2 13.5 12t18.5 18q10 10 19.5 20.5 t18.5 18.5t15.5 15l13.5 15q2 2 6.5 4t6.5 4q4 4 5.5 9.5t5.5 10.5q4 6 7 9q4 3 8 7t8 7q1 2 2 5t3 5q3 4 6.5 7.5l7.5 7.5q2 2 1.5 5.5t1.5 5.5q4 4 8.5 7.5l8.5 6.5q3 2 7.5 9.5t6.5 11.5q2 1 3 2t3 2q2 3 2 8q2 2 2.5 1.5t2.5 2.5q1 4 5.5 25l9.5 46.5t9 48t6 29.5 q1 5 0.5 10.5t1.5 12.5q3 15 8 36.5t3 35.5h-2q0 1 -2 -1q-11 -6 -26 -15l-33 -19h-5q-8 -5 -21 -5.5t-21 1.5q-12 2 -21 12t-14.5 22.5t-7.5 24.5t-1 18q1 1 -1 2t-3 3q-2 5 -5 18.5t-1 19.5q2 4 8.5 9.5t11.5 7.5l13 5t16 5q5 1 11.5 0.5t9.5 -0.5q8 -2 11 -6t8 -17 q2 -4 1 -10t1 -10q2 -6 3 -12.5t2 -12t4 -10t10 -6.5q10 5 22 17t18 22q1 2 4 4t4 4t1.5 5t2.5 5q1 2 4 4.5t4 4.5q3 6 5 13t6 13q2 4 6 9t5 8q2 2 4.5 9.5t4.5 15.5q0 1 -0.5 3t-0.5 4q5 17 8.5 34.5t8.5 34.5q1 3 0 9.5t4 11.5q-4 9 -1 12.5t4 9.5t2 14t3 10l4 8t8 8 q4 3 11.5 7t15 7.5t15 6t12.5 1.5q7 -2 9 -6q3 -8 1 -22.5t-3 -25.5q-1 -8 -5 -18.5t-6 -19.5q-1 -4 0 -8.5t-1 -9.5q-7 -26 -12 -59t-11 -60q-2 -5 -7 -12q2 -2 2 -6v-5q-1 -2 -3 -5t-2 -5q0 -1 0.5 -3.5t0.5 -4.5l-15 -71.5t-19 -79.5q11 5 27.5 10t18.5 5q2 -1 4.5 -2.5 t4.5 -2.5q4 3 7 8.5t5 11.5v-1v-3q4 0 6 3q2 5 2 10q0 6 2 9l5.5 5.5t9.5 9t10 8t6 4.5q3 3 8.5 8t10.5 3q2 2 2.5 5t3.5 5q4 2 8.5 3.5t8.5 4.5q1 2 0.5 5.5t0.5 5.5q2 2 5.5 1.5t5.5 0.5q5 3 6.5 7t3.5 7q4 -1 7.5 3t6.5 8.5t7 9t10 4.5q8 16 16 26t25 24q5 4 9 10.5 t9 12.5q2 2 6 4.5t6 5.5q4 4 8 9.5t9 8.5q9 7 19 11.5t21 8.5q5 2 13 2.5t10 0.5q6 -2 6.5 -11.5t-0.5 -11.5t-4 -4.5t-4 -5.5q-8 -17 -20.5 -30t-19.5 -24q-11 -16 -16 -21t-13 -15l-26.5 -32.5t-32.5 -34.5q-2 -2 -4 -7t-4 -7l-13.5 -13.5t-18.5 -17.5q-4 -4 -10 -7.5 t-10 -5.5q-3 -3 -5 -6.5t-5 -5.5q-2 -1 -6 -2.5t-7 -4.5q-5 -5 -10 -13.5t-12 -15.5q-8 -8 -15.5 -16.5t-14.5 -18.5q-2 -3 -9 -9l-14.5 -12.5t-14.5 -13.5t-9 -12q0 -1 -0.5 -9t-1.5 -18.5t-1.5 -22t-0.5 -18.5q-1 -11 0 -25.5l2 -29.5q1 -23 0.5 -46t3.5 -46 q3 -17 7.5 -32.5l10.5 -34.5q0 -2 -1 -3.5t-1 -2.5q8 -17 14 -34.5l12 -34.5q4 -11 11 -21t13 -23q7 -18 18 -30q1 -2 0.5 -3.5t2.5 -2.5q2 -1 7 0t9 2q2 0 5.5 1.5t5.5 1.5t12 -2q2 -10 6.5 -24.5t2.5 -17.5z" />
<glyph unicode="L" horiz-adv-x="337" d="M252 488l-1.5 -4.5t-0.5 -3.5q0 -5 1 -13t0 -11q-1 -2 -3 -4l-4 -4q-2 -4 -2 -9v-8q-1 -8 2.5 -17.5t2.5 -11.5t-4 -4q-2 5 -3 9t-5 6l-3 -8q-1 -2 -2 -9.5t-2.5 -15.5t-2 -15.5t-0.5 -9.5q1 -4 2.5 -7t2.5 -8l9 -2q-1 5 0 12.5t3 12.5q-2 4 -3 10.5t0 8.5q2 2 2.5 3 l1.5 3q7 -1 4 -5.5t-1 -9.5q2 1 3 1q2 0 4 1q2 7 1.5 14t-1.5 14q1 1 2.5 2t1.5 3q1 6 2.5 13.5t0.5 13.5q0 14 1 27t9 27q3 3 3 2q1 3 1 8q0 6 -2 9q-11 -8 -14 -10t-6 -10zM236 422q-2 -3 2 -3q-5 0 -2 3zM214 256q-1 -2 0 -4.5t1 -3.5q0 1 1 0.5t2 1.5q1 3 -1 3.5t-3 2.5 zM203 257q-2 -11 0 -21q1 0 2 1t2 3q2 3 0 8.5t-4 8.5zM-11 -324q-2 -2 -1 -13.5t3 -16.5q3 -5 5.5 -12.5t7.5 -14.5q8 4 12.5 12.5t6.5 13.5q1 2 4.5 17t6.5 26l-8 1q-3 0 -4 -1l-1 -1q-8 -1 -19 -3t-13 -8zM281 411q2 -5 -1 -11t4 -9q0 -1 -2.5 -2.5t-3.5 -3.5 q0 5 0.5 9.5t-1.5 7.5l4 9v0zM280 338q2 -1 5 -4q-3 -3 -7 -1l2 5v0zM289 271q2 0 4 -1.5t4 -3.5l-5 -7l-6 1q0 2 0.5 5.5t2.5 5.5zM187 42q-2 -17 -5 -40t-8 -44q2 -2 5 -2t7 -1l-18 -45q0 -1 0.5 -2.5t0.5 -4.5q-1 -8 -3.5 -17.5l-4.5 -17.5q-1 -4 -1.5 -12t-1.5 -15 q0 -2 -2 -5.5t-2 -6.5q-1 -12 -3.5 -20.5t-4.5 -16.5t-3 -16t1 -18q10 0 24 -1.5t17 -1.5q3 -1 16 -4t21 -5q2 0 4.5 -2t6.5 -4q1 -1 4 -1t5 -1q2 -2 5.5 -2.5t7.5 -2.5q5 -2 10.5 -4.5t10.5 -4.5q2 -2 4 -6q23 -5 39.5 -17t27.5 -24q2 -1 4 -1q2 -2 3 -6t3 -6q2 -1 5 -2 t5 -3q3 -3 6.5 -9t9.5 -9q10 -7 17.5 -14.5t2.5 -18.5q-1 -2 -4 -8.5t-8 -10.5q-6 -4 -16 -8.5l-17 -7.5q-8 -3 -18 -4.5t-14 -0.5q-5 1 -12.5 7.5t-15.5 15t-14.5 16.5t-8.5 11q-2 4 -6 8l-9 9q-2 2 -6 4l-8 4q-20 14 -40.5 24t-39.5 14q-2 0 -4 1.5t-4 1.5q-3 1 -11.5 2 t-11.5 2q-5 1 -10.5 1.5t-12.5 -2.5q-1 -5 -2.5 -9.5t-2.5 -9.5q-2 -6 -2 -13t-1 -14q-2 -7 -5.5 -17t-4.5 -17q-2 -9 -9 -16q3 -3 4 -5q-1 -2 -2 -5t-1 -5q-1 -11 -3 -21t0 -21q1 -5 5.5 -9t9.5 -9q2 -2 6.5 -4.5t6.5 -4.5t4 -7t4 -7q0 -1 3 -1.5t3 -3.5v-6q0 -4 -1 -7 q-2 -5 -6 -9q-3 -3 -10 -6.5l-15 -7.5h-4q-2 0 -5 -1q-1 0 -2.5 -1t-3.5 -2q-6 -3 -14.5 -5.5t-13.5 -2.5q-7 0 -11 1q-3 1 -6 1t-5 1q-4 2 -9 5t-8 6l-5 7.5t-6 8.5q0 1 0.5 2t0.5 2q-1 2 -4 5q0 5 -0.5 12t-3.5 13q-3 5 -8.5 9.5t-9.5 9.5q-10 11 -20 24.5l-20 26.5 q-2 3 -2 9q0 5 -2 10q-1 4 -5.5 8t-6.5 9q-2 4 -4.5 10.5t-5.5 11.5q-2 4 -1.5 9.5t0.5 10.5t2 13t4 15q8 20 22.5 33t48.5 27q8 3 21.5 7.5t24.5 6.5q3 1 8 0.5t9 0.5q5 1 6 4t2 5q10 25 17 52.5t12 52.5q2 11 5.5 22.5t6.5 25.5q-1 1 -6 4q1 3 3 8t3.5 10t2 9t-1.5 5 q0 2 3 7t-2 6l-1 -1v1v2q2 2 6.5 4.5t5.5 4.5q1 1 2.5 11t4 22.5l5 26t5.5 22.5q2 7 4 17.5t4 18.5q2 4 4.5 8.5t2.5 8.5q2 8 2.5 15.5t2.5 15.5q3 14 10 31.5t12 31.5q1 2 0.5 7t-0.5 8q0 5 6 7q1 2 0.5 4t-0.5 4q2 8 5.5 19.5l6.5 20.5q5 12 5 21q2 5 1 14.5t1 16.5 q1 5 3.5 11t1.5 11q0 1 1.5 3t3.5 4q0 2 -1 3.5t-1 3.5q0 4 3.5 8.5t5.5 8.5q2 7 2 14q0 8 2 16q1 8 4.5 16.5t5.5 17.5q1 3 2 7t1 7q-2 17 3 27.5t8 22.5q1 5 1 10q0 6 2 11t5 10t4 10q1 4 3.5 17.5l4.5 24.5q2 6 0.5 13t-0.5 14q2 9 2.5 17.5t2.5 16.5q1 3 2.5 8t3.5 9 q-1 2 -3 3t-2 3q-1 5 0.5 14t3.5 18q0 2 -1 5t-1 7q2 7 6 13q-1 2 -2.5 2.5t-1.5 2.5q1 3 4 6t1 6q-3 9 -2.5 18.5t2.5 18.5t4 17t1 14q-1 3 1.5 7.5t2.5 9.5q0 2 -1.5 5t0.5 5q1 2 9 6.5t11 4.5q2 -1 5 -1t6 -1q4 0 4.5 -3.5t0 -8t-1.5 -8t-1 -4.5q0 -18 -2 -36t-5 -35 q0 -4 1 -8t0 -9q-1 -6 -4.5 -12.5t-4.5 -12.5q0 -2 2 -7t1 -10q-1 -8 -3 -17.5t0 -18.5l4 -23.5t2 -20.5q0 -2 2 -3.5t2 -3.5q2 -3 0.5 -10t-2.5 -10l-4 -9q-2 0 -3.5 1.5l-3.5 3.5q-2 -1 -4 -4q-1 -2 -1.5 -10.5t0.5 -15.5l4.5 7t4.5 6q1 -3 0 -7.5t-3 -8.5l-1 3h-2 q0 1 -2 -1q0 -2 1 -4.5t2 -6.5q1 -3 -2.5 -7t-5.5 -8q2 -5 3 -12.5t3 -12.5q0 -2 -1.5 -4.5t-1.5 -4.5q3 -11 3 -25q0 -5 -1 -10.5t-3 -10.5q2 -4 2 -5t-1.5 -2.5t-1.5 -3.5q2 -6 0 -11q-1 -3 -4.5 -8t-6.5 -10q1 4 0.5 7t-1.5 7q-5 -1 -6 -5q0 -2 -0.5 -10t-0.5 -17 t-0.5 -17t-0.5 -9q-2 -2 -4.5 -3.5t-5.5 -3.5q-2 2 -4.5 5t-2.5 5q-2 0 -4 -1q-2 -2 4 -6q-1 -2 -1 -5q0 -2 -1 -5l-10 -25l-3 4l-2 -2q0 1 -1 -1q-1 -3 1 -10.5t0 -12.5q-1 -5 -1 -13q0 -7 -1 -9l-7 -18q-2 2 -4.5 6t-2.5 7q-1 2 2.5 6t5.5 9l2 10l2 10q1 4 -1.5 7.5 t-4.5 7.5q-2 3 -3 7.5t-2 6.5q0 2 1 4t1 4q-4 0 -5.5 -3.5t-2.5 -6.5q-1 -2 -0.5 -4t0.5 -4q0 -4 -1 -9.5t-3 -10.5q0 -2 1 -3.5t2 -3.5q0 -5 -2 -13q0 -2 2 -4l-3.5 -9l-3.5 -9q3 -5 8.5 -9t8.5 -12q2 -5 -0.5 -15.5t-3.5 -12.5l-3 -7q-2 0 -5.5 0.5t-5.5 -0.5q2 1 4.5 1.5 t3.5 3.5q2 4 0.5 6t-3.5 3t-4.5 2t-3.5 3q-5 -2 -6.5 -5.5t-2.5 -5.5t-0.5 -4.5t5.5 -4.5h-1q-1 0 -3 -2t-1 -3l1 1l1 2q3 -2 3 -8l-2 3l-5 -2q2 -2 0 -10q5 2 5 3t4 3q-1 -4 -2 -5.5t-2 -3.5q-2 -2 -1.5 -7t-1.5 -9q1 -2 4 -5q0 -1 -1 -3t-1 -5q3 4 4 8.5t6 9.5 q-1 1 -3.5 2t-2.5 3l1 5l7 -1l1 -1v1l1 2t-1 7.5t-3 10.5l5 -1q5 -5 2.5 -13.5t-7.5 -12.5q5 -2 5 -9t-2 -10q-2 -5 -5 -8q-5 0 -5 7l-1 -2q-2 -5 2 -6.5t6 -1.5l-4 -25.5l-4 -25.5l-2 -10q-2 -10 0 -10q-2 -8 -4 -19.5t-4 -21.5z" />
<glyph unicode="M" horiz-adv-x="583" d="M537 -361q-1 -4 -2.5 -9.5t-3.5 -9.5q-2 -5 -6 -11t-7 -6q-3 -1 -4.5 1t-3.5 1q-2 0 -6.5 -1.5t-6.5 -1.5q-14 11 -16 25t3 25q-2 7 -1 13.5t0 11.5q-2 14 -6 28.5t-6 27.5q-2 9 -6 21t-4 17q-1 11 1 24t0 21q-1 5 -3 7.5t-3 5.5q-2 5 -0.5 10.5t-3.5 6.5q1 2 2 2.5 t2 2.5q0 5 0.5 11.5t0.5 11.5q-1 10 -1.5 20t2.5 18q0 11 -1 26t-1.5 28.5t-1.5 23.5t-1 12l2 26l9 -1q1 -7 3 -14.5t1 -14.5q-1 -6 -2 -13t1 -11q2 -5 3 -5q1 -5 0.5 -8.5t-0.5 -6.5l-2 -2q2 -7 0 -12q-1 -1 -2 -1t-1 -1q6 -4 8 -13t0 -14l2 -2h1q-1 -8 -1 -17t2 -16 q2 -15 6 -29.5t7 -22.5q1 -2 3 -3.5t3 -2.5q2 -7 2.5 -14.5t2.5 -13.5q2 -4 6.5 -14t5.5 -16l-4 -8q4 -8 7 -15t6 -15q2 -3 1 -7.5t1 -6.5t4 -3t3 -3q0 -4 0.5 -8t-1.5 -6q4 -8 6.5 -10t1.5 -8q-1 -5 -2 -6t-6 -9q3 -3 5 -8t2 -8zM467 41l-5 -5q-2 1 -4.5 2t-4.5 1q0 2 -1 5 t-1 5q1 14 2 30l2 31q-1 2 -1 3t-1 2q2 8 2 16v15q-1 20 1.5 44t2.5 44q-2 2 -2 7q2 8 3 16t3 16q-2 4 -3.5 11.5t-1.5 9.5q1 6 4.5 18t4.5 14q2 5 -0.5 9t-1.5 8q0 11 2 23t2 23q1 2 4 5t5 4q-1 -6 -1.5 -12t0.5 -10q1 -6 -0.5 -12.5t-2.5 -11.5q6 -8 3 -14t-5 -13 q2 -8 3 -15t1 -10q0 -4 -2 -10t-3 -12q0 -2 -2 -4.5t-3 -5.5q0 -4 2 -4q3 0 4 -3q2 -6 -1 -14t-4 -15q-1 -8 0.5 -14.5t2.5 -12.5q0 -8 -2 -15.5t-3 -15.5q0 -5 0.5 -11t1.5 -11q1 -6 1.5 -11.5t-1.5 -9.5q-2 -5 -3 -11t-1 -12v-1q1 0 1 -1t1 -1v-30q0 -3 1.5 -7t-0.5 -6 l-4 -8t-1 -6q2 -2 3 -4t3 -3zM526 704q0 -3 -1 -5t-3 -5q5 -11 1 -20q-2 -3 -4 -5.5t-3 -5.5q-2 -8 -2 -17q0 -8 -2 -16q-1 -4 -3.5 -6.5t-3.5 -5.5q-4 -18 -4.5 -37t-0.5 -35q-2 -5 -1 -9.5t0 -9.5q-2 -2 -5 -6t-6 -7v-1v-2l1 -2h1q1 -1 -1 -2t-2 -5h2q-1 -2 -2 -5.5 t-1 -5.5l2.5 -5t1.5 -5q0 -5 -1.5 -11t-2.5 -11q0 -3 2 -6t1 -5q0 -4 -2.5 -6t-4.5 -4q-4 2 -9 2t-9 -1q2 14 0 29.5t-1 18.5q0 3 6 13.5t7 13.5q0 4 -5 15.5t-5 15.5q1 3 3 6.5t4 5.5q0 1 -1 3t1 4l2 3q1 6 0 8.5l-2 5t-2 6.5t0 12q0 1 2 10t4 19.5t4 19.5t2 11q1 7 1.5 12 t-5.5 7q-5 -10 -8.5 -15.5t-7.5 -22.5q-1 -5 -5 -11t-6 -10q-1 -3 -1 -6t-1 -5l-10.5 -20.5t-9.5 -20.5q-2 -5 -5.5 -15.5l-4.5 -13.5q-3 -13 -4 -26t-5 -22q-5 -13 -6.5 -26t-4.5 -27q-2 -8 -6 -18t-6 -18q2 -16 -1 -29q-4 -23 -8 -48.5t-9 -46.5q-2 -12 -4 -29t-4 -29 q-1 -8 -3 -19.5l-4 -22l-3.5 -18t-1.5 -8.5q0 -4 1 -5t1 -3q0 -19 1.5 -41.5t-0.5 -45.5q-1 -6 2 -13.5t2 -10.5q0 -3 -7 -15t-9 -20q-1 -3 -1.5 -7.5t-5.5 -6.5q-3 1 -9 1q-5 0 -9 -2q-7 8 -12 14.5t-9 14.5q-2 3 -6.5 7t-5.5 7l-12.5 44t0.5 52q-1 2 -1.5 3.5t-1.5 2.5 q0 8 1 16t0 14q-1 10 -2.5 18t-3.5 16q-1 2 -0.5 4t0.5 4q4 8 5 17t1 14q-1 2 -2.5 4.5t-1.5 5.5q1 5 2 11t-1 10q-2 5 -5.5 10t-3.5 10q-1 14 0.5 31t-0.5 30q-2 16 -2 28q0 13 -9 24q-4 4 -3 10t0 8q-3 8 -9 14.5t-12 10.5q-4 -4 -5 -4q-5 -18 -11.5 -34.5t-11.5 -34.5 q-4 -13 -9 -26.5l-10 -26.5q-3 -8 -4.5 -16.5t-3.5 -13.5q-5 -19 -13 -38.5t-15 -39.5q-3 -9 -5 -21.5t-5 -19.5q-8 -20 -14.5 -43t-11.5 -43q0 -2 -3 -6t-4 -7q-5 -29 -14 -57t-14 -47q-1 -2 0 -3.5t1 -3.5q-4 -9 -6.5 -17.5t-6.5 -16.5q2 -2 1.5 -5t-0.5 -4 q-6 -18 -12.5 -39.5l-11.5 -38.5q-1 -3 0.5 -5.5t1.5 -3.5q-4 -14 -5.5 -24.5t-2.5 -20t-1.5 -19t-1.5 -21.5q-1 -8 -4.5 -14.5t-4.5 -12.5q0 -1 -4 -5t-9.5 -8.5t-11.5 -8.5t-11 -5q-25 -3 -38 28q-2 3 -5 6t-4 7q-1 8 -1 20t1 15q0 27 7.5 47.5t13.5 40.5q3 11 7.5 30 t9.5 33q10 30 21 58l19 50q17 45 29.5 92t26.5 87q2 1 3 3t2 3q1 8 3 15t4 12q2 4 1.5 8.5t1.5 7.5q5 14 12 29t13 30q5 10 7 21.5t5 19.5q8 22 18.5 45.5t16.5 38.5q2 8 3.5 17t3.5 17q2 7 5 12.5t5 10.5q3 9 6.5 21t5.5 20q3 11 6 25.5t5.5 28.5t5 26t4.5 18q1 4 3.5 7 t3.5 6q5 22 6 46t7 45q4 2 10 5.5t9 3.5q7 1 15 -1t13.5 -8t6 -15t-6.5 -22q5 -8 5 -16q-3 0 -5 -2q8 -11 8.5 -16.5t-0.5 -16.5q-1 -3 -2.5 -13t-4.5 -16q-4 -8 -9 -16t-7 -13q-2 -11 -2.5 -22.5t-1.5 -22.5q3 -5 9 -5h12t10.5 -0.5t5.5 -6.5q5 -18 5 -43q0 -24 2 -40v-15 q0 -9 -0.5 -19t-1 -18.5t0.5 -11.5q2 -9 2.5 -22t0.5 -27t-0.5 -25.5t0.5 -17.5v-14q0 -6 1 -10q3 6 9 16t7 13q0 3 -1.5 7t-0.5 6h4q1 0 6 8.5t10 19.5t9 21t4 12q0 3 0 2l-2 -1q-3 -5 -7 -11t-8 -11q1 -5 -1 -7l-6 -6q-1 13 4 32t8 28q2 6 6.5 12t6.5 11q-6 2 -6.5 4.5 t0.5 7.5q0 2 3 18t8 37.5l11 45.5t12 41q3 9 4.5 16t4 13.5t7.5 12t16 10.5q1 2 0.5 5t1.5 5q5 7 9 15l7 14q4 7 10.5 15.5t8.5 14.5q2 5 3.5 12t3.5 12t7 10.5t8 9.5l3 6q1 2 1 4q9 9 9 12q7 0 12.5 -3.5t10.5 -4.5q2 0 6.5 0.5t6.5 -1.5q5 -2 9 -6.5t5 -7.5q2 -5 0.5 -16 t-2.5 -14zM347 392q-4 -2 -11 -9l-1 -8q3 0 5.5 3.5t5.5 5.5z" />
<glyph unicode="N" horiz-adv-x="461" d="M461 731q0 -2 -4.5 -8l-10 -13.5l-10 -13.5t-4.5 -7l-8 -16t-6 -22q-2 -5 -5.5 -11t-5.5 -11q-1 -2 -1 -6q0 -3 -1 -5q-5 -9 -10 -19.5t-8 -20.5q-2 -6 -5 -16.5t-4 -13.5q-3 -12 -3.5 -25.5t-3.5 -21.5q-5 -13 -6 -26t-4 -28q-1 -3 -1.5 -17t-1 -34.5t-1.5 -43.5 t-2 -43.5t-1.5 -35t-1.5 -17.5q2 -6 1.5 -14t-1.5 -14q-3 -23 -7 -48.5t-7 -46.5q-2 -12 -3 -29t-2 -29q-1 -8 -2.5 -19l-3 -21.5t-2.5 -18.5t-1 -9q-1 -4 0.5 -5t1.5 -3q1 -18 3 -40.5t1 -45.5q-1 -6 2 -13t3 -10t-7 -15.5t-8 -20.5q0 -3 -0.5 -7t-5.5 -7q-10 2 -18 -1 q-15 14 -23 28q-2 3 -6.5 6.5t-5.5 6.5l-14.5 43.5t-2.5 51.5q0 5 -3 5q0 8 1 16t0 14q-2 10 -4 18l-4 16v8q3 8 4 16.5t0 13.5q0 3 -2 5.5t-1 4.5q0 6 1 12t-1 9q-2 5 -6 10t-5 10q-1 13 -0.5 30t-1.5 30q-1 8 -1.5 39t-2 66.5t-4 65.5t-7.5 35q-3 5 -2.5 10.5t-0.5 8.5 q-4 8 -10 13.5t-12 9.5q-2 -2 -3 -2.5t-2 -1.5q-4 -18 -10 -34.5t-10 -34.5l-8.5 -26t-9.5 -27q-3 -8 -3.5 -16.5t-2.5 -13.5q-6 -19 -13 -39t-13 -40q-3 -8 -5 -20.5t-4 -19.5q-8 -20 -13 -43.5l-9 -42.5q-1 -3 -3.5 -6.5t-3.5 -7.5q-5 -28 -13 -56.5t-12 -47.5 q-1 -2 0 -3.5t1 -3.5q-3 -8 -5.5 -17t-5.5 -17q2 -2 1.5 -4.5t-0.5 -4.5q-5 -17 -10.5 -38.5l-10.5 -39.5q-1 -3 1 -5t1 -4q-7 -26 -6.5 -43.5t-1.5 -40.5q0 -8 -3.5 -14.5t-4.5 -12.5q0 -1 -4 -5.5t-9.5 -9t-11.5 -8.5t-10 -5q-11 -2 -22 5t-18 21q-1 3 -4.5 6t-4.5 7 q-1 8 -1.5 20t-0.5 15q2 27 7.5 47.5l10.5 40.5q2 11 6 30t9 33q8 29 18.5 57l18.5 51q15 45 26.5 92t23.5 87q1 1 2 3l2 4q1 7 3 14t4 12t1 9t1 7q5 14 11.5 29.5t11.5 30.5q4 9 6 20.5t4 20.5l17.5 45t14.5 39q3 8 4 17t3 17q2 7 4.5 12.5t4.5 10.5q2 9 5.5 21t5.5 20 l4.5 25.5t4.5 28.5t4 26t4 18q1 4 3 7t3 6q4 22 4.5 45.5t5.5 45.5q4 2 10 5.5t9 4.5q7 1 15.5 -1t14 -7.5t6.5 -14.5t-6 -22q4 -7 6 -16q-4 0 -5 -2q8 -10 8.5 -15.5t-0.5 -16.5q0 -4 -1.5 -14t-3.5 -16q-4 -8 -8.5 -16t-6.5 -13q-2 -10 -2 -22t-1 -23q4 -4 9 -4 q6 0 12 0.5t10.5 0t6.5 -6.5q5 -18 6.5 -42t3.5 -40q0 -4 0.5 -21t0.5 -41q0 -23 0.5 -50t0.5 -50v-39t1 -18q2 -9 3 -22t1.5 -26.5t1 -25t0.5 -17.5q1 -7 1 -14q0 -6 2 -10q2 7 8 17t6 12q1 4 -0.5 8t-1.5 6l5 -1q1 0 5.5 9t9 20t8 21t3.5 12q0 3 0 2h-2q-3 -6 -6.5 -12 t-7.5 -12q1 -4 -1 -6t-5 -6q-2 12 2.5 31t7.5 28q0 2 1 16t2 33t2 41.5t1.5 41.5t1.5 32.5t1 14.5q-6 2 -6.5 4.5t0.5 7.5q0 1 2.5 17t6.5 38t9.5 45.5t10.5 40.5q5 18 7.5 30t22.5 23q1 2 0.5 5t1.5 5q5 8 9 15.5t6 13.5q3 7 10 16t9 15q2 5 3 12t3 12t6.5 10.5t7.5 10.5 q1 1 1 2q0 2 1 4q0 2 1 3q9 9 9 13q7 0 13 -3.5t11 -4.5q2 0 6 0.5t6 -0.5q5 -2 6 -4.5t2 -5.5q1 -5 -5 -10.5t-6 -8.5zM311 246q-5 -3 -11 -10v-8q3 1 5.5 4.5t5.5 5.5v8z" />
<glyph unicode="O" horiz-adv-x="708" d="M-26 -204q-3 6 -1 12q-4 4 -4 7h-4q-1 0 -2 1l-1 -6q-1 -3 4 -7.5t8 -6.5zM8 -250q-2 2 -6 4.5t-2 5.5l1 5q2 -2 4.5 -4t3.5 -5l-1 -6v0zM-37 -138q-2 4 -4 9t-1 8t3 5t3 4q2 -6 1 -13t-2 -13zM-28 -58q-2 -1 -4.5 -1.5t-4.5 -1.5q-1 2 2 5.5t5 5.5q2 -2 2 -4v-4z M-22 -43q-2 -2 -6 -2.5t-6 -0.5q7 4 7 11q5 -5 5 -8zM-9 15q-2 -4 -2 -8t-7 -6l3 11l6 3v0zM-15 22l1 6h7l-2 -6h-6zM10 74q-1 -2 -2 -5.5t-3 -3.5l5 9v0zM19 89q-2 -4 -1.5 -7t-7.5 -4l2 7l7 4v0zM36 126q0 -2 -1.5 -5.5t-3.5 -5.5q-1 2 2 5.5t3 5.5zM73 188q-2 -8 -9 -16 t-11 -13q6 9 10 20t10 21q-1 -2 0 -5.5t0 -6.5zM93 222q-1 -3 -5 -5.5t-6 -4.5t-4 -9q1 2 -1.5 4.5t-1.5 5.5t7.5 8.5t12.5 8.5l-2 -8v0zM169 347q0 -1 -1 -3.5t-5 -2.5q0 1 -3 4q2 2 4 2h5zM281 -281q-8 -2 -18.5 -5l-21.5 -6t-22 -5.5t-20 -3.5q-5 -1 -12.5 -3.5 t-12.5 -3.5q-7 -1 -21.5 -0.5t-19.5 0.5q-4 0 -19 -1t-22 1q-5 1 -10.5 2.5t-12.5 2.5q-26 4 -48 16.5t-38.5 28.5t-26.5 34.5t-13 35.5q-1 5 -5.5 20.5t-6.5 24.5q0 2 0.5 16t2.5 32.5t4.5 39.5t6.5 37q1 3 6.5 15t8.5 21q13 36 32 80t45 85q4 6 7 15t7 16q2 4 6 8.5t8 9.5 q7 8 9.5 19t15.5 19q0 2 -1 2.5t0 2.5l27 42l25 41l7 7q11 15 20 30.5t20 31.5q23 34 48.5 67.5l53.5 68.5q2 2 6 8t-1 8l11 4.5t9 7.5q3 3 4 7t4 6q2 3 1.5 4t0 1.5t3 2.5t9.5 6q-3 5 -0.5 9t7.5 8t11.5 8.5t11.5 10.5q6 8 11 17.5t13 17.5q9 9 21 18.5l23 17.5 q5 4 14.5 14t17.5 16l14 11.5t19 12.5q5 3 14 6.5l18.5 7t18.5 6t13 2.5t5.5 -1t5.5 -1q5 0 5.5 1.5t4.5 1.5q25 0 39.5 -13l22.5 -20q2 -2 7.5 -6.5t7.5 -8.5q5 -8 8 -17.5t6 -17.5q1 -2 3.5 -6t2.5 -7q1 -8 0 -19.5t-2.5 -22t-3 -18.5t-1.5 -9q-1 -3 -3 -5t-3 -4 q-6 -25 -16 -49t-36 -48q-1 -1 -1 -4q0 -2 -2 -4l-10.5 -12.5t-11.5 -12.5q-11 -10 -26 -21t-32 -22q9 -6 18 -6q5 0 3.5 0.5t-0.5 1.5q3 1 8 1h11q13 0 20 -2t15 -4q2 -1 8 -2.5t8 -4.5q1 -2 2 -5t3 -4q4 -3 10.5 -5t8.5 -6q2 -2 -0.5 -6t-0.5 -7q2 -8 8 -15t8 -15 q3 -15 -3.5 -23.5t-6.5 -20.5q1 -3 3 -6t2 -5q0 -7 -2 -15q-1 -3 2 -4.5t4 -4.5q1 -4 -0.5 -11.5t-2.5 -10.5t-2.5 -5t-2.5 -4h-8q-2 3 -9 7q1 4 1 8t-2 8q0 2 5 5q-2 11 -4 19t-8 19q-2 2 1 6t5 7q2 4 0 8t-1 8q0 5 3 10.5t8 10.5q-7 6 -16 4.5t-14 0.5q-2 1 -5.5 5.5 t-9.5 10t-14 9.5t-18 4q-4 0 -18.5 -1t-25.5 -3q-3 0 -7 -2.5t-8 -2.5q-7 -1 -16 -1q-8 0 -16 -3q-5 -2 -14 -8t-17 -8q-37 -8 -68 -26l-54 -32q-23 -16 -47.5 -35l-48.5 -36q-5 -4 -12.5 -11t-13.5 -12q-2 -2 -3 -5.5t-3 -5.5q-3 -5 -9 -9l-9 -6q-1 -1 -2.5 -3.5t-4.5 -4.5 q-2 -2 -1.5 -5t-1.5 -5q-8 -9 -16.5 -22t-14.5 -24q-2 -4 -2 -10t-2 -11l-7.5 -22t-7.5 -27q-1 -2 0.5 -5.5t1.5 -5.5v-4l-3 -9q0 5 -1 11t-5 11q-2 4 -6 10q-2 2 -6 5t-9 5q3 3 5 10q-4 4 -2.5 10.5l2.5 10.5q6 25 26 55.5t43 51.5q2 2 5 7.5t8 10.5l40 37.5t42 36.5 q42 35 90.5 62.5t90.5 47.5q-14 8 -26.5 14t-9.5 18q1 3 2.5 11t6.5 13q4 5 14.5 14t22.5 17.5t24.5 15t20.5 7.5q6 1 14 1h16q4 2 8.5 6.5l9.5 9.5q9 16 16 31q6 12 11.5 24.5t7.5 17.5q3 11 4 24.5t-0.5 26t-5 22.5t-10.5 16q0 3 -2 7q-2 1 -5 4.5t-7 3.5q-12 0 -34 -15.5 t-45 -36l-43 -40t-30 -27.5q-5 -4 -12 -8t-13 -10q-2 -2 -3 -5t-4 -5q-29 -23 -52 -45l-46 -45q-2 -2 -2 -6t-2 -7q-2 -2 -7.5 -5l-9.5 -5q-2 -4 -5 -7.5t-6 -8.5q1 -1 4 -1t6 -2q-2 -2 -6 -3t-7 -3q-6 -4 -6 -9q0 -4 -8 -5q-2 -4 0 -9t-1 -9q-2 -2 -7 -5.5t-9 -7.5 q-2 -2 -1 -5.5t-1 -5.5t-2 -6q0 -3 -5 -3h-10q2 2 4 2.5t5 4.5h-15q-9 -10 -14.5 -19.5t-13.5 -16.5q-2 -2 -2 -5t-2 -5l-6.5 -10.5t-7.5 -10.5q-2 -2 -3 -2t-3 -1q0 -5 -0.5 -11t-4.5 -11q-4 -6 -11.5 -15l-14.5 -17q1 -2 2 -2t1 -2q-2 -2 -5.5 -2.5t-7.5 -2.5q4 -2 3 -6 q0 -2 -4 -10l-9.5 -18.5l-11.5 -22.5t-12 -21q-8 -14 -17 -27l-18 -27l-12 -25l-16 -34q-4 -9 -3 -20.5t-3 -21.5q-2 -5 -5.5 -8t-5.5 -6q-2 -8 -1 -21t-8 -19l11 2q-1 1 -2 1q-2 0 -4 2q2 0 5.5 -2.5t4.5 -4.5q-2 -2 -5.5 -1t-8.5 -1q-1 -4 -2.5 -8.5t-6.5 -9.5l2 -4 q1 -2 -1.5 -4t-3.5 -5l1 -3q-5 -5 -3.5 -9.5t1.5 -9.5q2 -13 2 -32q0 -20 2 -40q0 -5 -3 -8q2 -3 4 -6.5t4 -5.5q4 -5 15 -8q1 -6 3 -12t2 -14q0 2 -4 2q-2 -2 -1.5 -1.5t-0.5 -2.5t0 -7t-1 -8q1 -1 3 -2.5t3 -2.5l8 -12.5t11 -12.5q2 -2 6.5 -2.5t7.5 -2.5l4 3q0 2 -2.5 4 t-3.5 4q13 -5 15.5 -11.5t3.5 -6.5q5 0 3 1t3 1q4 0 11.5 -5t15.5 -9q-3 -2 -1 -4.5t4 -4.5h6q2 2 2 4q0 1 2 3q2 -2 4.5 -3.5t4.5 -2.5h-5t-7 -2q7 -5 14 -5q4 0 7 0.5t6 -0.5q2 1 2 3q-1 2 -4.5 1t-6.5 0l16 2q5 -3 17 -3h17q4 0 2 -1t3 -1q20 0 35 1t29.5 4t31.5 9t42 17 q0 3 6.5 5.5t14.5 4.5t15 4.5t7 5.5q42 20 68.5 44t48.5 42q8 8 19 21.5t24 24.5q2 5 1 6q6 7 11 16t10 17q4 5 12 11.5t11 11.5q2 2 1 4.5t0 5.5q2 5 5.5 10.5l6.5 10.5q3 0 6 3q2 5 5 11l6 12q10 5 13.5 15.5t-0.5 15.5q7 5 15 7q0 8 -1 15.5t4 13.5q2 2 5 3.5t5 3.5 q3 3 4.5 8.5t2.5 8.5q1 2 3.5 14t2.5 23q0 3 -3 8t-1 8q2 5 5 10t5 10q0 2 -3 5t-2 6t3.5 4t3.5 3q0 2 -1 4.5t1 5.5q2 4 6.5 7t5.5 6q0 1 -0.5 6t-2 11t-2 10.5t-0.5 6.5q1 5 11.5 9.5t14.5 5.5q-1 -14 -3.5 -33l-5 -37t-4.5 -31t-2 -14q-3 -14 -7.5 -22t-7.5 -25 q-2 -5 -3.5 -11t-3.5 -11q-2 -4 -5.5 -7t-6.5 -8q-2 -2 -0.5 -4t1.5 -5q0 -5 -3.5 -10t-6.5 -10q-2 -2 -1 -4.5t-1 -5.5t-6.5 -6.5t-6.5 -8.5q-3 -5 -2 -10.5t-3 -11.5q-8 -13 -21 -28t-21 -28q-5 -8 -9.5 -18t-9.5 -16l-19.5 -21l-24.5 -24.5l-26 -24.5l-23 -22 q-1 -1 -5 -2t-6 -3q-10 -7 -19 -15t-20 -16q-2 -2 -8 -3t-9 -3q-2 -1 -4 -4t-5 -5t-8.5 -4l-11.5 -4q0 3 -7 -2l-15.5 -11.5t-16 -11.5t-9.5 -2zM193 376q-2 -5 -7.5 -8.5t-16.5 -15.5q1 3 4 8t5 8q3 3 0 8q3 5 8 7q2 0 5 -2t2 -5z" />
<glyph unicode="P" horiz-adv-x="458" d="M620 685q1 6 1.5 14t-2.5 15.5t-9 13t-16 5.5q-6 0 -13 -2.5t-14.5 -5.5t-13.5 -6t-9 -4q-7 -2 -13 -2t-10 -2l-62 -35.5t-68 -42.5q-18 -12 -35 -25q-5 -4 -9 -9t-9 -10t-10.5 -9t-10.5 -8q-5 -5 -6 -9q-1 -3 1.5 -13.5t2.5 -18.5q1 -3 0 -7.5t-1 -8.5q1 -5 -1 -8t-3 -7 q0 -2 -0.5 -7t-0.5 -11v-11v-5q-1 -3 -6.5 -12t-6.5 -12q-8 -25 -13.5 -50t-12.5 -50v-2q0 -1 1 -1l-4 -16l-4 -16q-3 -11 -8.5 -22t-10.5 -34q-3 -13 -7 -25.5t-9 -25.5q47 42 88 82.5t79 82t74 85.5l74 93q4 5 6 15q2 1 3 2t2 1q-3 4 1 10.5t7 7.5l2 -2v-1q0 1 1.5 2 t2.5 2q2 8 8 19t10 19q2 2 5 5.5t5 5.5l7 16l8 17.5t6.5 15t2.5 7.5zM683 723q-1 -2 -4 -9t-5 -10q-2 -5 -3 -11t-5 -12l-10 -16t-9 -16q-2 -2 -7 -7.5t-7 -9.5q-1 -1 -3 -1t-3 -2q-2 -4 -5.5 -8.5t-6.5 -9.5q-1 -2 -4 -3.5t-5 -3.5q-10 -12 -19.5 -25.5l-17.5 -24.5 q-5 -7 -13 -14.5t-15 -15.5q-1 -1 -1 -4q0 -2 -2 -4q-5 -5 -10.5 -9t-10.5 -9q-2 -2 -3 -6t-3 -6q-2 -4 -7.5 -9.5t-8.5 -10.5q-4 -5 -7.5 -13t-8.5 -13q-8 -9 -22.5 -22.5t-24.5 -24.5q-5 -6 -8 -14.5t-10 -15.5l-38 -38.5l-40 -40.5q-8 -8 -18 -20t-21.5 -24t-23 -22.5 t-20.5 -15.5q-3 -2 -6.5 -7t-7.5 -9q-4 -3 -13.5 -13t-11.5 -15l-10 -41q1 -2 0.5 -1.5t2.5 0.5q1 0 7.5 2l14 4.5l13.5 4.5t8 2q5 0 4.5 -4t-1.5 -6q0 -2 -4 -7.5t-7 -8.5q-1 -2 -5 -3.5t-7 -5.5l-17 -17t-21 -12l-4.5 -4.5t-4.5 -5.5q-5 -8 -7 -16t-5 -16t-6.5 -15.5 t-6.5 -15.5q-4 -11 -9.5 -32t-10.5 -34q-4 -13 -8 -30t-6 -32q-1 -9 -3.5 -20t-7.5 -17q-4 -4 -13.5 -8.5t-15.5 -6.5h-5q-2 0 -7 0.5t-5 4.5q-1 7 0 17.5l2 20t2.5 17t1.5 9.5l17 68q0 2 2 4.5t4 5.5q0 13 5 30l6.5 18l6.5 18q1 2 2 2t2 3l2 11q-11 -5 -20.5 -8.5 t-18.5 -8.5q-7 -4 -16 -10.5t-20 -13.5q-4 -2 -8.5 -2.5t-6.5 -1.5q-5 -2 -10 -7t-10 -9l-9 -4.5t-9 -3.5q-4 -2 -7 -5q-6 -2 -13 -2t-15 3t-6 11q1 4 8.5 11t16 14t15.5 12t8 6l43 28.5l42 28.5l14.5 9.5t17 12t16.5 13.5t12 13q1 2 3.5 9l5.5 15.5t5.5 17t4.5 14.5 q4 14 7 28.5t8 29.5q2 6 4.5 14.5t3.5 11.5q0 1 1.5 8t3 17t3.5 20.5t4 18.5q5 25 10 59l11 72q1 3 2.5 8.5t0.5 9.5q0 1 -7.5 7t-9.5 6q-1 0 -6 -3t-11.5 -7.5t-13 -9.5l-10.5 -8q-2 -2 -3.5 -6t-3.5 -6q-12 -11 -25 -20l-23 -16q-1 -1 -2.5 -1.5t-3.5 -1.5 q-6 -8 -17.5 -17t-19.5 -17q-1 0 -3 -2t-4 -2q-3 0 -4 1t-4 1q-2 0 -5.5 1t-7.5 1q-2 6 -4 14.5t-1 11.5q2 8 13 23t23.5 30.5l23 27.5t12.5 14q4 5 9 9.5t10 6.5l2 4q10 10 22.5 21t21.5 16q7 5 16 9t19 6q4 2 10.5 0.5t12.5 2.5q4 3 18.5 13l34 23.5l41 29l39.5 28.5 q1 1 3 3.5t4 4.5q29 20 64.5 41t72 38t71.5 28t63 11q3 0 14 -5t16 -10q5 -6 8 -13t8 -14q-1 -7 -1 -18q0 -10 -1 -13z" />
<glyph unicode="Q" horiz-adv-x="708" d="M-8 -204q-1 3 -1.5 6.5t1.5 5.5q-5 3 -5 7h-3q-1 0 -2 1l-1 -6q-2 -3 3 -7.5t8 -6.5zM26 -250q-2 2 -5.5 4.5t-2.5 5.5l2 5q1 -2 4 -4t4 -5l-2 -6v0zM-18 -138q-2 4 -4 9t-1 8t2.5 5t2.5 4q2 -6 1.5 -13t-1.5 -13zM-10 -58q-2 -1 -4.5 -1.5t-4.5 -1.5q0 2 3 5.5t5 5.5 q2 -5 1 -8zM-4 -43q-2 -2 -6 -2.5t-6 -0.5q5 2 6 5l2 6q5 -5 4 -8zM10 15q-2 -4 -2.5 -8t-6.5 -6l2 11l7 3v0zM4 22l1 6h6l-1 -6h-6zM37 89q-2 -4 -1 -7t-7 -4l2 7l6 4v0zM92 188q-2 -8 -9 -16t-11 -13q5 9 9.5 20t10.5 21q-1 -2 0 -5.5t0 -6.5zM111 222q0 -3 -4 -5.5 t-6 -4.5t-2.5 -4.5t-1.5 -4.5q1 2 -1.5 4.5t-1.5 5.5t7 8.5t12 8.5l-2 -8v0zM188 347q-1 -1 -2 -3.5t-4 -2.5q-1 -1 -3 4q2 2 4 2h5zM661 147q-4 -14 -8.5 -22t-7.5 -25q-1 -5 -2.5 -11t-4.5 -11q-2 -4 -5 -7t-6 -8q-2 -2 -0.5 -4t1.5 -5q-1 -5 -4 -10t-7 -10 q-2 -2 -0.5 -4.5t-0.5 -5.5t-6.5 -6.5t-7.5 -8.5q-2 -5 -1.5 -10.5t-2.5 -11.5q-8 -13 -21 -28t-21 -28q-5 -8 -9.5 -18t-9.5 -16l-19.5 -21l-24.5 -24.5l-26.5 -24.5t-23.5 -22q-1 -1 -5 -2t-6 -3q-10 -7 -19 -15t-19 -16q-2 -2 -8 -3t-9 -3q-3 -1 -5 -4t-5 -5 q-2 -2 -7.5 -4l-11.5 -4q0 -14 -1 -25t1 -25q2 -8 0.5 -16.5t3.5 -22.5q2 -8 8.5 -15.5t9.5 -15.5q6 -20 22 -37t44 -28q5 -2 13.5 -3t13.5 -1q4 0 15 2t26 5l5 -4q-8 -4 -16 -8.5t-16 -6.5q-7 -2 -15 -3t-13 -1h-15q-12 0 -20 5.5t-13 7.5q-24 11 -40 27.5t-25.5 35.5 t-15 39t-8.5 38q-2 6 -5.5 12.5t-7.5 12.5q-15 -5 -39.5 -11.5t-41.5 -8.5q-5 -1 -12.5 -3.5t-12.5 -3.5q-8 -1 -22 -0.5t-19 0.5q-4 0 -19 -1t-22 1q-5 1 -11 2.5t-13 2.5q-26 4 -47.5 16.5t-38 28.5t-26.5 34.5t-13 35.5q-2 5 -6.5 20.5t-6.5 24.5q0 2 1 16t2.5 32.5 t4.5 39.5t7 37q1 3 6.5 15t8.5 21q12 36 31.5 80t45.5 85q4 6 6.5 15t6.5 16q2 4 6 8.5t9 9.5q7 8 9 19t15 19q0 2 -1 2.5t0 2.5l27 42l26 41l7 7q10 15 19 30.5t20 31.5q23 34 49 67.5l54 68.5q2 2 6 8t-1 8q4 2 10 4.5t10 7.5q3 3 3.5 7t4.5 6q2 4 0 5q-1 -1 -2 -1h-3 q2 2 7 4t11 6q-3 5 -0.5 9t8 8l12 8.5t11.5 10.5q6 8 11 17.5t13 17.5q8 9 20.5 18.5l23.5 17.5q5 4 14 14t17 16q7 5 14.5 11.5t18.5 12.5q5 3 14 6.5t19 7t19 6t13 2.5t5 -1t6 -1t5 1q0 2 5 2q25 0 39.5 -13l22.5 -20q2 -2 7.5 -6.5t7.5 -8.5q5 -8 8 -17.5t6 -17.5l3 -6 t3 -7q0 -8 -0.5 -19.5t-2 -22t-3 -18.5t-1.5 -9q-1 -3 -3.5 -5t-3.5 -4q-6 -25 -15.5 -49t-35.5 -48q-1 -1 -1 -4q0 -2 -2 -4q-6 -6 -11 -12.5t-11 -12.5q-11 -10 -26 -21t-32 -22q9 -6 18 -6q5 0 3.5 0.5t-0.5 1.5q3 1 8 1h10q14 0 20.5 -2t14.5 -4q3 -1 8.5 -2.5t7.5 -4.5 q2 -2 3 -5t3 -4q3 -3 10 -5t9 -6q1 -2 -1 -6t-1 -7q3 -8 9 -15t8 -15q2 -15 -4.5 -23.5t-5.5 -20.5q0 -3 2.5 -6t2.5 -5q0 -7 -2 -15q-1 -3 1.5 -4.5t3.5 -4.5q2 -4 0.5 -11.5t-2.5 -10.5t-2.5 -5t-2.5 -4h-8q-1 2 -4 3.5t-6 3.5q4 10 0 16q0 3 4 5q-2 11 -4 19t-8 19 q-1 2 1.5 6t5.5 7q2 4 0 8t-2 8q0 11 12 21q-8 6 -16.5 4.5t-13.5 0.5q-2 1 -6 5.5t-10 10t-13.5 9.5t-17.5 4q-4 0 -18.5 -1t-25.5 -3q-3 0 -7 -2.5t-8 -2.5q-7 -1 -16 -1q-8 0 -17 -3q-5 -2 -14 -8t-17 -8q-37 -8 -68 -26t-53 -32q-23 -16 -47.5 -35l-48.5 -36 q-5 -4 -12.5 -11t-13.5 -12q-2 -2 -3 -5.5t-3 -5.5q-4 -5 -9.5 -9t-9.5 -6q-1 -1 -2 -3.5t-4 -4.5q-2 -2 -2 -5t-2 -5q-7 -9 -16 -22t-14 -24q-2 -4 -2 -10t-2 -11q-4 -9 -8 -22l-8 -27q0 -2 1.5 -5.5t1.5 -5.5q0 -3 -1 -4l-2 -9q-1 5 -1.5 11t-4.5 11q-1 2 -3 5t-4 5t-6 5 t-8 5q2 2 2.5 4.5t2.5 5.5q-4 4 -2.5 10.5l2.5 10.5q6 25 26 55.5t43 51.5q2 2 4.5 7.5t7.5 10.5l40.5 37.5l41.5 36.5q42 35 90.5 62.5t90.5 47.5q-14 8 -26 14t-9 18q1 3 2.5 11t6.5 13q4 5 14.5 14t22.5 17.5t24 15t21 7.5q5 1 13 1h16q5 2 9 6.5t9 9.5l5.5 9.5t11.5 22 l11.5 24.5t6.5 17q3 11 4 24.5t0 26t-4.5 22.5t-10.5 16q0 2 -1 3.5t-1 3.5q-2 1 -5 4.5t-7 3.5q-12 0 -34 -15.5t-45 -36l-43 -40t-30 -27.5q-5 -4 -12.5 -8t-13.5 -10q-2 -2 -2.5 -5t-3.5 -5q-29 -23 -52.5 -45t-45.5 -45q-2 -2 -2 -6t-3 -7q-2 -2 -7.5 -5l-9.5 -5 q-1 -4 -4.5 -7.5t-6.5 -8.5q2 -1 4 -1q3 0 7 -2q-2 -2 -6 -3t-7 -3q-7 -4 -6.5 -8.5t-8.5 -5.5q-1 -4 0.5 -9t-1.5 -9q-2 -2 -6.5 -5.5t-8.5 -7.5q-2 -2 -1 -5.5t-1 -5.5t-2 -6q0 -3 -5 -3h-10q2 2 4 2.5t4 4.5h-14q-9 -10 -14.5 -19.5t-13.5 -16.5q-2 -2 -2 -5t-2 -5 l-14 -21q-2 -2 -3 -2t-3 -1q0 -13 -5 -22q-4 -6 -12 -15t-14 -17q0 -2 1 -2q2 0 1 -2q-2 -2 -5 -2.5t-7 -2.5q1 -1 2.5 -2t0.5 -4q0 -2 -4 -10l-9.5 -18.5l-12 -22.5l-11.5 -21l-18 -27t-17 -27q-4 -6 -12.5 -25l-15.5 -34q-4 -9 -3.5 -20.5t-3.5 -21.5q-2 -5 -5.5 -8 t-4.5 -6q-2 -8 -1 -21t-9 -19l12 2q-2 1 -3 1t-3 2q2 0 5.5 -2.5t4.5 -4.5q-2 -2 -5.5 -1t-9.5 -1q0 -9 -8 -18l2 -4q1 -2 -2 -4t-4 -5l2 -3q-5 -5 -4 -9.5t2 -9.5q2 -13 1.5 -32.5t1.5 -39.5q0 -5 -2 -8q2 -3 4 -6.5t4 -5.5q4 -5 15 -8q1 -6 3 -12t1 -14q1 2 -3 2 q-2 -2 -2 -1l-1 -3t0 -7t-1 -8q2 -1 3.5 -2.5t3.5 -2.5q3 -6 7.5 -12.5t11.5 -12.5q2 -2 6.5 -2.5t7.5 -2.5l4 3q0 2 -2.5 4t-4.5 4q7 -2 10.5 -5t5.5 -6q2 -4 3 -7q5 0 3.5 1t3.5 1q3 0 11 -5l15 -9q-3 -3 4 -9h6q2 2 2 4q0 1 2 3q1 -2 3.5 -3.5t4.5 -2.5h-5q-2 0 -6 -2 q7 -5 13 -5q5 0 7.5 0.5t6.5 -0.5q2 1 2 3q-4 4 -1 4.5t9.5 -0.5t14.5 -2.5t15 -1.5q5 0 3 -1t3 -1q20 0 35 1t29.5 4t31.5 9t42 17q0 6 -1.5 12.5t0.5 12.5q-4 1 -9.5 4.5t-9.5 3.5q-5 0 -5.5 -0.5t-2.5 -0.5q-2 3 -2.5 8t-0.5 8l4 65t10 66q1 3 5.5 18.5t9.5 27.5 q3 8 8 17.5t10 17.5q2 7 6 11q3 3 9 4.5t8 4.5l10.5 14.5t18 21t23 18.5t26.5 8q9 0 16 -5t7 -7q-3 -2 -7 -2q-3 0 -6 -2q-17 -14 -22 -23.5t-13 -21.5q-6 -10 -12 -23.5t-11 -26.5t-8 -22.5t-3 -10.5t-1.5 -9t-4 -20l-5 -25t-4.5 -25q0 -4 2 -8.5t2 -9.5q-2 -14 -4.5 -28 t-3.5 -28q-1 -9 4 -23q42 20 68.5 43l47.5 41q8 8 19.5 21.5t23.5 24.5q2 2 2 6q5 7 10.5 16l10.5 17q4 5 11.5 11.5t10.5 11.5q2 2 1 4.5t1 5.5q2 5 5.5 10.5l6.5 10.5q2 0 3 1t3 2q1 5 4.5 11t5.5 12q10 5 14 15.5t0 15.5q5 5 15 7q-1 8 -1.5 15.5t4.5 13.5q1 2 4 3.5 t5 3.5q3 3 4.5 8.5t2.5 8.5q1 2 3.5 14t2.5 23q1 3 -2 8t-1 8q2 5 5 10t4 10q1 2 -2 5t-2 6t3 4t3 3t0 4.5t1 5.5q2 4 6.5 7t5.5 6q0 1 -1 6t-2 11t-2 10.5t-1 6.5q2 5 12.5 9.5t13.5 5.5q-1 -14 -3 -33t-4.5 -37t-4.5 -31t-2 -14zM211 376q-1 -3 -4 -7t-7 -7.5l-7.5 -6.5 t-4.5 -3q1 3 4 8t5 8q3 3 0 8q3 5 8 7q2 0 4.5 -2t1.5 -5z" />
<glyph unicode="R" horiz-adv-x="658" d="M674 691q6 17 -9 26t-30 11q-3 0 -12.5 -1.5t-17.5 -0.5q-14 0 -25 1t-32 -4q-9 -2 -21.5 -1t-20.5 -1q-7 -2 -13 -2t-11 -1q-10 -3 -25 -6t-31 -7t-30 -9.5t-21 -13.5q-5 -5 -6.5 -12.5t-4.5 -12.5q1 -2 0.5 -3t0.5 -2q-1 -2 -2 -5.5t-2 -5.5q-5 -7 -10 -17t-7 -13 q-1 -2 -0.5 -4.5t0.5 -3.5q-3 -13 -9 -23q-5 -10 -8.5 -21t-8.5 -19h26q5 -1 4 -5t-3 -8q-1 -3 -2 -6.5t-4 -4.5t-9.5 -7t-13.5 -14t-12.5 -16.5t-7.5 -13.5q-1 -3 0 -10.5t1 -12.5q-1 -5 -5 -9t-6 -7q-4 -5 -4 -12t-2 -12q-3 -8 -4.5 -16.5t-6.5 -15.5q0 -1 2 -3l1 -1 q8 4 17 10t13 8q23 11 47 25l46.5 28l43 27l37.5 24q11 7 22.5 17.5t21.5 17.5l24.5 16.5t20.5 16.5l26 25.5t19 19.5q17 23 35 42t29 48zM760 707q-2 -2 -5 -11t-7 -14l-12 -14.5l-15 -17.5q-2 -2 -5 -7t-6 -9q-2 -2 -6 -3t-6 -4q-2 -2 -4.5 -7.5t-5.5 -7.5q-5 -3 -12 -6.5 t-13 -7.5q-3 -3 -5 -7t-5 -6l-6 -6t-8 -6q-8 -5 -18 -9.5t-19 -12.5q-3 -3 -6.5 -7.5t-8.5 -7.5l-18 -10.5t-16 -11.5q-8 -7 -18.5 -13t-20.5 -13l-11 -6.5t-12 -5.5q-2 -2 -3 -4q-19 -12 -42 -25t-34 -20q-12 -8 -23 -16.5t-24 -15.5q-5 -3 -12.5 -6.5l-13.5 -6.5 q-9 -4 -20.5 -10.5l-22.5 -13t-19 -12t-9 -6.5q0 -1 -3 -17.5t-6.5 -39.5t-7 -48.5t-6.5 -44.5q0 -2 1 -4t1 -4q-8 -23 -9.5 -47t-4.5 -48q0 -4 -2 -10l-4 -12q1 -1 1 -3t1 -3q1 -5 -1.5 -10t-2.5 -9q0 -7 1 -15.5l2 -17.5q0 -1 -2 -3t-2 -4q5 -23 12.5 -50.5t8.5 -53.5 l7 -28t5 -22q1 -2 6.5 -6t7.5 -8q3 -6 5.5 -13l5.5 -15q4 -7 3.5 -15t4.5 -16q2 -2 5.5 -4.5t5.5 -5.5v-4q5 -4 9.5 -9.5l8.5 -10.5l-2 -6l-7 1l-3 6t-4 6q-32 30 -48.5 64l-28.5 57q-2 4 -3 10t-2 11l-6 28l-8.5 38.5t-10 34t-9.5 14.5q-3 1 -8 -2l-10 -6q-2 -2 -1 -2.5 t0 -1.5t-2 -1t-1.5 -0.5t-1.5 -0.5q-2 12 -3 29l-2 33q-1 4 0.5 10t1.5 11t-2 12.5l-4 15.5q0 1 -1 1t-2 2q-3 -2 -3.5 -3t-2.5 -4q0 -1 -2.5 -10.5l-6 -22.5t-7 -27.5t-5.5 -26.5q-1 -5 -1 -11t-1 -9l-3.5 -9t-11.5 -8q-6 -2 -13 -2q-3 1 -8.5 3t-9.5 3q-1 3 -3 5t-2 4 q2 14 7.5 27.5l11.5 27.5q0 3 -2 7q3 18 6.5 34.5l7.5 36.5q2 8 1.5 17t1.5 18q8 28 18.5 56t19.5 57q-4 1 -8.5 3t-7.5 2q-15 -2 -27 -4q-11 -2 -21 -3.5t-14 -0.5q-12 2 -22.5 7t-7.5 13q1 3 13 9t18 10q14 8 29.5 19l30.5 21q1 0 4 1.5t6 1.5q8 5 12 9t11 9q2 2 8.5 4.5 t10.5 7.5q5 7 8.5 16t6.5 19q2 11 8 22q2 3 5.5 7.5t5.5 7.5q0 1 2 7.5t4.5 15.5t5 19t5.5 18q-1 0 -1 1v2q1 11 -1 22t3 24l6 11.5t8 14.5q2 4 8.5 7t7.5 6q1 2 2.5 18.5t0.5 28.5q0 7 -3.5 14t-13.5 9q-2 0 -11.5 -1t-21 -2.5t-21 -2.5t-11.5 -1q-3 1 -13 2t-14 2 q-3 0 -7 2.5t-8 4.5q-9 5 -12 18t-1 21q1 2 8.5 8.5t14.5 11.5q8 6 18.5 10.5t20.5 9.5q7 4 16 2.5t16 -1.5q3 0 7.5 0.5t8.5 0.5q4 -1 16 -6.5t16 -6.5q3 0 12 2.5t17 5.5q4 8 7.5 19.5t16.5 17.5q8 4 21.5 10t27.5 11q4 1 10.5 0.5t10.5 -1.5q11 -2 17 -15t7 -15 q14 2 32 5t35 5q28 3 62 3.5t61 4.5q34 5 59.5 2.5t49.5 -5.5q4 0 10 -6q9 -5 15.5 -10.5t10.5 -14.5q3 -7 8.5 -13t6.5 -14q0 -3 -2 -11t-3 -11z" />
<glyph unicode="S" horiz-adv-x="918" d="M800 20q2 12 1 19t-3 16q7 4 7 5q-3 2 -2 6.5t3 10t3.5 10t1.5 7.5q-5 21 -9 32l-3 -10q-1 -4 1 -4.5t1 -2.5q-2 -5 -4 -13.5t0 -13.5q1 -6 3 -10.5t0 -8.5q-1 -5 0 -4t-1 -1q0 6 -4.5 7t-7.5 2q4 -8 4 -14t5 -12q0 -2 -1.5 -4.5t-1.5 -4.5q2 -2 4 -6zM701 238q-2 9 -9 9 q1 -3 2.5 -5.5t1.5 -4.5h3q1 0 2 1zM727 231q-2 2 -5 4t-6 0q2 -2 4.5 -6t4.5 -6zM719 239q-1 4 -3 8t-2 9h-9q1 -3 3.5 -7.5t1.5 -9.5h9v0zM744 234h-8q0 -4 2 -7.5t3 -3.5zM280 -280q-6 -6 -12 -6q-3 0 -6.5 1.5t-8.5 1.5q-8 0 -21.5 0.5t-17.5 0.5q-3 0 -3.5 3.5 t-1.5 5.5q-5 1 -11 2t-10 1q-3 0 -3.5 -1.5t-3.5 -1.5q-4 0 -2.5 2.5t0.5 3.5q-10 -2 -13.5 3t-6.5 5t-4.5 -1t-4.5 -1t-10.5 3.5t-13.5 3.5q0 1 1 2q0 2 -1 2q-4 0 -2 -2.5t-1 -2.5t-6 8t-6 8q-4 0 -3.5 -2t-3.5 -2q-2 0 -7 2.5l-11.5 6t-13.5 6.5t-12 3q0 2 1 4t-1 4 q-2 1 -6 0.5t-6 0.5t-3.5 4.5t-3.5 5.5q0 1 -3 0.5t-5 1.5t-3 7.5t-5 8.5q-3 2 -7.5 3t-7.5 3q-7 6 -12.5 15l-9.5 16q-6 13 -12.5 24.5t-1.5 25.5h-9l2 8q3 2 7 6.5t6 7.5q3 -3 8 -3q-6 -14 -3 -24.5t9 -20.5q3 -6 5.5 -15.5t5.5 -17.5q5 2 9 -4t9 -11q6 -6 16 -8 q1 -1 2 -4.5t3 -5.5q8 -8 20.5 -18t15.5 -10q4 0 2.5 1t1.5 1t13.5 -7.5t20.5 -11.5q4 -1 9 -0.5t9 -1.5q1 0 3 -2.5t4 -4.5t5.5 -1.5t7.5 -0.5q3 -1 4.5 -2.5t3.5 -2.5q3 -2 9.5 -1t11.5 -1q23 -2 47 -9.5zM701 -215q-3 -2 -7 -3.5t-8 -3.5q-8 -3 -18 -11.5t-20 -13.5 q-4 -2 -10 -2q-5 0 -9 -2q-26 -14 -59.5 -22t-59.5 -12q-5 -1 -17.5 -4.5t-15.5 -3.5q-2 0 -23.5 -0.5t-47.5 -0.5q-25 0 -47 -0.5t-23 -0.5q-3 0 -3.5 1.5t-2.5 3.5q-14 -6 -25 -2t-21 6q0 2 2 5.5t5 3.5q4 0 4.5 -2.5t4.5 -2.5q3 0 3.5 2.5t3.5 2.5q4 0 4 -2q0 -3 3 -3 h167q4 0 4.5 1t2.5 3q14 2 27 3t29 5l40 10t40 13q19 8 36.5 17.5l37.5 19.5l3 -5v0zM794 -108q-2 -4 -12.5 -21t-18.5 -28q-9 -12 -21 -23l-25 -23l4 15l4 3q2 2 2 5v3q2 1 5.5 4l8.5 7q8 5 17.5 18.5t13.5 26.5q11 1 13.5 12.5l4.5 20.5q1 -5 3 -10.5t1 -9.5zM833 35 q-2 -5 -3.5 -4t-3.5 -1q-3 -8 -4.5 -18t-3.5 -18q-3 -5 -10 -9l-2 -9q1 -2 2.5 -1.5t3.5 0.5l-3 -11q-2 0 -4 1t-3 -3q-1 -5 2.5 -10t1.5 -10q-1 -4 -6 -10t-7 -11q1 4 2 9t1 10q0 9 -1 18.5t1 17.5q0 2 -2 4l-4 4q-3 8 -1 17.5t3 17.5q1 7 -3.5 17t-6.5 23q-2 6 -3 16 t-1 18q3 3 3 4q-2 16 -7 36t-11 32q-2 4 -6.5 6t-8.5 7q-2 -2 -1.5 -1t-1.5 -4q-1 -3 1 -8t2 -9q-2 1 -4 4.5t-4 8.5q-2 3 -1 8.5t-1 9.5q-1 2 -4 4t-5 6q2 8 1 12t-3 9q-2 -2 -2 -3t-1 -3q-5 0 -5 9q-5 -5 -6 -7t-1 -7q-1 3 -3.5 6t-3.5 8q0 2 -2.5 2.5t-4.5 2.5q4 4 3 10 q-2 -2 -2 -3t-1 -3q-6 5 -11.5 11.5t-8.5 15.5l-1 -1q-2 -2 -2 -4q-15 17 -38 38q-2 2 -5 2q-2 0 -4 2q-4 4 -3.5 6t-4.5 2t-7 -3.5t-7 -5.5q-7 -2 -18 -8.5t-22 -10.5q-2 -1 -2 -3q0 -1 -2 -2q-8 -4 -16 -7.5t-15 -7.5l-33.5 -20.5t-28.5 -11.5q-1 0 -2.5 -2.5t-5.5 -4.5 q-13 -6 -31.5 -12.5t-34.5 -14.5q-2 -1 -5.5 -4.5t-6.5 -3.5t-1.5 2.5t-1.5 2.5t-6.5 -5.5t-5.5 -6.5q-5 -2 -11 -3.5t-10 -3.5q-8 -4 -20 -12t-16 -8q-3 0 -1 1.5t-2 1.5q-3 0 -9.5 -6l-11.5 -11q9 -12 21 -12t22 -8l-3 -13q-16 -11 -31.5 -17t-32.5 -6q-5 0 -10.5 2 t-10.5 4l-10 6q-4 0 -3.5 -2.5t-3.5 -2.5q-3 0 -7 4.5t-7 9.5l3 13q3 -1 6.5 -0.5t6.5 1.5q11 13 25 25.5t28 17.5q12 4 29 10.5t35.5 14.5l37.5 16t36 16q8 3 18.5 6.5t18.5 5.5l5 5t6 5q8 5 15.5 7.5t15.5 7.5q5 3 12 9t14 10q6 3 16 10l20.5 14.5l21 15l17.5 12.5l-4 8 t-5 6q-12 7 -17 13l-8 9.5t-6 5.5t-12 2q-11 0 -17 -5t-22 -7q-2 -2 -3.5 -3t-3.5 -3q-4 0 -8.5 -0.5t-10.5 -2.5q-2 -2 -3.5 -4t-3.5 -4q-9 -5 -23 -9t-28 -11q-3 -2 -7 -1t-8 -1q-8 -2 -18.5 -8.5t-18.5 -10.5q-3 -2 -9 -2t-10 -1l-4 -4t-3 -4q-20 -8 -48 -21.5t-51 -27.5 q-17 -9 -39.5 -24t-53.5 -32q-2 -1 -4 -4.5t-5 -5.5q-6 -4 -13 -6.5t-12 -5.5q-11 -6 -21.5 -15.5t-24.5 -18.5q-2 -2 -2.5 -4t-1.5 -4q-5 -4 -14 -14t-15 -12q-4 -5 -12.5 -13t-13.5 -15q-11 -17 -20 -38.5t-20 -43.5q3 -2 4 -8t0 -13l-2 -14t-1 -11q-2 -2 -4 -2.5t-4 -2.5 q-2 4 -3 12.5t-0.5 18t1.5 19t3 15.5q3 8 11 14q-5 3 -4 6.5t3 8t3 9.5t-3 9q-4 -5 -5 -4t-7 0q-2 -9 -2.5 -12.5t-1.5 -11.5q-2 2 -3 6.5t0 9.5q2 10 7 14l9 7q1 2 0 3t0 3q9 15 23 32.5t30 34t32.5 31.5t31.5 26l15 10.5t14 11.5q11 7 30 21t36 24q2 2 6 2q5 0 7 2 q8 5 14 10t13 9q11 7 27 12.5t31 13.5q8 4 17 10.5t17 8.5q5 2 11 3t11 3t13.5 7t15.5 7q19 6 39 15t38 15q24 8 48 9.5t50 8.5l-35.5 53t-24.5 68q-1 2 -2.5 6l-3.5 9q-6 25 -2 42.5t9 37.5l6.5 25t10 27.5t17.5 31t30 35.5q2 1 4.5 1.5t5.5 2.5l14 14t20 16q4 3 8 5.5 l9 5.5q15 11 31 20.5t31 13.5q19 4 27 6.5l12.5 4t7.5 1.5h15q24 0 35 -4.5t22 -23.5q2 -3 2.5 -9t-0.5 -11q0 -3 4 -9q1 -2 -0.5 -8t-1.5 -9q2 -12 2 -17t-3 -16q-6 -25 -22 -43.5t-35 -18.5q-3 0 -9 0.5t-8 2.5l-4.5 4.5t-2.5 5.5q-1 14 1 30.5t1 33.5q-10 10 -12 9.5 t-6 -0.5q-3 0 -17.5 -2t-24.5 -5q-11 -4 -22.5 -10.5l-22.5 -12.5q-2 -1 -3.5 -4.5t-3.5 -5.5l-19.5 -17t-15.5 -19l-4.5 -7t-3.5 -8q-2 -5 -1 -5q2 0 2 -2q-7 -24 -5.5 -47t9 -45t19 -42.5t23.5 -38.5q4 -6 7.5 -16.5t8.5 -19.5q2 -4 5 -6.5t5 -5.5q11 -2 27 -1.5t19 0.5 q4 0 10.5 -1t14.5 -1l-2 -11q-2 -4 -11 -14t-16 -21q4 -3 7 -9.5t7 -11.5q8 -11 19 -21t16 -20q3 -5 9.5 -11.5t10.5 -13.5h4t3 -1q7 -20 18.5 -39l17.5 -29q5 -7 10.5 -19t7.5 -25q1 -3 -2 -8.5t-2 -9.5q2 2 2.5 5.5t1.5 5.5q3 -1 6 -6t5 -10q1 -5 4.5 -18.5t6.5 -28.5 t4.5 -29t0.5 -21zM757 140q-2 2 -5 5.5t-1 9.5q0 -3 2 -7z" />
<glyph unicode="T" horiz-adv-x="658" d="M496 350q0 7 -1 17t-10 12q-3 1 -12 0t-14 -1q9 -8 18.5 -14.5t18.5 -13.5zM505 410q-2 2 -1.5 6t-0.5 6l-6 2q-4 -3 -8 -6.5t-4 -5.5q5 -1 10 -1q6 0 10 -1zM397 -292q-1 -2 -4 -6.5l-5 -7.5q-1 -2 -3.5 -8t-6.5 -12.5t-9.5 -11t-11.5 -3.5q-2 1 -7 5.5t-9 5.5 q1 1 2.5 3t2.5 4q1 1 2 7.5t2.5 13l3 12.5t2.5 8l10 23q3 -3 0 -7q2 0 4 -4q1 0 2 2t4 9l10 22.5l19 42.5q-1 2 -1 4q0 1 -1 2q2 4 2.5 9t2.5 9q6 12 11.5 26t5.5 24q0 2 3 5t4 5q3 12 7.5 25.5l9.5 27.5q2 5 2 11q0 5 2 10q2 8 6.5 17t5.5 16q2 17 7 28.5t8 23.5 q3 10 5.5 21t4.5 24q1 3 0 8t1 10q2 9 6.5 19t6.5 21q3 16 4.5 32t3.5 30q0 2 2 5t2 7q1 4 0 8.5t-1 9.5q0 1 1.5 3.5t0.5 4.5q-1 4 -2.5 11t-3.5 14t-4.5 12.5t-4.5 5.5q-3 1 -2.5 0t-0.5 -2q-2 14 -13 28l-18 23l-11 10.5l-11 10.5q-8 7 -22.5 16t-17.5 10q-3 0 -13 -1 t-16 -1q-10 1 -21.5 3t-22.5 -1q-2 -1 -5.5 1t-8.5 1q-13 -2 -27 -4.5t-26 -6.5q0 -5 5 -10q8 -8 16 -14t16 -11q0 -4 4 -5q3 -2 7.5 -3.5t7.5 -3.5q0 -1 -0.5 -2t0.5 -3l-2 -5q-5 4 -14.5 7.5t-12.5 4.5t-3.5 0t-3.5 0t-5.5 4t-5.5 5t-8 2q-4 0 -7 2q-7 4 -18.5 12.5 t-12.5 16.5q-1 4 -2 10.5t1 8.5q2 5 11 9t20 7t21.5 5.5t16.5 4.5q7 2 10.5 -1t11.5 4q-4 1 -8.5 1.5t-7.5 2.5q-2 1 -6 1t-8 1q-6 2 -16 4q-9 2 -21.5 5.5t-23.5 5.5q-2 1 -2 2q0 2 -3 3t-5 -0.5t-5 -0.5t-13.5 4l-17.5 5q-9 3 -22.5 5t-16.5 3t-13 6.5t-13 6.5 q-3 0 -5.5 -0.5t-5.5 0.5t-6 5t-6 6q-4 2 -13.5 3.5t-17.5 5.5q-1 1 -2 3l-2 4q-2 1 -5.5 2t-5.5 3q-5 6 -12.5 16.5l-14.5 20.5q-2 2 -1 3.5t1 2.5q-1 2 -4 5q0 3 -1.5 8t-0.5 9q1 7 3 16t4 12q3 8 12 15t20.5 11.5t23.5 6t21 -0.5q5 -1 11.5 -5t12 -9t8 -11.5t-0.5 -13.5 q-3 -5 -9 -8t-13 -5t-12.5 -2.5t-6.5 -1.5q-5 -6 -3.5 -13.5t6.5 -14.5t11 -12t10 -6q9 -11 28 -20l35 -17q2 -2 8 -2.5t10 -2.5q5 -2 8.5 -5t8.5 -5q14 -5 30.5 -8t32.5 -8l23 -9t16 -6q1 0 9.5 -2l17.5 -4t17 -4t9 -2q3 -1 12 -3t16 -3q3 0 7 1t9 3q2 0 4.5 -1t4.5 0 q2 0 4 1.5t4 1.5q6 2 15.5 2.5t15.5 3.5q4 1 8 3.5t8 4.5q3 2 8.5 2.5t9.5 2.5q2 1 3.5 3t3.5 3q8 5 21 11t24 14l9 6t7 6t-1 6.5t-2 6.5q1 5 3.5 12.5t3.5 14.5q1 5 0 9.5t1 8.5q4 16 7.5 36t10.5 38q1 2 -0.5 5.5t0.5 7.5q2 8 6 16t4 17q0 8 1 12.5t3 11.5q0 1 -1 3t-1 4 q0 1 2 3t2 4q1 9 0.5 18t-0.5 17q-1 7 -6 10t-9 8q6 14 4.5 27.5t0.5 23.5q2 9 4.5 27t7.5 32q2 3 3 7t3 7q5 11 9 15.5t24 13.5q2 0 4.5 -1t5.5 -1q4 1 7.5 3t6.5 1t6.5 -2.5t5.5 -3.5q6 -7 12 -15.5t11 -17.5q2 -2 4 -8t4 -10q2 -2 0 -5t-1 -5q0 -6 2 -14.5t2 -16.5 q1 -9 3.5 -18t4.5 -18q1 -2 -0.5 -5.5t-1.5 -5.5q0 -1 2.5 -3.5t2.5 -4.5q-1 -19 -0.5 -39.5t11.5 -34.5q-4 -13 -15.5 -24t-28.5 -7q-3 1 -8.5 8t-5.5 13q0 3 4 9t4 12q1 2 -0.5 5t-1.5 6q0 2 2 5.5t2 7.5q1 6 1.5 12t0.5 12t-0.5 15t-1.5 16q-1 5 -3 10.5l-4 11.5 q-1 2 -1 6v8q0 6 -2.5 7t-6.5 6q-2 -2 -2.5 -4t-2.5 -4q0 -2 -1.5 -7.5t-4 -13l-5 -15.5l-4.5 -14q-6 -17 -14.5 -36t-15.5 -37q1 -2 2 -2t1 -1q-6 -15 -9 -30l-6 -29q-3 -18 -10 -38.5t-9 -36.5q-2 -12 -5.5 -26.5t-5.5 -28.5v-1q0 -1 1 -1h2q3 0 9 3.5t10 6.5q2 2 4.5 7.5 t4.5 7.5q14 13 28.5 24.5l29.5 24.5q2 -2 5.5 -3t5.5 -3q1 -6 -1.5 -14.5t-4.5 -11.5q-1 -2 -7 -12t-10 -16q-1 -2 -4 -3t-5 -3t-3.5 -5.5t-3.5 -6.5q-1 -1 -4.5 -2.5t-6.5 -3.5q-2 -2 -4 -5l-4 -6q-1 -1 -3 -1.5t-4 -1.5q-5 -6 -13.5 -14.5t-10.5 -11.5q-5 -10 -6 -20 t-2 -17q-2 -10 -7.5 -20t-1.5 -20q1 -1 6.5 -3t11 -5t9.5 -7.5t1 -10.5q-2 -3 -7 -5t-8 -1l-11 4l-4 -8q0 -1 -2 -9t-4 -19l-4.5 -24t-5.5 -23q-1 -2 -3 -6.5t-5 -7.5l2 -3h1h5q-1 -5 -5 -10t-5 -10q-1 -3 0 -7.5t1 -6.5t-2 -5.5t-2 -5.5q0 -8 0.5 -20t-1.5 -21 q-2 -5 -4.5 -14t-4.5 -17l-6 -26.5t-8 -26.5q-10 -11 -13.5 -31t-7.5 -37l-4.5 -11t-3.5 -12q0 -1 2 -3t1 -4q-3 -11 -9 -23t-10 -25q0 -2 1 -7.5t-1 -10.5t-5.5 -11.5t-1.5 -11.5q-4 -8 -5 -16t-3 -11q-1 -2 -7 -7.5t-7 -7.5q-2 -2 -1 -7.5t-1 -8.5q-2 -5 -3.5 -12 t-3.5 -13t-2.5 -13t-2.5 -15t-8 -17.5t-7 -18.5t-4.5 -22t-9.5 -26zM446 33q1 -1 0.5 -3t-3.5 -2zM472 132q-2 0 -4 2t-1 4q2 3 4.5 6t3.5 5q-2 -4 -1.5 -8.5t-1.5 -8.5zM475 154q-1 11 1.5 22t6.5 21q2 5 0.5 12t0.5 10l4 3q1 -8 0 -18t-3 -18q-2 -5 -5 -14.5t-5 -17.5z M492 236q0 -1 -1 -1h-4l4 11q-1 -2 0 -5t1 -5zM492 254q0 1 -1.5 2.5t-1.5 3.5q2 6 4.5 14.5t4.5 16.5v-20q0 -11 -2 -14zM588 529h-3q-2 3 2.5 9.5t2.5 10.5q2 -5 6 -5l-6 -15h-2zM623 687q-4 0 -4 4q1 2 0.5 4.5t0.5 4.5q2 3 4.5 2.5t3.5 -0.5q-2 -3 -3.5 -5t1.5 -3l-3 -7 v0z" />
<glyph unicode="U" horiz-adv-x="829" d="M297 43q-2 -29 -2.5 -55t7.5 -50v-4t1 -5q2 -4 3 -7q6 -4 16 -6q24 3 46 22l41 37q61 70 114 144t95 153q0 8 4 15t8.5 13.5t7.5 13.5t2 16l11 12q21 39 39 79.5t29 85.5q9 12 12.5 25.5l7 28t9 27.5t16.5 23q10 4 19 13.5t17 17t16 10.5t17 -5q-1 -17 -8.5 -32 l-15.5 -32q-6 -5 -3 -8.5t0 -8.5q-13 -30 -18.5 -58.5t-17.5 -56.5q-6 -29 -15 -57.5l-17.5 -57t-15.5 -56.5t-10 -56q-12 -24 -17 -54t-21 -55q-5 -21 -12.5 -44.5t-12 -46.5t-3.5 -43.5t15 -36.5q6 -2 11.5 -6t7.5 -11l-18.5 -18t-19.5 -16t-20.5 -10t-22.5 -1 q-8 21 -12.5 42.5t-4.5 44.5q5 18 9 34.5l8 33.5q-6 -6 -10.5 -11t-5.5 -7q-2 -3 -6 -8.5t-9 -10.5q-15 -15 -39.5 -37.5t-53.5 -40.5q-5 -3 -10.5 -9t-11.5 -8q-17 -8 -39 -20t-36 -13q-3 -1 -9 -3.5l-11 -4.5t-10.5 -1.5t-8.5 0.5q-2 1 -15 5t-21 9q-5 3 -10 9t-10 14 q-4 2 -7 6.5t-8 6.5q-11 34 -6.5 73t14.5 79q8 31 14 61t15 59l21 69q1 3 5.5 12.5t6.5 16.5q4 18 11 37t15 37t16 34t13 28q2 4 4 11t4 12q2 3 5 8t5 10q4 7 5.5 14t5.5 13q-1 -2 3.5 -1.5t9.5 1.5q4 11 7 21.5t4 21.5l19 57.5t20 57.5q-3 8 -1.5 18t2 20t-1.5 18.5 t-11 13.5q-23 0 -43.5 -7.5t-41 -18.5t-40 -24t-38.5 -23q-31 -28 -66.5 -51t-65.5 -55q-23 -9 -41.5 -22.5t-35 -29.5t-32.5 -34l-32 -36q-2 -8 -9.5 -15.5t-15.5 -12.5q-6 1 -11 -2.5l-9.5 -6.5t-9 -4t-8.5 5q-9 -4 -12 -1t-3 8t1 11.5t0 9.5q3 4 4 10t-1 10 q9 17 23.5 31.5t27.5 30.5q14 4 27.5 14t27.5 19q35 22 74 51.5t77 49.5q6 2 7.5 8t8.5 3l89 60t92 53q30 22 63.5 33.5t67.5 5.5l8 -6q5 -14 4.5 -32t1.5 -35q-23 -78 -52.5 -154t-64.5 -149q-7 -29 -20 -53.5t-20 -52.5q-8 -9 -13 -18.5t-9 -20l-8 -21t-11 -19.5 q1 -7 -1 -13t-5 -12t-5 -11.5t0 -11.5q-7 -2 -9 -5.5t-3 -8t-1.5 -9.5t-4.5 -8q-12 -26 -21.5 -51t-16.5 -51zM333 -108l2 -2q5 -2 11.5 -3.5t8.5 -2.5l13 -1q1 0 7.5 1t15 3t18 5.5t16.5 7.5q18 10 36.5 22.5t39.5 30.5q14 11 26.5 23.5l25.5 24.5l12.5 13t13.5 16 q2 3 5.5 7.5l8.5 11.5q1 2 2.5 6t3.5 8q2 2 4 3.5t3 3.5l1 1q3 14 6.5 28.5t7.5 29.5q-2 10 -8.5 4t-11.5 -7q-35 -43 -66 -87.5t-69 -86.5q-26 -29 -62 -45.5t-71 -14.5z" />
<glyph unicode="V" horiz-adv-x="456" d="M571 741q-1 -3 -5 -13.5t-6 -17.5q-1 -2 -3 -4.5t-4 -6.5q-2 -3 -1.5 -7.5t-1.5 -7.5l-7 -19.5t-9 -22.5l-8.5 -20t-7.5 -21q-2 -8 -7.5 -19t-8.5 -19q-1 -3 -1 -8q0 -4 -2 -7q-2 -6 -5.5 -13.5t-6.5 -15.5q-6 -16 -10.5 -32t-12.5 -32q-2 -3 -5.5 -7t-5.5 -9 q-3 -7 -8.5 -18t-11.5 -16q-1 -2 -0.5 -4.5t-1.5 -6.5q-2 -2 -5 -4.5t-6 -5.5v-9q0 -3 -1 -8l-6 -6t-5 -8q-4 -12 -7 -27t-7 -26q-3 -8 -9 -18.5t-5 -18.5q-1 -1 -2.5 -2t-2.5 -3q-2 -5 -2 -11q0 -5 -2 -12t-6 -15t-6 -16q-1 -1 -2 -1t-3 -2q-2 -14 -10 -28.5t-13 -29.5 q-3 -8 -4.5 -18t-4.5 -18q-1 -4 -3.5 -8t-4.5 -9l-15.5 -50l-15.5 -51q-4 -11 -6 -25.5t-7 -28.5l-10 -33t-10 -37l-5 -10t-4 -9t0 -12.5t0 -16.5q0 -4 -2 -10t-4 -11q-1 -8 -0.5 -16.5t-1.5 -16.5q-1 -5 -3 -11t-4 -13q-1 -2 0 -4t1 -6t-3 -10t-4 -11q-2 -6 -2 -12 q0 -7 -1 -13q-1 -4 0.5 -8t-0.5 -9q-2 -9 -5 -21t-3 -21q0 -3 1 -6t0 -7q-1 -3 -3 -7.5t-5 -9.5l-5.5 -9t-3.5 -5q-2 -2 -5.5 -5t-8.5 -4q-7 -2 -16.5 -3t-18.5 -3q-3 -1 -10.5 -4t-10.5 -3q-4 0 -7 3q-2 2 -5 0.5t-6 -1.5q-5 0 -9 7.5t-3 13.5q1 3 6.5 15t8.5 20l9.5 29.5 l11 33.5l9.5 28t4 14l-1 8.5t-3 19t-3.5 21t-2.5 15.5t0.5 13.5t0.5 16.5q-2 15 -2 27t-1 23q-2 18 -6.5 36t-6.5 36q-5 36 -10 67.5t-4 64.5q1 7 -1 20t-4 24q0 1 1 4.5t1 5.5q-2 9 -3 20.5t4 22.5q-1 1 -3 1.5t-3 4.5l-2 23t0 25q1 6 2 16t4 18q-2 4 -2 6q3 28 5.5 55 t2.5 50q0 11 4 34t6 40q1 15 1.5 35t0.5 39v32v16q1 4 4 11.5l6 14.5q10 6 17 13.5l13.5 14.5t13.5 11.5t16 4.5q6 0 9 -3t5 -8t3.5 -12.5t5.5 -16.5q0 -5 -2.5 -11t-1.5 -10q1 -5 3 -11.5t3 -11.5q1 -3 -2.5 -10t-3.5 -12q1 -23 -3.5 -38.5t-7.5 -32.5l-8 -47.5t-6 -46.5 q-1 -7 1 -17.5t0 -21.5q-13 -77 -7 -155q1 -12 0 -30t1 -31t5.5 -32.5t5.5 -36.5q0 -5 2 -21.5l4 -34.5t4.5 -32t4.5 -14q5 0 11.5 9t12.5 20t10.5 21t5.5 13t2 14.5t3 21.5q1 7 3.5 15.5t4.5 16.5q0 2 -1 2t0 4t6.5 18.5l10.5 28.5q2 8 5 18t5 19q0 3 -0.5 7t1.5 8 q1 4 6 11t7 14q7 18 13.5 42t14.5 47q2 4 6 8.5t7 10.5q6 12 8.5 26t6.5 28q1 2 4 4t5 5t2 6t2 6q2 4 5.5 9t5.5 10l8.5 26.5l8.5 26.5h5q3 0 5 -2l-5 -12l-5 -12q-2 -8 -2.5 -17t-3.5 -17q-2 -5 -6.5 -12t-6.5 -13q-2 -4 -2 -10t-2 -11l-6 -17.5l-8.5 -24t-9.5 -25 t-8 -21.5q-2 -3 -1.5 -6t0.5 -6q-2 -11 -3.5 -16t-3 -7.5t-3 -4.5t-2.5 -6q-2 -8 -5 -18l-6 -19.5t-5 -16.5t-2 -9q-1 -4 -0.5 -6.5t-0.5 -5.5q0 -14 -3.5 -25t-0.5 -23q8 16 17 41.5t17 43.5q8 20 14.5 42t14.5 44q2 5 5 9.5t5 9.5q4 13 6 25.5t7 25.5q3 7 9 19.5t8 22.5 q2 2 3 2q2 0 4 2l2 4t2 5q2 10 -1 14q0 3 2.5 7t3.5 7q1 5 1.5 13.5t2.5 16.5q0 2 -1 4.5t0 5.5q3 13 6.5 31.5l6.5 35t5.5 29t3.5 14.5q1 4 6 22l9 32q2 8 3.5 16t4.5 16q4 11 10 23t10 25q5 17 17 38.5t20 40.5q10 8 21.5 21t19.5 13q6 0 9 -6q2 -5 2 -11t1 -13 q0 -5 -2 -11.5l-4 -12.5q-1 -3 0 -5.5t-1 -7.5z" />
<glyph unicode="W" horiz-adv-x="649" d="M313 -34q-2 2 -4 4.5t-4 2.5l-2 -8q3 -5 8 -8zM388 -335q-1 -3 -3 -14t-5 -17q-2 -3 -8 -8t-11 -8q-3 -2 -7 -2t-7 -1q-5 -2 -12 -6t-14 -6q1 2 -6 11v3v6q-2 4 -5 9t-4 9q0 5 1 12t1 12q-1 6 -4.5 14t-5.5 14q-1 6 -3 13.5t-4 13.5q-1 2 0.5 5t1.5 6q-18 7 -16.5 19 t1.5 29q0 16 1.5 39.5t4 45t5 37.5t2.5 18q2 5 3 8t8 6q0 4 -2.5 9.5t-2.5 11.5q0 9 1 27.5t7 32.5q5 -7 3 -12q2 -5 3.5 -10.5t3.5 -10.5q2 0 1.5 -1t0.5 3q1 2 0.5 11.5t-2 20t-3.5 18.5t-3 8l-5 -2q1 3 3.5 7t3.5 8q1 3 -2 12l-5 15q-2 -4 -4 -10.5t-5 -14.5l-6 -18 l-8.5 -26t-10 -28t-10.5 -23q-2 -3 -4 -11.5t-5 -18.5l-6 -20t-5 -15q-8 -17 -16.5 -42t-19.5 -44q-3 -6 -8.5 -8t-11 -2.5t-11.5 -1.5t-11 -6q-3 -11 -6 -23.5t-4 -22.5q-1 -5 1.5 -12t4.5 -15q1 -6 -0.5 -16t-3.5 -14q-2 -11 -4.5 -17t-14.5 -17q2 -2 5 -2q-2 -4 -4.5 -8 l-5.5 -9q3 -12 -1 -21.5t-11.5 -16t-16.5 -10.5t-16 -4q-3 0 -8.5 2.5t-8.5 4.5q1 20 8 44.5t10 46.5q0 3 -1.5 6t-1.5 7q0 6 2 17.5t4 25.5l4 28.5t3 25.5q1 8 1 20v20q0 5 -1.5 10t-0.5 12q0 8 2 17t2 17q-1 14 -3.5 37t-3.5 44q-1 8 1 19.5t1 20.5q-2 14 -3.5 28t-2.5 28 q0 4 1.5 8t1.5 9v11q0 7 1 14q0 2 -0.5 4t-1.5 2q0 39 2 85.5t1 89.5q-1 22 -2.5 49t-1.5 56q0 13 1.5 32t2.5 30q1 20 1 39q0 20 7 48l5 15.5t8 20.5q2 4 6.5 7.5t6.5 6.5q11 16 24.5 26t24.5 10q4 0 9 -3t9 -7t6.5 -8t2.5 -5q-1 -6 1 -12t0 -14l-11 -41t-7 -45 q0 -1 -2 -3.5t-3 -5.5q-1 -17 -1.5 -38t-0.5 -38q0 -5 -5 -10q2 -8 1.5 -16.5t0.5 -16.5q-3 -3 -3 -7q-2 -19 -2 -47q0 -27 -5 -55q0 -3 1.5 -6.5t1.5 -6.5q-2 -19 -3 -41.5t0 -42.5q1 -7 -1.5 -19.5t-2.5 -20.5l2 -38.5t1 -37.5q0 -5 -2 -13.5t-1 -16.5q1 -12 2 -25.5 t0 -25.5q-1 -17 0 -33.5t-1 -33.5q2 0 4 -4q8 5 16 12.5t14 16.5q2 3 3.5 9t6.5 11q13 13 17 25.5t12 29.5q6 13 10.5 30.5t9.5 31.5q2 5 8 11t9 11q2 4 3 10t3 11q1 3 3.5 6t3.5 6q2 5 4 14t1 16q0 4 2 8q5 8 9.5 17l9.5 19q2 7 4 15l4 16q3 1 5 6q3 29 17.5 53.5 l28.5 47.5q2 3 8 7.5t9 8.5q12 16 32 33q8 -2 18 2q4 -2 3.5 -6t-1.5 -7q-2 -8 2 -19.5t3 -14.5t-6 -11t-7 -14q-6 -23 -15 -46.5t-15 -42.5q-1 -2 -2.5 -3.5t-2.5 -4.5q0 -2 -1.5 -9.5t-3 -18l-3 -22t-3.5 -19.5q-2 -12 -6 -29t-6 -29q-3 -21 -7 -46.5t-8 -48.5 q-2 -7 -4 -15t-5 -15q-1 -8 0 -17t0 -17q-2 -15 -4.5 -28t-1.5 -26q0 -8 -3 -21.5t-5 -25.5v-29q1 -9 3 -19t4 -19q0 -2 -1 -5.5t-1 -5.5q1 -4 3.5 -9.5t1.5 -10.5q-2 -16 -0.5 -21.5t3.5 -14.5q7 2 8 7t3 12q0 2 1.5 11t2.5 19.5t2.5 19t1.5 10.5q4 16 8 19.5t7 14.5l-2 2 q0 2 1 4l2 4q-1 1 -2.5 4.5t-0.5 6.5q1 4 10 16.5t11 16.5q1 3 -2.5 12.5t-2.5 13.5q2 3 8.5 19.5t9.5 30.5q9 -2 19 3l3.5 -3.5t0.5 -5.5q-1 -3 -3.5 -6t-3.5 -6q-2 -5 -2 -10q0 -6 -2 -12q-1 -2 -3 -5l-4 -6q-1 -2 -0.5 -5t-0.5 -6h-2q-1 -4 0.5 -4.5t0.5 -2.5h-1l-2 -2 v-2l-1 -1q4 -8 7 -11q-1 -5 -3.5 -10t-1.5 -10q-6 -17 -12 -36.5t-8 -36.5q-1 -3 1.5 -5.5t1.5 -5.5l-4 -16.5t-3 -16.5q-1 -3 1 -5.5t2 -5.5q1 -3 -1.5 -9t-5.5 -11q0 -3 0.5 -5t-0.5 -5zM554 336q-2 -1 -4 -3.5t-4 -4.5t-1 -5.5t2 -7.5q0 -2 -2 -6.5t-4 -7.5l-5 -14.5 l-6 -16.5q-1 0 -1 -1q-1 -1 -1 -2l-1 -1q-3 -11 -3 -22q0 -4 -2.5 -10t-5.5 -11l-5 -12t-4 -12q-2 -7 -2.5 -15t-3.5 -16l-6.5 -12.5t-5.5 -14.5t-1.5 -15.5t-3.5 -14.5q-2 -3 -4.5 -3.5t-3.5 -4.5q-1 -3 0.5 -5t0.5 -5q-2 -5 -1.5 -11t-0.5 -10q-1 -3 -4.5 -10.5 l-7.5 -15.5q0 -7 0.5 -13t-8.5 -15q-1 -5 -1.5 -11.5t-3.5 -12.5q-2 -5 -3.5 -11t-3.5 -11q-2 0 -4 2.5t-1 5.5q3 11 5 23t5 23q2 4 5.5 8.5t3.5 9.5q0 2 -0.5 13.5t1.5 17.5q1 3 5 10.5t7 11.5q2 8 3.5 16.5t1.5 16.5q3 3 5 7q7 20 12.5 44.5t13.5 45.5q2 6 4.5 14.5 t4.5 16.5q2 4 3 5q5 15 9 31.5t8 30.5q1 3 3 6t3 5l10 5l3 -5v0zM764 760q-1 -3 -5 -8.5t-9 -9.5q3 -8 4 -8q2 0 0 -6t-5 -8.5t-9 -10.5q1 -3 -0.5 -7t-3.5 -8q-1 -2 -4 -3.5t-5 -4.5q-2 -2 -3.5 -6.5t-3.5 -7.5q-5 -8 -11 -16.5l-12 -16.5q0 -1 0.5 -3t0.5 -4 q-3 -6 -11.5 -17t-11.5 -16l-7 -14t-8 -15q-1 -2 -3.5 -4t-4.5 -4q-6 -9 -14 -24l-16 -30q-4 -8 -7.5 -17.5l-6.5 -17.5h-1l-1 -2q-1 -5 -6 -14.5t-12 -14.5l2 -2q0 -2 -1 -6t-3 -6l1 -2q-1 -3 -1.5 -7t-2.5 -8q-2 0 -3 -2t-3 -4q-3 -5 -4 -12t-3 -13q-2 -7 -6.5 -15 t-7.5 -15l-9 -2l7 26q0 1 4 12l9.5 25l11.5 29.5t10 27.5q0 7 4 17l8 21q2 5 3.5 11.5t3.5 12.5q0 2 -1 2t-2 2q5 2 6 7.5t4 10.5q2 3 5.5 6.5t5.5 8.5q6 8 8 21t7 24q2 5 10 18.5t12 21.5q7 14 16 29.5t17 31.5q2 4 3.5 11t5.5 14q-2 11 5.5 26t24.5 27q2 1 6 0t7 -1 q1 0 3 2t5 2t5.5 -5.5t2.5 -9.5q0 -5 0.5 -10t-0.5 -9z" />
<glyph unicode="X" horiz-adv-x="422" d="M505 784q0 -1 -3 -7.5l-6.5 -14.5l-7.5 -17.5l-7 -16.5l-34 -77l-35 -78q-2 -4 -6 -9t-7 -10q-6 -11 -8.5 -23t-9.5 -24l-16 -27l-16 -26q-8 -14 -21.5 -34.5t-24.5 -35.5q-1 -1 -0.5 -2.5t-0.5 -3.5q-4 -4 -7.5 -7t-6.5 -7q-1 -1 -1 -6q-1 -3 -5 -6.5t-8 -6.5 q1 -4 0.5 -8.5t-2.5 -7.5l-12 -21.5l-13.5 -23.5l-11.5 -20t-5 -10q-1 -2 -1 -13q0 -10 2 -18q2 -11 4 -25l4 -29q1 -3 4.5 -7.5t5.5 -4.5h7q5 0 10 5q3 4 4 10t1 14q0 4 2.5 9.5t4.5 9.5t2 8t1 9l2 1q0 1 3 1q2 0 4.5 -3.5t0.5 -7.5q-1 -2 -2 -2.5t-2 -2.5q-2 -2 -1 -4 t1 -4q0 -4 -2.5 -10.5t-2.5 -11.5q0 -2 1 -3t1 -3t-1 -5t-1 -5q1 -2 4 -6t3 -8q1 -10 -5 -21.5t-6 -22.5q0 -2 3 -5t2 -5q-1 -11 -3.5 -22t-4.5 -22q-1 -1 1 -3t2 -4q-2 -48 -6 -97q-8 -2 -14.5 -4.5t-14.5 -2.5h-7q-3 0 -5 2q-3 17 -5.5 34t-6.5 34q-1 2 -4 5t-5 8 q-5 14 -10.5 33.5t-7.5 36.5q0 3 -4 3q1 2 2 5t0 5q-3 5 -7 8.5t-7 8.5q-7 -5 -10 -7.5t-7 -7.5q-5 -6 -10.5 -15l-10.5 -17q-2 -2 -3 -6.5t-3 -7.5q-5 -8 -14 -21t-15 -24q-2 -4 -3.5 -9.5t-4.5 -10.5l-23 -40t-21 -42q-1 -2 -5 -6t-6 -8q-2 -3 -3.5 -10.5t-4.5 -12.5 q-14 -22 -20.5 -44.5t-19.5 -38.5q-2 -8 -5 -19l-6 -21.5t-5 -19t-2 -9.5q-2 -7 -3 -17.5t1.5 -20t8 -16.5t17.5 -7q11 0 17 4.5t17 8.5q1 -1 1 -4q-2 -7 -9 -9q-2 -2 -5 -2q-2 0 -4 -1q-11 -5 -21 -6.5t-18 -1.5q-12 0 -15.5 0.5t-12.5 18.5q-4 7 -2 20t4 23q1 2 0.5 5.5 t0.5 5.5q0 2 2 5t3 6l16 53t20 56q2 4 5 9t5 10q2 8 5.5 15.5t5.5 15.5q3 7 8 14t9 16q19 45 36.5 77.5t32.5 63.5l12.5 26.5t13.5 26.5q1 2 3.5 5t3.5 5q2 4 4.5 9.5t4.5 10.5t7.5 13.5t8.5 14.5q2 2 2 6q0 5 2 8q1 2 2.5 4t2.5 5q0 1 -1 6.5t-3.5 12.5t-4.5 14.5t-3 12.5 q-2 4 -1.5 8.5t-1.5 9.5q-1 5 -3 10l-4 10t-2 13q0 9 -3 17q-1 1 -0.5 4.5t0.5 5.5l-3.5 9t-2.5 9q-1 4 -0.5 9t-0.5 9q-5 19 -8.5 38l-6.5 36q-1 2 -1.5 6t-2.5 8q-1 2 0 7t0 9q-2 8 -2 14q-2 8 -3.5 15.5t-3.5 14.5q-1 2 -4 6.5t-3 8.5t1 8q2 8 8 16.5t15 14.5 q8 5 20 11.5t15 6.5q2 0 4.5 -1.5t6.5 -1.5q11 -5 15 -20t9 -26q1 -3 3.5 -7.5t4.5 -7.5l3 -6t2 -9q1 -3 1 -9v-9q1 -5 -3 -11.5t-6 -11.5q-2 -7 0 -15t3 -16q0 -2 2 -6q2 -16 3.5 -32.5t3.5 -33.5l2 -2q2 -15 6 -34.5t4 -35.5q2 0 1 -0.5t2 -0.5q5 0 7.5 6.5t4.5 8.5 l3.5 3.5l3.5 3.5q4 5 6.5 11l5.5 13q2 4 3 8t4 9q1 2 3.5 4t4.5 4q8 16 13 31q8 6 11 14t5 14q5 3 8 8q4 10 8 23q0 -1 1 -1q0 -1 2 -1q3 7 3 16l2 -3q5 6 7.5 17t6.5 21q1 2 3.5 5.5t3.5 5.5v10t2 16q1 5 3.5 10.5t4.5 10.5q1 2 -1 4t-2 4q1 2 3 5t4 5q5 10 8 20.5t7 19.5 q1 2 3 6.5t3 7.5t2.5 7l3.5 9l12.5 36t22.5 52q2 5 4 14t6 17q1 3 3.5 9t5.5 9q2 2 5 5.5t6 5.5t8 3.5t8 3.5q5 2 11.5 6t11.5 4h3l1 -2l3 3q7 -2 9.5 -10t0.5 -13zM312 286q0 -2 -2 -4t-3 -4q-4 -6 -2 -17q0 -2 -3 -5q-2 2 -5.5 2.5t-5.5 2.5q-2 6 0 13q1 3 3.5 9l4.5 11h7 q0 -2 1.5 -4.5t4.5 -3.5zM227 466q-2 -2 -8 -2t-7.5 3.5t-0.5 6.5q1 6 7 6q5 0 8 -4.5t1 -9.5zM349 413q1 -2 -0.5 -7t-3.5 -8q-6 -2 -7 -5t-1 -8v-9q0 -4 -3 -8q-2 2 -4 5t-4 4q0 3 0.5 8.5t1.5 7.5q0 2 3 6t5 7q3 3 13 7zM356 448l1 6q3 -1 3.5 -3t0.5 -3h-5z" />
<glyph unicode="Y" horiz-adv-x="397" d="M529 785q-1 -3 -2 -4t-3 -4t-3 -9.5t-3 -12.5q-2 -5 -8.5 -11.5t-10.5 -14.5q-10 -19 -17 -28l-15 -20q-2 -2 -2 -5q0 -2 -2 -4q-5 -8 -11.5 -15t-11.5 -15q-2 -2 -2 -7t-3 -8q-5 -8 -10.5 -18.5t-7.5 -15.5q-4 -10 -10.5 -20.5t-12.5 -21.5q-2 -3 -4.5 -9.5t-6.5 -14.5 l-8 -15.5t-7 -12.5q-2 -4 -2 -9v-9q0 -8 -2 -7t-3 0q0 -2 1 -2t2 -0.5t0.5 -3t-4.5 -9.5q-3 -5 -4 -6q0 -10 -1 -23.5t-2 -16.5l-20 -82q-1 -3 -1.5 -2.5t-1.5 -0.5q1 -4 -4.5 -10.5t-13.5 -12.5t-16.5 -10t-12.5 -4q-3 0 -2 1t-2 1q-9 0 -15 -6t-10.5 -14.5t-7.5 -16.5 t-6 -12q-5 -7 -8.5 -15t-6.5 -16l-28 -67.5t-28 -71.5l-11.5 -33.5l-12.5 -37.5q-1 -2 -2.5 -4.5t-2.5 -5.5q-1 -2 -0.5 -9.5t-0.5 -13.5l-4 -12.5t-3 -14.5q-1 -4 -3.5 -10l-4.5 -11q-2 -14 -3.5 -34.5t-3.5 -32.5q-1 -5 -3 -12l-4 -14q-1 -3 0.5 -6.5t1.5 -7.5 q-1 -14 -2.5 -29t0.5 -29q2 -9 3.5 -19t4.5 -20q2 -7 6.5 -15t7.5 -14q2 -4 7 -8.5t10 -9.5q4 -4 14 -5l20 -2l1 -1q0 -1 1 -2l-1 -4q-5 -3 -12 -5.5t-10 -2.5q-2 0 -6 2t-9 5t-9.5 5t-5.5 2q-3 0 -3.5 -1.5t-3.5 -1.5t-9.5 2.5t-9.5 5.5q-5 5 -9 14.5t-7 17.5q-2 5 -6 11.5 t-3 12.5q1 30 0.5 67t7.5 67v1l-2 1q2 6 3.5 16.5t1.5 17.5q1 17 5.5 36.5t8.5 39.5q1 1 4 6q-1 16 3.5 34t9.5 47q0 3 2.5 7.5t3.5 8.5q3 14 6.5 33.5l6.5 37.5t5.5 30.5t2.5 14.5q0 1 4.5 13l10 27.5l12 32.5l11.5 29q2 6 6 14l8 16.5l7 15t3 8.5q2 5 0 10q-1 2 -3 5t-4 7 q-1 2 0 5t-1 5q-2 4 -7 8t-8 7q-2 2 -1.5 6.5t-1.5 7.5q0 1 -2.5 2t-3.5 3l-7 16.5t-8 17.5q-2 2 -1.5 6t0.5 7q-6 4 -9 15.5t-8 20.5q0 1 1.5 3.5t-0.5 4.5q-8 12 -11.5 27t-6.5 30q-3 12 -6.5 29t-2.5 20q2 8 12.5 17t23 16t25 11.5t18.5 4.5q25 0 28 -28q1 -9 -0.5 -19.5 t-1.5 -19.5q0 -1 2 -3t2 -4q1 -13 4.5 -25.5t6.5 -24.5q6 -21 13 -40t15 -30q3 1 4 4q7 21 15.5 35t13.5 34q2 8 6 14.5t7 13.5q2 4 7 10t7 10q8 13 14.5 29t14.5 30l22 36l24 40q2 2 4 3.5t3 3.5q2 3 4.5 7.5t4.5 8.5q0 1 2.5 2.5t4.5 3.5q2 3 3.5 7.5t4.5 6.5 q14 11 21.5 17.5t20.5 10.5q3 2 6 4.5t6 4.5q2 1 6.5 2t7.5 1q6 0 7 -2q1 -1 3.5 0t3.5 0q3 -1 6.5 -4.5t5.5 -6.5l1 -1z" />
<glyph unicode="Z" horiz-adv-x="706" d="M240 54q0 -3 -3 -7.5t-5.5 -9t-3 -8t3.5 -4.5q15 -5 39 -4t49 4t48.5 5.5t38.5 1.5q5 0 18 -1t27.5 -2t26 -2t12.5 -1t16 -3t34 -7.5t36.5 -9.5t24.5 -9q11 -6 28.5 -13.5t27.5 -15.5q1 -2 1 -7t-2 -10q-4 -11 -11 -9q-2 0 -10.5 1.5t-10.5 2.5q-3 1 -6.5 9t-5.5 8 t-10 -1t-17.5 -2t-18 -2t-9.5 -1q-2 1 -6 5.5t-7 5.5q-2 0 -4.5 -6t-4.5 -5q-1 0 -5.5 2t-9.5 4.5t-10 4t-6 0.5q-11 -3 -24.5 -5t-16.5 -1q-1 0 -11 1.5t-22 2.5t-22 2.5t-11 1.5q-4 1 -11.5 0l-15.5 -2l-15.5 -2t-12.5 0q-2 0 -4 2t-4 3q-2 0 -4 -4q-4 -4 -12.5 -5 t-17 -1.5t-16 0t-9.5 -0.5q-4 -2 -8.5 -4.5t-6.5 -1.5q-3 0 -2 1.5t-1 2.5q-1 0 -5 -2t-9 -5l-9.5 -5.5t-6.5 -3.5q-11 -6 -19 -16.5t-19 -28.5q-6 -9 -13.5 -22.5l-15 -26.5t-13 -23.5t-6.5 -13.5q-6 -19 -14 -23.5t-15 -1.5t-11.5 11t-3.5 14q2 8 6 17.5t6 18.5q1 5 7 8 t7 9q1 11 4.5 25t4.5 25q0 4 -3 5.5t-5 5.5q-2 6 -1.5 17.5t1.5 21.5q0 3 4 15q3 10 5 14q2 5 5 8t5 8t2 12t1 14q2 13 10.5 27t18 27.5t17 26.5t8.5 26q0 7 6 16l13 19l13.5 19.5t7.5 17.5q1 4 9.5 11.5t10.5 11.5q2 5 13.5 15t17.5 14q1 0 10.5 10l24 25.5l31 32.5 l31 32.5l24 25.5t10.5 10q16 5 22.5 16.5t21.5 20.5q11 7 26 15l28.5 15.5t23.5 12.5t11 5q1 1 6.5 5.5l12.5 10.5l12.5 10.5t6.5 5.5q2 1 10 1.5t10 2.5q2 1 5 6t6 6q2 2 2 -2t2 -2t3 5t3 5t3 -1.5t3 -1.5q1 0 7 4.5l12.5 9.5t12.5 9t7 5q17 4 31 12q12 7 23 17.5t16 27.5 q2 8 -2.5 17.5t-9.5 14.5q-2 3 -7 4.5t-8 3.5q-2 2 -3 7.5t-4 6.5q-2 0 -5 -1t-5 -1t-5 4t-7 8t-7 8t-4 4q-2 1 -8.5 -1.5t-9.5 -1.5q-2 0 -7 4t-8 5q-2 1 -10.5 -1t-10.5 -2q-2 1 -2.5 3.5t-2.5 3.5q-11 2 -25.5 5t-17.5 4q-1 0 -5.5 -0.5t-9.5 -0.5h-10h-5q-2 0 -10.5 4.5 l-10.5 5.5q-2 0 -7 -1.5t-8 -1.5q-10 0 -19.5 3t-18.5 5q-4 1 -11 -2t-9 -3q-2 1 -9.5 0.5t-9.5 -0.5q-3 1 -8 5.5t-10.5 8t-11 2.5t-8.5 -11q-1 -2 -14 0t-29.5 3.5t-32 0.5t-21.5 -10q-2 -3 -18 -4.5t-35 -1.5q-18 0 -34.5 0.5t-18.5 2.5q-12 9 -21 10t-17 1q-7 0 -15.5 1 t-18.5 9q-2 2 -3.5 9.5t-1.5 14.5q-1 5 0.5 13.5t3.5 14.5q2 8 7.5 13t11.5 8t11 4l5 1q3 -1 6 -5.5t7 -6.5q11 -7 14 -9.5t4 -3.5t3.5 -1.5l12.5 -2.5q1 0 15 -2t29.5 -4.5l29 -4.5t14.5 -2q2 -1 15 1.5t21 1.5q49 -5 64 -9.5t17 -5.5q2 0 4.5 2.5t4.5 2.5q1 0 17 -2.5 l34 -5.5t33.5 -5t17.5 -2q1 0 6.5 -2.5t11.5 -4.5l11.5 -4t6.5 -2q2 -1 4.5 2t4.5 2q1 0 14 -3t28.5 -6t28.5 -6t15 -3q2 -1 1.5 -4t1.5 -4q2 0 6 2.5t7 2.5q2 -1 3 -3.5t3 -3.5q20 -8 38.5 -17l36.5 -18q6 -3 15 -14t16 -18q3 -3 5.5 -17.5t-2.5 -28.5l-6.5 -16t-9.5 -17 q-10 -11 -22 -19t-22 -13q-4 -2 -15 -7l-23.5 -11t-24 -11t-15.5 -6q-2 -1 -2 2t-2 1q-2 -1 -3 -6t-3 -7q-11 -8 -24.5 -19.5t-26.5 -20.5q-2 -2 -4 -6.5t-4 -6.5q-11 -10 -24 -16.5t-21 -18.5q-6 -10 -13.5 -13.5t-12.5 -13.5q-2 -2 -10 -5t-10 -5q-3 -4 -8 -10l-10 -12 t-9.5 -10t-5.5 -5q-2 -2 -3 0t-3 0q-2 -1 -7 -10.5l-9 -16.5q-2 -4 -12 -8.5t-12 -10.5q-8 -20 -33 -50.5l-53.5 -64.5t-52.5 -66t-28 -55z" />
<glyph unicode="[" horiz-adv-x="343" d="M393 722q-11 0 -27 1.5t-21 2.5q-6 0 -16 -2l-7 -2q-1 -1 -2 -1h-1l-3 1l-7 4q-10 4 -13 5q-5 1 -12 1t-15 -2.5t-15.5 -8.5t-11.5 -18q-1 -2 -4.5 -12l-8 -22.5t-9 -26.5t-8.5 -25q0 -3 -0.5 -6.5t-0.5 -5.5l-8 -29l-13 -48q-7 -25 -11.5 -47t-2.5 -30l-35 -171 q-2 -3 -2 -8v-11q1 -4 1 -10q0 -1 1 -1t-1 -1q-6 -18 -8.5 -27.5t-4.5 -20.5t-4 -26t-8 -41q-1 -4 -2 -18.5t-1.5 -31.5t-1 -32t-0.5 -20q-2 -6 8 -9q3 -1 13 -3q5 -1 8.5 -1.5t0.5 -8.5q21 -5 32 -7t18 -4q13 -3 16 -5q4 -2 6 -4l8 -8l8.5 -8.5t11.5 -10.5q-1 -1 -1 -2h-1 q-7 -5 -14 -5.5t-15 -0.5q-7 0 -10 -1.5t-9 -3.5q-4 -2 -5 -2q-1 3 -5 4q-2 0 -7 -2t-11.5 -5l-12.5 -6l-8 -4q-8 -3 -13.5 -8t-10.5 -11q-3 -2 -6 -5.5t-6 -6.5l-13 -13q-8 1 -10 1.5t-2.5 1t-1.5 1t-5 1.5q-7 1 -11 1.5t-4 5.5q0 4 -2.5 6.5l-4.5 4.5l-1 1q-1 0 -1 1 q-2 6 -2 16q0 5 0.5 10.5t0.5 10.5v1l1 2l4 10l3 9t2 5l6 6q6 6 8 11t3 13v6q0 4 1 7q5 27 5 54q0 28 2 54q1 14 5 34t6 37q1 7 0 14t0 16q0 11 3 24t3 24q1 6 -3 14q-1 4 -2 7.5t-1 8.5q-1 25 4 50.5t12 51l14.5 51t11.5 51.5q1 4 0 8.5t-2 8.5t-2 8.5t-1 9.5q-5 2 -1 7 t8 12q7 9 10 16q4 10 1 15q-1 1 1 4t5 6t5 6q5 6 8.5 12.5t0.5 14.5q4 6 6 11l4 10t4.5 9t4.5 8q3 4 14 13l3.5 3.5l3.5 3.5l4 4t6 7q-8 4 -11.5 13t-5.5 19q-2 6 -2.5 11t-2.5 10v2q28 -2 41 -4.5t17.5 -4.5t3.5 -3.5t1 -1.5q4 0 9 3l4 2q44 -11 71 -19t41 -13q6 -2 8 -3z " />
<glyph unicode="\" horiz-adv-x="464" d="M431 22q-6 6 -14 9.5t-15.5 8t-12 10.5t-4.5 17q0 21 -5 46t-14 51t-21 52t-25 49q-27 47 -37.5 67.5t-14 28.5t-4 9t-7.5 9t-24 29t-53 69q-31 40 -67.5 80l-71.5 75q-11 12 -22.5 26.5t-6.5 28.5q3 7 7 10t13 -1q23 -11 43 -30t39 -34q30 -23 52.5 -51t43 -58l41 -62 t45.5 -63q13 -16 18.5 -34.5t16.5 -35.5q18 -29 29.5 -51.5t20.5 -43t16 -39t15 -37.5q6 -15 13.5 -30l14.5 -29.5t10.5 -28.5t2.5 -27v-12q0 -6 -2 -11t-6.5 -5.5t-13.5 8.5z" />
<glyph unicode="]" horiz-adv-x="343" d="M47 -65q12 1 28 -1t21 -2q6 -1 16 2l7 2h3l3 -1l6 -3q8 -5 14 -5q4 -1 11 -1t15 2.5t15 8.5t12 18q1 2 4 12t7.5 22.5l9.5 26.5l9 25q0 2 0.5 6t0.5 6q2 6 8.5 28.5l13.5 48.5q6 25 10.5 46.5t3.5 29.5l34 171q4 7 2 19q0 3 -0.5 6t-0.5 5q0 1 -1 1t1 1q7 17 9 27l4 21 t4 25.5t8 40.5q1 4 2 18.5t2 31.5t1.5 32t0.5 20q0 6 -8 9q-3 2 -6 2t-7 2q-5 1 -9 1.5t-1 7.5q-20 5 -31.5 7t-18.5 4q-13 3 -16 5q-2 1 -2.5 2t-2.5 3q-4 3 -8 8q-4 3 -8.5 7.5t-12.5 11.5h1q0 1 1 1v1q8 5 14.5 5.5t14.5 0.5q7 0 10 1.5t10 3.5q1 1 2 1t2 1q2 -4 6 -4 q1 0 6.5 2t12 5t12.5 5.5t8 3.5q13 7 24 19q2 3 5 6t6 7l6 6t7 6q7 -1 9.5 -1.5l2.5 -0.5q1 0 1.5 -0.5t5.5 -1.5q15 -2 15 -7t2.5 -7t5.5 -4l1 -1l1 -1q1 -3 1 -16v-11q0 -5 -1 -10q0 -2 -1 -4l-3 -10q-2 -5 -3.5 -8l-2.5 -5q-2 -2 -3 -3.5t-3 -3.5q-9 -9 -10 -23 q-1 -5 -1 -14q-5 -27 -5.5 -54t-2.5 -53q-1 -14 -5 -34.5t-6 -37.5q-1 -7 0.5 -14t-0.5 -15q0 -11 -2.5 -24t-3.5 -24q0 -4 2 -7.5t1 -7.5l-13.5 -71t-9.5 -51l-7.5 -45t-7.5 -53q-1 -6 1 -16q1 -5 2 -9t2 -10q5 -2 1 -6.5t-9 -11.5q-2 -5 -4.5 -8.5t-4.5 -7.5 q-6 -11 -1 -16q0 -1 -2 -3q-2 -3 -5 -6t-5 -6q-5 -7 -8 -13.5t-1 -13.5q-3 -7 -5.5 -11.5t-4.5 -9.5q-3 -9 -9 -18q-2 -3 -5.5 -6t-7.5 -6q-5 -5 -8 -7q-2 -2 -3.5 -4l-5.5 -7q8 -4 11 -13t5 -20q2 -5 2.5 -10.5t2.5 -9.5l1 -3q-29 3 -41.5 5t-17 4t-4 3.5t-1.5 2.5 q-3 0 -5 -1t-4 -3q-2 -1 -3 -1q-45 11 -72 18.5t-41 12.5q-6 2 -8 3z" />
<glyph unicode="^" horiz-adv-x="233" d="M213 587q0 -5 1 -9.5t0 -9.5q-2 -7 2.5 -13.5t2.5 -12.5q-2 -5 -1.5 -11.5t-4.5 -10.5q-4 -2 -5.5 0.5t-2.5 4.5q-4 18 -19.5 35t-29.5 29q-5 5 -15 6.5t-15 3.5q-10 5 -19 -1t-17 -12q-4 -3 -8 -5.5t-6 -6.5t-2 -8t-2 -9q-1 -5 -4 -7.5t-6 -7.5q-5 -7 -9.5 -12t-5.5 -13 q-2 -8 -4.5 -12t-1.5 -12q1 -3 -2 -6t-6 -3q-8 1 -9 9.5l-2 16.5t2.5 15.5l7.5 15.5t7.5 13.5t6.5 13.5q6 21 21 34l15.5 13l15.5 13t16 7t16 5q3 1 8 0t11 -2.5t11 -3.5t8 -2q10 1 18.5 -10.5t14.5 -18.5q3 -4 5.5 -5t4 -2t2 -2.5t0.5 -6.5z" />
<glyph unicode="_" horiz-adv-x="334" d="M364 -69q-5 0 -12 3t-13 4q-37 5 -84 5t-93.5 -2t-87 -4.5t-63.5 -2.5q-3 0 -10 2t-14.5 5.5t-12.5 8t-4 9.5q0 4 5 7t12 3q8 0 23 2.5t23 0.5q9 -3 18.5 0t18.5 3q3 0 21.5 -1t40 -1.5t39.5 -1t21 0.5q14 5 35.5 6t44.5 0.5t45.5 -2t38.5 -0.5q11 1 19.5 -7t6.5 -18 q-1 -4 -6 -12t-12 -8z" />
<glyph unicode="`" horiz-adv-x="225" d="M77 710q1 -12 6 -26.5t16 -22.5q5 -12 12.5 -19.5t14.5 -15.5q5 -5 9 -12.5t12 -11.5q0 -4 1.5 -5.5t3.5 -2.5t3.5 -2.5t0.5 -4.5q6 0 4.5 -3.5t0.5 -5.5q2 -5 4 -8.5t3 -8.5q-3 -5 -3.5 -9t-7.5 -4l1 1q-8 5 -14.5 11t-14.5 11q-2 4 -4.5 6t-4.5 6q-5 6 -11.5 10 t-9.5 12q-5 2 -7 6t-6 7q-2 -1 -3.5 2t-3.5 4q-5 5 -12 8t-5 11q-4 3 -3.5 8t-1.5 8q-3 5 -2 11t0 12q1 7 -0.5 14t3.5 12q5 1 9.5 3.5t9.5 -1.5z" />
<glyph unicode="a" horiz-adv-x="250" d="M235 36q-20 -15 -43 -29t-47 -5q-11 4 -17.5 17t-8.5 26q-1 4 -5 1.5l-7 -4.5q-20 -18 -37 -38t-43 -28q-8 -3 -17 -1t-11 10q-2 11 1 22.5t8 22.5q10 21 19 44q8 17 14.5 34t17.5 32q14 21 31 37t40 26q10 4 12.5 -4t0.5 -15q-4 -18 -13.5 -38t-27.5 -25 q-11 -2 -19 -4.5t-13 -10.5q-6 -11 -10 -23t-8 -26q-2 -11 -5.5 -23.5t5.5 -14.5q12 -2 20.5 4.5t15.5 17t12.5 22t11.5 20.5q9 13 15.5 26t14.5 26v7q12 10 22 22.5t26 11.5q5 -1 4.5 -4t-2.5 -7.5t-5 -9.5t-3 -9q0 -12 -3 -24t-5.5 -23t-3 -22t4.5 -22q4 -9 15.5 -9.5 t21.5 1.5q5 2 10 5t11 3q5 0 4.5 -8t-4.5 -11z" />
<glyph unicode="b" horiz-adv-x="199" d="M129 64q-1 5 -2.5 8.5t-2.5 9.5q0 4 -3 8t-7.5 6t-9 1t-6.5 -8q-5 -14 -11 -27t-8 -30q0 -5 -2 -7t-2 -6q0 -5 -2.5 -11.5t-4.5 -12.5t-2 -11t6 -7q7 -3 14 0.5t12 8.5q15 17 24.5 36t6.5 42zM163 38q-6 -2 -5.5 -7t-2.5 -10q-6 -13 -14.5 -24.5t-16.5 -23.5 q-10 -15 -23 -28.5t-30 -22.5q-18 -9 -34 -4q-14 5 -20 20t-2 30q1 3 0.5 4t0.5 3q8 23 10.5 45.5t4.5 43.5q2 17 7 34.5t10 31.5q4 11 5 19t6 19q2 5 1.5 11.5t-5.5 5.5q-8 -1 -13 -5.5t-9 -10.5l-8.5 -13t-10.5 -12q-4 -4 -7.5 -10.5l-7 -12.5t-7.5 -10t-8 -1q-7 4 -5 9.5 t8 12t13.5 12.5t10.5 11q22 29 41 58l38 59l6 12q14 31 23 63.5t24 63.5q2 4 10.5 10t17.5 10.5t16 6t7 -2.5q0 -13 -4 -25t-10 -24l-12 -24t-10 -25q-6 -21 -15 -41.5l-18 -40.5t-16 -40.5t-8 -42.5q0 -6 3.5 -7.5t9 -2t12.5 -1t13 -2.5l13.5 -4.5t13 -6.5t8.5 -9.5 t0 -13.5q-5 -11 -3 -16t3 -13z" />
<glyph unicode="c" horiz-adv-x="176" d="M157 32q4 2 3 -1t-5 -8t-9.5 -10.5t-8.5 -7.5l-26 -17.5t-28 -12.5q-15 -3 -30 -5t-25 9q-8 8 -10.5 17.5t-3.5 23.5q-1 18 -1 27q0 10 1 17.5t3.5 17t5.5 28.5q2 14 7.5 26.5t7.5 26.5q2 12 6.5 21.5t10 18l11.5 17.5t10 20q5 12 18 21t27 4l17 -17q2 -11 4.5 -22.5 t3.5 -22.5q1 -21 -6.5 -40.5t-16.5 -37.5q-5 -11 -12.5 -20t-19.5 -12q-4 -1 -4 1q0 3 2 6.5t4.5 8.5t2.5 8q0 9 5 18.5t-2 15.5q-6 6 -16 2.5t-13 -11.5q-7 -18 -11.5 -28t-7 -18.5t-3 -19t0.5 -29.5q1 -14 7.5 -27.5t19.5 -16.5q21 -5 40 6.5t41 22.5z" />
<glyph unicode="d" horiz-adv-x="232" d="M159 163q-5 5 -10.5 2.5t-11 -8.5t-10.5 -13.5t-9 -12.5l-28 -38t-15 -44q0 -2 4 -2.5t6 1.5q17 13 29 28.5l25 33.5q4 6 10 12.5t10 14t5 14t-5 12.5zM324 432q0 -27 -13 -52t-24 -50q-10 -20 -21.5 -39t-21.5 -39q-8 -19 -18.5 -36.5t-15.5 -37.5q-2 -6 -2 -7 q-11 -26 -16.5 -53t-13.5 -53q-5 -17 -7 -33t-4 -34q-6 -47 13 -93q4 -9 7.5 -18l7.5 -19q3 -9 11.5 -15l16 -11.5t11.5 -12t0 -16.5q-2 -6 -8.5 -10.5t-13.5 -3.5q-5 1 -6.5 -1t-2.5 1q-6 15 -16.5 27.5t-11.5 29.5q-1 9 -6 14t-7 13l-11 24t-5 25q1 26 -2.5 47.5 t-5.5 48.5v13t-0.5 14.5t-3 9.5t-8.5 0q-12 -7 -22 -17.5l-20 -20t-20 -15t-21 -2.5q-9 2 -8 10.5t4.5 19l7.5 22t2 20.5q-2 6 -6.5 4.5t-10.5 -5.5t-11.5 -9.5t-9.5 -8.5q-6 -6 -9 -10q-3 0 -6 0.5t-4 2.5t1 6t9 10q26 25 54 47.5l56 45.5h4q9 12 21 19l23.5 14t21 16.5 t14.5 26.5l20 75t33 70q7 10 10 19.5t14 13.5q6 2 15 7.5t17 9.5t13 4q6 0 6 -8z" />
<glyph unicode="e" horiz-adv-x="182" d="M108 186q-14 3 -18.5 -8l-8.5 -20q-2 -5 -5.5 -12.5t-5.5 -14t-1 -11.5t7 -5q10 0 15.5 5.5t9 14t5.5 18.5t5 18zM167 94q11 -3 8 -12t-12.5 -20t-22 -22l-20.5 -18q-8 -8 -17.5 -15.5t-19.5 -11.5q-6 -2 -14 -5t-15.5 -4t-14 0t-10.5 6q-26 32 -21 81q1 6 -0.5 13 t0.5 13q7 21 14.5 32t24.5 31t37 39.5t43 34.5q12 8 23.5 2t12.5 -17q1 -23 -8 -42.5t-23 -37t-31.5 -32l-33.5 -27.5q-8 -7 -6 -18.5t4 -19.5q3 -10 12 -13t19 -3q13 0 21.5 11.5t16 24.5t15 23t18.5 7z" />
<glyph unicode="f" horiz-adv-x="182" d="M323 358q-1 -1 -1.5 1t-1.5 1q-6 -2 -10.5 -5.5t-9.5 -7t-10.5 -4.5t-11.5 2q-14 8 -33 6.5t-35 -6.5q-15 -5 -32.5 -9t-28.5 -19q-5 -6 -6.5 -5.5t-6.5 -7.5q-11 -17 -17.5 -34.5t-12.5 -36.5q-8 -24 -19.5 -47t-19.5 -47l-15.5 -46.5t-13.5 -46.5q-8 -28 -6 -54.5 t9 -49.5t23.5 -39t36.5 -22q11 -4 21 -6t22 0q4 1 1 -3t-8 -6t-6 -1t-7 -1q-13 -4 -25 -1t-22.5 10t-19.5 16t-16 17q-18 20 -27 45.5t-4 54.5q2 8 2 12q0 5 1 13q3 57 16 113t42 104q7 11 10.5 24.5t8.5 25.5q2 7 8 13.5t2 12.5q-5 10 -19.5 8.5t-25.5 -2.5 q-7 -1 -13.5 -2.5t-11.5 -1.5q-14 0 -25.5 -0.5t-25.5 -1.5q-16 -2 -32.5 -2.5t-27.5 8.5q-5 4 -8 3.5t-7 2.5q-7 5 -15 8.5t-9 11.5q-2 14 11.5 23t26.5 11q12 1 21 -6t20 -12q9 -5 15.5 -9.5t14.5 -7.5q26 -11 60 -13t60 9q11 5 11.5 18.5t5.5 24.5q8 18 17 36t22 33 l25 26t30 21q9 5 17.5 1t13.5 -11q11 -11 14 -28t-7 -34q-8 -13 -19.5 -21t-23.5 -9q-5 0 -7.5 4t-3 10t0.5 13.5t1 13.5q0 5 -6.5 4.5t-10.5 -2.5q-11 -8 -18 -17t-7 -21q0 -6 -2.5 -14t-3.5 -15.5t1.5 -13.5t12.5 -8q17 -4 30.5 -0.5t30.5 2.5q10 0 18.5 3.5t18.5 5.5 q7 2 11 1t11 -2q8 -2 15.5 -3t14.5 -3q3 -1 2.5 -3.5t-1.5 -4.5z" />
<glyph unicode="g" horiz-adv-x="224" d="M230 29q6 -5 5 -12t-6.5 -14.5t-13.5 -15.5t-14 -15q-20 -22 -35.5 -43.5t-28.5 -47.5q-6 -11 -8.5 -24.5t-8.5 -24.5q-4 -8 -5 -15t-3 -15q-11 -26 -20 -52t-20 -52q-12 -31 -26.5 -62.5t-40.5 -51.5q-3 -3 -2.5 0.5t3.5 8.5t6.5 10t6.5 7q11 6 9 9.5t3 11.5 q9 13 13.5 28.5t7.5 31.5t6.5 31.5t11.5 29.5l-1 2q0 6 4 13.5t4 15.5q0 7 3.5 13.5l6.5 12.5t4 11.5t-5 9.5q-4 3 -8 0t-8 -7.5t-8 -10t-7 -8.5q-20 -18 -35 -39t-34 -41q-6 -6 -10.5 -14t-9.5 -14q-14 -18 -22.5 -37t-15.5 -39l-2 -2q1 -13 -5 -28q-4 -9 -0.5 -15t1.5 -14 q-3 -11 -1 -21t12 -17q4 -2 9 -1t9 -1q2 0 0.5 -1t-2.5 -3l-2 2q-4 -8 -10.5 -11l-13.5 -6q-4 -1 -7 0.5t-6 3.5l-2 -2l-9 8l4 4q0 2 -3 1l-2 -1q-3 20 1.5 41.5t12.5 41.5q5 14 9 26.5t12 24.5q6 10 9.5 18.5t12.5 15.5l8 19q26 29 49 58.5l49 61.5q4 5 6.5 6.5t4.5 6.5 q4 9 11.5 17l15 15.5t13 16t6.5 19.5q2 12 4 19q11 32 20 65t13 68q1 5 2.5 8t-4.5 5h-8q-10 -9 -19.5 -18.5t-19.5 -17t-21.5 -12t-24.5 -2.5q-5 1 -9 2t-9 8q-6 9 -2.5 15.5t10.5 12.5l15 12.5t12 14.5q14 32 36.5 59.5l46.5 54.5q12 14 27 25t33 14q6 1 6 -3t-2.5 -9 t-6 -11t-6.5 -9l-17 -20t-16 -20q-9 -10 -20 -20l-21.5 -20.5t-18 -22.5t-8.5 -26q0 -3 3.5 -4t5.5 1q22 15 42 36t26 47q2 9 7.5 18t13 15.5t16 10t17.5 1.5q8 -2 7.5 -9t-4.5 -15t-10 -17t-9 -16q-2 -3 -1.5 -6t-1.5 -7q-14 -30 -22 -62t-20 -63q-2 -5 -3.5 -13t6.5 -11h4 q5 5 10 15t10.5 18.5t11 13t11.5 0.5z" />
<glyph unicode="h" horiz-adv-x="269" d="M274 -37q6 0 2 -3.5t-12 -8l-17 -9.5t-15 -8q-2 -2 -5 1t-5 0q-7 -8 -14 -8.5t-15 -1.5q-15 -2 -28.5 3.5t-25.5 13.5l-19.5 14.5t-13.5 17.5q-6 16 -2 36t5 37q1 8 3.5 14.5t2.5 14.5q0 6 1.5 12.5l3 12.5t1.5 11q0 6 -4 9q-5 5 -10 1.5t-11 0.5l-2 -2q2 -3 6 -3 q5 0 4 -3q-8 -23 -19.5 -45t-25.5 -42q-4 -6 -11 -13.5t-15 -13t-15.5 -7t-13.5 3.5q-7 6 -6 15t5 19l8.5 20.5t4.5 19.5t2.5 18.5t3.5 17.5q2 24 8.5 47t5.5 47q0 7 -5.5 5t-7.5 -5q-3 -4 -8 -8.5t-13 -14t-18.5 -25.5t-24.5 -43l5 24q5 16 17 38l25 44l24 39.5t14 25.5 l10 10q6 16 8 35t6 36.5t13.5 32.5t30.5 24q4 2 10 4t11 3t7.5 -1.5t1.5 -9.5q-1 -3 -1 -9q1 -10 -3 -19t-8.5 -18t-8.5 -18t-3 -19l-5 -7q-3 -32 -9.5 -63t-11.5 -61q-2 -5 -3.5 -11t-1.5 -12q0 -4 -2 -9.5t-3.5 -11t-1.5 -9.5t3 -6q6 -4 10.5 -0.5t9 8.5t9.5 9.5t12 3.5 l12 8q2 -4 5 -1.5t5 4.5q6 7 15 11.5t17 7.5q5 1 7.5 -3.5t0.5 -7.5q-3 -6 -1 -10t1 -9q0 -20 -6.5 -41l-13 -42.5t-9 -42.5t6.5 -40q7 -16 18.5 -24t26 -10.5t31.5 -2t34 1.5z" />
<glyph unicode="i" horiz-adv-x="182" d="M164 50q3 1 3 -3q0 -3 -2 -8.5t-5.5 -10.5t-6.5 -8q-9 -8 -19.5 -16.5t-21.5 -14t-22.5 -7.5t-21.5 4q-6 3 -8 12t-3.5 18.5t-4.5 17t-10.5 8.5t-21.5 -6.5t-38 -28.5q-12 -10 -7.5 -1.5t16 25l25.5 36.5t21 32q3 5 8 9t7 12q5 15 10 24t12 23q8 16 25.5 27.5t34.5 15.5 l5 -9q-7 -29 -18 -57t-11 -58v-41q-2 -25 15 -23q13 1 19 12t20 16zM203 336q-11 -10 -22 -17t-24 -9q-6 -1 -10.5 2t-8 8t-4.5 10.5t1 9.5q7 14 22.5 25t32.5 11l3 -11q2 -3 6 -6t6.5 -7t2.5 -8t-5 -8z" />
<glyph unicode="j" horiz-adv-x="189" d="M208 126q7 1 13.5 0.5t8 -4t-4.5 -11.5t-25 -23q-34 -27 -57.5 -58.5l-47.5 -63.5q-6 -8 -9.5 -16.5t-8.5 -18.5l-17.5 -35.5t-13.5 -36.5q-7 -22 -12.5 -43.5t-13.5 -41.5q-13 -37 -29 -72t-35 -69q-8 -14 -14 -28.5t-21 -16.5q-4 -1 -3.5 3t3.5 9t7.5 10.5t8.5 7.5 q6 3 7.5 5.5t2 5t0.5 5.5q0 2 3 7q10 15 15 32.5t8.5 35.5t8 35.5t13.5 33.5l-2 2q0 7 4.5 15.5t5.5 16.5q0 7 4 15l7 14.5t3.5 12.5t-5.5 11q-5 3 -9 0t-8.5 -8.5l-9 -11.5t-8.5 -10q-22 -20 -39 -43.5t-39 -45.5q-7 -8 -12 -16.5t-10 -15.5q-15 -20 -25 -41.5t-18 -44.5 l-3 -2q3 -14 -5 -32q-5 -10 -1 -16.5t2 -15.5q-3 -14 -1 -24.5t13 -17.5q5 -3 10.5 -2t10.5 -1q2 0 0.5 -1.5l-2.5 -2.5l-2 2q-5 -8 -12.5 -12.5t-15.5 -6.5q-6 -2 -14 4l-3 -2l-9 8l5 5q-2 1 -2.5 1.5t-2.5 0.5l-2 -2q-3 23 2 47t14 47l10 29t13 29q7 11 11 20.5t15 17.5 l9 21q29 33 55 66.5l55 68.5l7 7t5 8q5 10 13.5 19l17 18t15 18.5t7.5 21.5q0 5 1 10.5t3 10.5l22 73.5t15 75.5q1 7 -1.5 9t-0.5 10l13.5 42t17 40.5t25.5 36t38 27.5q4 2 7.5 -2t2.5 -7q-3 -15 -8 -28.5t-15 -26.5q-3 -4 -2.5 -7t-1.5 -8q-16 -34 -24.5 -70t-21.5 -71 q-3 -7 -4 -15.5t7 -12.5h4q23 20 40.5 44.5t41.5 45.5zM228 336q-11 -10 -22 -17t-24 -9q-6 -1 -10.5 2t-8 8t-4.5 10.5t1 9.5q7 14 22.5 25t32.5 11l3 -11q2 -3 6 -6t6.5 -7t2.5 -8t-5 -8z" />
<glyph unicode="k" horiz-adv-x="303" d="M334 298q0 -8 -5.5 -13.5t-14 -9t-18 -7t-15.5 -7.5q-35 -24 -72 -44.5t-63 -45.5q-11 -10 -12.5 -23t2.5 -27t11 -27.5t14 -24.5q18 -28 49.5 -37t65.5 -2q2 1 3.5 2t3.5 1t1 -7t-5 -9q-20 -11 -42 -16t-45 -7q-18 -2 -32.5 4t-26.5 15.5t-23 21t-23 21.5q-4 3 -5.5 1.5 t-2.5 -5.5t-1 -9v-8q-2 -20 -8 -34.5t-12 -36.5q-2 -8 -10.5 -15.5t-17.5 -12t-17.5 -5t-10.5 7.5q-5 13 -1 26.5t10 27t9.5 26.5t-0.5 26q-2 6 -7 1t-10 -12.5t-10.5 -13t-9.5 -0.5q-8 10 -4 18.5t13.5 17t20 16.5t16.5 18q18 32 30.5 62.5t26.5 61.5l13.5 27t11.5 27 l22.5 67t28.5 65q7 13 24 20t31 3l2 -2q-19 -43 -36 -86.5l-35 -86.5q-3 -7 -8.5 -16t-9 -18t-4 -15.5t6.5 -7.5q10 -2 22.5 3.5t26 14t26.5 19t25 18.5q14 11 26.5 18.5t26.5 17.5l13 8t16 9t13.5 4.5t5.5 -5.5z" />
<glyph unicode="l" horiz-adv-x="236" d="M213 55q-8 -7 -14.5 -14t-15.5 -12q-10 -6 -18.5 -14.5t-17 -16t-17.5 -11.5t-20 -1q-13 5 -19.5 20.5t-9.5 32.5q-5 29 -12 56.5t-5 59.5q0 5 -1.5 14t-9.5 5q-11 -5 -18 -13.5t-13 -18.5t-12.5 -19.5t-15.5 -16.5l-5 -9q-5 7 -4 13t4.5 11t9 10.5t8.5 10.5 q16 25 31.5 46.5t29.5 47.5q12 22 14.5 47t10.5 49q4 11 5 21t6 19q7 15 9.5 32t6.5 33.5t12 30.5t25 24q3 1 8 5t9.5 6.5t7 1.5t1.5 -9q-5 -26 -13 -52t-13 -52q-3 -18 -5.5 -36.5t-8.5 -36.5q-3 -8 -5 -12.5t-4 -11.5q-14 -46 -23 -89t-13 -94q-2 -25 1.5 -48.5 t14.5 -43.5q5 -9 18 -13.5t21 3.5q13 11 26.5 28t28.5 31l1 3q2 -3 6 -7.5t-2 -9.5z" />
<glyph unicode="m" horiz-adv-x="491" d="M500 76q-7 -14 -16 -24t-20 -21q-8 -8 -19.5 -11.5t-22.5 -1.5q-6 1 -8.5 0.5t-4.5 1.5q-12 18 -13 42t3 46q2 9 1 13t1 9q5 20 8 36t4 38q1 5 -0.5 13.5t-7.5 5.5q-12 -5 -20 -14t-13.5 -20.5t-10.5 -23.5t-12 -23l-37 -57.5t-45 -53.5q-4 -4 -11 -4q-6 0 -8 4 q-9 11 -4.5 29.5t6.5 32.5q4 21 6 42.5t5 40.5q2 13 5 25t-4 20q-2 2 -5 -1l-5 -5q-6 -17 -11.5 -35t-8.5 -36q-2 -10 -6 -18t-6 -18q-3 -9 -3.5 -19t-5.5 -19t-6.5 -18t-3.5 -18t-5 -17.5t-9 -15.5t-11 -15.5t-11 -16t-13.5 -12t-18.5 -3.5l-8 9l6 94q9 20 9 43q0 24 9 44 l-2 2q2 14 5 27.5t5 26.5q0 6 2.5 14t4 15.5t1 13.5t-6.5 6q-9 1 -14.5 -4t-8.5 -12.5t-5 -16.5t-5 -16q-17 -38 -29.5 -76t-23.5 -80q-4 -14 -10 -25.5t-8 -25.5q-5 -30 -16 -56.5t-21 -54.5q-5 -15 -7 -32t-3.5 -34t-4 -33t-9.5 -29q-5 -9 -13 -11t-19 -4 q-12 -2 -19.5 2.5t-11 12.5t-3.5 19q0 10 3 19q7 18 17.5 33.5t19.5 32.5q10 18 16.5 34.5t14.5 33.5q13 30 23.5 59.5t12.5 62.5l5 5q5 16 10.5 32t13.5 31q2 4 3 10.5t3 11.5q6 17 13.5 34t13.5 34q5 15 11.5 28.5l13.5 27.5q9 21 17.5 45t20 46t27.5 39t41 25 q12 4 14.5 -5t1.5 -23t-3.5 -29.5t-0.5 -25.5q2 -6 -3.5 -11.5t-3.5 -11.5q2 -3 6 -6t0 -5q-14 -8 -21 -18.5t-11 -23t-5.5 -26t-4.5 -26.5l-5.5 -25.5t-1.5 -25.5q0 -8 -2 -14.5t-6 -15.5q-2 -5 0 -12t7 -5q8 5 10 16t6 20q3 6 5 11t4 13q7 19 10.5 37t12.5 35 q8 14 13 28.5t18 25.5q7 6 16 13t16 2q8 -7 10.5 -17.5t2.5 -22.5t-2 -24.5t-4 -23.5q-1 -8 -4 -17.5t-1 -14.5q5 -11 -0.5 -18t-5.5 -20q1 -15 1 -26q0 -10 -2 -23h8q16 23 30.5 48l30 49.5t33.5 46.5t43 39q9 6 12.5 3.5t4.5 -8.5t1 -14v-13q1 -20 -1.5 -41.5t-6 -43.5 t-6 -43.5t-0.5 -41.5q1 -11 8 -16t18 -4q8 1 16 2.5t11 10.5h4v0z" />
<glyph unicode="n" horiz-adv-x="264" d="M167 -3q-8 -4 -13 -5.5t-9 1.5q-15 12 -19 29.5t-3 37t5 39.5t4 38q0 4 -0.5 5.5t-0.5 3.5q1 7 3 15t-4 11q-7 3 -11 0.5t-7.5 -7.5t-6 -11t-6.5 -10q-14 -17 -24 -35t-18 -37.5l-16 -39t-18 -37.5q-5 -8 -13 -14.5t-19 -6.5q-4 0 -2.5 3.5t4.5 9l6.5 12t2.5 11.5 q-2 11 2.5 18t4.5 17q0 22 6 39t11 38l6 37t9.5 36t18.5 32t34 26q5 2 9.5 7.5t9.5 3.5q5 -1 5 -4q0 -2 -2.5 -5.5t-5 -7.5t-3.5 -7q-4 -13 -9.5 -21.5t-3.5 -21.5q1 -8 6 -7.5t11.5 5t13.5 10.5t13 9t12.5 8t13 9.5t13 7t13.5 -0.5q8 -4 7 -13t-2 -17q-2 -33 -9.5 -64.5 l-15.5 -64.5q-2 -8 -3 -17.5t0.5 -18t5 -13.5t10.5 -5q13 1 23.5 8t19.5 16.5t16.5 21t15.5 21.5q6 7 9 10l5 5t4.5 6t5.5 12q2 4 7.5 11.5l11 14.5t10 10t3.5 -1q-4 -22 -19.5 -46t-37 -46t-45.5 -40.5t-45 -30.5z" />
<glyph unicode="o" horiz-adv-x="219" d="M119 44q10 12 17.5 29t9 32.5t-5 28t-25.5 15.5q-11 2 -17 -1.5t-8 -10.5t-2 -17v-21q1 -12 -2.5 -25t-5 -24t1 -20t14.5 -13q6 -2 9 0.5t5 7t4 10t5 9.5zM186 184q0 -26 -3 -44.5t-8 -35t-12.5 -34.5t-16.5 -42q-5 -16 -13 -23.5t-16 -18.5q-6 -8 -17 -15.5t-22 -9.5 q-23 -2 -33 10q-12 13 -16 27t-4 29t2.5 30.5t4.5 31.5q2 20 4.5 28t5.5 11t6.5 4.5t8.5 9.5q12 21 20.5 32.5t18 19.5t22 15.5l32.5 20.5q6 4 12.5 0t12 -12t8.5 -17.5t3 -16.5z" />
<glyph unicode="p" horiz-adv-x="367" d="M303 169q-3 8 -10.5 12t-15.5 5q-22 -6 -33 -17t-25 -30l-38.5 -61t-26.5 -66l4 -4q35 -3 56 11t43 42q19 24 31 50.5t15 57.5zM383 41q-8 -3 -12.5 -3.5t-8 -1t-8 -2t-11.5 -5.5q-29 -3 -45.5 -8t-30.5 -11t-30.5 -12t-44.5 -12q-8 -5 -17.5 -7.5t-18.5 -5.5t-17.5 -8 t-14.5 -15q-11 -23 -17.5 -47l-13 -48t-14 -48t-18.5 -46q-5 -16 -8 -29.5t-23 -18.5q-4 2 -8.5 -2.5t-6.5 0.5q3 33 11.5 67t11.5 69q8 14 12 30t12 32l20.5 60t19.5 60q3 11 -0.5 13.5t-8.5 1t-11 -5t-7 -4.5q-7 -2 -16 -7t-17.5 -8.5t-14 -4.5t-5.5 5q29 13 53 33t47 42 q3 11 10.5 20t12.5 20q6 10 14 10q9 0 16 6q11 3 18 9l14 12l14 12t18 10q17 11 34.5 16.5t36.5 9.5q15 1 29 -2.5t22 -13.5q-1 -9 1 -18t-4 -18q0 -4 -0.5 -11.5t-3.5 -12.5q-10 -23 -22 -44t-32 -38q-2 -5 1 -8t7 -4q3 0 7.5 -0.5t7.5 2.5l2 -2q17 3 21.5 3.5t6.5 0 t6 -0.5q5 0 23 2q2 -2 1 -6t0 -7z" />
<glyph unicode="q" horiz-adv-x="381" d="M318 -194q14 38 8 75t-38 56q-6 3 -8.5 1t-3.5 -6.5t-1.5 -10t-1.5 -7.5q-7 -14 -8.5 -32.5t-6.5 -32.5q-6 -18 -12 -38t-10.5 -41t-7.5 -41.5t-1 -39.5q1 -8 6.5 -18.5t17.5 -4.5q13 7 20 23l10 27.5t12 25.5q10 18 14.5 32.5t10.5 31.5zM269 212q-13 -5 -20.5 -14 t-13 -20t-9.5 -23t-10 -22q-11 -20 -20.5 -45t-2.5 -44l30 25q-1 10 2.5 17t9.5 15q8 10 11.5 21t6.5 21.5l6 20.5t11 19zM407 66q-9 -13 -23 -24.5l-28 -22.5t-25 -23.5t-15 -28.5q-2 -7 2.5 -10.5t10 -6t11 -6t6.5 -10.5q3 -20 5.5 -41t-2.5 -44l-3 -3l2 -2l-30.5 -95 t-49.5 -85q-6 -7 -14 -12t-16 -3q-14 3 -17 15q-5 14 -5 30t1 31q0 8 3.5 20t4.5 20q2 21 -1 41.5t4 42.5q6 19 9 34.5l7 35.5q1 6 -4.5 7t-12.5 0.5t-13 0t-5 5.5q2 10 8 18l12 16.5t10 17t1 19.5q-3 10 0 18.5t-4 11.5q-8 4 -15 -0.5t-13.5 -11l-13 -13.5t-13.5 -8 q-6 -1 -13 -5t-13.5 -6.5t-12.5 -1t-11 12.5q-4 9 -1.5 20.5t5.5 23t3.5 21.5t-7.5 16q-6 4 -11.5 1t-10 -9t-9 -14t-8.5 -13q-10 -12 -18.5 -25.5t-18 -25t-20 -18.5t-24.5 -7q-10 0 -7 7t11 17t18 20.5t15 18.5q4 6 8 7.5t8 7.5q16 23 36.5 41t37.5 38q9 11 21 21.5 t20 23.5q20 30 45 50t56 41q6 4 8.5 2t5 -6t4.5 -9t6 -7l31 18q8 -9 8 -21q0 -11 -3 -23t-7 -24.5t-5 -22.5q-1 -3 -2.5 -4.5t-1.5 -3.5l2 -3q-4 -4 -4.5 -8t-0.5 -9v-9q0 -4 -2 -9q-4 -8 -6 -13.5l-5 -13.5q-3 -11 -2 -21t-3 -20l-6 -16.5t-3 -16.5q0 -5 5.5 -7.5t11.5 0.5 q15 7 26 19t21.5 25.5l21.5 26.5t25 22q4 3 6 -2t2 -13q0 -7 -1.5 -15.5t-4.5 -12.5z" />
<glyph unicode="r" horiz-adv-x="197" d="M183 177q-5 -19 -14 -38t-16.5 -37.5t-10 -37.5t6.5 -38q2 -4 4.5 -6.5t-0.5 -5.5q-10 -11 -21 -20.5t-24 -4.5q-14 6 -14 24q0 19 5 33t6.5 27.5t10.5 25.5q2 3 1.5 9.5t2.5 11.5q4 4 5 7t3 10q5 17 7.5 31t-5.5 31q-3 7 -9 9q-8 2 -9.5 -2t-4.5 -9q-8 -10 -12 -20.5 t-12 -21.5l-38.5 -49t-47.5 -42q-2 -2 -2.5 2.5t1.5 6.5q32 29 52.5 60.5t34.5 66.5q5 10 8 17.5t1 15.5q-1 7 -6 11.5t-3 11.5q2 15 19 25q8 5 16 13t18 6q6 -2 5.5 -7.5t-1.5 -12.5t0 -14t12 -11q22 -10 31.5 -31t-0.5 -44l-2 -2l2 -1v0z" />
<glyph unicode="s" horiz-adv-x="302" d="M313 271q6 2 7 -5t-1 -17t-6.5 -21t-9.5 -17l-30 -32t-25 -37q-5 -10 -15 -18t-9 -20q2 -14 4.5 -28.5t-7.5 -25.5q-8 -10 -17.5 -19.5t-20 -17t-22 -12t-23.5 -3.5q-9 1 -21 3t-11 16q1 12 9.5 19.5t18 14.5t17.5 14.5t7 18.5q-1 17 -5.5 32.5t-11.5 30.5q-3 7 -8.5 5.5 t-8.5 -5.5q-5 -5 -9 -11t-8 -11q-18 -26 -44 -48t-53 -29q-4 -1 -1 3.5t9 11t13 13t11 8.5q39 22 64.5 56.5t41.5 72.5q7 16 13.5 33.5t15 33t20.5 29t30 22.5q7 4 17.5 11.5t20 12.5t16.5 4t8 -13t-10 -22.5t-24 -15.5q-21 -9 -34.5 -29t-16.5 -40q-1 -7 1 -16.5t0 -18.5 q-2 -14 -1.5 -21.5t1.5 -18.5q1 -5 5.5 -9t8.5 0q17 13 29.5 26t23.5 30q5 7 9 16.5t8.5 18t10 15.5t13.5 10z" />
<glyph unicode="t" horiz-adv-x="370" d="M502 519q3 -1 1 -4t-6 -6.5t-8.5 -7t-7.5 -4.5q-18 -13 -39 -16.5t-43 -4t-43.5 -2t-40.5 -11.5q-8 -4 -12 -11.5t-6 -16t-3 -18t-4 -17.5q-6 -18 -13 -36t-13 -37l-17.5 -60.5t-19.5 -58.5q-16 -44 -29 -90t-21 -89q-1 -7 0.5 -14.5t11.5 -5.5q26 6 45 29l36 45 q6 7 11.5 21.5t11 26.5t11 18.5t11.5 -1.5q12 -16 7 -30t-18 -27.5t-29 -27t-25 -27.5q-13 -19 -31.5 -35t-38.5 -25q-9 -4 -19 -11.5t-20 -2.5t-12.5 14.5t-1 20.5t5 23t5.5 23q7 31 16 61t19 59l6.5 17t5 17.5t0.5 16t-7 12.5q-5 3 -8.5 -0.5t-6 -9.5l-5.5 -13t-6 -11 q-8 -8 -11 -19t-11 -19l-40.5 -44.5t-44.5 -40.5q-10 -7 -15 -11.5t-11 -9t-15 -10.5t-26 -16h-5q5 13 17.5 23.5l30 24.5t39 35t44.5 56q26 39 44.5 79t41.5 82q9 16 14.5 32t12.5 33q5 10 9.5 18t7.5 18q3 8 5 15t7 14q4 4 1.5 9t-6.5 5q-26 -2 -54 -2.5t-51 8.5 q-3 2 -4.5 5.5t1.5 8.5q5 5 9.5 12.5t9.5 14t10.5 11t13.5 4.5q10 0 21 -4t21.5 -8.5t21 -6.5t21.5 1q12 4 16.5 13.5t8 20.5t8.5 22.5t18 19.5l12 7t13 6t10 1.5t4 -7.5q-1 -9 -4.5 -17t-7.5 -15.5t-7 -15.5t-1 -17q1 -6 5.5 -8t11 -2.5t13.5 -0.5h13q11 0 19.5 0.5 t20.5 -0.5q10 -1 21.5 0.5l23 3t22.5 1.5t21 -3z" />
<glyph unicode="u" horiz-adv-x="339" d="M-13 24q1 12 9 24t18 23.5l19 21t12 15.5q6 10 9 18.5t8 18.5q2 6 1 13.5t4 12.5q16 13 32 29q12 14 21 11l4 -26q-2 -16 -5.5 -30.5t-4.5 -32.5q-1 -5 1 -8.5t2 -8.5q1 -5 0.5 -10t-0.5 -10q0 -11 4.5 -23.5t21.5 -13.5q11 0 15.5 7.5t7.5 13.5l4 10t5 9 q11 14 16.5 29.5t10.5 31.5q5 14 13.5 24t23.5 19q10 6 15 13t12 7q1 0 1 -2q1 -2 1 -5q0 -2 0.5 -2.5t0.5 -2.5q-5 -29 -9.5 -62.5t-0.5 -62.5q2 -14 3.5 -26.5t14.5 -17.5q11 -5 20 3t16 18q2 2 3 5t3 5q4 5 6.5 13.5t7.5 13.5q6 1 6 -2q0 -2 -4 -8q-8 -17 -19 -31.5 t-23 -28.5q-22 -27 -51 -28q-4 -1 -4.5 -2.5t-2.5 -0.5q-3 1 -6.5 2t-6.5 2q-7 3 -9.5 11l-4.5 14q-3 8 -8.5 18.5t-18.5 8.5q-14 -3 -23 -14.5t-19 -19.5q-21 -16 -40 -15q-15 1 -21.5 13t-12.5 28q-2 5 -2 9v10q0 6 -2 16t-15 9q-18 -3 -27 -17t-21 -28q-3 -3 -7.5 -9 t-3.5 -2z" />
<glyph unicode="v" horiz-adv-x="411" d="M463 414q-9 -11 -14 -23.5t-10.5 -25t-13.5 -25t-24 -22.5q-11 -7 -15.5 -19t-6.5 -24l-10 -9l-16 -30t-15 -30q-5 -11 -12.5 -21.5t-14.5 -21.5l-34 -55.5t-41 -49.5q-15 -13 -38 -20q-5 -1 -9.5 -1.5t-8.5 1.5q-11 5 -14.5 16t-4.5 22q-1 20 3.5 35.5t8.5 34.5 q2 5 1.5 9.5t-6.5 5.5q-8 1 -13 -6t-9 -14q-6 -12 -16.5 -22.5l-19.5 -19.5q-11 -12 -22.5 -31t-23 -34.5t-24 -24t-26.5 -0.5t-9.5 16t17.5 17t29.5 18.5t25.5 20.5q24 30 43 58.5t41 57.5q21 28 32.5 59t32.5 57q10 12 23.5 22t27.5 12q7 1 5.5 -8t-3.5 -14 q-3 -10 -6.5 -19.5t-8.5 -19.5q-14 -24 -19 -50.5t-14 -52.5q-5 -15 -7.5 -32.5t-1.5 -31.5q1 -8 -1 -16.5t5 -8.5q12 0 20 6.5t13.5 15.5t10 19.5t10.5 19.5l20.5 31.5t19.5 32.5q13 23 26 43.5l27 42.5q12 17 26 34t25 37q3 6 11.5 15t16 16t12 10t-0.5 -3z" />
<glyph unicode="w" horiz-adv-x="394" d="M406 278q4 0 5.5 -6t0.5 -14t-4.5 -15.5t-8.5 -9.5q-53 -18 -89 -65q-14 -17 -27.5 -36t-29.5 -35.5t-34 -30t-39 -19.5q-7 -2 -12 0.5t-8.5 7.5t-7.5 10t-9 7t-9 -0.5t-7 -7l-6.5 -9.5t-7.5 -8l-16 -12.5t-20 -11.5q-9 -3 -11 1.5t-1.5 12t2 16.5t-0.5 14q-1 2 1 3.5 t2 3.5l-2 2l3 3q0 15 1.5 29.5t-0.5 30.5q-1 9 -0.5 18t-1.5 18q-6 27 -4 48t-1.5 37t-19.5 27t-58 16q-7 1 -2.5 2.5t14 3.5t20.5 4t17 5q12 5 26.5 8.5t27.5 -1.5q9 -3 13.5 -10t10.5 -15t8.5 -18t3 -21t0.5 -23q0 -11 2 -21q0 -2 0.5 -5t0.5 -6q0 -9 -2.5 -20.5 t5.5 -12.5q7 -2 8.5 7t3.5 15q5 25 23.5 39.5l36.5 29.5q3 2 6.5 -1.5t4.5 -6.5q0 -18 -4 -37.5t-7.5 -39t-3.5 -37.5q0 -17 9 -30q6 -9 12.5 -6.5t13 10.5t13 18t12.5 16q5 6 9 13t9 14q12 16 26.5 33.5t31 32t34.5 24.5t37 11z" />
<glyph unicode="x" horiz-adv-x="339" d="M381 158q8 -2 8.5 -8t-2.5 -12.5t-7.5 -13.5l-7.5 -12l-24.5 -41t-34.5 -33q-23 -13 -47.5 -16.5t-47.5 6.5q-5 2 -7 2.5l-6 1.5q-20 6 -33.5 16.5t-30.5 18.5l-27 14q-8 -7 -14 -15.5t-11 -16.5q-13 -19 -22.5 -38t-22.5 -37q-26 -35 -48 -72.5t-36 -81.5 q-5 -15 -24 -22q-8 -2 -11.5 -1.5t-8.5 -1.5q-5 -1 -7.5 4t-9.5 4l-1 7l-3 -2q-8 11 -4.5 23.5t11.5 23.5q11 15 24.5 27t27.5 27q13 14 24 28l22 29q20 26 37.5 51t28.5 56l5 3q4 10 11 18.5t13 17.5t9 18.5t-3 21.5q-7 14 -7 30t1 32l-6 17l-4 101l8 15.5t6 16.5 q2 4 1.5 5t2.5 3q5 2 9 10t9 2q7 -9 5 -20.5t-6 -23.5t-5 -22.5t7 -16.5t11.5 -10.5t3.5 -8.5t-1 -8t-2 -9q-9 -46 3 -81l1 -3q10 4 14.5 12t11.5 16q11 12 19 23.5t18 23.5q14 18 28 38.5t30.5 38.5t36 30.5t43.5 13.5q11 0 12.5 -9.5t-2.5 -22.5t-11.5 -27t-13.5 -21 q-37 -45 -89 -67q-8 -4 -16 -5t-13 -6q-10 -12 -19 -24t-17 -26q-3 -5 -7.5 -11t-7 -12t-2 -12.5t8.5 -12.5q6 -5 13.5 -13.5t11.5 -16.5q7 -16 19.5 -22t23.5 -15q3 -2 6 0t7 0q5 -2 8.5 0t6.5 0q4 -1 9.5 -1.5t10.5 0.5q26 4 49.5 18.5t34.5 38.5q3 5 6 12.5t7 13.5 q2 3 2 7t-0.5 8t0.5 6t4 1z" />
<glyph unicode="y" horiz-adv-x="291" d="M321 72q12 0 11.5 -10t-20.5 -27q-32 -27 -55 -57l-46 -61q-6 -8 -9.5 -16t-8.5 -17l-17 -35t-14 -36l-11.5 -41.5t-13.5 -41.5q-12 -35 -28 -69t-34 -67q-7 -14 -13 -28t-20 -16q-4 0 -3.5 3.5t3.5 8.5t7.5 10t7.5 7q6 3 7.5 5.5t1.5 5.5q0 2 0.5 4.5t3.5 7.5 q10 15 14.5 31.5t8 34t7.5 35t13 32.5l-2 2q1 7 5 15t5 16q0 7 4 14.5t7 14.5t3.5 12.5t-5.5 10.5q-4 3 -8.5 0t-9 -8.5t-8.5 -11.5t-8 -10q-22 -20 -38 -42.5t-37 -44.5q-7 -7 -12 -15.5t-10 -14.5q-14 -20 -24 -40.5t-18 -43.5l-3 -2q2 -7 0 -14.5t-5 -15.5 q-4 -10 -0.5 -16.5t1.5 -15.5q-7 -28 12 -41q5 -3 10.5 -1.5t10.5 -0.5q2 -1 0 -2t-3 -2l-2 2q-4 -8 -11.5 -12.5t-14.5 -6.5q-4 -1 -8 0.5t-6 3.5l-3 -2l-9 8l4 4q-2 3 -4 3l-2 -3q-3 23 2.5 46.5t13.5 45.5q5 14 9.5 28t12.5 28q6 11 10.5 20t14.5 17l8 21q29 32 54 64 l53 67l7 7t5 7q5 10 13 18.5l16.5 17.5t15 18t7.5 21q0 12 4 20l21.5 71.5t14.5 73.5q1 7 1 9q0 3 -3 10q-2 3 0 8.5t4.5 10t3.5 7t-3 1.5q-15 -6 -29 -21.5l-28 -30.5t-28.5 -24t-31.5 -3q-12 4 -14 16.5t1 28.5t8 33t5 32q1 12 1.5 28t8.5 28q7 12 17 15t20 10q4 2 9.5 4 t7.5 -2q5 -18 -2.5 -37t-15.5 -36q-3 -7 -3 -14t-2 -17q-2 -8 -4.5 -15t-4 -14t-0.5 -13t7 -12q8 -6 14 3t11 14q23 24 41 49.5t47 45.5q7 5 14 14l13.5 17t13 13t14.5 2q8 -4 8 -12q0 -7 -4.5 -16t-11 -18t-9.5 -16q-2 -4 -1.5 -7t-1.5 -8q-15 -33 -24 -68t-22 -69 q-2 -6 -3 -14t7 -13h4q22 20 39 43.5t41 43.5z" />
<glyph unicode="z" horiz-adv-x="278" d="M303 154q10 5 9.5 -7.5t-17.5 -29.5q-31 -29 -55 -58t-47 -60q-6 -8 -9.5 -16t-8.5 -17l-16.5 -35.5t-13.5 -35.5l-11.5 -42t-13.5 -41q-25 -69 -62 -137q-7 -13 -13 -27t-21 -16q-4 -1 -3.5 3t3.5 9t7.5 10t8.5 7q6 3 7.5 5.5t1.5 5.5q0 2 0.5 4.5t3.5 7.5q9 14 14 31 t8.5 34t7.5 34.5t13 32.5l-2 2q0 7 4.5 15t4.5 17q0 7 4 14.5t7 14t4 12.5t-5 10q-5 3 -9 0t-8.5 -8t-8.5 -11t-8 -10q-22 -20 -38.5 -42.5t-37.5 -44.5q-7 -7 -12 -15.5t-10 -15.5q-14 -19 -24 -39.5t-18 -42.5l-2 -3q2 -7 0 -15t-5 -16q-4 -9 -0.5 -16t1.5 -15 q-3 -13 -1 -23.5t13 -17.5q4 -3 9.5 -2t10.5 -1q2 0 0.5 -1.5l-2.5 -2.5l-2 2q-5 -8 -12 -12t-15 -6q-6 -2 -14 4l-2 -2l-10 8l5 5q-1 0 -1.5 1t-2.5 0l-2 -1q-3 21 2.5 44.5t13.5 46.5q5 14 9.5 28t12.5 27q7 11 10.5 20.5t14.5 17.5l8 21q29 32 54 64l53 66l7 7t5 7 q5 10 13 19t16.5 17.5t14.5 18t7 20.5q1 5 1.5 10.5t2.5 10.5l21.5 68t9.5 69q0 3 -1.5 1t-3.5 -6.5l-4.5 -10.5t-3.5 -9q-2 -8 -5.5 -14t-11.5 -11q-11 -6 -21 -13.5t-21 -11.5l-2 2q6 22 13 43.5t11 41.5t8 38l8 37l-5 6q-7 -3 -11 -7t-7 -9.5l-6 -11t-7 -9.5 q-11 -12 -17.5 -26.5t-11.5 -29.5q0 -5 -5 -11q-4 -5 -5.5 -12t-7.5 -6q-8 1 -8 14t4 23q2 7 6.5 11.5t8.5 11.5q9 19 20.5 37t24.5 35l39 56t54 44q4 2 10 1.5t4 -8.5q-3 -17 -9 -32l-12 -30t-11 -31t-6 -33q-1 -5 3 -3t7 3l5 4q10 2 19 -1.5t13.5 -12.5t3 -23t-12.5 -33 q-3 -6 -2.5 -12t1.5 -12t0.5 -12t-4.5 -12q-1 -1 -2.5 1.5t-3.5 0.5q-3 -6 -5 -16t6 -15h4q11 10 20 22t17.5 24.5t18.5 23t24 17.5z" />
<glyph unicode="{" horiz-adv-x="343" d="M393 722q-11 0 -27 1.5t-21 2.5q-6 0 -16 -2l-7 -2q-1 -1 -2 -1h-1l-3 1l-7 4q-10 4 -13 5q-5 1 -12 1t-15 -2.5t-15.5 -8.5t-11.5 -18q-1 -2 -4.5 -12l-8 -22.5t-9 -26.5t-8.5 -25q0 -3 -0.5 -6.5t-0.5 -5.5l-8 -29l-13 -48q-7 -25 -11.5 -47t-2.5 -30l-35 -171 q-2 -3 -2 -8v-11q1 -4 1 -10q0 -1 1 -1t-1 -1q-6 -18 -8.5 -27.5t-4.5 -20.5t-4 -26t-8 -41q-1 -4 -2 -18.5t-1.5 -31.5t-1 -32t-0.5 -20q-2 -6 8 -9q3 -1 13 -3q5 -1 8.5 -1.5t0.5 -8.5q21 -5 32 -7t18 -4q13 -3 16 -5q4 -2 6 -4l8 -8l8.5 -8.5t11.5 -10.5q-1 -1 -1 -2h-1 q-7 -5 -14 -5.5t-15 -0.5q-7 0 -10 -1.5t-9 -3.5q-4 -2 -5 -2q-1 3 -5 4q-2 0 -7 -2t-11.5 -5l-12.5 -6l-8 -4q-8 -3 -13.5 -8t-10.5 -11q-3 -2 -6 -5.5t-6 -6.5l-13 -13q-8 1 -10 1.5t-2.5 1t-1.5 1t-5 1.5q-7 1 -11 1.5t-4 5.5q0 4 -2.5 6.5l-4.5 4.5l-1 1q-1 0 -1 1 q-2 6 -2 16q0 5 0.5 10.5t0.5 10.5v1l1 2l4 10l3 9t2 5l6 6q6 6 8 11t3 13v6q0 4 1 7q5 27 5 54q0 28 2 54q1 14 5 34t6 37q1 7 0 14t0 16q0 11 3 24t3 24q1 6 -3 14q-1 4 -2 7.5t-1 8.5v13t1 13q0 19 -6 21q-4 0 -6 -1.5t-4 -3.5l-2 -3q-1 -1 -1 -2t-2 -1v2l-1 2q-2 4 -2 8 t-1 9q-1 4 -1 8t-2 7l3 5q3 3 10.5 9t9.5 5q5 0 15 -10l5 4l1 1q0 1 1 2v1l2 4q1 3 4 16t6 29.5l6.5 34.5t5.5 31q1 4 0 8.5t-2 8.5t-2 8.5t-1 9.5q-5 2 -1 7t8 12q7 9 10 16q4 10 1 15q-1 1 1 4t5 6t5 6q5 6 8.5 12.5t0.5 14.5q4 6 6 11l4 10t4.5 9t4.5 8q3 4 14 13 l3.5 3.5l3.5 3.5l4 4t6 7q-8 4 -11.5 13t-5.5 19q-2 6 -2.5 11t-2.5 10v2q28 -2 41 -4.5t17.5 -4.5t3.5 -3.5t1 -1.5q4 0 9 3l4 2q44 -11 71 -19t41 -13q6 -2 8 -3z" />
<glyph unicode="|" horiz-adv-x="175" d="M75 3q-2 8 -7 15.5t-9 15t-4.5 15.5t5.5 17q11 17 20 41t15 51t10 55.5t5 54.5q2 40 3.5 62.5t2.5 34t1.5 15t0.5 6.5t-0.5 7.5t-2.5 18.5t-5 39.5t-7 70.5q-5 50 -14.5 103t-20.5 102q-4 16 -5.5 34.5t9.5 26.5q6 5 11.5 5.5t10.5 -7.5q14 -22 20.5 -48.5t14.5 -49.5 q13 -36 17.5 -71.5t6 -72t2 -74.5t5.5 -77q2 -20 -3 -39t-5 -39q0 -34 -2 -59.5t-5 -47t-7 -41l-8 -40.5q-3 -16 -4 -32.5t-3.5 -32.5t-6.5 -30t-12 -24q-3 -4 -6.5 -10t-7.5 -9t-8 -0.5t-7 14.5z" />
<glyph unicode="}" horiz-adv-x="343" d="M47 -65q12 1 28 -1t21 -2q6 -1 16 2l7 2h3l3 -1l6 -3q8 -5 14 -5q4 -1 11 -1t15 2.5t15 8.5t12 18q1 2 4 12t7.5 22.5l9.5 26.5l9 25q0 2 0.5 6t0.5 6q2 6 8.5 28.5l13.5 48.5q6 25 10.5 46.5t3.5 29.5l34 171q4 7 2 19q0 3 -0.5 6t-0.5 5q0 1 -1 1t1 1q7 17 9 27l4 21 t4 25.5t8 40.5q1 4 2 18.5t2 31.5t1.5 32t0.5 20q0 6 -8 9q-3 2 -6 2t-7 2q-5 1 -9 1.5t-1 7.5q-20 5 -31.5 7t-18.5 4q-13 3 -16 5q-2 1 -2.5 2t-2.5 3q-4 3 -8 8q-4 3 -8.5 7.5t-12.5 11.5h1q0 1 1 1v1q8 5 14.5 5.5t14.5 0.5q7 0 10 1.5t10 3.5q1 1 2 1t2 1q2 -4 6 -4 q1 0 6.5 2t12 5t12.5 5.5t8 3.5q13 7 24 19q2 3 5 6t6 7l6 6t7 6q7 -1 9.5 -1.5l2.5 -0.5q1 0 1.5 -0.5t5.5 -1.5q15 -2 15 -7t2.5 -7t5.5 -4l1 -1l1 -1q1 -3 1 -16v-11q0 -5 -1 -10q0 -2 -1 -4l-3 -10q-2 -5 -3.5 -8l-2.5 -5q-2 -2 -3 -3.5t-3 -3.5q-9 -9 -10 -23 q-1 -5 -1 -14q-5 -27 -5.5 -54t-2.5 -53q-1 -14 -5 -34.5t-6 -37.5q-1 -7 0.5 -14t-0.5 -15q0 -11 -2.5 -24t-3.5 -24q0 -4 1 -7.5t2 -7.5q3 -6 3 -16q1 -5 0.5 -12t-0.5 -14q-1 -8 1.5 -14t4.5 -6q6 0 9 5l2 2q2 4 4 3v-1l1 -3q2 -10 2 -17q2 -10 3 -14l-3 -5q-3 -3 -10 -9 t-10 -5q-2 0 -5.5 2t-9.5 8l-4 -5q-2 -2 -2 -3l-1 -1v-1q0 -1 -1 -2q-1 -3 -4 -16l-6.5 -29.5t-6.5 -35l-5 -31.5q-1 -6 1 -16q1 -5 2 -9t2 -10q5 -2 1 -6.5t-9 -11.5q-2 -5 -4.5 -8.5t-4.5 -7.5q-6 -11 -1 -16q0 -1 -2 -3q-2 -3 -5 -6t-5 -6q-5 -7 -8 -13.5t-1 -13.5 q-3 -7 -5.5 -11.5t-4.5 -9.5q-3 -9 -9 -18q-2 -3 -5.5 -6t-7.5 -6q-5 -5 -8 -7q-2 -2 -3.5 -4l-5.5 -7q8 -4 11 -13t5 -20q2 -5 2.5 -10.5t2.5 -9.5l1 -3q-29 3 -41.5 5t-17 4t-4 3.5t-1.5 2.5q-3 0 -5 -1t-4 -3q-2 -1 -3 -1q-45 11 -72 18.5t-41 12.5q-6 2 -8 3z" />
<glyph unicode="~" horiz-adv-x="324" d="M282 663q-6 -5 -13.5 -6t-12.5 -9q-8 -4 -16 -5.5t-15 -6.5q-9 -2 -19 -5t-19.5 -5t-19.5 -2t-19 5q-17 3 -32 16q-8 3 -17.5 4.5t-17.5 4.5q-11 0 -22 -3t-22 -4q-2 2 -2 3q0 2 -2 4q2 5 6.5 7t8.5 6q10 1 16.5 9t17.5 8q9 11 23 11.5t27 -2.5l13 -11q3 -2 6 -3t5 -5 q14 -2 27.5 -9.5t29.5 -0.5q8 4 18 5.5t17 9.5q8 2 17 4t17 -3q1 -5 1.5 -8.5t-1.5 -8.5z" />
<glyph unicode="&#xa1;" horiz-adv-x="247" d="M150 385q7 0 8 3q2 4 0 6t-4 5h-3q6 14 20.5 16.5t25.5 8.5q-1 -2 3 -6l11 8q0 -3 2.5 -5.5t5 -4.5t2.5 -5t-4 -6q4 -5 1 -10t-5 -10q-5 -8 -11.5 -11.5t-14 -6t-14.5 -5.5t-13 -9h-16l6 32v0zM42 -75q0 4 -2.5 7.5t-4.5 7.5t-2.5 8t4.5 9q16 6 26.5 17.5t19 25 l16.5 27.5t19 26q6 26 9.5 37.5t5 15.5t2.5 5t2.5 6t4.5 18.5t9 43.5q-5 25 -2 52t-1 52q0 8 2 16.5t12 13.5q8 -1 11.5 0t9.5 -3q8 -12 8.5 -26t11.5 -25q3 -19 1 -37t-6 -36l-8 -36.5t-3 -38.5q-5 -10 -10 -19t-10 -19q-8 -33 -22 -52l-29 -39q-9 -16 -17 -32t-27 -25 q-3 -2 -7.5 -4.5t-9 -3.5t-8 0.5t-5.5 7.5z" />
<glyph unicode="&#xa2;" />
<glyph unicode="&#xa3;" />
<glyph unicode="&#xa4;" horiz-adv-x="206" d="M116 611q-5 -5 -9 -14.5t-5.5 -19t-1 -16.5t4.5 -5q7 3 13.5 12t9.5 18.5t1.5 17t-9.5 7.5h-4zM104 504q-4 -4 -8.5 -10t-9.5 -9q-2 -2 -6.5 -3.5t-7.5 -1.5q-11 0 -18 7.5t-8 15.5t-2.5 11t-1.5 9q1 16 7 37.5t18 34.5l14 13.5t13 15.5q7 11 14 17t13.5 10.5t14.5 8 t17 9.5l2 1h1q5 0 6 -5t7 -6q8 -2 6 -13.5t1 -18.5q5 -14 -2.5 -31.5t-20.5 -34.5t-27 -32.5z" />
<glyph unicode="&#xa5;" horiz-adv-x="397" d="M291 193q-5 0 -12 3t-13 4q-28 4 -48.5 -4t-23.5 -18t16 -18.5t70 -5.5q12 1 20 -6.5t6 -18.5q-1 -4 -6 -12t-11 -8t-13 3t-12 4q-30 4 -45.5 6.5t-23.5 -0.5t-12.5 -14l-13.5 -34l-11.5 -33.5l-12.5 -37.5q-1 -2 -2.5 -4.5t-2.5 -5.5q-1 -2 -0.5 -9.5t-0.5 -13.5 l-4 -12.5t-3 -14.5q-1 -4 -3.5 -10l-4.5 -11q-2 -14 -3.5 -34.5t-3.5 -32.5q-1 -5 -3 -12l-4 -14q-1 -3 0.5 -6.5t1.5 -7.5q-1 -14 -2.5 -29t0.5 -29q2 -9 3.5 -19t4.5 -20q2 -7 6.5 -15t7.5 -14q2 -4 7 -8.5t10 -9.5q4 -4 14 -5l20 -2l1 -1q0 -1 1 -2l-1 -4q-5 -3 -12 -5.5 t-10 -2.5q-2 0 -6 2t-9 5t-9.5 5t-5.5 2q-3 0 -3.5 -1.5t-3.5 -1.5t-9.5 2.5t-9.5 5.5q-5 5 -9 14.5t-7 17.5q-2 5 -6 11.5t-3 12.5q1 30 0.5 67t7.5 67v1l-2 1q2 6 3.5 16.5t1.5 17.5q1 17 5.5 36.5t8.5 39.5q1 1 4 6q-1 16 3.5 34t9.5 47q0 3 2.5 7.5t3.5 8.5q4 22 7 31 t0.5 10.5t-12 -0.5t-28.5 -2q-3 0 -10 2t-14.5 5.5t-13 8t-4.5 9.5q1 4 6 7t11 3q8 0 23.5 2.5t22.5 0.5q13 -3 19 -0.5t8.5 8.5t3 14.5t2.5 16.5q2 9 -3 11t-13 1t-18 -3t-18 -2q-3 0 -10 2t-14.5 5.5t-12.5 8t-4 9.5q0 4 5 7t12 3q8 0 23 2.5t23 0.5q9 -3 18.5 0t18.5 3 q2 0 10 -2q5 15 10.5 30t10.5 26q2 6 6 14l8 16.5l7 15t3 8.5q2 5 0 10q-1 2 -3 5t-4 7q-1 2 0 5t-1 5q-2 4 -7 8t-8 7q-2 2 -1.5 6.5t-1.5 7.5q0 1 -2.5 2t-3.5 3l-7 16.5t-8 17.5q-2 2 -1.5 6t0.5 7q-6 4 -9 15.5t-8 20.5q0 1 1.5 3.5t-0.5 4.5q-8 12 -11.5 27t-6.5 30 q-3 12 -6.5 29t-2.5 20q2 8 12.5 17t23 16t25 11.5t18.5 4.5q25 0 28 -28q1 -9 -0.5 -19.5t-1.5 -19.5q0 -1 2 -3t2 -4q1 -13 4.5 -25.5t6.5 -24.5q6 -21 13 -40t15 -30q3 1 4 4q7 21 15.5 35t13.5 34q2 8 6 14.5t7 13.5q2 4 7 10t7 10q8 13 14.5 29t14.5 30l22 36l24 40 q2 2 4 3.5t3 3.5q2 3 4.5 7.5t4.5 8.5q0 1 2.5 2.5t4.5 3.5q2 3 3.5 7.5t4.5 6.5q14 11 21.5 17.5t20.5 10.5q3 2 6 4.5t6 4.5q2 1 6.5 2t7.5 1q6 0 7 -2q1 -1 3.5 0t3.5 0q3 -1 6.5 -4.5t5.5 -6.5l1 -1l-1 -3t-2 -4t-3 -4t-3 -9.5t-3 -12.5q-2 -5 -8.5 -11.5t-10.5 -14.5 q-10 -19 -17 -28l-15 -20q-2 -2 -2 -5q0 -2 -2 -4q-5 -8 -11.5 -15t-11.5 -15q-2 -2 -2 -7t-3 -8q-5 -8 -10.5 -18.5t-7.5 -15.5q-4 -10 -10.5 -20.5t-12.5 -21.5q-2 -3 -4.5 -9.5t-6.5 -14.5l-8 -15.5t-7 -12.5q-2 -4 -2 -9v-9q0 -8 -2 -7t-3 0q0 -2 1 -2t2 -0.5t0.5 -3 t-4.5 -9.5q-3 -5 -4 -6q0 -10 -1 -23.5t-2 -16.5l-20 -82q-1 -3 -1.5 -2.5t-1.5 -0.5q1 -4 -4.5 -10.5t-13.5 -12.5t-16.5 -10t-12.5 -4q-3 0 -2 1t-2 1q-9 0 -15 -6t-10.5 -14.5t-7.5 -16.5t-6 -12q-1 -1 -1.5 -2t-1.5 -2q11 -2 21.5 -2.5t24.5 0.5q11 1 19.5 -7t6.5 -18 q-1 -4 -6 -12t-12 -8z" />
<glyph unicode="&#xa6;" />
<glyph unicode="&#xa7;" />
<glyph unicode="&#xa8;" horiz-adv-x="372" d="M152 670q-11 -10 -22 -17t-24 -9q-6 -1 -10.5 2t-8 8t-4.5 10.5t1 9.5q7 14 22.5 25t32.5 11l3 -11q2 -3 6 -6t6.5 -7t2.5 -8t-5 -8zM291 667q-11 -10 -22 -17t-24 -9q-6 -1 -10.5 2t-8 8t-4.5 10.5t1 9.5q7 14 22.5 25t32.5 11l3 -11q2 -3 6 -6t6.5 -7t2.5 -8t-5 -8z " />
<glyph unicode="&#xa9;" />
<glyph unicode="&#xaa;" horiz-adv-x="250" d="M216 393q-16 -10 -33.5 -19.5t-36.5 -3.5q-8 3 -13 11.5t-7 17.5q0 3 -3.5 1.5t-5.5 -3.5q-15 -12 -28 -25.5t-34 -19.5q-6 -2 -13 -0.5t-8 7.5q-1 7 1 15t6 15l7.5 14.5l7.5 14.5q5 12 10.5 23t13.5 22q11 14 24.5 25t30.5 17q8 3 9.5 -2.5t0.5 -10.5q-3 -12 -10 -25.5 t-21 -16.5l-15.5 -3.5t-9.5 -6.5q-9 -13 -14 -33q-2 -7 -5 -16t5 -10q9 -2 15.5 2.5t11.5 12t9.5 15.5t9.5 14q7 8 12 17t11 17v5q9 7 17 16t19 7q8 -1 2.5 -8t-6.5 -12q0 -8 -2.5 -16t-4 -15.5t-2 -15t3.5 -14.5q3 -7 11 -7q9 0 17 2q5 1 8.5 3t8.5 2q3 0 2.5 -5.5 t-2.5 -7.5z" />
<glyph unicode="&#xab;" horiz-adv-x="312" d="M227 391q5 -2 10 -1.5t9 -1.5q7 -3 14 0t13 -1q5 -3 11 -4t9 -6q2 -5 -1.5 -6t-5.5 -1q-18 0 -38 -12t-34 -23q-5 -4 -9 -13t-8 -14q-6 -9 -2.5 -19.5t8.5 -18.5l3.5 -9t5.5 -7q3 -3 7 -4t8 -4q5 -2 7 -5t6 -8q6 -5 10 -11t11 -8q8 -3 11.5 -6.5t11.5 -4.5q3 0 5 -3.5 t2 -6.5q-3 -8 -11.5 -7l-16.5 2t-15 6t-13 10q-7 5 -11.5 9.5t-12.5 9.5q-20 12 -29 28q-5 8 -9.5 17.5t-9.5 18.5q-5 8 -3.5 16t-1.5 17q-1 3 1.5 8l5.5 10.5t6 10t3 7.5q2 10 14.5 15.5t20.5 10.5q9 5 9 8t9 1zM107 411q5 -2 10 -1.5t9 -1.5q7 -3 14 0t13 -1q5 -3 11 -4 t9 -6q2 -5 -1.5 -6t-5.5 -1q-18 0 -38 -12t-34 -23q-5 -4 -9 -13t-8 -14q-6 -9 -2.5 -19.5t8.5 -18.5l3.5 -9t5.5 -7q3 -3 7 -4t8 -4q5 -2 7 -5t6 -8q6 -5 10 -11t11 -8q8 -3 11.5 -6.5t11.5 -4.5q3 0 5 -3.5t2 -6.5q-3 -8 -11.5 -7l-16.5 2t-15 6t-13 10q-7 5 -11.5 9.5 t-12.5 9.5q-20 12 -29 28q-5 8 -9.5 17.5t-9.5 18.5q-5 8 -3.5 16t-1.5 17q-1 3 1.5 8l5.5 10.5t6 10t3 7.5q2 10 14.5 15.5t20.5 10.5q9 5 9 8t9 1z" />
<glyph unicode="&#xac;" />
<glyph unicode="&#xad;" />
<glyph unicode="&#xae;" />
<glyph unicode="&#xaf;" />
<glyph unicode="&#xb0;" horiz-adv-x="206" d="M127 684q-3 0 -4 -1q-5 -4 -9 -13.5t-5.5 -19.5t-1 -16.5t4.5 -4.5q7 3 13.5 11.5t9.5 18.5t1.5 17.5t-9.5 7.5zM111 577l-8.5 -11t-9.5 -9q-2 -2 -6.5 -3t-7.5 -1q-11 0 -18 7.5t-8 15.5t-2.5 11t-1.5 8q1 17 7 38.5t18 33.5l14 14t13 16q7 10 14 16.5t13.5 10.5t14.5 8 t17 10h3q5 0 6 -5t7 -6q8 -2 6 -13t1 -19q5 -14 -3 -31t-20.5 -34t-26.5 -32.5z" />
<glyph unicode="&#xb1;" />
<glyph unicode="&#xb2;" />
<glyph unicode="&#xb3;" />
<glyph unicode="&#xb4;" horiz-adv-x="225" d="M147 710q5 4 9.5 1.5t9.5 -3.5q5 -5 3 -12t-1 -14q-1 -6 0.5 -12t-2.5 -11q-2 -3 -1.5 -8t-3.5 -8q2 -8 -4.5 -11t-12.5 -8q-2 -1 -3 -4t-4 -2q-3 -3 -5.5 -7t-7.5 -6q-3 -8 -9.5 -12t-11.5 -10q-2 -4 -4.5 -6t-4.5 -6q-8 -5 -14.5 -11t-14.5 -11l1 -1q-7 0 -7.5 4 t-3.5 9l3.5 8.5l3.5 8.5q3 2 1.5 5.5t3.5 3.5q-1 3 0.5 4.5t4 2.5t4 2.5t0.5 5.5q8 4 12 11.5t10 12.5l14 15.5t12 19.5q11 8 16 22.5t7 26.5z" />
<glyph unicode="&#xb5;" />
<glyph unicode="&#xb6;" />
<glyph unicode="&#xb7;" />
<glyph unicode="&#x2219;" />
<glyph unicode="&#xb8;" />
<glyph unicode="&#xb9;" />
<glyph unicode="&#xba;" horiz-adv-x="219" d="M182 479q0 -15 -2.5 -26t-7.5 -21t-11.5 -20.5t-13.5 -24.5q-5 -10 -12 -14t-14 -10q-6 -5 -15 -9.5t-20 -5.5q-19 -2 -29 5q-11 8 -14.5 16.5t-3 17t2.5 18l4 18.5q1 12 3.5 16.5t5 6t6 2.5t7.5 6q11 12 18.5 18.5t15.5 11t19 9t29 12.5q5 2 10.5 0t10 -6.5t8 -10 t3.5 -9.5zM122 397q9 7 16 17t8 19t-5 16t-23 9q-19 2 -21.5 -7t-1.5 -22q1 -8 -2 -15.5t-4.5 -14t0.5 -11.5t13 -7q10 -2 12.5 4.5t7.5 11.5z" />
<glyph unicode="&#xbb;" horiz-adv-x="329" d="M244 198q-5 1 -10 1t-9 2q-7 2 -14.5 -1t-12.5 1q-5 3 -11 4.5t-9 6.5q-2 4 1 5t6 1q18 0 38 12t34 23q5 4 9 13t7 14q7 9 3.5 19.5t-8.5 18.5l-3.5 9t-5.5 7q-3 3 -7 4.5t-8 3.5q-5 2 -7 5.5t-6 7.5q-6 5 -10 11.5t-11 8.5q-8 3 -11.5 6t-11.5 4q-3 0 -5.5 3.5t-1.5 6.5 q2 8 11 7.5t17 -1.5q8 -2 14.5 -7l13.5 -10t11.5 -9.5t12.5 -9.5q20 -12 29 -28q5 -8 9.5 -17.5t9.5 -17.5q5 -9 3.5 -17t1.5 -17q1 -3 -1.5 -8l-5.5 -10.5t-6 -10t-3 -7.5q-2 -10 -14.5 -15.5t-20.5 -10.5q-9 -5 -9 -8t-9 0zM104 208q-5 1 -10 1t-9 2q-7 2 -14.5 -1 t-12.5 1q-5 3 -11 4.5t-9 6.5q-2 4 1 5t6 1q18 0 38 12t34 23q5 4 9 13t7 14q7 9 3.5 19.5t-8.5 18.5l-3.5 9t-5.5 7q-3 3 -7 4.5t-8 3.5q-5 2 -7 5.5t-6 7.5q-6 5 -10 11.5t-11 8.5q-8 3 -11.5 6t-11.5 4q-3 0 -5.5 3.5t-1.5 6.5q2 8 11 7.5t17 -1.5q8 -2 14.5 -7l13.5 -10 t11.5 -9.5t12.5 -9.5q20 -12 29 -28q5 -8 9.5 -17.5t9.5 -17.5q5 -9 3.5 -17t1.5 -17q1 -3 -1.5 -8l-5.5 -10.5t-6 -10t-3 -7.5q-2 -10 -14.5 -15.5t-20.5 -10.5q-9 -5 -9 -8t-9 0z" />
<glyph unicode="&#xbc;" />
<glyph unicode="&#xbd;" />
<glyph unicode="&#xbe;" />
<glyph unicode="&#xbf;" horiz-adv-x="228" d="M84 374q3 9 2.5 18.5t0 17.5t5 14t18.5 8q11 2 24 5t25 -2q11 -4 8 -16t-7 -23q-3 -10 -9.5 -14t-14.5 -6t-17 -3t-18 -5q-5 -2 -12 -0.5t-5 6.5zM72 49q-3 14 -2 23.5t3.5 17.5t6 15t5.5 16q3 13 1.5 17.5t4.5 15.5q0 1 4.5 11.5l9.5 23l9 23t4 11.5q-2 7 -5.5 13 t-5.5 12.5t0.5 15.5t13.5 21q2 3 7.5 -2.5t11 -14t10 -17t5.5 -12.5q3 -15 0.5 -26t-8.5 -20.5l-12.5 -19.5t-10.5 -22q-2 -8 -5.5 -19.5t-1.5 -18.5q2 -6 7 -9.5t10 -2.5q8 2 10.5 -2.5t7.5 -6.5q3 0 2.5 -3.5t0.5 -5.5q1 -7 1 -18t-2.5 -22.5t-7 -21t-11.5 -13.5 q-8 -4 -15.5 -0.5t-13.5 9.5q-2 2 -6 1.5t-9 0.5q-8 2 -12.5 11.5t-6.5 18.5z" />
<glyph unicode="&#xc0;" horiz-adv-x="744" d="M379 363q1 3 1 5q0 3 1 5q-5 1 -9.5 2.5t-8.5 1.5h-24q-48 2 -93 -8t-98 -30q-5 -2 -12.5 -4t-12.5 -4q-11 -6 -25.5 -12t-22.5 -11l-29 -20t-22 -25q-2 -4 3 -10.5t12 -13.5t13.5 -12.5t9.5 -6.5q11 17 29.5 30.5t40.5 25t44 20l40 15.5q11 5 24 9t24 7q15 5 31 9.5 l27 7.5q12 4 24 6.5t24 6.5q8 2 9 6zM344 277q1 3 0 5t1 4q5 7 9 16t3 15q-26 3 -57 -5.5l-62 -16.5q-2 -1 -5 -3t-5 -2q-9 -2 -24 -8t-31.5 -13.5t-32.5 -16.5t-26 -17q-8 -6 -14.5 -15t-11.5 -17q1 -1 10.5 -5t11.5 -5q3 0 2.5 1t2.5 0q2 -1 8 -5t9 -4q3 -1 5 0t4 1 q17 -3 39 -4.5t40 -0.5q14 0 29 2l30 4q5 1 12 1t10 4q10 12 15.5 25.5t13.5 27.5q2 2 1.5 5t0.5 5q3 5 7 12.5t5 9.5zM600 -107q5 10 6.5 24t-0.5 25q0 7 2.5 15t2.5 14q0 4 -0.5 8.5t-0.5 7.5q0 14 -2.5 26.5t-3.5 26.5q0 4 1 5q0 1 1 2q0 2 -2 7t-3 7q-2 6 -4 15t-5 17 q-2 3 -0.5 7.5t0.5 7.5q-3 3 -6 3q-2 -11 -2.5 -30t-1.5 -33q-1 -11 -4.5 -22.5t-3.5 -25.5q0 -7 -1 -15t-1 -15q-1 -8 1 -17t4 -17q1 -2 0 -9t-1 -14q0 -8 2.5 -14.5t8.5 -7.5q7 0 13 2zM551 251q-1 6 -1 12t-1 11t-3.5 9t-2.5 8q-1 3 2 6.5t2 5.5q-3 2 -4 6.5t-3 6.5 q-3 5 -7 10l-8 10q-2 3 -6.5 4.5t-6.5 3.5t-6 5t-6 3t-9 -1l-17 -2.5t-20 -3.5t-16 -2q-15 -26 -22.5 -47.5t-18.5 -42.5q-2 -5 -8 -15.5t-7 -13.5q-2 -2 -2.5 -7.5t-1.5 -10.5l41.5 9t45.5 11t45 12.5zM570 351q2 3 1 6t-2 5q-2 1 -3 2t-3 1q-3 1 -7.5 0t-8.5 -1 q5 -7 10 -13t10 -8zM585 291q4 5 3 10t1 10q0 1 2.5 9t4.5 17.5t1.5 17.5t-5.5 9q-2 0 -6 -0.5t-6 0.5q-2 -4 -4 -7.5t-3 -5.5q5 -3 5 -6l-4 -12t-1 -11q0 -8 4 -17t8 -14zM575 395q8 44 12 100t-1 111q0 4 -3.5 5.5t-6.5 3.5l-31 -58.5l-34.5 -64l-28 -52t-11.5 -22.5 l-6 -16q5 -1 12.5 -3.5l15 -5t13 -5t7.5 -2.5t11 0.5t19.5 2t20 3.5t11.5 3zM707 327q2 5 2 10q0 6 -8 10q-2 1 -5 1q-2 0 -4 1t-3 3.5t-3 2.5q-5 3 -14.5 5.5t-11.5 3.5q-3 0 -6.5 -1t-6.5 0q-3 0 -5 2.5t-5 3.5q-2 1 -6.5 0.5t-6.5 -0.5l-2 -5q-2 -15 -2.5 -30t-3.5 -29 q-2 -10 -4.5 -20.5t-2.5 -15.5q11 2 23.5 6.5l25.5 9.5q7 3 13 8.5t11 9.5q2 0 4 0.5t3 0.5q4 4 10 12.5t8 10.5zM609 -179q-1 -2 -4 -7.5t-7 -12l-7 -11.5t-4 -6q-8 -5 -14.5 -6.5t-11.5 -2.5q-1 -1 -3 -2.5t-5 -0.5q-4 1 -6 5q1 4 4 9t3 10q1 3 -0.5 6.5t-1.5 5.5 q1 2 1.5 5.5t1.5 6.5q0 13 -2.5 29t-1.5 32q0 2 1.5 7.5t0.5 8.5q0 11 -1.5 24.5t-1.5 27.5q0 2 1.5 5l2.5 5q-2 4 -2 5l4 40t3 41q0 3 -1.5 9t0.5 12q2 14 4 33.5t4 33.5q1 3 -0.5 7.5l-3.5 10.5q0 2 1.5 5l2.5 5q1 6 1.5 13t-0.5 14q-1 4 -2 8.5t-2 9.5q0 1 1 3.5t1 4.5 t-1.5 4.5t-2.5 4.5q-2 -1 -1 -0.5t-1 -2.5q-3 -7 -4 -17t-1 -20q0 -9 -0.5 -18t-1.5 -15q0 -3 -3 -7.5t-3 -9.5q-1 -8 -0.5 -18.5t-0.5 -18.5t-3.5 -18t-4.5 -21q0 -1 1 -3.5t1 -4.5l-4.5 -28t-3.5 -28q0 -2 1 -4.5t0 -4.5q-2 -9 -1.5 -19.5t-1.5 -21.5q0 -5 2.5 -11 t3.5 -12q1 -21 1 -43q0 -23 -2 -46q-2 2 -5.5 7t-6.5 10q-1 2 -0.5 5t0.5 5q0 5 -0.5 14.5t-0.5 17.5q1 15 0 33t1 30q0 4 -1 10t0 13q2 32 4 60t7 57q1 6 0.5 19t0.5 21q1 4 3 10t2 12q0 8 1.5 19t3.5 22t3 20.5t0 14.5q-2 0 -12 -2q-11 -3 -24.5 -8t-27.5 -9 q-5 -2 -10 -1.5t-10 -1.5q-13 -4 -26.5 -6.5t-27 -5.5t-26 -8.5t-22.5 -14.5q-11 -10 -19.5 -26.5t-14.5 -33t-9.5 -29t-4.5 -13.5q-3 -6 -2 -8.5t3 -3.5l4 -2t1 -3t-7.5 -3.5t-8.5 -4.5q-7 -10 -15.5 -31t-17.5 -38q-5 -10 -9.5 -23.5t-9.5 -24.5l-7 -14l-7.5 -15l-6.5 -13 t-4 -7q0 -1 -4 -11.5t-8.5 -23.5l-8.5 -25.5l-6 -18.5l-28.5 -94.5l-28.5 -95.5q-5 -2 -11.5 -6.5t-9.5 -4.5q-2 1 -9 1t-10 1q-2 0 -4.5 2t-1.5 4q2 5 5 11t5 11q1 2 0 5.5t0 5.5q6 16 13 32.5t11 33.5q5 17 14.5 41.5l17.5 46.5q2 7 3 11.5t6 18.5q2 5 4.5 12t4.5 14 q2 2 1 4.5t0 4.5q2 7 6.5 14t7.5 14q2 5 2 13q0 7 1 12q0 3 2.5 7t3.5 7q1 2 0.5 5t0.5 5l5 17t6 19t5 16t3 8q1 3 18 43.5l55 135.5v1l-2 1q-2 0 -14 -3t-21 -4q-17 -1 -37.5 -0.5t-39.5 -0.5q-4 0 -10 -1.5t-9 -0.5q-2 0 -10 1t-17 1.5t-17.5 1.5t-9.5 1q-2 1 -8.5 3.5 t-8.5 2.5q-8 1 -11 -6q-4 -10 3 -27t13 -26q1 -2 3 -2.5t3 -2.5q2 -2 3 -4.5t3 -4.5q8 -5 20 -13.5t23 -12.5l20 -8.5t16 -6.5h12q11 0 14 -1q3 0 3 -8q-8 2 -18.5 2.5t-13.5 1.5q-1 0 -5.5 1.5t-9.5 3.5t-9.5 4t-5.5 2q-2 0 -4.5 -0.5t-5.5 0.5q-2 0 -5.5 4t-6.5 4 q-2 1 -2.5 -1t-3.5 -1q-2 1 -6 4.5t-8 5.5q-2 1 -5 1t-6 1q-4 2 -9 7t-9 10q-2 2 -5 2t-5 2l-21 27t-14 31q0 1 1 3.5t1 4.5q0 5 0.5 11t-3.5 10q-2 2 -13.5 8t-16.5 12q-8 8 -14 21.5t-4 23.5q1 1 0 2.5t1 4.5q3 7 14 17t24.5 19t26 15.5l16.5 8.5l22 8.5t22 9.5 q38 16 79 27.5t72 16.5q14 2 34.5 6t32.5 6q13 2 30.5 3t32.5 3q5 9 10 22t6 16l27 66q1 1 5.5 12t11 25l13 29l11.5 26q7 15 15 35.5t16 43.5q2 4 3 10.5t2 8.5q3 8 11.5 18.5t22.5 16.5q9 4 14 5.5t8 3t5 4t4 8.5q1 2 3 19t3 29q0 1 2 3t1 4q0 5 -0.5 10t1.5 10 q4 8 7.5 19.5t7.5 21.5q-2 3 0 7q1 2 7 6t12 6q9 3 19 6t17 2q8 -2 13 -9.5t7 -16.5t2 -19q0 -9 -1 -13q-3 -8 -8 -17.5t-6 -18.5v-24q0 -18 0.5 -42.5t0.5 -50.5v-47q-1 -18 -3 -39.5l-4 -41.5t-7 -43t-10 -40q-4 -13 -6.5 -30t-7.5 -28q-2 -5 -2 -13q0 -7 -2 -14l14 -3 q2 0 7.5 1t8.5 0q1 0 6.5 -1t12.5 -3l14.5 -4t12.5 -3q2 -2 9.5 -5.5t11.5 -7.5q2 -3 5 -7t5 -6t1.5 -10t-0.5 -11q0 -2 2 -5.5t0 -5.5q-1 -3 -4.5 -10t-7.5 -11q-3 -3 -8 -6.5t-10 -7.5q-1 -1 -4 -1t-5 -2q-5 -2 -10.5 -7.5t-11.5 -8.5h-4q-2 0 -4 -1q-4 -2 -13 -9.5 t-17 -5.5q-3 0 -1.5 0.5t-0.5 1.5q-2 0 -4.5 -3t-5.5 -5q-6 -4 -10.5 -5.5t-8 -3t-6 -4.5t-5.5 -9q-1 -3 -1.5 -7.5t0.5 -7.5q7 -14 6.5 -24t0.5 -21q0 -2 2 -4t3 -5q0 -1 -1 -3t0 -4q10 -16 12 -31l4 -31q0 -2 2.5 -5.5t3.5 -7.5q1 -12 4 -30t2 -32q0 -11 4 -21.5t1 -18.5 q-2 -4 -4 -14q0 -1 1.5 -3.5t1.5 -4.5q1 -2 0.5 -4.5t-0.5 -5.5q-1 -3 -4 -9.5t-3 -9.5q-1 -6 0.5 -12t0.5 -12q0 -8 -4.5 -16.5t-7.5 -16.5q-1 -2 -0.5 -4.5t-0.5 -7.5q-2 -8 -6 -19t-5 -14zM584 1099q1 -12 6 -26.5t16 -22.5q5 -12 12.5 -19.5t14.5 -15.5q5 -5 9 -12.5 t12 -11.5q0 -4 1.5 -5.5t3.5 -2.5t3.5 -2.5t0.5 -4.5q6 0 4.5 -3.5t0.5 -5.5q2 -5 4 -8.5t3 -8.5q-3 -5 -3.5 -9t-7.5 -4l1 1q-8 5 -14.5 11t-14.5 11q-2 4 -4.5 6t-4.5 6q-5 6 -11.5 10t-9.5 12q-5 2 -7 6t-6 7q-2 -1 -3.5 2t-3.5 4q-5 5 -12 8t-5 11q-4 3 -3.5 8t-1.5 8 q-3 5 -2 11t0 12q1 7 -0.5 14t3.5 12q5 1 9.5 3.5t9.5 -1.5z" />
<glyph unicode="&#xc1;" horiz-adv-x="744" d="M609 -179q-1 -2 -4 -7.5t-7 -12l-7 -11.5t-4 -6q-8 -5 -14.5 -6.5t-11.5 -2.5q-1 -1 -3 -2.5t-5 -0.5q-4 1 -6 5q1 4 4 9t3 10q1 3 -0.5 6.5t-1.5 5.5q1 2 1.5 5.5t1.5 6.5q0 13 -2.5 29t-1.5 32q0 2 1.5 7.5t0.5 8.5q0 11 -1.5 24.5t-1.5 27.5q0 2 1.5 5l2.5 5 q-2 4 -2 5l4 40t3 41q0 3 -1.5 9t0.5 12q2 14 4 33.5t4 33.5q1 3 -0.5 7.5l-3.5 10.5q0 2 1.5 5l2.5 5q1 6 1.5 13t-0.5 14q-1 4 -2 8.5t-2 9.5q0 1 1 3.5t1 4.5t-1.5 4.5t-2.5 4.5q-2 -1 -1 -0.5t-1 -2.5q-3 -7 -4 -17t-1 -20q0 -9 -0.5 -18t-1.5 -15q0 -3 -3 -7.5t-3 -9.5 q-1 -8 -0.5 -18.5t-0.5 -18.5t-3.5 -18t-4.5 -21q0 -1 1 -3.5t1 -4.5l-4.5 -28t-3.5 -28q0 -2 1 -4.5t0 -4.5q-2 -9 -1.5 -19.5t-1.5 -21.5q0 -5 2.5 -11t3.5 -12q1 -21 1 -43q0 -23 -2 -46q-2 2 -5.5 7t-6.5 10q-1 2 -0.5 5t0.5 5q0 5 -0.5 14.5t-0.5 17.5q1 15 0 33t1 30 q0 4 -1 10t0 13q2 32 4 60t7 57q1 6 0.5 19t0.5 21q1 4 3 10t2 12q0 8 1.5 19t3.5 22t3 20.5t0 14.5q-2 0 -12 -2q-11 -3 -24.5 -8t-27.5 -9q-5 -2 -10 -1.5t-10 -1.5q-13 -4 -26.5 -6.5t-27 -5.5t-26 -8.5t-22.5 -14.5q-11 -10 -19.5 -26.5t-14.5 -33t-9.5 -29t-4.5 -13.5 q-3 -6 -2 -8.5t3 -3.5l4 -2t1 -3t-7.5 -3.5t-8.5 -4.5q-7 -10 -15.5 -31t-17.5 -38q-5 -10 -9.5 -23.5t-9.5 -24.5l-7 -14l-7.5 -15l-6.5 -13t-4 -7q0 -1 -4 -11.5t-8.5 -23.5l-8.5 -25.5l-6 -18.5l-28.5 -94.5l-28.5 -95.5q-5 -2 -11.5 -6.5t-9.5 -4.5q-2 1 -9 1t-10 1 q-2 0 -4.5 2t-1.5 4q2 5 5 11t5 11q1 2 0 5.5t0 5.5q6 16 13 32.5t11 33.5q5 17 14.5 41.5l17.5 46.5q2 7 3 11.5t6 18.5q2 5 4.5 12t4.5 14q2 2 1 4.5t0 4.5q2 7 6.5 14t7.5 14q2 5 2 13q0 7 1 12q0 3 2.5 7t3.5 7q1 2 0.5 5t0.5 5l5 17t6 19t5 16t3 8q1 3 18 43.5 l55 135.5v1l-2 1q-2 0 -14 -3t-21 -4q-17 -1 -37.5 -0.5t-39.5 -0.5q-4 0 -10 -1.5t-9 -0.5q-2 0 -10 1t-17 1.5t-17.5 1.5t-9.5 1q-2 1 -8.5 3.5t-8.5 2.5q-8 1 -11 -6q-4 -10 3 -27t13 -26q1 -2 3 -2.5t3 -2.5q2 -2 3 -4.5t3 -4.5q8 -5 20 -13.5t23 -12.5l20 -8.5t16 -6.5 h12q11 0 14 -1q3 0 3 -8q-8 2 -18.5 2.5t-13.5 1.5q-1 0 -5.5 1.5t-9.5 3.5t-9.5 4t-5.5 2q-2 0 -4.5 -0.5t-5.5 0.5q-2 0 -5.5 4t-6.5 4q-2 1 -2.5 -1t-3.5 -1q-2 1 -6 4.5t-8 5.5q-2 1 -5 1t-6 1q-4 2 -9 7t-9 10q-2 2 -5 2t-5 2l-21 27t-14 31q0 1 1 3.5t1 4.5 q0 5 0.5 11t-3.5 10q-2 2 -13.5 8t-16.5 12q-8 8 -14 21.5t-4 23.5q1 1 0 2.5t1 4.5q3 7 14 17t24.5 19t26 15.5l16.5 8.5l22 8.5t22 9.5q38 16 79 27.5t72 16.5q14 2 34.5 6t32.5 6q13 2 30.5 3t32.5 3q5 9 10 22t6 16l27 66q1 1 5.5 12t11 25l13 29l11.5 26q7 15 15 35.5 t16 43.5q2 4 3 10.5t2 8.5q3 8 11.5 18.5t22.5 16.5q9 4 14 5.5t8 3t5 4t4 8.5q1 2 3 19t3 29q0 1 2 3t1 4q0 5 -0.5 10t1.5 10q4 8 7.5 19.5t7.5 21.5q-2 3 0 7q1 2 7 6t12 6q9 3 19 6t17 2q8 -2 13 -9.5t7 -16.5t2 -19q0 -9 -1 -13q-3 -8 -8 -17.5t-6 -18.5v-24 q0 -18 0.5 -42.5t0.5 -50.5v-47q-1 -18 -3 -39.5l-4 -41.5t-7 -43t-10 -40q-4 -13 -6.5 -30t-7.5 -28q-2 -5 -2 -13q0 -7 -2 -14l14 -3q2 0 7.5 1t8.5 0q1 0 6.5 -1t12.5 -3l14.5 -4t12.5 -3q2 -2 9.5 -5.5t11.5 -7.5q2 -3 5 -7t5 -6t1.5 -10t-0.5 -11q0 -2 2 -5.5t0 -5.5 q-1 -3 -4.5 -10t-7.5 -11q-3 -3 -8 -6.5t-10 -7.5q-1 -1 -4 -1t-5 -2q-5 -2 -10.5 -7.5t-11.5 -8.5h-4q-2 0 -4 -1q-4 -2 -13 -9.5t-17 -5.5q-3 0 -1.5 0.5t-0.5 1.5q-2 0 -4.5 -3t-5.5 -5q-6 -4 -10.5 -5.5t-8 -3t-6 -4.5t-5.5 -9q-1 -3 -1.5 -7.5t0.5 -7.5q7 -14 6.5 -24 t0.5 -21q0 -2 2 -4t3 -5q0 -1 -1 -3t0 -4q10 -16 12 -31l4 -31q0 -2 2.5 -5.5t3.5 -7.5q1 -12 4 -30t2 -32q0 -11 4 -21.5t1 -18.5q-2 -4 -4 -14q0 -1 1.5 -3.5t1.5 -4.5q1 -2 0.5 -4.5t-0.5 -5.5q-1 -3 -4 -9.5t-3 -9.5q-1 -6 0.5 -12t0.5 -12q0 -8 -4.5 -16.5t-7.5 -16.5 q-1 -2 -0.5 -4.5t-0.5 -7.5q-2 -8 -6 -19t-5 -14zM707 327q2 5 2 10q0 6 -8 10q-2 1 -5 1q-2 0 -4 1t-3 3.5t-3 2.5q-5 3 -14.5 5.5t-11.5 3.5q-3 0 -6.5 -1t-6.5 0q-3 0 -5 2.5t-5 3.5q-2 1 -6.5 0.5t-6.5 -0.5l-2 -5q-2 -15 -2.5 -30t-3.5 -29q-2 -10 -4.5 -20.5 t-2.5 -15.5q11 2 23.5 6.5l25.5 9.5q7 3 13 8.5t11 9.5q2 0 4 0.5t3 0.5q4 4 10 12.5t8 10.5zM575 395q8 44 12 100t-1 111q0 4 -3.5 5.5t-6.5 3.5l-31 -58.5l-34.5 -64l-28 -52t-11.5 -22.5l-6 -16q5 -1 12.5 -3.5l15 -5t13 -5t7.5 -2.5t11 0.5t19.5 2t20 3.5t11.5 3z M585 291q4 5 3 10t1 10q0 1 2.5 9t4.5 17.5t1.5 17.5t-5.5 9q-2 0 -6 -0.5t-6 0.5q-2 -4 -4 -7.5t-3 -5.5q5 -3 5 -6l-4 -12t-1 -11q0 -8 4 -17t8 -14zM567 343l3 8q2 3 1 6t-2 5q-2 1 -3 2t-3 1q-3 1 -7.5 0t-8.5 -1q5 -7 10 -13t10 -8zM551 251q-1 6 -1 12t-1 11t-3.5 9 t-2.5 8q-1 3 2 6.5t2 5.5q-3 2 -4 6.5t-3 6.5q-3 5 -7 10l-8 10q-2 3 -6.5 4.5t-6.5 3.5t-6 5t-6 3t-9 -1l-17 -2.5t-20 -3.5t-16 -2q-15 -26 -22.5 -47.5t-18.5 -42.5q-2 -5 -8 -15.5t-7 -13.5q-2 -2 -2.5 -7.5t-1.5 -10.5l41.5 9t45.5 11t45 12.5zM600 -107q5 10 6.5 24 t-0.5 25q0 7 2.5 15t2.5 14q0 4 -0.5 8.5t-0.5 7.5q0 14 -2.5 26.5t-3.5 26.5q0 4 1 5q0 1 1 2q0 2 -2 7t-3 7q-2 6 -4 15t-5 17q-2 3 -0.5 7.5t0.5 7.5q-3 3 -6 3q-2 -11 -2.5 -30t-1.5 -33q-1 -11 -4.5 -22.5t-3.5 -25.5q0 -7 -1 -15t-1 -15q-1 -8 1 -17t4 -17q1 -2 0 -9 t-1 -14q0 -8 2.5 -14.5t8.5 -7.5q7 0 13 2zM344 277q1 3 0 5t1 4q5 7 9 16t3 15q-26 3 -57 -5.5l-62 -16.5q-2 -1 -5 -3t-5 -2q-9 -2 -24 -8t-31.5 -13.5t-32.5 -16.5t-26 -17q-8 -6 -14.5 -15t-11.5 -17q1 -1 10.5 -5t11.5 -5q3 0 2.5 1t2.5 0q2 -1 8 -5t9 -4q3 -1 5 0t4 1 q17 -3 39 -4.5t40 -0.5q14 0 29 2l30 4q5 1 12 1t10 4q10 12 15.5 25.5t13.5 27.5q2 2 1.5 5t0.5 5q3 5 7 12.5t5 9.5zM379 363q1 3 1 5q0 3 1 5q-5 1 -9.5 2.5t-8.5 1.5h-24q-48 2 -93 -8t-98 -30q-5 -2 -12.5 -4t-12.5 -4q-11 -6 -25.5 -12t-22.5 -11l-29 -20t-22 -25 q-2 -4 3 -10.5t12 -13.5t13.5 -12.5t9.5 -6.5q11 17 29.5 30.5t40.5 25t44 20l40 15.5q11 5 24 9t24 7q15 5 31 9.5l27 7.5q12 4 24 6.5t24 6.5q8 2 9 6z" />
<glyph unicode="&#xc2;" horiz-adv-x="744" d="M379 363q1 3 1 5q0 3 1 5q-5 1 -9.5 2.5t-8.5 1.5h-24q-48 2 -93 -8t-98 -30q-5 -2 -12.5 -4t-12.5 -4q-11 -6 -25.5 -12t-22.5 -11l-29 -20t-22 -25q-2 -4 3 -10.5t12 -13.5t13.5 -12.5t9.5 -6.5q11 17 29.5 30.5t40.5 25t44 20l40 15.5q11 5 24 9t24 7q15 5 31 9.5 l27 7.5q12 4 24 6.5t24 6.5q8 2 9 6zM344 277q1 3 0 5t1 4q5 7 9 16t3 15q-26 3 -57 -5.5l-62 -16.5q-2 -1 -5 -3t-5 -2q-9 -2 -24 -8t-31.5 -13.5t-32.5 -16.5t-26 -17q-8 -6 -14.5 -15t-11.5 -17q1 -1 10.5 -5t11.5 -5q3 0 2.5 1t2.5 0q2 -1 8 -5t9 -4q3 -1 5 0t4 1 q17 -3 39 -4.5t40 -0.5q14 0 29 2l30 4q5 1 12 1t10 4q10 12 15.5 25.5t13.5 27.5q2 2 1.5 5t0.5 5q3 5 7 12.5t5 9.5zM600 -107q5 10 6.5 24t-0.5 25q0 7 2.5 15t2.5 14q0 4 -0.5 8.5t-0.5 7.5q0 14 -2.5 26.5t-3.5 26.5q0 4 1 5q0 1 1 2q0 2 -2 7t-3 7q-2 6 -4 15t-5 17 q-2 3 -0.5 7.5t0.5 7.5q-3 3 -6 3q-2 -11 -2.5 -30t-1.5 -33q-1 -11 -4.5 -22.5t-3.5 -25.5q0 -7 -1 -15t-1 -15q-1 -8 1 -17t4 -17q1 -2 0 -9t-1 -14q0 -8 2.5 -14.5t8.5 -7.5q7 0 13 2zM551 251q-1 6 -1 12t-1 11t-3.5 9t-2.5 8q-1 3 2 6.5t2 5.5q-3 2 -4 6.5t-3 6.5 q-3 5 -7 10l-8 10q-2 3 -6.5 4.5t-6.5 3.5t-6 5t-6 3t-9 -1l-17 -2.5t-20 -3.5t-16 -2q-15 -26 -22.5 -47.5t-18.5 -42.5q-2 -5 -8 -15.5t-7 -13.5q-2 -2 -2.5 -7.5t-1.5 -10.5l41.5 9t45.5 11t45 12.5zM570 351q2 3 1 6t-2 5q-2 1 -3 2t-3 1q-3 1 -7.5 0t-8.5 -1 q5 -7 10 -13t10 -8zM585 291q4 5 3 10t1 10q0 1 2.5 9t4.5 17.5t1.5 17.5t-5.5 9q-2 0 -6 -0.5t-6 0.5q-2 -4 -4 -7.5t-3 -5.5q5 -3 5 -6l-4 -12t-1 -11q0 -8 4 -17t8 -14zM575 395q8 44 12 100t-1 111q0 4 -3.5 5.5t-6.5 3.5l-31 -58.5l-34.5 -64l-28 -52t-11.5 -22.5 l-6 -16q5 -1 12.5 -3.5l15 -5t13 -5t7.5 -2.5t11 0.5t19.5 2t20 3.5t11.5 3zM707 327q2 5 2 10q0 6 -8 10q-2 1 -5 1q-2 0 -4 1t-3 3.5t-3 2.5q-5 3 -14.5 5.5t-11.5 3.5q-3 0 -6.5 -1t-6.5 0q-3 0 -5 2.5t-5 3.5q-2 1 -6.5 0.5t-6.5 -0.5l-2 -5q-2 -15 -2.5 -30t-3.5 -29 q-2 -10 -4.5 -20.5t-2.5 -15.5q11 2 23.5 6.5l25.5 9.5q7 3 13 8.5t11 9.5q2 0 4 0.5t3 0.5q4 4 10 12.5t8 10.5zM609 -179q-1 -2 -4 -7.5t-7 -12l-7 -11.5t-4 -6q-8 -5 -14.5 -6.5t-11.5 -2.5q-1 -1 -3 -2.5t-5 -0.5q-4 1 -6 5q1 4 4 9t3 10q1 3 -0.5 6.5t-1.5 5.5 q1 2 1.5 5.5t1.5 6.5q0 13 -2.5 29t-1.5 32q0 2 1.5 7.5t0.5 8.5q0 11 -1.5 24.5t-1.5 27.5q0 2 1.5 5l2.5 5q-2 4 -2 5l4 40t3 41q0 3 -1.5 9t0.5 12q2 14 4 33.5t4 33.5q1 3 -0.5 7.5l-3.5 10.5q0 2 1.5 5l2.5 5q1 6 1.5 13t-0.5 14q-1 4 -2 8.5t-2 9.5q0 1 1 3.5t1 4.5 t-1.5 4.5t-2.5 4.5q-2 -1 -1 -0.5t-1 -2.5q-3 -7 -4 -17t-1 -20q0 -9 -0.5 -18t-1.5 -15q0 -3 -3 -7.5t-3 -9.5q-1 -8 -0.5 -18.5t-0.5 -18.5t-3.5 -18t-4.5 -21q0 -1 1 -3.5t1 -4.5l-4.5 -28t-3.5 -28q0 -2 1 -4.5t0 -4.5q-2 -9 -1.5 -19.5t-1.5 -21.5q0 -5 2.5 -11 t3.5 -12q1 -21 1 -43q0 -23 -2 -46q-2 2 -5.5 7t-6.5 10q-1 2 -0.5 5t0.5 5q0 5 -0.5 14.5t-0.5 17.5q1 15 0 33t1 30q0 4 -1 10t0 13q2 32 4 60t7 57q1 6 0.5 19t0.5 21q1 4 3 10t2 12q0 8 1.5 19t3.5 22t3 20.5t0 14.5q-2 0 -12 -2q-11 -3 -24.5 -8t-27.5 -9 q-5 -2 -10 -1.5t-10 -1.5q-13 -4 -26.5 -6.5t-27 -5.5t-26 -8.5t-22.5 -14.5q-11 -10 -19.5 -26.5t-14.5 -33t-9.5 -29t-4.5 -13.5q-3 -6 -2 -8.5t3 -3.5l4 -2t1 -3t-7.5 -3.5t-8.5 -4.5q-7 -10 -15.5 -31t-17.5 -38q-5 -10 -9.5 -23.5t-9.5 -24.5l-7 -14l-7.5 -15l-6.5 -13 t-4 -7q0 -1 -4 -11.5t-8.5 -23.5l-8.5 -25.5l-6 -18.5l-28.5 -94.5l-28.5 -95.5q-5 -2 -11.5 -6.5t-9.5 -4.5q-2 1 -9 1t-10 1q-2 0 -4.5 2t-1.5 4q2 5 5 11t5 11q1 2 0 5.5t0 5.5q6 16 13 32.5t11 33.5q5 17 14.5 41.5l17.5 46.5q2 7 3 11.5t6 18.5q2 5 4.5 12t4.5 14 q2 2 1 4.5t0 4.5q2 7 6.5 14t7.5 14q2 5 2 13q0 7 1 12q0 3 2.5 7t3.5 7q1 2 0.5 5t0.5 5l5 17t6 19t5 16t3 8q1 3 18 43.5l55 135.5v1l-2 1q-2 0 -14 -3t-21 -4q-17 -1 -37.5 -0.5t-39.5 -0.5q-4 0 -10 -1.5t-9 -0.5q-2 0 -10 1t-17 1.5t-17.5 1.5t-9.5 1q-2 1 -8.5 3.5 t-8.5 2.5q-8 1 -11 -6q-4 -10 3 -27t13 -26q1 -2 3 -2.5t3 -2.5q2 -2 3 -4.5t3 -4.5q8 -5 20 -13.5t23 -12.5l20 -8.5t16 -6.5h12q11 0 14 -1q3 0 3 -8q-8 2 -18.5 2.5t-13.5 1.5q-1 0 -5.5 1.5t-9.5 3.5t-9.5 4t-5.5 2q-2 0 -4.5 -0.5t-5.5 0.5q-2 0 -5.5 4t-6.5 4 q-2 1 -2.5 -1t-3.5 -1q-2 1 -6 4.5t-8 5.5q-2 1 -5 1t-6 1q-4 2 -9 7t-9 10q-2 2 -5 2t-5 2l-21 27t-14 31q0 1 1 3.5t1 4.5q0 5 0.5 11t-3.5 10q-2 2 -13.5 8t-16.5 12q-8 8 -14 21.5t-4 23.5q1 1 0 2.5t1 4.5q3 7 14 17t24.5 19t26 15.5l16.5 8.5l22 8.5t22 9.5 q38 16 79 27.5t72 16.5q14 2 34.5 6t32.5 6q13 2 30.5 3t32.5 3q5 9 10 22t6 16l27 66q1 1 5.5 12t11 25l13 29l11.5 26q7 15 15 35.5t16 43.5q2 4 3 10.5t2 8.5q3 8 11.5 18.5t22.5 16.5q9 4 14 5.5t8 3t5 4t4 8.5q1 2 3 19t3 29q0 1 2 3t1 4q0 5 -0.5 10t1.5 10 q4 8 7.5 19.5t7.5 21.5q-2 3 0 7q1 2 7 6t12 6q9 3 19 6t17 2q8 -2 13 -9.5t7 -16.5t2 -19q0 -9 -1 -13q-3 -8 -8 -17.5t-6 -18.5v-24q0 -18 0.5 -42.5t0.5 -50.5v-47q-1 -18 -3 -39.5l-4 -41.5t-7 -43t-10 -40q-4 -13 -6.5 -30t-7.5 -28q-2 -5 -2 -13q0 -7 -2 -14l14 -3 q2 0 7.5 1t8.5 0q1 0 6.5 -1t12.5 -3l14.5 -4t12.5 -3q2 -2 9.5 -5.5t11.5 -7.5q2 -3 5 -7t5 -6t1.5 -10t-0.5 -11q0 -2 2 -5.5t0 -5.5q-1 -3 -4.5 -10t-7.5 -11q-3 -3 -8 -6.5t-10 -7.5q-1 -1 -4 -1t-5 -2q-5 -2 -10.5 -7.5t-11.5 -8.5h-4q-2 0 -4 -1q-4 -2 -13 -9.5 t-17 -5.5q-3 0 -1.5 0.5t-0.5 1.5q-2 0 -4.5 -3t-5.5 -5q-6 -4 -10.5 -5.5t-8 -3t-6 -4.5t-5.5 -9q-1 -3 -1.5 -7.5t0.5 -7.5q7 -14 6.5 -24t0.5 -21q0 -2 2 -4t3 -5q0 -1 -1 -3t0 -4q10 -16 12 -31l4 -31q0 -2 2.5 -5.5t3.5 -7.5q1 -12 4 -30t2 -32q0 -11 4 -21.5t1 -18.5 q-2 -4 -4 -14q0 -1 1.5 -3.5t1.5 -4.5q1 -2 0.5 -4.5t-0.5 -5.5q-1 -3 -4 -9.5t-3 -9.5q-1 -6 0.5 -12t0.5 -12q0 -8 -4.5 -16.5t-7.5 -16.5q-1 -2 -0.5 -4.5t-0.5 -7.5q-2 -8 -6 -19t-5 -14zM743 967q0 -5 1 -9.5t0 -9.5q-2 -7 2.5 -13.5t2.5 -12.5q-2 -5 -1.5 -11.5 t-4.5 -10.5q-4 -2 -5.5 0.5t-2.5 4.5q-4 18 -19.5 35t-29.5 29q-5 5 -15 6.5t-15 3.5q-10 5 -19 -1t-17 -12q-4 -3 -8 -5.5t-6 -6.5t-2 -8t-2 -9q-1 -5 -4 -7.5t-6 -7.5q-5 -7 -9.5 -12t-5.5 -13q-2 -8 -4.5 -12t-1.5 -12q1 -3 -2 -6t-6 -3q-8 1 -9 9.5l-2 16.5t2.5 15.5 l7.5 15.5t7.5 13.5t6.5 13.5q6 21 21 34l15.5 13l15.5 13t16 7t16 5q3 1 8 0t11 -2.5t11 -3.5t8 -2q10 1 18.5 -10.5t14.5 -18.5q3 -4 5.5 -5t4 -2t2 -2.5t0.5 -6.5z" />
<glyph unicode="&#xc3;" horiz-adv-x="744" d="M609 -179q-1 -2 -4 -7.5t-7 -12l-7 -11.5t-4 -6q-8 -5 -14.5 -6.5t-11.5 -2.5q-1 -1 -3 -2.5t-5 -0.5q-4 1 -6 5q1 4 4 9t3 10q1 3 -0.5 6.5t-1.5 5.5q1 2 1.5 5.5t1.5 6.5q0 13 -2.5 29t-1.5 32q0 2 1.5 7.5t0.5 8.5q0 11 -1.5 24.5t-1.5 27.5q0 2 1.5 5l2.5 5 q-2 4 -2 5l4 40t3 41q0 3 -1.5 9t0.5 12q2 14 4 33.5t4 33.5q1 3 -0.5 7.5l-3.5 10.5q0 2 1.5 5l2.5 5q1 6 1.5 13t-0.5 14q-1 4 -2 8.5t-2 9.5q0 1 1 3.5t1 4.5t-1.5 4.5t-2.5 4.5q-2 -1 -1 -0.5t-1 -2.5q-3 -7 -4 -17t-1 -20q0 -9 -0.5 -18t-1.5 -15q0 -3 -3 -7.5t-3 -9.5 q-1 -8 -0.5 -18.5t-0.5 -18.5t-3.5 -18t-4.5 -21q0 -1 1 -3.5t1 -4.5l-4.5 -28t-3.5 -28q0 -2 1 -4.5t0 -4.5q-2 -9 -1.5 -19.5t-1.5 -21.5q0 -5 2.5 -11t3.5 -12q1 -21 1 -43q0 -23 -2 -46q-2 2 -5.5 7t-6.5 10q-1 2 -0.5 5t0.5 5q0 5 -0.5 14.5t-0.5 17.5q1 15 0 33t1 30 q0 4 -1 10t0 13q2 32 4 60t7 57q1 6 0.5 19t0.5 21q1 4 3 10t2 12q0 8 1.5 19t3.5 22t3 20.5t0 14.5q-2 0 -12 -2q-11 -3 -24.5 -8t-27.5 -9q-5 -2 -10 -1.5t-10 -1.5q-13 -4 -26.5 -6.5t-27 -5.5t-26 -8.5t-22.5 -14.5q-11 -10 -19.5 -26.5t-14.5 -33t-9.5 -29t-4.5 -13.5 q-3 -6 -2 -8.5t3 -3.5l4 -2t1 -3t-7.5 -3.5t-8.5 -4.5q-7 -10 -15.5 -31t-17.5 -38q-5 -10 -9.5 -23.5t-9.5 -24.5l-7 -14l-7.5 -15l-6.5 -13t-4 -7q0 -1 -4 -11.5t-8.5 -23.5l-8.5 -25.5l-6 -18.5l-28.5 -94.5l-28.5 -95.5q-5 -2 -11.5 -6.5t-9.5 -4.5q-2 1 -9 1t-10 1 q-2 0 -4.5 2t-1.5 4q2 5 5 11t5 11q1 2 0 5.5t0 5.5q6 16 13 32.5t11 33.5q5 17 14.5 41.5l17.5 46.5q2 7 3 11.5t6 18.5q2 5 4.5 12t4.5 14q2 2 1 4.5t0 4.5q2 7 6.5 14t7.5 14q2 5 2 13q0 7 1 12q0 3 2.5 7t3.5 7q1 2 0.5 5t0.5 5l5 17t6 19t5 16t3 8q1 3 18 43.5 l55 135.5v1l-2 1q-2 0 -14 -3t-21 -4q-17 -1 -37.5 -0.5t-39.5 -0.5q-4 0 -10 -1.5t-9 -0.5q-2 0 -10 1t-17 1.5t-17.5 1.5t-9.5 1q-2 1 -8.5 3.5t-8.5 2.5q-8 1 -11 -6q-4 -10 3 -27t13 -26q1 -2 3 -2.5t3 -2.5q2 -2 3 -4.5t3 -4.5q8 -5 20 -13.5t23 -12.5l20 -8.5t16 -6.5 h12q11 0 14 -1q3 0 3 -8q-8 2 -18.5 2.5t-13.5 1.5q-1 0 -5.5 1.5t-9.5 3.5t-9.5 4t-5.5 2q-2 0 -4.5 -0.5t-5.5 0.5q-2 0 -5.5 4t-6.5 4q-2 1 -2.5 -1t-3.5 -1q-2 1 -6 4.5t-8 5.5q-2 1 -5 1t-6 1q-4 2 -9 7t-9 10q-2 2 -5 2t-5 2l-21 27t-14 31q0 1 1 3.5t1 4.5 q0 5 0.5 11t-3.5 10q-2 2 -13.5 8t-16.5 12q-8 8 -14 21.5t-4 23.5q1 1 0 2.5t1 4.5q3 7 14 17t24.5 19t26 15.5l16.5 8.5l22 8.5t22 9.5q38 16 79 27.5t72 16.5q14 2 34.5 6t32.5 6q13 2 30.5 3t32.5 3q5 9 10 22t6 16l27 66q1 1 5.5 12t11 25l13 29l11.5 26q7 15 15 35.5 t16 43.5q2 4 3 10.5t2 8.5q3 8 11.5 18.5t22.5 16.5q9 4 14 5.5t8 3t5 4t4 8.5q1 2 3 19t3 29q0 1 2 3t1 4q0 5 -0.5 10t1.5 10q4 8 7.5 19.5t7.5 21.5q-2 3 0 7q1 2 7 6t12 6q9 3 19 6t17 2q8 -2 13 -9.5t7 -16.5t2 -19q0 -9 -1 -13q-3 -8 -8 -17.5t-6 -18.5v-24 q0 -18 0.5 -42.5t0.5 -50.5v-47q-1 -18 -3 -39.5l-4 -41.5t-7 -43t-10 -40q-4 -13 -6.5 -30t-7.5 -28q-2 -5 -2 -13q0 -7 -2 -14l14 -3q2 0 7.5 1t8.5 0q1 0 6.5 -1t12.5 -3l14.5 -4t12.5 -3q2 -2 9.5 -5.5t11.5 -7.5q2 -3 5 -7t5 -6t1.5 -10t-0.5 -11q0 -2 2 -5.5t0 -5.5 q-1 -3 -4.5 -10t-7.5 -11q-3 -3 -8 -6.5t-10 -7.5q-1 -1 -4 -1t-5 -2q-5 -2 -10.5 -7.5t-11.5 -8.5h-4q-2 0 -4 -1q-4 -2 -13 -9.5t-17 -5.5q-3 0 -1.5 0.5t-0.5 1.5q-2 0 -4.5 -3t-5.5 -5q-6 -4 -10.5 -5.5t-8 -3t-6 -4.5t-5.5 -9q-1 -3 -1.5 -7.5t0.5 -7.5q7 -14 6.5 -24 t0.5 -21q0 -2 2 -4t3 -5q0 -1 -1 -3t0 -4q10 -16 12 -31l4 -31q0 -2 2.5 -5.5t3.5 -7.5q1 -12 4 -30t2 -32q0 -11 4 -21.5t1 -18.5q-2 -4 -4 -14q0 -1 1.5 -3.5t1.5 -4.5q1 -2 0.5 -4.5t-0.5 -5.5q-1 -3 -4 -9.5t-3 -9.5q-1 -6 0.5 -12t0.5 -12q0 -8 -4.5 -16.5t-7.5 -16.5 q-1 -2 -0.5 -4.5t-0.5 -7.5q-2 -8 -6 -19t-5 -14zM707 327q2 5 2 10q0 6 -8 10q-2 1 -5 1q-2 0 -4 1t-3 3.5t-3 2.5q-5 3 -14.5 5.5t-11.5 3.5q-3 0 -6.5 -1t-6.5 0q-3 0 -5 2.5t-5 3.5q-2 1 -6.5 0.5t-6.5 -0.5l-2 -5q-2 -15 -2.5 -30t-3.5 -29q-2 -10 -4.5 -20.5 t-2.5 -15.5q11 2 23.5 6.5l25.5 9.5q7 3 13 8.5t11 9.5q2 0 4 0.5t3 0.5q4 4 10 12.5t8 10.5zM575 395q8 44 12 100t-1 111q0 4 -3.5 5.5t-6.5 3.5l-31 -58.5l-34.5 -64l-28 -52t-11.5 -22.5l-6 -16q5 -1 12.5 -3.5l15 -5t13 -5t7.5 -2.5t11 0.5t19.5 2t20 3.5t11.5 3z M585 291q4 5 3 10t1 10q0 1 2.5 9t4.5 17.5t1.5 17.5t-5.5 9q-2 0 -6 -0.5t-6 0.5q-2 -4 -4 -7.5t-3 -5.5q5 -3 5 -6l-4 -12t-1 -11q0 -8 4 -17t8 -14zM567 343l3 8q2 3 1 6t-2 5q-2 1 -3 2t-3 1q-3 1 -7.5 0t-8.5 -1q5 -7 10 -13t10 -8zM551 251q-1 6 -1 12t-1 11t-3.5 9 t-2.5 8q-1 3 2 6.5t2 5.5q-3 2 -4 6.5t-3 6.5q-3 5 -7 10l-8 10q-2 3 -6.5 4.5t-6.5 3.5t-6 5t-6 3t-9 -1l-17 -2.5t-20 -3.5t-16 -2q-15 -26 -22.5 -47.5t-18.5 -42.5q-2 -5 -8 -15.5t-7 -13.5q-2 -2 -2.5 -7.5t-1.5 -10.5l41.5 9t45.5 11t45 12.5zM600 -107q5 10 6.5 24 t-0.5 25q0 7 2.5 15t2.5 14q0 4 -0.5 8.5t-0.5 7.5q0 14 -2.5 26.5t-3.5 26.5q0 4 1 5q0 1 1 2q0 2 -2 7t-3 7q-2 6 -4 15t-5 17q-2 3 -0.5 7.5t0.5 7.5q-3 3 -6 3q-2 -11 -2.5 -30t-1.5 -33q-1 -11 -4.5 -22.5t-3.5 -25.5q0 -7 -1 -15t-1 -15q-1 -8 1 -17t4 -17q1 -2 0 -9 t-1 -14q0 -8 2.5 -14.5t8.5 -7.5q7 0 13 2zM344 277q1 3 0 5t1 4q5 7 9 16t3 15q-26 3 -57 -5.5l-62 -16.5q-2 -1 -5 -3t-5 -2q-9 -2 -24 -8t-31.5 -13.5t-32.5 -16.5t-26 -17q-8 -6 -14.5 -15t-11.5 -17q1 -1 10.5 -5t11.5 -5q3 0 2.5 1t2.5 0q2 -1 8 -5t9 -4q3 -1 5 0t4 1 q17 -3 39 -4.5t40 -0.5q14 0 29 2l30 4q5 1 12 1t10 4q10 12 15.5 25.5t13.5 27.5q2 2 1.5 5t0.5 5q3 5 7 12.5t5 9.5zM379 363q1 3 1 5q0 3 1 5q-5 1 -9.5 2.5t-8.5 1.5h-24q-48 2 -93 -8t-98 -30q-5 -2 -12.5 -4t-12.5 -4q-11 -6 -25.5 -12t-22.5 -11l-29 -20t-22 -25 q-2 -4 3 -10.5t12 -13.5t13.5 -12.5t9.5 -6.5q11 17 29.5 30.5t40.5 25t44 20l40 15.5q11 5 24 9t24 7q15 5 31 9.5l27 7.5q12 4 24 6.5t24 6.5q8 2 9 6zM756 977q-6 -5 -13.5 -6t-12.5 -9q-8 -4 -16 -5.5t-15 -6.5q-9 -2 -19 -5t-19.5 -5t-19.5 -2t-19 5q-17 3 -32 16 q-8 3 -17.5 4.5t-17.5 4.5q-11 0 -22 -3t-22 -4q-2 2 -2 3q0 2 -2 4q2 5 6.5 7t8.5 6q10 1 16.5 9t17.5 8q9 11 23 11.5t27 -2.5l13 -11q3 -2 6 -3t5 -5q14 -2 27.5 -9.5t29.5 -0.5q8 4 18 5.5t17 9.5q8 2 17 4t17 -3q1 -5 1.5 -8.5t-1.5 -8.5z" />
<glyph unicode="&#xc4;" horiz-adv-x="744" d="M379 363q1 3 1 5q0 3 1 5q-5 1 -9.5 2.5t-8.5 1.5h-24q-48 2 -93 -8t-98 -30q-5 -2 -12.5 -4t-12.5 -4q-11 -6 -25.5 -12t-22.5 -11l-29 -20t-22 -25q-2 -4 3 -10.5t12 -13.5t13.5 -12.5t9.5 -6.5q11 17 29.5 30.5t40.5 25t44 20l40 15.5q11 5 24 9t24 7q15 5 31 9.5 l27 7.5q12 4 24 6.5t24 6.5q8 2 9 6zM344 277q1 3 0 5t1 4q5 7 9 16t3 15q-26 3 -57 -5.5l-62 -16.5q-2 -1 -5 -3t-5 -2q-9 -2 -24 -8t-31.5 -13.5t-32.5 -16.5t-26 -17q-8 -6 -14.5 -15t-11.5 -17q1 -1 10.5 -5t11.5 -5q3 0 2.5 1t2.5 0q2 -1 8 -5t9 -4q3 -1 5 0t4 1 q17 -3 39 -4.5t40 -0.5q14 0 29 2l30 4q5 1 12 1t10 4q10 12 15.5 25.5t13.5 27.5q2 2 1.5 5t0.5 5q3 5 7 12.5t5 9.5zM600 -107q5 10 6.5 24t-0.5 25q0 7 2.5 15t2.5 14q0 4 -0.5 8.5t-0.5 7.5q0 14 -2.5 26.5t-3.5 26.5q0 4 1 5q0 1 1 2q0 2 -2 7t-3 7q-2 6 -4 15t-5 17 q-2 3 -0.5 7.5t0.5 7.5q-3 3 -6 3q-2 -11 -2.5 -30t-1.5 -33q-1 -11 -4.5 -22.5t-3.5 -25.5q0 -7 -1 -15t-1 -15q-1 -8 1 -17t4 -17q1 -2 0 -9t-1 -14q0 -8 2.5 -14.5t8.5 -7.5q7 0 13 2zM551 251q-1 6 -1 12t-1 11t-3.5 9t-2.5 8q-1 3 2 6.5t2 5.5q-3 2 -4 6.5t-3 6.5 q-3 5 -7 10l-8 10q-2 3 -6.5 4.5t-6.5 3.5t-6 5t-6 3t-9 -1l-17 -2.5t-20 -3.5t-16 -2q-15 -26 -22.5 -47.5t-18.5 -42.5q-2 -5 -8 -15.5t-7 -13.5q-2 -2 -2.5 -7.5t-1.5 -10.5l41.5 9t45.5 11t45 12.5zM570 351q2 3 1 6t-2 5q-2 1 -3 2t-3 1q-3 1 -7.5 0t-8.5 -1 q5 -7 10 -13t10 -8zM585 291q4 5 3 10t1 10q0 1 2.5 9t4.5 17.5t1.5 17.5t-5.5 9q-2 0 -6 -0.5t-6 0.5q-2 -4 -4 -7.5t-3 -5.5q5 -3 5 -6l-4 -12t-1 -11q0 -8 4 -17t8 -14zM575 395q8 44 12 100t-1 111q0 4 -3.5 5.5t-6.5 3.5l-31 -58.5l-34.5 -64l-28 -52t-11.5 -22.5 l-6 -16q5 -1 12.5 -3.5l15 -5t13 -5t7.5 -2.5t11 0.5t19.5 2t20 3.5t11.5 3zM707 327q2 5 2 10q0 6 -8 10q-2 1 -5 1q-2 0 -4 1t-3 3.5t-3 2.5q-5 3 -14.5 5.5t-11.5 3.5q-3 0 -6.5 -1t-6.5 0q-3 0 -5 2.5t-5 3.5q-2 1 -6.5 0.5t-6.5 -0.5l-2 -5q-2 -15 -2.5 -30t-3.5 -29 q-2 -10 -4.5 -20.5t-2.5 -15.5q11 2 23.5 6.5l25.5 9.5q7 3 13 8.5t11 9.5q2 0 4 0.5t3 0.5q4 4 10 12.5t8 10.5zM609 -179q-1 -2 -4 -7.5t-7 -12l-7 -11.5t-4 -6q-8 -5 -14.5 -6.5t-11.5 -2.5q-1 -1 -3 -2.5t-5 -0.5q-4 1 -6 5q1 4 4 9t3 10q1 3 -0.5 6.5t-1.5 5.5 q1 2 1.5 5.5t1.5 6.5q0 13 -2.5 29t-1.5 32q0 2 1.5 7.5t0.5 8.5q0 11 -1.5 24.5t-1.5 27.5q0 2 1.5 5l2.5 5q-2 4 -2 5l4 40t3 41q0 3 -1.5 9t0.5 12q2 14 4 33.5t4 33.5q1 3 -0.5 7.5l-3.5 10.5q0 2 1.5 5l2.5 5q1 6 1.5 13t-0.5 14q-1 4 -2 8.5t-2 9.5q0 1 1 3.5t1 4.5 t-1.5 4.5t-2.5 4.5q-2 -1 -1 -0.5t-1 -2.5q-3 -7 -4 -17t-1 -20q0 -9 -0.5 -18t-1.5 -15q0 -3 -3 -7.5t-3 -9.5q-1 -8 -0.5 -18.5t-0.5 -18.5t-3.5 -18t-4.5 -21q0 -1 1 -3.5t1 -4.5l-4.5 -28t-3.5 -28q0 -2 1 -4.5t0 -4.5q-2 -9 -1.5 -19.5t-1.5 -21.5q0 -5 2.5 -11 t3.5 -12q1 -21 1 -43q0 -23 -2 -46q-2 2 -5.5 7t-6.5 10q-1 2 -0.5 5t0.5 5q0 5 -0.5 14.5t-0.5 17.5q1 15 0 33t1 30q0 4 -1 10t0 13q2 32 4 60t7 57q1 6 0.5 19t0.5 21q1 4 3 10t2 12q0 8 1.5 19t3.5 22t3 20.5t0 14.5q-2 0 -12 -2q-11 -3 -24.5 -8t-27.5 -9 q-5 -2 -10 -1.5t-10 -1.5q-13 -4 -26.5 -6.5t-27 -5.5t-26 -8.5t-22.5 -14.5q-11 -10 -19.5 -26.5t-14.5 -33t-9.5 -29t-4.5 -13.5q-3 -6 -2 -8.5t3 -3.5l4 -2t1 -3t-7.5 -3.5t-8.5 -4.5q-7 -10 -15.5 -31t-17.5 -38q-5 -10 -9.5 -23.5t-9.5 -24.5l-7 -14l-7.5 -15l-6.5 -13 t-4 -7q0 -1 -4 -11.5t-8.5 -23.5l-8.5 -25.5l-6 -18.5l-28.5 -94.5l-28.5 -95.5q-5 -2 -11.5 -6.5t-9.5 -4.5q-2 1 -9 1t-10 1q-2 0 -4.5 2t-1.5 4q2 5 5 11t5 11q1 2 0 5.5t0 5.5q6 16 13 32.5t11 33.5q5 17 14.5 41.5l17.5 46.5q2 7 3 11.5t6 18.5q2 5 4.5 12t4.5 14 q2 2 1 4.5t0 4.5q2 7 6.5 14t7.5 14q2 5 2 13q0 7 1 12q0 3 2.5 7t3.5 7q1 2 0.5 5t0.5 5l5 17t6 19t5 16t3 8q1 3 18 43.5l55 135.5v1l-2 1q-2 0 -14 -3t-21 -4q-17 -1 -37.5 -0.5t-39.5 -0.5q-4 0 -10 -1.5t-9 -0.5q-2 0 -10 1t-17 1.5t-17.5 1.5t-9.5 1q-2 1 -8.5 3.5 t-8.5 2.5q-8 1 -11 -6q-4 -10 3 -27t13 -26q1 -2 3 -2.5t3 -2.5q2 -2 3 -4.5t3 -4.5q8 -5 20 -13.5t23 -12.5l20 -8.5t16 -6.5h12q11 0 14 -1q3 0 3 -8q-8 2 -18.5 2.5t-13.5 1.5q-1 0 -5.5 1.5t-9.5 3.5t-9.5 4t-5.5 2q-2 0 -4.5 -0.5t-5.5 0.5q-2 0 -5.5 4t-6.5 4 q-2 1 -2.5 -1t-3.5 -1q-2 1 -6 4.5t-8 5.5q-2 1 -5 1t-6 1q-4 2 -9 7t-9 10q-2 2 -5 2t-5 2l-21 27t-14 31q0 1 1 3.5t1 4.5q0 5 0.5 11t-3.5 10q-2 2 -13.5 8t-16.5 12q-8 8 -14 21.5t-4 23.5q1 1 0 2.5t1 4.5q3 7 14 17t24.5 19t26 15.5l16.5 8.5l22 8.5t22 9.5 q38 16 79 27.5t72 16.5q14 2 34.5 6t32.5 6q13 2 30.5 3t32.5 3q5 9 10 22t6 16l27 66q1 1 5.5 12t11 25l13 29l11.5 26q7 15 15 35.5t16 43.5q2 4 3 10.5t2 8.5q3 8 11.5 18.5t22.5 16.5q9 4 14 5.5t8 3t5 4t4 8.5q1 2 3 19t3 29q0 1 2 3t1 4q0 5 -0.5 10t1.5 10 q4 8 7.5 19.5t7.5 21.5q-2 3 0 7q1 2 7 6t12 6q9 3 19 6t17 2q8 -2 13 -9.5t7 -16.5t2 -19q0 -9 -1 -13q-3 -8 -8 -17.5t-6 -18.5v-24q0 -18 0.5 -42.5t0.5 -50.5v-47q-1 -18 -3 -39.5l-4 -41.5t-7 -43t-10 -40q-4 -13 -6.5 -30t-7.5 -28q-2 -5 -2 -13q0 -7 -2 -14l14 -3 q2 0 7.5 1t8.5 0q1 0 6.5 -1t12.5 -3l14.5 -4t12.5 -3q2 -2 9.5 -5.5t11.5 -7.5q2 -3 5 -7t5 -6t1.5 -10t-0.5 -11q0 -2 2 -5.5t0 -5.5q-1 -3 -4.5 -10t-7.5 -11q-3 -3 -8 -6.5t-10 -7.5q-1 -1 -4 -1t-5 -2q-5 -2 -10.5 -7.5t-11.5 -8.5h-4q-2 0 -4 -1q-4 -2 -13 -9.5 t-17 -5.5q-3 0 -1.5 0.5t-0.5 1.5q-2 0 -4.5 -3t-5.5 -5q-6 -4 -10.5 -5.5t-8 -3t-6 -4.5t-5.5 -9q-1 -3 -1.5 -7.5t0.5 -7.5q7 -14 6.5 -24t0.5 -21q0 -2 2 -4t3 -5q0 -1 -1 -3t0 -4q10 -16 12 -31l4 -31q0 -2 2.5 -5.5t3.5 -7.5q1 -12 4 -30t2 -32q0 -11 4 -21.5t1 -18.5 q-2 -4 -4 -14q0 -1 1.5 -3.5t1.5 -4.5q1 -2 0.5 -4.5t-0.5 -5.5q-1 -3 -4 -9.5t-3 -9.5q-1 -6 0.5 -12t0.5 -12q0 -8 -4.5 -16.5t-7.5 -16.5q-1 -2 -0.5 -4.5t-0.5 -7.5q-2 -8 -6 -19t-5 -14zM616 970q-11 -10 -22 -17t-24 -9q-6 -1 -10.5 2t-8 8t-4.5 10.5t1 9.5 q7 14 22.5 25t32.5 11l3 -11q2 -3 6 -6t6.5 -7t2.5 -8t-5 -8zM755 967q-11 -10 -22 -17t-24 -9q-6 -1 -10.5 2t-8 8t-4.5 10.5t1 9.5q7 14 22.5 25t32.5 11l3 -11q2 -3 6 -6t6.5 -7t2.5 -8t-5 -8z" />
</font>
</defs>
</svg>
